{
  "midiPlayback": {
    "ppq": 384,
    "songEndTick": 165888,
    "tempoPoints": [
      {
        "tick": 0,
        "usPerQuarter": 555550
      },
      {
        "tick": 136704,
        "usPerQuarter": 566030
      },
      {
        "tick": 137472,
        "usPerQuarter": 576920
      },
      {
        "tick": 141312,
        "usPerQuarter": 555550
      },
      {
        "tick": 148992,
        "usPerQuarter": 566030
      },
      {
        "tick": 149376,
        "usPerQuarter": 576920
      },
      {
        "tick": 149760,
        "usPerQuarter": 588230
      },
      {
        "tick": 150144,
        "usPerQuarter": 600000
      },
      {
        "tick": 150528,
        "usPerQuarter": 666660
      },
      {
        "tick": 152064,
        "usPerQuarter": 555550
      },
      {
        "tick": 156672,
        "usPerQuarter": 566030
      },
      {
        "tick": 158208,
        "usPerQuarter": 576920
      },
      {
        "tick": 158592,
        "usPerQuarter": 588230
      },
      {
        "tick": 158976,
        "usPerQuarter": 600000
      }
    ],
    "notes": [
      {
        "startTick": 3072,
        "endTick": 3132,
        "pitch": 41,
        "velocity": 48,
        "trackId": 11,
        "channel": 10
      },
      {
        "startTick": 3072,
        "endTick": 3184,
        "pitch": 70,
        "velocity": 69,
        "trackId": 10,
        "channel": 9
      },
      {
        "startTick": 3072,
        "endTick": 3204,
        "pitch": 46,
        "velocity": 69,
        "trackId": 12,
        "channel": 11
      },
      {
        "startTick": 3072,
        "endTick": 4532,
        "pitch": 46,
        "velocity": 83,
        "trackId": 1,
        "channel": 0
      },
      {
        "startTick": 3072,
        "endTick": 6088,
        "pitch": 65,
        "velocity": 32,
        "trackId": 3,
        "channel": 2
      },
      {
        "startTick": 3084,
        "endTick": 6080,
        "pitch": 70,
        "velocity": 32,
        "trackId": 3,
        "channel": 2
      },
      {
        "startTick": 3256,
        "endTick": 4544,
        "pitch": 46,
        "velocity": 52,
        "trackId": 12,
        "channel": 11
      },
      {
        "startTick": 3260,
        "endTick": 3464,
        "pitch": 53,
        "velocity": 70,
        "trackId": 1,
        "channel": 0
      },
      {
        "startTick": 3264,
        "endTick": 3348,
        "pitch": 70,
        "velocity": 52,
        "trackId": 10,
        "channel": 9
      },
      {
        "startTick": 3420,
        "endTick": 3660,
        "pitch": 72,
        "velocity": 32,
        "trackId": 3,
        "channel": 2
      },
      {
        "startTick": 3444,
        "endTick": 3640,
        "pitch": 51,
        "velocity": 55,
        "trackId": 12,
        "channel": 11
      },
      {
        "startTick": 3448,
        "endTick": 3632,
        "pitch": 51,
        "velocity": 74,
        "trackId": 1,
        "channel": 0
      },
      {
        "startTick": 3456,
        "endTick": 3568,
        "pitch": 70,
        "velocity": 52,
        "trackId": 10,
        "channel": 9
      },
      {
        "startTick": 3456,
        "endTick": 3648,
        "pitch": 60,
        "velocity": 83,
        "trackId": 1,
        "channel": 0
      },
      {
        "startTick": 3632,
        "endTick": 4616,
        "pitch": 53,
        "velocity": 61,
        "trackId": 12,
        "channel": 11
      },
      {
        "startTick": 3636,
        "endTick": 4596,
        "pitch": 53,
        "velocity": 83,
        "trackId": 1,
        "channel": 0
      },
      {
        "startTick": 3644,
        "endTick": 4624,
        "pitch": 62,
        "velocity": 83,
        "trackId": 1,
        "channel": 0
      },
      {
        "startTick": 3648,
        "endTick": 3868,
        "pitch": 70,
        "velocity": 32,
        "trackId": 10,
        "channel": 9
      },
      {
        "startTick": 3648,
        "endTick": 5732,
        "pitch": 74,
        "velocity": 32,
        "trackId": 3,
        "channel": 2
      },
      {
        "startTick": 3840,
        "endTick": 4020,
        "pitch": 37,
        "velocity": 82,
        "trackId": 10,
        "channel": 9
      },
      {
        "startTick": 4224,
        "endTick": 4424,
        "pitch": 84,
        "velocity": 48,
        "trackId": 8,
        "channel": 7
      },
      {
        "startTick": 4420,
        "endTick": 5748,
        "pitch": 86,
        "velocity": 56,
        "trackId": 8,
        "channel": 7
      },
      {
        "startTick": 4600,
        "endTick": 4768,
        "pitch": 46,
        "velocity": 85,
        "trackId": 1,
        "channel": 0
      },
      {
        "startTick": 4608,
        "endTick": 4740,
        "pitch": 46,
        "velocity": 69,
        "trackId": 12,
        "channel": 11
      },
      {
        "startTick": 4792,
        "endTick": 6092,
        "pitch": 46,
        "velocity": 52,
        "trackId": 12,
        "channel": 11
      },
      {
        "startTick": 4792,
        "endTick": 6120,
        "pitch": 46,
        "velocity": 74,
        "trackId": 1,
        "channel": 0
      },
      {
        "startTick": 4800,
        "endTick": 4860,
        "pitch": 41,
        "velocity": 43,
        "trackId": 11,
        "channel": 10
      },
      {
        "startTick": 4980,
        "endTick": 5176,
        "pitch": 62,
        "velocity": 85,
        "trackId": 1,
        "channel": 0
      },
      {
        "startTick": 4980,
        "endTick": 5176,
        "pitch": 53,
        "velocity": 55,
        "trackId": 12,
        "channel": 11
      },
      {
        "startTick": 4984,
        "endTick": 5176,
        "pitch": 53,
        "velocity": 74,
        "trackId": 1,
        "channel": 0
      },
      {
        "startTick": 4992,
        "endTick": 5052,
        "pitch": 45,
        "velocity": 48,
        "trackId": 11,
        "channel": 10
      },
      {
        "startTick": 5168,
        "endTick": 5568,
        "pitch": 55,
        "velocity": 61,
        "trackId": 12,
        "channel": 11
      },
      {
        "startTick": 5172,
        "endTick": 6176,
        "pitch": 63,
        "velocity": 92,
        "trackId": 1,
        "channel": 0
      },
      {
        "startTick": 5176,
        "endTick": 5588,
        "pitch": 55,
        "velocity": 83,
        "trackId": 1,
        "channel": 0
      },
      {
        "startTick": 5184,
        "endTick": 5244,
        "pitch": 50,
        "velocity": 48,
        "trackId": 11,
        "channel": 10
      },
      {
        "startTick": 5376,
        "endTick": 5472,
        "pitch": 54,
        "velocity": 91,
        "trackId": 10,
        "channel": 9
      },
      {
        "startTick": 5564,
        "endTick": 6136,
        "pitch": 60,
        "velocity": 83,
        "trackId": 1,
        "channel": 0
      },
      {
        "startTick": 5564,
        "endTick": 6148,
        "pitch": 51,
        "velocity": 74,
        "trackId": 1,
        "channel": 0
      },
      {
        "startTick": 5568,
        "endTick": 5628,
        "pitch": 41,
        "velocity": 31,
        "trackId": 11,
        "channel": 10
      },
      {
        "startTick": 5572,
        "endTick": 6148,
        "pitch": 51,
        "velocity": 60,
        "trackId": 12,
        "channel": 11
      },
      {
        "startTick": 5704,
        "endTick": 6148,
        "pitch": 72,
        "velocity": 32,
        "trackId": 3,
        "channel": 2
      },
      {
        "startTick": 5732,
        "endTick": 6128,
        "pitch": 63,
        "velocity": 32,
        "trackId": 3,
        "channel": 2
      },
      {
        "startTick": 5756,
        "endTick": 5948,
        "pitch": 84,
        "velocity": 48,
        "trackId": 8,
        "channel": 7
      },
      {
        "startTick": 5952,
        "endTick": 6508,
        "pitch": 82,
        "velocity": 48,
        "trackId": 8,
        "channel": 7
      },
      {
        "startTick": 6120,
        "endTick": 7284,
        "pitch": 65,
        "velocity": 32,
        "trackId": 3,
        "channel": 2
      },
      {
        "startTick": 6120,
        "endTick": 7296,
        "pitch": 70,
        "velocity": 32,
        "trackId": 3,
        "channel": 2
      },
      {
        "startTick": 6136,
        "endTick": 9228,
        "pitch": 82,
        "velocity": 32,
        "trackId": 3,
        "channel": 2
      },
      {
        "startTick": 6144,
        "endTick": 6204,
        "pitch": 41,
        "velocity": 48,
        "trackId": 11,
        "channel": 10
      },
      {
        "startTick": 6144,
        "endTick": 6256,
        "pitch": 70,
        "velocity": 69,
        "trackId": 10,
        "channel": 9
      },
      {
        "startTick": 6144,
        "endTick": 6276,
        "pitch": 46,
        "velocity": 69,
        "trackId": 12,
        "channel": 11
      },
      {
        "startTick": 6144,
        "endTick": 7604,
        "pitch": 46,
        "velocity": 83,
        "trackId": 1,
        "channel": 0
      },
      {
        "startTick": 6328,
        "endTick": 7616,
        "pitch": 46,
        "velocity": 52,
        "trackId": 12,
        "channel": 11
      },
      {
        "startTick": 6332,
        "endTick": 6536,
        "pitch": 53,
        "velocity": 70,
        "trackId": 1,
        "channel": 0
      },
      {
        "startTick": 6336,
        "endTick": 6420,
        "pitch": 70,
        "velocity": 52,
        "trackId": 10,
        "channel": 9
      },
      {
        "startTick": 6472,
        "endTick": 6700,
        "pitch": 72,
        "velocity": 32,
        "trackId": 3,
        "channel": 2
      },
      {
        "startTick": 6516,
        "endTick": 6712,
        "pitch": 51,
        "velocity": 55,
        "trackId": 12,
        "channel": 11
      },
      {
        "startTick": 6520,
        "endTick": 6704,
        "pitch": 51,
        "velocity": 74,
        "trackId": 1,
        "channel": 0
      },
      {
        "startTick": 6524,
        "endTick": 6716,
        "pitch": 84,
        "velocity": 44,
        "trackId": 8,
        "channel": 7
      },
      {
        "startTick": 6528,
        "endTick": 6640,
        "pitch": 70,
        "velocity": 52,
        "trackId": 10,
        "channel": 9
      },
      {
        "startTick": 6528,
        "endTick": 6720,
        "pitch": 60,
        "velocity": 83,
        "trackId": 1,
        "channel": 0
      },
      {
        "startTick": 6684,
        "endTick": 7296,
        "pitch": 74,
        "velocity": 32,
        "trackId": 3,
        "channel": 2
      },
      {
        "startTick": 6704,
        "endTick": 7688,
        "pitch": 53,
        "velocity": 61,
        "trackId": 12,
        "channel": 11
      },
      {
        "startTick": 6708,
        "endTick": 7668,
        "pitch": 53,
        "velocity": 83,
        "trackId": 1,
        "channel": 0
      },
      {
        "startTick": 6712,
        "endTick": 8196,
        "pitch": 86,
        "velocity": 52,
        "trackId": 8,
        "channel": 7
      },
      {
        "startTick": 6716,
        "endTick": 7696,
        "pitch": 62,
        "velocity": 83,
        "trackId": 1,
        "channel": 0
      },
      {
        "startTick": 6720,
        "endTick": 6940,
        "pitch": 70,
        "velocity": 32,
        "trackId": 10,
        "channel": 9
      },
      {
        "startTick": 6912,
        "endTick": 7092,
        "pitch": 37,
        "velocity": 82,
        "trackId": 10,
        "channel": 9
      },
      {
        "startTick": 7672,
        "endTick": 7840,
        "pitch": 46,
        "velocity": 85,
        "trackId": 1,
        "channel": 0
      },
      {
        "startTick": 7680,
        "endTick": 7812,
        "pitch": 46,
        "velocity": 69,
        "trackId": 12,
        "channel": 11
      },
      {
        "startTick": 7864,
        "endTick": 9192,
        "pitch": 46,
        "velocity": 74,
        "trackId": 1,
        "channel": 0
      },
      {
        "startTick": 7864,
        "endTick": 9224,
        "pitch": 46,
        "velocity": 52,
        "trackId": 12,
        "channel": 11
      },
      {
        "startTick": 7872,
        "endTick": 7932,
        "pitch": 41,
        "velocity": 43,
        "trackId": 11,
        "channel": 10
      },
      {
        "startTick": 8052,
        "endTick": 8248,
        "pitch": 62,
        "velocity": 85,
        "trackId": 1,
        "channel": 0
      },
      {
        "startTick": 8052,
        "endTick": 8248,
        "pitch": 53,
        "velocity": 55,
        "trackId": 12,
        "channel": 11
      },
      {
        "startTick": 8056,
        "endTick": 8248,
        "pitch": 53,
        "velocity": 74,
        "trackId": 1,
        "channel": 0
      },
      {
        "startTick": 8064,
        "endTick": 8124,
        "pitch": 45,
        "velocity": 48,
        "trackId": 11,
        "channel": 10
      },
      {
        "startTick": 8064,
        "endTick": 9100,
        "pitch": 72,
        "velocity": 31,
        "trackId": 14,
        "channel": 13
      },
      {
        "startTick": 8096,
        "endTick": 8116,
        "pitch": 46,
        "velocity": 14,
        "trackId": 6,
        "channel": 5
      },
      {
        "startTick": 8124,
        "endTick": 8188,
        "pitch": 48,
        "velocity": 23,
        "trackId": 6,
        "channel": 5
      },
      {
        "startTick": 8172,
        "endTick": 8244,
        "pitch": 50,
        "velocity": 26,
        "trackId": 6,
        "channel": 5
      },
      {
        "startTick": 8232,
        "endTick": 8284,
        "pitch": 51,
        "velocity": 29,
        "trackId": 6,
        "channel": 5
      },
      {
        "startTick": 8240,
        "endTick": 8640,
        "pitch": 55,
        "velocity": 61,
        "trackId": 12,
        "channel": 11
      },
      {
        "startTick": 8240,
        "endTick": 8828,
        "pitch": 86,
        "velocity": 48,
        "trackId": 8,
        "channel": 7
      },
      {
        "startTick": 8244,
        "endTick": 9188,
        "pitch": 63,
        "velocity": 92,
        "trackId": 1,
        "channel": 0
      },
      {
        "startTick": 8248,
        "endTick": 8660,
        "pitch": 55,
        "velocity": 83,
        "trackId": 1,
        "channel": 0
      },
      {
        "startTick": 8256,
        "endTick": 8316,
        "pitch": 50,
        "velocity": 48,
        "trackId": 11,
        "channel": 10
      },
      {
        "startTick": 8272,
        "endTick": 8328,
        "pitch": 53,
        "velocity": 29,
        "trackId": 6,
        "channel": 5
      },
      {
        "startTick": 8316,
        "endTick": 8372,
        "pitch": 55,
        "velocity": 29,
        "trackId": 6,
        "channel": 5
      },
      {
        "startTick": 8356,
        "endTick": 8416,
        "pitch": 57,
        "velocity": 29,
        "trackId": 6,
        "channel": 5
      },
      {
        "startTick": 8400,
        "endTick": 8456,
        "pitch": 58,
        "velocity": 29,
        "trackId": 6,
        "channel": 5
      },
      {
        "startTick": 8440,
        "endTick": 8496,
        "pitch": 60,
        "velocity": 29,
        "trackId": 6,
        "channel": 5
      },
      {
        "startTick": 8448,
        "endTick": 8544,
        "pitch": 54,
        "velocity": 91,
        "trackId": 10,
        "channel": 9
      },
      {
        "startTick": 8484,
        "endTick": 8540,
        "pitch": 62,
        "velocity": 29,
        "trackId": 6,
        "channel": 5
      },
      {
        "startTick": 8524,
        "endTick": 8576,
        "pitch": 63,
        "velocity": 31,
        "trackId": 6,
        "channel": 5
      },
      {
        "startTick": 8564,
        "endTick": 8612,
        "pitch": 65,
        "velocity": 31,
        "trackId": 6,
        "channel": 5
      },
      {
        "startTick": 8604,
        "endTick": 8644,
        "pitch": 67,
        "velocity": 34,
        "trackId": 6,
        "channel": 5
      },
      {
        "startTick": 8636,
        "endTick": 8680,
        "pitch": 69,
        "velocity": 34,
        "trackId": 6,
        "channel": 5
      },
      {
        "startTick": 8636,
        "endTick": 9208,
        "pitch": 60,
        "velocity": 83,
        "trackId": 1,
        "channel": 0
      },
      {
        "startTick": 8636,
        "endTick": 9220,
        "pitch": 51,
        "velocity": 74,
        "trackId": 1,
        "channel": 0
      },
      {
        "startTick": 8640,
        "endTick": 8700,
        "pitch": 41,
        "velocity": 31,
        "trackId": 11,
        "channel": 10
      },
      {
        "startTick": 8640,
        "endTick": 9228,
        "pitch": 60,
        "velocity": 43,
        "trackId": 13,
        "channel": 12
      },
      {
        "startTick": 8644,
        "endTick": 9220,
        "pitch": 51,
        "velocity": 60,
        "trackId": 12,
        "channel": 11
      },
      {
        "startTick": 8668,
        "endTick": 8716,
        "pitch": 70,
        "velocity": 34,
        "trackId": 6,
        "channel": 5
      },
      {
        "startTick": 8704,
        "endTick": 8752,
        "pitch": 72,
        "velocity": 40,
        "trackId": 6,
        "channel": 5
      },
      {
        "startTick": 8736,
        "endTick": 8788,
        "pitch": 74,
        "velocity": 46,
        "trackId": 6,
        "channel": 5
      },
      {
        "startTick": 8772,
        "endTick": 8824,
        "pitch": 75,
        "velocity": 46,
        "trackId": 6,
        "channel": 5
      },
      {
        "startTick": 8808,
        "endTick": 8864,
        "pitch": 77,
        "velocity": 46,
        "trackId": 6,
        "channel": 5
      },
      {
        "startTick": 8824,
        "endTick": 8992,
        "pitch": 84,
        "velocity": 32,
        "trackId": 8,
        "channel": 7
      },
      {
        "startTick": 8848,
        "endTick": 8900,
        "pitch": 79,
        "velocity": 49,
        "trackId": 6,
        "channel": 5
      },
      {
        "startTick": 8888,
        "endTick": 8940,
        "pitch": 81,
        "velocity": 49,
        "trackId": 6,
        "channel": 5
      },
      {
        "startTick": 8924,
        "endTick": 8976,
        "pitch": 82,
        "velocity": 49,
        "trackId": 6,
        "channel": 5
      },
      {
        "startTick": 8964,
        "endTick": 9012,
        "pitch": 84,
        "velocity": 49,
        "trackId": 6,
        "channel": 5
      },
      {
        "startTick": 8996,
        "endTick": 9048,
        "pitch": 86,
        "velocity": 52,
        "trackId": 6,
        "channel": 5
      },
      {
        "startTick": 9012,
        "endTick": 9200,
        "pitch": 82,
        "velocity": 44,
        "trackId": 8,
        "channel": 7
      },
      {
        "startTick": 9036,
        "endTick": 9088,
        "pitch": 87,
        "velocity": 55,
        "trackId": 6,
        "channel": 5
      },
      {
        "startTick": 9076,
        "endTick": 9128,
        "pitch": 89,
        "velocity": 58,
        "trackId": 6,
        "channel": 5
      },
      {
        "startTick": 9096,
        "endTick": 9148,
        "pitch": 51,
        "velocity": 29,
        "trackId": 10,
        "channel": 9
      },
      {
        "startTick": 9112,
        "endTick": 9164,
        "pitch": 91,
        "velocity": 58,
        "trackId": 6,
        "channel": 5
      },
      {
        "startTick": 9128,
        "endTick": 9200,
        "pitch": 59,
        "velocity": 45,
        "trackId": 10,
        "channel": 9
      },
      {
        "startTick": 9148,
        "endTick": 9204,
        "pitch": 93,
        "velocity": 58,
        "trackId": 6,
        "channel": 5
      },
      {
        "startTick": 9164,
        "endTick": 9240,
        "pitch": 51,
        "velocity": 44,
        "trackId": 10,
        "channel": 9
      },
      {
        "startTick": 9192,
        "endTick": 9792,
        "pitch": 94,
        "velocity": 69,
        "trackId": 6,
        "channel": 5
      },
      {
        "startTick": 9216,
        "endTick": 9264,
        "pitch": 59,
        "velocity": 64,
        "trackId": 10,
        "channel": 9
      },
      {
        "startTick": 9216,
        "endTick": 9328,
        "pitch": 70,
        "velocity": 69,
        "trackId": 10,
        "channel": 9
      },
      {
        "startTick": 9216,
        "endTick": 9512,
        "pitch": 62,
        "velocity": 73,
        "trackId": 4,
        "channel": 3
      },
      {
        "startTick": 9216,
        "endTick": 9708,
        "pitch": 53,
        "velocity": 83,
        "trackId": 1,
        "channel": 0
      },
      {
        "startTick": 9216,
        "endTick": 10652,
        "pitch": 46,
        "velocity": 92,
        "trackId": 1,
        "channel": 0
      },
      {
        "startTick": 9224,
        "endTick": 9760,
        "pitch": 62,
        "velocity": 92,
        "trackId": 1,
        "channel": 0
      },
      {
        "startTick": 9408,
        "endTick": 9492,
        "pitch": 70,
        "velocity": 52,
        "trackId": 10,
        "channel": 9
      },
      {
        "startTick": 9592,
        "endTick": 9764,
        "pitch": 60,
        "velocity": 64,
        "trackId": 4,
        "channel": 3
      },
      {
        "startTick": 9600,
        "endTick": 9712,
        "pitch": 70,
        "velocity": 52,
        "trackId": 10,
        "channel": 9
      },
      {
        "startTick": 9780,
        "endTick": 10376,
        "pitch": 63,
        "velocity": 83,
        "trackId": 1,
        "channel": 0
      },
      {
        "startTick": 9784,
        "endTick": 10320,
        "pitch": 55,
        "velocity": 92,
        "trackId": 1,
        "channel": 0
      },
      {
        "startTick": 9792,
        "endTick": 10012,
        "pitch": 70,
        "velocity": 32,
        "trackId": 10,
        "channel": 9
      },
      {
        "startTick": 9792,
        "endTick": 10152,
        "pitch": 63,
        "velocity": 64,
        "trackId": 4,
        "channel": 3
      },
      {
        "startTick": 9984,
        "endTick": 10164,
        "pitch": 37,
        "velocity": 82,
        "trackId": 10,
        "channel": 9
      },
      {
        "startTick": 10172,
        "endTick": 10336,
        "pitch": 62,
        "velocity": 56,
        "trackId": 4,
        "channel": 3
      },
      {
        "startTick": 10360,
        "endTick": 10528,
        "pitch": 58,
        "velocity": 56,
        "trackId": 4,
        "channel": 3
      },
      {
        "startTick": 10364,
        "endTick": 10712,
        "pitch": 57,
        "velocity": 92,
        "trackId": 1,
        "channel": 0
      },
      {
        "startTick": 10364,
        "endTick": 10732,
        "pitch": 65,
        "velocity": 92,
        "trackId": 1,
        "channel": 0
      },
      {
        "startTick": 10556,
        "endTick": 11916,
        "pitch": 53,
        "velocity": 73,
        "trackId": 4,
        "channel": 3
      },
      {
        "startTick": 10744,
        "endTick": 12248,
        "pitch": 46,
        "velocity": 87,
        "trackId": 1,
        "channel": 0
      },
      {
        "startTick": 10744,
        "endTick": 12264,
        "pitch": 62,
        "velocity": 83,
        "trackId": 1,
        "channel": 0
      },
      {
        "startTick": 10756,
        "endTick": 12236,
        "pitch": 53,
        "velocity": 83,
        "trackId": 1,
        "channel": 0
      },
      {
        "startTick": 11320,
        "endTick": 11772,
        "pitch": 65,
        "velocity": 66,
        "trackId": 1,
        "channel": 0
      },
      {
        "startTick": 11336,
        "endTick": 11524,
        "pitch": 65,
        "velocity": 40,
        "trackId": 8,
        "channel": 7
      },
      {
        "startTick": 11508,
        "endTick": 11820,
        "pitch": 74,
        "velocity": 83,
        "trackId": 1,
        "channel": 0
      },
      {
        "startTick": 11516,
        "endTick": 11720,
        "pitch": 74,
        "velocity": 55,
        "trackId": 8,
        "channel": 7
      },
      {
        "startTick": 11520,
        "endTick": 11616,
        "pitch": 54,
        "velocity": 91,
        "trackId": 10,
        "channel": 9
      },
      {
        "startTick": 11700,
        "endTick": 11916,
        "pitch": 63,
        "velocity": 48,
        "trackId": 8,
        "channel": 7
      },
      {
        "startTick": 11700,
        "endTick": 12272,
        "pitch": 63,
        "velocity": 74,
        "trackId": 1,
        "channel": 0
      },
      {
        "startTick": 11712,
        "endTick": 11912,
        "pitch": 80,
        "velocity": 36,
        "trackId": 10,
        "channel": 9
      },
      {
        "startTick": 11892,
        "endTick": 12304,
        "pitch": 72,
        "velocity": 83,
        "trackId": 1,
        "channel": 0
      },
      {
        "startTick": 11904,
        "endTick": 12256,
        "pitch": 81,
        "velocity": 52,
        "trackId": 10,
        "channel": 9
      },
      {
        "startTick": 11904,
        "endTick": 12280,
        "pitch": 72,
        "velocity": 48,
        "trackId": 8,
        "channel": 7
      },
      {
        "startTick": 12280,
        "endTick": 12680,
        "pitch": 65,
        "velocity": 46,
        "trackId": 8,
        "channel": 7
      },
      {
        "startTick": 12288,
        "endTick": 12400,
        "pitch": 70,
        "velocity": 69,
        "trackId": 10,
        "channel": 9
      },
      {
        "startTick": 12288,
        "endTick": 12620,
        "pitch": 62,
        "velocity": 64,
        "trackId": 4,
        "channel": 3
      },
      {
        "startTick": 12288,
        "endTick": 12780,
        "pitch": 53,
        "velocity": 83,
        "trackId": 1,
        "channel": 0
      },
      {
        "startTick": 12288,
        "endTick": 12836,
        "pitch": 65,
        "velocity": 70,
        "trackId": 1,
        "channel": 0
      },
      {
        "startTick": 12288,
        "endTick": 13784,
        "pitch": 46,
        "velocity": 92,
        "trackId": 1,
        "channel": 0
      },
      {
        "startTick": 12296,
        "endTick": 12832,
        "pitch": 62,
        "velocity": 92,
        "trackId": 1,
        "channel": 0
      },
      {
        "startTick": 12480,
        "endTick": 12564,
        "pitch": 70,
        "velocity": 52,
        "trackId": 10,
        "channel": 9
      },
      {
        "startTick": 12664,
        "endTick": 12832,
        "pitch": 60,
        "velocity": 73,
        "trackId": 4,
        "channel": 3
      },
      {
        "startTick": 12672,
        "endTick": 12784,
        "pitch": 70,
        "velocity": 52,
        "trackId": 10,
        "channel": 9
      },
      {
        "startTick": 12852,
        "endTick": 13228,
        "pitch": 63,
        "velocity": 83,
        "trackId": 1,
        "channel": 0
      },
      {
        "startTick": 12856,
        "endTick": 13800,
        "pitch": 55,
        "velocity": 92,
        "trackId": 1,
        "channel": 0
      },
      {
        "startTick": 12860,
        "endTick": 13192,
        "pitch": 63,
        "velocity": 64,
        "trackId": 4,
        "channel": 3
      },
      {
        "startTick": 12864,
        "endTick": 13084,
        "pitch": 70,
        "velocity": 32,
        "trackId": 10,
        "channel": 9
      },
      {
        "startTick": 13056,
        "endTick": 13236,
        "pitch": 37,
        "velocity": 82,
        "trackId": 10,
        "channel": 9
      },
      {
        "startTick": 13224,
        "endTick": 13488,
        "pitch": 62,
        "velocity": 66,
        "trackId": 1,
        "channel": 0
      },
      {
        "startTick": 13236,
        "endTick": 13412,
        "pitch": 62,
        "velocity": 73,
        "trackId": 4,
        "channel": 3
      },
      {
        "startTick": 13424,
        "endTick": 13796,
        "pitch": 58,
        "velocity": 66,
        "trackId": 1,
        "channel": 0
      },
      {
        "startTick": 13436,
        "endTick": 13800,
        "pitch": 58,
        "velocity": 64,
        "trackId": 4,
        "channel": 3
      },
      {
        "startTick": 13816,
        "endTick": 14588,
        "pitch": 43,
        "velocity": 92,
        "trackId": 1,
        "channel": 0
      },
      {
        "startTick": 13816,
        "endTick": 14592,
        "pitch": 62,
        "velocity": 92,
        "trackId": 1,
        "channel": 0
      },
      {
        "startTick": 13816,
        "endTick": 14620,
        "pitch": 58,
        "velocity": 80,
        "trackId": 1,
        "channel": 0
      },
      {
        "startTick": 13824,
        "endTick": 14568,
        "pitch": 51,
        "velocity": 80,
        "trackId": 1,
        "channel": 0
      },
      {
        "startTick": 13824,
        "endTick": 14576,
        "pitch": 62,
        "velocity": 75,
        "trackId": 4,
        "channel": 3
      },
      {
        "startTick": 14588,
        "endTick": 15328,
        "pitch": 53,
        "velocity": 74,
        "trackId": 1,
        "channel": 0
      },
      {
        "startTick": 14588,
        "endTick": 15344,
        "pitch": 45,
        "velocity": 92,
        "trackId": 1,
        "channel": 0
      },
      {
        "startTick": 14588,
        "endTick": 15352,
        "pitch": 60,
        "velocity": 80,
        "trackId": 1,
        "channel": 0
      },
      {
        "startTick": 14592,
        "endTick": 14688,
        "pitch": 54,
        "velocity": 91,
        "trackId": 10,
        "channel": 9
      },
      {
        "startTick": 14592,
        "endTick": 15196,
        "pitch": 60,
        "velocity": 73,
        "trackId": 4,
        "channel": 3
      },
      {
        "startTick": 15356,
        "endTick": 15712,
        "pitch": 60,
        "velocity": 72,
        "trackId": 4,
        "channel": 3
      },
      {
        "startTick": 15360,
        "endTick": 15472,
        "pitch": 70,
        "velocity": 69,
        "trackId": 10,
        "channel": 9
      },
      {
        "startTick": 15360,
        "endTick": 15932,
        "pitch": 60,
        "velocity": 88,
        "trackId": 1,
        "channel": 0
      },
      {
        "startTick": 15364,
        "endTick": 15852,
        "pitch": 55,
        "velocity": 70,
        "trackId": 1,
        "channel": 0
      },
      {
        "startTick": 15364,
        "endTick": 16076,
        "pitch": 39,
        "velocity": 92,
        "trackId": 1,
        "channel": 0
      },
      {
        "startTick": 15552,
        "endTick": 15636,
        "pitch": 70,
        "velocity": 52,
        "trackId": 10,
        "channel": 9
      },
      {
        "startTick": 15740,
        "endTick": 15904,
        "pitch": 59,
        "velocity": 60,
        "trackId": 4,
        "channel": 3
      },
      {
        "startTick": 15744,
        "endTick": 15856,
        "pitch": 70,
        "velocity": 52,
        "trackId": 10,
        "channel": 9
      },
      {
        "startTick": 15920,
        "endTick": 16836,
        "pitch": 62,
        "velocity": 91,
        "trackId": 1,
        "channel": 0
      },
      {
        "startTick": 15924,
        "endTick": 16284,
        "pitch": 55,
        "velocity": 92,
        "trackId": 1,
        "channel": 0
      },
      {
        "startTick": 15936,
        "endTick": 16156,
        "pitch": 70,
        "velocity": 32,
        "trackId": 10,
        "channel": 9
      },
      {
        "startTick": 15936,
        "endTick": 16236,
        "pitch": 62,
        "velocity": 75,
        "trackId": 4,
        "channel": 3
      },
      {
        "startTick": 16128,
        "endTick": 16308,
        "pitch": 37,
        "velocity": 82,
        "trackId": 10,
        "channel": 9
      },
      {
        "startTick": 16128,
        "endTick": 16884,
        "pitch": 38,
        "velocity": 92,
        "trackId": 1,
        "channel": 0
      },
      {
        "startTick": 16304,
        "endTick": 16852,
        "pitch": 54,
        "velocity": 85,
        "trackId": 1,
        "channel": 0
      },
      {
        "startTick": 16312,
        "endTick": 16616,
        "pitch": 60,
        "velocity": 60,
        "trackId": 4,
        "channel": 3
      },
      {
        "startTick": 16704,
        "endTick": 16848,
        "pitch": 57,
        "velocity": 56,
        "trackId": 4,
        "channel": 3
      },
      {
        "startTick": 16892,
        "endTick": 17212,
        "pitch": 60,
        "velocity": 64,
        "trackId": 4,
        "channel": 3
      },
      {
        "startTick": 16900,
        "endTick": 17244,
        "pitch": 60,
        "velocity": 89,
        "trackId": 1,
        "channel": 0
      },
      {
        "startTick": 16900,
        "endTick": 17592,
        "pitch": 62,
        "velocity": 77,
        "trackId": 1,
        "channel": 0
      },
      {
        "startTick": 16900,
        "endTick": 17612,
        "pitch": 43,
        "velocity": 92,
        "trackId": 1,
        "channel": 0
      },
      {
        "startTick": 17272,
        "endTick": 17612,
        "pitch": 58,
        "velocity": 88,
        "trackId": 1,
        "channel": 0
      },
      {
        "startTick": 17272,
        "endTick": 17628,
        "pitch": 58,
        "velocity": 60,
        "trackId": 4,
        "channel": 3
      },
      {
        "startTick": 17652,
        "endTick": 18000,
        "pitch": 57,
        "velocity": 92,
        "trackId": 1,
        "channel": 0
      },
      {
        "startTick": 17652,
        "endTick": 18428,
        "pitch": 41,
        "velocity": 91,
        "trackId": 1,
        "channel": 0
      },
      {
        "startTick": 17652,
        "endTick": 18440,
        "pitch": 62,
        "velocity": 80,
        "trackId": 1,
        "channel": 0
      },
      {
        "startTick": 17656,
        "endTick": 18012,
        "pitch": 57,
        "velocity": 69,
        "trackId": 4,
        "channel": 3
      },
      {
        "startTick": 17664,
        "endTick": 17760,
        "pitch": 54,
        "velocity": 91,
        "trackId": 10,
        "channel": 9
      },
      {
        "startTick": 17856,
        "endTick": 18056,
        "pitch": 80,
        "velocity": 36,
        "trackId": 10,
        "channel": 9
      },
      {
        "startTick": 18036,
        "endTick": 18388,
        "pitch": 58,
        "velocity": 88,
        "trackId": 1,
        "channel": 0
      },
      {
        "startTick": 18048,
        "endTick": 18400,
        "pitch": 81,
        "velocity": 52,
        "trackId": 10,
        "channel": 9
      },
      {
        "startTick": 18052,
        "endTick": 18392,
        "pitch": 58,
        "velocity": 60,
        "trackId": 4,
        "channel": 3
      },
      {
        "startTick": 18432,
        "endTick": 18544,
        "pitch": 70,
        "velocity": 69,
        "trackId": 10,
        "channel": 9
      },
      {
        "startTick": 18432,
        "endTick": 18756,
        "pitch": 55,
        "velocity": 73,
        "trackId": 4,
        "channel": 3
      },
      {
        "startTick": 18432,
        "endTick": 19204,
        "pitch": 58,
        "velocity": 86,
        "trackId": 1,
        "channel": 0
      },
      {
        "startTick": 18436,
        "endTick": 18904,
        "pitch": 39,
        "velocity": 85,
        "trackId": 1,
        "channel": 0
      },
      {
        "startTick": 18436,
        "endTick": 19048,
        "pitch": 55,
        "velocity": 83,
        "trackId": 1,
        "channel": 0
      },
      {
        "startTick": 18624,
        "endTick": 18708,
        "pitch": 70,
        "velocity": 52,
        "trackId": 10,
        "channel": 9
      },
      {
        "startTick": 18804,
        "endTick": 18984,
        "pitch": 58,
        "velocity": 56,
        "trackId": 4,
        "channel": 3
      },
      {
        "startTick": 18816,
        "endTick": 18928,
        "pitch": 70,
        "velocity": 52,
        "trackId": 10,
        "channel": 9
      },
      {
        "startTick": 19004,
        "endTick": 19448,
        "pitch": 60,
        "velocity": 64,
        "trackId": 4,
        "channel": 3
      },
      {
        "startTick": 19008,
        "endTick": 19228,
        "pitch": 70,
        "velocity": 32,
        "trackId": 10,
        "channel": 9
      },
      {
        "startTick": 19012,
        "endTick": 19788,
        "pitch": 39,
        "velocity": 74,
        "trackId": 1,
        "channel": 0
      },
      {
        "startTick": 19196,
        "endTick": 19736,
        "pitch": 55,
        "velocity": 70,
        "trackId": 1,
        "channel": 0
      },
      {
        "startTick": 19200,
        "endTick": 19380,
        "pitch": 37,
        "velocity": 82,
        "trackId": 10,
        "channel": 9
      },
      {
        "startTick": 19380,
        "endTick": 19740,
        "pitch": 58,
        "velocity": 74,
        "trackId": 1,
        "channel": 0
      },
      {
        "startTick": 19584,
        "endTick": 19732,
        "pitch": 63,
        "velocity": 92,
        "trackId": 1,
        "channel": 0
      },
      {
        "startTick": 19584,
        "endTick": 19768,
        "pitch": 58,
        "velocity": 56,
        "trackId": 4,
        "channel": 3
      },
      {
        "startTick": 19772,
        "endTick": 20748,
        "pitch": 58,
        "velocity": 92,
        "trackId": 1,
        "channel": 0
      },
      {
        "startTick": 19772,
        "endTick": 21224,
        "pitch": 62,
        "velocity": 101,
        "trackId": 1,
        "channel": 0
      },
      {
        "startTick": 19780,
        "endTick": 20768,
        "pitch": 53,
        "velocity": 73,
        "trackId": 4,
        "channel": 3
      },
      {
        "startTick": 19784,
        "endTick": 20484,
        "pitch": 53,
        "velocity": 83,
        "trackId": 1,
        "channel": 0
      },
      {
        "startTick": 19968,
        "endTick": 21372,
        "pitch": 46,
        "velocity": 92,
        "trackId": 1,
        "channel": 0
      },
      {
        "startTick": 20536,
        "endTick": 20928,
        "pitch": 65,
        "velocity": 74,
        "trackId": 1,
        "channel": 0
      },
      {
        "startTick": 20536,
        "endTick": 20932,
        "pitch": 53,
        "velocity": 74,
        "trackId": 1,
        "channel": 0
      },
      {
        "startTick": 20544,
        "endTick": 20604,
        "pitch": 45,
        "velocity": 48,
        "trackId": 11,
        "channel": 10
      },
      {
        "startTick": 20548,
        "endTick": 20736,
        "pitch": 77,
        "velocity": 44,
        "trackId": 8,
        "channel": 7
      },
      {
        "startTick": 20728,
        "endTick": 20916,
        "pitch": 86,
        "velocity": 64,
        "trackId": 8,
        "channel": 7
      },
      {
        "startTick": 20732,
        "endTick": 21124,
        "pitch": 74,
        "velocity": 83,
        "trackId": 1,
        "channel": 0
      },
      {
        "startTick": 20736,
        "endTick": 20832,
        "pitch": 54,
        "velocity": 91,
        "trackId": 10,
        "channel": 9
      },
      {
        "startTick": 20924,
        "endTick": 21116,
        "pitch": 75,
        "velocity": 48,
        "trackId": 8,
        "channel": 7
      },
      {
        "startTick": 20924,
        "endTick": 21308,
        "pitch": 63,
        "velocity": 82,
        "trackId": 1,
        "channel": 0
      },
      {
        "startTick": 20928,
        "endTick": 20988,
        "pitch": 50,
        "velocity": 48,
        "trackId": 11,
        "channel": 10
      },
      {
        "startTick": 20936,
        "endTick": 21116,
        "pitch": 58,
        "velocity": 54,
        "trackId": 1,
        "channel": 0
      },
      {
        "startTick": 21108,
        "endTick": 21304,
        "pitch": 84,
        "velocity": 52,
        "trackId": 8,
        "channel": 7
      },
      {
        "startTick": 21112,
        "endTick": 21496,
        "pitch": 72,
        "velocity": 83,
        "trackId": 1,
        "channel": 0
      },
      {
        "startTick": 21116,
        "endTick": 21484,
        "pitch": 53,
        "velocity": 66,
        "trackId": 1,
        "channel": 0
      },
      {
        "startTick": 21120,
        "endTick": 21180,
        "pitch": 43,
        "velocity": 48,
        "trackId": 11,
        "channel": 10
      },
      {
        "startTick": 21300,
        "endTick": 21512,
        "pitch": 74,
        "velocity": 60,
        "trackId": 8,
        "channel": 7
      },
      {
        "startTick": 21304,
        "endTick": 21496,
        "pitch": 62,
        "velocity": 83,
        "trackId": 1,
        "channel": 0
      },
      {
        "startTick": 21312,
        "endTick": 21872,
        "pitch": 62,
        "velocity": 44,
        "trackId": 9,
        "channel": 8
      },
      {
        "startTick": 21380,
        "endTick": 21892,
        "pitch": 65,
        "velocity": 52,
        "trackId": 9,
        "channel": 8
      },
      {
        "startTick": 21384,
        "endTick": 21436,
        "pitch": 51,
        "velocity": 29,
        "trackId": 10,
        "channel": 9
      },
      {
        "startTick": 21416,
        "endTick": 21488,
        "pitch": 59,
        "velocity": 45,
        "trackId": 10,
        "channel": 9
      },
      {
        "startTick": 21416,
        "endTick": 21908,
        "pitch": 70,
        "velocity": 69,
        "trackId": 9,
        "channel": 8
      },
      {
        "startTick": 21452,
        "endTick": 21528,
        "pitch": 51,
        "velocity": 44,
        "trackId": 10,
        "channel": 9
      },
      {
        "startTick": 21484,
        "endTick": 21896,
        "pitch": 74,
        "velocity": 75,
        "trackId": 9,
        "channel": 8
      },
      {
        "startTick": 21496,
        "endTick": 22288,
        "pitch": 82,
        "velocity": 48,
        "trackId": 8,
        "channel": 7
      },
      {
        "startTick": 21496,
        "endTick": 22760,
        "pitch": 70,
        "velocity": 88,
        "trackId": 1,
        "channel": 0
      },
      {
        "startTick": 21504,
        "endTick": 21552,
        "pitch": 59,
        "velocity": 64,
        "trackId": 10,
        "channel": 9
      },
      {
        "startTick": 21504,
        "endTick": 21600,
        "pitch": 36,
        "velocity": 78,
        "trackId": 11,
        "channel": 10
      },
      {
        "startTick": 21504,
        "endTick": 21616,
        "pitch": 70,
        "velocity": 69,
        "trackId": 10,
        "channel": 9
      },
      {
        "startTick": 21504,
        "endTick": 21800,
        "pitch": 62,
        "velocity": 73,
        "trackId": 4,
        "channel": 3
      },
      {
        "startTick": 21504,
        "endTick": 21996,
        "pitch": 53,
        "velocity": 83,
        "trackId": 1,
        "channel": 0
      },
      {
        "startTick": 21504,
        "endTick": 22940,
        "pitch": 46,
        "velocity": 92,
        "trackId": 1,
        "channel": 0
      },
      {
        "startTick": 21512,
        "endTick": 22048,
        "pitch": 62,
        "velocity": 92,
        "trackId": 1,
        "channel": 0
      },
      {
        "startTick": 21696,
        "endTick": 21780,
        "pitch": 70,
        "velocity": 52,
        "trackId": 10,
        "channel": 9
      },
      {
        "startTick": 21880,
        "endTick": 22052,
        "pitch": 60,
        "velocity": 64,
        "trackId": 4,
        "channel": 3
      },
      {
        "startTick": 21888,
        "endTick": 22000,
        "pitch": 70,
        "velocity": 52,
        "trackId": 10,
        "channel": 9
      },
      {
        "startTick": 22068,
        "endTick": 22424,
        "pitch": 63,
        "velocity": 83,
        "trackId": 1,
        "channel": 0
      },
      {
        "startTick": 22072,
        "endTick": 22608,
        "pitch": 55,
        "velocity": 92,
        "trackId": 1,
        "channel": 0
      },
      {
        "startTick": 22080,
        "endTick": 22300,
        "pitch": 70,
        "velocity": 32,
        "trackId": 10,
        "channel": 9
      },
      {
        "startTick": 22080,
        "endTick": 22440,
        "pitch": 63,
        "velocity": 64,
        "trackId": 4,
        "channel": 3
      },
      {
        "startTick": 22272,
        "endTick": 22452,
        "pitch": 37,
        "velocity": 82,
        "trackId": 10,
        "channel": 9
      },
      {
        "startTick": 22452,
        "endTick": 24156,
        "pitch": 62,
        "velocity": 79,
        "trackId": 1,
        "channel": 0
      },
      {
        "startTick": 22460,
        "endTick": 22624,
        "pitch": 62,
        "velocity": 56,
        "trackId": 4,
        "channel": 3
      },
      {
        "startTick": 22640,
        "endTick": 22856,
        "pitch": 58,
        "velocity": 79,
        "trackId": 1,
        "channel": 0
      },
      {
        "startTick": 22648,
        "endTick": 22816,
        "pitch": 58,
        "velocity": 56,
        "trackId": 4,
        "channel": 3
      },
      {
        "startTick": 22828,
        "endTick": 24528,
        "pitch": 53,
        "velocity": 85,
        "trackId": 1,
        "channel": 0
      },
      {
        "startTick": 22844,
        "endTick": 24204,
        "pitch": 53,
        "velocity": 73,
        "trackId": 4,
        "channel": 3
      },
      {
        "startTick": 22848,
        "endTick": 22944,
        "pitch": 36,
        "velocity": 55,
        "trackId": 11,
        "channel": 10
      },
      {
        "startTick": 23032,
        "endTick": 24536,
        "pitch": 46,
        "velocity": 87,
        "trackId": 1,
        "channel": 0
      },
      {
        "startTick": 23040,
        "endTick": 23136,
        "pitch": 36,
        "velocity": 78,
        "trackId": 11,
        "channel": 10
      },
      {
        "startTick": 23232,
        "endTick": 23292,
        "pitch": 43,
        "velocity": 48,
        "trackId": 11,
        "channel": 10
      },
      {
        "startTick": 23404,
        "endTick": 23608,
        "pitch": 65,
        "velocity": 70,
        "trackId": 1,
        "channel": 0
      },
      {
        "startTick": 23408,
        "endTick": 23636,
        "pitch": 72,
        "velocity": 70,
        "trackId": 1,
        "channel": 0
      },
      {
        "startTick": 23424,
        "endTick": 23484,
        "pitch": 41,
        "velocity": 48,
        "trackId": 11,
        "channel": 10
      },
      {
        "startTick": 23424,
        "endTick": 23632,
        "pitch": 72,
        "velocity": 52,
        "trackId": 8,
        "channel": 7
      },
      {
        "startTick": 23424,
        "endTick": 23640,
        "pitch": 63,
        "velocity": 48,
        "trackId": 8,
        "channel": 7
      },
      {
        "startTick": 23604,
        "endTick": 24004,
        "pitch": 67,
        "velocity": 70,
        "trackId": 1,
        "channel": 0
      },
      {
        "startTick": 23608,
        "endTick": 24024,
        "pitch": 75,
        "velocity": 92,
        "trackId": 1,
        "channel": 0
      },
      {
        "startTick": 23608,
        "endTick": 24024,
        "pitch": 75,
        "velocity": 52,
        "trackId": 8,
        "channel": 7
      },
      {
        "startTick": 23612,
        "endTick": 24004,
        "pitch": 67,
        "velocity": 48,
        "trackId": 8,
        "channel": 7
      },
      {
        "startTick": 23808,
        "endTick": 23904,
        "pitch": 54,
        "velocity": 91,
        "trackId": 10,
        "channel": 9
      },
      {
        "startTick": 23808,
        "endTick": 24548,
        "pitch": 82,
        "velocity": 64,
        "trackId": 5,
        "channel": 4
      },
      {
        "startTick": 23992,
        "endTick": 24204,
        "pitch": 65,
        "velocity": 66,
        "trackId": 1,
        "channel": 0
      },
      {
        "startTick": 23996,
        "endTick": 24208,
        "pitch": 74,
        "velocity": 83,
        "trackId": 1,
        "channel": 0
      },
      {
        "startTick": 24000,
        "endTick": 24200,
        "pitch": 65,
        "velocity": 52,
        "trackId": 8,
        "channel": 7
      },
      {
        "startTick": 24000,
        "endTick": 24200,
        "pitch": 80,
        "velocity": 36,
        "trackId": 10,
        "channel": 9
      },
      {
        "startTick": 24008,
        "endTick": 24204,
        "pitch": 74,
        "velocity": 48,
        "trackId": 8,
        "channel": 7
      },
      {
        "startTick": 24188,
        "endTick": 24392,
        "pitch": 70,
        "velocity": 52,
        "trackId": 8,
        "channel": 7
      },
      {
        "startTick": 24188,
        "endTick": 24564,
        "pitch": 62,
        "velocity": 66,
        "trackId": 1,
        "channel": 0
      },
      {
        "startTick": 24192,
        "endTick": 24544,
        "pitch": 81,
        "velocity": 52,
        "trackId": 10,
        "channel": 9
      },
      {
        "startTick": 24192,
        "endTick": 24564,
        "pitch": 62,
        "velocity": 40,
        "trackId": 8,
        "channel": 7
      },
      {
        "startTick": 24196,
        "endTick": 24388,
        "pitch": 70,
        "velocity": 74,
        "trackId": 1,
        "channel": 0
      },
      {
        "startTick": 24368,
        "endTick": 24544,
        "pitch": 65,
        "velocity": 77,
        "trackId": 1,
        "channel": 0
      },
      {
        "startTick": 24384,
        "endTick": 24572,
        "pitch": 53,
        "velocity": 48,
        "trackId": 10,
        "channel": 9
      },
      {
        "startTick": 24384,
        "endTick": 24612,
        "pitch": 46,
        "velocity": 55,
        "trackId": 10,
        "channel": 9
      },
      {
        "startTick": 24384,
        "endTick": 24956,
        "pitch": 65,
        "velocity": 52,
        "trackId": 8,
        "channel": 7
      },
      {
        "startTick": 24572,
        "endTick": 25160,
        "pitch": 65,
        "velocity": 62,
        "trackId": 1,
        "channel": 0
      },
      {
        "startTick": 24576,
        "endTick": 24672,
        "pitch": 36,
        "velocity": 78,
        "trackId": 11,
        "channel": 10
      },
      {
        "startTick": 24576,
        "endTick": 24688,
        "pitch": 70,
        "velocity": 69,
        "trackId": 10,
        "channel": 9
      },
      {
        "startTick": 24576,
        "endTick": 24856,
        "pitch": 51,
        "velocity": 48,
        "trackId": 10,
        "channel": 9
      },
      {
        "startTick": 24576,
        "endTick": 24876,
        "pitch": 44,
        "velocity": 56,
        "trackId": 10,
        "channel": 9
      },
      {
        "startTick": 24576,
        "endTick": 24908,
        "pitch": 62,
        "velocity": 64,
        "trackId": 4,
        "channel": 3
      },
      {
        "startTick": 24576,
        "endTick": 25068,
        "pitch": 53,
        "velocity": 83,
        "trackId": 1,
        "channel": 0
      },
      {
        "startTick": 24576,
        "endTick": 25112,
        "pitch": 62,
        "velocity": 92,
        "trackId": 1,
        "channel": 0
      },
      {
        "startTick": 24576,
        "endTick": 25892,
        "pitch": 46,
        "velocity": 92,
        "trackId": 1,
        "channel": 0
      },
      {
        "startTick": 24768,
        "endTick": 24852,
        "pitch": 70,
        "velocity": 52,
        "trackId": 10,
        "channel": 9
      },
      {
        "startTick": 24952,
        "endTick": 25120,
        "pitch": 60,
        "velocity": 73,
        "trackId": 4,
        "channel": 3
      },
      {
        "startTick": 24960,
        "endTick": 25072,
        "pitch": 70,
        "velocity": 52,
        "trackId": 10,
        "channel": 9
      },
      {
        "startTick": 25148,
        "endTick": 25480,
        "pitch": 63,
        "velocity": 64,
        "trackId": 4,
        "channel": 3
      },
      {
        "startTick": 25148,
        "endTick": 25524,
        "pitch": 63,
        "velocity": 83,
        "trackId": 1,
        "channel": 0
      },
      {
        "startTick": 25148,
        "endTick": 25532,
        "pitch": 55,
        "velocity": 92,
        "trackId": 1,
        "channel": 0
      },
      {
        "startTick": 25148,
        "endTick": 25532,
        "pitch": 58,
        "velocity": 63,
        "trackId": 1,
        "channel": 0
      },
      {
        "startTick": 25152,
        "endTick": 25372,
        "pitch": 70,
        "velocity": 32,
        "trackId": 10,
        "channel": 9
      },
      {
        "startTick": 25344,
        "endTick": 25524,
        "pitch": 37,
        "velocity": 82,
        "trackId": 10,
        "channel": 9
      },
      {
        "startTick": 25524,
        "endTick": 25700,
        "pitch": 62,
        "velocity": 73,
        "trackId": 4,
        "channel": 3
      },
      {
        "startTick": 25532,
        "endTick": 26056,
        "pitch": 62,
        "velocity": 82,
        "trackId": 1,
        "channel": 0
      },
      {
        "startTick": 25724,
        "endTick": 26088,
        "pitch": 58,
        "velocity": 64,
        "trackId": 4,
        "channel": 3
      },
      {
        "startTick": 25724,
        "endTick": 26112,
        "pitch": 58,
        "velocity": 82,
        "trackId": 1,
        "channel": 0
      },
      {
        "startTick": 25908,
        "endTick": 26100,
        "pitch": 46,
        "velocity": 74,
        "trackId": 1,
        "channel": 0
      },
      {
        "startTick": 25908,
        "endTick": 26116,
        "pitch": 53,
        "velocity": 68,
        "trackId": 1,
        "channel": 0
      },
      {
        "startTick": 25920,
        "endTick": 26016,
        "pitch": 36,
        "velocity": 55,
        "trackId": 11,
        "channel": 10
      },
      {
        "startTick": 26104,
        "endTick": 26712,
        "pitch": 62,
        "velocity": 83,
        "trackId": 1,
        "channel": 0
      },
      {
        "startTick": 26104,
        "endTick": 26860,
        "pitch": 55,
        "velocity": 70,
        "trackId": 1,
        "channel": 0
      },
      {
        "startTick": 26104,
        "endTick": 26876,
        "pitch": 43,
        "velocity": 92,
        "trackId": 1,
        "channel": 0
      },
      {
        "startTick": 26112,
        "endTick": 26208,
        "pitch": 36,
        "velocity": 78,
        "trackId": 11,
        "channel": 10
      },
      {
        "startTick": 26112,
        "endTick": 26864,
        "pitch": 62,
        "velocity": 75,
        "trackId": 4,
        "channel": 3
      },
      {
        "startTick": 26304,
        "endTick": 26840,
        "pitch": 51,
        "velocity": 79,
        "trackId": 1,
        "channel": 0
      },
      {
        "startTick": 26492,
        "endTick": 26900,
        "pitch": 58,
        "velocity": 70,
        "trackId": 1,
        "channel": 0
      },
      {
        "startTick": 26680,
        "endTick": 26848,
        "pitch": 60,
        "velocity": 83,
        "trackId": 1,
        "channel": 0
      },
      {
        "startTick": 26872,
        "endTick": 27604,
        "pitch": 60,
        "velocity": 88,
        "trackId": 1,
        "channel": 0
      },
      {
        "startTick": 26872,
        "endTick": 27628,
        "pitch": 57,
        "velocity": 66,
        "trackId": 1,
        "channel": 0
      },
      {
        "startTick": 26876,
        "endTick": 27632,
        "pitch": 45,
        "velocity": 92,
        "trackId": 1,
        "channel": 0
      },
      {
        "startTick": 26880,
        "endTick": 26976,
        "pitch": 54,
        "velocity": 91,
        "trackId": 10,
        "channel": 9
      },
      {
        "startTick": 26880,
        "endTick": 27484,
        "pitch": 60,
        "velocity": 73,
        "trackId": 4,
        "channel": 3
      },
      {
        "startTick": 27068,
        "endTick": 27264,
        "pitch": 53,
        "velocity": 74,
        "trackId": 1,
        "channel": 0
      },
      {
        "startTick": 27268,
        "endTick": 27688,
        "pitch": 65,
        "velocity": 83,
        "trackId": 1,
        "channel": 0
      },
      {
        "startTick": 27452,
        "endTick": 27676,
        "pitch": 53,
        "velocity": 74,
        "trackId": 1,
        "channel": 0
      },
      {
        "startTick": 27644,
        "endTick": 28000,
        "pitch": 60,
        "velocity": 72,
        "trackId": 4,
        "channel": 3
      },
      {
        "startTick": 27648,
        "endTick": 27760,
        "pitch": 70,
        "velocity": 69,
        "trackId": 10,
        "channel": 9
      },
      {
        "startTick": 27648,
        "endTick": 27884,
        "pitch": 36,
        "velocity": 78,
        "trackId": 11,
        "channel": 10
      },
      {
        "startTick": 27648,
        "endTick": 28220,
        "pitch": 60,
        "velocity": 88,
        "trackId": 1,
        "channel": 0
      },
      {
        "startTick": 27652,
        "endTick": 28140,
        "pitch": 55,
        "velocity": 70,
        "trackId": 1,
        "channel": 0
      },
      {
        "startTick": 27652,
        "endTick": 28364,
        "pitch": 39,
        "velocity": 92,
        "trackId": 1,
        "channel": 0
      },
      {
        "startTick": 27840,
        "endTick": 27924,
        "pitch": 70,
        "velocity": 52,
        "trackId": 10,
        "channel": 9
      },
      {
        "startTick": 28028,
        "endTick": 28192,
        "pitch": 59,
        "velocity": 60,
        "trackId": 4,
        "channel": 3
      },
      {
        "startTick": 28032,
        "endTick": 28144,
        "pitch": 70,
        "velocity": 52,
        "trackId": 10,
        "channel": 9
      },
      {
        "startTick": 28208,
        "endTick": 29128,
        "pitch": 62,
        "velocity": 91,
        "trackId": 1,
        "channel": 0
      },
      {
        "startTick": 28224,
        "endTick": 28444,
        "pitch": 70,
        "velocity": 32,
        "trackId": 10,
        "channel": 9
      },
      {
        "startTick": 28224,
        "endTick": 28524,
        "pitch": 62,
        "velocity": 75,
        "trackId": 4,
        "channel": 3
      },
      {
        "startTick": 28400,
        "endTick": 28564,
        "pitch": 55,
        "velocity": 84,
        "trackId": 1,
        "channel": 0
      },
      {
        "startTick": 28416,
        "endTick": 28596,
        "pitch": 37,
        "velocity": 82,
        "trackId": 10,
        "channel": 9
      },
      {
        "startTick": 28416,
        "endTick": 29172,
        "pitch": 38,
        "velocity": 92,
        "trackId": 1,
        "channel": 0
      },
      {
        "startTick": 28572,
        "endTick": 28924,
        "pitch": 54,
        "velocity": 62,
        "trackId": 1,
        "channel": 0
      },
      {
        "startTick": 28600,
        "endTick": 28964,
        "pitch": 60,
        "velocity": 60,
        "trackId": 4,
        "channel": 3
      },
      {
        "startTick": 28968,
        "endTick": 29152,
        "pitch": 54,
        "velocity": 46,
        "trackId": 1,
        "channel": 0
      },
      {
        "startTick": 28992,
        "endTick": 29136,
        "pitch": 57,
        "velocity": 56,
        "trackId": 4,
        "channel": 3
      },
      {
        "startTick": 28992,
        "endTick": 29164,
        "pitch": 57,
        "velocity": 58,
        "trackId": 1,
        "channel": 0
      },
      {
        "startTick": 29180,
        "endTick": 29500,
        "pitch": 60,
        "velocity": 64,
        "trackId": 4,
        "channel": 3
      },
      {
        "startTick": 29180,
        "endTick": 29856,
        "pitch": 62,
        "velocity": 82,
        "trackId": 1,
        "channel": 0
      },
      {
        "startTick": 29184,
        "endTick": 29352,
        "pitch": 60,
        "velocity": 74,
        "trackId": 1,
        "channel": 0
      },
      {
        "startTick": 29184,
        "endTick": 29420,
        "pitch": 36,
        "velocity": 78,
        "trackId": 11,
        "channel": 10
      },
      {
        "startTick": 29188,
        "endTick": 29864,
        "pitch": 55,
        "velocity": 74,
        "trackId": 1,
        "channel": 0
      },
      {
        "startTick": 29188,
        "endTick": 29900,
        "pitch": 43,
        "velocity": 92,
        "trackId": 1,
        "channel": 0
      },
      {
        "startTick": 29348,
        "endTick": 29904,
        "pitch": 58,
        "velocity": 58,
        "trackId": 1,
        "channel": 0
      },
      {
        "startTick": 29376,
        "endTick": 29436,
        "pitch": 43,
        "velocity": 48,
        "trackId": 11,
        "channel": 10
      },
      {
        "startTick": 29560,
        "endTick": 30156,
        "pitch": 58,
        "velocity": 60,
        "trackId": 4,
        "channel": 3
      },
      {
        "startTick": 29568,
        "endTick": 29628,
        "pitch": 41,
        "velocity": 48,
        "trackId": 11,
        "channel": 10
      },
      {
        "startTick": 29936,
        "endTick": 30692,
        "pitch": 58,
        "velocity": 70,
        "trackId": 1,
        "channel": 0
      },
      {
        "startTick": 29936,
        "endTick": 30696,
        "pitch": 62,
        "velocity": 74,
        "trackId": 1,
        "channel": 0
      },
      {
        "startTick": 29940,
        "endTick": 30700,
        "pitch": 55,
        "velocity": 83,
        "trackId": 1,
        "channel": 0
      },
      {
        "startTick": 29940,
        "endTick": 30716,
        "pitch": 41,
        "velocity": 91,
        "trackId": 1,
        "channel": 0
      },
      {
        "startTick": 29952,
        "endTick": 30048,
        "pitch": 54,
        "velocity": 91,
        "trackId": 10,
        "channel": 9
      },
      {
        "startTick": 30144,
        "endTick": 30344,
        "pitch": 80,
        "velocity": 36,
        "trackId": 10,
        "channel": 9
      },
      {
        "startTick": 30320,
        "endTick": 30684,
        "pitch": 67,
        "velocity": 82,
        "trackId": 1,
        "channel": 0
      },
      {
        "startTick": 30336,
        "endTick": 30512,
        "pitch": 57,
        "velocity": 69,
        "trackId": 4,
        "channel": 3
      },
      {
        "startTick": 30336,
        "endTick": 30688,
        "pitch": 81,
        "velocity": 52,
        "trackId": 10,
        "channel": 9
      },
      {
        "startTick": 30528,
        "endTick": 30688,
        "pitch": 58,
        "velocity": 56,
        "trackId": 4,
        "channel": 3
      },
      {
        "startTick": 30712,
        "endTick": 31276,
        "pitch": 67,
        "velocity": 87,
        "trackId": 1,
        "channel": 0
      },
      {
        "startTick": 30716,
        "endTick": 31092,
        "pitch": 58,
        "velocity": 86,
        "trackId": 1,
        "channel": 0
      },
      {
        "startTick": 30720,
        "endTick": 30816,
        "pitch": 36,
        "velocity": 78,
        "trackId": 11,
        "channel": 10
      },
      {
        "startTick": 30720,
        "endTick": 30832,
        "pitch": 70,
        "velocity": 69,
        "trackId": 10,
        "channel": 9
      },
      {
        "startTick": 30720,
        "endTick": 31044,
        "pitch": 55,
        "velocity": 73,
        "trackId": 4,
        "channel": 3
      },
      {
        "startTick": 30720,
        "endTick": 31240,
        "pitch": 63,
        "velocity": 76,
        "trackId": 1,
        "channel": 0
      },
      {
        "startTick": 30724,
        "endTick": 31192,
        "pitch": 39,
        "velocity": 85,
        "trackId": 1,
        "channel": 0
      },
      {
        "startTick": 30912,
        "endTick": 30996,
        "pitch": 70,
        "velocity": 52,
        "trackId": 10,
        "channel": 9
      },
      {
        "startTick": 31092,
        "endTick": 31272,
        "pitch": 58,
        "velocity": 56,
        "trackId": 4,
        "channel": 3
      },
      {
        "startTick": 31104,
        "endTick": 31216,
        "pitch": 70,
        "velocity": 52,
        "trackId": 10,
        "channel": 9
      },
      {
        "startTick": 31104,
        "endTick": 31292,
        "pitch": 55,
        "velocity": 66,
        "trackId": 1,
        "channel": 0
      },
      {
        "startTick": 31292,
        "endTick": 31448,
        "pitch": 58,
        "velocity": 72,
        "trackId": 1,
        "channel": 0
      },
      {
        "startTick": 31292,
        "endTick": 31736,
        "pitch": 60,
        "velocity": 64,
        "trackId": 4,
        "channel": 3
      },
      {
        "startTick": 31296,
        "endTick": 31460,
        "pitch": 70,
        "velocity": 83,
        "trackId": 1,
        "channel": 0
      },
      {
        "startTick": 31296,
        "endTick": 31464,
        "pitch": 63,
        "velocity": 79,
        "trackId": 1,
        "channel": 0
      },
      {
        "startTick": 31296,
        "endTick": 31516,
        "pitch": 70,
        "velocity": 32,
        "trackId": 10,
        "channel": 9
      },
      {
        "startTick": 31300,
        "endTick": 32076,
        "pitch": 39,
        "velocity": 74,
        "trackId": 1,
        "channel": 0
      },
      {
        "startTick": 31484,
        "endTick": 31644,
        "pitch": 55,
        "velocity": 83,
        "trackId": 1,
        "channel": 0
      },
      {
        "startTick": 31484,
        "endTick": 31644,
        "pitch": 58,
        "velocity": 50,
        "trackId": 1,
        "channel": 0
      },
      {
        "startTick": 31488,
        "endTick": 31668,
        "pitch": 37,
        "velocity": 82,
        "trackId": 10,
        "channel": 9
      },
      {
        "startTick": 31668,
        "endTick": 31840,
        "pitch": 58,
        "velocity": 74,
        "trackId": 1,
        "channel": 0
      },
      {
        "startTick": 31668,
        "endTick": 31844,
        "pitch": 70,
        "velocity": 74,
        "trackId": 1,
        "channel": 0
      },
      {
        "startTick": 31676,
        "endTick": 31840,
        "pitch": 65,
        "velocity": 65,
        "trackId": 1,
        "channel": 0
      },
      {
        "startTick": 31676,
        "endTick": 31844,
        "pitch": 63,
        "velocity": 92,
        "trackId": 1,
        "channel": 0
      },
      {
        "startTick": 31856,
        "endTick": 32040,
        "pitch": 55,
        "velocity": 66,
        "trackId": 1,
        "channel": 0
      },
      {
        "startTick": 31856,
        "endTick": 32040,
        "pitch": 58,
        "velocity": 54,
        "trackId": 1,
        "channel": 0
      },
      {
        "startTick": 31872,
        "endTick": 32056,
        "pitch": 58,
        "velocity": 56,
        "trackId": 4,
        "channel": 3
      },
      {
        "startTick": 32060,
        "endTick": 32640,
        "pitch": 62,
        "velocity": 101,
        "trackId": 1,
        "channel": 0
      },
      {
        "startTick": 32060,
        "endTick": 33000,
        "pitch": 58,
        "velocity": 92,
        "trackId": 1,
        "channel": 0
      },
      {
        "startTick": 32064,
        "endTick": 32160,
        "pitch": 36,
        "velocity": 55,
        "trackId": 11,
        "channel": 10
      },
      {
        "startTick": 32068,
        "endTick": 32388,
        "pitch": 53,
        "velocity": 83,
        "trackId": 1,
        "channel": 0
      },
      {
        "startTick": 32068,
        "endTick": 32656,
        "pitch": 62,
        "velocity": 73,
        "trackId": 4,
        "channel": 3
      },
      {
        "startTick": 32256,
        "endTick": 32352,
        "pitch": 36,
        "velocity": 78,
        "trackId": 11,
        "channel": 10
      },
      {
        "startTick": 32256,
        "endTick": 33660,
        "pitch": 46,
        "velocity": 92,
        "trackId": 1,
        "channel": 0
      },
      {
        "startTick": 32440,
        "endTick": 33032,
        "pitch": 53,
        "velocity": 70,
        "trackId": 1,
        "channel": 0
      },
      {
        "startTick": 32632,
        "endTick": 33000,
        "pitch": 60,
        "velocity": 83,
        "trackId": 1,
        "channel": 0
      },
      {
        "startTick": 32640,
        "endTick": 32708,
        "pitch": 70,
        "velocity": 75,
        "trackId": 6,
        "channel": 5
      },
      {
        "startTick": 32640,
        "endTick": 33676,
        "pitch": 72,
        "velocity": 31,
        "trackId": 14,
        "channel": 13
      },
      {
        "startTick": 32676,
        "endTick": 32732,
        "pitch": 69,
        "velocity": 66,
        "trackId": 6,
        "channel": 5
      },
      {
        "startTick": 32712,
        "endTick": 32756,
        "pitch": 67,
        "velocity": 61,
        "trackId": 6,
        "channel": 5
      },
      {
        "startTick": 32732,
        "endTick": 32776,
        "pitch": 65,
        "velocity": 61,
        "trackId": 6,
        "channel": 5
      },
      {
        "startTick": 32760,
        "endTick": 32796,
        "pitch": 63,
        "velocity": 61,
        "trackId": 6,
        "channel": 5
      },
      {
        "startTick": 32776,
        "endTick": 32820,
        "pitch": 62,
        "velocity": 59,
        "trackId": 6,
        "channel": 5
      },
      {
        "startTick": 32800,
        "endTick": 32844,
        "pitch": 60,
        "velocity": 58,
        "trackId": 6,
        "channel": 5
      },
      {
        "startTick": 32824,
        "endTick": 32876,
        "pitch": 58,
        "velocity": 52,
        "trackId": 6,
        "channel": 5
      },
      {
        "startTick": 32828,
        "endTick": 33008,
        "pitch": 62,
        "velocity": 74,
        "trackId": 1,
        "channel": 0
      },
      {
        "startTick": 32832,
        "endTick": 33000,
        "pitch": 62,
        "velocity": 64,
        "trackId": 4,
        "channel": 3
      },
      {
        "startTick": 32856,
        "endTick": 32912,
        "pitch": 57,
        "velocity": 49,
        "trackId": 6,
        "channel": 5
      },
      {
        "startTick": 32900,
        "endTick": 32952,
        "pitch": 55,
        "velocity": 43,
        "trackId": 6,
        "channel": 5
      },
      {
        "startTick": 32940,
        "endTick": 32988,
        "pitch": 53,
        "velocity": 32,
        "trackId": 6,
        "channel": 5
      },
      {
        "startTick": 32972,
        "endTick": 33004,
        "pitch": 51,
        "velocity": 44,
        "trackId": 6,
        "channel": 5
      },
      {
        "startTick": 33012,
        "endTick": 33036,
        "pitch": 53,
        "velocity": 36,
        "trackId": 6,
        "channel": 5
      },
      {
        "startTick": 33016,
        "endTick": 33384,
        "pitch": 58,
        "velocity": 70,
        "trackId": 1,
        "channel": 0
      },
      {
        "startTick": 33020,
        "endTick": 33084,
        "pitch": 55,
        "velocity": 55,
        "trackId": 6,
        "channel": 5
      },
      {
        "startTick": 33024,
        "endTick": 33084,
        "pitch": 50,
        "velocity": 48,
        "trackId": 11,
        "channel": 10
      },
      {
        "startTick": 33024,
        "endTick": 33120,
        "pitch": 54,
        "velocity": 91,
        "trackId": 10,
        "channel": 9
      },
      {
        "startTick": 33024,
        "endTick": 33368,
        "pitch": 63,
        "velocity": 86,
        "trackId": 1,
        "channel": 0
      },
      {
        "startTick": 33024,
        "endTick": 33384,
        "pitch": 55,
        "velocity": 83,
        "trackId": 1,
        "channel": 0
      },
      {
        "startTick": 33028,
        "endTick": 33356,
        "pitch": 63,
        "velocity": 82,
        "trackId": 4,
        "channel": 3
      },
      {
        "startTick": 33068,
        "endTick": 33140,
        "pitch": 57,
        "velocity": 40,
        "trackId": 6,
        "channel": 5
      },
      {
        "startTick": 33120,
        "endTick": 33184,
        "pitch": 58,
        "velocity": 52,
        "trackId": 6,
        "channel": 5
      },
      {
        "startTick": 33168,
        "endTick": 33232,
        "pitch": 60,
        "velocity": 56,
        "trackId": 6,
        "channel": 5
      },
      {
        "startTick": 33212,
        "endTick": 33276,
        "pitch": 62,
        "velocity": 56,
        "trackId": 6,
        "channel": 5
      },
      {
        "startTick": 33216,
        "endTick": 33276,
        "pitch": 45,
        "velocity": 48,
        "trackId": 11,
        "channel": 10
      },
      {
        "startTick": 33216,
        "endTick": 33804,
        "pitch": 60,
        "velocity": 43,
        "trackId": 13,
        "channel": 12
      },
      {
        "startTick": 33260,
        "endTick": 33324,
        "pitch": 63,
        "velocity": 60,
        "trackId": 6,
        "channel": 5
      },
      {
        "startTick": 33304,
        "endTick": 33368,
        "pitch": 65,
        "velocity": 60,
        "trackId": 6,
        "channel": 5
      },
      {
        "startTick": 33352,
        "endTick": 33408,
        "pitch": 67,
        "velocity": 64,
        "trackId": 6,
        "channel": 5
      },
      {
        "startTick": 33392,
        "endTick": 33448,
        "pitch": 69,
        "velocity": 64,
        "trackId": 6,
        "channel": 5
      },
      {
        "startTick": 33404,
        "endTick": 33788,
        "pitch": 58,
        "velocity": 66,
        "trackId": 1,
        "channel": 0
      },
      {
        "startTick": 33408,
        "endTick": 33468,
        "pitch": 41,
        "velocity": 48,
        "trackId": 11,
        "channel": 10
      },
      {
        "startTick": 33408,
        "endTick": 33748,
        "pitch": 67,
        "velocity": 91,
        "trackId": 4,
        "channel": 3
      },
      {
        "startTick": 33408,
        "endTick": 33776,
        "pitch": 55,
        "velocity": 74,
        "trackId": 1,
        "channel": 0
      },
      {
        "startTick": 33408,
        "endTick": 33780,
        "pitch": 63,
        "velocity": 101,
        "trackId": 1,
        "channel": 0
      },
      {
        "startTick": 33432,
        "endTick": 33460,
        "pitch": 70,
        "velocity": 73,
        "trackId": 6,
        "channel": 5
      },
      {
        "startTick": 33484,
        "endTick": 33552,
        "pitch": 72,
        "velocity": 61,
        "trackId": 6,
        "channel": 5
      },
      {
        "startTick": 33540,
        "endTick": 33604,
        "pitch": 74,
        "velocity": 58,
        "trackId": 6,
        "channel": 5
      },
      {
        "startTick": 33588,
        "endTick": 33652,
        "pitch": 75,
        "velocity": 55,
        "trackId": 6,
        "channel": 5
      },
      {
        "startTick": 33632,
        "endTick": 33696,
        "pitch": 77,
        "velocity": 49,
        "trackId": 6,
        "channel": 5
      },
      {
        "startTick": 33672,
        "endTick": 33724,
        "pitch": 51,
        "velocity": 29,
        "trackId": 10,
        "channel": 9
      },
      {
        "startTick": 33680,
        "endTick": 33736,
        "pitch": 79,
        "velocity": 46,
        "trackId": 6,
        "channel": 5
      },
      {
        "startTick": 33704,
        "endTick": 33776,
        "pitch": 59,
        "velocity": 45,
        "trackId": 10,
        "channel": 9
      },
      {
        "startTick": 33720,
        "endTick": 33776,
        "pitch": 81,
        "velocity": 37,
        "trackId": 6,
        "channel": 5
      },
      {
        "startTick": 33740,
        "endTick": 33816,
        "pitch": 51,
        "velocity": 44,
        "trackId": 10,
        "channel": 9
      },
      {
        "startTick": 33760,
        "endTick": 33788,
        "pitch": 82,
        "velocity": 37,
        "trackId": 6,
        "channel": 5
      },
      {
        "startTick": 33776,
        "endTick": 43016,
        "pitch": 65,
        "velocity": 42,
        "trackId": 3,
        "channel": 2
      },
      {
        "startTick": 33792,
        "endTick": 33840,
        "pitch": 55,
        "velocity": 38,
        "trackId": 10,
        "channel": 9
      },
      {
        "startTick": 33792,
        "endTick": 33840,
        "pitch": 59,
        "velocity": 64,
        "trackId": 10,
        "channel": 9
      },
      {
        "startTick": 33792,
        "endTick": 33888,
        "pitch": 36,
        "velocity": 78,
        "trackId": 11,
        "channel": 10
      },
      {
        "startTick": 33792,
        "endTick": 33904,
        "pitch": 70,
        "velocity": 69,
        "trackId": 10,
        "channel": 9
      },
      {
        "startTick": 33792,
        "endTick": 34332,
        "pitch": 53,
        "velocity": 92,
        "trackId": 1,
        "channel": 0
      },
      {
        "startTick": 33792,
        "endTick": 34380,
        "pitch": 57,
        "velocity": 101,
        "trackId": 1,
        "channel": 0
      },
      {
        "startTick": 33792,
        "endTick": 34380,
        "pitch": 29,
        "velocity": 64,
        "trackId": 2,
        "channel": 1
      },
      {
        "startTick": 33792,
        "endTick": 34552,
        "pitch": 89,
        "velocity": 64,
        "trackId": 8,
        "channel": 7
      },
      {
        "startTick": 33792,
        "endTick": 35660,
        "pitch": 65,
        "velocity": 82,
        "trackId": 4,
        "channel": 3
      },
      {
        "startTick": 33796,
        "endTick": 34352,
        "pitch": 41,
        "velocity": 95,
        "trackId": 1,
        "channel": 0
      },
      {
        "startTick": 33984,
        "endTick": 34068,
        "pitch": 70,
        "velocity": 52,
        "trackId": 10,
        "channel": 9
      },
      {
        "startTick": 34176,
        "endTick": 34288,
        "pitch": 70,
        "velocity": 52,
        "trackId": 10,
        "channel": 9
      },
      {
        "startTick": 34356,
        "endTick": 34572,
        "pitch": 43,
        "velocity": 83,
        "trackId": 1,
        "channel": 0
      },
      {
        "startTick": 34368,
        "endTick": 34556,
        "pitch": 31,
        "velocity": 64,
        "trackId": 2,
        "channel": 1
      },
      {
        "startTick": 34368,
        "endTick": 34584,
        "pitch": 58,
        "velocity": 74,
        "trackId": 1,
        "channel": 0
      },
      {
        "startTick": 34368,
        "endTick": 34588,
        "pitch": 70,
        "velocity": 32,
        "trackId": 10,
        "channel": 9
      },
      {
        "startTick": 34372,
        "endTick": 34532,
        "pitch": 55,
        "velocity": 83,
        "trackId": 1,
        "channel": 0
      },
      {
        "startTick": 34552,
        "endTick": 35300,
        "pitch": 45,
        "velocity": 101,
        "trackId": 1,
        "channel": 0
      },
      {
        "startTick": 34556,
        "endTick": 34928,
        "pitch": 57,
        "velocity": 92,
        "trackId": 1,
        "channel": 0
      },
      {
        "startTick": 34560,
        "endTick": 34740,
        "pitch": 37,
        "velocity": 82,
        "trackId": 10,
        "channel": 9
      },
      {
        "startTick": 34560,
        "endTick": 34920,
        "pitch": 60,
        "velocity": 101,
        "trackId": 1,
        "channel": 0
      },
      {
        "startTick": 34560,
        "endTick": 35284,
        "pitch": 33,
        "velocity": 64,
        "trackId": 2,
        "channel": 1
      },
      {
        "startTick": 34940,
        "endTick": 35124,
        "pitch": 53,
        "velocity": 83,
        "trackId": 1,
        "channel": 0
      },
      {
        "startTick": 35124,
        "endTick": 35308,
        "pitch": 63,
        "velocity": 83,
        "trackId": 1,
        "channel": 0
      },
      {
        "startTick": 35128,
        "endTick": 35304,
        "pitch": 60,
        "velocity": 92,
        "trackId": 1,
        "channel": 0
      },
      {
        "startTick": 35136,
        "endTick": 35232,
        "pitch": 36,
        "velocity": 55,
        "trackId": 11,
        "channel": 10
      },
      {
        "startTick": 35316,
        "endTick": 35808,
        "pitch": 62,
        "velocity": 92,
        "trackId": 1,
        "channel": 0
      },
      {
        "startTick": 35320,
        "endTick": 36100,
        "pitch": 58,
        "velocity": 83,
        "trackId": 1,
        "channel": 0
      },
      {
        "startTick": 35320,
        "endTick": 36840,
        "pitch": 46,
        "velocity": 92,
        "trackId": 1,
        "channel": 0
      },
      {
        "startTick": 35328,
        "endTick": 35424,
        "pitch": 36,
        "velocity": 78,
        "trackId": 11,
        "channel": 10
      },
      {
        "startTick": 35328,
        "endTick": 36820,
        "pitch": 34,
        "velocity": 64,
        "trackId": 2,
        "channel": 1
      },
      {
        "startTick": 35696,
        "endTick": 36216,
        "pitch": 53,
        "velocity": 58,
        "trackId": 1,
        "channel": 0
      },
      {
        "startTick": 35888,
        "endTick": 36548,
        "pitch": 62,
        "velocity": 97,
        "trackId": 1,
        "channel": 0
      },
      {
        "startTick": 35896,
        "endTick": 36076,
        "pitch": 62,
        "velocity": 60,
        "trackId": 4,
        "channel": 3
      },
      {
        "startTick": 36088,
        "endTick": 36436,
        "pitch": 63,
        "velocity": 84,
        "trackId": 4,
        "channel": 3
      },
      {
        "startTick": 36096,
        "endTick": 36192,
        "pitch": 54,
        "velocity": 91,
        "trackId": 10,
        "channel": 9
      },
      {
        "startTick": 36280,
        "endTick": 36832,
        "pitch": 53,
        "velocity": 74,
        "trackId": 1,
        "channel": 0
      },
      {
        "startTick": 36472,
        "endTick": 36828,
        "pitch": 67,
        "velocity": 97,
        "trackId": 1,
        "channel": 0
      },
      {
        "startTick": 36476,
        "endTick": 36820,
        "pitch": 67,
        "velocity": 87,
        "trackId": 4,
        "channel": 3
      },
      {
        "startTick": 36860,
        "endTick": 37076,
        "pitch": 60,
        "velocity": 83,
        "trackId": 1,
        "channel": 0
      },
      {
        "startTick": 36860,
        "endTick": 37228,
        "pitch": 65,
        "velocity": 73,
        "trackId": 4,
        "channel": 3
      },
      {
        "startTick": 36860,
        "endTick": 37252,
        "pitch": 65,
        "velocity": 98,
        "trackId": 1,
        "channel": 0
      },
      {
        "startTick": 36864,
        "endTick": 36960,
        "pitch": 36,
        "velocity": 78,
        "trackId": 11,
        "channel": 10
      },
      {
        "startTick": 36864,
        "endTick": 36976,
        "pitch": 70,
        "velocity": 69,
        "trackId": 10,
        "channel": 9
      },
      {
        "startTick": 36864,
        "endTick": 38308,
        "pitch": 33,
        "velocity": 64,
        "trackId": 2,
        "channel": 1
      },
      {
        "startTick": 36864,
        "endTick": 38380,
        "pitch": 45,
        "velocity": 91,
        "trackId": 1,
        "channel": 0
      },
      {
        "startTick": 37048,
        "endTick": 37228,
        "pitch": 53,
        "velocity": 66,
        "trackId": 1,
        "channel": 0
      },
      {
        "startTick": 37056,
        "endTick": 37140,
        "pitch": 70,
        "velocity": 52,
        "trackId": 10,
        "channel": 9
      },
      {
        "startTick": 37228,
        "endTick": 37388,
        "pitch": 60,
        "velocity": 74,
        "trackId": 1,
        "channel": 0
      },
      {
        "startTick": 37240,
        "endTick": 37400,
        "pitch": 60,
        "velocity": 73,
        "trackId": 4,
        "channel": 3
      },
      {
        "startTick": 37248,
        "endTick": 37360,
        "pitch": 70,
        "velocity": 52,
        "trackId": 10,
        "channel": 9
      },
      {
        "startTick": 37432,
        "endTick": 37760,
        "pitch": 60,
        "velocity": 92,
        "trackId": 1,
        "channel": 0
      },
      {
        "startTick": 37432,
        "endTick": 37772,
        "pitch": 63,
        "velocity": 91,
        "trackId": 1,
        "channel": 0
      },
      {
        "startTick": 37436,
        "endTick": 38004,
        "pitch": 63,
        "velocity": 90,
        "trackId": 4,
        "channel": 3
      },
      {
        "startTick": 37440,
        "endTick": 37660,
        "pitch": 70,
        "velocity": 32,
        "trackId": 10,
        "channel": 9
      },
      {
        "startTick": 37632,
        "endTick": 37812,
        "pitch": 37,
        "velocity": 82,
        "trackId": 10,
        "channel": 9
      },
      {
        "startTick": 37816,
        "endTick": 38172,
        "pitch": 60,
        "velocity": 63,
        "trackId": 1,
        "channel": 0
      },
      {
        "startTick": 37816,
        "endTick": 38372,
        "pitch": 53,
        "velocity": 66,
        "trackId": 1,
        "channel": 0
      },
      {
        "startTick": 37816,
        "endTick": 38380,
        "pitch": 62,
        "velocity": 93,
        "trackId": 1,
        "channel": 0
      },
      {
        "startTick": 38020,
        "endTick": 38176,
        "pitch": 62,
        "velocity": 73,
        "trackId": 4,
        "channel": 3
      },
      {
        "startTick": 38196,
        "endTick": 38916,
        "pitch": 58,
        "velocity": 88,
        "trackId": 1,
        "channel": 0
      },
      {
        "startTick": 38208,
        "endTick": 38304,
        "pitch": 36,
        "velocity": 55,
        "trackId": 11,
        "channel": 10
      },
      {
        "startTick": 38212,
        "endTick": 38792,
        "pitch": 62,
        "velocity": 82,
        "trackId": 4,
        "channel": 3
      },
      {
        "startTick": 38392,
        "endTick": 39124,
        "pitch": 62,
        "velocity": 97,
        "trackId": 1,
        "channel": 0
      },
      {
        "startTick": 38400,
        "endTick": 38496,
        "pitch": 36,
        "velocity": 78,
        "trackId": 11,
        "channel": 10
      },
      {
        "startTick": 38400,
        "endTick": 39116,
        "pitch": 34,
        "velocity": 64,
        "trackId": 2,
        "channel": 1
      },
      {
        "startTick": 38400,
        "endTick": 39128,
        "pitch": 53,
        "velocity": 74,
        "trackId": 1,
        "channel": 0
      },
      {
        "startTick": 38400,
        "endTick": 39144,
        "pitch": 46,
        "velocity": 92,
        "trackId": 1,
        "channel": 0
      },
      {
        "startTick": 38972,
        "endTick": 39896,
        "pitch": 58,
        "velocity": 62,
        "trackId": 1,
        "channel": 0
      },
      {
        "startTick": 39152,
        "endTick": 39932,
        "pitch": 38,
        "velocity": 92,
        "trackId": 1,
        "channel": 0
      },
      {
        "startTick": 39156,
        "endTick": 39376,
        "pitch": 62,
        "velocity": 73,
        "trackId": 4,
        "channel": 3
      },
      {
        "startTick": 39156,
        "endTick": 39436,
        "pitch": 62,
        "velocity": 101,
        "trackId": 1,
        "channel": 0
      },
      {
        "startTick": 39156,
        "endTick": 39924,
        "pitch": 53,
        "velocity": 74,
        "trackId": 1,
        "channel": 0
      },
      {
        "startTick": 39168,
        "endTick": 39264,
        "pitch": 54,
        "velocity": 91,
        "trackId": 10,
        "channel": 9
      },
      {
        "startTick": 39168,
        "endTick": 39888,
        "pitch": 38,
        "velocity": 64,
        "trackId": 2,
        "channel": 1
      },
      {
        "startTick": 39420,
        "endTick": 39728,
        "pitch": 63,
        "velocity": 92,
        "trackId": 1,
        "channel": 0
      },
      {
        "startTick": 39424,
        "endTick": 39648,
        "pitch": 63,
        "velocity": 73,
        "trackId": 4,
        "channel": 3
      },
      {
        "startTick": 39676,
        "endTick": 39936,
        "pitch": 65,
        "velocity": 97,
        "trackId": 1,
        "channel": 0
      },
      {
        "startTick": 39688,
        "endTick": 39856,
        "pitch": 65,
        "velocity": 73,
        "trackId": 4,
        "channel": 3
      },
      {
        "startTick": 39928,
        "endTick": 40256,
        "pitch": 69,
        "velocity": 73,
        "trackId": 4,
        "channel": 3
      },
      {
        "startTick": 39928,
        "endTick": 40668,
        "pitch": 39,
        "velocity": 91,
        "trackId": 1,
        "channel": 0
      },
      {
        "startTick": 39932,
        "endTick": 40132,
        "pitch": 60,
        "velocity": 92,
        "trackId": 1,
        "channel": 0
      },
      {
        "startTick": 39932,
        "endTick": 40704,
        "pitch": 69,
        "velocity": 99,
        "trackId": 1,
        "channel": 0
      },
      {
        "startTick": 39936,
        "endTick": 40032,
        "pitch": 36,
        "velocity": 78,
        "trackId": 11,
        "channel": 10
      },
      {
        "startTick": 39936,
        "endTick": 40048,
        "pitch": 70,
        "velocity": 69,
        "trackId": 10,
        "channel": 9
      },
      {
        "startTick": 39936,
        "endTick": 40668,
        "pitch": 39,
        "velocity": 64,
        "trackId": 2,
        "channel": 1
      },
      {
        "startTick": 40116,
        "endTick": 40320,
        "pitch": 67,
        "velocity": 85,
        "trackId": 1,
        "channel": 0
      },
      {
        "startTick": 40128,
        "endTick": 40212,
        "pitch": 70,
        "velocity": 52,
        "trackId": 10,
        "channel": 9
      },
      {
        "startTick": 40304,
        "endTick": 40704,
        "pitch": 60,
        "velocity": 76,
        "trackId": 1,
        "channel": 0
      },
      {
        "startTick": 40308,
        "endTick": 40648,
        "pitch": 67,
        "velocity": 73,
        "trackId": 4,
        "channel": 3
      },
      {
        "startTick": 40320,
        "endTick": 40432,
        "pitch": 70,
        "velocity": 52,
        "trackId": 10,
        "channel": 9
      },
      {
        "startTick": 40500,
        "endTick": 40680,
        "pitch": 65,
        "velocity": 74,
        "trackId": 1,
        "channel": 0
      },
      {
        "startTick": 40512,
        "endTick": 40732,
        "pitch": 70,
        "velocity": 32,
        "trackId": 10,
        "channel": 9
      },
      {
        "startTick": 40696,
        "endTick": 40904,
        "pitch": 58,
        "velocity": 91,
        "trackId": 1,
        "channel": 0
      },
      {
        "startTick": 40696,
        "endTick": 41092,
        "pitch": 65,
        "velocity": 64,
        "trackId": 4,
        "channel": 3
      },
      {
        "startTick": 40696,
        "endTick": 41108,
        "pitch": 65,
        "velocity": 97,
        "trackId": 1,
        "channel": 0
      },
      {
        "startTick": 40696,
        "endTick": 41420,
        "pitch": 38,
        "velocity": 92,
        "trackId": 1,
        "channel": 0
      },
      {
        "startTick": 40704,
        "endTick": 40884,
        "pitch": 37,
        "velocity": 82,
        "trackId": 10,
        "channel": 9
      },
      {
        "startTick": 40704,
        "endTick": 41364,
        "pitch": 38,
        "velocity": 64,
        "trackId": 2,
        "channel": 1
      },
      {
        "startTick": 40896,
        "endTick": 41416,
        "pitch": 53,
        "velocity": 79,
        "trackId": 1,
        "channel": 0
      },
      {
        "startTick": 41080,
        "endTick": 41452,
        "pitch": 58,
        "velocity": 74,
        "trackId": 1,
        "channel": 0
      },
      {
        "startTick": 41272,
        "endTick": 41456,
        "pitch": 65,
        "velocity": 83,
        "trackId": 1,
        "channel": 0
      },
      {
        "startTick": 41280,
        "endTick": 41376,
        "pitch": 36,
        "velocity": 55,
        "trackId": 11,
        "channel": 10
      },
      {
        "startTick": 41284,
        "endTick": 41476,
        "pitch": 58,
        "velocity": 64,
        "trackId": 4,
        "channel": 3
      },
      {
        "startTick": 41468,
        "endTick": 42160,
        "pitch": 39,
        "velocity": 94,
        "trackId": 1,
        "channel": 0
      },
      {
        "startTick": 41472,
        "endTick": 41568,
        "pitch": 36,
        "velocity": 78,
        "trackId": 11,
        "channel": 10
      },
      {
        "startTick": 41472,
        "endTick": 41772,
        "pitch": 69,
        "velocity": 96,
        "trackId": 1,
        "channel": 0
      },
      {
        "startTick": 41472,
        "endTick": 41800,
        "pitch": 65,
        "velocity": 83,
        "trackId": 1,
        "channel": 0
      },
      {
        "startTick": 41472,
        "endTick": 42160,
        "pitch": 39,
        "velocity": 64,
        "trackId": 2,
        "channel": 1
      },
      {
        "startTick": 41480,
        "endTick": 41788,
        "pitch": 69,
        "velocity": 73,
        "trackId": 4,
        "channel": 3
      },
      {
        "startTick": 41660,
        "endTick": 41936,
        "pitch": 58,
        "velocity": 58,
        "trackId": 1,
        "channel": 0
      },
      {
        "startTick": 41844,
        "endTick": 42420,
        "pitch": 70,
        "velocity": 83,
        "trackId": 1,
        "channel": 0
      },
      {
        "startTick": 41852,
        "endTick": 42028,
        "pitch": 70,
        "velocity": 64,
        "trackId": 4,
        "channel": 3
      },
      {
        "startTick": 42036,
        "endTick": 42428,
        "pitch": 65,
        "velocity": 94,
        "trackId": 1,
        "channel": 0
      },
      {
        "startTick": 42056,
        "endTick": 42608,
        "pitch": 65,
        "velocity": 73,
        "trackId": 4,
        "channel": 3
      },
      {
        "startTick": 42228,
        "endTick": 43004,
        "pitch": 38,
        "velocity": 83,
        "trackId": 1,
        "channel": 0
      },
      {
        "startTick": 42240,
        "endTick": 42336,
        "pitch": 54,
        "velocity": 91,
        "trackId": 10,
        "channel": 9
      },
      {
        "startTick": 42240,
        "endTick": 42936,
        "pitch": 38,
        "velocity": 64,
        "trackId": 2,
        "channel": 1
      },
      {
        "startTick": 42412,
        "endTick": 42640,
        "pitch": 58,
        "velocity": 62,
        "trackId": 1,
        "channel": 0
      },
      {
        "startTick": 42432,
        "endTick": 42632,
        "pitch": 80,
        "velocity": 36,
        "trackId": 10,
        "channel": 9
      },
      {
        "startTick": 42604,
        "endTick": 43024,
        "pitch": 65,
        "velocity": 91,
        "trackId": 1,
        "channel": 0
      },
      {
        "startTick": 42624,
        "endTick": 42976,
        "pitch": 81,
        "velocity": 52,
        "trackId": 10,
        "channel": 9
      },
      {
        "startTick": 42792,
        "endTick": 42980,
        "pitch": 58,
        "velocity": 58,
        "trackId": 1,
        "channel": 0
      },
      {
        "startTick": 42812,
        "endTick": 43008,
        "pitch": 58,
        "velocity": 52,
        "trackId": 4,
        "channel": 3
      },
      {
        "startTick": 42980,
        "endTick": 46088,
        "pitch": 70,
        "velocity": 41,
        "trackId": 3,
        "channel": 2
      },
      {
        "startTick": 42992,
        "endTick": 43784,
        "pitch": 43,
        "velocity": 83,
        "trackId": 1,
        "channel": 0
      },
      {
        "startTick": 43004,
        "endTick": 43632,
        "pitch": 62,
        "velocity": 93,
        "trackId": 1,
        "channel": 0
      },
      {
        "startTick": 43004,
        "endTick": 43732,
        "pitch": 58,
        "velocity": 86,
        "trackId": 1,
        "channel": 0
      },
      {
        "startTick": 43008,
        "endTick": 43104,
        "pitch": 36,
        "velocity": 78,
        "trackId": 11,
        "channel": 10
      },
      {
        "startTick": 43008,
        "endTick": 43120,
        "pitch": 70,
        "velocity": 69,
        "trackId": 10,
        "channel": 9
      },
      {
        "startTick": 43008,
        "endTick": 43380,
        "pitch": 62,
        "velocity": 75,
        "trackId": 4,
        "channel": 3
      },
      {
        "startTick": 43008,
        "endTick": 43724,
        "pitch": 31,
        "velocity": 64,
        "trackId": 2,
        "channel": 1
      },
      {
        "startTick": 43200,
        "endTick": 43284,
        "pitch": 70,
        "velocity": 52,
        "trackId": 10,
        "channel": 9
      },
      {
        "startTick": 43388,
        "endTick": 43524,
        "pitch": 60,
        "velocity": 60,
        "trackId": 4,
        "channel": 3
      },
      {
        "startTick": 43392,
        "endTick": 43504,
        "pitch": 70,
        "velocity": 52,
        "trackId": 10,
        "channel": 9
      },
      {
        "startTick": 43576,
        "endTick": 44180,
        "pitch": 58,
        "velocity": 73,
        "trackId": 4,
        "channel": 3
      },
      {
        "startTick": 43580,
        "endTick": 43788,
        "pitch": 53,
        "velocity": 74,
        "trackId": 1,
        "channel": 0
      },
      {
        "startTick": 43584,
        "endTick": 43804,
        "pitch": 70,
        "velocity": 32,
        "trackId": 10,
        "channel": 9
      },
      {
        "startTick": 43772,
        "endTick": 44352,
        "pitch": 40,
        "velocity": 92,
        "trackId": 1,
        "channel": 0
      },
      {
        "startTick": 43776,
        "endTick": 43956,
        "pitch": 37,
        "velocity": 82,
        "trackId": 10,
        "channel": 9
      },
      {
        "startTick": 43776,
        "endTick": 44332,
        "pitch": 28,
        "velocity": 64,
        "trackId": 2,
        "channel": 1
      },
      {
        "startTick": 43776,
        "endTick": 44516,
        "pitch": 55,
        "velocity": 78,
        "trackId": 1,
        "channel": 0
      },
      {
        "startTick": 43776,
        "endTick": 44568,
        "pitch": 60,
        "velocity": 83,
        "trackId": 1,
        "channel": 0
      },
      {
        "startTick": 44156,
        "endTick": 44332,
        "pitch": 55,
        "velocity": 56,
        "trackId": 4,
        "channel": 3
      },
      {
        "startTick": 44160,
        "endTick": 44524,
        "pitch": 52,
        "velocity": 83,
        "trackId": 1,
        "channel": 0
      },
      {
        "startTick": 44348,
        "endTick": 44540,
        "pitch": 58,
        "velocity": 69,
        "trackId": 4,
        "channel": 3
      },
      {
        "startTick": 44352,
        "endTick": 44448,
        "pitch": 36,
        "velocity": 55,
        "trackId": 11,
        "channel": 10
      },
      {
        "startTick": 44352,
        "endTick": 44512,
        "pitch": 40,
        "velocity": 82,
        "trackId": 1,
        "channel": 0
      },
      {
        "startTick": 44352,
        "endTick": 44512,
        "pitch": 28,
        "velocity": 56,
        "trackId": 2,
        "channel": 1
      },
      {
        "startTick": 44536,
        "endTick": 44748,
        "pitch": 58,
        "velocity": 91,
        "trackId": 1,
        "channel": 0
      },
      {
        "startTick": 44536,
        "endTick": 45088,
        "pitch": 51,
        "velocity": 70,
        "trackId": 1,
        "channel": 0
      },
      {
        "startTick": 44536,
        "endTick": 45484,
        "pitch": 41,
        "velocity": 101,
        "trackId": 1,
        "channel": 0
      },
      {
        "startTick": 44540,
        "endTick": 44928,
        "pitch": 62,
        "velocity": 75,
        "trackId": 4,
        "channel": 3
      },
      {
        "startTick": 44544,
        "endTick": 44640,
        "pitch": 36,
        "velocity": 78,
        "trackId": 11,
        "channel": 10
      },
      {
        "startTick": 44544,
        "endTick": 45484,
        "pitch": 29,
        "velocity": 64,
        "trackId": 2,
        "channel": 1
      },
      {
        "startTick": 44724,
        "endTick": 45056,
        "pitch": 53,
        "velocity": 74,
        "trackId": 1,
        "channel": 0
      },
      {
        "startTick": 44912,
        "endTick": 45084,
        "pitch": 60,
        "velocity": 72,
        "trackId": 1,
        "channel": 0
      },
      {
        "startTick": 44924,
        "endTick": 45072,
        "pitch": 60,
        "velocity": 56,
        "trackId": 4,
        "channel": 3
      },
      {
        "startTick": 44928,
        "endTick": 44996,
        "pitch": 70,
        "velocity": 75,
        "trackId": 6,
        "channel": 5
      },
      {
        "startTick": 44928,
        "endTick": 45964,
        "pitch": 72,
        "velocity": 31,
        "trackId": 14,
        "channel": 13
      },
      {
        "startTick": 44964,
        "endTick": 45020,
        "pitch": 69,
        "velocity": 66,
        "trackId": 6,
        "channel": 5
      },
      {
        "startTick": 45000,
        "endTick": 45044,
        "pitch": 67,
        "velocity": 61,
        "trackId": 6,
        "channel": 5
      },
      {
        "startTick": 45020,
        "endTick": 45064,
        "pitch": 65,
        "velocity": 61,
        "trackId": 6,
        "channel": 5
      },
      {
        "startTick": 45048,
        "endTick": 45084,
        "pitch": 63,
        "velocity": 61,
        "trackId": 6,
        "channel": 5
      },
      {
        "startTick": 45064,
        "endTick": 45108,
        "pitch": 62,
        "velocity": 59,
        "trackId": 6,
        "channel": 5
      },
      {
        "startTick": 45088,
        "endTick": 45132,
        "pitch": 60,
        "velocity": 58,
        "trackId": 6,
        "channel": 5
      },
      {
        "startTick": 45108,
        "endTick": 45260,
        "pitch": 62,
        "velocity": 74,
        "trackId": 1,
        "channel": 0
      },
      {
        "startTick": 45112,
        "endTick": 45164,
        "pitch": 58,
        "velocity": 52,
        "trackId": 6,
        "channel": 5
      },
      {
        "startTick": 45112,
        "endTick": 45280,
        "pitch": 53,
        "velocity": 74,
        "trackId": 1,
        "channel": 0
      },
      {
        "startTick": 45116,
        "endTick": 45716,
        "pitch": 60,
        "velocity": 52,
        "trackId": 4,
        "channel": 3
      },
      {
        "startTick": 45120,
        "endTick": 45280,
        "pitch": 62,
        "velocity": 73,
        "trackId": 4,
        "channel": 3
      },
      {
        "startTick": 45144,
        "endTick": 45200,
        "pitch": 57,
        "velocity": 49,
        "trackId": 6,
        "channel": 5
      },
      {
        "startTick": 45188,
        "endTick": 45240,
        "pitch": 55,
        "velocity": 43,
        "trackId": 6,
        "channel": 5
      },
      {
        "startTick": 45228,
        "endTick": 45276,
        "pitch": 53,
        "velocity": 32,
        "trackId": 6,
        "channel": 5
      },
      {
        "startTick": 45260,
        "endTick": 45292,
        "pitch": 51,
        "velocity": 44,
        "trackId": 6,
        "channel": 5
      },
      {
        "startTick": 45300,
        "endTick": 45324,
        "pitch": 53,
        "velocity": 36,
        "trackId": 6,
        "channel": 5
      },
      {
        "startTick": 45304,
        "endTick": 45668,
        "pitch": 63,
        "velocity": 89,
        "trackId": 1,
        "channel": 0
      },
      {
        "startTick": 45308,
        "endTick": 45372,
        "pitch": 55,
        "velocity": 55,
        "trackId": 6,
        "channel": 5
      },
      {
        "startTick": 45308,
        "endTick": 45652,
        "pitch": 55,
        "velocity": 98,
        "trackId": 1,
        "channel": 0
      },
      {
        "startTick": 45312,
        "endTick": 45408,
        "pitch": 54,
        "velocity": 91,
        "trackId": 10,
        "channel": 9
      },
      {
        "startTick": 45312,
        "endTick": 45688,
        "pitch": 63,
        "velocity": 87,
        "trackId": 4,
        "channel": 3
      },
      {
        "startTick": 45356,
        "endTick": 45428,
        "pitch": 57,
        "velocity": 40,
        "trackId": 6,
        "channel": 5
      },
      {
        "startTick": 45408,
        "endTick": 45472,
        "pitch": 58,
        "velocity": 52,
        "trackId": 6,
        "channel": 5
      },
      {
        "startTick": 45456,
        "endTick": 45520,
        "pitch": 60,
        "velocity": 56,
        "trackId": 6,
        "channel": 5
      },
      {
        "startTick": 45496,
        "endTick": 45680,
        "pitch": 36,
        "velocity": 83,
        "trackId": 1,
        "channel": 0
      },
      {
        "startTick": 45500,
        "endTick": 45564,
        "pitch": 62,
        "velocity": 56,
        "trackId": 6,
        "channel": 5
      },
      {
        "startTick": 45504,
        "endTick": 45564,
        "pitch": 45,
        "velocity": 55,
        "trackId": 11,
        "channel": 10
      },
      {
        "startTick": 45504,
        "endTick": 45672,
        "pitch": 24,
        "velocity": 64,
        "trackId": 2,
        "channel": 1
      },
      {
        "startTick": 45504,
        "endTick": 46092,
        "pitch": 60,
        "velocity": 43,
        "trackId": 13,
        "channel": 12
      },
      {
        "startTick": 45548,
        "endTick": 45612,
        "pitch": 63,
        "velocity": 60,
        "trackId": 6,
        "channel": 5
      },
      {
        "startTick": 45592,
        "endTick": 45656,
        "pitch": 65,
        "velocity": 60,
        "trackId": 6,
        "channel": 5
      },
      {
        "startTick": 45640,
        "endTick": 45696,
        "pitch": 67,
        "velocity": 64,
        "trackId": 6,
        "channel": 5
      },
      {
        "startTick": 45680,
        "endTick": 45736,
        "pitch": 69,
        "velocity": 64,
        "trackId": 6,
        "channel": 5
      },
      {
        "startTick": 45688,
        "endTick": 45888,
        "pitch": 39,
        "velocity": 83,
        "trackId": 1,
        "channel": 0
      },
      {
        "startTick": 45692,
        "endTick": 46044,
        "pitch": 58,
        "velocity": 92,
        "trackId": 1,
        "channel": 0
      },
      {
        "startTick": 45696,
        "endTick": 45756,
        "pitch": 41,
        "velocity": 69,
        "trackId": 11,
        "channel": 10
      },
      {
        "startTick": 45696,
        "endTick": 45868,
        "pitch": 27,
        "velocity": 64,
        "trackId": 2,
        "channel": 1
      },
      {
        "startTick": 45696,
        "endTick": 46028,
        "pitch": 67,
        "velocity": 82,
        "trackId": 4,
        "channel": 3
      },
      {
        "startTick": 45700,
        "endTick": 46060,
        "pitch": 67,
        "velocity": 95,
        "trackId": 1,
        "channel": 0
      },
      {
        "startTick": 45720,
        "endTick": 45748,
        "pitch": 70,
        "velocity": 73,
        "trackId": 6,
        "channel": 5
      },
      {
        "startTick": 45772,
        "endTick": 45840,
        "pitch": 72,
        "velocity": 61,
        "trackId": 6,
        "channel": 5
      },
      {
        "startTick": 45828,
        "endTick": 45892,
        "pitch": 74,
        "velocity": 58,
        "trackId": 6,
        "channel": 5
      },
      {
        "startTick": 45868,
        "endTick": 46080,
        "pitch": 36,
        "velocity": 83,
        "trackId": 1,
        "channel": 0
      },
      {
        "startTick": 45876,
        "endTick": 45940,
        "pitch": 75,
        "velocity": 55,
        "trackId": 6,
        "channel": 5
      },
      {
        "startTick": 45888,
        "endTick": 46056,
        "pitch": 24,
        "velocity": 64,
        "trackId": 2,
        "channel": 1
      },
      {
        "startTick": 45920,
        "endTick": 45984,
        "pitch": 77,
        "velocity": 49,
        "trackId": 6,
        "channel": 5
      },
      {
        "startTick": 45960,
        "endTick": 46012,
        "pitch": 51,
        "velocity": 29,
        "trackId": 10,
        "channel": 9
      },
      {
        "startTick": 45968,
        "endTick": 46024,
        "pitch": 79,
        "velocity": 46,
        "trackId": 6,
        "channel": 5
      },
      {
        "startTick": 45992,
        "endTick": 46064,
        "pitch": 59,
        "velocity": 45,
        "trackId": 10,
        "channel": 9
      },
      {
        "startTick": 46008,
        "endTick": 46064,
        "pitch": 81,
        "velocity": 37,
        "trackId": 6,
        "channel": 5
      },
      {
        "startTick": 46028,
        "endTick": 46104,
        "pitch": 51,
        "velocity": 44,
        "trackId": 10,
        "channel": 9
      },
      {
        "startTick": 46048,
        "endTick": 46076,
        "pitch": 82,
        "velocity": 37,
        "trackId": 6,
        "channel": 5
      },
      {
        "startTick": 46072,
        "endTick": 47664,
        "pitch": 65,
        "velocity": 73,
        "trackId": 4,
        "channel": 3
      },
      {
        "startTick": 46080,
        "endTick": 46128,
        "pitch": 55,
        "velocity": 38,
        "trackId": 10,
        "channel": 9
      },
      {
        "startTick": 46080,
        "endTick": 46128,
        "pitch": 59,
        "velocity": 64,
        "trackId": 10,
        "channel": 9
      },
      {
        "startTick": 46080,
        "endTick": 46176,
        "pitch": 36,
        "velocity": 78,
        "trackId": 11,
        "channel": 10
      },
      {
        "startTick": 46080,
        "endTick": 46192,
        "pitch": 70,
        "velocity": 69,
        "trackId": 10,
        "channel": 9
      },
      {
        "startTick": 46080,
        "endTick": 46248,
        "pitch": 89,
        "velocity": 66,
        "trackId": 8,
        "channel": 7
      },
      {
        "startTick": 46080,
        "endTick": 46392,
        "pitch": 57,
        "velocity": 92,
        "trackId": 1,
        "channel": 0
      },
      {
        "startTick": 46080,
        "endTick": 46420,
        "pitch": 65,
        "velocity": 95,
        "trackId": 1,
        "channel": 0
      },
      {
        "startTick": 46080,
        "endTick": 46668,
        "pitch": 29,
        "velocity": 64,
        "trackId": 2,
        "channel": 1
      },
      {
        "startTick": 46080,
        "endTick": 47620,
        "pitch": 69,
        "velocity": 52,
        "trackId": 3,
        "channel": 2
      },
      {
        "startTick": 46084,
        "endTick": 46640,
        "pitch": 41,
        "velocity": 95,
        "trackId": 1,
        "channel": 0
      },
      {
        "startTick": 46264,
        "endTick": 46468,
        "pitch": 84,
        "velocity": 52,
        "trackId": 8,
        "channel": 7
      },
      {
        "startTick": 46272,
        "endTick": 46356,
        "pitch": 70,
        "velocity": 52,
        "trackId": 10,
        "channel": 9
      },
      {
        "startTick": 46460,
        "endTick": 46668,
        "pitch": 77,
        "velocity": 52,
        "trackId": 8,
        "channel": 7
      },
      {
        "startTick": 46464,
        "endTick": 46576,
        "pitch": 70,
        "velocity": 52,
        "trackId": 10,
        "channel": 9
      },
      {
        "startTick": 46464,
        "endTick": 46656,
        "pitch": 57,
        "velocity": 66,
        "trackId": 1,
        "channel": 0
      },
      {
        "startTick": 46468,
        "endTick": 46664,
        "pitch": 60,
        "velocity": 66,
        "trackId": 1,
        "channel": 0
      },
      {
        "startTick": 46644,
        "endTick": 46788,
        "pitch": 53,
        "velocity": 70,
        "trackId": 1,
        "channel": 0
      },
      {
        "startTick": 46644,
        "endTick": 46860,
        "pitch": 43,
        "velocity": 83,
        "trackId": 1,
        "channel": 0
      },
      {
        "startTick": 46652,
        "endTick": 46860,
        "pitch": 89,
        "velocity": 52,
        "trackId": 8,
        "channel": 7
      },
      {
        "startTick": 46656,
        "endTick": 46844,
        "pitch": 31,
        "velocity": 64,
        "trackId": 2,
        "channel": 1
      },
      {
        "startTick": 46656,
        "endTick": 46876,
        "pitch": 70,
        "velocity": 32,
        "trackId": 10,
        "channel": 9
      },
      {
        "startTick": 46840,
        "endTick": 47112,
        "pitch": 81,
        "velocity": 43,
        "trackId": 8,
        "channel": 7
      },
      {
        "startTick": 46840,
        "endTick": 47588,
        "pitch": 45,
        "velocity": 101,
        "trackId": 1,
        "channel": 0
      },
      {
        "startTick": 46840,
        "endTick": 47624,
        "pitch": 72,
        "velocity": 52,
        "trackId": 3,
        "channel": 2
      },
      {
        "startTick": 46848,
        "endTick": 47028,
        "pitch": 37,
        "velocity": 82,
        "trackId": 10,
        "channel": 9
      },
      {
        "startTick": 46848,
        "endTick": 47208,
        "pitch": 57,
        "velocity": 92,
        "trackId": 1,
        "channel": 0
      },
      {
        "startTick": 46848,
        "endTick": 47572,
        "pitch": 33,
        "velocity": 64,
        "trackId": 2,
        "channel": 1
      },
      {
        "startTick": 46852,
        "endTick": 47208,
        "pitch": 60,
        "velocity": 83,
        "trackId": 1,
        "channel": 0
      },
      {
        "startTick": 47220,
        "endTick": 47600,
        "pitch": 60,
        "velocity": 92,
        "trackId": 1,
        "channel": 0
      },
      {
        "startTick": 47224,
        "endTick": 47600,
        "pitch": 63,
        "velocity": 74,
        "trackId": 1,
        "channel": 0
      },
      {
        "startTick": 47420,
        "endTick": 47584,
        "pitch": 53,
        "velocity": 66,
        "trackId": 1,
        "channel": 0
      },
      {
        "startTick": 47424,
        "endTick": 47520,
        "pitch": 36,
        "velocity": 55,
        "trackId": 11,
        "channel": 10
      },
      {
        "startTick": 47592,
        "endTick": 49164,
        "pitch": 70,
        "velocity": 40,
        "trackId": 3,
        "channel": 2
      },
      {
        "startTick": 47600,
        "endTick": 48384,
        "pitch": 74,
        "velocity": 52,
        "trackId": 3,
        "channel": 2
      },
      {
        "startTick": 47604,
        "endTick": 47936,
        "pitch": 62,
        "velocity": 92,
        "trackId": 1,
        "channel": 0
      },
      {
        "startTick": 47608,
        "endTick": 48128,
        "pitch": 46,
        "velocity": 92,
        "trackId": 1,
        "channel": 0
      },
      {
        "startTick": 47608,
        "endTick": 48168,
        "pitch": 58,
        "velocity": 83,
        "trackId": 1,
        "channel": 0
      },
      {
        "startTick": 47616,
        "endTick": 47712,
        "pitch": 36,
        "velocity": 78,
        "trackId": 11,
        "channel": 10
      },
      {
        "startTick": 47616,
        "endTick": 48156,
        "pitch": 34,
        "velocity": 64,
        "trackId": 2,
        "channel": 1
      },
      {
        "startTick": 47792,
        "endTick": 48364,
        "pitch": 53,
        "velocity": 62,
        "trackId": 1,
        "channel": 0
      },
      {
        "startTick": 47808,
        "endTick": 47868,
        "pitch": 80,
        "velocity": 36,
        "trackId": 10,
        "channel": 9
      },
      {
        "startTick": 47808,
        "endTick": 47868,
        "pitch": 50,
        "velocity": 48,
        "trackId": 11,
        "channel": 10
      },
      {
        "startTick": 47988,
        "endTick": 48380,
        "pitch": 62,
        "velocity": 83,
        "trackId": 1,
        "channel": 0
      },
      {
        "startTick": 48000,
        "endTick": 48060,
        "pitch": 80,
        "velocity": 36,
        "trackId": 10,
        "channel": 9
      },
      {
        "startTick": 48000,
        "endTick": 48060,
        "pitch": 45,
        "velocity": 48,
        "trackId": 11,
        "channel": 10
      },
      {
        "startTick": 48176,
        "endTick": 48352,
        "pitch": 58,
        "velocity": 66,
        "trackId": 1,
        "channel": 0
      },
      {
        "startTick": 48180,
        "endTick": 48348,
        "pitch": 62,
        "velocity": 73,
        "trackId": 4,
        "channel": 3
      },
      {
        "startTick": 48180,
        "endTick": 48748,
        "pitch": 65,
        "velocity": 74,
        "trackId": 1,
        "channel": 0
      },
      {
        "startTick": 48188,
        "endTick": 49100,
        "pitch": 46,
        "velocity": 92,
        "trackId": 1,
        "channel": 0
      },
      {
        "startTick": 48192,
        "endTick": 48252,
        "pitch": 50,
        "velocity": 48,
        "trackId": 11,
        "channel": 10
      },
      {
        "startTick": 48192,
        "endTick": 48544,
        "pitch": 81,
        "velocity": 52,
        "trackId": 10,
        "channel": 9
      },
      {
        "startTick": 48192,
        "endTick": 49112,
        "pitch": 34,
        "velocity": 64,
        "trackId": 2,
        "channel": 1
      },
      {
        "startTick": 48360,
        "endTick": 48784,
        "pitch": 75,
        "velocity": 56,
        "trackId": 3,
        "channel": 2
      },
      {
        "startTick": 48372,
        "endTick": 48708,
        "pitch": 58,
        "velocity": 83,
        "trackId": 1,
        "channel": 0
      },
      {
        "startTick": 48372,
        "endTick": 48740,
        "pitch": 70,
        "velocity": 94,
        "trackId": 1,
        "channel": 0
      },
      {
        "startTick": 48380,
        "endTick": 48736,
        "pitch": 63,
        "velocity": 82,
        "trackId": 4,
        "channel": 3
      },
      {
        "startTick": 48384,
        "endTick": 48480,
        "pitch": 54,
        "velocity": 91,
        "trackId": 10,
        "channel": 9
      },
      {
        "startTick": 48756,
        "endTick": 49160,
        "pitch": 79,
        "velocity": 52,
        "trackId": 3,
        "channel": 2
      },
      {
        "startTick": 48764,
        "endTick": 49144,
        "pitch": 67,
        "velocity": 92,
        "trackId": 1,
        "channel": 0
      },
      {
        "startTick": 48764,
        "endTick": 49164,
        "pitch": 58,
        "velocity": 74,
        "trackId": 1,
        "channel": 0
      },
      {
        "startTick": 48768,
        "endTick": 49096,
        "pitch": 67,
        "velocity": 82,
        "trackId": 4,
        "channel": 3
      },
      {
        "startTick": 49136,
        "endTick": 50700,
        "pitch": 69,
        "velocity": 52,
        "trackId": 3,
        "channel": 2
      },
      {
        "startTick": 49140,
        "endTick": 49512,
        "pitch": 65,
        "velocity": 73,
        "trackId": 4,
        "channel": 3
      },
      {
        "startTick": 49148,
        "endTick": 49364,
        "pitch": 57,
        "velocity": 83,
        "trackId": 1,
        "channel": 0
      },
      {
        "startTick": 49148,
        "endTick": 49540,
        "pitch": 65,
        "velocity": 98,
        "trackId": 1,
        "channel": 0
      },
      {
        "startTick": 49152,
        "endTick": 49248,
        "pitch": 36,
        "velocity": 78,
        "trackId": 11,
        "channel": 10
      },
      {
        "startTick": 49152,
        "endTick": 49264,
        "pitch": 70,
        "velocity": 69,
        "trackId": 10,
        "channel": 9
      },
      {
        "startTick": 49152,
        "endTick": 49688,
        "pitch": 41,
        "velocity": 91,
        "trackId": 1,
        "channel": 0
      },
      {
        "startTick": 49152,
        "endTick": 49692,
        "pitch": 29,
        "velocity": 64,
        "trackId": 2,
        "channel": 1
      },
      {
        "startTick": 49152,
        "endTick": 49884,
        "pitch": 77,
        "velocity": 52,
        "trackId": 3,
        "channel": 2
      },
      {
        "startTick": 49336,
        "endTick": 49516,
        "pitch": 53,
        "velocity": 66,
        "trackId": 1,
        "channel": 0
      },
      {
        "startTick": 49344,
        "endTick": 49428,
        "pitch": 70,
        "velocity": 52,
        "trackId": 10,
        "channel": 9
      },
      {
        "startTick": 49516,
        "endTick": 49676,
        "pitch": 60,
        "velocity": 74,
        "trackId": 1,
        "channel": 0
      },
      {
        "startTick": 49528,
        "endTick": 49676,
        "pitch": 60,
        "velocity": 66,
        "trackId": 4,
        "channel": 3
      },
      {
        "startTick": 49536,
        "endTick": 49648,
        "pitch": 70,
        "velocity": 52,
        "trackId": 10,
        "channel": 9
      },
      {
        "startTick": 49720,
        "endTick": 50100,
        "pitch": 63,
        "velocity": 91,
        "trackId": 1,
        "channel": 0
      },
      {
        "startTick": 49720,
        "endTick": 50108,
        "pitch": 60,
        "velocity": 92,
        "trackId": 1,
        "channel": 0
      },
      {
        "startTick": 49720,
        "endTick": 50296,
        "pitch": 63,
        "velocity": 73,
        "trackId": 4,
        "channel": 3
      },
      {
        "startTick": 49720,
        "endTick": 50468,
        "pitch": 42,
        "velocity": 101,
        "trackId": 1,
        "channel": 0
      },
      {
        "startTick": 49728,
        "endTick": 49948,
        "pitch": 70,
        "velocity": 32,
        "trackId": 10,
        "channel": 9
      },
      {
        "startTick": 49728,
        "endTick": 50464,
        "pitch": 30,
        "velocity": 64,
        "trackId": 2,
        "channel": 1
      },
      {
        "startTick": 49880,
        "endTick": 50304,
        "pitch": 75,
        "velocity": 60,
        "trackId": 3,
        "channel": 2
      },
      {
        "startTick": 49920,
        "endTick": 50100,
        "pitch": 37,
        "velocity": 82,
        "trackId": 10,
        "channel": 9
      },
      {
        "startTick": 50108,
        "endTick": 50664,
        "pitch": 62,
        "velocity": 70,
        "trackId": 1,
        "channel": 0
      },
      {
        "startTick": 50292,
        "endTick": 50464,
        "pitch": 62,
        "velocity": 64,
        "trackId": 4,
        "channel": 3
      },
      {
        "startTick": 50296,
        "endTick": 50676,
        "pitch": 54,
        "velocity": 66,
        "trackId": 1,
        "channel": 0
      },
      {
        "startTick": 50300,
        "endTick": 51420,
        "pitch": 74,
        "velocity": 52,
        "trackId": 3,
        "channel": 2
      },
      {
        "startTick": 50484,
        "endTick": 50664,
        "pitch": 45,
        "velocity": 58,
        "trackId": 1,
        "channel": 0
      },
      {
        "startTick": 50484,
        "endTick": 50668,
        "pitch": 57,
        "velocity": 74,
        "trackId": 1,
        "channel": 0
      },
      {
        "startTick": 50492,
        "endTick": 51088,
        "pitch": 62,
        "velocity": 66,
        "trackId": 4,
        "channel": 3
      },
      {
        "startTick": 50496,
        "endTick": 50592,
        "pitch": 36,
        "velocity": 55,
        "trackId": 11,
        "channel": 10
      },
      {
        "startTick": 50496,
        "endTick": 50672,
        "pitch": 33,
        "velocity": 52,
        "trackId": 2,
        "channel": 1
      },
      {
        "startTick": 50672,
        "endTick": 51448,
        "pitch": 43,
        "velocity": 92,
        "trackId": 1,
        "channel": 0
      },
      {
        "startTick": 50676,
        "endTick": 51380,
        "pitch": 50,
        "velocity": 74,
        "trackId": 1,
        "channel": 0
      },
      {
        "startTick": 50688,
        "endTick": 50784,
        "pitch": 36,
        "velocity": 78,
        "trackId": 11,
        "channel": 10
      },
      {
        "startTick": 50688,
        "endTick": 51404,
        "pitch": 31,
        "velocity": 64,
        "trackId": 2,
        "channel": 1
      },
      {
        "startTick": 50688,
        "endTick": 52216,
        "pitch": 70,
        "velocity": 44,
        "trackId": 3,
        "channel": 2
      },
      {
        "startTick": 50872,
        "endTick": 51388,
        "pitch": 57,
        "velocity": 70,
        "trackId": 1,
        "channel": 0
      },
      {
        "startTick": 50880,
        "endTick": 50940,
        "pitch": 80,
        "velocity": 36,
        "trackId": 10,
        "channel": 9
      },
      {
        "startTick": 50880,
        "endTick": 50940,
        "pitch": 50,
        "velocity": 48,
        "trackId": 11,
        "channel": 10
      },
      {
        "startTick": 51056,
        "endTick": 51404,
        "pitch": 58,
        "velocity": 74,
        "trackId": 1,
        "channel": 0
      },
      {
        "startTick": 51072,
        "endTick": 51132,
        "pitch": 80,
        "velocity": 36,
        "trackId": 10,
        "channel": 9
      },
      {
        "startTick": 51072,
        "endTick": 51132,
        "pitch": 45,
        "velocity": 48,
        "trackId": 11,
        "channel": 10
      },
      {
        "startTick": 51264,
        "endTick": 51324,
        "pitch": 50,
        "velocity": 48,
        "trackId": 11,
        "channel": 10
      },
      {
        "startTick": 51264,
        "endTick": 51616,
        "pitch": 81,
        "velocity": 52,
        "trackId": 10,
        "channel": 9
      },
      {
        "startTick": 51436,
        "endTick": 51720,
        "pitch": 74,
        "velocity": 52,
        "trackId": 3,
        "channel": 2
      },
      {
        "startTick": 51440,
        "endTick": 51676,
        "pitch": 58,
        "velocity": 70,
        "trackId": 1,
        "channel": 0
      },
      {
        "startTick": 51440,
        "endTick": 52220,
        "pitch": 46,
        "velocity": 92,
        "trackId": 1,
        "channel": 0
      },
      {
        "startTick": 51444,
        "endTick": 51724,
        "pitch": 62,
        "velocity": 101,
        "trackId": 1,
        "channel": 0
      },
      {
        "startTick": 51452,
        "endTick": 51668,
        "pitch": 62,
        "velocity": 73,
        "trackId": 4,
        "channel": 3
      },
      {
        "startTick": 51456,
        "endTick": 51516,
        "pitch": 50,
        "velocity": 48,
        "trackId": 11,
        "channel": 10
      },
      {
        "startTick": 51456,
        "endTick": 51552,
        "pitch": 54,
        "velocity": 91,
        "trackId": 10,
        "channel": 9
      },
      {
        "startTick": 51456,
        "endTick": 52172,
        "pitch": 34,
        "velocity": 64,
        "trackId": 2,
        "channel": 1
      },
      {
        "startTick": 51696,
        "endTick": 51972,
        "pitch": 75,
        "velocity": 56,
        "trackId": 3,
        "channel": 2
      },
      {
        "startTick": 51708,
        "endTick": 51920,
        "pitch": 60,
        "velocity": 74,
        "trackId": 1,
        "channel": 0
      },
      {
        "startTick": 51708,
        "endTick": 52016,
        "pitch": 63,
        "velocity": 92,
        "trackId": 1,
        "channel": 0
      },
      {
        "startTick": 51712,
        "endTick": 51772,
        "pitch": 47,
        "velocity": 48,
        "trackId": 11,
        "channel": 10
      },
      {
        "startTick": 51712,
        "endTick": 51920,
        "pitch": 63,
        "velocity": 73,
        "trackId": 4,
        "channel": 3
      },
      {
        "startTick": 51924,
        "endTick": 52212,
        "pitch": 77,
        "velocity": 52,
        "trackId": 3,
        "channel": 2
      },
      {
        "startTick": 51960,
        "endTick": 52180,
        "pitch": 62,
        "velocity": 83,
        "trackId": 1,
        "channel": 0
      },
      {
        "startTick": 51964,
        "endTick": 52164,
        "pitch": 65,
        "velocity": 73,
        "trackId": 4,
        "channel": 3
      },
      {
        "startTick": 51964,
        "endTick": 52224,
        "pitch": 65,
        "velocity": 97,
        "trackId": 1,
        "channel": 0
      },
      {
        "startTick": 51968,
        "endTick": 52028,
        "pitch": 41,
        "velocity": 48,
        "trackId": 11,
        "channel": 10
      },
      {
        "startTick": 52192,
        "endTick": 52668,
        "pitch": 81,
        "velocity": 48,
        "trackId": 3,
        "channel": 2
      },
      {
        "startTick": 52200,
        "endTick": 52976,
        "pitch": 69,
        "velocity": 50,
        "trackId": 3,
        "channel": 2
      },
      {
        "startTick": 52208,
        "endTick": 52564,
        "pitch": 69,
        "velocity": 82,
        "trackId": 4,
        "channel": 3
      },
      {
        "startTick": 52216,
        "endTick": 52956,
        "pitch": 39,
        "velocity": 91,
        "trackId": 1,
        "channel": 0
      },
      {
        "startTick": 52220,
        "endTick": 52420,
        "pitch": 60,
        "velocity": 92,
        "trackId": 1,
        "channel": 0
      },
      {
        "startTick": 52220,
        "endTick": 52992,
        "pitch": 69,
        "velocity": 99,
        "trackId": 1,
        "channel": 0
      },
      {
        "startTick": 52224,
        "endTick": 52320,
        "pitch": 36,
        "velocity": 78,
        "trackId": 11,
        "channel": 10
      },
      {
        "startTick": 52224,
        "endTick": 52336,
        "pitch": 70,
        "velocity": 69,
        "trackId": 10,
        "channel": 9
      },
      {
        "startTick": 52224,
        "endTick": 52956,
        "pitch": 39,
        "velocity": 64,
        "trackId": 2,
        "channel": 1
      },
      {
        "startTick": 52404,
        "endTick": 52608,
        "pitch": 67,
        "velocity": 85,
        "trackId": 1,
        "channel": 0
      },
      {
        "startTick": 52416,
        "endTick": 52500,
        "pitch": 70,
        "velocity": 52,
        "trackId": 10,
        "channel": 9
      },
      {
        "startTick": 52592,
        "endTick": 52760,
        "pitch": 67,
        "velocity": 64,
        "trackId": 4,
        "channel": 3
      },
      {
        "startTick": 52592,
        "endTick": 52992,
        "pitch": 60,
        "velocity": 76,
        "trackId": 1,
        "channel": 0
      },
      {
        "startTick": 52608,
        "endTick": 52720,
        "pitch": 70,
        "velocity": 52,
        "trackId": 10,
        "channel": 9
      },
      {
        "startTick": 52608,
        "endTick": 52820,
        "pitch": 79,
        "velocity": 40,
        "trackId": 3,
        "channel": 2
      },
      {
        "startTick": 52784,
        "endTick": 53356,
        "pitch": 65,
        "velocity": 73,
        "trackId": 4,
        "channel": 3
      },
      {
        "startTick": 52788,
        "endTick": 52968,
        "pitch": 65,
        "velocity": 74,
        "trackId": 1,
        "channel": 0
      },
      {
        "startTick": 52800,
        "endTick": 53020,
        "pitch": 70,
        "velocity": 32,
        "trackId": 10,
        "channel": 9
      },
      {
        "startTick": 52800,
        "endTick": 55272,
        "pitch": 77,
        "velocity": 44,
        "trackId": 3,
        "channel": 2
      },
      {
        "startTick": 52980,
        "endTick": 55272,
        "pitch": 70,
        "velocity": 48,
        "trackId": 3,
        "channel": 2
      },
      {
        "startTick": 52984,
        "endTick": 53192,
        "pitch": 58,
        "velocity": 91,
        "trackId": 1,
        "channel": 0
      },
      {
        "startTick": 52984,
        "endTick": 53396,
        "pitch": 65,
        "velocity": 97,
        "trackId": 1,
        "channel": 0
      },
      {
        "startTick": 52984,
        "endTick": 53708,
        "pitch": 38,
        "velocity": 92,
        "trackId": 1,
        "channel": 0
      },
      {
        "startTick": 52992,
        "endTick": 53172,
        "pitch": 37,
        "velocity": 82,
        "trackId": 10,
        "channel": 9
      },
      {
        "startTick": 52992,
        "endTick": 53652,
        "pitch": 38,
        "velocity": 64,
        "trackId": 2,
        "channel": 1
      },
      {
        "startTick": 53184,
        "endTick": 53704,
        "pitch": 57,
        "velocity": 68,
        "trackId": 1,
        "channel": 0
      },
      {
        "startTick": 53368,
        "endTick": 53740,
        "pitch": 58,
        "velocity": 74,
        "trackId": 1,
        "channel": 0
      },
      {
        "startTick": 53516,
        "endTick": 53736,
        "pitch": 58,
        "velocity": 52,
        "trackId": 4,
        "channel": 3
      },
      {
        "startTick": 53560,
        "endTick": 53744,
        "pitch": 65,
        "velocity": 83,
        "trackId": 1,
        "channel": 0
      },
      {
        "startTick": 53568,
        "endTick": 53664,
        "pitch": 36,
        "velocity": 55,
        "trackId": 11,
        "channel": 10
      },
      {
        "startTick": 53744,
        "endTick": 53916,
        "pitch": 69,
        "velocity": 64,
        "trackId": 4,
        "channel": 3
      },
      {
        "startTick": 53756,
        "endTick": 54448,
        "pitch": 39,
        "velocity": 94,
        "trackId": 1,
        "channel": 0
      },
      {
        "startTick": 53760,
        "endTick": 53856,
        "pitch": 36,
        "velocity": 78,
        "trackId": 11,
        "channel": 10
      },
      {
        "startTick": 53760,
        "endTick": 54060,
        "pitch": 69,
        "velocity": 96,
        "trackId": 1,
        "channel": 0
      },
      {
        "startTick": 53760,
        "endTick": 54088,
        "pitch": 65,
        "velocity": 83,
        "trackId": 1,
        "channel": 0
      },
      {
        "startTick": 53760,
        "endTick": 54448,
        "pitch": 39,
        "velocity": 64,
        "trackId": 2,
        "channel": 1
      },
      {
        "startTick": 53944,
        "endTick": 54284,
        "pitch": 70,
        "velocity": 64,
        "trackId": 4,
        "channel": 3
      },
      {
        "startTick": 53948,
        "endTick": 54584,
        "pitch": 58,
        "velocity": 58,
        "trackId": 1,
        "channel": 0
      },
      {
        "startTick": 53952,
        "endTick": 54012,
        "pitch": 80,
        "velocity": 36,
        "trackId": 10,
        "channel": 9
      },
      {
        "startTick": 54132,
        "endTick": 55252,
        "pitch": 70,
        "velocity": 83,
        "trackId": 1,
        "channel": 0
      },
      {
        "startTick": 54144,
        "endTick": 54204,
        "pitch": 80,
        "velocity": 36,
        "trackId": 10,
        "channel": 9
      },
      {
        "startTick": 54324,
        "endTick": 55216,
        "pitch": 65,
        "velocity": 94,
        "trackId": 1,
        "channel": 0
      },
      {
        "startTick": 54332,
        "endTick": 54920,
        "pitch": 65,
        "velocity": 64,
        "trackId": 4,
        "channel": 3
      },
      {
        "startTick": 54336,
        "endTick": 54396,
        "pitch": 50,
        "velocity": 48,
        "trackId": 11,
        "channel": 10
      },
      {
        "startTick": 54336,
        "endTick": 54688,
        "pitch": 81,
        "velocity": 52,
        "trackId": 10,
        "channel": 9
      },
      {
        "startTick": 54516,
        "endTick": 55292,
        "pitch": 38,
        "velocity": 83,
        "trackId": 1,
        "channel": 0
      },
      {
        "startTick": 54528,
        "endTick": 54624,
        "pitch": 54,
        "velocity": 91,
        "trackId": 10,
        "channel": 9
      },
      {
        "startTick": 54528,
        "endTick": 55224,
        "pitch": 38,
        "velocity": 64,
        "trackId": 2,
        "channel": 1
      },
      {
        "startTick": 54700,
        "endTick": 55248,
        "pitch": 58,
        "velocity": 76,
        "trackId": 1,
        "channel": 0
      },
      {
        "startTick": 55100,
        "endTick": 55296,
        "pitch": 58,
        "velocity": 52,
        "trackId": 4,
        "channel": 3
      },
      {
        "startTick": 55280,
        "endTick": 56072,
        "pitch": 43,
        "velocity": 83,
        "trackId": 1,
        "channel": 0
      },
      {
        "startTick": 55288,
        "endTick": 56088,
        "pitch": 70,
        "velocity": 30,
        "trackId": 3,
        "channel": 2
      },
      {
        "startTick": 55292,
        "endTick": 55604,
        "pitch": 62,
        "velocity": 73,
        "trackId": 4,
        "channel": 3
      },
      {
        "startTick": 55292,
        "endTick": 55920,
        "pitch": 62,
        "velocity": 93,
        "trackId": 1,
        "channel": 0
      },
      {
        "startTick": 55292,
        "endTick": 56020,
        "pitch": 58,
        "velocity": 86,
        "trackId": 1,
        "channel": 0
      },
      {
        "startTick": 55296,
        "endTick": 55392,
        "pitch": 36,
        "velocity": 78,
        "trackId": 11,
        "channel": 10
      },
      {
        "startTick": 55296,
        "endTick": 55408,
        "pitch": 70,
        "velocity": 69,
        "trackId": 10,
        "channel": 9
      },
      {
        "startTick": 55296,
        "endTick": 56012,
        "pitch": 31,
        "velocity": 64,
        "trackId": 2,
        "channel": 1
      },
      {
        "startTick": 55300,
        "endTick": 56036,
        "pitch": 74,
        "velocity": 40,
        "trackId": 3,
        "channel": 2
      },
      {
        "startTick": 55488,
        "endTick": 55572,
        "pitch": 70,
        "velocity": 52,
        "trackId": 10,
        "channel": 9
      },
      {
        "startTick": 55664,
        "endTick": 55828,
        "pitch": 60,
        "velocity": 64,
        "trackId": 4,
        "channel": 3
      },
      {
        "startTick": 55680,
        "endTick": 55792,
        "pitch": 70,
        "velocity": 52,
        "trackId": 10,
        "channel": 9
      },
      {
        "startTick": 55860,
        "endTick": 56396,
        "pitch": 58,
        "velocity": 60,
        "trackId": 4,
        "channel": 3
      },
      {
        "startTick": 55868,
        "endTick": 56076,
        "pitch": 53,
        "velocity": 74,
        "trackId": 1,
        "channel": 0
      },
      {
        "startTick": 55872,
        "endTick": 56092,
        "pitch": 70,
        "velocity": 32,
        "trackId": 10,
        "channel": 9
      },
      {
        "startTick": 56012,
        "endTick": 56828,
        "pitch": 72,
        "velocity": 48,
        "trackId": 3,
        "channel": 2
      },
      {
        "startTick": 56036,
        "endTick": 57600,
        "pitch": 67,
        "velocity": 41,
        "trackId": 3,
        "channel": 2
      },
      {
        "startTick": 56060,
        "endTick": 56816,
        "pitch": 40,
        "velocity": 92,
        "trackId": 1,
        "channel": 0
      },
      {
        "startTick": 56064,
        "endTick": 56124,
        "pitch": 50,
        "velocity": 48,
        "trackId": 11,
        "channel": 10
      },
      {
        "startTick": 56064,
        "endTick": 56244,
        "pitch": 37,
        "velocity": 82,
        "trackId": 10,
        "channel": 9
      },
      {
        "startTick": 56064,
        "endTick": 56776,
        "pitch": 28,
        "velocity": 64,
        "trackId": 2,
        "channel": 1
      },
      {
        "startTick": 56064,
        "endTick": 56856,
        "pitch": 60,
        "velocity": 83,
        "trackId": 1,
        "channel": 0
      },
      {
        "startTick": 56068,
        "endTick": 56776,
        "pitch": 55,
        "velocity": 92,
        "trackId": 1,
        "channel": 0
      },
      {
        "startTick": 56436,
        "endTick": 56596,
        "pitch": 58,
        "velocity": 52,
        "trackId": 4,
        "channel": 3
      },
      {
        "startTick": 56448,
        "endTick": 56812,
        "pitch": 52,
        "velocity": 83,
        "trackId": 1,
        "channel": 0
      },
      {
        "startTick": 56632,
        "endTick": 57176,
        "pitch": 63,
        "velocity": 73,
        "trackId": 4,
        "channel": 3
      },
      {
        "startTick": 56640,
        "endTick": 56736,
        "pitch": 36,
        "velocity": 55,
        "trackId": 11,
        "channel": 10
      },
      {
        "startTick": 56788,
        "endTick": 56844,
        "pitch": 79,
        "velocity": 40,
        "trackId": 8,
        "channel": 7
      },
      {
        "startTick": 56804,
        "endTick": 56856,
        "pitch": 87,
        "velocity": 56,
        "trackId": 8,
        "channel": 7
      },
      {
        "startTick": 56812,
        "endTick": 57224,
        "pitch": 75,
        "velocity": 56,
        "trackId": 3,
        "channel": 2
      },
      {
        "startTick": 56824,
        "endTick": 57240,
        "pitch": 63,
        "velocity": 92,
        "trackId": 1,
        "channel": 0
      },
      {
        "startTick": 56824,
        "endTick": 57540,
        "pitch": 55,
        "velocity": 101,
        "trackId": 1,
        "channel": 0
      },
      {
        "startTick": 56824,
        "endTick": 57572,
        "pitch": 44,
        "velocity": 97,
        "trackId": 1,
        "channel": 0
      },
      {
        "startTick": 56832,
        "endTick": 56928,
        "pitch": 36,
        "velocity": 78,
        "trackId": 11,
        "channel": 10
      },
      {
        "startTick": 56832,
        "endTick": 57512,
        "pitch": 32,
        "velocity": 64,
        "trackId": 2,
        "channel": 1
      },
      {
        "startTick": 57024,
        "endTick": 57084,
        "pitch": 80,
        "velocity": 36,
        "trackId": 10,
        "channel": 9
      },
      {
        "startTick": 57204,
        "endTick": 57612,
        "pitch": 74,
        "velocity": 56,
        "trackId": 3,
        "channel": 2
      },
      {
        "startTick": 57208,
        "endTick": 57248,
        "pitch": 86,
        "velocity": 56,
        "trackId": 8,
        "channel": 7
      },
      {
        "startTick": 57208,
        "endTick": 57584,
        "pitch": 62,
        "velocity": 83,
        "trackId": 1,
        "channel": 0
      },
      {
        "startTick": 57212,
        "endTick": 57376,
        "pitch": 62,
        "velocity": 56,
        "trackId": 4,
        "channel": 3
      },
      {
        "startTick": 57216,
        "endTick": 57276,
        "pitch": 80,
        "velocity": 36,
        "trackId": 10,
        "channel": 9
      },
      {
        "startTick": 57404,
        "endTick": 57964,
        "pitch": 60,
        "velocity": 64,
        "trackId": 4,
        "channel": 3
      },
      {
        "startTick": 57408,
        "endTick": 57760,
        "pitch": 81,
        "velocity": 52,
        "trackId": 10,
        "channel": 9
      },
      {
        "startTick": 57568,
        "endTick": 57988,
        "pitch": 72,
        "velocity": 60,
        "trackId": 3,
        "channel": 2
      },
      {
        "startTick": 57572,
        "endTick": 58368,
        "pitch": 65,
        "velocity": 40,
        "trackId": 3,
        "channel": 2
      },
      {
        "startTick": 57576,
        "endTick": 57628,
        "pitch": 84,
        "velocity": 60,
        "trackId": 8,
        "channel": 7
      },
      {
        "startTick": 57584,
        "endTick": 58324,
        "pitch": 60,
        "velocity": 92,
        "trackId": 1,
        "channel": 0
      },
      {
        "startTick": 57592,
        "endTick": 57964,
        "pitch": 53,
        "velocity": 83,
        "trackId": 1,
        "channel": 0
      },
      {
        "startTick": 57600,
        "endTick": 57696,
        "pitch": 54,
        "velocity": 91,
        "trackId": 10,
        "channel": 9
      },
      {
        "startTick": 57600,
        "endTick": 58280,
        "pitch": 29,
        "velocity": 64,
        "trackId": 2,
        "channel": 1
      },
      {
        "startTick": 57600,
        "endTick": 58348,
        "pitch": 41,
        "velocity": 97,
        "trackId": 1,
        "channel": 0
      },
      {
        "startTick": 57792,
        "endTick": 57852,
        "pitch": 47,
        "velocity": 48,
        "trackId": 11,
        "channel": 10
      },
      {
        "startTick": 57792,
        "endTick": 58380,
        "pitch": 60,
        "velocity": 43,
        "trackId": 13,
        "channel": 12
      },
      {
        "startTick": 57968,
        "endTick": 58324,
        "pitch": 58,
        "velocity": 74,
        "trackId": 1,
        "channel": 0
      },
      {
        "startTick": 57972,
        "endTick": 58328,
        "pitch": 70,
        "velocity": 40,
        "trackId": 3,
        "channel": 2
      },
      {
        "startTick": 57972,
        "endTick": 58352,
        "pitch": 51,
        "velocity": 73,
        "trackId": 1,
        "channel": 0
      },
      {
        "startTick": 57976,
        "endTick": 58008,
        "pitch": 82,
        "velocity": 56,
        "trackId": 8,
        "channel": 7
      },
      {
        "startTick": 57976,
        "endTick": 58136,
        "pitch": 58,
        "velocity": 56,
        "trackId": 4,
        "channel": 3
      },
      {
        "startTick": 57984,
        "endTick": 58044,
        "pitch": 41,
        "velocity": 48,
        "trackId": 11,
        "channel": 10
      },
      {
        "startTick": 58168,
        "endTick": 59168,
        "pitch": 58,
        "velocity": 64,
        "trackId": 4,
        "channel": 3
      },
      {
        "startTick": 58248,
        "endTick": 58300,
        "pitch": 51,
        "velocity": 29,
        "trackId": 10,
        "channel": 9
      },
      {
        "startTick": 58280,
        "endTick": 58352,
        "pitch": 59,
        "velocity": 45,
        "trackId": 10,
        "channel": 9
      },
      {
        "startTick": 58316,
        "endTick": 58392,
        "pitch": 51,
        "velocity": 44,
        "trackId": 10,
        "channel": 9
      },
      {
        "startTick": 58344,
        "endTick": 61396,
        "pitch": 70,
        "velocity": 27,
        "trackId": 3,
        "channel": 2
      },
      {
        "startTick": 58348,
        "endTick": 61348,
        "pitch": 46,
        "velocity": 92,
        "trackId": 1,
        "channel": 0
      },
      {
        "startTick": 58360,
        "endTick": 61388,
        "pitch": 82,
        "velocity": 49,
        "trackId": 3,
        "channel": 2
      },
      {
        "startTick": 58368,
        "endTick": 58416,
        "pitch": 49,
        "velocity": 38,
        "trackId": 10,
        "channel": 9
      },
      {
        "startTick": 58368,
        "endTick": 58416,
        "pitch": 59,
        "velocity": 64,
        "trackId": 10,
        "channel": 9
      },
      {
        "startTick": 58368,
        "endTick": 58464,
        "pitch": 36,
        "velocity": 78,
        "trackId": 11,
        "channel": 10
      },
      {
        "startTick": 58368,
        "endTick": 58480,
        "pitch": 70,
        "velocity": 69,
        "trackId": 10,
        "channel": 9
      },
      {
        "startTick": 58368,
        "endTick": 61388,
        "pitch": 34,
        "velocity": 64,
        "trackId": 2,
        "channel": 1
      },
      {
        "startTick": 58540,
        "endTick": 61344,
        "pitch": 53,
        "velocity": 74,
        "trackId": 1,
        "channel": 0
      },
      {
        "startTick": 58560,
        "endTick": 58620,
        "pitch": 41,
        "velocity": 43,
        "trackId": 11,
        "channel": 10
      },
      {
        "startTick": 58560,
        "endTick": 58644,
        "pitch": 70,
        "velocity": 52,
        "trackId": 10,
        "channel": 9
      },
      {
        "startTick": 58736,
        "endTick": 61368,
        "pitch": 60,
        "velocity": 83,
        "trackId": 1,
        "channel": 0
      },
      {
        "startTick": 58752,
        "endTick": 58812,
        "pitch": 45,
        "velocity": 48,
        "trackId": 11,
        "channel": 10
      },
      {
        "startTick": 58752,
        "endTick": 58864,
        "pitch": 70,
        "velocity": 52,
        "trackId": 10,
        "channel": 9
      },
      {
        "startTick": 58928,
        "endTick": 61364,
        "pitch": 62,
        "velocity": 83,
        "trackId": 1,
        "channel": 0
      },
      {
        "startTick": 58944,
        "endTick": 59004,
        "pitch": 50,
        "velocity": 48,
        "trackId": 11,
        "channel": 10
      },
      {
        "startTick": 58944,
        "endTick": 59164,
        "pitch": 70,
        "velocity": 32,
        "trackId": 10,
        "channel": 9
      },
      {
        "startTick": 59136,
        "endTick": 59316,
        "pitch": 37,
        "velocity": 82,
        "trackId": 10,
        "channel": 9
      },
      {
        "startTick": 59324,
        "endTick": 59936,
        "pitch": 65,
        "velocity": 40,
        "trackId": 8,
        "channel": 7
      },
      {
        "startTick": 59324,
        "endTick": 60108,
        "pitch": 65,
        "velocity": 62,
        "trackId": 1,
        "channel": 0
      },
      {
        "startTick": 59504,
        "endTick": 60120,
        "pitch": 72,
        "velocity": 74,
        "trackId": 1,
        "channel": 0
      },
      {
        "startTick": 59520,
        "endTick": 59976,
        "pitch": 72,
        "velocity": 40,
        "trackId": 8,
        "channel": 7
      },
      {
        "startTick": 59696,
        "endTick": 60124,
        "pitch": 74,
        "velocity": 74,
        "trackId": 1,
        "channel": 0
      },
      {
        "startTick": 59712,
        "endTick": 59808,
        "pitch": 36,
        "velocity": 55,
        "trackId": 11,
        "channel": 10
      },
      {
        "startTick": 59716,
        "endTick": 60012,
        "pitch": 74,
        "velocity": 40,
        "trackId": 8,
        "channel": 7
      },
      {
        "startTick": 59904,
        "endTick": 59968,
        "pitch": 49,
        "velocity": 29,
        "trackId": 6,
        "channel": 5
      },
      {
        "startTick": 59904,
        "endTick": 60000,
        "pitch": 36,
        "velocity": 78,
        "trackId": 11,
        "channel": 10
      },
      {
        "startTick": 59948,
        "endTick": 60044,
        "pitch": 51,
        "velocity": 32,
        "trackId": 6,
        "channel": 5
      },
      {
        "startTick": 60036,
        "endTick": 60124,
        "pitch": 53,
        "velocity": 26,
        "trackId": 6,
        "channel": 5
      },
      {
        "startTick": 60092,
        "endTick": 61304,
        "pitch": 77,
        "velocity": 58,
        "trackId": 1,
        "channel": 0
      },
      {
        "startTick": 60096,
        "endTick": 61216,
        "pitch": 77,
        "velocity": 43,
        "trackId": 8,
        "channel": 7
      },
      {
        "startTick": 60108,
        "endTick": 60192,
        "pitch": 54,
        "velocity": 26,
        "trackId": 6,
        "channel": 5
      },
      {
        "startTick": 60172,
        "endTick": 60244,
        "pitch": 56,
        "velocity": 31,
        "trackId": 6,
        "channel": 5
      },
      {
        "startTick": 60232,
        "endTick": 60308,
        "pitch": 58,
        "velocity": 40,
        "trackId": 6,
        "channel": 5
      },
      {
        "startTick": 60272,
        "endTick": 61316,
        "pitch": 84,
        "velocity": 74,
        "trackId": 1,
        "channel": 0
      },
      {
        "startTick": 60280,
        "endTick": 61328,
        "pitch": 84,
        "velocity": 52,
        "trackId": 8,
        "channel": 7
      },
      {
        "startTick": 60288,
        "endTick": 61324,
        "pitch": 72,
        "velocity": 31,
        "trackId": 14,
        "channel": 13
      },
      {
        "startTick": 60292,
        "endTick": 60364,
        "pitch": 60,
        "velocity": 36,
        "trackId": 6,
        "channel": 5
      },
      {
        "startTick": 60348,
        "endTick": 60428,
        "pitch": 61,
        "velocity": 36,
        "trackId": 6,
        "channel": 5
      },
      {
        "startTick": 60412,
        "endTick": 60492,
        "pitch": 63,
        "velocity": 36,
        "trackId": 6,
        "channel": 5
      },
      {
        "startTick": 60468,
        "endTick": 61316,
        "pitch": 86,
        "velocity": 83,
        "trackId": 1,
        "channel": 0
      },
      {
        "startTick": 60468,
        "endTick": 61332,
        "pitch": 86,
        "velocity": 56,
        "trackId": 8,
        "channel": 7
      },
      {
        "startTick": 60472,
        "endTick": 60548,
        "pitch": 65,
        "velocity": 36,
        "trackId": 6,
        "channel": 5
      },
      {
        "startTick": 60532,
        "endTick": 60608,
        "pitch": 66,
        "velocity": 44,
        "trackId": 6,
        "channel": 5
      },
      {
        "startTick": 60588,
        "endTick": 60664,
        "pitch": 68,
        "velocity": 44,
        "trackId": 6,
        "channel": 5
      },
      {
        "startTick": 60648,
        "endTick": 60724,
        "pitch": 70,
        "velocity": 44,
        "trackId": 6,
        "channel": 5
      },
      {
        "startTick": 60672,
        "endTick": 60768,
        "pitch": 54,
        "velocity": 91,
        "trackId": 10,
        "channel": 9
      },
      {
        "startTick": 60672,
        "endTick": 60852,
        "pitch": 38,
        "velocity": 73,
        "trackId": 10,
        "channel": 9
      },
      {
        "startTick": 60708,
        "endTick": 60788,
        "pitch": 72,
        "velocity": 36,
        "trackId": 6,
        "channel": 5
      },
      {
        "startTick": 60768,
        "endTick": 60864,
        "pitch": 73,
        "velocity": 40,
        "trackId": 6,
        "channel": 5
      },
      {
        "startTick": 60832,
        "endTick": 60928,
        "pitch": 75,
        "velocity": 40,
        "trackId": 6,
        "channel": 5
      },
      {
        "startTick": 60864,
        "endTick": 61396,
        "pitch": 45,
        "velocity": 64,
        "trackId": 10,
        "channel": 9
      },
      {
        "startTick": 60864,
        "endTick": 61452,
        "pitch": 60,
        "velocity": 43,
        "trackId": 13,
        "channel": 12
      },
      {
        "startTick": 60904,
        "endTick": 60984,
        "pitch": 77,
        "velocity": 36,
        "trackId": 6,
        "channel": 5
      },
      {
        "startTick": 60968,
        "endTick": 61044,
        "pitch": 78,
        "velocity": 36,
        "trackId": 6,
        "channel": 5
      },
      {
        "startTick": 61020,
        "endTick": 61096,
        "pitch": 80,
        "velocity": 52,
        "trackId": 6,
        "channel": 5
      },
      {
        "startTick": 61056,
        "endTick": 61380,
        "pitch": 43,
        "velocity": 82,
        "trackId": 10,
        "channel": 9
      },
      {
        "startTick": 61076,
        "endTick": 61140,
        "pitch": 82,
        "velocity": 56,
        "trackId": 6,
        "channel": 5
      },
      {
        "startTick": 61124,
        "endTick": 61188,
        "pitch": 84,
        "velocity": 56,
        "trackId": 6,
        "channel": 5
      },
      {
        "startTick": 61164,
        "endTick": 61228,
        "pitch": 85,
        "velocity": 46,
        "trackId": 6,
        "channel": 5
      },
      {
        "startTick": 61208,
        "endTick": 61264,
        "pitch": 87,
        "velocity": 52,
        "trackId": 6,
        "channel": 5
      },
      {
        "startTick": 61248,
        "endTick": 61296,
        "pitch": 89,
        "velocity": 55,
        "trackId": 6,
        "channel": 5
      },
      {
        "startTick": 61284,
        "endTick": 61332,
        "pitch": 90,
        "velocity": 58,
        "trackId": 6,
        "channel": 5
      },
      {
        "startTick": 61320,
        "endTick": 61372,
        "pitch": 51,
        "velocity": 29,
        "trackId": 10,
        "channel": 9
      },
      {
        "startTick": 61324,
        "endTick": 61372,
        "pitch": 92,
        "velocity": 58,
        "trackId": 6,
        "channel": 5
      },
      {
        "startTick": 61352,
        "endTick": 61404,
        "pitch": 94,
        "velocity": 61,
        "trackId": 6,
        "channel": 5
      },
      {
        "startTick": 61352,
        "endTick": 61424,
        "pitch": 59,
        "velocity": 45,
        "trackId": 10,
        "channel": 9
      },
      {
        "startTick": 61388,
        "endTick": 61464,
        "pitch": 51,
        "velocity": 44,
        "trackId": 10,
        "channel": 9
      },
      {
        "startTick": 61388,
        "endTick": 61524,
        "pitch": 96,
        "velocity": 66,
        "trackId": 6,
        "channel": 5
      },
      {
        "startTick": 61396,
        "endTick": 62020,
        "pitch": 77,
        "velocity": 56,
        "trackId": 3,
        "channel": 2
      },
      {
        "startTick": 61428,
        "endTick": 61732,
        "pitch": 97,
        "velocity": 81,
        "trackId": 6,
        "channel": 5
      },
      {
        "startTick": 61432,
        "endTick": 62696,
        "pitch": 73,
        "velocity": 88,
        "trackId": 1,
        "channel": 0
      },
      {
        "startTick": 61440,
        "endTick": 61488,
        "pitch": 49,
        "velocity": 50,
        "trackId": 10,
        "channel": 9
      },
      {
        "startTick": 61440,
        "endTick": 61488,
        "pitch": 59,
        "velocity": 64,
        "trackId": 10,
        "channel": 9
      },
      {
        "startTick": 61440,
        "endTick": 61536,
        "pitch": 35,
        "velocity": 82,
        "trackId": 10,
        "channel": 9
      },
      {
        "startTick": 61440,
        "endTick": 61552,
        "pitch": 70,
        "velocity": 69,
        "trackId": 10,
        "channel": 9
      },
      {
        "startTick": 61440,
        "endTick": 61736,
        "pitch": 65,
        "velocity": 73,
        "trackId": 4,
        "channel": 3
      },
      {
        "startTick": 61440,
        "endTick": 61932,
        "pitch": 56,
        "velocity": 83,
        "trackId": 1,
        "channel": 0
      },
      {
        "startTick": 61440,
        "endTick": 62700,
        "pitch": 37,
        "velocity": 82,
        "trackId": 2,
        "channel": 1
      },
      {
        "startTick": 61440,
        "endTick": 62876,
        "pitch": 49,
        "velocity": 92,
        "trackId": 1,
        "channel": 0
      },
      {
        "startTick": 61448,
        "endTick": 61984,
        "pitch": 65,
        "velocity": 92,
        "trackId": 1,
        "channel": 0
      },
      {
        "startTick": 61628,
        "endTick": 61672,
        "pitch": 42,
        "velocity": 30,
        "trackId": 10,
        "channel": 9
      },
      {
        "startTick": 61816,
        "endTick": 61988,
        "pitch": 63,
        "velocity": 64,
        "trackId": 4,
        "channel": 3
      },
      {
        "startTick": 61824,
        "endTick": 61944,
        "pitch": 42,
        "velocity": 69,
        "trackId": 10,
        "channel": 9
      },
      {
        "startTick": 62000,
        "endTick": 62388,
        "pitch": 78,
        "velocity": 60,
        "trackId": 3,
        "channel": 2
      },
      {
        "startTick": 62004,
        "endTick": 62360,
        "pitch": 66,
        "velocity": 83,
        "trackId": 1,
        "channel": 0
      },
      {
        "startTick": 62008,
        "endTick": 62544,
        "pitch": 58,
        "velocity": 92,
        "trackId": 1,
        "channel": 0
      },
      {
        "startTick": 62012,
        "endTick": 62064,
        "pitch": 42,
        "velocity": 31,
        "trackId": 10,
        "channel": 9
      },
      {
        "startTick": 62016,
        "endTick": 62376,
        "pitch": 66,
        "velocity": 64,
        "trackId": 4,
        "channel": 3
      },
      {
        "startTick": 62208,
        "endTick": 62320,
        "pitch": 42,
        "velocity": 75,
        "trackId": 10,
        "channel": 9
      },
      {
        "startTick": 62208,
        "endTick": 62388,
        "pitch": 37,
        "velocity": 82,
        "trackId": 10,
        "channel": 9
      },
      {
        "startTick": 62364,
        "endTick": 62596,
        "pitch": 77,
        "velocity": 56,
        "trackId": 3,
        "channel": 2
      },
      {
        "startTick": 62388,
        "endTick": 64124,
        "pitch": 65,
        "velocity": 79,
        "trackId": 1,
        "channel": 0
      },
      {
        "startTick": 62396,
        "endTick": 62452,
        "pitch": 42,
        "velocity": 31,
        "trackId": 10,
        "channel": 9
      },
      {
        "startTick": 62396,
        "endTick": 62560,
        "pitch": 65,
        "velocity": 56,
        "trackId": 4,
        "channel": 3
      },
      {
        "startTick": 62572,
        "endTick": 62964,
        "pitch": 73,
        "velocity": 56,
        "trackId": 3,
        "channel": 2
      },
      {
        "startTick": 62576,
        "endTick": 62792,
        "pitch": 61,
        "velocity": 79,
        "trackId": 1,
        "channel": 0
      },
      {
        "startTick": 62584,
        "endTick": 62752,
        "pitch": 61,
        "velocity": 56,
        "trackId": 4,
        "channel": 3
      },
      {
        "startTick": 62592,
        "endTick": 62732,
        "pitch": 42,
        "velocity": 72,
        "trackId": 10,
        "channel": 9
      },
      {
        "startTick": 62764,
        "endTick": 64464,
        "pitch": 56,
        "velocity": 85,
        "trackId": 1,
        "channel": 0
      },
      {
        "startTick": 62780,
        "endTick": 64140,
        "pitch": 56,
        "velocity": 73,
        "trackId": 4,
        "channel": 3
      },
      {
        "startTick": 62784,
        "endTick": 62836,
        "pitch": 42,
        "velocity": 48,
        "trackId": 10,
        "channel": 9
      },
      {
        "startTick": 62784,
        "endTick": 62880,
        "pitch": 35,
        "velocity": 64,
        "trackId": 10,
        "channel": 9
      },
      {
        "startTick": 62784,
        "endTick": 62932,
        "pitch": 37,
        "velocity": 64,
        "trackId": 2,
        "channel": 1
      },
      {
        "startTick": 62944,
        "endTick": 64516,
        "pitch": 68,
        "velocity": 44,
        "trackId": 3,
        "channel": 2
      },
      {
        "startTick": 62968,
        "endTick": 64472,
        "pitch": 49,
        "velocity": 87,
        "trackId": 1,
        "channel": 0
      },
      {
        "startTick": 62976,
        "endTick": 63072,
        "pitch": 35,
        "velocity": 82,
        "trackId": 10,
        "channel": 9
      },
      {
        "startTick": 62976,
        "endTick": 63084,
        "pitch": 42,
        "velocity": 72,
        "trackId": 10,
        "channel": 9
      },
      {
        "startTick": 62976,
        "endTick": 64436,
        "pitch": 37,
        "velocity": 82,
        "trackId": 2,
        "channel": 1
      },
      {
        "startTick": 63164,
        "endTick": 63208,
        "pitch": 42,
        "velocity": 23,
        "trackId": 10,
        "channel": 9
      },
      {
        "startTick": 63360,
        "endTick": 63480,
        "pitch": 42,
        "velocity": 69,
        "trackId": 10,
        "channel": 9
      },
      {
        "startTick": 63548,
        "endTick": 63600,
        "pitch": 42,
        "velocity": 31,
        "trackId": 10,
        "channel": 9
      },
      {
        "startTick": 63556,
        "endTick": 63820,
        "pitch": 68,
        "velocity": 62,
        "trackId": 1,
        "channel": 0
      },
      {
        "startTick": 63560,
        "endTick": 63784,
        "pitch": 68,
        "velocity": 29,
        "trackId": 8,
        "channel": 7
      },
      {
        "startTick": 63740,
        "endTick": 63956,
        "pitch": 77,
        "velocity": 56,
        "trackId": 8,
        "channel": 7
      },
      {
        "startTick": 63740,
        "endTick": 64100,
        "pitch": 77,
        "velocity": 92,
        "trackId": 1,
        "channel": 0
      },
      {
        "startTick": 63744,
        "endTick": 63840,
        "pitch": 54,
        "velocity": 91,
        "trackId": 10,
        "channel": 9
      },
      {
        "startTick": 63744,
        "endTick": 63856,
        "pitch": 42,
        "velocity": 75,
        "trackId": 10,
        "channel": 9
      },
      {
        "startTick": 63932,
        "endTick": 63988,
        "pitch": 42,
        "velocity": 23,
        "trackId": 10,
        "channel": 9
      },
      {
        "startTick": 63940,
        "endTick": 64156,
        "pitch": 66,
        "velocity": 40,
        "trackId": 8,
        "channel": 7
      },
      {
        "startTick": 63940,
        "endTick": 64196,
        "pitch": 66,
        "velocity": 66,
        "trackId": 1,
        "channel": 0
      },
      {
        "startTick": 64120,
        "endTick": 64328,
        "pitch": 75,
        "velocity": 60,
        "trackId": 8,
        "channel": 7
      },
      {
        "startTick": 64128,
        "endTick": 64268,
        "pitch": 42,
        "velocity": 72,
        "trackId": 10,
        "channel": 9
      },
      {
        "startTick": 64132,
        "endTick": 64540,
        "pitch": 75,
        "velocity": 92,
        "trackId": 1,
        "channel": 0
      },
      {
        "startTick": 64312,
        "endTick": 64524,
        "pitch": 65,
        "velocity": 48,
        "trackId": 8,
        "channel": 7
      },
      {
        "startTick": 64316,
        "endTick": 64372,
        "pitch": 42,
        "velocity": 34,
        "trackId": 10,
        "channel": 9
      },
      {
        "startTick": 64320,
        "endTick": 64504,
        "pitch": 65,
        "velocity": 66,
        "trackId": 1,
        "channel": 0
      },
      {
        "startTick": 64484,
        "endTick": 65096,
        "pitch": 77,
        "velocity": 52,
        "trackId": 3,
        "channel": 2
      },
      {
        "startTick": 64508,
        "endTick": 65096,
        "pitch": 68,
        "velocity": 62,
        "trackId": 1,
        "channel": 0
      },
      {
        "startTick": 64512,
        "endTick": 64608,
        "pitch": 35,
        "velocity": 82,
        "trackId": 10,
        "channel": 9
      },
      {
        "startTick": 64512,
        "endTick": 64620,
        "pitch": 42,
        "velocity": 72,
        "trackId": 10,
        "channel": 9
      },
      {
        "startTick": 64512,
        "endTick": 64624,
        "pitch": 70,
        "velocity": 69,
        "trackId": 10,
        "channel": 9
      },
      {
        "startTick": 64512,
        "endTick": 64844,
        "pitch": 65,
        "velocity": 64,
        "trackId": 4,
        "channel": 3
      },
      {
        "startTick": 64512,
        "endTick": 65004,
        "pitch": 56,
        "velocity": 83,
        "trackId": 1,
        "channel": 0
      },
      {
        "startTick": 64512,
        "endTick": 65048,
        "pitch": 65,
        "velocity": 92,
        "trackId": 1,
        "channel": 0
      },
      {
        "startTick": 64512,
        "endTick": 65288,
        "pitch": 73,
        "velocity": 48,
        "trackId": 8,
        "channel": 7
      },
      {
        "startTick": 64512,
        "endTick": 65824,
        "pitch": 37,
        "velocity": 82,
        "trackId": 2,
        "channel": 1
      },
      {
        "startTick": 64512,
        "endTick": 65828,
        "pitch": 49,
        "velocity": 92,
        "trackId": 1,
        "channel": 0
      },
      {
        "startTick": 64700,
        "endTick": 64744,
        "pitch": 42,
        "velocity": 26,
        "trackId": 10,
        "channel": 9
      },
      {
        "startTick": 64888,
        "endTick": 65056,
        "pitch": 63,
        "velocity": 73,
        "trackId": 4,
        "channel": 3
      },
      {
        "startTick": 64896,
        "endTick": 65016,
        "pitch": 42,
        "velocity": 69,
        "trackId": 10,
        "channel": 9
      },
      {
        "startTick": 65068,
        "endTick": 65484,
        "pitch": 78,
        "velocity": 52,
        "trackId": 3,
        "channel": 2
      },
      {
        "startTick": 65084,
        "endTick": 65136,
        "pitch": 42,
        "velocity": 31,
        "trackId": 10,
        "channel": 9
      },
      {
        "startTick": 65084,
        "endTick": 65416,
        "pitch": 66,
        "velocity": 64,
        "trackId": 4,
        "channel": 3
      },
      {
        "startTick": 65084,
        "endTick": 65460,
        "pitch": 66,
        "velocity": 83,
        "trackId": 1,
        "channel": 0
      },
      {
        "startTick": 65084,
        "endTick": 65468,
        "pitch": 58,
        "velocity": 92,
        "trackId": 1,
        "channel": 0
      },
      {
        "startTick": 65084,
        "endTick": 65468,
        "pitch": 61,
        "velocity": 63,
        "trackId": 1,
        "channel": 0
      },
      {
        "startTick": 65280,
        "endTick": 65392,
        "pitch": 42,
        "velocity": 75,
        "trackId": 10,
        "channel": 9
      },
      {
        "startTick": 65280,
        "endTick": 65460,
        "pitch": 37,
        "velocity": 82,
        "trackId": 10,
        "channel": 9
      },
      {
        "startTick": 65432,
        "endTick": 65676,
        "pitch": 77,
        "velocity": 64,
        "trackId": 3,
        "channel": 2
      },
      {
        "startTick": 65460,
        "endTick": 65636,
        "pitch": 65,
        "velocity": 73,
        "trackId": 4,
        "channel": 3
      },
      {
        "startTick": 65468,
        "endTick": 65524,
        "pitch": 42,
        "velocity": 23,
        "trackId": 10,
        "channel": 9
      },
      {
        "startTick": 65468,
        "endTick": 65992,
        "pitch": 65,
        "velocity": 82,
        "trackId": 1,
        "channel": 0
      },
      {
        "startTick": 65644,
        "endTick": 66796,
        "pitch": 73,
        "velocity": 60,
        "trackId": 3,
        "channel": 2
      },
      {
        "startTick": 65660,
        "endTick": 66024,
        "pitch": 61,
        "velocity": 64,
        "trackId": 4,
        "channel": 3
      },
      {
        "startTick": 65660,
        "endTick": 66048,
        "pitch": 61,
        "velocity": 82,
        "trackId": 1,
        "channel": 0
      },
      {
        "startTick": 65664,
        "endTick": 65804,
        "pitch": 42,
        "velocity": 72,
        "trackId": 10,
        "channel": 9
      },
      {
        "startTick": 65844,
        "endTick": 66036,
        "pitch": 49,
        "velocity": 74,
        "trackId": 1,
        "channel": 0
      },
      {
        "startTick": 65844,
        "endTick": 66052,
        "pitch": 56,
        "velocity": 68,
        "trackId": 1,
        "channel": 0
      },
      {
        "startTick": 65856,
        "endTick": 65908,
        "pitch": 42,
        "velocity": 48,
        "trackId": 10,
        "channel": 9
      },
      {
        "startTick": 65856,
        "endTick": 65952,
        "pitch": 35,
        "velocity": 64,
        "trackId": 10,
        "channel": 9
      },
      {
        "startTick": 65856,
        "endTick": 66044,
        "pitch": 37,
        "velocity": 64,
        "trackId": 2,
        "channel": 1
      },
      {
        "startTick": 66040,
        "endTick": 66648,
        "pitch": 65,
        "velocity": 83,
        "trackId": 1,
        "channel": 0
      },
      {
        "startTick": 66040,
        "endTick": 66796,
        "pitch": 58,
        "velocity": 70,
        "trackId": 1,
        "channel": 0
      },
      {
        "startTick": 66040,
        "endTick": 66812,
        "pitch": 46,
        "velocity": 92,
        "trackId": 1,
        "channel": 0
      },
      {
        "startTick": 66048,
        "endTick": 66144,
        "pitch": 35,
        "velocity": 82,
        "trackId": 10,
        "channel": 9
      },
      {
        "startTick": 66048,
        "endTick": 66156,
        "pitch": 42,
        "velocity": 72,
        "trackId": 10,
        "channel": 9
      },
      {
        "startTick": 66048,
        "endTick": 66796,
        "pitch": 34,
        "velocity": 82,
        "trackId": 2,
        "channel": 1
      },
      {
        "startTick": 66048,
        "endTick": 66800,
        "pitch": 65,
        "velocity": 75,
        "trackId": 4,
        "channel": 3
      },
      {
        "startTick": 66236,
        "endTick": 66280,
        "pitch": 42,
        "velocity": 23,
        "trackId": 10,
        "channel": 9
      },
      {
        "startTick": 66240,
        "endTick": 66776,
        "pitch": 54,
        "velocity": 79,
        "trackId": 1,
        "channel": 0
      },
      {
        "startTick": 66428,
        "endTick": 66836,
        "pitch": 61,
        "velocity": 70,
        "trackId": 1,
        "channel": 0
      },
      {
        "startTick": 66432,
        "endTick": 66552,
        "pitch": 42,
        "velocity": 69,
        "trackId": 10,
        "channel": 9
      },
      {
        "startTick": 66616,
        "endTick": 66784,
        "pitch": 63,
        "velocity": 83,
        "trackId": 1,
        "channel": 0
      },
      {
        "startTick": 66620,
        "endTick": 66672,
        "pitch": 42,
        "velocity": 34,
        "trackId": 10,
        "channel": 9
      },
      {
        "startTick": 66760,
        "endTick": 67536,
        "pitch": 75,
        "velocity": 56,
        "trackId": 3,
        "channel": 2
      },
      {
        "startTick": 66808,
        "endTick": 67540,
        "pitch": 63,
        "velocity": 88,
        "trackId": 1,
        "channel": 0
      },
      {
        "startTick": 66808,
        "endTick": 67564,
        "pitch": 60,
        "velocity": 66,
        "trackId": 1,
        "channel": 0
      },
      {
        "startTick": 66812,
        "endTick": 67568,
        "pitch": 48,
        "velocity": 92,
        "trackId": 1,
        "channel": 0
      },
      {
        "startTick": 66816,
        "endTick": 66912,
        "pitch": 54,
        "velocity": 91,
        "trackId": 10,
        "channel": 9
      },
      {
        "startTick": 66816,
        "endTick": 66928,
        "pitch": 42,
        "velocity": 75,
        "trackId": 10,
        "channel": 9
      },
      {
        "startTick": 66816,
        "endTick": 67164,
        "pitch": 36,
        "velocity": 82,
        "trackId": 2,
        "channel": 1
      },
      {
        "startTick": 66816,
        "endTick": 67420,
        "pitch": 63,
        "velocity": 73,
        "trackId": 4,
        "channel": 3
      },
      {
        "startTick": 67004,
        "endTick": 67060,
        "pitch": 42,
        "velocity": 23,
        "trackId": 10,
        "channel": 9
      },
      {
        "startTick": 67004,
        "endTick": 67200,
        "pitch": 56,
        "velocity": 74,
        "trackId": 1,
        "channel": 0
      },
      {
        "startTick": 67200,
        "endTick": 67340,
        "pitch": 42,
        "velocity": 72,
        "trackId": 10,
        "channel": 9
      },
      {
        "startTick": 67200,
        "endTick": 67556,
        "pitch": 32,
        "velocity": 82,
        "trackId": 2,
        "channel": 1
      },
      {
        "startTick": 67204,
        "endTick": 67624,
        "pitch": 68,
        "velocity": 83,
        "trackId": 1,
        "channel": 0
      },
      {
        "startTick": 67388,
        "endTick": 67444,
        "pitch": 42,
        "velocity": 31,
        "trackId": 10,
        "channel": 9
      },
      {
        "startTick": 67388,
        "endTick": 67612,
        "pitch": 56,
        "velocity": 74,
        "trackId": 1,
        "channel": 0
      },
      {
        "startTick": 67556,
        "endTick": 68328,
        "pitch": 87,
        "velocity": 48,
        "trackId": 3,
        "channel": 2
      },
      {
        "startTick": 67576,
        "endTick": 68340,
        "pitch": 75,
        "velocity": 52,
        "trackId": 3,
        "channel": 2
      },
      {
        "startTick": 67580,
        "endTick": 67936,
        "pitch": 63,
        "velocity": 72,
        "trackId": 4,
        "channel": 3
      },
      {
        "startTick": 67584,
        "endTick": 67680,
        "pitch": 35,
        "velocity": 82,
        "trackId": 10,
        "channel": 9
      },
      {
        "startTick": 67584,
        "endTick": 67696,
        "pitch": 70,
        "velocity": 69,
        "trackId": 10,
        "channel": 9
      },
      {
        "startTick": 67584,
        "endTick": 67724,
        "pitch": 42,
        "velocity": 72,
        "trackId": 10,
        "channel": 9
      },
      {
        "startTick": 67584,
        "endTick": 68128,
        "pitch": 30,
        "velocity": 82,
        "trackId": 2,
        "channel": 1
      },
      {
        "startTick": 67584,
        "endTick": 68156,
        "pitch": 63,
        "velocity": 88,
        "trackId": 1,
        "channel": 0
      },
      {
        "startTick": 67588,
        "endTick": 68076,
        "pitch": 58,
        "velocity": 70,
        "trackId": 1,
        "channel": 0
      },
      {
        "startTick": 67588,
        "endTick": 68300,
        "pitch": 42,
        "velocity": 92,
        "trackId": 1,
        "channel": 0
      },
      {
        "startTick": 67772,
        "endTick": 67816,
        "pitch": 42,
        "velocity": 30,
        "trackId": 10,
        "channel": 9
      },
      {
        "startTick": 67964,
        "endTick": 68128,
        "pitch": 62,
        "velocity": 60,
        "trackId": 4,
        "channel": 3
      },
      {
        "startTick": 67968,
        "endTick": 68088,
        "pitch": 42,
        "velocity": 69,
        "trackId": 10,
        "channel": 9
      },
      {
        "startTick": 68144,
        "endTick": 69064,
        "pitch": 65,
        "velocity": 91,
        "trackId": 1,
        "channel": 0
      },
      {
        "startTick": 68156,
        "endTick": 68208,
        "pitch": 42,
        "velocity": 31,
        "trackId": 10,
        "channel": 9
      },
      {
        "startTick": 68160,
        "endTick": 68540,
        "pitch": 65,
        "velocity": 75,
        "trackId": 4,
        "channel": 3
      },
      {
        "startTick": 68160,
        "endTick": 68860,
        "pitch": 29,
        "velocity": 82,
        "trackId": 2,
        "channel": 1
      },
      {
        "startTick": 68312,
        "endTick": 69108,
        "pitch": 89,
        "velocity": 56,
        "trackId": 3,
        "channel": 2
      },
      {
        "startTick": 68316,
        "endTick": 69088,
        "pitch": 77,
        "velocity": 52,
        "trackId": 3,
        "channel": 2
      },
      {
        "startTick": 68336,
        "endTick": 68500,
        "pitch": 58,
        "velocity": 84,
        "trackId": 1,
        "channel": 0
      },
      {
        "startTick": 68352,
        "endTick": 68464,
        "pitch": 42,
        "velocity": 75,
        "trackId": 10,
        "channel": 9
      },
      {
        "startTick": 68352,
        "endTick": 68532,
        "pitch": 37,
        "velocity": 82,
        "trackId": 10,
        "channel": 9
      },
      {
        "startTick": 68352,
        "endTick": 69108,
        "pitch": 41,
        "velocity": 92,
        "trackId": 1,
        "channel": 0
      },
      {
        "startTick": 68508,
        "endTick": 68860,
        "pitch": 57,
        "velocity": 62,
        "trackId": 1,
        "channel": 0
      },
      {
        "startTick": 68540,
        "endTick": 68596,
        "pitch": 42,
        "velocity": 31,
        "trackId": 10,
        "channel": 9
      },
      {
        "startTick": 68544,
        "endTick": 68716,
        "pitch": 63,
        "velocity": 64,
        "trackId": 4,
        "channel": 3
      },
      {
        "startTick": 68728,
        "endTick": 68920,
        "pitch": 60,
        "velocity": 55,
        "trackId": 4,
        "channel": 3
      },
      {
        "startTick": 68736,
        "endTick": 68876,
        "pitch": 42,
        "velocity": 72,
        "trackId": 10,
        "channel": 9
      },
      {
        "startTick": 68904,
        "endTick": 69088,
        "pitch": 57,
        "velocity": 46,
        "trackId": 1,
        "channel": 0
      },
      {
        "startTick": 68920,
        "endTick": 69304,
        "pitch": 63,
        "velocity": 66,
        "trackId": 4,
        "channel": 3
      },
      {
        "startTick": 68928,
        "endTick": 68980,
        "pitch": 42,
        "velocity": 48,
        "trackId": 10,
        "channel": 9
      },
      {
        "startTick": 68928,
        "endTick": 69024,
        "pitch": 35,
        "velocity": 64,
        "trackId": 10,
        "channel": 9
      },
      {
        "startTick": 68928,
        "endTick": 69100,
        "pitch": 60,
        "velocity": 58,
        "trackId": 1,
        "channel": 0
      },
      {
        "startTick": 68928,
        "endTick": 69104,
        "pitch": 29,
        "velocity": 64,
        "trackId": 2,
        "channel": 1
      },
      {
        "startTick": 69088,
        "endTick": 69896,
        "pitch": 85,
        "velocity": 58,
        "trackId": 3,
        "channel": 2
      },
      {
        "startTick": 69116,
        "endTick": 69792,
        "pitch": 65,
        "velocity": 82,
        "trackId": 1,
        "channel": 0
      },
      {
        "startTick": 69120,
        "endTick": 69216,
        "pitch": 35,
        "velocity": 82,
        "trackId": 10,
        "channel": 9
      },
      {
        "startTick": 69120,
        "endTick": 69228,
        "pitch": 42,
        "velocity": 72,
        "trackId": 10,
        "channel": 9
      },
      {
        "startTick": 69120,
        "endTick": 69288,
        "pitch": 63,
        "velocity": 74,
        "trackId": 1,
        "channel": 0
      },
      {
        "startTick": 69120,
        "endTick": 69840,
        "pitch": 34,
        "velocity": 73,
        "trackId": 2,
        "channel": 1
      },
      {
        "startTick": 69120,
        "endTick": 72196,
        "pitch": 73,
        "velocity": 48,
        "trackId": 3,
        "channel": 2
      },
      {
        "startTick": 69124,
        "endTick": 69800,
        "pitch": 58,
        "velocity": 74,
        "trackId": 1,
        "channel": 0
      },
      {
        "startTick": 69124,
        "endTick": 69836,
        "pitch": 46,
        "velocity": 92,
        "trackId": 1,
        "channel": 0
      },
      {
        "startTick": 69284,
        "endTick": 69840,
        "pitch": 61,
        "velocity": 58,
        "trackId": 1,
        "channel": 0
      },
      {
        "startTick": 69304,
        "endTick": 69908,
        "pitch": 61,
        "velocity": 56,
        "trackId": 4,
        "channel": 3
      },
      {
        "startTick": 69308,
        "endTick": 69352,
        "pitch": 42,
        "velocity": 23,
        "trackId": 10,
        "channel": 9
      },
      {
        "startTick": 69504,
        "endTick": 69624,
        "pitch": 42,
        "velocity": 69,
        "trackId": 10,
        "channel": 9
      },
      {
        "startTick": 69692,
        "endTick": 69744,
        "pitch": 42,
        "velocity": 31,
        "trackId": 10,
        "channel": 9
      },
      {
        "startTick": 69872,
        "endTick": 70628,
        "pitch": 61,
        "velocity": 70,
        "trackId": 1,
        "channel": 0
      },
      {
        "startTick": 69872,
        "endTick": 70632,
        "pitch": 65,
        "velocity": 74,
        "trackId": 1,
        "channel": 0
      },
      {
        "startTick": 69876,
        "endTick": 70636,
        "pitch": 58,
        "velocity": 83,
        "trackId": 1,
        "channel": 0
      },
      {
        "startTick": 69876,
        "endTick": 70652,
        "pitch": 44,
        "velocity": 91,
        "trackId": 1,
        "channel": 0
      },
      {
        "startTick": 69884,
        "endTick": 70624,
        "pitch": 84,
        "velocity": 55,
        "trackId": 3,
        "channel": 2
      },
      {
        "startTick": 69888,
        "endTick": 69984,
        "pitch": 54,
        "velocity": 91,
        "trackId": 10,
        "channel": 9
      },
      {
        "startTick": 69888,
        "endTick": 70000,
        "pitch": 42,
        "velocity": 75,
        "trackId": 10,
        "channel": 9
      },
      {
        "startTick": 69888,
        "endTick": 70608,
        "pitch": 32,
        "velocity": 82,
        "trackId": 2,
        "channel": 1
      },
      {
        "startTick": 70076,
        "endTick": 70132,
        "pitch": 42,
        "velocity": 23,
        "trackId": 10,
        "channel": 9
      },
      {
        "startTick": 70256,
        "endTick": 70620,
        "pitch": 70,
        "velocity": 82,
        "trackId": 1,
        "channel": 0
      },
      {
        "startTick": 70272,
        "endTick": 70412,
        "pitch": 42,
        "velocity": 72,
        "trackId": 10,
        "channel": 9
      },
      {
        "startTick": 70272,
        "endTick": 70448,
        "pitch": 60,
        "velocity": 69,
        "trackId": 4,
        "channel": 3
      },
      {
        "startTick": 70460,
        "endTick": 70516,
        "pitch": 42,
        "velocity": 34,
        "trackId": 10,
        "channel": 9
      },
      {
        "startTick": 70464,
        "endTick": 70624,
        "pitch": 61,
        "velocity": 56,
        "trackId": 4,
        "channel": 3
      },
      {
        "startTick": 70600,
        "endTick": 72208,
        "pitch": 82,
        "velocity": 60,
        "trackId": 3,
        "channel": 2
      },
      {
        "startTick": 70648,
        "endTick": 71372,
        "pitch": 58,
        "velocity": 87,
        "trackId": 1,
        "channel": 0
      },
      {
        "startTick": 70652,
        "endTick": 71388,
        "pitch": 61,
        "velocity": 86,
        "trackId": 1,
        "channel": 0
      },
      {
        "startTick": 70656,
        "endTick": 70752,
        "pitch": 35,
        "velocity": 82,
        "trackId": 10,
        "channel": 9
      },
      {
        "startTick": 70656,
        "endTick": 70764,
        "pitch": 42,
        "velocity": 72,
        "trackId": 10,
        "channel": 9
      },
      {
        "startTick": 70656,
        "endTick": 70768,
        "pitch": 70,
        "velocity": 69,
        "trackId": 10,
        "channel": 9
      },
      {
        "startTick": 70656,
        "endTick": 70980,
        "pitch": 58,
        "velocity": 73,
        "trackId": 4,
        "channel": 3
      },
      {
        "startTick": 70656,
        "endTick": 71364,
        "pitch": 66,
        "velocity": 76,
        "trackId": 1,
        "channel": 0
      },
      {
        "startTick": 70656,
        "endTick": 71368,
        "pitch": 30,
        "velocity": 82,
        "trackId": 2,
        "channel": 1
      },
      {
        "startTick": 70660,
        "endTick": 71388,
        "pitch": 42,
        "velocity": 85,
        "trackId": 1,
        "channel": 0
      },
      {
        "startTick": 70844,
        "endTick": 70888,
        "pitch": 42,
        "velocity": 26,
        "trackId": 10,
        "channel": 9
      },
      {
        "startTick": 71028,
        "endTick": 71208,
        "pitch": 61,
        "velocity": 56,
        "trackId": 4,
        "channel": 3
      },
      {
        "startTick": 71040,
        "endTick": 71160,
        "pitch": 42,
        "velocity": 69,
        "trackId": 10,
        "channel": 9
      },
      {
        "startTick": 71228,
        "endTick": 71280,
        "pitch": 42,
        "velocity": 31,
        "trackId": 10,
        "channel": 9
      },
      {
        "startTick": 71228,
        "endTick": 71772,
        "pitch": 63,
        "velocity": 64,
        "trackId": 4,
        "channel": 3
      },
      {
        "startTick": 71416,
        "endTick": 71596,
        "pitch": 46,
        "velocity": 74,
        "trackId": 1,
        "channel": 0
      },
      {
        "startTick": 71420,
        "endTick": 71960,
        "pitch": 58,
        "velocity": 74,
        "trackId": 1,
        "channel": 0
      },
      {
        "startTick": 71424,
        "endTick": 71536,
        "pitch": 42,
        "velocity": 75,
        "trackId": 10,
        "channel": 9
      },
      {
        "startTick": 71424,
        "endTick": 71584,
        "pitch": 34,
        "velocity": 82,
        "trackId": 2,
        "channel": 1
      },
      {
        "startTick": 71424,
        "endTick": 71604,
        "pitch": 37,
        "velocity": 82,
        "trackId": 10,
        "channel": 9
      },
      {
        "startTick": 71424,
        "endTick": 71960,
        "pitch": 61,
        "velocity": 83,
        "trackId": 1,
        "channel": 0
      },
      {
        "startTick": 71424,
        "endTick": 71980,
        "pitch": 66,
        "velocity": 70,
        "trackId": 1,
        "channel": 0
      },
      {
        "startTick": 71604,
        "endTick": 72152,
        "pitch": 42,
        "velocity": 83,
        "trackId": 1,
        "channel": 0
      },
      {
        "startTick": 71612,
        "endTick": 71668,
        "pitch": 42,
        "velocity": 23,
        "trackId": 10,
        "channel": 9
      },
      {
        "startTick": 71616,
        "endTick": 72008,
        "pitch": 30,
        "velocity": 82,
        "trackId": 2,
        "channel": 1
      },
      {
        "startTick": 71808,
        "endTick": 71948,
        "pitch": 42,
        "velocity": 72,
        "trackId": 10,
        "channel": 9
      },
      {
        "startTick": 71808,
        "endTick": 71972,
        "pitch": 65,
        "velocity": 56,
        "trackId": 4,
        "channel": 3
      },
      {
        "startTick": 71996,
        "endTick": 72576,
        "pitch": 65,
        "velocity": 101,
        "trackId": 1,
        "channel": 0
      },
      {
        "startTick": 71996,
        "endTick": 72936,
        "pitch": 61,
        "velocity": 92,
        "trackId": 1,
        "channel": 0
      },
      {
        "startTick": 72000,
        "endTick": 72052,
        "pitch": 42,
        "velocity": 48,
        "trackId": 10,
        "channel": 9
      },
      {
        "startTick": 72000,
        "endTick": 72084,
        "pitch": 37,
        "velocity": 64,
        "trackId": 2,
        "channel": 1
      },
      {
        "startTick": 72000,
        "endTick": 72096,
        "pitch": 35,
        "velocity": 64,
        "trackId": 10,
        "channel": 9
      },
      {
        "startTick": 72000,
        "endTick": 72588,
        "pitch": 65,
        "velocity": 73,
        "trackId": 4,
        "channel": 3
      },
      {
        "startTick": 72004,
        "endTick": 72324,
        "pitch": 56,
        "velocity": 83,
        "trackId": 1,
        "channel": 0
      },
      {
        "startTick": 72096,
        "endTick": 72196,
        "pitch": 39,
        "velocity": 64,
        "trackId": 2,
        "channel": 1
      },
      {
        "startTick": 72172,
        "endTick": 73724,
        "pitch": 77,
        "velocity": 42,
        "trackId": 3,
        "channel": 2
      },
      {
        "startTick": 72188,
        "endTick": 73668,
        "pitch": 80,
        "velocity": 56,
        "trackId": 3,
        "channel": 2
      },
      {
        "startTick": 72192,
        "endTick": 72288,
        "pitch": 35,
        "velocity": 82,
        "trackId": 10,
        "channel": 9
      },
      {
        "startTick": 72192,
        "endTick": 72300,
        "pitch": 42,
        "velocity": 72,
        "trackId": 10,
        "channel": 9
      },
      {
        "startTick": 72192,
        "endTick": 73596,
        "pitch": 49,
        "velocity": 92,
        "trackId": 1,
        "channel": 0
      },
      {
        "startTick": 72192,
        "endTick": 73660,
        "pitch": 37,
        "velocity": 82,
        "trackId": 2,
        "channel": 1
      },
      {
        "startTick": 72376,
        "endTick": 72968,
        "pitch": 56,
        "velocity": 70,
        "trackId": 1,
        "channel": 0
      },
      {
        "startTick": 72380,
        "endTick": 72424,
        "pitch": 42,
        "velocity": 23,
        "trackId": 10,
        "channel": 9
      },
      {
        "startTick": 72568,
        "endTick": 72936,
        "pitch": 63,
        "velocity": 83,
        "trackId": 1,
        "channel": 0
      },
      {
        "startTick": 72576,
        "endTick": 72696,
        "pitch": 42,
        "velocity": 69,
        "trackId": 10,
        "channel": 9
      },
      {
        "startTick": 72764,
        "endTick": 72944,
        "pitch": 65,
        "velocity": 74,
        "trackId": 1,
        "channel": 0
      },
      {
        "startTick": 72768,
        "endTick": 72820,
        "pitch": 38,
        "velocity": 55,
        "trackId": 10,
        "channel": 9
      },
      {
        "startTick": 72768,
        "endTick": 72936,
        "pitch": 65,
        "velocity": 64,
        "trackId": 4,
        "channel": 3
      },
      {
        "startTick": 72952,
        "endTick": 73320,
        "pitch": 61,
        "velocity": 70,
        "trackId": 1,
        "channel": 0
      },
      {
        "startTick": 72960,
        "endTick": 73056,
        "pitch": 54,
        "velocity": 91,
        "trackId": 10,
        "channel": 9
      },
      {
        "startTick": 72960,
        "endTick": 73148,
        "pitch": 38,
        "velocity": 81,
        "trackId": 10,
        "channel": 9
      },
      {
        "startTick": 72960,
        "endTick": 73304,
        "pitch": 66,
        "velocity": 86,
        "trackId": 1,
        "channel": 0
      },
      {
        "startTick": 72960,
        "endTick": 73320,
        "pitch": 58,
        "velocity": 83,
        "trackId": 1,
        "channel": 0
      },
      {
        "startTick": 72964,
        "endTick": 73292,
        "pitch": 66,
        "velocity": 82,
        "trackId": 4,
        "channel": 3
      },
      {
        "startTick": 73088,
        "endTick": 73168,
        "pitch": 56,
        "velocity": 16,
        "trackId": 6,
        "channel": 5
      },
      {
        "startTick": 73140,
        "endTick": 73296,
        "pitch": 45,
        "velocity": 64,
        "trackId": 10,
        "channel": 9
      },
      {
        "startTick": 73148,
        "endTick": 73228,
        "pitch": 58,
        "velocity": 34,
        "trackId": 6,
        "channel": 5
      },
      {
        "startTick": 73208,
        "endTick": 73280,
        "pitch": 60,
        "velocity": 29,
        "trackId": 6,
        "channel": 5
      },
      {
        "startTick": 73264,
        "endTick": 73332,
        "pitch": 61,
        "velocity": 31,
        "trackId": 6,
        "channel": 5
      },
      {
        "startTick": 73316,
        "endTick": 73384,
        "pitch": 63,
        "velocity": 34,
        "trackId": 6,
        "channel": 5
      },
      {
        "startTick": 73336,
        "endTick": 73524,
        "pitch": 45,
        "velocity": 91,
        "trackId": 10,
        "channel": 9
      },
      {
        "startTick": 73340,
        "endTick": 73724,
        "pitch": 61,
        "velocity": 66,
        "trackId": 1,
        "channel": 0
      },
      {
        "startTick": 73344,
        "endTick": 73684,
        "pitch": 70,
        "velocity": 91,
        "trackId": 4,
        "channel": 3
      },
      {
        "startTick": 73344,
        "endTick": 73712,
        "pitch": 58,
        "velocity": 74,
        "trackId": 1,
        "channel": 0
      },
      {
        "startTick": 73344,
        "endTick": 73716,
        "pitch": 66,
        "velocity": 101,
        "trackId": 1,
        "channel": 0
      },
      {
        "startTick": 73364,
        "endTick": 73432,
        "pitch": 65,
        "velocity": 43,
        "trackId": 6,
        "channel": 5
      },
      {
        "startTick": 73420,
        "endTick": 73480,
        "pitch": 66,
        "velocity": 46,
        "trackId": 6,
        "channel": 5
      },
      {
        "startTick": 73464,
        "endTick": 73524,
        "pitch": 68,
        "velocity": 49,
        "trackId": 6,
        "channel": 5
      },
      {
        "startTick": 73508,
        "endTick": 73560,
        "pitch": 70,
        "velocity": 52,
        "trackId": 6,
        "channel": 5
      },
      {
        "startTick": 73536,
        "endTick": 73632,
        "pitch": 35,
        "velocity": 64,
        "trackId": 10,
        "channel": 9
      },
      {
        "startTick": 73536,
        "endTick": 73720,
        "pitch": 55,
        "velocity": 64,
        "trackId": 10,
        "channel": 9
      },
      {
        "startTick": 73548,
        "endTick": 73596,
        "pitch": 72,
        "velocity": 55,
        "trackId": 6,
        "channel": 5
      },
      {
        "startTick": 73576,
        "endTick": 73628,
        "pitch": 73,
        "velocity": 58,
        "trackId": 6,
        "channel": 5
      },
      {
        "startTick": 73612,
        "endTick": 73664,
        "pitch": 75,
        "velocity": 58,
        "trackId": 6,
        "channel": 5
      },
      {
        "startTick": 73648,
        "endTick": 73700,
        "pitch": 77,
        "velocity": 58,
        "trackId": 6,
        "channel": 5
      },
      {
        "startTick": 73684,
        "endTick": 73744,
        "pitch": 78,
        "velocity": 64,
        "trackId": 6,
        "channel": 5
      },
      {
        "startTick": 73684,
        "endTick": 82936,
        "pitch": 80,
        "velocity": 55,
        "trackId": 3,
        "channel": 2
      },
      {
        "startTick": 73684,
        "endTick": 82936,
        "pitch": 92,
        "velocity": 55,
        "trackId": 3,
        "channel": 2
      },
      {
        "startTick": 73728,
        "endTick": 73824,
        "pitch": 35,
        "velocity": 82,
        "trackId": 10,
        "channel": 9
      },
      {
        "startTick": 73728,
        "endTick": 73904,
        "pitch": 80,
        "velocity": 75,
        "trackId": 6,
        "channel": 5
      },
      {
        "startTick": 73728,
        "endTick": 74264,
        "pitch": 32,
        "velocity": 82,
        "trackId": 2,
        "channel": 1
      },
      {
        "startTick": 73728,
        "endTick": 74268,
        "pitch": 56,
        "velocity": 92,
        "trackId": 1,
        "channel": 0
      },
      {
        "startTick": 73728,
        "endTick": 74316,
        "pitch": 60,
        "velocity": 101,
        "trackId": 1,
        "channel": 0
      },
      {
        "startTick": 73728,
        "endTick": 74428,
        "pitch": 49,
        "velocity": 64,
        "trackId": 10,
        "channel": 9
      },
      {
        "startTick": 73728,
        "endTick": 75596,
        "pitch": 68,
        "velocity": 82,
        "trackId": 4,
        "channel": 3
      },
      {
        "startTick": 73732,
        "endTick": 74288,
        "pitch": 44,
        "velocity": 95,
        "trackId": 1,
        "channel": 0
      },
      {
        "startTick": 73916,
        "endTick": 73960,
        "pitch": 42,
        "velocity": 30,
        "trackId": 10,
        "channel": 9
      },
      {
        "startTick": 74112,
        "endTick": 74232,
        "pitch": 42,
        "velocity": 69,
        "trackId": 10,
        "channel": 9
      },
      {
        "startTick": 74292,
        "endTick": 74508,
        "pitch": 46,
        "velocity": 83,
        "trackId": 1,
        "channel": 0
      },
      {
        "startTick": 74300,
        "endTick": 74352,
        "pitch": 42,
        "velocity": 31,
        "trackId": 10,
        "channel": 9
      },
      {
        "startTick": 74304,
        "endTick": 74472,
        "pitch": 32,
        "velocity": 64,
        "trackId": 2,
        "channel": 1
      },
      {
        "startTick": 74304,
        "endTick": 74520,
        "pitch": 61,
        "velocity": 74,
        "trackId": 1,
        "channel": 0
      },
      {
        "startTick": 74308,
        "endTick": 74468,
        "pitch": 58,
        "velocity": 83,
        "trackId": 1,
        "channel": 0
      },
      {
        "startTick": 74488,
        "endTick": 75236,
        "pitch": 48,
        "velocity": 101,
        "trackId": 1,
        "channel": 0
      },
      {
        "startTick": 74492,
        "endTick": 74864,
        "pitch": 60,
        "velocity": 92,
        "trackId": 1,
        "channel": 0
      },
      {
        "startTick": 74496,
        "endTick": 74608,
        "pitch": 42,
        "velocity": 75,
        "trackId": 10,
        "channel": 9
      },
      {
        "startTick": 74496,
        "endTick": 74736,
        "pitch": 38,
        "velocity": 73,
        "trackId": 10,
        "channel": 9
      },
      {
        "startTick": 74496,
        "endTick": 74856,
        "pitch": 63,
        "velocity": 101,
        "trackId": 1,
        "channel": 0
      },
      {
        "startTick": 74496,
        "endTick": 75036,
        "pitch": 36,
        "velocity": 82,
        "trackId": 2,
        "channel": 1
      },
      {
        "startTick": 74684,
        "endTick": 74740,
        "pitch": 42,
        "velocity": 31,
        "trackId": 10,
        "channel": 9
      },
      {
        "startTick": 74876,
        "endTick": 75060,
        "pitch": 56,
        "velocity": 83,
        "trackId": 1,
        "channel": 0
      },
      {
        "startTick": 74880,
        "endTick": 75020,
        "pitch": 42,
        "velocity": 72,
        "trackId": 10,
        "channel": 9
      },
      {
        "startTick": 75060,
        "endTick": 75244,
        "pitch": 66,
        "velocity": 83,
        "trackId": 1,
        "channel": 0
      },
      {
        "startTick": 75064,
        "endTick": 75240,
        "pitch": 63,
        "velocity": 92,
        "trackId": 1,
        "channel": 0
      },
      {
        "startTick": 75072,
        "endTick": 75124,
        "pitch": 42,
        "velocity": 48,
        "trackId": 10,
        "channel": 9
      },
      {
        "startTick": 75072,
        "endTick": 75168,
        "pitch": 35,
        "velocity": 64,
        "trackId": 10,
        "channel": 9
      },
      {
        "startTick": 75072,
        "endTick": 75240,
        "pitch": 32,
        "velocity": 64,
        "trackId": 2,
        "channel": 1
      },
      {
        "startTick": 75252,
        "endTick": 75744,
        "pitch": 65,
        "velocity": 92,
        "trackId": 1,
        "channel": 0
      },
      {
        "startTick": 75256,
        "endTick": 76036,
        "pitch": 61,
        "velocity": 83,
        "trackId": 1,
        "channel": 0
      },
      {
        "startTick": 75256,
        "endTick": 76776,
        "pitch": 49,
        "velocity": 92,
        "trackId": 1,
        "channel": 0
      },
      {
        "startTick": 75264,
        "endTick": 75360,
        "pitch": 35,
        "velocity": 82,
        "trackId": 10,
        "channel": 9
      },
      {
        "startTick": 75264,
        "endTick": 75372,
        "pitch": 42,
        "velocity": 72,
        "trackId": 10,
        "channel": 9
      },
      {
        "startTick": 75264,
        "endTick": 76764,
        "pitch": 37,
        "velocity": 82,
        "trackId": 2,
        "channel": 1
      },
      {
        "startTick": 75452,
        "endTick": 75496,
        "pitch": 42,
        "velocity": 23,
        "trackId": 10,
        "channel": 9
      },
      {
        "startTick": 75632,
        "endTick": 76152,
        "pitch": 56,
        "velocity": 58,
        "trackId": 1,
        "channel": 0
      },
      {
        "startTick": 75648,
        "endTick": 75768,
        "pitch": 42,
        "velocity": 69,
        "trackId": 10,
        "channel": 9
      },
      {
        "startTick": 75824,
        "endTick": 76484,
        "pitch": 65,
        "velocity": 97,
        "trackId": 1,
        "channel": 0
      },
      {
        "startTick": 75832,
        "endTick": 76012,
        "pitch": 65,
        "velocity": 60,
        "trackId": 4,
        "channel": 3
      },
      {
        "startTick": 75836,
        "endTick": 75888,
        "pitch": 42,
        "velocity": 31,
        "trackId": 10,
        "channel": 9
      },
      {
        "startTick": 76024,
        "endTick": 76372,
        "pitch": 66,
        "velocity": 84,
        "trackId": 4,
        "channel": 3
      },
      {
        "startTick": 76032,
        "endTick": 76128,
        "pitch": 54,
        "velocity": 91,
        "trackId": 10,
        "channel": 9
      },
      {
        "startTick": 76032,
        "endTick": 76144,
        "pitch": 42,
        "velocity": 75,
        "trackId": 10,
        "channel": 9
      },
      {
        "startTick": 76032,
        "endTick": 76272,
        "pitch": 38,
        "velocity": 73,
        "trackId": 10,
        "channel": 9
      },
      {
        "startTick": 76216,
        "endTick": 76768,
        "pitch": 56,
        "velocity": 74,
        "trackId": 1,
        "channel": 0
      },
      {
        "startTick": 76220,
        "endTick": 76276,
        "pitch": 42,
        "velocity": 23,
        "trackId": 10,
        "channel": 9
      },
      {
        "startTick": 76408,
        "endTick": 76764,
        "pitch": 70,
        "velocity": 97,
        "trackId": 1,
        "channel": 0
      },
      {
        "startTick": 76412,
        "endTick": 76756,
        "pitch": 70,
        "velocity": 87,
        "trackId": 4,
        "channel": 3
      },
      {
        "startTick": 76416,
        "endTick": 76556,
        "pitch": 42,
        "velocity": 72,
        "trackId": 10,
        "channel": 9
      },
      {
        "startTick": 76604,
        "endTick": 76660,
        "pitch": 42,
        "velocity": 34,
        "trackId": 10,
        "channel": 9
      },
      {
        "startTick": 76796,
        "endTick": 77012,
        "pitch": 63,
        "velocity": 83,
        "trackId": 1,
        "channel": 0
      },
      {
        "startTick": 76796,
        "endTick": 77164,
        "pitch": 68,
        "velocity": 73,
        "trackId": 4,
        "channel": 3
      },
      {
        "startTick": 76796,
        "endTick": 77188,
        "pitch": 68,
        "velocity": 98,
        "trackId": 1,
        "channel": 0
      },
      {
        "startTick": 76800,
        "endTick": 76896,
        "pitch": 35,
        "velocity": 82,
        "trackId": 10,
        "channel": 9
      },
      {
        "startTick": 76800,
        "endTick": 76908,
        "pitch": 42,
        "velocity": 72,
        "trackId": 10,
        "channel": 9
      },
      {
        "startTick": 76800,
        "endTick": 77528,
        "pitch": 32,
        "velocity": 82,
        "trackId": 2,
        "channel": 1
      },
      {
        "startTick": 76800,
        "endTick": 78316,
        "pitch": 44,
        "velocity": 91,
        "trackId": 1,
        "channel": 0
      },
      {
        "startTick": 76984,
        "endTick": 77164,
        "pitch": 56,
        "velocity": 66,
        "trackId": 1,
        "channel": 0
      },
      {
        "startTick": 76988,
        "endTick": 77032,
        "pitch": 42,
        "velocity": 26,
        "trackId": 10,
        "channel": 9
      },
      {
        "startTick": 77164,
        "endTick": 77324,
        "pitch": 63,
        "velocity": 74,
        "trackId": 1,
        "channel": 0
      },
      {
        "startTick": 77176,
        "endTick": 77336,
        "pitch": 63,
        "velocity": 73,
        "trackId": 4,
        "channel": 3
      },
      {
        "startTick": 77184,
        "endTick": 77304,
        "pitch": 42,
        "velocity": 69,
        "trackId": 10,
        "channel": 9
      },
      {
        "startTick": 77368,
        "endTick": 77696,
        "pitch": 63,
        "velocity": 92,
        "trackId": 1,
        "channel": 0
      },
      {
        "startTick": 77368,
        "endTick": 77708,
        "pitch": 66,
        "velocity": 91,
        "trackId": 1,
        "channel": 0
      },
      {
        "startTick": 77372,
        "endTick": 77424,
        "pitch": 42,
        "velocity": 31,
        "trackId": 10,
        "channel": 9
      },
      {
        "startTick": 77372,
        "endTick": 77940,
        "pitch": 66,
        "velocity": 90,
        "trackId": 4,
        "channel": 3
      },
      {
        "startTick": 77568,
        "endTick": 77680,
        "pitch": 42,
        "velocity": 75,
        "trackId": 10,
        "channel": 9
      },
      {
        "startTick": 77568,
        "endTick": 77728,
        "pitch": 36,
        "velocity": 91,
        "trackId": 2,
        "channel": 1
      },
      {
        "startTick": 77568,
        "endTick": 77808,
        "pitch": 38,
        "velocity": 73,
        "trackId": 10,
        "channel": 9
      },
      {
        "startTick": 77752,
        "endTick": 78108,
        "pitch": 63,
        "velocity": 63,
        "trackId": 1,
        "channel": 0
      },
      {
        "startTick": 77752,
        "endTick": 78308,
        "pitch": 56,
        "velocity": 66,
        "trackId": 1,
        "channel": 0
      },
      {
        "startTick": 77752,
        "endTick": 78316,
        "pitch": 65,
        "velocity": 93,
        "trackId": 1,
        "channel": 0
      },
      {
        "startTick": 77756,
        "endTick": 77812,
        "pitch": 42,
        "velocity": 23,
        "trackId": 10,
        "channel": 9
      },
      {
        "startTick": 77760,
        "endTick": 77940,
        "pitch": 34,
        "velocity": 64,
        "trackId": 2,
        "channel": 1
      },
      {
        "startTick": 77952,
        "endTick": 78092,
        "pitch": 42,
        "velocity": 72,
        "trackId": 10,
        "channel": 9
      },
      {
        "startTick": 77952,
        "endTick": 78164,
        "pitch": 32,
        "velocity": 73,
        "trackId": 2,
        "channel": 1
      },
      {
        "startTick": 77956,
        "endTick": 78112,
        "pitch": 65,
        "velocity": 73,
        "trackId": 4,
        "channel": 3
      },
      {
        "startTick": 78132,
        "endTick": 78852,
        "pitch": 61,
        "velocity": 88,
        "trackId": 1,
        "channel": 0
      },
      {
        "startTick": 78144,
        "endTick": 78196,
        "pitch": 42,
        "velocity": 48,
        "trackId": 10,
        "channel": 9
      },
      {
        "startTick": 78144,
        "endTick": 78240,
        "pitch": 35,
        "velocity": 64,
        "trackId": 10,
        "channel": 9
      },
      {
        "startTick": 78144,
        "endTick": 78292,
        "pitch": 37,
        "velocity": 64,
        "trackId": 2,
        "channel": 1
      },
      {
        "startTick": 78148,
        "endTick": 78728,
        "pitch": 65,
        "velocity": 82,
        "trackId": 4,
        "channel": 3
      },
      {
        "startTick": 78328,
        "endTick": 79060,
        "pitch": 65,
        "velocity": 97,
        "trackId": 1,
        "channel": 0
      },
      {
        "startTick": 78336,
        "endTick": 78432,
        "pitch": 35,
        "velocity": 82,
        "trackId": 10,
        "channel": 9
      },
      {
        "startTick": 78336,
        "endTick": 78444,
        "pitch": 42,
        "velocity": 72,
        "trackId": 10,
        "channel": 9
      },
      {
        "startTick": 78336,
        "endTick": 79048,
        "pitch": 37,
        "velocity": 82,
        "trackId": 2,
        "channel": 1
      },
      {
        "startTick": 78336,
        "endTick": 79064,
        "pitch": 56,
        "velocity": 74,
        "trackId": 1,
        "channel": 0
      },
      {
        "startTick": 78336,
        "endTick": 79080,
        "pitch": 49,
        "velocity": 92,
        "trackId": 1,
        "channel": 0
      },
      {
        "startTick": 78524,
        "endTick": 78568,
        "pitch": 42,
        "velocity": 23,
        "trackId": 10,
        "channel": 9
      },
      {
        "startTick": 78528,
        "endTick": 78588,
        "pitch": 41,
        "velocity": 43,
        "trackId": 11,
        "channel": 10
      },
      {
        "startTick": 78720,
        "endTick": 78780,
        "pitch": 45,
        "velocity": 48,
        "trackId": 11,
        "channel": 10
      },
      {
        "startTick": 78720,
        "endTick": 78840,
        "pitch": 42,
        "velocity": 69,
        "trackId": 10,
        "channel": 9
      },
      {
        "startTick": 78908,
        "endTick": 78960,
        "pitch": 42,
        "velocity": 34,
        "trackId": 10,
        "channel": 9
      },
      {
        "startTick": 78908,
        "endTick": 79832,
        "pitch": 61,
        "velocity": 62,
        "trackId": 1,
        "channel": 0
      },
      {
        "startTick": 78912,
        "endTick": 78972,
        "pitch": 50,
        "velocity": 48,
        "trackId": 11,
        "channel": 10
      },
      {
        "startTick": 79092,
        "endTick": 79312,
        "pitch": 65,
        "velocity": 73,
        "trackId": 4,
        "channel": 3
      },
      {
        "startTick": 79092,
        "endTick": 79372,
        "pitch": 65,
        "velocity": 101,
        "trackId": 1,
        "channel": 0
      },
      {
        "startTick": 79092,
        "endTick": 79860,
        "pitch": 56,
        "velocity": 74,
        "trackId": 1,
        "channel": 0
      },
      {
        "startTick": 79096,
        "endTick": 79320,
        "pitch": 41,
        "velocity": 83,
        "trackId": 1,
        "channel": 0
      },
      {
        "startTick": 79104,
        "endTick": 79200,
        "pitch": 54,
        "velocity": 91,
        "trackId": 10,
        "channel": 9
      },
      {
        "startTick": 79104,
        "endTick": 79216,
        "pitch": 42,
        "velocity": 75,
        "trackId": 10,
        "channel": 9
      },
      {
        "startTick": 79104,
        "endTick": 79344,
        "pitch": 38,
        "velocity": 73,
        "trackId": 10,
        "channel": 9
      },
      {
        "startTick": 79104,
        "endTick": 79816,
        "pitch": 30,
        "velocity": 82,
        "trackId": 2,
        "channel": 1
      },
      {
        "startTick": 79292,
        "endTick": 79348,
        "pitch": 42,
        "velocity": 23,
        "trackId": 10,
        "channel": 9
      },
      {
        "startTick": 79356,
        "endTick": 79664,
        "pitch": 66,
        "velocity": 92,
        "trackId": 1,
        "channel": 0
      },
      {
        "startTick": 79360,
        "endTick": 79568,
        "pitch": 42,
        "velocity": 74,
        "trackId": 1,
        "channel": 0
      },
      {
        "startTick": 79360,
        "endTick": 79584,
        "pitch": 66,
        "velocity": 73,
        "trackId": 4,
        "channel": 3
      },
      {
        "startTick": 79488,
        "endTick": 79628,
        "pitch": 42,
        "velocity": 72,
        "trackId": 10,
        "channel": 9
      },
      {
        "startTick": 79604,
        "endTick": 79836,
        "pitch": 44,
        "velocity": 83,
        "trackId": 1,
        "channel": 0
      },
      {
        "startTick": 79612,
        "endTick": 79872,
        "pitch": 68,
        "velocity": 97,
        "trackId": 1,
        "channel": 0
      },
      {
        "startTick": 79624,
        "endTick": 79792,
        "pitch": 68,
        "velocity": 73,
        "trackId": 4,
        "channel": 3
      },
      {
        "startTick": 79676,
        "endTick": 79732,
        "pitch": 42,
        "velocity": 31,
        "trackId": 10,
        "channel": 9
      },
      {
        "startTick": 79864,
        "endTick": 80192,
        "pitch": 72,
        "velocity": 73,
        "trackId": 4,
        "channel": 3
      },
      {
        "startTick": 79864,
        "endTick": 80604,
        "pitch": 42,
        "velocity": 91,
        "trackId": 1,
        "channel": 0
      },
      {
        "startTick": 79868,
        "endTick": 80068,
        "pitch": 63,
        "velocity": 92,
        "trackId": 1,
        "channel": 0
      },
      {
        "startTick": 79868,
        "endTick": 80640,
        "pitch": 72,
        "velocity": 99,
        "trackId": 1,
        "channel": 0
      },
      {
        "startTick": 79872,
        "endTick": 79968,
        "pitch": 35,
        "velocity": 82,
        "trackId": 10,
        "channel": 9
      },
      {
        "startTick": 79872,
        "endTick": 79980,
        "pitch": 42,
        "velocity": 72,
        "trackId": 10,
        "channel": 9
      },
      {
        "startTick": 79872,
        "endTick": 80588,
        "pitch": 30,
        "velocity": 82,
        "trackId": 2,
        "channel": 1
      },
      {
        "startTick": 80052,
        "endTick": 80256,
        "pitch": 70,
        "velocity": 85,
        "trackId": 1,
        "channel": 0
      },
      {
        "startTick": 80060,
        "endTick": 80104,
        "pitch": 42,
        "velocity": 26,
        "trackId": 10,
        "channel": 9
      },
      {
        "startTick": 80240,
        "endTick": 80640,
        "pitch": 63,
        "velocity": 76,
        "trackId": 1,
        "channel": 0
      },
      {
        "startTick": 80244,
        "endTick": 80584,
        "pitch": 70,
        "velocity": 73,
        "trackId": 4,
        "channel": 3
      },
      {
        "startTick": 80256,
        "endTick": 80376,
        "pitch": 42,
        "velocity": 69,
        "trackId": 10,
        "channel": 9
      },
      {
        "startTick": 80436,
        "endTick": 80616,
        "pitch": 68,
        "velocity": 74,
        "trackId": 1,
        "channel": 0
      },
      {
        "startTick": 80444,
        "endTick": 80496,
        "pitch": 42,
        "velocity": 31,
        "trackId": 10,
        "channel": 9
      },
      {
        "startTick": 80632,
        "endTick": 80840,
        "pitch": 61,
        "velocity": 91,
        "trackId": 1,
        "channel": 0
      },
      {
        "startTick": 80632,
        "endTick": 81028,
        "pitch": 68,
        "velocity": 64,
        "trackId": 4,
        "channel": 3
      },
      {
        "startTick": 80632,
        "endTick": 81044,
        "pitch": 68,
        "velocity": 97,
        "trackId": 1,
        "channel": 0
      },
      {
        "startTick": 80632,
        "endTick": 81356,
        "pitch": 41,
        "velocity": 92,
        "trackId": 1,
        "channel": 0
      },
      {
        "startTick": 80640,
        "endTick": 80752,
        "pitch": 42,
        "velocity": 75,
        "trackId": 10,
        "channel": 9
      },
      {
        "startTick": 80640,
        "endTick": 80880,
        "pitch": 38,
        "velocity": 73,
        "trackId": 10,
        "channel": 9
      },
      {
        "startTick": 80640,
        "endTick": 81196,
        "pitch": 29,
        "velocity": 82,
        "trackId": 2,
        "channel": 1
      },
      {
        "startTick": 80828,
        "endTick": 80884,
        "pitch": 42,
        "velocity": 23,
        "trackId": 10,
        "channel": 9
      },
      {
        "startTick": 80832,
        "endTick": 81352,
        "pitch": 56,
        "velocity": 79,
        "trackId": 1,
        "channel": 0
      },
      {
        "startTick": 81016,
        "endTick": 81388,
        "pitch": 61,
        "velocity": 74,
        "trackId": 1,
        "channel": 0
      },
      {
        "startTick": 81024,
        "endTick": 81164,
        "pitch": 42,
        "velocity": 72,
        "trackId": 10,
        "channel": 9
      },
      {
        "startTick": 81208,
        "endTick": 81392,
        "pitch": 68,
        "velocity": 83,
        "trackId": 1,
        "channel": 0
      },
      {
        "startTick": 81216,
        "endTick": 81268,
        "pitch": 42,
        "velocity": 48,
        "trackId": 10,
        "channel": 9
      },
      {
        "startTick": 81216,
        "endTick": 81312,
        "pitch": 35,
        "velocity": 64,
        "trackId": 10,
        "channel": 9
      },
      {
        "startTick": 81216,
        "endTick": 81364,
        "pitch": 29,
        "velocity": 64,
        "trackId": 2,
        "channel": 1
      },
      {
        "startTick": 81220,
        "endTick": 81412,
        "pitch": 61,
        "velocity": 64,
        "trackId": 4,
        "channel": 3
      },
      {
        "startTick": 81404,
        "endTick": 82096,
        "pitch": 42,
        "velocity": 94,
        "trackId": 1,
        "channel": 0
      },
      {
        "startTick": 81408,
        "endTick": 81504,
        "pitch": 35,
        "velocity": 82,
        "trackId": 10,
        "channel": 9
      },
      {
        "startTick": 81408,
        "endTick": 81516,
        "pitch": 42,
        "velocity": 72,
        "trackId": 10,
        "channel": 9
      },
      {
        "startTick": 81408,
        "endTick": 81708,
        "pitch": 72,
        "velocity": 96,
        "trackId": 1,
        "channel": 0
      },
      {
        "startTick": 81408,
        "endTick": 81736,
        "pitch": 68,
        "velocity": 83,
        "trackId": 1,
        "channel": 0
      },
      {
        "startTick": 81408,
        "endTick": 82112,
        "pitch": 30,
        "velocity": 82,
        "trackId": 2,
        "channel": 1
      },
      {
        "startTick": 81416,
        "endTick": 81724,
        "pitch": 72,
        "velocity": 73,
        "trackId": 4,
        "channel": 3
      },
      {
        "startTick": 81596,
        "endTick": 81640,
        "pitch": 42,
        "velocity": 23,
        "trackId": 10,
        "channel": 9
      },
      {
        "startTick": 81596,
        "endTick": 81872,
        "pitch": 61,
        "velocity": 58,
        "trackId": 1,
        "channel": 0
      },
      {
        "startTick": 81780,
        "endTick": 82356,
        "pitch": 73,
        "velocity": 83,
        "trackId": 1,
        "channel": 0
      },
      {
        "startTick": 81788,
        "endTick": 81964,
        "pitch": 73,
        "velocity": 64,
        "trackId": 4,
        "channel": 3
      },
      {
        "startTick": 81792,
        "endTick": 81912,
        "pitch": 42,
        "velocity": 69,
        "trackId": 10,
        "channel": 9
      },
      {
        "startTick": 81972,
        "endTick": 82364,
        "pitch": 68,
        "velocity": 94,
        "trackId": 1,
        "channel": 0
      },
      {
        "startTick": 81980,
        "endTick": 82032,
        "pitch": 42,
        "velocity": 34,
        "trackId": 10,
        "channel": 9
      },
      {
        "startTick": 81992,
        "endTick": 82544,
        "pitch": 68,
        "velocity": 73,
        "trackId": 4,
        "channel": 3
      },
      {
        "startTick": 82164,
        "endTick": 82940,
        "pitch": 41,
        "velocity": 83,
        "trackId": 1,
        "channel": 0
      },
      {
        "startTick": 82176,
        "endTick": 82272,
        "pitch": 54,
        "velocity": 91,
        "trackId": 10,
        "channel": 9
      },
      {
        "startTick": 82176,
        "endTick": 82288,
        "pitch": 42,
        "velocity": 75,
        "trackId": 10,
        "channel": 9
      },
      {
        "startTick": 82176,
        "endTick": 82416,
        "pitch": 38,
        "velocity": 73,
        "trackId": 10,
        "channel": 9
      },
      {
        "startTick": 82176,
        "endTick": 82916,
        "pitch": 29,
        "velocity": 82,
        "trackId": 2,
        "channel": 1
      },
      {
        "startTick": 82348,
        "endTick": 82576,
        "pitch": 61,
        "velocity": 62,
        "trackId": 1,
        "channel": 0
      },
      {
        "startTick": 82364,
        "endTick": 82420,
        "pitch": 42,
        "velocity": 23,
        "trackId": 10,
        "channel": 9
      },
      {
        "startTick": 82540,
        "endTick": 82960,
        "pitch": 68,
        "velocity": 91,
        "trackId": 1,
        "channel": 0
      },
      {
        "startTick": 82560,
        "endTick": 82700,
        "pitch": 42,
        "velocity": 72,
        "trackId": 10,
        "channel": 9
      },
      {
        "startTick": 82728,
        "endTick": 82916,
        "pitch": 61,
        "velocity": 58,
        "trackId": 1,
        "channel": 0
      },
      {
        "startTick": 82748,
        "endTick": 82804,
        "pitch": 42,
        "velocity": 31,
        "trackId": 10,
        "channel": 9
      },
      {
        "startTick": 82748,
        "endTick": 82944,
        "pitch": 61,
        "velocity": 52,
        "trackId": 4,
        "channel": 3
      },
      {
        "startTick": 82908,
        "endTick": 86004,
        "pitch": 73,
        "velocity": 36,
        "trackId": 3,
        "channel": 2
      },
      {
        "startTick": 82916,
        "endTick": 83692,
        "pitch": 85,
        "velocity": 64,
        "trackId": 3,
        "channel": 2
      },
      {
        "startTick": 82928,
        "endTick": 83720,
        "pitch": 46,
        "velocity": 83,
        "trackId": 1,
        "channel": 0
      },
      {
        "startTick": 82940,
        "endTick": 83568,
        "pitch": 65,
        "velocity": 93,
        "trackId": 1,
        "channel": 0
      },
      {
        "startTick": 82940,
        "endTick": 83668,
        "pitch": 61,
        "velocity": 86,
        "trackId": 1,
        "channel": 0
      },
      {
        "startTick": 82944,
        "endTick": 83040,
        "pitch": 35,
        "velocity": 82,
        "trackId": 10,
        "channel": 9
      },
      {
        "startTick": 82944,
        "endTick": 83052,
        "pitch": 42,
        "velocity": 72,
        "trackId": 10,
        "channel": 9
      },
      {
        "startTick": 82944,
        "endTick": 83316,
        "pitch": 65,
        "velocity": 75,
        "trackId": 4,
        "channel": 3
      },
      {
        "startTick": 82944,
        "endTick": 83696,
        "pitch": 34,
        "velocity": 82,
        "trackId": 2,
        "channel": 1
      },
      {
        "startTick": 83132,
        "endTick": 83176,
        "pitch": 42,
        "velocity": 26,
        "trackId": 10,
        "channel": 9
      },
      {
        "startTick": 83324,
        "endTick": 83484,
        "pitch": 63,
        "velocity": 60,
        "trackId": 4,
        "channel": 3
      },
      {
        "startTick": 83328,
        "endTick": 83448,
        "pitch": 42,
        "velocity": 69,
        "trackId": 10,
        "channel": 9
      },
      {
        "startTick": 83512,
        "endTick": 84116,
        "pitch": 61,
        "velocity": 73,
        "trackId": 4,
        "channel": 3
      },
      {
        "startTick": 83516,
        "endTick": 83568,
        "pitch": 42,
        "velocity": 31,
        "trackId": 10,
        "channel": 9
      },
      {
        "startTick": 83516,
        "endTick": 83724,
        "pitch": 56,
        "velocity": 74,
        "trackId": 1,
        "channel": 0
      },
      {
        "startTick": 83672,
        "endTick": 84492,
        "pitch": 87,
        "velocity": 64,
        "trackId": 3,
        "channel": 2
      },
      {
        "startTick": 83708,
        "endTick": 84288,
        "pitch": 39,
        "velocity": 92,
        "trackId": 1,
        "channel": 0
      },
      {
        "startTick": 83712,
        "endTick": 83824,
        "pitch": 42,
        "velocity": 75,
        "trackId": 10,
        "channel": 9
      },
      {
        "startTick": 83712,
        "endTick": 83892,
        "pitch": 38,
        "velocity": 73,
        "trackId": 10,
        "channel": 9
      },
      {
        "startTick": 83712,
        "endTick": 84208,
        "pitch": 27,
        "velocity": 82,
        "trackId": 2,
        "channel": 1
      },
      {
        "startTick": 83712,
        "endTick": 84452,
        "pitch": 58,
        "velocity": 78,
        "trackId": 1,
        "channel": 0
      },
      {
        "startTick": 83712,
        "endTick": 84504,
        "pitch": 63,
        "velocity": 83,
        "trackId": 1,
        "channel": 0
      },
      {
        "startTick": 83900,
        "endTick": 83956,
        "pitch": 42,
        "velocity": 23,
        "trackId": 10,
        "channel": 9
      },
      {
        "startTick": 84092,
        "endTick": 84268,
        "pitch": 65,
        "velocity": 56,
        "trackId": 4,
        "channel": 3
      },
      {
        "startTick": 84096,
        "endTick": 84236,
        "pitch": 42,
        "velocity": 72,
        "trackId": 10,
        "channel": 9
      },
      {
        "startTick": 84096,
        "endTick": 84460,
        "pitch": 55,
        "velocity": 83,
        "trackId": 1,
        "channel": 0
      },
      {
        "startTick": 84284,
        "endTick": 84836,
        "pitch": 66,
        "velocity": 69,
        "trackId": 4,
        "channel": 3
      },
      {
        "startTick": 84288,
        "endTick": 84340,
        "pitch": 42,
        "velocity": 48,
        "trackId": 10,
        "channel": 9
      },
      {
        "startTick": 84288,
        "endTick": 84384,
        "pitch": 35,
        "velocity": 64,
        "trackId": 10,
        "channel": 9
      },
      {
        "startTick": 84288,
        "endTick": 84448,
        "pitch": 46,
        "velocity": 82,
        "trackId": 1,
        "channel": 0
      },
      {
        "startTick": 84288,
        "endTick": 84468,
        "pitch": 34,
        "velocity": 64,
        "trackId": 2,
        "channel": 1
      },
      {
        "startTick": 84452,
        "endTick": 85928,
        "pitch": 80,
        "velocity": 64,
        "trackId": 3,
        "channel": 2
      },
      {
        "startTick": 84472,
        "endTick": 84684,
        "pitch": 61,
        "velocity": 91,
        "trackId": 1,
        "channel": 0
      },
      {
        "startTick": 84472,
        "endTick": 85024,
        "pitch": 54,
        "velocity": 70,
        "trackId": 1,
        "channel": 0
      },
      {
        "startTick": 84472,
        "endTick": 85220,
        "pitch": 44,
        "velocity": 101,
        "trackId": 1,
        "channel": 0
      },
      {
        "startTick": 84480,
        "endTick": 84576,
        "pitch": 35,
        "velocity": 82,
        "trackId": 10,
        "channel": 9
      },
      {
        "startTick": 84480,
        "endTick": 84588,
        "pitch": 42,
        "velocity": 72,
        "trackId": 10,
        "channel": 9
      },
      {
        "startTick": 84480,
        "endTick": 85216,
        "pitch": 32,
        "velocity": 82,
        "trackId": 2,
        "channel": 1
      },
      {
        "startTick": 84660,
        "endTick": 84992,
        "pitch": 56,
        "velocity": 74,
        "trackId": 1,
        "channel": 0
      },
      {
        "startTick": 84668,
        "endTick": 84712,
        "pitch": 42,
        "velocity": 23,
        "trackId": 10,
        "channel": 9
      },
      {
        "startTick": 84848,
        "endTick": 85020,
        "pitch": 63,
        "velocity": 72,
        "trackId": 1,
        "channel": 0
      },
      {
        "startTick": 84860,
        "endTick": 85228,
        "pitch": 65,
        "velocity": 56,
        "trackId": 4,
        "channel": 3
      },
      {
        "startTick": 84864,
        "endTick": 84984,
        "pitch": 42,
        "velocity": 69,
        "trackId": 10,
        "channel": 9
      },
      {
        "startTick": 84864,
        "endTick": 85900,
        "pitch": 72,
        "velocity": 31,
        "trackId": 14,
        "channel": 13
      },
      {
        "startTick": 85044,
        "endTick": 85196,
        "pitch": 65,
        "velocity": 74,
        "trackId": 1,
        "channel": 0
      },
      {
        "startTick": 85048,
        "endTick": 85216,
        "pitch": 56,
        "velocity": 74,
        "trackId": 1,
        "channel": 0
      },
      {
        "startTick": 85056,
        "endTick": 85108,
        "pitch": 38,
        "velocity": 55,
        "trackId": 10,
        "channel": 9
      },
      {
        "startTick": 85240,
        "endTick": 85308,
        "pitch": 44,
        "velocity": 40,
        "trackId": 6,
        "channel": 5
      },
      {
        "startTick": 85240,
        "endTick": 85604,
        "pitch": 66,
        "velocity": 89,
        "trackId": 1,
        "channel": 0
      },
      {
        "startTick": 85244,
        "endTick": 85588,
        "pitch": 58,
        "velocity": 98,
        "trackId": 1,
        "channel": 0
      },
      {
        "startTick": 85248,
        "endTick": 85344,
        "pitch": 54,
        "velocity": 91,
        "trackId": 10,
        "channel": 9
      },
      {
        "startTick": 85248,
        "endTick": 85396,
        "pitch": 32,
        "velocity": 73,
        "trackId": 2,
        "channel": 1
      },
      {
        "startTick": 85248,
        "endTick": 85420,
        "pitch": 44,
        "velocity": 83,
        "trackId": 1,
        "channel": 0
      },
      {
        "startTick": 85248,
        "endTick": 85436,
        "pitch": 38,
        "velocity": 81,
        "trackId": 10,
        "channel": 9
      },
      {
        "startTick": 85248,
        "endTick": 85624,
        "pitch": 66,
        "velocity": 87,
        "trackId": 4,
        "channel": 3
      },
      {
        "startTick": 85292,
        "endTick": 85372,
        "pitch": 46,
        "velocity": 36,
        "trackId": 6,
        "channel": 5
      },
      {
        "startTick": 85352,
        "endTick": 85428,
        "pitch": 48,
        "velocity": 31,
        "trackId": 6,
        "channel": 5
      },
      {
        "startTick": 85412,
        "endTick": 85480,
        "pitch": 51,
        "velocity": 31,
        "trackId": 6,
        "channel": 5
      },
      {
        "startTick": 85424,
        "endTick": 85584,
        "pitch": 46,
        "velocity": 70,
        "trackId": 1,
        "channel": 0
      },
      {
        "startTick": 85428,
        "endTick": 85584,
        "pitch": 45,
        "velocity": 64,
        "trackId": 10,
        "channel": 9
      },
      {
        "startTick": 85440,
        "endTick": 85596,
        "pitch": 34,
        "velocity": 64,
        "trackId": 2,
        "channel": 1
      },
      {
        "startTick": 85464,
        "endTick": 85520,
        "pitch": 53,
        "velocity": 31,
        "trackId": 6,
        "channel": 5
      },
      {
        "startTick": 85508,
        "endTick": 85568,
        "pitch": 54,
        "velocity": 34,
        "trackId": 6,
        "channel": 5
      },
      {
        "startTick": 85552,
        "endTick": 85604,
        "pitch": 56,
        "velocity": 37,
        "trackId": 6,
        "channel": 5
      },
      {
        "startTick": 85588,
        "endTick": 85644,
        "pitch": 58,
        "velocity": 40,
        "trackId": 6,
        "channel": 5
      },
      {
        "startTick": 85616,
        "endTick": 85768,
        "pitch": 49,
        "velocity": 83,
        "trackId": 1,
        "channel": 0
      },
      {
        "startTick": 85624,
        "endTick": 85676,
        "pitch": 60,
        "velocity": 43,
        "trackId": 6,
        "channel": 5
      },
      {
        "startTick": 85624,
        "endTick": 85812,
        "pitch": 45,
        "velocity": 91,
        "trackId": 10,
        "channel": 9
      },
      {
        "startTick": 85628,
        "endTick": 85980,
        "pitch": 61,
        "velocity": 92,
        "trackId": 1,
        "channel": 0
      },
      {
        "startTick": 85632,
        "endTick": 85804,
        "pitch": 37,
        "velocity": 82,
        "trackId": 2,
        "channel": 1
      },
      {
        "startTick": 85632,
        "endTick": 85964,
        "pitch": 70,
        "velocity": 82,
        "trackId": 4,
        "channel": 3
      },
      {
        "startTick": 85636,
        "endTick": 85996,
        "pitch": 70,
        "velocity": 95,
        "trackId": 1,
        "channel": 0
      },
      {
        "startTick": 85660,
        "endTick": 85704,
        "pitch": 61,
        "velocity": 44,
        "trackId": 6,
        "channel": 5
      },
      {
        "startTick": 85692,
        "endTick": 85736,
        "pitch": 63,
        "velocity": 46,
        "trackId": 6,
        "channel": 5
      },
      {
        "startTick": 85720,
        "endTick": 85764,
        "pitch": 65,
        "velocity": 47,
        "trackId": 6,
        "channel": 5
      },
      {
        "startTick": 85752,
        "endTick": 85796,
        "pitch": 66,
        "velocity": 49,
        "trackId": 6,
        "channel": 5
      },
      {
        "startTick": 85776,
        "endTick": 85824,
        "pitch": 68,
        "velocity": 52,
        "trackId": 6,
        "channel": 5
      },
      {
        "startTick": 85800,
        "endTick": 85988,
        "pitch": 44,
        "velocity": 83,
        "trackId": 1,
        "channel": 0
      },
      {
        "startTick": 85808,
        "endTick": 85844,
        "pitch": 70,
        "velocity": 55,
        "trackId": 6,
        "channel": 5
      },
      {
        "startTick": 85820,
        "endTick": 85876,
        "pitch": 42,
        "velocity": 31,
        "trackId": 10,
        "channel": 9
      },
      {
        "startTick": 85824,
        "endTick": 85980,
        "pitch": 32,
        "velocity": 64,
        "trackId": 2,
        "channel": 1
      },
      {
        "startTick": 85832,
        "endTick": 85880,
        "pitch": 72,
        "velocity": 58,
        "trackId": 6,
        "channel": 5
      },
      {
        "startTick": 85864,
        "endTick": 85904,
        "pitch": 73,
        "velocity": 58,
        "trackId": 6,
        "channel": 5
      },
      {
        "startTick": 85888,
        "endTick": 85936,
        "pitch": 75,
        "velocity": 61,
        "trackId": 6,
        "channel": 5
      },
      {
        "startTick": 85920,
        "endTick": 85972,
        "pitch": 77,
        "velocity": 64,
        "trackId": 6,
        "channel": 5
      },
      {
        "startTick": 85948,
        "endTick": 89884,
        "pitch": 80,
        "velocity": 52,
        "trackId": 3,
        "channel": 2
      },
      {
        "startTick": 85952,
        "endTick": 86000,
        "pitch": 78,
        "velocity": 72,
        "trackId": 6,
        "channel": 5
      },
      {
        "startTick": 85984,
        "endTick": 86048,
        "pitch": 80,
        "velocity": 72,
        "trackId": 6,
        "channel": 5
      },
      {
        "startTick": 86008,
        "endTick": 87600,
        "pitch": 68,
        "velocity": 73,
        "trackId": 4,
        "channel": 3
      },
      {
        "startTick": 86016,
        "endTick": 86112,
        "pitch": 35,
        "velocity": 82,
        "trackId": 10,
        "channel": 9
      },
      {
        "startTick": 86016,
        "endTick": 86328,
        "pitch": 60,
        "velocity": 92,
        "trackId": 1,
        "channel": 0
      },
      {
        "startTick": 86016,
        "endTick": 86356,
        "pitch": 68,
        "velocity": 95,
        "trackId": 1,
        "channel": 0
      },
      {
        "startTick": 86016,
        "endTick": 86716,
        "pitch": 49,
        "velocity": 64,
        "trackId": 10,
        "channel": 9
      },
      {
        "startTick": 86016,
        "endTick": 87112,
        "pitch": 32,
        "velocity": 82,
        "trackId": 2,
        "channel": 1
      },
      {
        "startTick": 86020,
        "endTick": 87136,
        "pitch": 44,
        "velocity": 95,
        "trackId": 1,
        "channel": 0
      },
      {
        "startTick": 86020,
        "endTick": 89832,
        "pitch": 92,
        "velocity": 57,
        "trackId": 3,
        "channel": 2
      },
      {
        "startTick": 86024,
        "endTick": 86240,
        "pitch": 84,
        "velocity": 78,
        "trackId": 6,
        "channel": 5
      },
      {
        "startTick": 86204,
        "endTick": 86248,
        "pitch": 42,
        "velocity": 30,
        "trackId": 10,
        "channel": 9
      },
      {
        "startTick": 86400,
        "endTick": 86520,
        "pitch": 42,
        "velocity": 69,
        "trackId": 10,
        "channel": 9
      },
      {
        "startTick": 86400,
        "endTick": 86592,
        "pitch": 60,
        "velocity": 66,
        "trackId": 1,
        "channel": 0
      },
      {
        "startTick": 86404,
        "endTick": 86600,
        "pitch": 63,
        "velocity": 66,
        "trackId": 1,
        "channel": 0
      },
      {
        "startTick": 86580,
        "endTick": 86724,
        "pitch": 56,
        "velocity": 70,
        "trackId": 1,
        "channel": 0
      },
      {
        "startTick": 86588,
        "endTick": 86640,
        "pitch": 42,
        "velocity": 31,
        "trackId": 10,
        "channel": 9
      },
      {
        "startTick": 86784,
        "endTick": 86896,
        "pitch": 42,
        "velocity": 75,
        "trackId": 10,
        "channel": 9
      },
      {
        "startTick": 86784,
        "endTick": 87024,
        "pitch": 38,
        "velocity": 73,
        "trackId": 10,
        "channel": 9
      },
      {
        "startTick": 86784,
        "endTick": 87144,
        "pitch": 60,
        "velocity": 92,
        "trackId": 1,
        "channel": 0
      },
      {
        "startTick": 86788,
        "endTick": 87144,
        "pitch": 63,
        "velocity": 83,
        "trackId": 1,
        "channel": 0
      },
      {
        "startTick": 86972,
        "endTick": 87028,
        "pitch": 42,
        "velocity": 31,
        "trackId": 10,
        "channel": 9
      },
      {
        "startTick": 87156,
        "endTick": 87536,
        "pitch": 63,
        "velocity": 92,
        "trackId": 1,
        "channel": 0
      },
      {
        "startTick": 87160,
        "endTick": 87336,
        "pitch": 44,
        "velocity": 83,
        "trackId": 1,
        "channel": 0
      },
      {
        "startTick": 87160,
        "endTick": 87536,
        "pitch": 66,
        "velocity": 74,
        "trackId": 1,
        "channel": 0
      },
      {
        "startTick": 87168,
        "endTick": 87308,
        "pitch": 42,
        "velocity": 72,
        "trackId": 10,
        "channel": 9
      },
      {
        "startTick": 87168,
        "endTick": 87332,
        "pitch": 32,
        "velocity": 81,
        "trackId": 2,
        "channel": 1
      },
      {
        "startTick": 87356,
        "endTick": 87520,
        "pitch": 56,
        "velocity": 66,
        "trackId": 1,
        "channel": 0
      },
      {
        "startTick": 87360,
        "endTick": 87412,
        "pitch": 42,
        "velocity": 48,
        "trackId": 10,
        "channel": 9
      },
      {
        "startTick": 87360,
        "endTick": 87456,
        "pitch": 35,
        "velocity": 64,
        "trackId": 10,
        "channel": 9
      },
      {
        "startTick": 87360,
        "endTick": 87524,
        "pitch": 36,
        "velocity": 81,
        "trackId": 2,
        "channel": 1
      },
      {
        "startTick": 87360,
        "endTick": 87536,
        "pitch": 48,
        "velocity": 83,
        "trackId": 1,
        "channel": 0
      },
      {
        "startTick": 87540,
        "endTick": 87872,
        "pitch": 65,
        "velocity": 92,
        "trackId": 1,
        "channel": 0
      },
      {
        "startTick": 87544,
        "endTick": 88064,
        "pitch": 49,
        "velocity": 92,
        "trackId": 1,
        "channel": 0
      },
      {
        "startTick": 87544,
        "endTick": 88104,
        "pitch": 61,
        "velocity": 83,
        "trackId": 1,
        "channel": 0
      },
      {
        "startTick": 87552,
        "endTick": 87648,
        "pitch": 35,
        "velocity": 82,
        "trackId": 10,
        "channel": 9
      },
      {
        "startTick": 87552,
        "endTick": 87660,
        "pitch": 42,
        "velocity": 72,
        "trackId": 10,
        "channel": 9
      },
      {
        "startTick": 87552,
        "endTick": 88660,
        "pitch": 37,
        "velocity": 82,
        "trackId": 2,
        "channel": 1
      },
      {
        "startTick": 87728,
        "endTick": 88300,
        "pitch": 56,
        "velocity": 62,
        "trackId": 1,
        "channel": 0
      },
      {
        "startTick": 87740,
        "endTick": 87784,
        "pitch": 42,
        "velocity": 23,
        "trackId": 10,
        "channel": 9
      },
      {
        "startTick": 87924,
        "endTick": 88316,
        "pitch": 65,
        "velocity": 83,
        "trackId": 1,
        "channel": 0
      },
      {
        "startTick": 87936,
        "endTick": 88056,
        "pitch": 42,
        "velocity": 69,
        "trackId": 10,
        "channel": 9
      },
      {
        "startTick": 88112,
        "endTick": 88288,
        "pitch": 61,
        "velocity": 66,
        "trackId": 1,
        "channel": 0
      },
      {
        "startTick": 88116,
        "endTick": 88284,
        "pitch": 65,
        "velocity": 73,
        "trackId": 4,
        "channel": 3
      },
      {
        "startTick": 88116,
        "endTick": 88684,
        "pitch": 68,
        "velocity": 74,
        "trackId": 1,
        "channel": 0
      },
      {
        "startTick": 88124,
        "endTick": 88176,
        "pitch": 42,
        "velocity": 31,
        "trackId": 10,
        "channel": 9
      },
      {
        "startTick": 88124,
        "endTick": 89036,
        "pitch": 49,
        "velocity": 92,
        "trackId": 1,
        "channel": 0
      },
      {
        "startTick": 88308,
        "endTick": 88644,
        "pitch": 61,
        "velocity": 83,
        "trackId": 1,
        "channel": 0
      },
      {
        "startTick": 88308,
        "endTick": 88676,
        "pitch": 73,
        "velocity": 94,
        "trackId": 1,
        "channel": 0
      },
      {
        "startTick": 88316,
        "endTick": 88672,
        "pitch": 66,
        "velocity": 82,
        "trackId": 4,
        "channel": 3
      },
      {
        "startTick": 88320,
        "endTick": 88416,
        "pitch": 54,
        "velocity": 91,
        "trackId": 10,
        "channel": 9
      },
      {
        "startTick": 88320,
        "endTick": 88432,
        "pitch": 42,
        "velocity": 75,
        "trackId": 10,
        "channel": 9
      },
      {
        "startTick": 88320,
        "endTick": 88560,
        "pitch": 38,
        "velocity": 73,
        "trackId": 10,
        "channel": 9
      },
      {
        "startTick": 88508,
        "endTick": 88564,
        "pitch": 42,
        "velocity": 23,
        "trackId": 10,
        "channel": 9
      },
      {
        "startTick": 88700,
        "endTick": 89080,
        "pitch": 70,
        "velocity": 92,
        "trackId": 1,
        "channel": 0
      },
      {
        "startTick": 88700,
        "endTick": 89100,
        "pitch": 61,
        "velocity": 74,
        "trackId": 1,
        "channel": 0
      },
      {
        "startTick": 88704,
        "endTick": 88844,
        "pitch": 42,
        "velocity": 72,
        "trackId": 10,
        "channel": 9
      },
      {
        "startTick": 88704,
        "endTick": 89032,
        "pitch": 70,
        "velocity": 82,
        "trackId": 4,
        "channel": 3
      },
      {
        "startTick": 88704,
        "endTick": 89052,
        "pitch": 37,
        "velocity": 82,
        "trackId": 2,
        "channel": 1
      },
      {
        "startTick": 88892,
        "endTick": 88948,
        "pitch": 42,
        "velocity": 34,
        "trackId": 10,
        "channel": 9
      },
      {
        "startTick": 89076,
        "endTick": 89448,
        "pitch": 68,
        "velocity": 73,
        "trackId": 4,
        "channel": 3
      },
      {
        "startTick": 89084,
        "endTick": 89300,
        "pitch": 60,
        "velocity": 83,
        "trackId": 1,
        "channel": 0
      },
      {
        "startTick": 89084,
        "endTick": 89476,
        "pitch": 68,
        "velocity": 98,
        "trackId": 1,
        "channel": 0
      },
      {
        "startTick": 89088,
        "endTick": 89184,
        "pitch": 35,
        "velocity": 82,
        "trackId": 10,
        "channel": 9
      },
      {
        "startTick": 89088,
        "endTick": 89196,
        "pitch": 42,
        "velocity": 72,
        "trackId": 10,
        "channel": 9
      },
      {
        "startTick": 89088,
        "endTick": 89624,
        "pitch": 48,
        "velocity": 91,
        "trackId": 1,
        "channel": 0
      },
      {
        "startTick": 89088,
        "endTick": 89824,
        "pitch": 36,
        "velocity": 82,
        "trackId": 2,
        "channel": 1
      },
      {
        "startTick": 89272,
        "endTick": 89452,
        "pitch": 56,
        "velocity": 66,
        "trackId": 1,
        "channel": 0
      },
      {
        "startTick": 89276,
        "endTick": 89320,
        "pitch": 42,
        "velocity": 26,
        "trackId": 10,
        "channel": 9
      },
      {
        "startTick": 89452,
        "endTick": 89612,
        "pitch": 63,
        "velocity": 74,
        "trackId": 1,
        "channel": 0
      },
      {
        "startTick": 89464,
        "endTick": 89612,
        "pitch": 63,
        "velocity": 66,
        "trackId": 4,
        "channel": 3
      },
      {
        "startTick": 89472,
        "endTick": 89592,
        "pitch": 42,
        "velocity": 69,
        "trackId": 10,
        "channel": 9
      },
      {
        "startTick": 89656,
        "endTick": 90036,
        "pitch": 66,
        "velocity": 91,
        "trackId": 1,
        "channel": 0
      },
      {
        "startTick": 89656,
        "endTick": 90044,
        "pitch": 63,
        "velocity": 92,
        "trackId": 1,
        "channel": 0
      },
      {
        "startTick": 89656,
        "endTick": 90232,
        "pitch": 66,
        "velocity": 73,
        "trackId": 4,
        "channel": 3
      },
      {
        "startTick": 89660,
        "endTick": 89712,
        "pitch": 42,
        "velocity": 31,
        "trackId": 10,
        "channel": 9
      },
      {
        "startTick": 89660,
        "endTick": 89824,
        "pitch": 48,
        "velocity": 80,
        "trackId": 1,
        "channel": 0
      },
      {
        "startTick": 89820,
        "endTick": 90244,
        "pitch": 90,
        "velocity": 60,
        "trackId": 3,
        "channel": 2
      },
      {
        "startTick": 89824,
        "endTick": 90264,
        "pitch": 78,
        "velocity": 52,
        "trackId": 3,
        "channel": 2
      },
      {
        "startTick": 89856,
        "endTick": 89968,
        "pitch": 42,
        "velocity": 75,
        "trackId": 10,
        "channel": 9
      },
      {
        "startTick": 89856,
        "endTick": 90096,
        "pitch": 38,
        "velocity": 73,
        "trackId": 10,
        "channel": 9
      },
      {
        "startTick": 89856,
        "endTick": 90324,
        "pitch": 33,
        "velocity": 82,
        "trackId": 2,
        "channel": 1
      },
      {
        "startTick": 89856,
        "endTick": 90384,
        "pitch": 45,
        "velocity": 101,
        "trackId": 1,
        "channel": 0
      },
      {
        "startTick": 90044,
        "endTick": 90100,
        "pitch": 42,
        "velocity": 23,
        "trackId": 10,
        "channel": 9
      },
      {
        "startTick": 90044,
        "endTick": 90600,
        "pitch": 65,
        "velocity": 70,
        "trackId": 1,
        "channel": 0
      },
      {
        "startTick": 90216,
        "endTick": 92160,
        "pitch": 77,
        "velocity": 44,
        "trackId": 3,
        "channel": 2
      },
      {
        "startTick": 90220,
        "endTick": 92156,
        "pitch": 89,
        "velocity": 56,
        "trackId": 3,
        "channel": 2
      },
      {
        "startTick": 90228,
        "endTick": 90400,
        "pitch": 65,
        "velocity": 64,
        "trackId": 4,
        "channel": 3
      },
      {
        "startTick": 90232,
        "endTick": 90612,
        "pitch": 57,
        "velocity": 66,
        "trackId": 1,
        "channel": 0
      },
      {
        "startTick": 90240,
        "endTick": 90380,
        "pitch": 42,
        "velocity": 72,
        "trackId": 10,
        "channel": 9
      },
      {
        "startTick": 90420,
        "endTick": 90600,
        "pitch": 45,
        "velocity": 58,
        "trackId": 1,
        "channel": 0
      },
      {
        "startTick": 90420,
        "endTick": 90604,
        "pitch": 60,
        "velocity": 74,
        "trackId": 1,
        "channel": 0
      },
      {
        "startTick": 90428,
        "endTick": 91024,
        "pitch": 65,
        "velocity": 66,
        "trackId": 4,
        "channel": 3
      },
      {
        "startTick": 90432,
        "endTick": 90484,
        "pitch": 42,
        "velocity": 48,
        "trackId": 10,
        "channel": 9
      },
      {
        "startTick": 90432,
        "endTick": 90528,
        "pitch": 35,
        "velocity": 64,
        "trackId": 10,
        "channel": 9
      },
      {
        "startTick": 90432,
        "endTick": 90576,
        "pitch": 33,
        "velocity": 64,
        "trackId": 2,
        "channel": 1
      },
      {
        "startTick": 90608,
        "endTick": 91384,
        "pitch": 46,
        "velocity": 92,
        "trackId": 1,
        "channel": 0
      },
      {
        "startTick": 90612,
        "endTick": 91316,
        "pitch": 53,
        "velocity": 74,
        "trackId": 1,
        "channel": 0
      },
      {
        "startTick": 90624,
        "endTick": 90720,
        "pitch": 35,
        "velocity": 82,
        "trackId": 10,
        "channel": 9
      },
      {
        "startTick": 90624,
        "endTick": 90732,
        "pitch": 42,
        "velocity": 72,
        "trackId": 10,
        "channel": 9
      },
      {
        "startTick": 90624,
        "endTick": 91368,
        "pitch": 34,
        "velocity": 82,
        "trackId": 2,
        "channel": 1
      },
      {
        "startTick": 90808,
        "endTick": 91324,
        "pitch": 60,
        "velocity": 70,
        "trackId": 1,
        "channel": 0
      },
      {
        "startTick": 90812,
        "endTick": 90856,
        "pitch": 42,
        "velocity": 23,
        "trackId": 10,
        "channel": 9
      },
      {
        "startTick": 90816,
        "endTick": 90876,
        "pitch": 41,
        "velocity": 43,
        "trackId": 11,
        "channel": 10
      },
      {
        "startTick": 90992,
        "endTick": 91340,
        "pitch": 61,
        "velocity": 74,
        "trackId": 1,
        "channel": 0
      },
      {
        "startTick": 91008,
        "endTick": 91068,
        "pitch": 45,
        "velocity": 48,
        "trackId": 11,
        "channel": 10
      },
      {
        "startTick": 91008,
        "endTick": 91128,
        "pitch": 42,
        "velocity": 69,
        "trackId": 10,
        "channel": 9
      },
      {
        "startTick": 91196,
        "endTick": 91248,
        "pitch": 42,
        "velocity": 34,
        "trackId": 10,
        "channel": 9
      },
      {
        "startTick": 91200,
        "endTick": 91260,
        "pitch": 50,
        "velocity": 48,
        "trackId": 11,
        "channel": 10
      },
      {
        "startTick": 91376,
        "endTick": 91612,
        "pitch": 61,
        "velocity": 70,
        "trackId": 1,
        "channel": 0
      },
      {
        "startTick": 91376,
        "endTick": 92156,
        "pitch": 44,
        "velocity": 92,
        "trackId": 1,
        "channel": 0
      },
      {
        "startTick": 91380,
        "endTick": 91660,
        "pitch": 65,
        "velocity": 101,
        "trackId": 1,
        "channel": 0
      },
      {
        "startTick": 91388,
        "endTick": 91604,
        "pitch": 65,
        "velocity": 73,
        "trackId": 4,
        "channel": 3
      },
      {
        "startTick": 91392,
        "endTick": 91488,
        "pitch": 54,
        "velocity": 91,
        "trackId": 10,
        "channel": 9
      },
      {
        "startTick": 91392,
        "endTick": 91504,
        "pitch": 42,
        "velocity": 75,
        "trackId": 10,
        "channel": 9
      },
      {
        "startTick": 91392,
        "endTick": 91632,
        "pitch": 38,
        "velocity": 73,
        "trackId": 10,
        "channel": 9
      },
      {
        "startTick": 91392,
        "endTick": 92120,
        "pitch": 32,
        "velocity": 82,
        "trackId": 2,
        "channel": 1
      },
      {
        "startTick": 91580,
        "endTick": 91636,
        "pitch": 42,
        "velocity": 23,
        "trackId": 10,
        "channel": 9
      },
      {
        "startTick": 91644,
        "endTick": 91856,
        "pitch": 63,
        "velocity": 74,
        "trackId": 1,
        "channel": 0
      },
      {
        "startTick": 91644,
        "endTick": 91952,
        "pitch": 66,
        "velocity": 92,
        "trackId": 1,
        "channel": 0
      },
      {
        "startTick": 91648,
        "endTick": 91856,
        "pitch": 66,
        "velocity": 73,
        "trackId": 4,
        "channel": 3
      },
      {
        "startTick": 91776,
        "endTick": 91916,
        "pitch": 42,
        "velocity": 72,
        "trackId": 10,
        "channel": 9
      },
      {
        "startTick": 91896,
        "endTick": 92116,
        "pitch": 65,
        "velocity": 83,
        "trackId": 1,
        "channel": 0
      },
      {
        "startTick": 91900,
        "endTick": 92100,
        "pitch": 68,
        "velocity": 73,
        "trackId": 4,
        "channel": 3
      },
      {
        "startTick": 91900,
        "endTick": 92160,
        "pitch": 68,
        "velocity": 97,
        "trackId": 1,
        "channel": 0
      },
      {
        "startTick": 91964,
        "endTick": 92020,
        "pitch": 42,
        "velocity": 31,
        "trackId": 10,
        "channel": 9
      },
      {
        "startTick": 92108,
        "endTick": 92936,
        "pitch": 72,
        "velocity": 55,
        "trackId": 3,
        "channel": 2
      },
      {
        "startTick": 92128,
        "endTick": 92916,
        "pitch": 84,
        "velocity": 56,
        "trackId": 3,
        "channel": 2
      },
      {
        "startTick": 92144,
        "endTick": 92500,
        "pitch": 72,
        "velocity": 82,
        "trackId": 4,
        "channel": 3
      },
      {
        "startTick": 92152,
        "endTick": 92892,
        "pitch": 42,
        "velocity": 91,
        "trackId": 1,
        "channel": 0
      },
      {
        "startTick": 92156,
        "endTick": 92356,
        "pitch": 63,
        "velocity": 92,
        "trackId": 1,
        "channel": 0
      },
      {
        "startTick": 92156,
        "endTick": 92928,
        "pitch": 72,
        "velocity": 99,
        "trackId": 1,
        "channel": 0
      },
      {
        "startTick": 92160,
        "endTick": 92256,
        "pitch": 35,
        "velocity": 82,
        "trackId": 10,
        "channel": 9
      },
      {
        "startTick": 92160,
        "endTick": 92268,
        "pitch": 42,
        "velocity": 72,
        "trackId": 10,
        "channel": 9
      },
      {
        "startTick": 92160,
        "endTick": 92892,
        "pitch": 30,
        "velocity": 82,
        "trackId": 2,
        "channel": 1
      },
      {
        "startTick": 92340,
        "endTick": 92544,
        "pitch": 70,
        "velocity": 85,
        "trackId": 1,
        "channel": 0
      },
      {
        "startTick": 92348,
        "endTick": 92392,
        "pitch": 42,
        "velocity": 26,
        "trackId": 10,
        "channel": 9
      },
      {
        "startTick": 92528,
        "endTick": 92696,
        "pitch": 70,
        "velocity": 64,
        "trackId": 4,
        "channel": 3
      },
      {
        "startTick": 92528,
        "endTick": 92928,
        "pitch": 63,
        "velocity": 76,
        "trackId": 1,
        "channel": 0
      },
      {
        "startTick": 92544,
        "endTick": 92664,
        "pitch": 42,
        "velocity": 69,
        "trackId": 10,
        "channel": 9
      },
      {
        "startTick": 92720,
        "endTick": 93292,
        "pitch": 68,
        "velocity": 73,
        "trackId": 4,
        "channel": 3
      },
      {
        "startTick": 92724,
        "endTick": 92904,
        "pitch": 68,
        "velocity": 74,
        "trackId": 1,
        "channel": 0
      },
      {
        "startTick": 92732,
        "endTick": 92784,
        "pitch": 42,
        "velocity": 31,
        "trackId": 10,
        "channel": 9
      },
      {
        "startTick": 92908,
        "endTick": 95228,
        "pitch": 80,
        "velocity": 56,
        "trackId": 3,
        "channel": 2
      },
      {
        "startTick": 92908,
        "endTick": 95240,
        "pitch": 92,
        "velocity": 64,
        "trackId": 3,
        "channel": 2
      },
      {
        "startTick": 92920,
        "endTick": 93128,
        "pitch": 61,
        "velocity": 91,
        "trackId": 1,
        "channel": 0
      },
      {
        "startTick": 92920,
        "endTick": 93332,
        "pitch": 68,
        "velocity": 97,
        "trackId": 1,
        "channel": 0
      },
      {
        "startTick": 92920,
        "endTick": 93644,
        "pitch": 41,
        "velocity": 92,
        "trackId": 1,
        "channel": 0
      },
      {
        "startTick": 92928,
        "endTick": 93040,
        "pitch": 42,
        "velocity": 75,
        "trackId": 10,
        "channel": 9
      },
      {
        "startTick": 92928,
        "endTick": 93168,
        "pitch": 38,
        "velocity": 73,
        "trackId": 10,
        "channel": 9
      },
      {
        "startTick": 92928,
        "endTick": 93460,
        "pitch": 29,
        "velocity": 82,
        "trackId": 2,
        "channel": 1
      },
      {
        "startTick": 93116,
        "endTick": 93172,
        "pitch": 42,
        "velocity": 23,
        "trackId": 10,
        "channel": 9
      },
      {
        "startTick": 93120,
        "endTick": 93640,
        "pitch": 60,
        "velocity": 68,
        "trackId": 1,
        "channel": 0
      },
      {
        "startTick": 93304,
        "endTick": 93676,
        "pitch": 61,
        "velocity": 74,
        "trackId": 1,
        "channel": 0
      },
      {
        "startTick": 93312,
        "endTick": 93452,
        "pitch": 42,
        "velocity": 72,
        "trackId": 10,
        "channel": 9
      },
      {
        "startTick": 93496,
        "endTick": 93680,
        "pitch": 68,
        "velocity": 83,
        "trackId": 1,
        "channel": 0
      },
      {
        "startTick": 93504,
        "endTick": 93556,
        "pitch": 42,
        "velocity": 48,
        "trackId": 10,
        "channel": 9
      },
      {
        "startTick": 93504,
        "endTick": 93600,
        "pitch": 35,
        "velocity": 64,
        "trackId": 10,
        "channel": 9
      },
      {
        "startTick": 93504,
        "endTick": 93648,
        "pitch": 29,
        "velocity": 64,
        "trackId": 2,
        "channel": 1
      },
      {
        "startTick": 93508,
        "endTick": 93684,
        "pitch": 61,
        "velocity": 60,
        "trackId": 4,
        "channel": 3
      },
      {
        "startTick": 93692,
        "endTick": 94032,
        "pitch": 72,
        "velocity": 82,
        "trackId": 4,
        "channel": 3
      },
      {
        "startTick": 93692,
        "endTick": 94384,
        "pitch": 42,
        "velocity": 94,
        "trackId": 1,
        "channel": 0
      },
      {
        "startTick": 93696,
        "endTick": 93792,
        "pitch": 35,
        "velocity": 82,
        "trackId": 10,
        "channel": 9
      },
      {
        "startTick": 93696,
        "endTick": 93804,
        "pitch": 42,
        "velocity": 72,
        "trackId": 10,
        "channel": 9
      },
      {
        "startTick": 93696,
        "endTick": 93996,
        "pitch": 72,
        "velocity": 96,
        "trackId": 1,
        "channel": 0
      },
      {
        "startTick": 93696,
        "endTick": 94024,
        "pitch": 68,
        "velocity": 83,
        "trackId": 1,
        "channel": 0
      },
      {
        "startTick": 93696,
        "endTick": 94264,
        "pitch": 30,
        "velocity": 82,
        "trackId": 2,
        "channel": 1
      },
      {
        "startTick": 93884,
        "endTick": 93928,
        "pitch": 42,
        "velocity": 23,
        "trackId": 10,
        "channel": 9
      },
      {
        "startTick": 93884,
        "endTick": 94520,
        "pitch": 61,
        "velocity": 58,
        "trackId": 1,
        "channel": 0
      },
      {
        "startTick": 94068,
        "endTick": 95188,
        "pitch": 73,
        "velocity": 83,
        "trackId": 1,
        "channel": 0
      },
      {
        "startTick": 94072,
        "endTick": 94272,
        "pitch": 73,
        "velocity": 73,
        "trackId": 4,
        "channel": 3
      },
      {
        "startTick": 94080,
        "endTick": 94200,
        "pitch": 42,
        "velocity": 69,
        "trackId": 10,
        "channel": 9
      },
      {
        "startTick": 94260,
        "endTick": 95152,
        "pitch": 68,
        "velocity": 94,
        "trackId": 1,
        "channel": 0
      },
      {
        "startTick": 94268,
        "endTick": 94320,
        "pitch": 42,
        "velocity": 34,
        "trackId": 10,
        "channel": 9
      },
      {
        "startTick": 94272,
        "endTick": 94424,
        "pitch": 34,
        "velocity": 64,
        "trackId": 2,
        "channel": 1
      },
      {
        "startTick": 94272,
        "endTick": 94928,
        "pitch": 68,
        "velocity": 64,
        "trackId": 4,
        "channel": 3
      },
      {
        "startTick": 94452,
        "endTick": 95228,
        "pitch": 41,
        "velocity": 83,
        "trackId": 1,
        "channel": 0
      },
      {
        "startTick": 94464,
        "endTick": 94560,
        "pitch": 54,
        "velocity": 91,
        "trackId": 10,
        "channel": 9
      },
      {
        "startTick": 94464,
        "endTick": 94576,
        "pitch": 42,
        "velocity": 75,
        "trackId": 10,
        "channel": 9
      },
      {
        "startTick": 94464,
        "endTick": 94704,
        "pitch": 38,
        "velocity": 73,
        "trackId": 10,
        "channel": 9
      },
      {
        "startTick": 94464,
        "endTick": 95196,
        "pitch": 29,
        "velocity": 82,
        "trackId": 2,
        "channel": 1
      },
      {
        "startTick": 94636,
        "endTick": 95184,
        "pitch": 61,
        "velocity": 76,
        "trackId": 1,
        "channel": 0
      },
      {
        "startTick": 94652,
        "endTick": 94708,
        "pitch": 42,
        "velocity": 23,
        "trackId": 10,
        "channel": 9
      },
      {
        "startTick": 94848,
        "endTick": 94988,
        "pitch": 42,
        "velocity": 72,
        "trackId": 10,
        "channel": 9
      },
      {
        "startTick": 95036,
        "endTick": 95092,
        "pitch": 42,
        "velocity": 31,
        "trackId": 10,
        "channel": 9
      },
      {
        "startTick": 95200,
        "endTick": 96012,
        "pitch": 85,
        "velocity": 60,
        "trackId": 3,
        "channel": 2
      },
      {
        "startTick": 95216,
        "endTick": 95568,
        "pitch": 65,
        "velocity": 73,
        "trackId": 4,
        "channel": 3
      },
      {
        "startTick": 95216,
        "endTick": 95992,
        "pitch": 73,
        "velocity": 52,
        "trackId": 3,
        "channel": 2
      },
      {
        "startTick": 95216,
        "endTick": 96008,
        "pitch": 46,
        "velocity": 83,
        "trackId": 1,
        "channel": 0
      },
      {
        "startTick": 95228,
        "endTick": 95856,
        "pitch": 65,
        "velocity": 93,
        "trackId": 1,
        "channel": 0
      },
      {
        "startTick": 95228,
        "endTick": 95956,
        "pitch": 61,
        "velocity": 86,
        "trackId": 1,
        "channel": 0
      },
      {
        "startTick": 95232,
        "endTick": 95328,
        "pitch": 35,
        "velocity": 82,
        "trackId": 10,
        "channel": 9
      },
      {
        "startTick": 95232,
        "endTick": 95340,
        "pitch": 42,
        "velocity": 72,
        "trackId": 10,
        "channel": 9
      },
      {
        "startTick": 95232,
        "endTick": 95960,
        "pitch": 34,
        "velocity": 82,
        "trackId": 2,
        "channel": 1
      },
      {
        "startTick": 95420,
        "endTick": 95464,
        "pitch": 42,
        "velocity": 26,
        "trackId": 10,
        "channel": 9
      },
      {
        "startTick": 95612,
        "endTick": 95952,
        "pitch": 70,
        "velocity": 64,
        "trackId": 4,
        "channel": 3
      },
      {
        "startTick": 95616,
        "endTick": 95736,
        "pitch": 42,
        "velocity": 69,
        "trackId": 10,
        "channel": 9
      },
      {
        "startTick": 95804,
        "endTick": 95856,
        "pitch": 42,
        "velocity": 31,
        "trackId": 10,
        "channel": 9
      },
      {
        "startTick": 95804,
        "endTick": 96012,
        "pitch": 56,
        "velocity": 74,
        "trackId": 1,
        "channel": 0
      },
      {
        "startTick": 95972,
        "endTick": 96736,
        "pitch": 87,
        "velocity": 56,
        "trackId": 3,
        "channel": 2
      },
      {
        "startTick": 95976,
        "endTick": 96744,
        "pitch": 75,
        "velocity": 60,
        "trackId": 3,
        "channel": 2
      },
      {
        "startTick": 95996,
        "endTick": 96364,
        "pitch": 61,
        "velocity": 60,
        "trackId": 4,
        "channel": 3
      },
      {
        "startTick": 95996,
        "endTick": 96752,
        "pitch": 39,
        "velocity": 92,
        "trackId": 1,
        "channel": 0
      },
      {
        "startTick": 96000,
        "endTick": 96112,
        "pitch": 42,
        "velocity": 75,
        "trackId": 10,
        "channel": 9
      },
      {
        "startTick": 96000,
        "endTick": 96240,
        "pitch": 38,
        "velocity": 73,
        "trackId": 10,
        "channel": 9
      },
      {
        "startTick": 96000,
        "endTick": 96516,
        "pitch": 27,
        "velocity": 82,
        "trackId": 2,
        "channel": 1
      },
      {
        "startTick": 96000,
        "endTick": 96792,
        "pitch": 63,
        "velocity": 83,
        "trackId": 1,
        "channel": 0
      },
      {
        "startTick": 96004,
        "endTick": 96712,
        "pitch": 58,
        "velocity": 92,
        "trackId": 1,
        "channel": 0
      },
      {
        "startTick": 96188,
        "endTick": 96244,
        "pitch": 42,
        "velocity": 23,
        "trackId": 10,
        "channel": 9
      },
      {
        "startTick": 96376,
        "endTick": 96540,
        "pitch": 63,
        "velocity": 64,
        "trackId": 4,
        "channel": 3
      },
      {
        "startTick": 96384,
        "endTick": 96524,
        "pitch": 42,
        "velocity": 72,
        "trackId": 10,
        "channel": 9
      },
      {
        "startTick": 96384,
        "endTick": 96748,
        "pitch": 55,
        "velocity": 83,
        "trackId": 1,
        "channel": 0
      },
      {
        "startTick": 96568,
        "endTick": 96716,
        "pitch": 65,
        "velocity": 73,
        "trackId": 4,
        "channel": 3
      },
      {
        "startTick": 96576,
        "endTick": 96628,
        "pitch": 42,
        "velocity": 48,
        "trackId": 10,
        "channel": 9
      },
      {
        "startTick": 96576,
        "endTick": 96672,
        "pitch": 35,
        "velocity": 64,
        "trackId": 10,
        "channel": 9
      },
      {
        "startTick": 96576,
        "endTick": 96740,
        "pitch": 27,
        "velocity": 64,
        "trackId": 2,
        "channel": 1
      },
      {
        "startTick": 96732,
        "endTick": 97120,
        "pitch": 90,
        "velocity": 64,
        "trackId": 3,
        "channel": 2
      },
      {
        "startTick": 96732,
        "endTick": 97144,
        "pitch": 78,
        "velocity": 60,
        "trackId": 3,
        "channel": 2
      },
      {
        "startTick": 96760,
        "endTick": 97176,
        "pitch": 66,
        "velocity": 92,
        "trackId": 1,
        "channel": 0
      },
      {
        "startTick": 96760,
        "endTick": 97476,
        "pitch": 58,
        "velocity": 101,
        "trackId": 1,
        "channel": 0
      },
      {
        "startTick": 96760,
        "endTick": 97508,
        "pitch": 47,
        "velocity": 97,
        "trackId": 1,
        "channel": 0
      },
      {
        "startTick": 96764,
        "endTick": 97100,
        "pitch": 66,
        "velocity": 73,
        "trackId": 4,
        "channel": 3
      },
      {
        "startTick": 96768,
        "endTick": 96864,
        "pitch": 35,
        "velocity": 82,
        "trackId": 10,
        "channel": 9
      },
      {
        "startTick": 96768,
        "endTick": 96876,
        "pitch": 42,
        "velocity": 72,
        "trackId": 10,
        "channel": 9
      },
      {
        "startTick": 96768,
        "endTick": 97324,
        "pitch": 35,
        "velocity": 82,
        "trackId": 2,
        "channel": 1
      },
      {
        "startTick": 96960,
        "endTick": 97040,
        "pitch": 38,
        "velocity": 61,
        "trackId": 10,
        "channel": 9
      },
      {
        "startTick": 97104,
        "endTick": 97556,
        "pitch": 89,
        "velocity": 64,
        "trackId": 3,
        "channel": 2
      },
      {
        "startTick": 97108,
        "endTick": 97540,
        "pitch": 77,
        "velocity": 64,
        "trackId": 3,
        "channel": 2
      },
      {
        "startTick": 97136,
        "endTick": 97524,
        "pitch": 65,
        "velocity": 73,
        "trackId": 4,
        "channel": 3
      },
      {
        "startTick": 97144,
        "endTick": 97520,
        "pitch": 65,
        "velocity": 83,
        "trackId": 1,
        "channel": 0
      },
      {
        "startTick": 97152,
        "endTick": 97232,
        "pitch": 38,
        "velocity": 81,
        "trackId": 10,
        "channel": 9
      },
      {
        "startTick": 97152,
        "endTick": 98188,
        "pitch": 72,
        "velocity": 31,
        "trackId": 14,
        "channel": 13
      },
      {
        "startTick": 97340,
        "endTick": 97392,
        "pitch": 42,
        "velocity": 34,
        "trackId": 10,
        "channel": 9
      },
      {
        "startTick": 97344,
        "endTick": 97440,
        "pitch": 35,
        "velocity": 78,
        "trackId": 10,
        "channel": 9
      },
      {
        "startTick": 97344,
        "endTick": 97508,
        "pitch": 35,
        "velocity": 64,
        "trackId": 2,
        "channel": 1
      },
      {
        "startTick": 97520,
        "endTick": 97588,
        "pitch": 68,
        "velocity": 73,
        "trackId": 6,
        "channel": 5
      },
      {
        "startTick": 97520,
        "endTick": 97928,
        "pitch": 87,
        "velocity": 73,
        "trackId": 3,
        "channel": 2
      },
      {
        "startTick": 97528,
        "endTick": 97928,
        "pitch": 75,
        "velocity": 56,
        "trackId": 3,
        "channel": 2
      },
      {
        "startTick": 97528,
        "endTick": 97956,
        "pitch": 63,
        "velocity": 99,
        "trackId": 1,
        "channel": 0
      },
      {
        "startTick": 97528,
        "endTick": 98300,
        "pitch": 54,
        "velocity": 87,
        "trackId": 1,
        "channel": 0
      },
      {
        "startTick": 97536,
        "endTick": 97632,
        "pitch": 35,
        "velocity": 82,
        "trackId": 10,
        "channel": 9
      },
      {
        "startTick": 97536,
        "endTick": 97632,
        "pitch": 54,
        "velocity": 91,
        "trackId": 10,
        "channel": 9
      },
      {
        "startTick": 97536,
        "endTick": 97648,
        "pitch": 42,
        "velocity": 75,
        "trackId": 10,
        "channel": 9
      },
      {
        "startTick": 97536,
        "endTick": 97880,
        "pitch": 32,
        "velocity": 82,
        "trackId": 2,
        "channel": 1
      },
      {
        "startTick": 97536,
        "endTick": 98284,
        "pitch": 44,
        "velocity": 97,
        "trackId": 1,
        "channel": 0
      },
      {
        "startTick": 97540,
        "endTick": 97916,
        "pitch": 63,
        "velocity": 73,
        "trackId": 4,
        "channel": 3
      },
      {
        "startTick": 97564,
        "endTick": 97656,
        "pitch": 66,
        "velocity": 58,
        "trackId": 6,
        "channel": 5
      },
      {
        "startTick": 97604,
        "endTick": 97676,
        "pitch": 65,
        "velocity": 58,
        "trackId": 6,
        "channel": 5
      },
      {
        "startTick": 97652,
        "endTick": 97724,
        "pitch": 63,
        "velocity": 55,
        "trackId": 6,
        "channel": 5
      },
      {
        "startTick": 97704,
        "endTick": 97768,
        "pitch": 61,
        "velocity": 52,
        "trackId": 6,
        "channel": 5
      },
      {
        "startTick": 97716,
        "endTick": 98304,
        "pitch": 61,
        "velocity": 74,
        "trackId": 1,
        "channel": 0
      },
      {
        "startTick": 97728,
        "endTick": 97808,
        "pitch": 38,
        "velocity": 61,
        "trackId": 10,
        "channel": 9
      },
      {
        "startTick": 97752,
        "endTick": 97816,
        "pitch": 60,
        "velocity": 52,
        "trackId": 6,
        "channel": 5
      },
      {
        "startTick": 97796,
        "endTick": 97860,
        "pitch": 58,
        "velocity": 44,
        "trackId": 6,
        "channel": 5
      },
      {
        "startTick": 97844,
        "endTick": 97916,
        "pitch": 56,
        "velocity": 36,
        "trackId": 6,
        "channel": 5
      },
      {
        "startTick": 97888,
        "endTick": 97956,
        "pitch": 54,
        "velocity": 48,
        "trackId": 6,
        "channel": 5
      },
      {
        "startTick": 97904,
        "endTick": 98312,
        "pitch": 80,
        "velocity": 64,
        "trackId": 3,
        "channel": 2
      },
      {
        "startTick": 97904,
        "endTick": 98316,
        "pitch": 92,
        "velocity": 64,
        "trackId": 3,
        "channel": 2
      },
      {
        "startTick": 97912,
        "endTick": 98288,
        "pitch": 56,
        "velocity": 83,
        "trackId": 1,
        "channel": 0
      },
      {
        "startTick": 97920,
        "endTick": 97976,
        "pitch": 57,
        "velocity": 109,
        "trackId": 5,
        "channel": 4
      },
      {
        "startTick": 97920,
        "endTick": 98000,
        "pitch": 38,
        "velocity": 81,
        "trackId": 10,
        "channel": 9
      },
      {
        "startTick": 97920,
        "endTick": 98260,
        "pitch": 61,
        "velocity": 73,
        "trackId": 4,
        "channel": 3
      },
      {
        "startTick": 97920,
        "endTick": 98264,
        "pitch": 32,
        "velocity": 82,
        "trackId": 2,
        "channel": 1
      },
      {
        "startTick": 97936,
        "endTick": 98004,
        "pitch": 53,
        "velocity": 52,
        "trackId": 6,
        "channel": 5
      },
      {
        "startTick": 97944,
        "endTick": 97996,
        "pitch": 56,
        "velocity": 75,
        "trackId": 5,
        "channel": 4
      },
      {
        "startTick": 97960,
        "endTick": 98012,
        "pitch": 55,
        "velocity": 78,
        "trackId": 5,
        "channel": 4
      },
      {
        "startTick": 97988,
        "endTick": 98036,
        "pitch": 54,
        "velocity": 73,
        "trackId": 5,
        "channel": 4
      },
      {
        "startTick": 97988,
        "endTick": 98052,
        "pitch": 51,
        "velocity": 52,
        "trackId": 6,
        "channel": 5
      },
      {
        "startTick": 98008,
        "endTick": 98056,
        "pitch": 53,
        "velocity": 82,
        "trackId": 5,
        "channel": 4
      },
      {
        "startTick": 98012,
        "endTick": 98096,
        "pitch": 45,
        "velocity": 73,
        "trackId": 10,
        "channel": 9
      },
      {
        "startTick": 98024,
        "endTick": 98072,
        "pitch": 52,
        "velocity": 73,
        "trackId": 5,
        "channel": 4
      },
      {
        "startTick": 98032,
        "endTick": 98100,
        "pitch": 49,
        "velocity": 48,
        "trackId": 6,
        "channel": 5
      },
      {
        "startTick": 98048,
        "endTick": 98100,
        "pitch": 51,
        "velocity": 64,
        "trackId": 5,
        "channel": 4
      },
      {
        "startTick": 98076,
        "endTick": 98124,
        "pitch": 50,
        "velocity": 64,
        "trackId": 5,
        "channel": 4
      },
      {
        "startTick": 98080,
        "endTick": 98144,
        "pitch": 48,
        "velocity": 52,
        "trackId": 6,
        "channel": 5
      },
      {
        "startTick": 98104,
        "endTick": 98152,
        "pitch": 49,
        "velocity": 60,
        "trackId": 5,
        "channel": 4
      },
      {
        "startTick": 98104,
        "endTick": 98304,
        "pitch": 43,
        "velocity": 82,
        "trackId": 10,
        "channel": 9
      },
      {
        "startTick": 98108,
        "endTick": 98308,
        "pitch": 63,
        "velocity": 92,
        "trackId": 1,
        "channel": 0
      },
      {
        "startTick": 98128,
        "endTick": 98200,
        "pitch": 46,
        "velocity": 56,
        "trackId": 6,
        "channel": 5
      },
      {
        "startTick": 98132,
        "endTick": 98180,
        "pitch": 48,
        "velocity": 56,
        "trackId": 5,
        "channel": 4
      },
      {
        "startTick": 98160,
        "endTick": 98216,
        "pitch": 47,
        "velocity": 56,
        "trackId": 5,
        "channel": 4
      },
      {
        "startTick": 98180,
        "endTick": 98376,
        "pitch": 44,
        "velocity": 48,
        "trackId": 6,
        "channel": 5
      },
      {
        "startTick": 98192,
        "endTick": 98272,
        "pitch": 46,
        "velocity": 56,
        "trackId": 5,
        "channel": 4
      },
      {
        "startTick": 98288,
        "endTick": 98940,
        "pitch": 85,
        "velocity": 78,
        "trackId": 3,
        "channel": 2
      },
      {
        "startTick": 98296,
        "endTick": 99560,
        "pitch": 69,
        "velocity": 88,
        "trackId": 1,
        "channel": 0
      },
      {
        "startTick": 98300,
        "endTick": 99080,
        "pitch": 61,
        "velocity": 82,
        "trackId": 4,
        "channel": 3
      },
      {
        "startTick": 98304,
        "endTick": 98400,
        "pitch": 35,
        "velocity": 82,
        "trackId": 10,
        "channel": 9
      },
      {
        "startTick": 98304,
        "endTick": 98704,
        "pitch": 61,
        "velocity": 91,
        "trackId": 5,
        "channel": 4
      },
      {
        "startTick": 98304,
        "endTick": 98796,
        "pitch": 52,
        "velocity": 83,
        "trackId": 1,
        "channel": 0
      },
      {
        "startTick": 98304,
        "endTick": 99004,
        "pitch": 49,
        "velocity": 64,
        "trackId": 10,
        "channel": 9
      },
      {
        "startTick": 98304,
        "endTick": 99068,
        "pitch": 64,
        "velocity": 52,
        "trackId": 3,
        "channel": 2
      },
      {
        "startTick": 98304,
        "endTick": 99608,
        "pitch": 33,
        "velocity": 82,
        "trackId": 2,
        "channel": 1
      },
      {
        "startTick": 98304,
        "endTick": 99740,
        "pitch": 45,
        "velocity": 92,
        "trackId": 1,
        "channel": 0
      },
      {
        "startTick": 98308,
        "endTick": 99076,
        "pitch": 73,
        "velocity": 52,
        "trackId": 3,
        "channel": 2
      },
      {
        "startTick": 98312,
        "endTick": 98848,
        "pitch": 61,
        "velocity": 92,
        "trackId": 1,
        "channel": 0
      },
      {
        "startTick": 98312,
        "endTick": 101292,
        "pitch": 69,
        "velocity": 44,
        "trackId": 3,
        "channel": 2
      },
      {
        "startTick": 98492,
        "endTick": 98536,
        "pitch": 42,
        "velocity": 30,
        "trackId": 10,
        "channel": 9
      },
      {
        "startTick": 98684,
        "endTick": 98876,
        "pitch": 59,
        "velocity": 73,
        "trackId": 5,
        "channel": 4
      },
      {
        "startTick": 98688,
        "endTick": 98808,
        "pitch": 42,
        "velocity": 69,
        "trackId": 10,
        "channel": 9
      },
      {
        "startTick": 98868,
        "endTick": 99224,
        "pitch": 62,
        "velocity": 83,
        "trackId": 1,
        "channel": 0
      },
      {
        "startTick": 98868,
        "endTick": 99240,
        "pitch": 62,
        "velocity": 93,
        "trackId": 5,
        "channel": 4
      },
      {
        "startTick": 98872,
        "endTick": 99408,
        "pitch": 54,
        "velocity": 92,
        "trackId": 1,
        "channel": 0
      },
      {
        "startTick": 98876,
        "endTick": 98928,
        "pitch": 42,
        "velocity": 31,
        "trackId": 10,
        "channel": 9
      },
      {
        "startTick": 98892,
        "endTick": 99276,
        "pitch": 86,
        "velocity": 73,
        "trackId": 3,
        "channel": 2
      },
      {
        "startTick": 99052,
        "endTick": 99820,
        "pitch": 66,
        "velocity": 60,
        "trackId": 3,
        "channel": 2
      },
      {
        "startTick": 99056,
        "endTick": 99820,
        "pitch": 74,
        "velocity": 73,
        "trackId": 3,
        "channel": 2
      },
      {
        "startTick": 99072,
        "endTick": 99184,
        "pitch": 42,
        "velocity": 75,
        "trackId": 10,
        "channel": 9
      },
      {
        "startTick": 99072,
        "endTick": 99312,
        "pitch": 38,
        "velocity": 73,
        "trackId": 10,
        "channel": 9
      },
      {
        "startTick": 99248,
        "endTick": 99444,
        "pitch": 61,
        "velocity": 73,
        "trackId": 5,
        "channel": 4
      },
      {
        "startTick": 99248,
        "endTick": 99464,
        "pitch": 85,
        "velocity": 73,
        "trackId": 3,
        "channel": 2
      },
      {
        "startTick": 99252,
        "endTick": 100988,
        "pitch": 61,
        "velocity": 79,
        "trackId": 1,
        "channel": 0
      },
      {
        "startTick": 99260,
        "endTick": 99316,
        "pitch": 42,
        "velocity": 31,
        "trackId": 10,
        "channel": 9
      },
      {
        "startTick": 99264,
        "endTick": 99324,
        "pitch": 80,
        "velocity": 36,
        "trackId": 10,
        "channel": 9
      },
      {
        "startTick": 99432,
        "endTick": 99640,
        "pitch": 57,
        "velocity": 78,
        "trackId": 5,
        "channel": 4
      },
      {
        "startTick": 99436,
        "endTick": 99644,
        "pitch": 81,
        "velocity": 73,
        "trackId": 3,
        "channel": 2
      },
      {
        "startTick": 99440,
        "endTick": 99656,
        "pitch": 57,
        "velocity": 79,
        "trackId": 1,
        "channel": 0
      },
      {
        "startTick": 99456,
        "endTick": 99516,
        "pitch": 80,
        "velocity": 36,
        "trackId": 10,
        "channel": 9
      },
      {
        "startTick": 99456,
        "endTick": 99596,
        "pitch": 42,
        "velocity": 72,
        "trackId": 10,
        "channel": 9
      },
      {
        "startTick": 99624,
        "endTick": 101336,
        "pitch": 76,
        "velocity": 73,
        "trackId": 3,
        "channel": 2
      },
      {
        "startTick": 99628,
        "endTick": 101328,
        "pitch": 52,
        "velocity": 85,
        "trackId": 1,
        "channel": 0
      },
      {
        "startTick": 99636,
        "endTick": 101144,
        "pitch": 52,
        "velocity": 87,
        "trackId": 5,
        "channel": 4
      },
      {
        "startTick": 99648,
        "endTick": 99700,
        "pitch": 42,
        "velocity": 48,
        "trackId": 10,
        "channel": 9
      },
      {
        "startTick": 99648,
        "endTick": 99744,
        "pitch": 35,
        "velocity": 64,
        "trackId": 10,
        "channel": 9
      },
      {
        "startTick": 99648,
        "endTick": 99804,
        "pitch": 33,
        "velocity": 64,
        "trackId": 2,
        "channel": 1
      },
      {
        "startTick": 99648,
        "endTick": 100000,
        "pitch": 81,
        "velocity": 52,
        "trackId": 10,
        "channel": 9
      },
      {
        "startTick": 99792,
        "endTick": 100560,
        "pitch": 76,
        "velocity": 52,
        "trackId": 7,
        "channel": 6
      },
      {
        "startTick": 99792,
        "endTick": 101296,
        "pitch": 64,
        "velocity": 56,
        "trackId": 3,
        "channel": 2
      },
      {
        "startTick": 99800,
        "endTick": 101296,
        "pitch": 73,
        "velocity": 56,
        "trackId": 3,
        "channel": 2
      },
      {
        "startTick": 99832,
        "endTick": 101336,
        "pitch": 45,
        "velocity": 87,
        "trackId": 1,
        "channel": 0
      },
      {
        "startTick": 99840,
        "endTick": 99936,
        "pitch": 35,
        "velocity": 82,
        "trackId": 10,
        "channel": 9
      },
      {
        "startTick": 99840,
        "endTick": 99948,
        "pitch": 42,
        "velocity": 72,
        "trackId": 10,
        "channel": 9
      },
      {
        "startTick": 99840,
        "endTick": 101296,
        "pitch": 33,
        "velocity": 82,
        "trackId": 2,
        "channel": 1
      },
      {
        "startTick": 100028,
        "endTick": 100072,
        "pitch": 42,
        "velocity": 23,
        "trackId": 10,
        "channel": 9
      },
      {
        "startTick": 100224,
        "endTick": 100344,
        "pitch": 42,
        "velocity": 69,
        "trackId": 10,
        "channel": 9
      },
      {
        "startTick": 100376,
        "endTick": 101340,
        "pitch": 88,
        "velocity": 58,
        "trackId": 7,
        "channel": 6
      },
      {
        "startTick": 100408,
        "endTick": 100612,
        "pitch": 88,
        "velocity": 73,
        "trackId": 8,
        "channel": 7
      },
      {
        "startTick": 100412,
        "endTick": 100464,
        "pitch": 42,
        "velocity": 31,
        "trackId": 10,
        "channel": 9
      },
      {
        "startTick": 100420,
        "endTick": 100684,
        "pitch": 64,
        "velocity": 62,
        "trackId": 1,
        "channel": 0
      },
      {
        "startTick": 100600,
        "endTick": 100788,
        "pitch": 85,
        "velocity": 73,
        "trackId": 8,
        "channel": 7
      },
      {
        "startTick": 100604,
        "endTick": 100964,
        "pitch": 73,
        "velocity": 92,
        "trackId": 1,
        "channel": 0
      },
      {
        "startTick": 100608,
        "endTick": 100704,
        "pitch": 54,
        "velocity": 91,
        "trackId": 10,
        "channel": 9
      },
      {
        "startTick": 100608,
        "endTick": 100720,
        "pitch": 42,
        "velocity": 75,
        "trackId": 10,
        "channel": 9
      },
      {
        "startTick": 100608,
        "endTick": 100848,
        "pitch": 38,
        "velocity": 73,
        "trackId": 10,
        "channel": 9
      },
      {
        "startTick": 100796,
        "endTick": 100852,
        "pitch": 42,
        "velocity": 23,
        "trackId": 10,
        "channel": 9
      },
      {
        "startTick": 100800,
        "endTick": 100860,
        "pitch": 80,
        "velocity": 36,
        "trackId": 10,
        "channel": 9
      },
      {
        "startTick": 100800,
        "endTick": 100972,
        "pitch": 86,
        "velocity": 72,
        "trackId": 8,
        "channel": 7
      },
      {
        "startTick": 100804,
        "endTick": 101060,
        "pitch": 62,
        "velocity": 66,
        "trackId": 1,
        "channel": 0
      },
      {
        "startTick": 100980,
        "endTick": 101180,
        "pitch": 83,
        "velocity": 73,
        "trackId": 8,
        "channel": 7
      },
      {
        "startTick": 100992,
        "endTick": 101052,
        "pitch": 80,
        "velocity": 36,
        "trackId": 10,
        "channel": 9
      },
      {
        "startTick": 100992,
        "endTick": 101132,
        "pitch": 42,
        "velocity": 72,
        "trackId": 10,
        "channel": 9
      },
      {
        "startTick": 100996,
        "endTick": 101404,
        "pitch": 71,
        "velocity": 92,
        "trackId": 1,
        "channel": 0
      },
      {
        "startTick": 101112,
        "endTick": 101164,
        "pitch": 51,
        "velocity": 49,
        "trackId": 5,
        "channel": 4
      },
      {
        "startTick": 101136,
        "endTick": 101200,
        "pitch": 50,
        "velocity": 61,
        "trackId": 5,
        "channel": 4
      },
      {
        "startTick": 101172,
        "endTick": 101364,
        "pitch": 85,
        "velocity": 72,
        "trackId": 8,
        "channel": 7
      },
      {
        "startTick": 101180,
        "endTick": 101228,
        "pitch": 49,
        "velocity": 61,
        "trackId": 5,
        "channel": 4
      },
      {
        "startTick": 101180,
        "endTick": 101236,
        "pitch": 42,
        "velocity": 34,
        "trackId": 10,
        "channel": 9
      },
      {
        "startTick": 101184,
        "endTick": 101368,
        "pitch": 61,
        "velocity": 66,
        "trackId": 1,
        "channel": 0
      },
      {
        "startTick": 101184,
        "endTick": 101536,
        "pitch": 81,
        "velocity": 52,
        "trackId": 10,
        "channel": 9
      },
      {
        "startTick": 101208,
        "endTick": 101276,
        "pitch": 48,
        "velocity": 61,
        "trackId": 5,
        "channel": 4
      },
      {
        "startTick": 101244,
        "endTick": 101304,
        "pitch": 47,
        "velocity": 43,
        "trackId": 5,
        "channel": 4
      },
      {
        "startTick": 101332,
        "endTick": 101964,
        "pitch": 85,
        "velocity": 75,
        "trackId": 3,
        "channel": 2
      },
      {
        "startTick": 101336,
        "endTick": 102108,
        "pitch": 64,
        "velocity": 60,
        "trackId": 3,
        "channel": 2
      },
      {
        "startTick": 101336,
        "endTick": 102132,
        "pitch": 73,
        "velocity": 60,
        "trackId": 3,
        "channel": 2
      },
      {
        "startTick": 101344,
        "endTick": 102836,
        "pitch": 69,
        "velocity": 52,
        "trackId": 3,
        "channel": 2
      },
      {
        "startTick": 101372,
        "endTick": 101960,
        "pitch": 64,
        "velocity": 62,
        "trackId": 1,
        "channel": 0
      },
      {
        "startTick": 101372,
        "endTick": 102132,
        "pitch": 81,
        "velocity": 81,
        "trackId": 8,
        "channel": 7
      },
      {
        "startTick": 101376,
        "endTick": 101472,
        "pitch": 35,
        "velocity": 82,
        "trackId": 10,
        "channel": 9
      },
      {
        "startTick": 101376,
        "endTick": 101484,
        "pitch": 42,
        "velocity": 72,
        "trackId": 10,
        "channel": 9
      },
      {
        "startTick": 101376,
        "endTick": 101868,
        "pitch": 52,
        "velocity": 83,
        "trackId": 1,
        "channel": 0
      },
      {
        "startTick": 101376,
        "endTick": 101912,
        "pitch": 61,
        "velocity": 92,
        "trackId": 1,
        "channel": 0
      },
      {
        "startTick": 101376,
        "endTick": 102092,
        "pitch": 45,
        "velocity": 92,
        "trackId": 1,
        "channel": 0
      },
      {
        "startTick": 101376,
        "endTick": 102108,
        "pitch": 33,
        "velocity": 82,
        "trackId": 2,
        "channel": 1
      },
      {
        "startTick": 101560,
        "endTick": 101652,
        "pitch": 52,
        "velocity": 87,
        "trackId": 5,
        "channel": 4
      },
      {
        "startTick": 101564,
        "endTick": 101608,
        "pitch": 42,
        "velocity": 26,
        "trackId": 10,
        "channel": 9
      },
      {
        "startTick": 101640,
        "endTick": 101776,
        "pitch": 54,
        "velocity": 56,
        "trackId": 5,
        "channel": 4
      },
      {
        "startTick": 101736,
        "endTick": 101880,
        "pitch": 57,
        "velocity": 75,
        "trackId": 5,
        "channel": 4
      },
      {
        "startTick": 101760,
        "endTick": 101880,
        "pitch": 42,
        "velocity": 69,
        "trackId": 10,
        "channel": 9
      },
      {
        "startTick": 101848,
        "endTick": 101968,
        "pitch": 59,
        "velocity": 61,
        "trackId": 5,
        "channel": 4
      },
      {
        "startTick": 101916,
        "endTick": 102304,
        "pitch": 86,
        "velocity": 72,
        "trackId": 3,
        "channel": 2
      },
      {
        "startTick": 101928,
        "endTick": 102320,
        "pitch": 61,
        "velocity": 87,
        "trackId": 5,
        "channel": 4
      },
      {
        "startTick": 101948,
        "endTick": 102000,
        "pitch": 42,
        "velocity": 31,
        "trackId": 10,
        "channel": 9
      },
      {
        "startTick": 101948,
        "endTick": 102324,
        "pitch": 62,
        "velocity": 83,
        "trackId": 1,
        "channel": 0
      },
      {
        "startTick": 101948,
        "endTick": 102332,
        "pitch": 54,
        "velocity": 92,
        "trackId": 1,
        "channel": 0
      },
      {
        "startTick": 101948,
        "endTick": 102332,
        "pitch": 57,
        "velocity": 63,
        "trackId": 1,
        "channel": 0
      },
      {
        "startTick": 102104,
        "endTick": 102832,
        "pitch": 66,
        "velocity": 60,
        "trackId": 3,
        "channel": 2
      },
      {
        "startTick": 102104,
        "endTick": 102860,
        "pitch": 74,
        "velocity": 73,
        "trackId": 3,
        "channel": 2
      },
      {
        "startTick": 102144,
        "endTick": 102256,
        "pitch": 42,
        "velocity": 75,
        "trackId": 10,
        "channel": 9
      },
      {
        "startTick": 102144,
        "endTick": 102384,
        "pitch": 38,
        "velocity": 73,
        "trackId": 10,
        "channel": 9
      },
      {
        "startTick": 102144,
        "endTick": 102704,
        "pitch": 42,
        "velocity": 92,
        "trackId": 1,
        "channel": 0
      },
      {
        "startTick": 102144,
        "endTick": 102716,
        "pitch": 30,
        "velocity": 82,
        "trackId": 2,
        "channel": 1
      },
      {
        "startTick": 102284,
        "endTick": 102508,
        "pitch": 85,
        "velocity": 73,
        "trackId": 3,
        "channel": 2
      },
      {
        "startTick": 102332,
        "endTick": 102388,
        "pitch": 42,
        "velocity": 23,
        "trackId": 10,
        "channel": 9
      },
      {
        "startTick": 102332,
        "endTick": 102404,
        "pitch": 59,
        "velocity": 75,
        "trackId": 5,
        "channel": 4
      },
      {
        "startTick": 102332,
        "endTick": 102532,
        "pitch": 73,
        "velocity": 64,
        "trackId": 8,
        "channel": 7
      },
      {
        "startTick": 102332,
        "endTick": 102856,
        "pitch": 61,
        "velocity": 82,
        "trackId": 1,
        "channel": 0
      },
      {
        "startTick": 102336,
        "endTick": 102396,
        "pitch": 80,
        "velocity": 36,
        "trackId": 10,
        "channel": 9
      },
      {
        "startTick": 102376,
        "endTick": 102540,
        "pitch": 61,
        "velocity": 66,
        "trackId": 5,
        "channel": 4
      },
      {
        "startTick": 102492,
        "endTick": 102912,
        "pitch": 81,
        "velocity": 72,
        "trackId": 3,
        "channel": 2
      },
      {
        "startTick": 102524,
        "endTick": 102712,
        "pitch": 76,
        "velocity": 69,
        "trackId": 8,
        "channel": 7
      },
      {
        "startTick": 102524,
        "endTick": 102912,
        "pitch": 57,
        "velocity": 82,
        "trackId": 1,
        "channel": 0
      },
      {
        "startTick": 102528,
        "endTick": 102588,
        "pitch": 80,
        "velocity": 36,
        "trackId": 10,
        "channel": 9
      },
      {
        "startTick": 102528,
        "endTick": 102668,
        "pitch": 42,
        "velocity": 72,
        "trackId": 10,
        "channel": 9
      },
      {
        "startTick": 102528,
        "endTick": 102720,
        "pitch": 64,
        "velocity": 90,
        "trackId": 5,
        "channel": 4
      },
      {
        "startTick": 102708,
        "endTick": 102900,
        "pitch": 45,
        "velocity": 74,
        "trackId": 1,
        "channel": 0
      },
      {
        "startTick": 102708,
        "endTick": 102916,
        "pitch": 52,
        "velocity": 68,
        "trackId": 1,
        "channel": 0
      },
      {
        "startTick": 102712,
        "endTick": 102900,
        "pitch": 69,
        "velocity": 91,
        "trackId": 5,
        "channel": 4
      },
      {
        "startTick": 102720,
        "endTick": 102772,
        "pitch": 42,
        "velocity": 48,
        "trackId": 10,
        "channel": 9
      },
      {
        "startTick": 102720,
        "endTick": 102816,
        "pitch": 35,
        "velocity": 64,
        "trackId": 10,
        "channel": 9
      },
      {
        "startTick": 102720,
        "endTick": 102900,
        "pitch": 33,
        "velocity": 64,
        "trackId": 2,
        "channel": 1
      },
      {
        "startTick": 102720,
        "endTick": 103072,
        "pitch": 81,
        "velocity": 52,
        "trackId": 10,
        "channel": 9
      },
      {
        "startTick": 102724,
        "endTick": 102908,
        "pitch": 81,
        "velocity": 64,
        "trackId": 8,
        "channel": 7
      },
      {
        "startTick": 102888,
        "endTick": 103300,
        "pitch": 95,
        "velocity": 73,
        "trackId": 3,
        "channel": 2
      },
      {
        "startTick": 102904,
        "endTick": 103284,
        "pitch": 71,
        "velocity": 64,
        "trackId": 3,
        "channel": 2
      },
      {
        "startTick": 102904,
        "endTick": 103512,
        "pitch": 62,
        "velocity": 83,
        "trackId": 1,
        "channel": 0
      },
      {
        "startTick": 102904,
        "endTick": 103660,
        "pitch": 53,
        "velocity": 70,
        "trackId": 1,
        "channel": 0
      },
      {
        "startTick": 102904,
        "endTick": 104056,
        "pitch": 41,
        "velocity": 92,
        "trackId": 1,
        "channel": 0
      },
      {
        "startTick": 102904,
        "endTick": 105180,
        "pitch": 62,
        "velocity": 56,
        "trackId": 3,
        "channel": 2
      },
      {
        "startTick": 102912,
        "endTick": 103008,
        "pitch": 35,
        "velocity": 82,
        "trackId": 10,
        "channel": 9
      },
      {
        "startTick": 102912,
        "endTick": 103020,
        "pitch": 42,
        "velocity": 72,
        "trackId": 10,
        "channel": 9
      },
      {
        "startTick": 102912,
        "endTick": 103288,
        "pitch": 69,
        "velocity": 100,
        "trackId": 5,
        "channel": 4
      },
      {
        "startTick": 102912,
        "endTick": 103300,
        "pitch": 83,
        "velocity": 73,
        "trackId": 8,
        "channel": 7
      },
      {
        "startTick": 102912,
        "endTick": 104032,
        "pitch": 29,
        "velocity": 82,
        "trackId": 2,
        "channel": 1
      },
      {
        "startTick": 102912,
        "endTick": 104472,
        "pitch": 53,
        "velocity": 56,
        "trackId": 3,
        "channel": 2
      },
      {
        "startTick": 103100,
        "endTick": 103144,
        "pitch": 42,
        "velocity": 23,
        "trackId": 10,
        "channel": 9
      },
      {
        "startTick": 103104,
        "endTick": 103640,
        "pitch": 50,
        "velocity": 79,
        "trackId": 1,
        "channel": 0
      },
      {
        "startTick": 103272,
        "endTick": 104056,
        "pitch": 69,
        "velocity": 73,
        "trackId": 3,
        "channel": 2
      },
      {
        "startTick": 103284,
        "endTick": 104044,
        "pitch": 93,
        "velocity": 73,
        "trackId": 3,
        "channel": 2
      },
      {
        "startTick": 103292,
        "endTick": 103460,
        "pitch": 81,
        "velocity": 64,
        "trackId": 8,
        "channel": 7
      },
      {
        "startTick": 103292,
        "endTick": 103700,
        "pitch": 57,
        "velocity": 70,
        "trackId": 1,
        "channel": 0
      },
      {
        "startTick": 103296,
        "endTick": 103416,
        "pitch": 42,
        "velocity": 69,
        "trackId": 10,
        "channel": 9
      },
      {
        "startTick": 103296,
        "endTick": 103456,
        "pitch": 69,
        "velocity": 90,
        "trackId": 5,
        "channel": 4
      },
      {
        "startTick": 103480,
        "endTick": 103648,
        "pitch": 59,
        "velocity": 83,
        "trackId": 1,
        "channel": 0
      },
      {
        "startTick": 103480,
        "endTick": 104028,
        "pitch": 69,
        "velocity": 95,
        "trackId": 5,
        "channel": 4
      },
      {
        "startTick": 103484,
        "endTick": 103536,
        "pitch": 42,
        "velocity": 34,
        "trackId": 10,
        "channel": 9
      },
      {
        "startTick": 103492,
        "endTick": 104044,
        "pitch": 81,
        "velocity": 73,
        "trackId": 8,
        "channel": 7
      },
      {
        "startTick": 103668,
        "endTick": 103696,
        "pitch": 38,
        "velocity": 52,
        "trackId": 10,
        "channel": 9
      },
      {
        "startTick": 103672,
        "endTick": 104024,
        "pitch": 62,
        "velocity": 88,
        "trackId": 1,
        "channel": 0
      },
      {
        "startTick": 103672,
        "endTick": 104048,
        "pitch": 59,
        "velocity": 66,
        "trackId": 1,
        "channel": 0
      },
      {
        "startTick": 103680,
        "endTick": 103692,
        "pitch": 38,
        "velocity": 73,
        "trackId": 10,
        "channel": 9
      },
      {
        "startTick": 103680,
        "endTick": 103776,
        "pitch": 54,
        "velocity": 91,
        "trackId": 10,
        "channel": 9
      },
      {
        "startTick": 103868,
        "endTick": 104064,
        "pitch": 53,
        "velocity": 74,
        "trackId": 1,
        "channel": 0
      },
      {
        "startTick": 103872,
        "endTick": 103932,
        "pitch": 80,
        "velocity": 36,
        "trackId": 10,
        "channel": 9
      },
      {
        "startTick": 103872,
        "endTick": 103956,
        "pitch": 45,
        "velocity": 73,
        "trackId": 10,
        "channel": 9
      },
      {
        "startTick": 104036,
        "endTick": 104472,
        "pitch": 92,
        "velocity": 82,
        "trackId": 3,
        "channel": 2
      },
      {
        "startTick": 104040,
        "endTick": 104456,
        "pitch": 68,
        "velocity": 64,
        "trackId": 3,
        "channel": 2
      },
      {
        "startTick": 104060,
        "endTick": 104320,
        "pitch": 68,
        "velocity": 91,
        "trackId": 5,
        "channel": 4
      },
      {
        "startTick": 104064,
        "endTick": 104124,
        "pitch": 80,
        "velocity": 36,
        "trackId": 10,
        "channel": 9
      },
      {
        "startTick": 104064,
        "endTick": 104260,
        "pitch": 43,
        "velocity": 82,
        "trackId": 10,
        "channel": 9
      },
      {
        "startTick": 104064,
        "endTick": 104408,
        "pitch": 62,
        "velocity": 83,
        "trackId": 1,
        "channel": 0
      },
      {
        "startTick": 104064,
        "endTick": 104416,
        "pitch": 28,
        "velocity": 82,
        "trackId": 2,
        "channel": 1
      },
      {
        "startTick": 104064,
        "endTick": 104420,
        "pitch": 56,
        "velocity": 92,
        "trackId": 1,
        "channel": 0
      },
      {
        "startTick": 104064,
        "endTick": 104424,
        "pitch": 40,
        "velocity": 92,
        "trackId": 1,
        "channel": 0
      },
      {
        "startTick": 104064,
        "endTick": 104460,
        "pitch": 80,
        "velocity": 72,
        "trackId": 8,
        "channel": 7
      },
      {
        "startTick": 104252,
        "endTick": 104308,
        "pitch": 42,
        "velocity": 31,
        "trackId": 10,
        "channel": 9
      },
      {
        "startTick": 104256,
        "endTick": 104352,
        "pitch": 35,
        "velocity": 75,
        "trackId": 10,
        "channel": 9
      },
      {
        "startTick": 104256,
        "endTick": 104608,
        "pitch": 81,
        "velocity": 52,
        "trackId": 10,
        "channel": 9
      },
      {
        "startTick": 104328,
        "endTick": 104404,
        "pitch": 69,
        "velocity": 72,
        "trackId": 5,
        "channel": 4
      },
      {
        "startTick": 104388,
        "endTick": 104464,
        "pitch": 68,
        "velocity": 69,
        "trackId": 5,
        "channel": 4
      },
      {
        "startTick": 104416,
        "endTick": 105912,
        "pitch": 59,
        "velocity": 60,
        "trackId": 3,
        "channel": 2
      },
      {
        "startTick": 104428,
        "endTick": 105200,
        "pitch": 90,
        "velocity": 73,
        "trackId": 3,
        "channel": 2
      },
      {
        "startTick": 104448,
        "endTick": 104544,
        "pitch": 35,
        "velocity": 82,
        "trackId": 10,
        "channel": 9
      },
      {
        "startTick": 104448,
        "endTick": 104860,
        "pitch": 66,
        "velocity": 90,
        "trackId": 5,
        "channel": 4
      },
      {
        "startTick": 104448,
        "endTick": 105148,
        "pitch": 49,
        "velocity": 64,
        "trackId": 10,
        "channel": 9
      },
      {
        "startTick": 104448,
        "endTick": 105160,
        "pitch": 38,
        "velocity": 92,
        "trackId": 1,
        "channel": 0
      },
      {
        "startTick": 104448,
        "endTick": 105172,
        "pitch": 26,
        "velocity": 82,
        "trackId": 2,
        "channel": 1
      },
      {
        "startTick": 104448,
        "endTick": 105180,
        "pitch": 59,
        "velocity": 88,
        "trackId": 1,
        "channel": 0
      },
      {
        "startTick": 104452,
        "endTick": 104940,
        "pitch": 54,
        "velocity": 70,
        "trackId": 1,
        "channel": 0
      },
      {
        "startTick": 104452,
        "endTick": 105220,
        "pitch": 66,
        "velocity": 64,
        "trackId": 3,
        "channel": 2
      },
      {
        "startTick": 104460,
        "endTick": 105192,
        "pitch": 78,
        "velocity": 64,
        "trackId": 8,
        "channel": 7
      },
      {
        "startTick": 104636,
        "endTick": 104680,
        "pitch": 42,
        "velocity": 26,
        "trackId": 10,
        "channel": 9
      },
      {
        "startTick": 104828,
        "endTick": 104940,
        "pitch": 54,
        "velocity": 49,
        "trackId": 5,
        "channel": 4
      },
      {
        "startTick": 104832,
        "endTick": 104952,
        "pitch": 42,
        "velocity": 69,
        "trackId": 10,
        "channel": 9
      },
      {
        "startTick": 104924,
        "endTick": 105032,
        "pitch": 61,
        "velocity": 75,
        "trackId": 5,
        "channel": 4
      },
      {
        "startTick": 105008,
        "endTick": 105180,
        "pitch": 66,
        "velocity": 90,
        "trackId": 5,
        "channel": 4
      },
      {
        "startTick": 105020,
        "endTick": 105072,
        "pitch": 42,
        "velocity": 31,
        "trackId": 10,
        "channel": 9
      },
      {
        "startTick": 105028,
        "endTick": 105204,
        "pitch": 54,
        "velocity": 66,
        "trackId": 1,
        "channel": 0
      },
      {
        "startTick": 105192,
        "endTick": 105964,
        "pitch": 89,
        "velocity": 73,
        "trackId": 3,
        "channel": 2
      },
      {
        "startTick": 105200,
        "endTick": 105928,
        "pitch": 61,
        "velocity": 60,
        "trackId": 3,
        "channel": 2
      },
      {
        "startTick": 105204,
        "endTick": 105800,
        "pitch": 65,
        "velocity": 87,
        "trackId": 5,
        "channel": 4
      },
      {
        "startTick": 105216,
        "endTick": 105328,
        "pitch": 42,
        "velocity": 75,
        "trackId": 10,
        "channel": 9
      },
      {
        "startTick": 105216,
        "endTick": 105456,
        "pitch": 38,
        "velocity": 73,
        "trackId": 10,
        "channel": 9
      },
      {
        "startTick": 105216,
        "endTick": 105948,
        "pitch": 61,
        "velocity": 96,
        "trackId": 1,
        "channel": 0
      },
      {
        "startTick": 105216,
        "endTick": 105964,
        "pitch": 25,
        "velocity": 82,
        "trackId": 2,
        "channel": 1
      },
      {
        "startTick": 105216,
        "endTick": 105972,
        "pitch": 37,
        "velocity": 92,
        "trackId": 1,
        "channel": 0
      },
      {
        "startTick": 105216,
        "endTick": 105972,
        "pitch": 65,
        "velocity": 64,
        "trackId": 3,
        "channel": 2
      },
      {
        "startTick": 105400,
        "endTick": 105980,
        "pitch": 56,
        "velocity": 58,
        "trackId": 1,
        "channel": 0
      },
      {
        "startTick": 105404,
        "endTick": 105460,
        "pitch": 42,
        "velocity": 23,
        "trackId": 10,
        "channel": 9
      },
      {
        "startTick": 105408,
        "endTick": 105468,
        "pitch": 80,
        "velocity": 36,
        "trackId": 10,
        "channel": 9
      },
      {
        "startTick": 105600,
        "endTick": 105660,
        "pitch": 80,
        "velocity": 36,
        "trackId": 10,
        "channel": 9
      },
      {
        "startTick": 105600,
        "endTick": 105740,
        "pitch": 42,
        "velocity": 72,
        "trackId": 10,
        "channel": 9
      },
      {
        "startTick": 105600,
        "endTick": 105968,
        "pitch": 53,
        "velocity": 83,
        "trackId": 1,
        "channel": 0
      },
      {
        "startTick": 105744,
        "endTick": 105816,
        "pitch": 64,
        "velocity": 64,
        "trackId": 5,
        "channel": 4
      },
      {
        "startTick": 105788,
        "endTick": 105856,
        "pitch": 63,
        "velocity": 58,
        "trackId": 5,
        "channel": 4
      },
      {
        "startTick": 105792,
        "endTick": 105844,
        "pitch": 42,
        "velocity": 48,
        "trackId": 10,
        "channel": 9
      },
      {
        "startTick": 105792,
        "endTick": 105888,
        "pitch": 35,
        "velocity": 64,
        "trackId": 10,
        "channel": 9
      },
      {
        "startTick": 105792,
        "endTick": 106144,
        "pitch": 81,
        "velocity": 52,
        "trackId": 10,
        "channel": 9
      },
      {
        "startTick": 105820,
        "endTick": 105880,
        "pitch": 62,
        "velocity": 58,
        "trackId": 5,
        "channel": 4
      },
      {
        "startTick": 105852,
        "endTick": 105904,
        "pitch": 61,
        "velocity": 55,
        "trackId": 5,
        "channel": 4
      },
      {
        "startTick": 105880,
        "endTick": 105928,
        "pitch": 60,
        "velocity": 50,
        "trackId": 5,
        "channel": 4
      },
      {
        "startTick": 105904,
        "endTick": 105952,
        "pitch": 59,
        "velocity": 46,
        "trackId": 5,
        "channel": 4
      },
      {
        "startTick": 105928,
        "endTick": 105972,
        "pitch": 58,
        "velocity": 31,
        "trackId": 5,
        "channel": 4
      },
      {
        "startTick": 105932,
        "endTick": 107592,
        "pitch": 57,
        "velocity": 52,
        "trackId": 3,
        "channel": 2
      },
      {
        "startTick": 105944,
        "endTick": 109176,
        "pitch": 93,
        "velocity": 73,
        "trackId": 3,
        "channel": 2
      },
      {
        "startTick": 105952,
        "endTick": 106004,
        "pitch": 57,
        "velocity": 26,
        "trackId": 5,
        "channel": 4
      },
      {
        "startTick": 105956,
        "endTick": 106184,
        "pitch": 61,
        "velocity": 60,
        "trackId": 3,
        "channel": 2
      },
      {
        "startTick": 105956,
        "endTick": 107532,
        "pitch": 73,
        "velocity": 52,
        "trackId": 3,
        "channel": 2
      },
      {
        "startTick": 105976,
        "endTick": 106096,
        "pitch": 54,
        "velocity": 95,
        "trackId": 5,
        "channel": 4
      },
      {
        "startTick": 105976,
        "endTick": 106180,
        "pitch": 73,
        "velocity": 61,
        "trackId": 8,
        "channel": 7
      },
      {
        "startTick": 105980,
        "endTick": 106656,
        "pitch": 61,
        "velocity": 82,
        "trackId": 1,
        "channel": 0
      },
      {
        "startTick": 105984,
        "endTick": 106080,
        "pitch": 35,
        "velocity": 82,
        "trackId": 10,
        "channel": 9
      },
      {
        "startTick": 105984,
        "endTick": 106092,
        "pitch": 42,
        "velocity": 72,
        "trackId": 10,
        "channel": 9
      },
      {
        "startTick": 105984,
        "endTick": 106152,
        "pitch": 59,
        "velocity": 74,
        "trackId": 1,
        "channel": 0
      },
      {
        "startTick": 105984,
        "endTick": 106532,
        "pitch": 30,
        "velocity": 82,
        "trackId": 2,
        "channel": 1
      },
      {
        "startTick": 105988,
        "endTick": 106664,
        "pitch": 54,
        "velocity": 74,
        "trackId": 1,
        "channel": 0
      },
      {
        "startTick": 105988,
        "endTick": 106700,
        "pitch": 42,
        "velocity": 92,
        "trackId": 1,
        "channel": 0
      },
      {
        "startTick": 106076,
        "endTick": 106176,
        "pitch": 61,
        "velocity": 72,
        "trackId": 5,
        "channel": 4
      },
      {
        "startTick": 106148,
        "endTick": 106704,
        "pitch": 57,
        "velocity": 58,
        "trackId": 1,
        "channel": 0
      },
      {
        "startTick": 106152,
        "endTick": 106384,
        "pitch": 66,
        "velocity": 64,
        "trackId": 3,
        "channel": 2
      },
      {
        "startTick": 106164,
        "endTick": 106356,
        "pitch": 64,
        "velocity": 90,
        "trackId": 5,
        "channel": 4
      },
      {
        "startTick": 106172,
        "endTick": 106216,
        "pitch": 42,
        "velocity": 23,
        "trackId": 10,
        "channel": 9
      },
      {
        "startTick": 106172,
        "endTick": 106368,
        "pitch": 78,
        "velocity": 69,
        "trackId": 8,
        "channel": 7
      },
      {
        "startTick": 106344,
        "endTick": 106536,
        "pitch": 66,
        "velocity": 73,
        "trackId": 5,
        "channel": 4
      },
      {
        "startTick": 106356,
        "endTick": 106780,
        "pitch": 68,
        "velocity": 75,
        "trackId": 3,
        "channel": 2
      },
      {
        "startTick": 106364,
        "endTick": 106748,
        "pitch": 80,
        "velocity": 73,
        "trackId": 8,
        "channel": 7
      },
      {
        "startTick": 106368,
        "endTick": 106488,
        "pitch": 42,
        "velocity": 69,
        "trackId": 10,
        "channel": 9
      },
      {
        "startTick": 106552,
        "endTick": 106860,
        "pitch": 69,
        "velocity": 91,
        "trackId": 5,
        "channel": 4
      },
      {
        "startTick": 106556,
        "endTick": 106608,
        "pitch": 42,
        "velocity": 34,
        "trackId": 10,
        "channel": 9
      },
      {
        "startTick": 106560,
        "endTick": 106720,
        "pitch": 30,
        "velocity": 64,
        "trackId": 2,
        "channel": 1
      },
      {
        "startTick": 106736,
        "endTick": 107140,
        "pitch": 69,
        "velocity": 72,
        "trackId": 3,
        "channel": 2
      },
      {
        "startTick": 106736,
        "endTick": 107492,
        "pitch": 57,
        "velocity": 70,
        "trackId": 1,
        "channel": 0
      },
      {
        "startTick": 106736,
        "endTick": 107496,
        "pitch": 61,
        "velocity": 74,
        "trackId": 1,
        "channel": 0
      },
      {
        "startTick": 106740,
        "endTick": 107496,
        "pitch": 64,
        "velocity": 83,
        "trackId": 1,
        "channel": 0
      },
      {
        "startTick": 106740,
        "endTick": 107500,
        "pitch": 66,
        "velocity": 83,
        "trackId": 1,
        "channel": 0
      },
      {
        "startTick": 106740,
        "endTick": 107516,
        "pitch": 40,
        "velocity": 91,
        "trackId": 1,
        "channel": 0
      },
      {
        "startTick": 106752,
        "endTick": 106848,
        "pitch": 54,
        "velocity": 91,
        "trackId": 10,
        "channel": 9
      },
      {
        "startTick": 106752,
        "endTick": 106864,
        "pitch": 42,
        "velocity": 75,
        "trackId": 10,
        "channel": 9
      },
      {
        "startTick": 106752,
        "endTick": 106992,
        "pitch": 38,
        "velocity": 73,
        "trackId": 10,
        "channel": 9
      },
      {
        "startTick": 106752,
        "endTick": 107116,
        "pitch": 81,
        "velocity": 73,
        "trackId": 8,
        "channel": 7
      },
      {
        "startTick": 106752,
        "endTick": 107496,
        "pitch": 28,
        "velocity": 82,
        "trackId": 2,
        "channel": 1
      },
      {
        "startTick": 106868,
        "endTick": 106920,
        "pitch": 69,
        "velocity": 61,
        "trackId": 5,
        "channel": 4
      },
      {
        "startTick": 106936,
        "endTick": 107280,
        "pitch": 76,
        "velocity": 90,
        "trackId": 5,
        "channel": 4
      },
      {
        "startTick": 106940,
        "endTick": 106996,
        "pitch": 42,
        "velocity": 23,
        "trackId": 10,
        "channel": 9
      },
      {
        "startTick": 106944,
        "endTick": 107004,
        "pitch": 80,
        "velocity": 36,
        "trackId": 10,
        "channel": 9
      },
      {
        "startTick": 107124,
        "endTick": 107524,
        "pitch": 71,
        "velocity": 73,
        "trackId": 3,
        "channel": 2
      },
      {
        "startTick": 107128,
        "endTick": 107532,
        "pitch": 83,
        "velocity": 75,
        "trackId": 8,
        "channel": 7
      },
      {
        "startTick": 107136,
        "endTick": 107196,
        "pitch": 80,
        "velocity": 36,
        "trackId": 10,
        "channel": 9
      },
      {
        "startTick": 107136,
        "endTick": 107276,
        "pitch": 42,
        "velocity": 72,
        "trackId": 10,
        "channel": 9
      },
      {
        "startTick": 107324,
        "endTick": 107380,
        "pitch": 42,
        "velocity": 31,
        "trackId": 10,
        "channel": 9
      },
      {
        "startTick": 107324,
        "endTick": 107704,
        "pitch": 79,
        "velocity": 90,
        "trackId": 5,
        "channel": 4
      },
      {
        "startTick": 107328,
        "endTick": 107680,
        "pitch": 81,
        "velocity": 52,
        "trackId": 10,
        "channel": 9
      },
      {
        "startTick": 107496,
        "endTick": 109056,
        "pitch": 62,
        "velocity": 56,
        "trackId": 3,
        "channel": 2
      },
      {
        "startTick": 107504,
        "endTick": 109076,
        "pitch": 69,
        "velocity": 56,
        "trackId": 3,
        "channel": 2
      },
      {
        "startTick": 107520,
        "endTick": 107616,
        "pitch": 35,
        "velocity": 82,
        "trackId": 10,
        "channel": 9
      },
      {
        "startTick": 107520,
        "endTick": 107628,
        "pitch": 42,
        "velocity": 72,
        "trackId": 10,
        "channel": 9
      },
      {
        "startTick": 107520,
        "endTick": 108056,
        "pitch": 33,
        "velocity": 82,
        "trackId": 2,
        "channel": 1
      },
      {
        "startTick": 107520,
        "endTick": 108260,
        "pitch": 62,
        "velocity": 101,
        "trackId": 1,
        "channel": 0
      },
      {
        "startTick": 107520,
        "endTick": 109068,
        "pitch": 81,
        "velocity": 82,
        "trackId": 8,
        "channel": 7
      },
      {
        "startTick": 107520,
        "endTick": 109072,
        "pitch": 74,
        "velocity": 52,
        "trackId": 3,
        "channel": 2
      },
      {
        "startTick": 107524,
        "endTick": 108264,
        "pitch": 59,
        "velocity": 92,
        "trackId": 1,
        "channel": 0
      },
      {
        "startTick": 107524,
        "endTick": 108272,
        "pitch": 45,
        "velocity": 83,
        "trackId": 1,
        "channel": 0
      },
      {
        "startTick": 107524,
        "endTick": 108272,
        "pitch": 55,
        "velocity": 83,
        "trackId": 1,
        "channel": 0
      },
      {
        "startTick": 107524,
        "endTick": 108276,
        "pitch": 66,
        "velocity": 70,
        "trackId": 1,
        "channel": 0
      },
      {
        "startTick": 107524,
        "endTick": 108276,
        "pitch": 69,
        "velocity": 74,
        "trackId": 1,
        "channel": 0
      },
      {
        "startTick": 107708,
        "endTick": 107752,
        "pitch": 42,
        "velocity": 26,
        "trackId": 10,
        "channel": 9
      },
      {
        "startTick": 107716,
        "endTick": 107912,
        "pitch": 79,
        "velocity": 81,
        "trackId": 5,
        "channel": 4
      },
      {
        "startTick": 107904,
        "endTick": 108024,
        "pitch": 42,
        "velocity": 69,
        "trackId": 10,
        "channel": 9
      },
      {
        "startTick": 107916,
        "endTick": 108072,
        "pitch": 81,
        "velocity": 91,
        "trackId": 5,
        "channel": 4
      },
      {
        "startTick": 108092,
        "endTick": 108144,
        "pitch": 42,
        "velocity": 31,
        "trackId": 10,
        "channel": 9
      },
      {
        "startTick": 108092,
        "endTick": 108268,
        "pitch": 76,
        "velocity": 73,
        "trackId": 5,
        "channel": 4
      },
      {
        "startTick": 108096,
        "endTick": 108256,
        "pitch": 33,
        "velocity": 64,
        "trackId": 2,
        "channel": 1
      },
      {
        "startTick": 108288,
        "endTick": 108400,
        "pitch": 81,
        "velocity": 84,
        "trackId": 5,
        "channel": 4
      },
      {
        "startTick": 108288,
        "endTick": 108400,
        "pitch": 42,
        "velocity": 75,
        "trackId": 10,
        "channel": 9
      },
      {
        "startTick": 108288,
        "endTick": 108528,
        "pitch": 38,
        "velocity": 73,
        "trackId": 10,
        "channel": 9
      },
      {
        "startTick": 108288,
        "endTick": 108624,
        "pitch": 33,
        "velocity": 83,
        "trackId": 2,
        "channel": 1
      },
      {
        "startTick": 108288,
        "endTick": 108980,
        "pitch": 45,
        "velocity": 62,
        "trackId": 1,
        "channel": 0
      },
      {
        "startTick": 108288,
        "endTick": 108996,
        "pitch": 59,
        "velocity": 58,
        "trackId": 1,
        "channel": 0
      },
      {
        "startTick": 108288,
        "endTick": 109004,
        "pitch": 62,
        "velocity": 101,
        "trackId": 1,
        "channel": 0
      },
      {
        "startTick": 108288,
        "endTick": 109008,
        "pitch": 66,
        "velocity": 92,
        "trackId": 1,
        "channel": 0
      },
      {
        "startTick": 108292,
        "endTick": 108976,
        "pitch": 55,
        "velocity": 70,
        "trackId": 1,
        "channel": 0
      },
      {
        "startTick": 108292,
        "endTick": 109000,
        "pitch": 69,
        "velocity": 83,
        "trackId": 1,
        "channel": 0
      },
      {
        "startTick": 108380,
        "endTick": 108496,
        "pitch": 76,
        "velocity": 73,
        "trackId": 5,
        "channel": 4
      },
      {
        "startTick": 108468,
        "endTick": 108572,
        "pitch": 64,
        "velocity": 73,
        "trackId": 5,
        "channel": 4
      },
      {
        "startTick": 108468,
        "endTick": 108584,
        "pitch": 83,
        "velocity": 64,
        "trackId": 5,
        "channel": 4
      },
      {
        "startTick": 108476,
        "endTick": 108532,
        "pitch": 42,
        "velocity": 23,
        "trackId": 10,
        "channel": 9
      },
      {
        "startTick": 108480,
        "endTick": 108540,
        "pitch": 80,
        "velocity": 36,
        "trackId": 10,
        "channel": 9
      },
      {
        "startTick": 108564,
        "endTick": 108692,
        "pitch": 76,
        "velocity": 73,
        "trackId": 5,
        "channel": 4
      },
      {
        "startTick": 108664,
        "endTick": 108776,
        "pitch": 85,
        "velocity": 84,
        "trackId": 5,
        "channel": 4
      },
      {
        "startTick": 108672,
        "endTick": 108732,
        "pitch": 80,
        "velocity": 36,
        "trackId": 10,
        "channel": 9
      },
      {
        "startTick": 108672,
        "endTick": 108812,
        "pitch": 42,
        "velocity": 72,
        "trackId": 10,
        "channel": 9
      },
      {
        "startTick": 108672,
        "endTick": 109008,
        "pitch": 33,
        "velocity": 83,
        "trackId": 2,
        "channel": 1
      },
      {
        "startTick": 108748,
        "endTick": 108840,
        "pitch": 76,
        "velocity": 56,
        "trackId": 5,
        "channel": 4
      },
      {
        "startTick": 108844,
        "endTick": 108964,
        "pitch": 86,
        "velocity": 82,
        "trackId": 5,
        "channel": 4
      },
      {
        "startTick": 108864,
        "endTick": 108916,
        "pitch": 42,
        "velocity": 48,
        "trackId": 10,
        "channel": 9
      },
      {
        "startTick": 108864,
        "endTick": 108960,
        "pitch": 35,
        "velocity": 66,
        "trackId": 10,
        "channel": 9
      },
      {
        "startTick": 108864,
        "endTick": 109216,
        "pitch": 81,
        "velocity": 52,
        "trackId": 10,
        "channel": 9
      },
      {
        "startTick": 108940,
        "endTick": 109028,
        "pitch": 76,
        "velocity": 64,
        "trackId": 5,
        "channel": 4
      },
      {
        "startTick": 108960,
        "endTick": 109056,
        "pitch": 35,
        "velocity": 81,
        "trackId": 10,
        "channel": 9
      },
      {
        "startTick": 109036,
        "endTick": 110412,
        "pitch": 88,
        "velocity": 91,
        "trackId": 5,
        "channel": 4
      },
      {
        "startTick": 109040,
        "endTick": 109148,
        "pitch": 45,
        "velocity": 83,
        "trackId": 1,
        "channel": 0
      },
      {
        "startTick": 109044,
        "endTick": 109076,
        "pitch": 38,
        "velocity": 55,
        "trackId": 10,
        "channel": 9
      },
      {
        "startTick": 109044,
        "endTick": 109156,
        "pitch": 69,
        "velocity": 62,
        "trackId": 1,
        "channel": 0
      },
      {
        "startTick": 109044,
        "endTick": 109160,
        "pitch": 59,
        "velocity": 101,
        "trackId": 1,
        "channel": 0
      },
      {
        "startTick": 109044,
        "endTick": 109164,
        "pitch": 62,
        "velocity": 101,
        "trackId": 1,
        "channel": 0
      },
      {
        "startTick": 109044,
        "endTick": 109168,
        "pitch": 64,
        "velocity": 92,
        "trackId": 1,
        "channel": 0
      },
      {
        "startTick": 109048,
        "endTick": 109148,
        "pitch": 55,
        "velocity": 83,
        "trackId": 1,
        "channel": 0
      },
      {
        "startTick": 109056,
        "endTick": 109204,
        "pitch": 33,
        "velocity": 82,
        "trackId": 2,
        "channel": 1
      },
      {
        "startTick": 109060,
        "endTick": 109076,
        "pitch": 38,
        "velocity": 78,
        "trackId": 10,
        "channel": 9
      },
      {
        "startTick": 109404,
        "endTick": 109452,
        "pitch": 69,
        "velocity": 70,
        "trackId": 6,
        "channel": 5
      },
      {
        "startTick": 109412,
        "endTick": 109480,
        "pitch": 68,
        "velocity": 58,
        "trackId": 6,
        "channel": 5
      },
      {
        "startTick": 109436,
        "endTick": 109508,
        "pitch": 66,
        "velocity": 55,
        "trackId": 6,
        "channel": 5
      },
      {
        "startTick": 109480,
        "endTick": 109536,
        "pitch": 64,
        "velocity": 49,
        "trackId": 6,
        "channel": 5
      },
      {
        "startTick": 109508,
        "endTick": 109568,
        "pitch": 62,
        "velocity": 63,
        "trackId": 6,
        "channel": 5
      },
      {
        "startTick": 109532,
        "endTick": 109604,
        "pitch": 61,
        "velocity": 40,
        "trackId": 6,
        "channel": 5
      },
      {
        "startTick": 109564,
        "endTick": 109644,
        "pitch": 59,
        "velocity": 34,
        "trackId": 6,
        "channel": 5
      },
      {
        "startTick": 109592,
        "endTick": 109840,
        "pitch": 90,
        "velocity": 48,
        "trackId": 3,
        "channel": 2
      },
      {
        "startTick": 109596,
        "endTick": 109692,
        "pitch": 57,
        "velocity": 31,
        "trackId": 6,
        "channel": 5
      },
      {
        "startTick": 109596,
        "endTick": 109860,
        "pitch": 78,
        "velocity": 56,
        "trackId": 3,
        "channel": 2
      },
      {
        "startTick": 109616,
        "endTick": 109828,
        "pitch": 78,
        "velocity": 60,
        "trackId": 8,
        "channel": 7
      },
      {
        "startTick": 109628,
        "endTick": 109808,
        "pitch": 66,
        "velocity": 74,
        "trackId": 1,
        "channel": 0
      },
      {
        "startTick": 109632,
        "endTick": 109712,
        "pitch": 38,
        "velocity": 58,
        "trackId": 10,
        "channel": 9
      },
      {
        "startTick": 109632,
        "endTick": 109800,
        "pitch": 66,
        "velocity": 64,
        "trackId": 4,
        "channel": 3
      },
      {
        "startTick": 109644,
        "endTick": 109744,
        "pitch": 56,
        "velocity": 26,
        "trackId": 6,
        "channel": 5
      },
      {
        "startTick": 109700,
        "endTick": 109788,
        "pitch": 54,
        "velocity": 23,
        "trackId": 6,
        "channel": 5
      },
      {
        "startTick": 109752,
        "endTick": 109800,
        "pitch": 52,
        "velocity": 23,
        "trackId": 6,
        "channel": 5
      },
      {
        "startTick": 109804,
        "endTick": 110224,
        "pitch": 91,
        "velocity": 64,
        "trackId": 3,
        "channel": 2
      },
      {
        "startTick": 109816,
        "endTick": 110184,
        "pitch": 62,
        "velocity": 70,
        "trackId": 1,
        "channel": 0
      },
      {
        "startTick": 109820,
        "endTick": 109860,
        "pitch": 59,
        "velocity": 56,
        "trackId": 6,
        "channel": 5
      },
      {
        "startTick": 109820,
        "endTick": 110224,
        "pitch": 79,
        "velocity": 69,
        "trackId": 8,
        "channel": 7
      },
      {
        "startTick": 109820,
        "endTick": 110228,
        "pitch": 79,
        "velocity": 64,
        "trackId": 3,
        "channel": 2
      },
      {
        "startTick": 109824,
        "endTick": 109904,
        "pitch": 38,
        "velocity": 78,
        "trackId": 10,
        "channel": 9
      },
      {
        "startTick": 109824,
        "endTick": 110168,
        "pitch": 67,
        "velocity": 86,
        "trackId": 1,
        "channel": 0
      },
      {
        "startTick": 109824,
        "endTick": 110184,
        "pitch": 59,
        "velocity": 83,
        "trackId": 1,
        "channel": 0
      },
      {
        "startTick": 109824,
        "endTick": 110564,
        "pitch": 50,
        "velocity": 92,
        "trackId": 1,
        "channel": 0
      },
      {
        "startTick": 109828,
        "endTick": 110156,
        "pitch": 67,
        "velocity": 82,
        "trackId": 4,
        "channel": 3
      },
      {
        "startTick": 109836,
        "endTick": 109900,
        "pitch": 57,
        "velocity": 58,
        "trackId": 6,
        "channel": 5
      },
      {
        "startTick": 109876,
        "endTick": 109936,
        "pitch": 56,
        "velocity": 58,
        "trackId": 6,
        "channel": 5
      },
      {
        "startTick": 109916,
        "endTick": 109968,
        "pitch": 54,
        "velocity": 55,
        "trackId": 6,
        "channel": 5
      },
      {
        "startTick": 109948,
        "endTick": 109992,
        "pitch": 52,
        "velocity": 49,
        "trackId": 6,
        "channel": 5
      },
      {
        "startTick": 109972,
        "endTick": 110024,
        "pitch": 50,
        "velocity": 43,
        "trackId": 6,
        "channel": 5
      },
      {
        "startTick": 110000,
        "endTick": 110048,
        "pitch": 49,
        "velocity": 37,
        "trackId": 6,
        "channel": 5
      },
      {
        "startTick": 110028,
        "endTick": 110080,
        "pitch": 47,
        "velocity": 35,
        "trackId": 6,
        "channel": 5
      },
      {
        "startTick": 110056,
        "endTick": 110112,
        "pitch": 45,
        "velocity": 34,
        "trackId": 6,
        "channel": 5
      },
      {
        "startTick": 110080,
        "endTick": 110176,
        "pitch": 47,
        "velocity": 64,
        "trackId": 10,
        "channel": 9
      },
      {
        "startTick": 110084,
        "endTick": 110144,
        "pitch": 44,
        "velocity": 30,
        "trackId": 6,
        "channel": 5
      },
      {
        "startTick": 110116,
        "endTick": 110176,
        "pitch": 42,
        "velocity": 31,
        "trackId": 6,
        "channel": 5
      },
      {
        "startTick": 110148,
        "endTick": 110256,
        "pitch": 40,
        "velocity": 29,
        "trackId": 6,
        "channel": 5
      },
      {
        "startTick": 110204,
        "endTick": 110276,
        "pitch": 38,
        "velocity": 34,
        "trackId": 6,
        "channel": 5
      },
      {
        "startTick": 110204,
        "endTick": 110588,
        "pitch": 62,
        "velocity": 66,
        "trackId": 1,
        "channel": 0
      },
      {
        "startTick": 110208,
        "endTick": 110548,
        "pitch": 71,
        "velocity": 91,
        "trackId": 4,
        "channel": 3
      },
      {
        "startTick": 110208,
        "endTick": 110576,
        "pitch": 59,
        "velocity": 74,
        "trackId": 1,
        "channel": 0
      },
      {
        "startTick": 110208,
        "endTick": 110580,
        "pitch": 67,
        "velocity": 101,
        "trackId": 1,
        "channel": 0
      },
      {
        "startTick": 110212,
        "endTick": 110584,
        "pitch": 83,
        "velocity": 72,
        "trackId": 8,
        "channel": 7
      },
      {
        "startTick": 110212,
        "endTick": 110636,
        "pitch": 95,
        "velocity": 60,
        "trackId": 3,
        "channel": 2
      },
      {
        "startTick": 110216,
        "endTick": 110644,
        "pitch": 83,
        "velocity": 64,
        "trackId": 3,
        "channel": 2
      },
      {
        "startTick": 110336,
        "endTick": 110476,
        "pitch": 45,
        "velocity": 64,
        "trackId": 10,
        "channel": 9
      },
      {
        "startTick": 110372,
        "endTick": 110444,
        "pitch": 53,
        "velocity": 66,
        "trackId": 5,
        "channel": 4
      },
      {
        "startTick": 110420,
        "endTick": 110476,
        "pitch": 52,
        "velocity": 64,
        "trackId": 5,
        "channel": 4
      },
      {
        "startTick": 110452,
        "endTick": 110500,
        "pitch": 51,
        "velocity": 49,
        "trackId": 5,
        "channel": 4
      },
      {
        "startTick": 110480,
        "endTick": 110520,
        "pitch": 50,
        "velocity": 49,
        "trackId": 5,
        "channel": 4
      },
      {
        "startTick": 110504,
        "endTick": 110540,
        "pitch": 49,
        "velocity": 49,
        "trackId": 5,
        "channel": 4
      },
      {
        "startTick": 110520,
        "endTick": 110560,
        "pitch": 48,
        "velocity": 46,
        "trackId": 5,
        "channel": 4
      },
      {
        "startTick": 110540,
        "endTick": 110580,
        "pitch": 47,
        "velocity": 43,
        "trackId": 5,
        "channel": 4
      },
      {
        "startTick": 110560,
        "endTick": 110616,
        "pitch": 46,
        "velocity": 40,
        "trackId": 5,
        "channel": 4
      },
      {
        "startTick": 110588,
        "endTick": 110644,
        "pitch": 45,
        "velocity": 40,
        "trackId": 5,
        "channel": 4
      },
      {
        "startTick": 110592,
        "endTick": 110688,
        "pitch": 35,
        "velocity": 82,
        "trackId": 10,
        "channel": 9
      },
      {
        "startTick": 110592,
        "endTick": 111292,
        "pitch": 49,
        "velocity": 64,
        "trackId": 10,
        "channel": 9
      },
      {
        "startTick": 110592,
        "endTick": 111308,
        "pitch": 30,
        "velocity": 82,
        "trackId": 2,
        "channel": 1
      },
      {
        "startTick": 110592,
        "endTick": 111324,
        "pitch": 64,
        "velocity": 92,
        "trackId": 1,
        "channel": 0
      },
      {
        "startTick": 110592,
        "endTick": 111332,
        "pitch": 61,
        "velocity": 101,
        "trackId": 1,
        "channel": 0
      },
      {
        "startTick": 110592,
        "endTick": 111392,
        "pitch": 81,
        "velocity": 78,
        "trackId": 8,
        "channel": 7
      },
      {
        "startTick": 110592,
        "endTick": 112460,
        "pitch": 69,
        "velocity": 82,
        "trackId": 4,
        "channel": 3
      },
      {
        "startTick": 110596,
        "endTick": 111312,
        "pitch": 59,
        "velocity": 83,
        "trackId": 1,
        "channel": 0
      },
      {
        "startTick": 110596,
        "endTick": 111328,
        "pitch": 69,
        "velocity": 70,
        "trackId": 1,
        "channel": 0
      },
      {
        "startTick": 110596,
        "endTick": 111372,
        "pitch": 42,
        "velocity": 95,
        "trackId": 1,
        "channel": 0
      },
      {
        "startTick": 110600,
        "endTick": 111316,
        "pitch": 57,
        "velocity": 66,
        "trackId": 1,
        "channel": 0
      },
      {
        "startTick": 110600,
        "endTick": 115204,
        "pitch": 81,
        "velocity": 68,
        "trackId": 3,
        "channel": 2
      },
      {
        "startTick": 110604,
        "endTick": 115204,
        "pitch": 93,
        "velocity": 58,
        "trackId": 3,
        "channel": 2
      },
      {
        "startTick": 110780,
        "endTick": 110824,
        "pitch": 42,
        "velocity": 30,
        "trackId": 10,
        "channel": 9
      },
      {
        "startTick": 110976,
        "endTick": 111096,
        "pitch": 42,
        "velocity": 69,
        "trackId": 10,
        "channel": 9
      },
      {
        "startTick": 111160,
        "endTick": 111540,
        "pitch": 62,
        "velocity": 66,
        "trackId": 1,
        "channel": 0
      },
      {
        "startTick": 111164,
        "endTick": 111216,
        "pitch": 42,
        "velocity": 31,
        "trackId": 10,
        "channel": 9
      },
      {
        "startTick": 111344,
        "endTick": 111832,
        "pitch": 57,
        "velocity": 83,
        "trackId": 1,
        "channel": 0
      },
      {
        "startTick": 111348,
        "endTick": 111532,
        "pitch": 45,
        "velocity": 74,
        "trackId": 1,
        "channel": 0
      },
      {
        "startTick": 111360,
        "endTick": 111472,
        "pitch": 42,
        "velocity": 75,
        "trackId": 10,
        "channel": 9
      },
      {
        "startTick": 111360,
        "endTick": 111600,
        "pitch": 38,
        "velocity": 73,
        "trackId": 10,
        "channel": 9
      },
      {
        "startTick": 111360,
        "endTick": 111908,
        "pitch": 37,
        "velocity": 82,
        "trackId": 2,
        "channel": 1
      },
      {
        "startTick": 111540,
        "endTick": 112028,
        "pitch": 67,
        "velocity": 101,
        "trackId": 1,
        "channel": 0
      },
      {
        "startTick": 111548,
        "endTick": 111604,
        "pitch": 42,
        "velocity": 31,
        "trackId": 10,
        "channel": 9
      },
      {
        "startTick": 111552,
        "endTick": 112076,
        "pitch": 49,
        "velocity": 101,
        "trackId": 1,
        "channel": 0
      },
      {
        "startTick": 111744,
        "endTick": 111884,
        "pitch": 42,
        "velocity": 72,
        "trackId": 10,
        "channel": 9
      },
      {
        "startTick": 111924,
        "endTick": 112112,
        "pitch": 57,
        "velocity": 74,
        "trackId": 1,
        "channel": 0
      },
      {
        "startTick": 111936,
        "endTick": 111988,
        "pitch": 42,
        "velocity": 48,
        "trackId": 10,
        "channel": 9
      },
      {
        "startTick": 111936,
        "endTick": 112032,
        "pitch": 35,
        "velocity": 64,
        "trackId": 10,
        "channel": 9
      },
      {
        "startTick": 111936,
        "endTick": 112084,
        "pitch": 37,
        "velocity": 64,
        "trackId": 2,
        "channel": 1
      },
      {
        "startTick": 112116,
        "endTick": 112608,
        "pitch": 66,
        "velocity": 92,
        "trackId": 1,
        "channel": 0
      },
      {
        "startTick": 112120,
        "endTick": 112900,
        "pitch": 62,
        "velocity": 83,
        "trackId": 1,
        "channel": 0
      },
      {
        "startTick": 112120,
        "endTick": 113640,
        "pitch": 50,
        "velocity": 92,
        "trackId": 1,
        "channel": 0
      },
      {
        "startTick": 112128,
        "endTick": 112224,
        "pitch": 35,
        "velocity": 82,
        "trackId": 10,
        "channel": 9
      },
      {
        "startTick": 112128,
        "endTick": 112236,
        "pitch": 42,
        "velocity": 72,
        "trackId": 10,
        "channel": 9
      },
      {
        "startTick": 112128,
        "endTick": 113640,
        "pitch": 38,
        "velocity": 82,
        "trackId": 2,
        "channel": 1
      },
      {
        "startTick": 112316,
        "endTick": 112360,
        "pitch": 42,
        "velocity": 23,
        "trackId": 10,
        "channel": 9
      },
      {
        "startTick": 112496,
        "endTick": 113016,
        "pitch": 57,
        "velocity": 58,
        "trackId": 1,
        "channel": 0
      },
      {
        "startTick": 112512,
        "endTick": 112632,
        "pitch": 42,
        "velocity": 69,
        "trackId": 10,
        "channel": 9
      },
      {
        "startTick": 112688,
        "endTick": 113348,
        "pitch": 66,
        "velocity": 97,
        "trackId": 1,
        "channel": 0
      },
      {
        "startTick": 112696,
        "endTick": 112876,
        "pitch": 66,
        "velocity": 60,
        "trackId": 4,
        "channel": 3
      },
      {
        "startTick": 112700,
        "endTick": 112752,
        "pitch": 42,
        "velocity": 31,
        "trackId": 10,
        "channel": 9
      },
      {
        "startTick": 112888,
        "endTick": 113236,
        "pitch": 67,
        "velocity": 84,
        "trackId": 4,
        "channel": 3
      },
      {
        "startTick": 112896,
        "endTick": 112992,
        "pitch": 54,
        "velocity": 91,
        "trackId": 10,
        "channel": 9
      },
      {
        "startTick": 112896,
        "endTick": 113008,
        "pitch": 42,
        "velocity": 75,
        "trackId": 10,
        "channel": 9
      },
      {
        "startTick": 112896,
        "endTick": 113136,
        "pitch": 38,
        "velocity": 73,
        "trackId": 10,
        "channel": 9
      },
      {
        "startTick": 113080,
        "endTick": 113632,
        "pitch": 57,
        "velocity": 74,
        "trackId": 1,
        "channel": 0
      },
      {
        "startTick": 113084,
        "endTick": 113140,
        "pitch": 42,
        "velocity": 23,
        "trackId": 10,
        "channel": 9
      },
      {
        "startTick": 113272,
        "endTick": 113628,
        "pitch": 71,
        "velocity": 97,
        "trackId": 1,
        "channel": 0
      },
      {
        "startTick": 113276,
        "endTick": 113620,
        "pitch": 71,
        "velocity": 87,
        "trackId": 4,
        "channel": 3
      },
      {
        "startTick": 113280,
        "endTick": 113420,
        "pitch": 42,
        "velocity": 72,
        "trackId": 10,
        "channel": 9
      },
      {
        "startTick": 113468,
        "endTick": 113524,
        "pitch": 42,
        "velocity": 34,
        "trackId": 10,
        "channel": 9
      },
      {
        "startTick": 113660,
        "endTick": 113876,
        "pitch": 64,
        "velocity": 83,
        "trackId": 1,
        "channel": 0
      },
      {
        "startTick": 113660,
        "endTick": 114028,
        "pitch": 69,
        "velocity": 73,
        "trackId": 4,
        "channel": 3
      },
      {
        "startTick": 113660,
        "endTick": 114052,
        "pitch": 69,
        "velocity": 98,
        "trackId": 1,
        "channel": 0
      },
      {
        "startTick": 113660,
        "endTick": 114384,
        "pitch": 49,
        "velocity": 88,
        "trackId": 1,
        "channel": 0
      },
      {
        "startTick": 113664,
        "endTick": 113760,
        "pitch": 35,
        "velocity": 82,
        "trackId": 10,
        "channel": 9
      },
      {
        "startTick": 113664,
        "endTick": 113772,
        "pitch": 42,
        "velocity": 72,
        "trackId": 10,
        "channel": 9
      },
      {
        "startTick": 113664,
        "endTick": 114372,
        "pitch": 37,
        "velocity": 82,
        "trackId": 2,
        "channel": 1
      },
      {
        "startTick": 113848,
        "endTick": 114028,
        "pitch": 57,
        "velocity": 66,
        "trackId": 1,
        "channel": 0
      },
      {
        "startTick": 113852,
        "endTick": 113896,
        "pitch": 42,
        "velocity": 26,
        "trackId": 10,
        "channel": 9
      },
      {
        "startTick": 114028,
        "endTick": 114188,
        "pitch": 64,
        "velocity": 74,
        "trackId": 1,
        "channel": 0
      },
      {
        "startTick": 114040,
        "endTick": 114200,
        "pitch": 64,
        "velocity": 73,
        "trackId": 4,
        "channel": 3
      },
      {
        "startTick": 114048,
        "endTick": 114168,
        "pitch": 42,
        "velocity": 69,
        "trackId": 10,
        "channel": 9
      },
      {
        "startTick": 114232,
        "endTick": 114560,
        "pitch": 64,
        "velocity": 92,
        "trackId": 1,
        "channel": 0
      },
      {
        "startTick": 114232,
        "endTick": 114572,
        "pitch": 67,
        "velocity": 91,
        "trackId": 1,
        "channel": 0
      },
      {
        "startTick": 114236,
        "endTick": 114288,
        "pitch": 42,
        "velocity": 31,
        "trackId": 10,
        "channel": 9
      },
      {
        "startTick": 114236,
        "endTick": 114804,
        "pitch": 67,
        "velocity": 90,
        "trackId": 4,
        "channel": 3
      },
      {
        "startTick": 114428,
        "endTick": 115012,
        "pitch": 49,
        "velocity": 101,
        "trackId": 1,
        "channel": 0
      },
      {
        "startTick": 114432,
        "endTick": 114544,
        "pitch": 42,
        "velocity": 75,
        "trackId": 10,
        "channel": 9
      },
      {
        "startTick": 114432,
        "endTick": 114672,
        "pitch": 38,
        "velocity": 73,
        "trackId": 10,
        "channel": 9
      },
      {
        "startTick": 114432,
        "endTick": 114944,
        "pitch": 37,
        "velocity": 82,
        "trackId": 2,
        "channel": 1
      },
      {
        "startTick": 114616,
        "endTick": 114972,
        "pitch": 64,
        "velocity": 63,
        "trackId": 1,
        "channel": 0
      },
      {
        "startTick": 114616,
        "endTick": 115172,
        "pitch": 57,
        "velocity": 66,
        "trackId": 1,
        "channel": 0
      },
      {
        "startTick": 114616,
        "endTick": 115180,
        "pitch": 66,
        "velocity": 93,
        "trackId": 1,
        "channel": 0
      },
      {
        "startTick": 114620,
        "endTick": 114676,
        "pitch": 42,
        "velocity": 23,
        "trackId": 10,
        "channel": 9
      },
      {
        "startTick": 114816,
        "endTick": 114956,
        "pitch": 42,
        "velocity": 72,
        "trackId": 10,
        "channel": 9
      },
      {
        "startTick": 114820,
        "endTick": 114976,
        "pitch": 66,
        "velocity": 73,
        "trackId": 4,
        "channel": 3
      },
      {
        "startTick": 114996,
        "endTick": 115716,
        "pitch": 62,
        "velocity": 88,
        "trackId": 1,
        "channel": 0
      },
      {
        "startTick": 115008,
        "endTick": 115060,
        "pitch": 42,
        "velocity": 48,
        "trackId": 10,
        "channel": 9
      },
      {
        "startTick": 115008,
        "endTick": 115104,
        "pitch": 35,
        "velocity": 64,
        "trackId": 10,
        "channel": 9
      },
      {
        "startTick": 115008,
        "endTick": 115156,
        "pitch": 33,
        "velocity": 64,
        "trackId": 2,
        "channel": 1
      },
      {
        "startTick": 115012,
        "endTick": 115180,
        "pitch": 45,
        "velocity": 74,
        "trackId": 1,
        "channel": 0
      },
      {
        "startTick": 115012,
        "endTick": 115592,
        "pitch": 66,
        "velocity": 82,
        "trackId": 4,
        "channel": 3
      },
      {
        "startTick": 115172,
        "endTick": 115560,
        "pitch": 78,
        "velocity": 73,
        "trackId": 3,
        "channel": 2
      },
      {
        "startTick": 115184,
        "endTick": 115564,
        "pitch": 90,
        "velocity": 60,
        "trackId": 3,
        "channel": 2
      },
      {
        "startTick": 115192,
        "endTick": 115924,
        "pitch": 66,
        "velocity": 97,
        "trackId": 1,
        "channel": 0
      },
      {
        "startTick": 115200,
        "endTick": 115296,
        "pitch": 35,
        "velocity": 82,
        "trackId": 10,
        "channel": 9
      },
      {
        "startTick": 115200,
        "endTick": 115308,
        "pitch": 42,
        "velocity": 72,
        "trackId": 10,
        "channel": 9
      },
      {
        "startTick": 115200,
        "endTick": 115924,
        "pitch": 38,
        "velocity": 82,
        "trackId": 2,
        "channel": 1
      },
      {
        "startTick": 115200,
        "endTick": 115928,
        "pitch": 57,
        "velocity": 74,
        "trackId": 1,
        "channel": 0
      },
      {
        "startTick": 115200,
        "endTick": 115944,
        "pitch": 50,
        "velocity": 92,
        "trackId": 1,
        "channel": 0
      },
      {
        "startTick": 115388,
        "endTick": 115432,
        "pitch": 42,
        "velocity": 23,
        "trackId": 10,
        "channel": 9
      },
      {
        "startTick": 115544,
        "endTick": 115948,
        "pitch": 76,
        "velocity": 73,
        "trackId": 3,
        "channel": 2
      },
      {
        "startTick": 115556,
        "endTick": 115964,
        "pitch": 88,
        "velocity": 64,
        "trackId": 3,
        "channel": 2
      },
      {
        "startTick": 115584,
        "endTick": 115704,
        "pitch": 42,
        "velocity": 69,
        "trackId": 10,
        "channel": 9
      },
      {
        "startTick": 115772,
        "endTick": 115824,
        "pitch": 42,
        "velocity": 34,
        "trackId": 10,
        "channel": 9
      },
      {
        "startTick": 115772,
        "endTick": 116696,
        "pitch": 62,
        "velocity": 62,
        "trackId": 1,
        "channel": 0
      },
      {
        "startTick": 115940,
        "endTick": 116360,
        "pitch": 74,
        "velocity": 64,
        "trackId": 3,
        "channel": 2
      },
      {
        "startTick": 115952,
        "endTick": 116332,
        "pitch": 86,
        "velocity": 64,
        "trackId": 3,
        "channel": 2
      },
      {
        "startTick": 115956,
        "endTick": 116176,
        "pitch": 66,
        "velocity": 73,
        "trackId": 4,
        "channel": 3
      },
      {
        "startTick": 115956,
        "endTick": 116236,
        "pitch": 66,
        "velocity": 101,
        "trackId": 1,
        "channel": 0
      },
      {
        "startTick": 115956,
        "endTick": 116724,
        "pitch": 57,
        "velocity": 74,
        "trackId": 1,
        "channel": 0
      },
      {
        "startTick": 115960,
        "endTick": 116184,
        "pitch": 38,
        "velocity": 83,
        "trackId": 1,
        "channel": 0
      },
      {
        "startTick": 115968,
        "endTick": 116064,
        "pitch": 54,
        "velocity": 91,
        "trackId": 10,
        "channel": 9
      },
      {
        "startTick": 115968,
        "endTick": 116080,
        "pitch": 42,
        "velocity": 75,
        "trackId": 10,
        "channel": 9
      },
      {
        "startTick": 115968,
        "endTick": 116196,
        "pitch": 26,
        "velocity": 82,
        "trackId": 2,
        "channel": 1
      },
      {
        "startTick": 115968,
        "endTick": 116208,
        "pitch": 38,
        "velocity": 73,
        "trackId": 10,
        "channel": 9
      },
      {
        "startTick": 116156,
        "endTick": 116212,
        "pitch": 42,
        "velocity": 23,
        "trackId": 10,
        "channel": 9
      },
      {
        "startTick": 116220,
        "endTick": 116528,
        "pitch": 67,
        "velocity": 92,
        "trackId": 1,
        "channel": 0
      },
      {
        "startTick": 116224,
        "endTick": 116424,
        "pitch": 28,
        "velocity": 78,
        "trackId": 2,
        "channel": 1
      },
      {
        "startTick": 116224,
        "endTick": 116432,
        "pitch": 40,
        "velocity": 74,
        "trackId": 1,
        "channel": 0
      },
      {
        "startTick": 116224,
        "endTick": 116448,
        "pitch": 67,
        "velocity": 73,
        "trackId": 4,
        "channel": 3
      },
      {
        "startTick": 116324,
        "endTick": 117116,
        "pitch": 73,
        "velocity": 61,
        "trackId": 3,
        "channel": 2
      },
      {
        "startTick": 116332,
        "endTick": 116756,
        "pitch": 85,
        "velocity": 64,
        "trackId": 3,
        "channel": 2
      },
      {
        "startTick": 116352,
        "endTick": 116492,
        "pitch": 42,
        "velocity": 72,
        "trackId": 10,
        "channel": 9
      },
      {
        "startTick": 116468,
        "endTick": 116700,
        "pitch": 42,
        "velocity": 83,
        "trackId": 1,
        "channel": 0
      },
      {
        "startTick": 116476,
        "endTick": 116736,
        "pitch": 69,
        "velocity": 97,
        "trackId": 1,
        "channel": 0
      },
      {
        "startTick": 116480,
        "endTick": 116688,
        "pitch": 30,
        "velocity": 78,
        "trackId": 2,
        "channel": 1
      },
      {
        "startTick": 116488,
        "endTick": 116656,
        "pitch": 69,
        "velocity": 73,
        "trackId": 4,
        "channel": 3
      },
      {
        "startTick": 116540,
        "endTick": 116596,
        "pitch": 42,
        "velocity": 31,
        "trackId": 10,
        "channel": 9
      },
      {
        "startTick": 116724,
        "endTick": 120604,
        "pitch": 93,
        "velocity": 57,
        "trackId": 3,
        "channel": 2
      },
      {
        "startTick": 116728,
        "endTick": 117056,
        "pitch": 73,
        "velocity": 73,
        "trackId": 4,
        "channel": 3
      },
      {
        "startTick": 116728,
        "endTick": 117468,
        "pitch": 43,
        "velocity": 91,
        "trackId": 1,
        "channel": 0
      },
      {
        "startTick": 116732,
        "endTick": 116932,
        "pitch": 64,
        "velocity": 92,
        "trackId": 1,
        "channel": 0
      },
      {
        "startTick": 116732,
        "endTick": 117504,
        "pitch": 73,
        "velocity": 99,
        "trackId": 1,
        "channel": 0
      },
      {
        "startTick": 116736,
        "endTick": 116832,
        "pitch": 35,
        "velocity": 82,
        "trackId": 10,
        "channel": 9
      },
      {
        "startTick": 116736,
        "endTick": 116844,
        "pitch": 42,
        "velocity": 72,
        "trackId": 10,
        "channel": 9
      },
      {
        "startTick": 116736,
        "endTick": 117276,
        "pitch": 31,
        "velocity": 82,
        "trackId": 2,
        "channel": 1
      },
      {
        "startTick": 116916,
        "endTick": 117120,
        "pitch": 71,
        "velocity": 85,
        "trackId": 1,
        "channel": 0
      },
      {
        "startTick": 116924,
        "endTick": 116968,
        "pitch": 42,
        "velocity": 26,
        "trackId": 10,
        "channel": 9
      },
      {
        "startTick": 117084,
        "endTick": 117500,
        "pitch": 71,
        "velocity": 64,
        "trackId": 3,
        "channel": 2
      },
      {
        "startTick": 117104,
        "endTick": 117504,
        "pitch": 64,
        "velocity": 76,
        "trackId": 1,
        "channel": 0
      },
      {
        "startTick": 117108,
        "endTick": 117448,
        "pitch": 71,
        "velocity": 73,
        "trackId": 4,
        "channel": 3
      },
      {
        "startTick": 117120,
        "endTick": 117240,
        "pitch": 42,
        "velocity": 69,
        "trackId": 10,
        "channel": 9
      },
      {
        "startTick": 117300,
        "endTick": 117480,
        "pitch": 69,
        "velocity": 74,
        "trackId": 1,
        "channel": 0
      },
      {
        "startTick": 117308,
        "endTick": 117360,
        "pitch": 42,
        "velocity": 31,
        "trackId": 10,
        "channel": 9
      },
      {
        "startTick": 117312,
        "endTick": 117460,
        "pitch": 31,
        "velocity": 64,
        "trackId": 2,
        "channel": 1
      },
      {
        "startTick": 117468,
        "endTick": 118296,
        "pitch": 69,
        "velocity": 64,
        "trackId": 3,
        "channel": 2
      },
      {
        "startTick": 117496,
        "endTick": 117704,
        "pitch": 62,
        "velocity": 91,
        "trackId": 1,
        "channel": 0
      },
      {
        "startTick": 117496,
        "endTick": 117892,
        "pitch": 69,
        "velocity": 64,
        "trackId": 4,
        "channel": 3
      },
      {
        "startTick": 117496,
        "endTick": 117908,
        "pitch": 69,
        "velocity": 97,
        "trackId": 1,
        "channel": 0
      },
      {
        "startTick": 117496,
        "endTick": 118220,
        "pitch": 42,
        "velocity": 92,
        "trackId": 1,
        "channel": 0
      },
      {
        "startTick": 117504,
        "endTick": 117616,
        "pitch": 42,
        "velocity": 75,
        "trackId": 10,
        "channel": 9
      },
      {
        "startTick": 117504,
        "endTick": 117744,
        "pitch": 38,
        "velocity": 73,
        "trackId": 10,
        "channel": 9
      },
      {
        "startTick": 117504,
        "endTick": 118040,
        "pitch": 30,
        "velocity": 82,
        "trackId": 2,
        "channel": 1
      },
      {
        "startTick": 117692,
        "endTick": 117748,
        "pitch": 42,
        "velocity": 23,
        "trackId": 10,
        "channel": 9
      },
      {
        "startTick": 117696,
        "endTick": 118216,
        "pitch": 57,
        "velocity": 79,
        "trackId": 1,
        "channel": 0
      },
      {
        "startTick": 117880,
        "endTick": 118252,
        "pitch": 62,
        "velocity": 74,
        "trackId": 1,
        "channel": 0
      },
      {
        "startTick": 117888,
        "endTick": 118028,
        "pitch": 42,
        "velocity": 72,
        "trackId": 10,
        "channel": 9
      },
      {
        "startTick": 118072,
        "endTick": 118256,
        "pitch": 69,
        "velocity": 83,
        "trackId": 1,
        "channel": 0
      },
      {
        "startTick": 118080,
        "endTick": 118132,
        "pitch": 42,
        "velocity": 48,
        "trackId": 10,
        "channel": 9
      },
      {
        "startTick": 118080,
        "endTick": 118176,
        "pitch": 35,
        "velocity": 64,
        "trackId": 10,
        "channel": 9
      },
      {
        "startTick": 118080,
        "endTick": 118228,
        "pitch": 30,
        "velocity": 64,
        "trackId": 2,
        "channel": 1
      },
      {
        "startTick": 118084,
        "endTick": 118276,
        "pitch": 62,
        "velocity": 64,
        "trackId": 4,
        "channel": 3
      },
      {
        "startTick": 118212,
        "endTick": 118668,
        "pitch": 73,
        "velocity": 64,
        "trackId": 3,
        "channel": 2
      },
      {
        "startTick": 118268,
        "endTick": 118960,
        "pitch": 43,
        "velocity": 94,
        "trackId": 1,
        "channel": 0
      },
      {
        "startTick": 118272,
        "endTick": 118368,
        "pitch": 35,
        "velocity": 82,
        "trackId": 10,
        "channel": 9
      },
      {
        "startTick": 118272,
        "endTick": 118380,
        "pitch": 42,
        "velocity": 72,
        "trackId": 10,
        "channel": 9
      },
      {
        "startTick": 118272,
        "endTick": 118572,
        "pitch": 73,
        "velocity": 96,
        "trackId": 1,
        "channel": 0
      },
      {
        "startTick": 118272,
        "endTick": 118600,
        "pitch": 69,
        "velocity": 83,
        "trackId": 1,
        "channel": 0
      },
      {
        "startTick": 118272,
        "endTick": 118812,
        "pitch": 31,
        "velocity": 82,
        "trackId": 2,
        "channel": 1
      },
      {
        "startTick": 118280,
        "endTick": 118588,
        "pitch": 73,
        "velocity": 73,
        "trackId": 4,
        "channel": 3
      },
      {
        "startTick": 118460,
        "endTick": 118504,
        "pitch": 42,
        "velocity": 23,
        "trackId": 10,
        "channel": 9
      },
      {
        "startTick": 118460,
        "endTick": 118736,
        "pitch": 62,
        "velocity": 58,
        "trackId": 1,
        "channel": 0
      },
      {
        "startTick": 118628,
        "endTick": 118868,
        "pitch": 74,
        "velocity": 73,
        "trackId": 3,
        "channel": 2
      },
      {
        "startTick": 118644,
        "endTick": 119220,
        "pitch": 74,
        "velocity": 83,
        "trackId": 1,
        "channel": 0
      },
      {
        "startTick": 118652,
        "endTick": 118828,
        "pitch": 74,
        "velocity": 64,
        "trackId": 4,
        "channel": 3
      },
      {
        "startTick": 118656,
        "endTick": 118776,
        "pitch": 42,
        "velocity": 69,
        "trackId": 10,
        "channel": 9
      },
      {
        "startTick": 118836,
        "endTick": 119228,
        "pitch": 69,
        "velocity": 94,
        "trackId": 1,
        "channel": 0
      },
      {
        "startTick": 118836,
        "endTick": 119816,
        "pitch": 69,
        "velocity": 56,
        "trackId": 3,
        "channel": 2
      },
      {
        "startTick": 118844,
        "endTick": 118896,
        "pitch": 42,
        "velocity": 34,
        "trackId": 10,
        "channel": 9
      },
      {
        "startTick": 118848,
        "endTick": 118996,
        "pitch": 31,
        "velocity": 64,
        "trackId": 2,
        "channel": 1
      },
      {
        "startTick": 118856,
        "endTick": 119408,
        "pitch": 69,
        "velocity": 73,
        "trackId": 4,
        "channel": 3
      },
      {
        "startTick": 119028,
        "endTick": 119804,
        "pitch": 42,
        "velocity": 83,
        "trackId": 1,
        "channel": 0
      },
      {
        "startTick": 119040,
        "endTick": 119136,
        "pitch": 54,
        "velocity": 91,
        "trackId": 10,
        "channel": 9
      },
      {
        "startTick": 119040,
        "endTick": 119152,
        "pitch": 42,
        "velocity": 75,
        "trackId": 10,
        "channel": 9
      },
      {
        "startTick": 119040,
        "endTick": 119280,
        "pitch": 38,
        "velocity": 73,
        "trackId": 10,
        "channel": 9
      },
      {
        "startTick": 119040,
        "endTick": 119560,
        "pitch": 30,
        "velocity": 82,
        "trackId": 2,
        "channel": 1
      },
      {
        "startTick": 119212,
        "endTick": 119440,
        "pitch": 62,
        "velocity": 62,
        "trackId": 1,
        "channel": 0
      },
      {
        "startTick": 119228,
        "endTick": 119284,
        "pitch": 42,
        "velocity": 23,
        "trackId": 10,
        "channel": 9
      },
      {
        "startTick": 119404,
        "endTick": 119824,
        "pitch": 69,
        "velocity": 91,
        "trackId": 1,
        "channel": 0
      },
      {
        "startTick": 119424,
        "endTick": 119564,
        "pitch": 42,
        "velocity": 72,
        "trackId": 10,
        "channel": 9
      },
      {
        "startTick": 119592,
        "endTick": 119780,
        "pitch": 62,
        "velocity": 58,
        "trackId": 1,
        "channel": 0
      },
      {
        "startTick": 119612,
        "endTick": 119668,
        "pitch": 42,
        "velocity": 31,
        "trackId": 10,
        "channel": 9
      },
      {
        "startTick": 119612,
        "endTick": 119792,
        "pitch": 73,
        "velocity": 64,
        "trackId": 4,
        "channel": 3
      },
      {
        "startTick": 119616,
        "endTick": 119764,
        "pitch": 30,
        "velocity": 64,
        "trackId": 2,
        "channel": 1
      },
      {
        "startTick": 119776,
        "endTick": 120744,
        "pitch": 78,
        "velocity": 60,
        "trackId": 3,
        "channel": 2
      },
      {
        "startTick": 119792,
        "endTick": 120512,
        "pitch": 66,
        "velocity": 92,
        "trackId": 1,
        "channel": 0
      },
      {
        "startTick": 119792,
        "endTick": 120544,
        "pitch": 62,
        "velocity": 101,
        "trackId": 1,
        "channel": 0
      },
      {
        "startTick": 119792,
        "endTick": 120584,
        "pitch": 47,
        "velocity": 83,
        "trackId": 1,
        "channel": 0
      },
      {
        "startTick": 119796,
        "endTick": 120540,
        "pitch": 57,
        "velocity": 83,
        "trackId": 1,
        "channel": 0
      },
      {
        "startTick": 119808,
        "endTick": 119828,
        "pitch": 49,
        "velocity": 64,
        "trackId": 10,
        "channel": 9
      },
      {
        "startTick": 119808,
        "endTick": 119904,
        "pitch": 35,
        "velocity": 82,
        "trackId": 10,
        "channel": 9
      },
      {
        "startTick": 119808,
        "endTick": 120332,
        "pitch": 74,
        "velocity": 82,
        "trackId": 4,
        "channel": 3
      },
      {
        "startTick": 119808,
        "endTick": 120504,
        "pitch": 35,
        "velocity": 82,
        "trackId": 2,
        "channel": 1
      },
      {
        "startTick": 119996,
        "endTick": 120040,
        "pitch": 42,
        "velocity": 26,
        "trackId": 10,
        "channel": 9
      },
      {
        "startTick": 120192,
        "endTick": 120312,
        "pitch": 42,
        "velocity": 69,
        "trackId": 10,
        "channel": 9
      },
      {
        "startTick": 120376,
        "endTick": 120576,
        "pitch": 74,
        "velocity": 64,
        "trackId": 4,
        "channel": 3
      },
      {
        "startTick": 120380,
        "endTick": 120432,
        "pitch": 42,
        "velocity": 31,
        "trackId": 10,
        "channel": 9
      },
      {
        "startTick": 120536,
        "endTick": 120928,
        "pitch": 90,
        "velocity": 64,
        "trackId": 3,
        "channel": 2
      },
      {
        "startTick": 120564,
        "endTick": 121336,
        "pitch": 66,
        "velocity": 74,
        "trackId": 1,
        "channel": 0
      },
      {
        "startTick": 120568,
        "endTick": 120652,
        "pitch": 73,
        "velocity": 56,
        "trackId": 4,
        "channel": 3
      },
      {
        "startTick": 120568,
        "endTick": 120976,
        "pitch": 62,
        "velocity": 83,
        "trackId": 1,
        "channel": 0
      },
      {
        "startTick": 120568,
        "endTick": 121316,
        "pitch": 56,
        "velocity": 83,
        "trackId": 1,
        "channel": 0
      },
      {
        "startTick": 120568,
        "endTick": 121316,
        "pitch": 59,
        "velocity": 83,
        "trackId": 1,
        "channel": 0
      },
      {
        "startTick": 120572,
        "endTick": 121152,
        "pitch": 40,
        "velocity": 92,
        "trackId": 1,
        "channel": 0
      },
      {
        "startTick": 120576,
        "endTick": 120596,
        "pitch": 57,
        "velocity": 64,
        "trackId": 10,
        "channel": 9
      },
      {
        "startTick": 120576,
        "endTick": 120816,
        "pitch": 38,
        "velocity": 73,
        "trackId": 10,
        "channel": 9
      },
      {
        "startTick": 120576,
        "endTick": 121096,
        "pitch": 28,
        "velocity": 82,
        "trackId": 2,
        "channel": 1
      },
      {
        "startTick": 120636,
        "endTick": 120736,
        "pitch": 71,
        "velocity": 64,
        "trackId": 4,
        "channel": 3
      },
      {
        "startTick": 120716,
        "endTick": 121112,
        "pitch": 69,
        "velocity": 73,
        "trackId": 4,
        "channel": 3
      },
      {
        "startTick": 120736,
        "endTick": 121324,
        "pitch": 76,
        "velocity": 56,
        "trackId": 3,
        "channel": 2
      },
      {
        "startTick": 120764,
        "endTick": 120820,
        "pitch": 42,
        "velocity": 23,
        "trackId": 10,
        "channel": 9
      },
      {
        "startTick": 120912,
        "endTick": 121364,
        "pitch": 88,
        "velocity": 56,
        "trackId": 3,
        "channel": 2
      },
      {
        "startTick": 120936,
        "endTick": 121300,
        "pitch": 64,
        "velocity": 83,
        "trackId": 1,
        "channel": 0
      },
      {
        "startTick": 120960,
        "endTick": 121100,
        "pitch": 42,
        "velocity": 72,
        "trackId": 10,
        "channel": 9
      },
      {
        "startTick": 121152,
        "endTick": 121204,
        "pitch": 42,
        "velocity": 48,
        "trackId": 10,
        "channel": 9
      },
      {
        "startTick": 121152,
        "endTick": 121248,
        "pitch": 35,
        "velocity": 64,
        "trackId": 10,
        "channel": 9
      },
      {
        "startTick": 121152,
        "endTick": 121312,
        "pitch": 47,
        "velocity": 82,
        "trackId": 1,
        "channel": 0
      },
      {
        "startTick": 121152,
        "endTick": 121316,
        "pitch": 69,
        "velocity": 73,
        "trackId": 4,
        "channel": 3
      },
      {
        "startTick": 121152,
        "endTick": 121344,
        "pitch": 28,
        "velocity": 73,
        "trackId": 2,
        "channel": 1
      },
      {
        "startTick": 121292,
        "endTick": 122800,
        "pitch": 81,
        "velocity": 61,
        "trackId": 3,
        "channel": 2
      },
      {
        "startTick": 121320,
        "endTick": 122796,
        "pitch": 93,
        "velocity": 63,
        "trackId": 3,
        "channel": 2
      },
      {
        "startTick": 121332,
        "endTick": 121900,
        "pitch": 64,
        "velocity": 83,
        "trackId": 1,
        "channel": 0
      },
      {
        "startTick": 121336,
        "endTick": 121548,
        "pitch": 62,
        "velocity": 91,
        "trackId": 1,
        "channel": 0
      },
      {
        "startTick": 121336,
        "endTick": 121888,
        "pitch": 55,
        "velocity": 70,
        "trackId": 1,
        "channel": 0
      },
      {
        "startTick": 121336,
        "endTick": 122084,
        "pitch": 45,
        "velocity": 101,
        "trackId": 1,
        "channel": 0
      },
      {
        "startTick": 121344,
        "endTick": 121364,
        "pitch": 49,
        "velocity": 64,
        "trackId": 10,
        "channel": 9
      },
      {
        "startTick": 121344,
        "endTick": 121440,
        "pitch": 35,
        "velocity": 82,
        "trackId": 10,
        "channel": 9
      },
      {
        "startTick": 121344,
        "endTick": 121860,
        "pitch": 69,
        "velocity": 91,
        "trackId": 4,
        "channel": 3
      },
      {
        "startTick": 121344,
        "endTick": 122804,
        "pitch": 33,
        "velocity": 82,
        "trackId": 2,
        "channel": 1
      },
      {
        "startTick": 121524,
        "endTick": 121856,
        "pitch": 61,
        "velocity": 56,
        "trackId": 1,
        "channel": 0
      },
      {
        "startTick": 121532,
        "endTick": 121588,
        "pitch": 42,
        "velocity": 48,
        "trackId": 10,
        "channel": 9
      },
      {
        "startTick": 121712,
        "endTick": 121884,
        "pitch": 57,
        "velocity": 72,
        "trackId": 1,
        "channel": 0
      },
      {
        "startTick": 121728,
        "endTick": 121840,
        "pitch": 42,
        "velocity": 75,
        "trackId": 10,
        "channel": 9
      },
      {
        "startTick": 121728,
        "endTick": 122764,
        "pitch": 72,
        "velocity": 31,
        "trackId": 14,
        "channel": 13
      },
      {
        "startTick": 121908,
        "endTick": 122060,
        "pitch": 66,
        "velocity": 74,
        "trackId": 1,
        "channel": 0
      },
      {
        "startTick": 121912,
        "endTick": 122080,
        "pitch": 57,
        "velocity": 74,
        "trackId": 1,
        "channel": 0
      },
      {
        "startTick": 121920,
        "endTick": 122000,
        "pitch": 38,
        "velocity": 61,
        "trackId": 10,
        "channel": 9
      },
      {
        "startTick": 121920,
        "endTick": 122016,
        "pitch": 35,
        "velocity": 78,
        "trackId": 10,
        "channel": 9
      },
      {
        "startTick": 121920,
        "endTick": 122064,
        "pitch": 66,
        "velocity": 56,
        "trackId": 4,
        "channel": 3
      },
      {
        "startTick": 122040,
        "endTick": 122092,
        "pitch": 42,
        "velocity": 37,
        "trackId": 6,
        "channel": 5
      },
      {
        "startTick": 122076,
        "endTick": 122140,
        "pitch": 44,
        "velocity": 37,
        "trackId": 6,
        "channel": 5
      },
      {
        "startTick": 122104,
        "endTick": 122468,
        "pitch": 67,
        "velocity": 89,
        "trackId": 1,
        "channel": 0
      },
      {
        "startTick": 122108,
        "endTick": 122452,
        "pitch": 59,
        "velocity": 98,
        "trackId": 1,
        "channel": 0
      },
      {
        "startTick": 122112,
        "endTick": 122192,
        "pitch": 38,
        "velocity": 81,
        "trackId": 10,
        "channel": 9
      },
      {
        "startTick": 122112,
        "endTick": 122208,
        "pitch": 35,
        "velocity": 82,
        "trackId": 10,
        "channel": 9
      },
      {
        "startTick": 122112,
        "endTick": 122208,
        "pitch": 54,
        "velocity": 91,
        "trackId": 10,
        "channel": 9
      },
      {
        "startTick": 122112,
        "endTick": 122284,
        "pitch": 45,
        "velocity": 83,
        "trackId": 1,
        "channel": 0
      },
      {
        "startTick": 122112,
        "endTick": 122488,
        "pitch": 67,
        "velocity": 87,
        "trackId": 4,
        "channel": 3
      },
      {
        "startTick": 122124,
        "endTick": 122176,
        "pitch": 45,
        "velocity": 40,
        "trackId": 6,
        "channel": 5
      },
      {
        "startTick": 122164,
        "endTick": 122216,
        "pitch": 47,
        "velocity": 40,
        "trackId": 6,
        "channel": 5
      },
      {
        "startTick": 122204,
        "endTick": 122256,
        "pitch": 49,
        "velocity": 40,
        "trackId": 6,
        "channel": 5
      },
      {
        "startTick": 122240,
        "endTick": 122288,
        "pitch": 50,
        "velocity": 40,
        "trackId": 6,
        "channel": 5
      },
      {
        "startTick": 122276,
        "endTick": 122324,
        "pitch": 52,
        "velocity": 43,
        "trackId": 6,
        "channel": 5
      },
      {
        "startTick": 122288,
        "endTick": 122448,
        "pitch": 47,
        "velocity": 70,
        "trackId": 1,
        "channel": 0
      },
      {
        "startTick": 122304,
        "endTick": 122388,
        "pitch": 45,
        "velocity": 73,
        "trackId": 10,
        "channel": 9
      },
      {
        "startTick": 122308,
        "endTick": 122360,
        "pitch": 54,
        "velocity": 43,
        "trackId": 6,
        "channel": 5
      },
      {
        "startTick": 122344,
        "endTick": 122392,
        "pitch": 56,
        "velocity": 46,
        "trackId": 6,
        "channel": 5
      },
      {
        "startTick": 122380,
        "endTick": 122424,
        "pitch": 57,
        "velocity": 46,
        "trackId": 6,
        "channel": 5
      },
      {
        "startTick": 122408,
        "endTick": 122460,
        "pitch": 59,
        "velocity": 52,
        "trackId": 6,
        "channel": 5
      },
      {
        "startTick": 122444,
        "endTick": 122488,
        "pitch": 61,
        "velocity": 55,
        "trackId": 6,
        "channel": 5
      },
      {
        "startTick": 122476,
        "endTick": 122520,
        "pitch": 62,
        "velocity": 58,
        "trackId": 6,
        "channel": 5
      },
      {
        "startTick": 122480,
        "endTick": 122632,
        "pitch": 50,
        "velocity": 83,
        "trackId": 1,
        "channel": 0
      },
      {
        "startTick": 122492,
        "endTick": 122844,
        "pitch": 62,
        "velocity": 92,
        "trackId": 1,
        "channel": 0
      },
      {
        "startTick": 122496,
        "endTick": 122692,
        "pitch": 43,
        "velocity": 82,
        "trackId": 10,
        "channel": 9
      },
      {
        "startTick": 122496,
        "endTick": 122828,
        "pitch": 71,
        "velocity": 82,
        "trackId": 4,
        "channel": 3
      },
      {
        "startTick": 122500,
        "endTick": 122860,
        "pitch": 71,
        "velocity": 95,
        "trackId": 1,
        "channel": 0
      },
      {
        "startTick": 122512,
        "endTick": 122556,
        "pitch": 64,
        "velocity": 61,
        "trackId": 6,
        "channel": 5
      },
      {
        "startTick": 122544,
        "endTick": 122588,
        "pitch": 66,
        "velocity": 66,
        "trackId": 6,
        "channel": 5
      },
      {
        "startTick": 122576,
        "endTick": 122624,
        "pitch": 68,
        "velocity": 69,
        "trackId": 6,
        "channel": 5
      },
      {
        "startTick": 122612,
        "endTick": 122660,
        "pitch": 69,
        "velocity": 69,
        "trackId": 6,
        "channel": 5
      },
      {
        "startTick": 122644,
        "endTick": 122696,
        "pitch": 71,
        "velocity": 69,
        "trackId": 6,
        "channel": 5
      },
      {
        "startTick": 122664,
        "endTick": 122852,
        "pitch": 45,
        "velocity": 83,
        "trackId": 1,
        "channel": 0
      },
      {
        "startTick": 122680,
        "endTick": 122728,
        "pitch": 73,
        "velocity": 69,
        "trackId": 6,
        "channel": 5
      },
      {
        "startTick": 122688,
        "endTick": 122736,
        "pitch": 46,
        "velocity": 58,
        "trackId": 10,
        "channel": 9
      },
      {
        "startTick": 122688,
        "endTick": 122784,
        "pitch": 35,
        "velocity": 64,
        "trackId": 10,
        "channel": 9
      },
      {
        "startTick": 122712,
        "endTick": 122764,
        "pitch": 74,
        "velocity": 69,
        "trackId": 6,
        "channel": 5
      },
      {
        "startTick": 122752,
        "endTick": 122800,
        "pitch": 76,
        "velocity": 69,
        "trackId": 6,
        "channel": 5
      },
      {
        "startTick": 122784,
        "endTick": 122836,
        "pitch": 78,
        "velocity": 58,
        "trackId": 6,
        "channel": 5
      },
      {
        "startTick": 122824,
        "endTick": 122888,
        "pitch": 80,
        "velocity": 55,
        "trackId": 6,
        "channel": 5
      },
      {
        "startTick": 122868,
        "endTick": 123044,
        "pitch": 81,
        "velocity": 49,
        "trackId": 6,
        "channel": 5
      },
      {
        "startTick": 122868,
        "endTick": 126692,
        "pitch": 93,
        "velocity": 64,
        "trackId": 3,
        "channel": 2
      },
      {
        "startTick": 122872,
        "endTick": 123084,
        "pitch": 37,
        "velocity": 93,
        "trackId": 2,
        "channel": 1
      },
      {
        "startTick": 122872,
        "endTick": 124464,
        "pitch": 69,
        "velocity": 73,
        "trackId": 4,
        "channel": 3
      },
      {
        "startTick": 122872,
        "endTick": 126724,
        "pitch": 81,
        "velocity": 56,
        "trackId": 3,
        "channel": 2
      },
      {
        "startTick": 122880,
        "endTick": 122920,
        "pitch": 44,
        "velocity": 30,
        "trackId": 10,
        "channel": 9
      },
      {
        "startTick": 122880,
        "endTick": 122976,
        "pitch": 35,
        "velocity": 82,
        "trackId": 10,
        "channel": 9
      },
      {
        "startTick": 122880,
        "endTick": 123192,
        "pitch": 61,
        "velocity": 92,
        "trackId": 1,
        "channel": 0
      },
      {
        "startTick": 122880,
        "endTick": 123220,
        "pitch": 69,
        "velocity": 95,
        "trackId": 1,
        "channel": 0
      },
      {
        "startTick": 122880,
        "endTick": 123580,
        "pitch": 49,
        "velocity": 64,
        "trackId": 10,
        "channel": 9
      },
      {
        "startTick": 122884,
        "endTick": 124000,
        "pitch": 45,
        "velocity": 95,
        "trackId": 1,
        "channel": 0
      },
      {
        "startTick": 123056,
        "endTick": 123244,
        "pitch": 33,
        "velocity": 87,
        "trackId": 2,
        "channel": 1
      },
      {
        "startTick": 123068,
        "endTick": 123112,
        "pitch": 42,
        "velocity": 30,
        "trackId": 10,
        "channel": 9
      },
      {
        "startTick": 123252,
        "endTick": 123452,
        "pitch": 28,
        "velocity": 73,
        "trackId": 2,
        "channel": 1
      },
      {
        "startTick": 123264,
        "endTick": 123384,
        "pitch": 42,
        "velocity": 69,
        "trackId": 10,
        "channel": 9
      },
      {
        "startTick": 123264,
        "endTick": 123456,
        "pitch": 61,
        "velocity": 66,
        "trackId": 1,
        "channel": 0
      },
      {
        "startTick": 123268,
        "endTick": 123464,
        "pitch": 64,
        "velocity": 66,
        "trackId": 1,
        "channel": 0
      },
      {
        "startTick": 123444,
        "endTick": 123588,
        "pitch": 57,
        "velocity": 70,
        "trackId": 1,
        "channel": 0
      },
      {
        "startTick": 123452,
        "endTick": 123504,
        "pitch": 42,
        "velocity": 31,
        "trackId": 10,
        "channel": 9
      },
      {
        "startTick": 123456,
        "endTick": 123604,
        "pitch": 33,
        "velocity": 64,
        "trackId": 2,
        "channel": 1
      },
      {
        "startTick": 123648,
        "endTick": 123760,
        "pitch": 42,
        "velocity": 75,
        "trackId": 10,
        "channel": 9
      },
      {
        "startTick": 123648,
        "endTick": 123888,
        "pitch": 38,
        "velocity": 73,
        "trackId": 10,
        "channel": 9
      },
      {
        "startTick": 123648,
        "endTick": 124008,
        "pitch": 61,
        "velocity": 92,
        "trackId": 1,
        "channel": 0
      },
      {
        "startTick": 123648,
        "endTick": 124196,
        "pitch": 37,
        "velocity": 82,
        "trackId": 2,
        "channel": 1
      },
      {
        "startTick": 123652,
        "endTick": 124008,
        "pitch": 64,
        "velocity": 83,
        "trackId": 1,
        "channel": 0
      },
      {
        "startTick": 123836,
        "endTick": 123892,
        "pitch": 42,
        "velocity": 31,
        "trackId": 10,
        "channel": 9
      },
      {
        "startTick": 124020,
        "endTick": 124400,
        "pitch": 64,
        "velocity": 92,
        "trackId": 1,
        "channel": 0
      },
      {
        "startTick": 124024,
        "endTick": 124200,
        "pitch": 45,
        "velocity": 83,
        "trackId": 1,
        "channel": 0
      },
      {
        "startTick": 124024,
        "endTick": 124400,
        "pitch": 67,
        "velocity": 74,
        "trackId": 1,
        "channel": 0
      },
      {
        "startTick": 124032,
        "endTick": 124172,
        "pitch": 42,
        "velocity": 72,
        "trackId": 10,
        "channel": 9
      },
      {
        "startTick": 124220,
        "endTick": 124384,
        "pitch": 57,
        "velocity": 66,
        "trackId": 1,
        "channel": 0
      },
      {
        "startTick": 124224,
        "endTick": 124276,
        "pitch": 42,
        "velocity": 48,
        "trackId": 10,
        "channel": 9
      },
      {
        "startTick": 124224,
        "endTick": 124320,
        "pitch": 35,
        "velocity": 64,
        "trackId": 10,
        "channel": 9
      },
      {
        "startTick": 124224,
        "endTick": 124372,
        "pitch": 37,
        "velocity": 64,
        "trackId": 2,
        "channel": 1
      },
      {
        "startTick": 124224,
        "endTick": 124400,
        "pitch": 49,
        "velocity": 83,
        "trackId": 1,
        "channel": 0
      },
      {
        "startTick": 124404,
        "endTick": 124736,
        "pitch": 66,
        "velocity": 92,
        "trackId": 1,
        "channel": 0
      },
      {
        "startTick": 124408,
        "endTick": 124928,
        "pitch": 50,
        "velocity": 92,
        "trackId": 1,
        "channel": 0
      },
      {
        "startTick": 124408,
        "endTick": 124968,
        "pitch": 62,
        "velocity": 83,
        "trackId": 1,
        "channel": 0
      },
      {
        "startTick": 124416,
        "endTick": 124512,
        "pitch": 35,
        "velocity": 82,
        "trackId": 10,
        "channel": 9
      },
      {
        "startTick": 124416,
        "endTick": 124524,
        "pitch": 42,
        "velocity": 72,
        "trackId": 10,
        "channel": 9
      },
      {
        "startTick": 124416,
        "endTick": 125148,
        "pitch": 38,
        "velocity": 82,
        "trackId": 2,
        "channel": 1
      },
      {
        "startTick": 124592,
        "endTick": 125164,
        "pitch": 57,
        "velocity": 62,
        "trackId": 1,
        "channel": 0
      },
      {
        "startTick": 124604,
        "endTick": 124648,
        "pitch": 42,
        "velocity": 23,
        "trackId": 10,
        "channel": 9
      },
      {
        "startTick": 124608,
        "endTick": 124668,
        "pitch": 41,
        "velocity": 43,
        "trackId": 11,
        "channel": 10
      },
      {
        "startTick": 124788,
        "endTick": 125180,
        "pitch": 66,
        "velocity": 83,
        "trackId": 1,
        "channel": 0
      },
      {
        "startTick": 124800,
        "endTick": 124860,
        "pitch": 45,
        "velocity": 48,
        "trackId": 11,
        "channel": 10
      },
      {
        "startTick": 124800,
        "endTick": 124920,
        "pitch": 42,
        "velocity": 69,
        "trackId": 10,
        "channel": 9
      },
      {
        "startTick": 124976,
        "endTick": 125152,
        "pitch": 62,
        "velocity": 66,
        "trackId": 1,
        "channel": 0
      },
      {
        "startTick": 124980,
        "endTick": 125148,
        "pitch": 66,
        "velocity": 73,
        "trackId": 4,
        "channel": 3
      },
      {
        "startTick": 124980,
        "endTick": 125548,
        "pitch": 69,
        "velocity": 74,
        "trackId": 1,
        "channel": 0
      },
      {
        "startTick": 124988,
        "endTick": 125040,
        "pitch": 42,
        "velocity": 31,
        "trackId": 10,
        "channel": 9
      },
      {
        "startTick": 124988,
        "endTick": 125900,
        "pitch": 50,
        "velocity": 92,
        "trackId": 1,
        "channel": 0
      },
      {
        "startTick": 124992,
        "endTick": 125052,
        "pitch": 50,
        "velocity": 48,
        "trackId": 11,
        "channel": 10
      },
      {
        "startTick": 125172,
        "endTick": 125508,
        "pitch": 62,
        "velocity": 83,
        "trackId": 1,
        "channel": 0
      },
      {
        "startTick": 125172,
        "endTick": 125540,
        "pitch": 74,
        "velocity": 94,
        "trackId": 1,
        "channel": 0
      },
      {
        "startTick": 125180,
        "endTick": 125536,
        "pitch": 67,
        "velocity": 82,
        "trackId": 4,
        "channel": 3
      },
      {
        "startTick": 125184,
        "endTick": 125280,
        "pitch": 54,
        "velocity": 91,
        "trackId": 10,
        "channel": 9
      },
      {
        "startTick": 125184,
        "endTick": 125296,
        "pitch": 42,
        "velocity": 75,
        "trackId": 10,
        "channel": 9
      },
      {
        "startTick": 125184,
        "endTick": 125424,
        "pitch": 38,
        "velocity": 73,
        "trackId": 10,
        "channel": 9
      },
      {
        "startTick": 125184,
        "endTick": 125528,
        "pitch": 38,
        "velocity": 86,
        "trackId": 2,
        "channel": 1
      },
      {
        "startTick": 125372,
        "endTick": 125428,
        "pitch": 42,
        "velocity": 23,
        "trackId": 10,
        "channel": 9
      },
      {
        "startTick": 125564,
        "endTick": 125944,
        "pitch": 71,
        "velocity": 92,
        "trackId": 1,
        "channel": 0
      },
      {
        "startTick": 125564,
        "endTick": 125948,
        "pitch": 62,
        "velocity": 74,
        "trackId": 1,
        "channel": 0
      },
      {
        "startTick": 125568,
        "endTick": 125708,
        "pitch": 42,
        "velocity": 72,
        "trackId": 10,
        "channel": 9
      },
      {
        "startTick": 125568,
        "endTick": 125896,
        "pitch": 71,
        "velocity": 82,
        "trackId": 4,
        "channel": 3
      },
      {
        "startTick": 125568,
        "endTick": 125912,
        "pitch": 35,
        "velocity": 78,
        "trackId": 2,
        "channel": 1
      },
      {
        "startTick": 125756,
        "endTick": 125812,
        "pitch": 42,
        "velocity": 34,
        "trackId": 10,
        "channel": 9
      },
      {
        "startTick": 125940,
        "endTick": 126312,
        "pitch": 69,
        "velocity": 73,
        "trackId": 4,
        "channel": 3
      },
      {
        "startTick": 125948,
        "endTick": 126164,
        "pitch": 61,
        "velocity": 83,
        "trackId": 1,
        "channel": 0
      },
      {
        "startTick": 125948,
        "endTick": 126340,
        "pitch": 69,
        "velocity": 98,
        "trackId": 1,
        "channel": 0
      },
      {
        "startTick": 125952,
        "endTick": 126048,
        "pitch": 35,
        "velocity": 82,
        "trackId": 10,
        "channel": 9
      },
      {
        "startTick": 125952,
        "endTick": 126060,
        "pitch": 42,
        "velocity": 72,
        "trackId": 10,
        "channel": 9
      },
      {
        "startTick": 125952,
        "endTick": 126488,
        "pitch": 49,
        "velocity": 91,
        "trackId": 1,
        "channel": 0
      },
      {
        "startTick": 125952,
        "endTick": 126500,
        "pitch": 37,
        "velocity": 82,
        "trackId": 2,
        "channel": 1
      },
      {
        "startTick": 126136,
        "endTick": 126316,
        "pitch": 57,
        "velocity": 66,
        "trackId": 1,
        "channel": 0
      },
      {
        "startTick": 126140,
        "endTick": 126184,
        "pitch": 42,
        "velocity": 26,
        "trackId": 10,
        "channel": 9
      },
      {
        "startTick": 126316,
        "endTick": 126476,
        "pitch": 64,
        "velocity": 74,
        "trackId": 1,
        "channel": 0
      },
      {
        "startTick": 126328,
        "endTick": 126476,
        "pitch": 64,
        "velocity": 66,
        "trackId": 4,
        "channel": 3
      },
      {
        "startTick": 126336,
        "endTick": 126456,
        "pitch": 42,
        "velocity": 69,
        "trackId": 10,
        "channel": 9
      },
      {
        "startTick": 126520,
        "endTick": 126900,
        "pitch": 67,
        "velocity": 91,
        "trackId": 1,
        "channel": 0
      },
      {
        "startTick": 126520,
        "endTick": 126908,
        "pitch": 64,
        "velocity": 92,
        "trackId": 1,
        "channel": 0
      },
      {
        "startTick": 126520,
        "endTick": 127096,
        "pitch": 67,
        "velocity": 73,
        "trackId": 4,
        "channel": 3
      },
      {
        "startTick": 126524,
        "endTick": 126576,
        "pitch": 42,
        "velocity": 31,
        "trackId": 10,
        "channel": 9
      },
      {
        "startTick": 126524,
        "endTick": 126688,
        "pitch": 49,
        "velocity": 80,
        "trackId": 1,
        "channel": 0
      },
      {
        "startTick": 126528,
        "endTick": 126676,
        "pitch": 37,
        "velocity": 64,
        "trackId": 2,
        "channel": 1
      },
      {
        "startTick": 126680,
        "endTick": 127484,
        "pitch": 91,
        "velocity": 66,
        "trackId": 3,
        "channel": 2
      },
      {
        "startTick": 126684,
        "endTick": 127452,
        "pitch": 79,
        "velocity": 56,
        "trackId": 3,
        "channel": 2
      },
      {
        "startTick": 126720,
        "endTick": 126832,
        "pitch": 42,
        "velocity": 75,
        "trackId": 10,
        "channel": 9
      },
      {
        "startTick": 126720,
        "endTick": 126960,
        "pitch": 38,
        "velocity": 73,
        "trackId": 10,
        "channel": 9
      },
      {
        "startTick": 126720,
        "endTick": 127104,
        "pitch": 46,
        "velocity": 92,
        "trackId": 1,
        "channel": 0
      },
      {
        "startTick": 126720,
        "endTick": 127232,
        "pitch": 34,
        "velocity": 82,
        "trackId": 2,
        "channel": 1
      },
      {
        "startTick": 126908,
        "endTick": 126964,
        "pitch": 42,
        "velocity": 23,
        "trackId": 10,
        "channel": 9
      },
      {
        "startTick": 126908,
        "endTick": 127464,
        "pitch": 66,
        "velocity": 70,
        "trackId": 1,
        "channel": 0
      },
      {
        "startTick": 127092,
        "endTick": 127264,
        "pitch": 66,
        "velocity": 64,
        "trackId": 4,
        "channel": 3
      },
      {
        "startTick": 127096,
        "endTick": 127476,
        "pitch": 58,
        "velocity": 66,
        "trackId": 1,
        "channel": 0
      },
      {
        "startTick": 127104,
        "endTick": 127244,
        "pitch": 42,
        "velocity": 72,
        "trackId": 10,
        "channel": 9
      },
      {
        "startTick": 127104,
        "endTick": 127432,
        "pitch": 42,
        "velocity": 92,
        "trackId": 1,
        "channel": 0
      },
      {
        "startTick": 127284,
        "endTick": 127468,
        "pitch": 61,
        "velocity": 74,
        "trackId": 1,
        "channel": 0
      },
      {
        "startTick": 127292,
        "endTick": 127888,
        "pitch": 66,
        "velocity": 66,
        "trackId": 4,
        "channel": 3
      },
      {
        "startTick": 127296,
        "endTick": 127348,
        "pitch": 42,
        "velocity": 48,
        "trackId": 10,
        "channel": 9
      },
      {
        "startTick": 127296,
        "endTick": 127392,
        "pitch": 35,
        "velocity": 64,
        "trackId": 10,
        "channel": 9
      },
      {
        "startTick": 127296,
        "endTick": 127444,
        "pitch": 30,
        "velocity": 64,
        "trackId": 2,
        "channel": 1
      },
      {
        "startTick": 127456,
        "endTick": 128176,
        "pitch": 78,
        "velocity": 60,
        "trackId": 3,
        "channel": 2
      },
      {
        "startTick": 127460,
        "endTick": 128240,
        "pitch": 90,
        "velocity": 56,
        "trackId": 3,
        "channel": 2
      },
      {
        "startTick": 127472,
        "endTick": 128248,
        "pitch": 47,
        "velocity": 92,
        "trackId": 1,
        "channel": 0
      },
      {
        "startTick": 127476,
        "endTick": 128180,
        "pitch": 54,
        "velocity": 74,
        "trackId": 1,
        "channel": 0
      },
      {
        "startTick": 127488,
        "endTick": 127584,
        "pitch": 35,
        "velocity": 82,
        "trackId": 10,
        "channel": 9
      },
      {
        "startTick": 127488,
        "endTick": 127596,
        "pitch": 42,
        "velocity": 72,
        "trackId": 10,
        "channel": 9
      },
      {
        "startTick": 127488,
        "endTick": 128212,
        "pitch": 35,
        "velocity": 82,
        "trackId": 2,
        "channel": 1
      },
      {
        "startTick": 127672,
        "endTick": 128188,
        "pitch": 61,
        "velocity": 70,
        "trackId": 1,
        "channel": 0
      },
      {
        "startTick": 127676,
        "endTick": 127720,
        "pitch": 42,
        "velocity": 23,
        "trackId": 10,
        "channel": 9
      },
      {
        "startTick": 127680,
        "endTick": 127740,
        "pitch": 41,
        "velocity": 43,
        "trackId": 11,
        "channel": 10
      },
      {
        "startTick": 127856,
        "endTick": 128204,
        "pitch": 62,
        "velocity": 74,
        "trackId": 1,
        "channel": 0
      },
      {
        "startTick": 127872,
        "endTick": 127932,
        "pitch": 45,
        "velocity": 48,
        "trackId": 11,
        "channel": 10
      },
      {
        "startTick": 127872,
        "endTick": 127992,
        "pitch": 42,
        "velocity": 69,
        "trackId": 10,
        "channel": 9
      },
      {
        "startTick": 128060,
        "endTick": 128112,
        "pitch": 42,
        "velocity": 34,
        "trackId": 10,
        "channel": 9
      },
      {
        "startTick": 128064,
        "endTick": 128124,
        "pitch": 50,
        "velocity": 48,
        "trackId": 11,
        "channel": 10
      },
      {
        "startTick": 128216,
        "endTick": 128520,
        "pitch": 78,
        "velocity": 64,
        "trackId": 3,
        "channel": 2
      },
      {
        "startTick": 128240,
        "endTick": 128476,
        "pitch": 62,
        "velocity": 70,
        "trackId": 1,
        "channel": 0
      },
      {
        "startTick": 128240,
        "endTick": 129020,
        "pitch": 45,
        "velocity": 92,
        "trackId": 1,
        "channel": 0
      },
      {
        "startTick": 128244,
        "endTick": 128524,
        "pitch": 66,
        "velocity": 101,
        "trackId": 1,
        "channel": 0
      },
      {
        "startTick": 128248,
        "endTick": 128524,
        "pitch": 90,
        "velocity": 60,
        "trackId": 3,
        "channel": 2
      },
      {
        "startTick": 128252,
        "endTick": 128468,
        "pitch": 66,
        "velocity": 73,
        "trackId": 4,
        "channel": 3
      },
      {
        "startTick": 128256,
        "endTick": 128352,
        "pitch": 54,
        "velocity": 91,
        "trackId": 10,
        "channel": 9
      },
      {
        "startTick": 128256,
        "endTick": 128368,
        "pitch": 42,
        "velocity": 75,
        "trackId": 10,
        "channel": 9
      },
      {
        "startTick": 128256,
        "endTick": 128496,
        "pitch": 38,
        "velocity": 73,
        "trackId": 10,
        "channel": 9
      },
      {
        "startTick": 128256,
        "endTick": 128924,
        "pitch": 33,
        "velocity": 82,
        "trackId": 2,
        "channel": 1
      },
      {
        "startTick": 128444,
        "endTick": 128500,
        "pitch": 42,
        "velocity": 23,
        "trackId": 10,
        "channel": 9
      },
      {
        "startTick": 128500,
        "endTick": 128788,
        "pitch": 79,
        "velocity": 64,
        "trackId": 3,
        "channel": 2
      },
      {
        "startTick": 128508,
        "endTick": 128720,
        "pitch": 64,
        "velocity": 74,
        "trackId": 1,
        "channel": 0
      },
      {
        "startTick": 128508,
        "endTick": 128800,
        "pitch": 91,
        "velocity": 73,
        "trackId": 3,
        "channel": 2
      },
      {
        "startTick": 128508,
        "endTick": 128816,
        "pitch": 67,
        "velocity": 92,
        "trackId": 1,
        "channel": 0
      },
      {
        "startTick": 128512,
        "endTick": 128720,
        "pitch": 67,
        "velocity": 73,
        "trackId": 4,
        "channel": 3
      },
      {
        "startTick": 128640,
        "endTick": 128780,
        "pitch": 42,
        "velocity": 72,
        "trackId": 10,
        "channel": 9
      },
      {
        "startTick": 128752,
        "endTick": 132032,
        "pitch": 81,
        "velocity": 64,
        "trackId": 3,
        "channel": 2
      },
      {
        "startTick": 128760,
        "endTick": 128980,
        "pitch": 66,
        "velocity": 83,
        "trackId": 1,
        "channel": 0
      },
      {
        "startTick": 128760,
        "endTick": 132080,
        "pitch": 93,
        "velocity": 65,
        "trackId": 3,
        "channel": 2
      },
      {
        "startTick": 128764,
        "endTick": 128964,
        "pitch": 69,
        "velocity": 73,
        "trackId": 4,
        "channel": 3
      },
      {
        "startTick": 128764,
        "endTick": 129024,
        "pitch": 69,
        "velocity": 97,
        "trackId": 1,
        "channel": 0
      },
      {
        "startTick": 128828,
        "endTick": 128884,
        "pitch": 42,
        "velocity": 31,
        "trackId": 10,
        "channel": 9
      },
      {
        "startTick": 129008,
        "endTick": 129364,
        "pitch": 73,
        "velocity": 82,
        "trackId": 4,
        "channel": 3
      },
      {
        "startTick": 129016,
        "endTick": 129756,
        "pitch": 43,
        "velocity": 91,
        "trackId": 1,
        "channel": 0
      },
      {
        "startTick": 129020,
        "endTick": 129220,
        "pitch": 64,
        "velocity": 92,
        "trackId": 1,
        "channel": 0
      },
      {
        "startTick": 129020,
        "endTick": 129792,
        "pitch": 73,
        "velocity": 99,
        "trackId": 1,
        "channel": 0
      },
      {
        "startTick": 129024,
        "endTick": 129104,
        "pitch": 49,
        "velocity": 64,
        "trackId": 10,
        "channel": 9
      },
      {
        "startTick": 129024,
        "endTick": 129120,
        "pitch": 35,
        "velocity": 82,
        "trackId": 10,
        "channel": 9
      },
      {
        "startTick": 129024,
        "endTick": 129564,
        "pitch": 31,
        "velocity": 82,
        "trackId": 2,
        "channel": 1
      },
      {
        "startTick": 129204,
        "endTick": 129408,
        "pitch": 71,
        "velocity": 85,
        "trackId": 1,
        "channel": 0
      },
      {
        "startTick": 129212,
        "endTick": 129256,
        "pitch": 42,
        "velocity": 26,
        "trackId": 10,
        "channel": 9
      },
      {
        "startTick": 129392,
        "endTick": 129560,
        "pitch": 71,
        "velocity": 64,
        "trackId": 4,
        "channel": 3
      },
      {
        "startTick": 129392,
        "endTick": 129792,
        "pitch": 64,
        "velocity": 76,
        "trackId": 1,
        "channel": 0
      },
      {
        "startTick": 129408,
        "endTick": 129528,
        "pitch": 42,
        "velocity": 69,
        "trackId": 10,
        "channel": 9
      },
      {
        "startTick": 129584,
        "endTick": 130156,
        "pitch": 69,
        "velocity": 73,
        "trackId": 4,
        "channel": 3
      },
      {
        "startTick": 129588,
        "endTick": 129768,
        "pitch": 69,
        "velocity": 74,
        "trackId": 1,
        "channel": 0
      },
      {
        "startTick": 129596,
        "endTick": 129648,
        "pitch": 42,
        "velocity": 31,
        "trackId": 10,
        "channel": 9
      },
      {
        "startTick": 129600,
        "endTick": 129748,
        "pitch": 31,
        "velocity": 64,
        "trackId": 2,
        "channel": 1
      },
      {
        "startTick": 129784,
        "endTick": 129992,
        "pitch": 62,
        "velocity": 91,
        "trackId": 1,
        "channel": 0
      },
      {
        "startTick": 129784,
        "endTick": 130196,
        "pitch": 69,
        "velocity": 97,
        "trackId": 1,
        "channel": 0
      },
      {
        "startTick": 129784,
        "endTick": 130508,
        "pitch": 42,
        "velocity": 92,
        "trackId": 1,
        "channel": 0
      },
      {
        "startTick": 129792,
        "endTick": 129904,
        "pitch": 42,
        "velocity": 75,
        "trackId": 10,
        "channel": 9
      },
      {
        "startTick": 129792,
        "endTick": 130032,
        "pitch": 38,
        "velocity": 73,
        "trackId": 10,
        "channel": 9
      },
      {
        "startTick": 129792,
        "endTick": 130328,
        "pitch": 30,
        "velocity": 82,
        "trackId": 2,
        "channel": 1
      },
      {
        "startTick": 129980,
        "endTick": 130036,
        "pitch": 42,
        "velocity": 23,
        "trackId": 10,
        "channel": 9
      },
      {
        "startTick": 129984,
        "endTick": 130504,
        "pitch": 61,
        "velocity": 68,
        "trackId": 1,
        "channel": 0
      },
      {
        "startTick": 130168,
        "endTick": 130540,
        "pitch": 62,
        "velocity": 74,
        "trackId": 1,
        "channel": 0
      },
      {
        "startTick": 130176,
        "endTick": 130316,
        "pitch": 42,
        "velocity": 72,
        "trackId": 10,
        "channel": 9
      },
      {
        "startTick": 130360,
        "endTick": 130544,
        "pitch": 69,
        "velocity": 83,
        "trackId": 1,
        "channel": 0
      },
      {
        "startTick": 130368,
        "endTick": 130420,
        "pitch": 42,
        "velocity": 48,
        "trackId": 10,
        "channel": 9
      },
      {
        "startTick": 130368,
        "endTick": 130448,
        "pitch": 52,
        "velocity": 49,
        "trackId": 10,
        "channel": 9
      },
      {
        "startTick": 130368,
        "endTick": 130464,
        "pitch": 35,
        "velocity": 64,
        "trackId": 10,
        "channel": 9
      },
      {
        "startTick": 130368,
        "endTick": 130516,
        "pitch": 30,
        "velocity": 64,
        "trackId": 2,
        "channel": 1
      },
      {
        "startTick": 130372,
        "endTick": 130548,
        "pitch": 62,
        "velocity": 60,
        "trackId": 4,
        "channel": 3
      },
      {
        "startTick": 130556,
        "endTick": 130896,
        "pitch": 73,
        "velocity": 82,
        "trackId": 4,
        "channel": 3
      },
      {
        "startTick": 130556,
        "endTick": 131248,
        "pitch": 43,
        "velocity": 94,
        "trackId": 1,
        "channel": 0
      },
      {
        "startTick": 130560,
        "endTick": 130640,
        "pitch": 52,
        "velocity": 64,
        "trackId": 10,
        "channel": 9
      },
      {
        "startTick": 130560,
        "endTick": 130656,
        "pitch": 35,
        "velocity": 82,
        "trackId": 10,
        "channel": 9
      },
      {
        "startTick": 130560,
        "endTick": 130668,
        "pitch": 42,
        "velocity": 72,
        "trackId": 10,
        "channel": 9
      },
      {
        "startTick": 130560,
        "endTick": 130860,
        "pitch": 73,
        "velocity": 96,
        "trackId": 1,
        "channel": 0
      },
      {
        "startTick": 130560,
        "endTick": 130888,
        "pitch": 69,
        "velocity": 83,
        "trackId": 1,
        "channel": 0
      },
      {
        "startTick": 130560,
        "endTick": 131100,
        "pitch": 31,
        "velocity": 82,
        "trackId": 2,
        "channel": 1
      },
      {
        "startTick": 130748,
        "endTick": 130792,
        "pitch": 42,
        "velocity": 23,
        "trackId": 10,
        "channel": 9
      },
      {
        "startTick": 130748,
        "endTick": 131384,
        "pitch": 62,
        "velocity": 58,
        "trackId": 1,
        "channel": 0
      },
      {
        "startTick": 130752,
        "endTick": 130812,
        "pitch": 41,
        "velocity": 43,
        "trackId": 11,
        "channel": 10
      },
      {
        "startTick": 130932,
        "endTick": 132052,
        "pitch": 74,
        "velocity": 83,
        "trackId": 1,
        "channel": 0
      },
      {
        "startTick": 130936,
        "endTick": 131136,
        "pitch": 74,
        "velocity": 73,
        "trackId": 4,
        "channel": 3
      },
      {
        "startTick": 130944,
        "endTick": 131004,
        "pitch": 45,
        "velocity": 48,
        "trackId": 11,
        "channel": 10
      },
      {
        "startTick": 130944,
        "endTick": 131064,
        "pitch": 42,
        "velocity": 69,
        "trackId": 10,
        "channel": 9
      },
      {
        "startTick": 131124,
        "endTick": 132016,
        "pitch": 69,
        "velocity": 94,
        "trackId": 1,
        "channel": 0
      },
      {
        "startTick": 131132,
        "endTick": 131184,
        "pitch": 42,
        "velocity": 34,
        "trackId": 10,
        "channel": 9
      },
      {
        "startTick": 131136,
        "endTick": 131196,
        "pitch": 50,
        "velocity": 48,
        "trackId": 11,
        "channel": 10
      },
      {
        "startTick": 131136,
        "endTick": 131284,
        "pitch": 33,
        "velocity": 64,
        "trackId": 2,
        "channel": 1
      },
      {
        "startTick": 131136,
        "endTick": 131792,
        "pitch": 69,
        "velocity": 64,
        "trackId": 4,
        "channel": 3
      },
      {
        "startTick": 131320,
        "endTick": 132096,
        "pitch": 42,
        "velocity": 83,
        "trackId": 1,
        "channel": 0
      },
      {
        "startTick": 131328,
        "endTick": 131424,
        "pitch": 54,
        "velocity": 91,
        "trackId": 10,
        "channel": 9
      },
      {
        "startTick": 131328,
        "endTick": 131440,
        "pitch": 42,
        "velocity": 75,
        "trackId": 10,
        "channel": 9
      },
      {
        "startTick": 131328,
        "endTick": 131568,
        "pitch": 38,
        "velocity": 73,
        "trackId": 10,
        "channel": 9
      },
      {
        "startTick": 131328,
        "endTick": 131848,
        "pitch": 30,
        "velocity": 82,
        "trackId": 2,
        "channel": 1
      },
      {
        "startTick": 131500,
        "endTick": 132048,
        "pitch": 62,
        "velocity": 76,
        "trackId": 1,
        "channel": 0
      },
      {
        "startTick": 131516,
        "endTick": 131572,
        "pitch": 42,
        "velocity": 23,
        "trackId": 10,
        "channel": 9
      },
      {
        "startTick": 131520,
        "endTick": 131604,
        "pitch": 45,
        "velocity": 73,
        "trackId": 10,
        "channel": 9
      },
      {
        "startTick": 131712,
        "endTick": 131792,
        "pitch": 52,
        "velocity": 49,
        "trackId": 10,
        "channel": 9
      },
      {
        "startTick": 131712,
        "endTick": 131852,
        "pitch": 42,
        "velocity": 72,
        "trackId": 10,
        "channel": 9
      },
      {
        "startTick": 131712,
        "endTick": 131908,
        "pitch": 43,
        "velocity": 82,
        "trackId": 10,
        "channel": 9
      },
      {
        "startTick": 131900,
        "endTick": 131956,
        "pitch": 42,
        "velocity": 31,
        "trackId": 10,
        "channel": 9
      },
      {
        "startTick": 131904,
        "endTick": 132052,
        "pitch": 30,
        "velocity": 64,
        "trackId": 2,
        "channel": 1
      },
      {
        "startTick": 132080,
        "endTick": 132432,
        "pitch": 73,
        "velocity": 73,
        "trackId": 4,
        "channel": 3
      },
      {
        "startTick": 132084,
        "endTick": 132500,
        "pitch": 73,
        "velocity": 48,
        "trackId": 3,
        "channel": 2
      },
      {
        "startTick": 132088,
        "endTick": 132688,
        "pitch": 85,
        "velocity": 64,
        "trackId": 3,
        "channel": 2
      },
      {
        "startTick": 132096,
        "endTick": 132176,
        "pitch": 49,
        "velocity": 64,
        "trackId": 10,
        "channel": 9
      },
      {
        "startTick": 132096,
        "endTick": 132192,
        "pitch": 35,
        "velocity": 82,
        "trackId": 10,
        "channel": 9
      },
      {
        "startTick": 132096,
        "endTick": 132204,
        "pitch": 42,
        "velocity": 72,
        "trackId": 10,
        "channel": 9
      },
      {
        "startTick": 132096,
        "endTick": 132792,
        "pitch": 31,
        "velocity": 82,
        "trackId": 2,
        "channel": 1
      },
      {
        "startTick": 132096,
        "endTick": 132852,
        "pitch": 69,
        "velocity": 101,
        "trackId": 1,
        "channel": 0
      },
      {
        "startTick": 132100,
        "endTick": 132844,
        "pitch": 43,
        "velocity": 92,
        "trackId": 1,
        "channel": 0
      },
      {
        "startTick": 132100,
        "endTick": 132844,
        "pitch": 65,
        "velocity": 70,
        "trackId": 1,
        "channel": 0
      },
      {
        "startTick": 132100,
        "endTick": 132864,
        "pitch": 73,
        "velocity": 83,
        "trackId": 1,
        "channel": 0
      },
      {
        "startTick": 132284,
        "endTick": 132328,
        "pitch": 42,
        "velocity": 26,
        "trackId": 10,
        "channel": 9
      },
      {
        "startTick": 132476,
        "endTick": 132816,
        "pitch": 71,
        "velocity": 64,
        "trackId": 4,
        "channel": 3
      },
      {
        "startTick": 132480,
        "endTick": 132600,
        "pitch": 42,
        "velocity": 69,
        "trackId": 10,
        "channel": 9
      },
      {
        "startTick": 132480,
        "endTick": 132852,
        "pitch": 74,
        "velocity": 48,
        "trackId": 3,
        "channel": 2
      },
      {
        "startTick": 132484,
        "endTick": 132852,
        "pitch": 71,
        "velocity": 92,
        "trackId": 1,
        "channel": 0
      },
      {
        "startTick": 132644,
        "endTick": 132888,
        "pitch": 86,
        "velocity": 72,
        "trackId": 3,
        "channel": 2
      },
      {
        "startTick": 132668,
        "endTick": 132720,
        "pitch": 42,
        "velocity": 31,
        "trackId": 10,
        "channel": 9
      },
      {
        "startTick": 132820,
        "endTick": 134392,
        "pitch": 73,
        "velocity": 52,
        "trackId": 3,
        "channel": 2
      },
      {
        "startTick": 132852,
        "endTick": 134416,
        "pitch": 85,
        "velocity": 64,
        "trackId": 3,
        "channel": 2
      },
      {
        "startTick": 132860,
        "endTick": 133220,
        "pitch": 61,
        "velocity": 83,
        "trackId": 1,
        "channel": 0
      },
      {
        "startTick": 132860,
        "endTick": 133228,
        "pitch": 42,
        "velocity": 101,
        "trackId": 1,
        "channel": 0
      },
      {
        "startTick": 132860,
        "endTick": 133228,
        "pitch": 69,
        "velocity": 60,
        "trackId": 4,
        "channel": 3
      },
      {
        "startTick": 132864,
        "endTick": 132976,
        "pitch": 42,
        "velocity": 75,
        "trackId": 10,
        "channel": 9
      },
      {
        "startTick": 132864,
        "endTick": 133104,
        "pitch": 38,
        "velocity": 73,
        "trackId": 10,
        "channel": 9
      },
      {
        "startTick": 132864,
        "endTick": 133180,
        "pitch": 30,
        "velocity": 82,
        "trackId": 2,
        "channel": 1
      },
      {
        "startTick": 132868,
        "endTick": 133616,
        "pitch": 69,
        "velocity": 83,
        "trackId": 1,
        "channel": 0
      },
      {
        "startTick": 132868,
        "endTick": 133620,
        "pitch": 64,
        "velocity": 92,
        "trackId": 1,
        "channel": 0
      },
      {
        "startTick": 132872,
        "endTick": 133600,
        "pitch": 66,
        "velocity": 83,
        "trackId": 1,
        "channel": 0
      },
      {
        "startTick": 133052,
        "endTick": 133108,
        "pitch": 42,
        "velocity": 23,
        "trackId": 10,
        "channel": 9
      },
      {
        "startTick": 133248,
        "endTick": 133388,
        "pitch": 42,
        "velocity": 72,
        "trackId": 10,
        "channel": 9
      },
      {
        "startTick": 133248,
        "endTick": 133564,
        "pitch": 26,
        "velocity": 82,
        "trackId": 2,
        "channel": 1
      },
      {
        "startTick": 133248,
        "endTick": 133624,
        "pitch": 62,
        "velocity": 74,
        "trackId": 1,
        "channel": 0
      },
      {
        "startTick": 133252,
        "endTick": 133612,
        "pitch": 38,
        "velocity": 92,
        "trackId": 1,
        "channel": 0
      },
      {
        "startTick": 133432,
        "endTick": 133656,
        "pitch": 62,
        "velocity": 73,
        "trackId": 4,
        "channel": 3
      },
      {
        "startTick": 133440,
        "endTick": 133492,
        "pitch": 42,
        "velocity": 48,
        "trackId": 10,
        "channel": 9
      },
      {
        "startTick": 133440,
        "endTick": 133520,
        "pitch": 52,
        "velocity": 49,
        "trackId": 10,
        "channel": 9
      },
      {
        "startTick": 133440,
        "endTick": 133536,
        "pitch": 35,
        "velocity": 64,
        "trackId": 10,
        "channel": 9
      },
      {
        "startTick": 133628,
        "endTick": 134396,
        "pitch": 58,
        "velocity": 74,
        "trackId": 1,
        "channel": 0
      },
      {
        "startTick": 133632,
        "endTick": 133712,
        "pitch": 52,
        "velocity": 64,
        "trackId": 10,
        "channel": 9
      },
      {
        "startTick": 133632,
        "endTick": 133728,
        "pitch": 35,
        "velocity": 82,
        "trackId": 10,
        "channel": 9
      },
      {
        "startTick": 133632,
        "endTick": 133740,
        "pitch": 42,
        "velocity": 72,
        "trackId": 10,
        "channel": 9
      },
      {
        "startTick": 133632,
        "endTick": 134352,
        "pitch": 34,
        "velocity": 82,
        "trackId": 2,
        "channel": 1
      },
      {
        "startTick": 133632,
        "endTick": 134388,
        "pitch": 61,
        "velocity": 83,
        "trackId": 1,
        "channel": 0
      },
      {
        "startTick": 133632,
        "endTick": 134392,
        "pitch": 66,
        "velocity": 84,
        "trackId": 1,
        "channel": 0
      },
      {
        "startTick": 133636,
        "endTick": 134340,
        "pitch": 46,
        "velocity": 92,
        "trackId": 1,
        "channel": 0
      },
      {
        "startTick": 133636,
        "endTick": 134380,
        "pitch": 64,
        "velocity": 92,
        "trackId": 1,
        "channel": 0
      },
      {
        "startTick": 133640,
        "endTick": 133860,
        "pitch": 66,
        "velocity": 73,
        "trackId": 4,
        "channel": 3
      },
      {
        "startTick": 133820,
        "endTick": 133864,
        "pitch": 42,
        "velocity": 23,
        "trackId": 10,
        "channel": 9
      },
      {
        "startTick": 133892,
        "endTick": 134104,
        "pitch": 69,
        "velocity": 73,
        "trackId": 4,
        "channel": 3
      },
      {
        "startTick": 134016,
        "endTick": 134136,
        "pitch": 42,
        "velocity": 69,
        "trackId": 10,
        "channel": 9
      },
      {
        "startTick": 134148,
        "endTick": 134332,
        "pitch": 71,
        "velocity": 73,
        "trackId": 4,
        "channel": 3
      },
      {
        "startTick": 134204,
        "endTick": 134256,
        "pitch": 42,
        "velocity": 34,
        "trackId": 10,
        "channel": 9
      },
      {
        "startTick": 134360,
        "endTick": 135120,
        "pitch": 86,
        "velocity": 64,
        "trackId": 3,
        "channel": 2
      },
      {
        "startTick": 134368,
        "endTick": 135160,
        "pitch": 74,
        "velocity": 48,
        "trackId": 3,
        "channel": 2
      },
      {
        "startTick": 134388,
        "endTick": 135084,
        "pitch": 47,
        "velocity": 101,
        "trackId": 1,
        "channel": 0
      },
      {
        "startTick": 134388,
        "endTick": 135140,
        "pitch": 62,
        "velocity": 101,
        "trackId": 1,
        "channel": 0
      },
      {
        "startTick": 134388,
        "endTick": 135152,
        "pitch": 57,
        "velocity": 92,
        "trackId": 1,
        "channel": 0
      },
      {
        "startTick": 134392,
        "endTick": 134828,
        "pitch": 62,
        "velocity": 73,
        "trackId": 4,
        "channel": 3
      },
      {
        "startTick": 134400,
        "endTick": 134496,
        "pitch": 54,
        "velocity": 91,
        "trackId": 10,
        "channel": 9
      },
      {
        "startTick": 134400,
        "endTick": 134640,
        "pitch": 38,
        "velocity": 73,
        "trackId": 10,
        "channel": 9
      },
      {
        "startTick": 134400,
        "endTick": 134740,
        "pitch": 35,
        "velocity": 82,
        "trackId": 2,
        "channel": 1
      },
      {
        "startTick": 134584,
        "endTick": 135152,
        "pitch": 64,
        "velocity": 83,
        "trackId": 1,
        "channel": 0
      },
      {
        "startTick": 134592,
        "endTick": 134676,
        "pitch": 45,
        "velocity": 73,
        "trackId": 10,
        "channel": 9
      },
      {
        "startTick": 134772,
        "endTick": 135128,
        "pitch": 66,
        "velocity": 101,
        "trackId": 1,
        "channel": 0
      },
      {
        "startTick": 134784,
        "endTick": 134980,
        "pitch": 43,
        "velocity": 82,
        "trackId": 10,
        "channel": 9
      },
      {
        "startTick": 134784,
        "endTick": 135124,
        "pitch": 30,
        "velocity": 82,
        "trackId": 2,
        "channel": 1
      },
      {
        "startTick": 134972,
        "endTick": 135028,
        "pitch": 42,
        "velocity": 31,
        "trackId": 10,
        "channel": 9
      },
      {
        "startTick": 135140,
        "endTick": 135928,
        "pitch": 78,
        "velocity": 52,
        "trackId": 3,
        "channel": 2
      },
      {
        "startTick": 135144,
        "endTick": 135932,
        "pitch": 90,
        "velocity": 48,
        "trackId": 3,
        "channel": 2
      },
      {
        "startTick": 135152,
        "endTick": 135900,
        "pitch": 40,
        "velocity": 83,
        "trackId": 1,
        "channel": 0
      },
      {
        "startTick": 135156,
        "endTick": 135420,
        "pitch": 66,
        "velocity": 64,
        "trackId": 4,
        "channel": 3
      },
      {
        "startTick": 135164,
        "endTick": 135792,
        "pitch": 66,
        "velocity": 93,
        "trackId": 1,
        "channel": 0
      },
      {
        "startTick": 135164,
        "endTick": 135848,
        "pitch": 57,
        "velocity": 92,
        "trackId": 1,
        "channel": 0
      },
      {
        "startTick": 135164,
        "endTick": 135892,
        "pitch": 62,
        "velocity": 86,
        "trackId": 1,
        "channel": 0
      },
      {
        "startTick": 135168,
        "endTick": 135248,
        "pitch": 49,
        "velocity": 64,
        "trackId": 10,
        "channel": 9
      },
      {
        "startTick": 135168,
        "endTick": 135264,
        "pitch": 35,
        "velocity": 82,
        "trackId": 10,
        "channel": 9
      },
      {
        "startTick": 135168,
        "endTick": 135276,
        "pitch": 42,
        "velocity": 72,
        "trackId": 10,
        "channel": 9
      },
      {
        "startTick": 135168,
        "endTick": 136668,
        "pitch": 28,
        "velocity": 82,
        "trackId": 2,
        "channel": 1
      },
      {
        "startTick": 135356,
        "endTick": 135400,
        "pitch": 42,
        "velocity": 26,
        "trackId": 10,
        "channel": 9
      },
      {
        "startTick": 135436,
        "endTick": 135632,
        "pitch": 69,
        "velocity": 73,
        "trackId": 4,
        "channel": 3
      },
      {
        "startTick": 135552,
        "endTick": 135672,
        "pitch": 42,
        "velocity": 69,
        "trackId": 10,
        "channel": 9
      },
      {
        "startTick": 135688,
        "endTick": 135876,
        "pitch": 71,
        "velocity": 64,
        "trackId": 4,
        "channel": 3
      },
      {
        "startTick": 135740,
        "endTick": 135792,
        "pitch": 42,
        "velocity": 31,
        "trackId": 10,
        "channel": 9
      },
      {
        "startTick": 135900,
        "endTick": 141724,
        "pitch": 74,
        "velocity": 52,
        "trackId": 3,
        "channel": 2
      },
      {
        "startTick": 135908,
        "endTick": 141772,
        "pitch": 86,
        "velocity": 48,
        "trackId": 3,
        "channel": 2
      },
      {
        "startTick": 135924,
        "endTick": 136432,
        "pitch": 62,
        "velocity": 73,
        "trackId": 4,
        "channel": 3
      },
      {
        "startTick": 135932,
        "endTick": 136688,
        "pitch": 40,
        "velocity": 92,
        "trackId": 1,
        "channel": 0
      },
      {
        "startTick": 135932,
        "endTick": 136708,
        "pitch": 56,
        "velocity": 83,
        "trackId": 1,
        "channel": 0
      },
      {
        "startTick": 135936,
        "endTick": 136048,
        "pitch": 42,
        "velocity": 75,
        "trackId": 10,
        "channel": 9
      },
      {
        "startTick": 135936,
        "endTick": 136176,
        "pitch": 38,
        "velocity": 73,
        "trackId": 10,
        "channel": 9
      },
      {
        "startTick": 135936,
        "endTick": 136668,
        "pitch": 64,
        "velocity": 83,
        "trackId": 1,
        "channel": 0
      },
      {
        "startTick": 135940,
        "endTick": 136648,
        "pitch": 59,
        "velocity": 92,
        "trackId": 1,
        "channel": 0
      },
      {
        "startTick": 136124,
        "endTick": 136180,
        "pitch": 42,
        "velocity": 23,
        "trackId": 10,
        "channel": 9
      },
      {
        "startTick": 136320,
        "endTick": 136460,
        "pitch": 42,
        "velocity": 72,
        "trackId": 10,
        "channel": 9
      },
      {
        "startTick": 136508,
        "endTick": 136688,
        "pitch": 66,
        "velocity": 56,
        "trackId": 4,
        "channel": 3
      },
      {
        "startTick": 136512,
        "endTick": 136564,
        "pitch": 46,
        "velocity": 61,
        "trackId": 10,
        "channel": 9
      },
      {
        "startTick": 136512,
        "endTick": 136608,
        "pitch": 35,
        "velocity": 64,
        "trackId": 10,
        "channel": 9
      },
      {
        "startTick": 136696,
        "endTick": 137112,
        "pitch": 67,
        "velocity": 92,
        "trackId": 1,
        "channel": 0
      },
      {
        "startTick": 136696,
        "endTick": 137412,
        "pitch": 59,
        "velocity": 101,
        "trackId": 1,
        "channel": 0
      },
      {
        "startTick": 136696,
        "endTick": 137444,
        "pitch": 48,
        "velocity": 97,
        "trackId": 1,
        "channel": 0
      },
      {
        "startTick": 136700,
        "endTick": 137444,
        "pitch": 62,
        "velocity": 83,
        "trackId": 1,
        "channel": 0
      },
      {
        "startTick": 136704,
        "endTick": 136784,
        "pitch": 52,
        "velocity": 64,
        "trackId": 10,
        "channel": 9
      },
      {
        "startTick": 136704,
        "endTick": 136800,
        "pitch": 35,
        "velocity": 82,
        "trackId": 10,
        "channel": 9
      },
      {
        "startTick": 136704,
        "endTick": 136812,
        "pitch": 42,
        "velocity": 72,
        "trackId": 10,
        "channel": 9
      },
      {
        "startTick": 136704,
        "endTick": 137032,
        "pitch": 67,
        "velocity": 73,
        "trackId": 4,
        "channel": 3
      },
      {
        "startTick": 136704,
        "endTick": 137404,
        "pitch": 36,
        "velocity": 82,
        "trackId": 2,
        "channel": 1
      },
      {
        "startTick": 136892,
        "endTick": 136936,
        "pitch": 42,
        "velocity": 23,
        "trackId": 10,
        "channel": 9
      },
      {
        "startTick": 137080,
        "endTick": 137456,
        "pitch": 66,
        "velocity": 83,
        "trackId": 1,
        "channel": 0
      },
      {
        "startTick": 137084,
        "endTick": 137428,
        "pitch": 66,
        "velocity": 52,
        "trackId": 4,
        "channel": 3
      },
      {
        "startTick": 137088,
        "endTick": 137136,
        "pitch": 59,
        "velocity": 26,
        "trackId": 10,
        "channel": 9
      },
      {
        "startTick": 137136,
        "endTick": 137184,
        "pitch": 51,
        "velocity": 26,
        "trackId": 10,
        "channel": 9
      },
      {
        "startTick": 137188,
        "endTick": 137232,
        "pitch": 59,
        "velocity": 29,
        "trackId": 10,
        "channel": 9
      },
      {
        "startTick": 137232,
        "endTick": 137288,
        "pitch": 51,
        "velocity": 29,
        "trackId": 10,
        "channel": 9
      },
      {
        "startTick": 137280,
        "endTick": 138244,
        "pitch": 60,
        "velocity": 40,
        "trackId": 13,
        "channel": 12
      },
      {
        "startTick": 137284,
        "endTick": 137332,
        "pitch": 59,
        "velocity": 34,
        "trackId": 10,
        "channel": 9
      },
      {
        "startTick": 137328,
        "endTick": 137368,
        "pitch": 51,
        "velocity": 34,
        "trackId": 10,
        "channel": 9
      },
      {
        "startTick": 137368,
        "endTick": 137404,
        "pitch": 59,
        "velocity": 34,
        "trackId": 10,
        "channel": 9
      },
      {
        "startTick": 137404,
        "endTick": 137460,
        "pitch": 51,
        "velocity": 34,
        "trackId": 10,
        "channel": 9
      },
      {
        "startTick": 137460,
        "endTick": 137500,
        "pitch": 59,
        "velocity": 37,
        "trackId": 10,
        "channel": 9
      },
      {
        "startTick": 137464,
        "endTick": 137864,
        "pitch": 64,
        "velocity": 73,
        "trackId": 4,
        "channel": 3
      },
      {
        "startTick": 137472,
        "endTick": 137568,
        "pitch": 54,
        "velocity": 91,
        "trackId": 10,
        "channel": 9
      },
      {
        "startTick": 137472,
        "endTick": 138172,
        "pitch": 33,
        "velocity": 82,
        "trackId": 2,
        "channel": 1
      },
      {
        "startTick": 137472,
        "endTick": 138220,
        "pitch": 45,
        "velocity": 97,
        "trackId": 1,
        "channel": 0
      },
      {
        "startTick": 137472,
        "endTick": 138276,
        "pitch": 59,
        "velocity": 83,
        "trackId": 1,
        "channel": 0
      },
      {
        "startTick": 137472,
        "endTick": 138292,
        "pitch": 64,
        "velocity": 83,
        "trackId": 1,
        "channel": 0
      },
      {
        "startTick": 137476,
        "endTick": 138276,
        "pitch": 55,
        "velocity": 92,
        "trackId": 1,
        "channel": 0
      },
      {
        "startTick": 137512,
        "endTick": 137552,
        "pitch": 51,
        "velocity": 40,
        "trackId": 10,
        "channel": 9
      },
      {
        "startTick": 137552,
        "endTick": 137584,
        "pitch": 59,
        "velocity": 43,
        "trackId": 10,
        "channel": 9
      },
      {
        "startTick": 137600,
        "endTick": 137648,
        "pitch": 51,
        "velocity": 43,
        "trackId": 10,
        "channel": 9
      },
      {
        "startTick": 137648,
        "endTick": 137684,
        "pitch": 59,
        "velocity": 40,
        "trackId": 10,
        "channel": 9
      },
      {
        "startTick": 137692,
        "endTick": 137736,
        "pitch": 51,
        "velocity": 40,
        "trackId": 10,
        "channel": 9
      },
      {
        "startTick": 137740,
        "endTick": 137772,
        "pitch": 59,
        "velocity": 43,
        "trackId": 10,
        "channel": 9
      },
      {
        "startTick": 137780,
        "endTick": 137804,
        "pitch": 51,
        "velocity": 46,
        "trackId": 10,
        "channel": 9
      },
      {
        "startTick": 137824,
        "endTick": 137872,
        "pitch": 59,
        "velocity": 46,
        "trackId": 10,
        "channel": 9
      },
      {
        "startTick": 137856,
        "endTick": 138236,
        "pitch": 62,
        "velocity": 74,
        "trackId": 1,
        "channel": 0
      },
      {
        "startTick": 137856,
        "endTick": 139192,
        "pitch": 86,
        "velocity": 55,
        "trackId": 8,
        "channel": 7
      },
      {
        "startTick": 137864,
        "endTick": 138156,
        "pitch": 62,
        "velocity": 64,
        "trackId": 4,
        "channel": 3
      },
      {
        "startTick": 137876,
        "endTick": 137920,
        "pitch": 51,
        "velocity": 49,
        "trackId": 10,
        "channel": 9
      },
      {
        "startTick": 137920,
        "endTick": 137964,
        "pitch": 59,
        "velocity": 52,
        "trackId": 10,
        "channel": 9
      },
      {
        "startTick": 137972,
        "endTick": 138012,
        "pitch": 51,
        "velocity": 52,
        "trackId": 10,
        "channel": 9
      },
      {
        "startTick": 138012,
        "endTick": 138060,
        "pitch": 59,
        "velocity": 55,
        "trackId": 10,
        "channel": 9
      },
      {
        "startTick": 138060,
        "endTick": 138092,
        "pitch": 51,
        "velocity": 58,
        "trackId": 10,
        "channel": 9
      },
      {
        "startTick": 138100,
        "endTick": 138148,
        "pitch": 59,
        "velocity": 66,
        "trackId": 10,
        "channel": 9
      },
      {
        "startTick": 138140,
        "endTick": 138172,
        "pitch": 51,
        "velocity": 58,
        "trackId": 10,
        "channel": 9
      },
      {
        "startTick": 138184,
        "endTick": 138216,
        "pitch": 59,
        "velocity": 58,
        "trackId": 10,
        "channel": 9
      },
      {
        "startTick": 138240,
        "endTick": 138320,
        "pitch": 49,
        "velocity": 34,
        "trackId": 10,
        "channel": 9
      },
      {
        "startTick": 138240,
        "endTick": 139052,
        "pitch": 47,
        "velocity": 83,
        "trackId": 1,
        "channel": 0
      },
      {
        "startTick": 138240,
        "endTick": 139664,
        "pitch": 62,
        "velocity": 73,
        "trackId": 4,
        "channel": 3
      },
      {
        "startTick": 138240,
        "endTick": 139740,
        "pitch": 35,
        "velocity": 82,
        "trackId": 2,
        "channel": 1
      },
      {
        "startTick": 138440,
        "endTick": 139056,
        "pitch": 54,
        "velocity": 62,
        "trackId": 1,
        "channel": 0
      },
      {
        "startTick": 138632,
        "endTick": 139068,
        "pitch": 61,
        "velocity": 74,
        "trackId": 1,
        "channel": 0
      },
      {
        "startTick": 138828,
        "endTick": 139068,
        "pitch": 62,
        "velocity": 83,
        "trackId": 1,
        "channel": 0
      },
      {
        "startTick": 139000,
        "endTick": 139792,
        "pitch": 66,
        "velocity": 54,
        "trackId": 1,
        "channel": 0
      },
      {
        "startTick": 139008,
        "endTick": 139760,
        "pitch": 57,
        "velocity": 74,
        "trackId": 1,
        "channel": 0
      },
      {
        "startTick": 139196,
        "endTick": 139396,
        "pitch": 71,
        "velocity": 40,
        "trackId": 8,
        "channel": 7
      },
      {
        "startTick": 139200,
        "endTick": 139788,
        "pitch": 60,
        "velocity": 43,
        "trackId": 13,
        "channel": 12
      },
      {
        "startTick": 139200,
        "endTick": 139796,
        "pitch": 71,
        "velocity": 70,
        "trackId": 1,
        "channel": 0
      },
      {
        "startTick": 139380,
        "endTick": 139804,
        "pitch": 73,
        "velocity": 74,
        "trackId": 1,
        "channel": 0
      },
      {
        "startTick": 139388,
        "endTick": 139596,
        "pitch": 73,
        "velocity": 52,
        "trackId": 8,
        "channel": 7
      },
      {
        "startTick": 139576,
        "endTick": 139796,
        "pitch": 74,
        "velocity": 83,
        "trackId": 1,
        "channel": 0
      },
      {
        "startTick": 139588,
        "endTick": 139808,
        "pitch": 74,
        "velocity": 49,
        "trackId": 8,
        "channel": 7
      },
      {
        "startTick": 139656,
        "endTick": 139708,
        "pitch": 51,
        "velocity": 29,
        "trackId": 10,
        "channel": 9
      },
      {
        "startTick": 139688,
        "endTick": 139760,
        "pitch": 59,
        "velocity": 45,
        "trackId": 10,
        "channel": 9
      },
      {
        "startTick": 139688,
        "endTick": 141312,
        "pitch": 44,
        "velocity": 74,
        "trackId": 1,
        "channel": 0
      },
      {
        "startTick": 139712,
        "endTick": 141296,
        "pitch": 50,
        "velocity": 70,
        "trackId": 1,
        "channel": 0
      },
      {
        "startTick": 139724,
        "endTick": 139800,
        "pitch": 51,
        "velocity": 44,
        "trackId": 10,
        "channel": 9
      },
      {
        "startTick": 139740,
        "endTick": 141280,
        "pitch": 59,
        "velocity": 78,
        "trackId": 1,
        "channel": 0
      },
      {
        "startTick": 139756,
        "endTick": 141312,
        "pitch": 54,
        "velocity": 62,
        "trackId": 1,
        "channel": 0
      },
      {
        "startTick": 139776,
        "endTick": 139824,
        "pitch": 55,
        "velocity": 38,
        "trackId": 10,
        "channel": 9
      },
      {
        "startTick": 139776,
        "endTick": 139824,
        "pitch": 59,
        "velocity": 64,
        "trackId": 10,
        "channel": 9
      },
      {
        "startTick": 139776,
        "endTick": 141276,
        "pitch": 32,
        "velocity": 82,
        "trackId": 2,
        "channel": 1
      },
      {
        "startTick": 139780,
        "endTick": 140172,
        "pitch": 81,
        "velocity": 61,
        "trackId": 8,
        "channel": 7
      },
      {
        "startTick": 139936,
        "endTick": 141304,
        "pitch": 66,
        "velocity": 58,
        "trackId": 1,
        "channel": 0
      },
      {
        "startTick": 140144,
        "endTick": 141300,
        "pitch": 71,
        "velocity": 83,
        "trackId": 1,
        "channel": 0
      },
      {
        "startTick": 140160,
        "endTick": 141196,
        "pitch": 72,
        "velocity": 31,
        "trackId": 14,
        "channel": 13
      },
      {
        "startTick": 140168,
        "endTick": 141592,
        "pitch": 83,
        "velocity": 49,
        "trackId": 8,
        "channel": 7
      },
      {
        "startTick": 140320,
        "endTick": 141344,
        "pitch": 78,
        "velocity": 50,
        "trackId": 1,
        "channel": 0
      },
      {
        "startTick": 140376,
        "endTick": 140468,
        "pitch": 71,
        "velocity": 32,
        "trackId": 6,
        "channel": 5
      },
      {
        "startTick": 140424,
        "endTick": 140524,
        "pitch": 74,
        "velocity": 32,
        "trackId": 6,
        "channel": 5
      },
      {
        "startTick": 140464,
        "endTick": 140544,
        "pitch": 78,
        "velocity": 48,
        "trackId": 6,
        "channel": 5
      },
      {
        "startTick": 140524,
        "endTick": 140568,
        "pitch": 83,
        "velocity": 60,
        "trackId": 6,
        "channel": 5
      },
      {
        "startTick": 140536,
        "endTick": 141324,
        "pitch": 83,
        "velocity": 74,
        "trackId": 1,
        "channel": 0
      },
      {
        "startTick": 141880,
        "endTick": 142108,
        "pitch": 66,
        "velocity": 66,
        "trackId": 1,
        "channel": 0
      },
      {
        "startTick": 141888,
        "endTick": 142064,
        "pitch": 66,
        "velocity": 31,
        "trackId": 4,
        "channel": 3
      },
      {
        "startTick": 142084,
        "endTick": 142456,
        "pitch": 67,
        "velocity": 83,
        "trackId": 1,
        "channel": 0
      },
      {
        "startTick": 142088,
        "endTick": 142388,
        "pitch": 67,
        "velocity": 64,
        "trackId": 4,
        "channel": 3
      },
      {
        "startTick": 142468,
        "endTick": 142796,
        "pitch": 71,
        "velocity": 60,
        "trackId": 4,
        "channel": 3
      },
      {
        "startTick": 142468,
        "endTick": 142848,
        "pitch": 71,
        "velocity": 85,
        "trackId": 1,
        "channel": 0
      },
      {
        "startTick": 142748,
        "endTick": 143648,
        "pitch": 59,
        "velocity": 62,
        "trackId": 1,
        "channel": 0
      },
      {
        "startTick": 142800,
        "endTick": 143648,
        "pitch": 61,
        "velocity": 72,
        "trackId": 1,
        "channel": 0
      },
      {
        "startTick": 142816,
        "endTick": 143456,
        "pitch": 64,
        "velocity": 70,
        "trackId": 1,
        "channel": 0
      },
      {
        "startTick": 142824,
        "endTick": 150516,
        "pitch": 69,
        "velocity": 25,
        "trackId": 3,
        "channel": 2
      },
      {
        "startTick": 142844,
        "endTick": 144464,
        "pitch": 69,
        "velocity": 56,
        "trackId": 4,
        "channel": 3
      },
      {
        "startTick": 142848,
        "endTick": 142872,
        "pitch": 51,
        "velocity": 52,
        "trackId": 10,
        "channel": 9
      },
      {
        "startTick": 142848,
        "endTick": 142960,
        "pitch": 70,
        "velocity": 69,
        "trackId": 10,
        "channel": 9
      },
      {
        "startTick": 142848,
        "endTick": 144152,
        "pitch": 42,
        "velocity": 82,
        "trackId": 1,
        "channel": 0
      },
      {
        "startTick": 142872,
        "endTick": 144308,
        "pitch": 69,
        "velocity": 88,
        "trackId": 1,
        "channel": 0
      },
      {
        "startTick": 143040,
        "endTick": 143124,
        "pitch": 70,
        "velocity": 52,
        "trackId": 10,
        "channel": 9
      },
      {
        "startTick": 143232,
        "endTick": 143344,
        "pitch": 70,
        "velocity": 52,
        "trackId": 10,
        "channel": 9
      },
      {
        "startTick": 143420,
        "endTick": 143624,
        "pitch": 57,
        "velocity": 43,
        "trackId": 4,
        "channel": 3
      },
      {
        "startTick": 143424,
        "endTick": 143644,
        "pitch": 70,
        "velocity": 32,
        "trackId": 10,
        "channel": 9
      },
      {
        "startTick": 143600,
        "endTick": 143832,
        "pitch": 64,
        "velocity": 74,
        "trackId": 1,
        "channel": 0
      },
      {
        "startTick": 143616,
        "endTick": 143940,
        "pitch": 66,
        "velocity": 61,
        "trackId": 4,
        "channel": 3
      },
      {
        "startTick": 143800,
        "endTick": 144020,
        "pitch": 57,
        "velocity": 58,
        "trackId": 1,
        "channel": 0
      },
      {
        "startTick": 143996,
        "endTick": 144224,
        "pitch": 61,
        "velocity": 83,
        "trackId": 1,
        "channel": 0
      },
      {
        "startTick": 143996,
        "endTick": 144356,
        "pitch": 64,
        "velocity": 49,
        "trackId": 4,
        "channel": 3
      },
      {
        "startTick": 144184,
        "endTick": 144404,
        "pitch": 62,
        "velocity": 66,
        "trackId": 1,
        "channel": 0
      },
      {
        "startTick": 144380,
        "endTick": 144936,
        "pitch": 62,
        "velocity": 40,
        "trackId": 4,
        "channel": 3
      },
      {
        "startTick": 144384,
        "endTick": 145756,
        "pitch": 43,
        "velocity": 76,
        "trackId": 1,
        "channel": 0
      },
      {
        "startTick": 144384,
        "endTick": 145868,
        "pitch": 55,
        "velocity": 62,
        "trackId": 1,
        "channel": 0
      },
      {
        "startTick": 144388,
        "endTick": 144928,
        "pitch": 66,
        "velocity": 73,
        "trackId": 1,
        "channel": 0
      },
      {
        "startTick": 144388,
        "endTick": 145872,
        "pitch": 59,
        "velocity": 74,
        "trackId": 1,
        "channel": 0
      },
      {
        "startTick": 144944,
        "endTick": 145176,
        "pitch": 66,
        "velocity": 54,
        "trackId": 1,
        "channel": 0
      },
      {
        "startTick": 144964,
        "endTick": 145140,
        "pitch": 66,
        "velocity": 40,
        "trackId": 4,
        "channel": 3
      },
      {
        "startTick": 145136,
        "endTick": 145548,
        "pitch": 67,
        "velocity": 85,
        "trackId": 1,
        "channel": 0
      },
      {
        "startTick": 145164,
        "endTick": 145448,
        "pitch": 67,
        "velocity": 64,
        "trackId": 4,
        "channel": 3
      },
      {
        "startTick": 145332,
        "endTick": 145892,
        "pitch": 57,
        "velocity": 66,
        "trackId": 1,
        "channel": 0
      },
      {
        "startTick": 145344,
        "endTick": 145544,
        "pitch": 80,
        "velocity": 36,
        "trackId": 10,
        "channel": 9
      },
      {
        "startTick": 145524,
        "endTick": 145908,
        "pitch": 71,
        "velocity": 83,
        "trackId": 1,
        "channel": 0
      },
      {
        "startTick": 145528,
        "endTick": 145840,
        "pitch": 71,
        "velocity": 64,
        "trackId": 4,
        "channel": 3
      },
      {
        "startTick": 145536,
        "endTick": 145888,
        "pitch": 81,
        "velocity": 52,
        "trackId": 10,
        "channel": 9
      },
      {
        "startTick": 145900,
        "endTick": 147404,
        "pitch": 69,
        "velocity": 82,
        "trackId": 1,
        "channel": 0
      },
      {
        "startTick": 145904,
        "endTick": 147488,
        "pitch": 69,
        "velocity": 64,
        "trackId": 4,
        "channel": 3
      },
      {
        "startTick": 145908,
        "endTick": 146248,
        "pitch": 59,
        "velocity": 70,
        "trackId": 1,
        "channel": 0
      },
      {
        "startTick": 145908,
        "endTick": 146468,
        "pitch": 61,
        "velocity": 70,
        "trackId": 1,
        "channel": 0
      },
      {
        "startTick": 145908,
        "endTick": 147428,
        "pitch": 64,
        "velocity": 74,
        "trackId": 1,
        "channel": 0
      },
      {
        "startTick": 145920,
        "endTick": 146032,
        "pitch": 70,
        "velocity": 69,
        "trackId": 10,
        "channel": 9
      },
      {
        "startTick": 145920,
        "endTick": 147300,
        "pitch": 42,
        "velocity": 75,
        "trackId": 1,
        "channel": 0
      },
      {
        "startTick": 146112,
        "endTick": 146196,
        "pitch": 70,
        "velocity": 52,
        "trackId": 10,
        "channel": 9
      },
      {
        "startTick": 146288,
        "endTick": 147048,
        "pitch": 59,
        "velocity": 62,
        "trackId": 1,
        "channel": 0
      },
      {
        "startTick": 146304,
        "endTick": 146416,
        "pitch": 70,
        "velocity": 52,
        "trackId": 10,
        "channel": 9
      },
      {
        "startTick": 146488,
        "endTick": 146712,
        "pitch": 62,
        "velocity": 76,
        "trackId": 1,
        "channel": 0
      },
      {
        "startTick": 146496,
        "endTick": 146716,
        "pitch": 70,
        "velocity": 32,
        "trackId": 10,
        "channel": 9
      },
      {
        "startTick": 146676,
        "endTick": 146904,
        "pitch": 52,
        "velocity": 59,
        "trackId": 1,
        "channel": 0
      },
      {
        "startTick": 146684,
        "endTick": 146916,
        "pitch": 66,
        "velocity": 52,
        "trackId": 4,
        "channel": 3
      },
      {
        "startTick": 146872,
        "endTick": 147068,
        "pitch": 61,
        "velocity": 74,
        "trackId": 1,
        "channel": 0
      },
      {
        "startTick": 146940,
        "endTick": 147164,
        "pitch": 64,
        "velocity": 48,
        "trackId": 4,
        "channel": 3
      },
      {
        "startTick": 147076,
        "endTick": 147264,
        "pitch": 52,
        "velocity": 40,
        "trackId": 1,
        "channel": 0
      },
      {
        "startTick": 147188,
        "endTick": 147436,
        "pitch": 62,
        "velocity": 64,
        "trackId": 4,
        "channel": 3
      },
      {
        "startTick": 147260,
        "endTick": 147448,
        "pitch": 59,
        "velocity": 74,
        "trackId": 1,
        "channel": 0
      },
      {
        "startTick": 147444,
        "endTick": 147960,
        "pitch": 57,
        "velocity": 52,
        "trackId": 4,
        "channel": 3
      },
      {
        "startTick": 147456,
        "endTick": 148908,
        "pitch": 43,
        "velocity": 75,
        "trackId": 1,
        "channel": 0
      },
      {
        "startTick": 147456,
        "endTick": 148940,
        "pitch": 55,
        "velocity": 62,
        "trackId": 1,
        "channel": 0
      },
      {
        "startTick": 147460,
        "endTick": 148000,
        "pitch": 66,
        "velocity": 73,
        "trackId": 1,
        "channel": 0
      },
      {
        "startTick": 147460,
        "endTick": 148944,
        "pitch": 59,
        "velocity": 74,
        "trackId": 1,
        "channel": 0
      },
      {
        "startTick": 148016,
        "endTick": 148248,
        "pitch": 66,
        "velocity": 54,
        "trackId": 1,
        "channel": 0
      },
      {
        "startTick": 148028,
        "endTick": 148224,
        "pitch": 74,
        "velocity": 48,
        "trackId": 4,
        "channel": 3
      },
      {
        "startTick": 148208,
        "endTick": 148620,
        "pitch": 67,
        "velocity": 85,
        "trackId": 1,
        "channel": 0
      },
      {
        "startTick": 148216,
        "endTick": 148396,
        "pitch": 73,
        "velocity": 56,
        "trackId": 4,
        "channel": 3
      },
      {
        "startTick": 148404,
        "endTick": 148964,
        "pitch": 57,
        "velocity": 66,
        "trackId": 1,
        "channel": 0
      },
      {
        "startTick": 148408,
        "endTick": 148584,
        "pitch": 71,
        "velocity": 73,
        "trackId": 4,
        "channel": 3
      },
      {
        "startTick": 148416,
        "endTick": 148616,
        "pitch": 80,
        "velocity": 36,
        "trackId": 10,
        "channel": 9
      },
      {
        "startTick": 148596,
        "endTick": 148980,
        "pitch": 71,
        "velocity": 83,
        "trackId": 1,
        "channel": 0
      },
      {
        "startTick": 148608,
        "endTick": 148952,
        "pitch": 69,
        "velocity": 60,
        "trackId": 4,
        "channel": 3
      },
      {
        "startTick": 148608,
        "endTick": 148960,
        "pitch": 81,
        "velocity": 52,
        "trackId": 10,
        "channel": 9
      },
      {
        "startTick": 148872,
        "endTick": 148924,
        "pitch": 51,
        "velocity": 29,
        "trackId": 10,
        "channel": 9
      },
      {
        "startTick": 148904,
        "endTick": 148976,
        "pitch": 59,
        "velocity": 45,
        "trackId": 10,
        "channel": 9
      },
      {
        "startTick": 148940,
        "endTick": 149016,
        "pitch": 51,
        "velocity": 44,
        "trackId": 10,
        "channel": 9
      },
      {
        "startTick": 148972,
        "endTick": 150476,
        "pitch": 69,
        "velocity": 82,
        "trackId": 1,
        "channel": 0
      },
      {
        "startTick": 148980,
        "endTick": 149740,
        "pitch": 61,
        "velocity": 70,
        "trackId": 1,
        "channel": 0
      },
      {
        "startTick": 148980,
        "endTick": 149760,
        "pitch": 59,
        "velocity": 70,
        "trackId": 1,
        "channel": 0
      },
      {
        "startTick": 148980,
        "endTick": 150340,
        "pitch": 42,
        "velocity": 75,
        "trackId": 1,
        "channel": 0
      },
      {
        "startTick": 148980,
        "endTick": 150500,
        "pitch": 64,
        "velocity": 74,
        "trackId": 1,
        "channel": 0
      },
      {
        "startTick": 148992,
        "endTick": 149040,
        "pitch": 55,
        "velocity": 38,
        "trackId": 10,
        "channel": 9
      },
      {
        "startTick": 148992,
        "endTick": 149040,
        "pitch": 59,
        "velocity": 64,
        "trackId": 10,
        "channel": 9
      },
      {
        "startTick": 148992,
        "endTick": 149104,
        "pitch": 70,
        "velocity": 69,
        "trackId": 10,
        "channel": 9
      },
      {
        "startTick": 148992,
        "endTick": 150516,
        "pitch": 69,
        "velocity": 56,
        "trackId": 4,
        "channel": 3
      },
      {
        "startTick": 149184,
        "endTick": 149268,
        "pitch": 70,
        "velocity": 52,
        "trackId": 10,
        "channel": 9
      },
      {
        "startTick": 149376,
        "endTick": 149488,
        "pitch": 70,
        "velocity": 52,
        "trackId": 10,
        "channel": 9
      },
      {
        "startTick": 149568,
        "endTick": 149788,
        "pitch": 70,
        "velocity": 32,
        "trackId": 10,
        "channel": 9
      },
      {
        "startTick": 149748,
        "endTick": 149972,
        "pitch": 62,
        "velocity": 48,
        "trackId": 4,
        "channel": 3
      },
      {
        "startTick": 149756,
        "endTick": 149976,
        "pitch": 62,
        "velocity": 74,
        "trackId": 1,
        "channel": 0
      },
      {
        "startTick": 149968,
        "endTick": 150200,
        "pitch": 61,
        "velocity": 48,
        "trackId": 4,
        "channel": 3
      },
      {
        "startTick": 150012,
        "endTick": 150256,
        "pitch": 57,
        "velocity": 59,
        "trackId": 1,
        "channel": 0
      },
      {
        "startTick": 150220,
        "endTick": 150464,
        "pitch": 59,
        "velocity": 48,
        "trackId": 4,
        "channel": 3
      },
      {
        "startTick": 150256,
        "endTick": 150472,
        "pitch": 62,
        "velocity": 70,
        "trackId": 1,
        "channel": 0
      },
      {
        "startTick": 150472,
        "endTick": 151044,
        "pitch": 57,
        "velocity": 40,
        "trackId": 4,
        "channel": 3
      },
      {
        "startTick": 150484,
        "endTick": 151984,
        "pitch": 55,
        "velocity": 70,
        "trackId": 1,
        "channel": 0
      },
      {
        "startTick": 150504,
        "endTick": 152024,
        "pitch": 59,
        "velocity": 83,
        "trackId": 1,
        "channel": 0
      },
      {
        "startTick": 150504,
        "endTick": 152028,
        "pitch": 62,
        "velocity": 74,
        "trackId": 1,
        "channel": 0
      },
      {
        "startTick": 150508,
        "endTick": 153536,
        "pitch": 45,
        "velocity": 74,
        "trackId": 1,
        "channel": 0
      },
      {
        "startTick": 150512,
        "endTick": 151760,
        "pitch": 62,
        "velocity": 25,
        "trackId": 3,
        "channel": 2
      },
      {
        "startTick": 150512,
        "endTick": 153536,
        "pitch": 66,
        "velocity": 74,
        "trackId": 1,
        "channel": 0
      },
      {
        "startTick": 150528,
        "endTick": 150552,
        "pitch": 51,
        "velocity": 52,
        "trackId": 10,
        "channel": 9
      },
      {
        "startTick": 151292,
        "endTick": 151540,
        "pitch": 66,
        "velocity": 58,
        "trackId": 4,
        "channel": 3
      },
      {
        "startTick": 151564,
        "endTick": 151804,
        "pitch": 66,
        "velocity": 58,
        "trackId": 4,
        "channel": 3
      },
      {
        "startTick": 151796,
        "endTick": 153592,
        "pitch": 61,
        "velocity": 26,
        "trackId": 3,
        "channel": 2
      },
      {
        "startTick": 151820,
        "endTick": 153476,
        "pitch": 64,
        "velocity": 60,
        "trackId": 4,
        "channel": 3
      },
      {
        "startTick": 152064,
        "endTick": 153532,
        "pitch": 61,
        "velocity": 70,
        "trackId": 1,
        "channel": 0
      },
      {
        "startTick": 152076,
        "endTick": 153564,
        "pitch": 55,
        "velocity": 70,
        "trackId": 1,
        "channel": 0
      },
      {
        "startTick": 152420,
        "endTick": 152472,
        "pitch": 50,
        "velocity": 16,
        "trackId": 6,
        "channel": 5
      },
      {
        "startTick": 152440,
        "endTick": 152528,
        "pitch": 52,
        "velocity": 30,
        "trackId": 6,
        "channel": 5
      },
      {
        "startTick": 152448,
        "endTick": 153484,
        "pitch": 72,
        "velocity": 31,
        "trackId": 14,
        "channel": 13
      },
      {
        "startTick": 152512,
        "endTick": 152588,
        "pitch": 54,
        "velocity": 31,
        "trackId": 6,
        "channel": 5
      },
      {
        "startTick": 152572,
        "endTick": 152636,
        "pitch": 55,
        "velocity": 36,
        "trackId": 6,
        "channel": 5
      },
      {
        "startTick": 152620,
        "endTick": 152688,
        "pitch": 57,
        "velocity": 44,
        "trackId": 6,
        "channel": 5
      },
      {
        "startTick": 152668,
        "endTick": 152736,
        "pitch": 59,
        "velocity": 43,
        "trackId": 6,
        "channel": 5
      },
      {
        "startTick": 152724,
        "endTick": 152784,
        "pitch": 61,
        "velocity": 40,
        "trackId": 6,
        "channel": 5
      },
      {
        "startTick": 152768,
        "endTick": 152840,
        "pitch": 62,
        "velocity": 46,
        "trackId": 6,
        "channel": 5
      },
      {
        "startTick": 152820,
        "endTick": 152880,
        "pitch": 64,
        "velocity": 46,
        "trackId": 6,
        "channel": 5
      },
      {
        "startTick": 152864,
        "endTick": 152932,
        "pitch": 66,
        "velocity": 46,
        "trackId": 6,
        "channel": 5
      },
      {
        "startTick": 152912,
        "endTick": 152976,
        "pitch": 67,
        "velocity": 46,
        "trackId": 6,
        "channel": 5
      },
      {
        "startTick": 152956,
        "endTick": 153016,
        "pitch": 69,
        "velocity": 43,
        "trackId": 6,
        "channel": 5
      },
      {
        "startTick": 153000,
        "endTick": 153056,
        "pitch": 71,
        "velocity": 46,
        "trackId": 6,
        "channel": 5
      },
      {
        "startTick": 153024,
        "endTick": 153612,
        "pitch": 60,
        "velocity": 43,
        "trackId": 13,
        "channel": 12
      },
      {
        "startTick": 153040,
        "endTick": 153096,
        "pitch": 73,
        "velocity": 49,
        "trackId": 6,
        "channel": 5
      },
      {
        "startTick": 153080,
        "endTick": 153136,
        "pitch": 74,
        "velocity": 52,
        "trackId": 6,
        "channel": 5
      },
      {
        "startTick": 153120,
        "endTick": 153176,
        "pitch": 76,
        "velocity": 52,
        "trackId": 6,
        "channel": 5
      },
      {
        "startTick": 153160,
        "endTick": 153208,
        "pitch": 78,
        "velocity": 52,
        "trackId": 6,
        "channel": 5
      },
      {
        "startTick": 153196,
        "endTick": 153248,
        "pitch": 79,
        "velocity": 55,
        "trackId": 6,
        "channel": 5
      },
      {
        "startTick": 153232,
        "endTick": 153284,
        "pitch": 81,
        "velocity": 58,
        "trackId": 6,
        "channel": 5
      },
      {
        "startTick": 153264,
        "endTick": 153316,
        "pitch": 83,
        "velocity": 61,
        "trackId": 6,
        "channel": 5
      },
      {
        "startTick": 153304,
        "endTick": 153348,
        "pitch": 85,
        "velocity": 61,
        "trackId": 6,
        "channel": 5
      },
      {
        "startTick": 153332,
        "endTick": 153384,
        "pitch": 86,
        "velocity": 61,
        "trackId": 6,
        "channel": 5
      },
      {
        "startTick": 153368,
        "endTick": 153416,
        "pitch": 88,
        "velocity": 64,
        "trackId": 6,
        "channel": 5
      },
      {
        "startTick": 153404,
        "endTick": 153452,
        "pitch": 90,
        "velocity": 66,
        "trackId": 6,
        "channel": 5
      },
      {
        "startTick": 153444,
        "endTick": 153500,
        "pitch": 91,
        "velocity": 66,
        "trackId": 6,
        "channel": 5
      },
      {
        "startTick": 153484,
        "endTick": 153540,
        "pitch": 93,
        "velocity": 66,
        "trackId": 6,
        "channel": 5
      },
      {
        "startTick": 153524,
        "endTick": 153580,
        "pitch": 95,
        "velocity": 66,
        "trackId": 6,
        "channel": 5
      },
      {
        "startTick": 153568,
        "endTick": 153628,
        "pitch": 97,
        "velocity": 64,
        "trackId": 6,
        "channel": 5
      },
      {
        "startTick": 153576,
        "endTick": 155060,
        "pitch": 66,
        "velocity": 32,
        "trackId": 4,
        "channel": 3
      },
      {
        "startTick": 153592,
        "endTick": 159008,
        "pitch": 86,
        "velocity": 30,
        "trackId": 3,
        "channel": 2
      },
      {
        "startTick": 153600,
        "endTick": 153624,
        "pitch": 51,
        "velocity": 52,
        "trackId": 10,
        "channel": 9
      },
      {
        "startTick": 153600,
        "endTick": 153760,
        "pitch": 57,
        "velocity": 83,
        "trackId": 1,
        "channel": 0
      },
      {
        "startTick": 153600,
        "endTick": 155036,
        "pitch": 50,
        "velocity": 92,
        "trackId": 1,
        "channel": 0
      },
      {
        "startTick": 153608,
        "endTick": 154144,
        "pitch": 66,
        "velocity": 92,
        "trackId": 1,
        "channel": 0
      },
      {
        "startTick": 153612,
        "endTick": 153672,
        "pitch": 98,
        "velocity": 73,
        "trackId": 6,
        "channel": 5
      },
      {
        "startTick": 153784,
        "endTick": 154148,
        "pitch": 57,
        "velocity": 62,
        "trackId": 1,
        "channel": 0
      },
      {
        "startTick": 153968,
        "endTick": 154160,
        "pitch": 64,
        "velocity": 83,
        "trackId": 1,
        "channel": 0
      },
      {
        "startTick": 154156,
        "endTick": 154712,
        "pitch": 67,
        "velocity": 92,
        "trackId": 1,
        "channel": 0
      },
      {
        "startTick": 154156,
        "endTick": 155060,
        "pitch": 59,
        "velocity": 66,
        "trackId": 1,
        "channel": 0
      },
      {
        "startTick": 154176,
        "endTick": 154200,
        "pitch": 51,
        "velocity": 31,
        "trackId": 10,
        "channel": 9
      },
      {
        "startTick": 154368,
        "endTick": 154392,
        "pitch": 51,
        "velocity": 52,
        "trackId": 10,
        "channel": 9
      },
      {
        "startTick": 154548,
        "endTick": 156252,
        "pitch": 66,
        "velocity": 79,
        "trackId": 1,
        "channel": 0
      },
      {
        "startTick": 154736,
        "endTick": 154952,
        "pitch": 62,
        "velocity": 79,
        "trackId": 1,
        "channel": 0
      },
      {
        "startTick": 154924,
        "endTick": 155280,
        "pitch": 57,
        "velocity": 85,
        "trackId": 1,
        "channel": 0
      },
      {
        "startTick": 155128,
        "endTick": 156632,
        "pitch": 50,
        "velocity": 87,
        "trackId": 1,
        "channel": 0
      },
      {
        "startTick": 155312,
        "endTick": 155528,
        "pitch": 57,
        "velocity": 59,
        "trackId": 1,
        "channel": 0
      },
      {
        "startTick": 155504,
        "endTick": 156628,
        "pitch": 62,
        "velocity": 83,
        "trackId": 1,
        "channel": 0
      },
      {
        "startTick": 155676,
        "endTick": 155916,
        "pitch": 69,
        "velocity": 70,
        "trackId": 1,
        "channel": 0
      },
      {
        "startTick": 155696,
        "endTick": 156612,
        "pitch": 57,
        "velocity": 70,
        "trackId": 1,
        "channel": 0
      },
      {
        "startTick": 155700,
        "endTick": 155920,
        "pitch": 69,
        "velocity": 40,
        "trackId": 8,
        "channel": 7
      },
      {
        "startTick": 155712,
        "endTick": 155736,
        "pitch": 51,
        "velocity": 31,
        "trackId": 10,
        "channel": 9
      },
      {
        "startTick": 155896,
        "endTick": 156112,
        "pitch": 78,
        "velocity": 64,
        "trackId": 8,
        "channel": 7
      },
      {
        "startTick": 155896,
        "endTick": 156120,
        "pitch": 78,
        "velocity": 74,
        "trackId": 1,
        "channel": 0
      },
      {
        "startTick": 155904,
        "endTick": 155928,
        "pitch": 51,
        "velocity": 52,
        "trackId": 10,
        "channel": 9
      },
      {
        "startTick": 156092,
        "endTick": 156300,
        "pitch": 67,
        "velocity": 58,
        "trackId": 1,
        "channel": 0
      },
      {
        "startTick": 156092,
        "endTick": 156304,
        "pitch": 67,
        "velocity": 56,
        "trackId": 8,
        "channel": 7
      },
      {
        "startTick": 156280,
        "endTick": 156484,
        "pitch": 76,
        "velocity": 70,
        "trackId": 1,
        "channel": 0
      },
      {
        "startTick": 156284,
        "endTick": 156480,
        "pitch": 76,
        "velocity": 48,
        "trackId": 8,
        "channel": 7
      },
      {
        "startTick": 156476,
        "endTick": 156700,
        "pitch": 66,
        "velocity": 52,
        "trackId": 8,
        "channel": 7
      },
      {
        "startTick": 156480,
        "endTick": 156504,
        "pitch": 51,
        "velocity": 31,
        "trackId": 10,
        "channel": 9
      },
      {
        "startTick": 156480,
        "endTick": 156648,
        "pitch": 66,
        "velocity": 50,
        "trackId": 1,
        "channel": 0
      },
      {
        "startTick": 156668,
        "endTick": 157256,
        "pitch": 69,
        "velocity": 62,
        "trackId": 1,
        "channel": 0
      },
      {
        "startTick": 156668,
        "endTick": 157412,
        "pitch": 74,
        "velocity": 49,
        "trackId": 8,
        "channel": 7
      },
      {
        "startTick": 156672,
        "endTick": 156696,
        "pitch": 51,
        "velocity": 52,
        "trackId": 10,
        "channel": 9
      },
      {
        "startTick": 156672,
        "endTick": 156828,
        "pitch": 57,
        "velocity": 83,
        "trackId": 1,
        "channel": 0
      },
      {
        "startTick": 156672,
        "endTick": 157208,
        "pitch": 66,
        "velocity": 92,
        "trackId": 1,
        "channel": 0
      },
      {
        "startTick": 156672,
        "endTick": 157416,
        "pitch": 74,
        "velocity": 66,
        "trackId": 1,
        "channel": 0
      },
      {
        "startTick": 156672,
        "endTick": 157988,
        "pitch": 50,
        "velocity": 92,
        "trackId": 1,
        "channel": 0
      },
      {
        "startTick": 156848,
        "endTick": 157064,
        "pitch": 57,
        "velocity": 70,
        "trackId": 1,
        "channel": 0
      },
      {
        "startTick": 157040,
        "endTick": 157224,
        "pitch": 64,
        "velocity": 83,
        "trackId": 1,
        "channel": 0
      },
      {
        "startTick": 157244,
        "endTick": 157620,
        "pitch": 67,
        "velocity": 83,
        "trackId": 1,
        "channel": 0
      },
      {
        "startTick": 157244,
        "endTick": 157628,
        "pitch": 59,
        "velocity": 92,
        "trackId": 1,
        "channel": 0
      },
      {
        "startTick": 157244,
        "endTick": 157628,
        "pitch": 62,
        "velocity": 63,
        "trackId": 1,
        "channel": 0
      },
      {
        "startTick": 157440,
        "endTick": 157464,
        "pitch": 51,
        "velocity": 52,
        "trackId": 10,
        "channel": 9
      },
      {
        "startTick": 157628,
        "endTick": 158152,
        "pitch": 66,
        "velocity": 82,
        "trackId": 1,
        "channel": 0
      },
      {
        "startTick": 157820,
        "endTick": 158180,
        "pitch": 62,
        "velocity": 82,
        "trackId": 1,
        "channel": 0
      },
      {
        "startTick": 158004,
        "endTick": 158196,
        "pitch": 50,
        "velocity": 74,
        "trackId": 1,
        "channel": 0
      },
      {
        "startTick": 158004,
        "endTick": 158212,
        "pitch": 57,
        "velocity": 68,
        "trackId": 1,
        "channel": 0
      },
      {
        "startTick": 158200,
        "endTick": 158556,
        "pitch": 62,
        "velocity": 70,
        "trackId": 1,
        "channel": 0
      },
      {
        "startTick": 158200,
        "endTick": 158808,
        "pitch": 66,
        "velocity": 83,
        "trackId": 1,
        "channel": 0
      },
      {
        "startTick": 158200,
        "endTick": 158972,
        "pitch": 47,
        "velocity": 92,
        "trackId": 1,
        "channel": 0
      },
      {
        "startTick": 158400,
        "endTick": 158936,
        "pitch": 55,
        "velocity": 79,
        "trackId": 1,
        "channel": 0
      },
      {
        "startTick": 158588,
        "endTick": 158996,
        "pitch": 62,
        "velocity": 70,
        "trackId": 1,
        "channel": 0
      },
      {
        "startTick": 158592,
        "endTick": 159628,
        "pitch": 72,
        "velocity": 31,
        "trackId": 14,
        "channel": 13
      },
      {
        "startTick": 158776,
        "endTick": 158944,
        "pitch": 64,
        "velocity": 83,
        "trackId": 1,
        "channel": 0
      },
      {
        "startTick": 158968,
        "endTick": 159700,
        "pitch": 64,
        "velocity": 88,
        "trackId": 1,
        "channel": 0
      },
      {
        "startTick": 158968,
        "endTick": 159724,
        "pitch": 61,
        "velocity": 66,
        "trackId": 1,
        "channel": 0
      },
      {
        "startTick": 158972,
        "endTick": 159728,
        "pitch": 49,
        "velocity": 92,
        "trackId": 1,
        "channel": 0
      },
      {
        "startTick": 158976,
        "endTick": 159420,
        "pitch": 88,
        "velocity": 30,
        "trackId": 3,
        "channel": 2
      },
      {
        "startTick": 159164,
        "endTick": 159360,
        "pitch": 57,
        "velocity": 74,
        "trackId": 1,
        "channel": 0
      },
      {
        "startTick": 159168,
        "endTick": 159756,
        "pitch": 60,
        "velocity": 43,
        "trackId": 13,
        "channel": 12
      },
      {
        "startTick": 159364,
        "endTick": 159784,
        "pitch": 69,
        "velocity": 91,
        "trackId": 1,
        "channel": 0
      },
      {
        "startTick": 159388,
        "endTick": 162704,
        "pitch": 81,
        "velocity": 30,
        "trackId": 3,
        "channel": 2
      },
      {
        "startTick": 159548,
        "endTick": 159772,
        "pitch": 67,
        "velocity": 79,
        "trackId": 1,
        "channel": 0
      },
      {
        "startTick": 159624,
        "endTick": 159676,
        "pitch": 51,
        "velocity": 29,
        "trackId": 10,
        "channel": 9
      },
      {
        "startTick": 159656,
        "endTick": 159728,
        "pitch": 59,
        "velocity": 45,
        "trackId": 10,
        "channel": 9
      },
      {
        "startTick": 159668,
        "endTick": 162728,
        "pitch": 38,
        "velocity": 58,
        "trackId": 1,
        "channel": 0
      },
      {
        "startTick": 159692,
        "endTick": 159768,
        "pitch": 51,
        "velocity": 44,
        "trackId": 10,
        "channel": 9
      },
      {
        "startTick": 159692,
        "endTick": 162744,
        "pitch": 54,
        "velocity": 54,
        "trackId": 1,
        "channel": 0
      },
      {
        "startTick": 159728,
        "endTick": 162732,
        "pitch": 45,
        "velocity": 66,
        "trackId": 1,
        "channel": 0
      },
      {
        "startTick": 159744,
        "endTick": 159792,
        "pitch": 55,
        "velocity": 38,
        "trackId": 10,
        "channel": 9
      },
      {
        "startTick": 159744,
        "endTick": 159792,
        "pitch": 59,
        "velocity": 64,
        "trackId": 10,
        "channel": 9
      },
      {
        "startTick": 159752,
        "endTick": 162688,
        "pitch": 62,
        "velocity": 21,
        "trackId": 3,
        "channel": 2
      },
      {
        "startTick": 159756,
        "endTick": 162644,
        "pitch": 50,
        "velocity": 21,
        "trackId": 3,
        "channel": 2
      },
      {
        "startTick": 159764,
        "endTick": 162704,
        "pitch": 66,
        "velocity": 20,
        "trackId": 3,
        "channel": 2
      },
      {
        "startTick": 159768,
        "endTick": 162684,
        "pitch": 57,
        "velocity": 18,
        "trackId": 3,
        "channel": 2
      },
      {
        "startTick": 159768,
        "endTick": 162700,
        "pitch": 64,
        "velocity": 21,
        "trackId": 3,
        "channel": 2
      },
      {
        "startTick": 159768,
        "endTick": 162732,
        "pitch": 50,
        "velocity": 70,
        "trackId": 1,
        "channel": 0
      },
      {
        "startTick": 159768,
        "endTick": 162740,
        "pitch": 57,
        "velocity": 74,
        "trackId": 1,
        "channel": 0
      },
      {
        "startTick": 159792,
        "endTick": 162744,
        "pitch": 62,
        "velocity": 66,
        "trackId": 1,
        "channel": 0
      },
      {
        "startTick": 159800,
        "endTick": 162748,
        "pitch": 66,
        "velocity": 83,
        "trackId": 1,
        "channel": 0
      }
    ],
    "x0": 150,
    "x1": 7062
  },
  "tempoMap": [
    {
      "startColumn": 0,
      "bpm": 108
    },
    {
      "startColumn": 361,
      "bpm": 106
    },
    {
      "startColumn": 363,
      "bpm": 104
    },
    {
      "startColumn": 373,
      "bpm": 108
    },
    {
      "startColumn": 393,
      "bpm": 106
    },
    {
      "startColumn": 395,
      "bpm": 102
    },
    {
      "startColumn": 397,
      "bpm": 90
    },
    {
      "startColumn": 403,
      "bpm": 108
    },
    {
      "startColumn": 416,
      "bpm": 106
    },
    {
      "startColumn": 420,
      "bpm": 102
    },
    {
      "startColumn": 422,
      "bpm": 100
    }
  ],
  "audioQualityMode": "balanced",
  "gridColumns": 443,
  "notes": [
    116.54094037952248,
    466.1637615180899,
    116.54094037952248,
    87.30705785825097,
    349.2282314330039,
    466.1637615180899,
    116.54094037952248,
    174.61411571650194,
    466.1637615180899,
    116.54094037952248,
    116.54094037952248,
    116.54094037952248,
    174.61411571650194,
    116.54094037952248,
    311.1269837220809,
    311.1269837220809,
    311.1269837220809,
    116.54094037952248,
    116.54094037952248,
    116.54094037952248,
    116.54094037952248,
    116.54094037952248,
    311.1269837220809,
    311.1269837220809,
    311.1269837220809,
    116.54094037952248,
    116.54094037952248,
    116.54094037952248,
    116.54094037952248,
    116.54094037952248,
    116.54094037952248,
    116.54094037952248,
    116.54094037952248,
    116.54094037952248,
    116.54094037952248,
    116.54094037952248,
    116.54094037952248,
    97.99885899543733,
    97.99885899543733,
    110,
    110,
    77.78174593052023,
    77.78174593052023,
    195.99771799087463,
    73.41619197935188,
    97.99885899543733,
    97.99885899543733,
    220,
    87.30705785825097,
    233.08188075904496,
    233.08188075904496,
    69.29565774421802,
    311.1269837220809,
    293.6647679174076,
    293.6647679174076,
    293.6647679174076,
    293.6647679174076,
    116.54094037952248,
    116.54094037952248,
    116.54094037952248,
    116.54094037952248,
    116.54094037952248,
    116.54094037952248,
    622.2539674441618,
    116.54094037952248,
    116.54094037952248,
    293.6647679174076,
    116.54094037952248,
    116.54094037952248,
    233.08188075904496,
    97.99885899543733,
    97.99885899543733,
    110,
    110,
    77.78174593052023,
    77.78174593052023,
    73.41619197935188,
    73.41619197935188,
    97.99885899543733,
    97.99885899543733,
    87.30705785825097,
    87.30705785825097,
    391.99543598174927,
    466.1637615180899,
    311.1269837220809,
    293.6647679174076,
    293.6647679174076,
    233.08188075904496,
    116.54094037952248,
    311.1269837220809,
    220,
    97.99885899543733,
    110,
    110,
    293.6647679174076,
    293.6647679174076,
    293.6647679174076,
    391.99543598174927,
    349.2282314330039,
    110,
    110,
    293.6647679174076,
    293.6647679174076,
    293.6647679174076,
    293.6647679174076,
    349.2282314330039,
    440,
    440,
    349.2282314330039,
    73.41619197935188,
    440,
    77.78174593052023,
    349.2282314330039,
    349.2282314330039,
    293.6647679174076,
    293.6647679174076,
    82.4068892282175,
    82.4068892282175,
    87.30705785825097,
    87.30705785825097,
    87.30705785825097,
    391.99543598174927,
    349.2282314330039,
    87.30705785825097,
    110,
    110,
    293.6647679174076,
    116.54094037952248,
    466.1637615180899,
    116.54094037952248,
    391.99543598174927,
    349.2282314330039,
    92.4986056779086,
    92.4986056779086,
    220,
    97.99885899543733,
    97.99885899543733,
    116.54094037952248,
    349.2282314330039,
    440,
    440,
    349.2282314330039,
    73.41619197935188,
    440,
    77.78174593052023,
    349.2282314330039,
    349.2282314330039,
    293.6647679174076,
    233.08188075904496,
    82.4068892282175,
    82.4068892282175,
    195.99771799087463,
    195.99771799087463,
    87.30705785825097,
    87.30705785825097,
    116.54094037952248,
    116.54094037952248,
    116.54094037952248,
    116.54094037952248,
    116.54094037952248,
    116.54094037952248,
    116.54094037952248,
    116.54094037952248,
    138.59131548843604,
    138.59131548843604,
    138.59131548843604,
    138.59131548843604,
    138.59131548843604,
    138.59131548843604,
    698.4564628660078,
    622.2539674441618,
    349.2282314330039,
    349.2282314330039,
    138.59131548843604,
    138.59131548843604,
    116.54094037952248,
    116.54094037952248,
    130.8127826502993,
    130.8127826502993,
    92.4986056779086,
    92.4986056779086,
    87.30705785825097,
    87.30705785825097,
    116.54094037952248,
    116.54094037952248,
    103.82617439498628,
    103.82617439498628,
    233.08188075904496,
    233.08188075904496,
    277.1826309768721,
    277.1826309768721,
    349.2282314330039,
    349.2282314330039,
    138.59131548843604,
    138.59131548843604,
    369.9944227116344,
    261.6255653005986,
    116.54094037952248,
    130.8127826502993,
    130.8127826502993,
    349.2282314330039,
    349.2282314330039,
    349.2282314330039,
    466.1637615180899,
    415.3046975799451,
    311.1269837220809,
    349.2282314330039,
    349.2282314330039,
    349.2282314330039,
    349.2282314330039,
    349.2282314330039,
    415.3046975799451,
    523.2511306011972,
    523.2511306011972,
    415.3046975799451,
    87.30705785825097,
    523.2511306011972,
    92.4986056779086,
    87.30705785825097,
    415.3046975799451,
    349.2282314330039,
    349.2282314330039,
    77.78174593052023,
    77.78174593052023,
    103.82617439498628,
    103.82617439498628,
    233.08188075904496,
    466.1637615180899,
    415.3046975799451,
    103.82617439498628,
    103.82617439498628,
    311.1269837220809,
    349.2282314330039,
    138.59131548843604,
    554.3652619537442,
    138.59131548843604,
    415.3046975799451,
    130.8127826502993,
    110,
    110,
    116.54094037952248,
    116.54094037952248,
    349.2282314330039,
    103.82617439498628,
    523.2511306011972,
    523.2511306011972,
    415.3046975799451,
    87.30705785825097,
    523.2511306011972,
    92.4986056779086,
    415.3046975799451,
    415.3046975799451,
    349.2282314330039,
    349.2282314330039,
    77.78174593052023,
    77.78174593052023,
    311.1269837220809,
    233.08188075904496,
    349.2282314330039,
    311.1269837220809,
    103.82617439498628,
    110,
    293.6647679174076,
    110,
    164.81377845643496,
    164.81377845643496,
    164.81377845643496,
    554.3652619537442,
    493.8833012561241,
    277.1826309768721,
    110,
    92.4986056779086,
    440,
    440,
    440,
    440,
    207.65234878997256,
    73.41619197935188,
    73.41619197935188,
    277.1826309768721,
    277.1826309768721,
    92.4986056779086,
    92.4986056779086,
    82.4068892282175,
    82.4068892282175,
    293.6647679174076,
    293.6647679174076,
    293.6647679174076,
    293.6647679174076,
    1318.5102276514797,
    1318.5102276514797,
    146.8323839587038,
    391.99543598174927,
    277.1826309768721,
    277.1826309768721,
    220,
    391.99543598174927,
    369.9944227116344,
    146.8323839587038,
    369.9944227116344,
    493.8833012561241,
    440,
    138.59131548843604,
    138.59131548843604,
    138.59131548843604,
    369.9944227116344,
    369.9944227116344,
    369.9944227116344,
    391.99543598174927,
    554.3652619537442,
    554.3652619537442,
    440,
    92.4986056779086,
    554.3652619537442,
    97.99885899543733,
    440,
    440,
    293.6647679174076,
    293.6647679174076,
    123.47082531403103,
    82.4068892282175,
    369.9944227116344,
    110,
    110,
    391.99543598174927,
    493.8833012561241,
    440,
    110,
    110,
    329.6275569128699,
    369.9944227116344,
    146.8323839587038,
    587.3295358348151,
    146.8323839587038,
    440,
    329.6275569128699,
    116.54094037952248,
    92.4986056779086,
    123.47082531403103,
    123.47082531403103,
    369.9944227116344,
    440,
    554.3652619537442,
    554.3652619537442,
    440,
    92.4986056779086,
    554.3652619537442,
    97.99885899543733,
    440,
    440,
    440,
    440,
    92.4986056779086,
    329.6275569128699,
    116.54094037952248,
    116.54094037952248,
    123.47082531403103,
    123.47082531403103,
    369.9944227116344,
    369.9944227116344,
    82.4068892282175,
    82.4068892282175,
    246.94165062806206,
    246.94165062806206,
    110,
    110,
    329.6275569128699,
    123.47082531403103,
    123.47082531403103,
    61.7354126570155,
    587.3295358348151,
    51.91308719749314,
    493.8833012561241,
    493.8833012561241,
    493.8833012561241,
    587.3295358348151,
    369.9944227116344,
    391.99543598174927,
    493.8833012561241,
    440,
    440,
    440,
    440,
    97.99885899543733,
    97.99885899543733,
    391.99543598174927,
    493.8833012561241,
    440,
    440,
    440,
    440,
    97.99885899543733,
    97.99885899543733,
    391.99543598174927,
    493.8833012561241,
    440,
    440,
    440,
    440,
    246.94165062806206,
    246.94165062806206,
    246.94165062806206,
    246.94165062806206,
    246.94165062806206,
    110,
    110,
    110,
    110,
    146.8323839587038,
    146.8323839587038,
    146.8323839587038,
    146.8323839587038,
    146.8323839587038,
    146.8323839587038,
    146.8323839587038,
    146.8323839587038,
    369.9944227116344,
    369.9944227116344,
    146.8323839587038,
    146.8323839587038,
    293.6647679174076,
    123.47082531403103,
    123.47082531403103,
    138.59131548843604,
    138.59131548843604,
    369.9944227116344,
    369.9944227116344,
    369.9944227116344,
    369.9944227116344,
    369.9944227116344,
    369.9944227116344,
    369.9944227116344,
    369.9944227116344,
    369.9944227116344,
    349.2282314330039,
    311.1269837220809,
    293.6647679174076,
    261.6255653005986,
    233.08188075904496,
    293.6647679174076,
    293.6647679174076,
    220,
    195.99771799087463
  ],
  "platforms": [
    {
      "kind": "segment",
      "x": 182,
      "y": 416,
      "width": 64,
      "height": 18
    },
    {
      "kind": "segment",
      "x": 246,
      "y": 384,
      "width": 64,
      "height": 18
    },
    {
      "kind": "segment",
      "x": 310,
      "y": 384,
      "width": 64,
      "height": 18
    },
    {
      "kind": "elevator",
      "x": 374,
      "y": 416,
      "width": 64,
      "height": 18
    },
    {
      "kind": "segment",
      "x": 438,
      "y": 416,
      "width": 64,
      "height": 18
    },
    {
      "kind": "segment",
      "x": 502,
      "y": 288,
      "width": 64,
      "height": 18
    },
    {
      "kind": "segment",
      "x": 566,
      "y": 352,
      "width": 64,
      "height": 18
    },
    {
      "kind": "segment",
      "x": 694,
      "y": 288,
      "width": 64,
      "height": 18
    },
    {
      "kind": "segment",
      "x": 822,
      "y": 416,
      "width": 64,
      "height": 18
    },
    {
      "kind": "segment",
      "x": 886,
      "y": 288,
      "width": 64,
      "height": 18
    },
    {
      "kind": "segment",
      "x": 950,
      "y": 384,
      "width": 64,
      "height": 18
    },
    {
      "kind": "segment",
      "x": 1078,
      "y": 352,
      "width": 64,
      "height": 18
    },
    {
      "kind": "segment",
      "x": 1206,
      "y": 320,
      "width": 64,
      "height": 18
    },
    {
      "kind": "segment",
      "x": 1270,
      "y": 352,
      "width": 64,
      "height": 18
    },
    {
      "kind": "segment",
      "x": 1334,
      "y": 384,
      "width": 64,
      "height": 18
    },
    {
      "kind": "alternateBeat",
      "x": 1398,
      "y": 352,
      "width": 64,
      "height": 18
    },
    {
      "kind": "segment",
      "x": 1462,
      "y": 320,
      "width": 64,
      "height": 18
    },
    {
      "kind": "segment",
      "x": 1526,
      "y": 384,
      "width": 64,
      "height": 18
    },
    {
      "kind": "segment",
      "x": 1590,
      "y": 352,
      "width": 64,
      "height": 18
    },
    {
      "kind": "beat",
      "x": 1654,
      "y": 384,
      "width": 64,
      "height": 18
    },
    {
      "kind": "segment",
      "x": 1718,
      "y": 416,
      "width": 64,
      "height": 18
    },
    {
      "kind": "segment",
      "x": 1782,
      "y": 384,
      "width": 64,
      "height": 18
    },
    {
      "kind": "segment",
      "x": 1974,
      "y": 384,
      "width": 64,
      "height": 18
    },
    {
      "kind": "segment",
      "x": 2038,
      "y": 416,
      "width": 64,
      "height": 18
    },
    {
      "kind": "segment",
      "x": 2102,
      "y": 416,
      "width": 64,
      "height": 18
    },
    {
      "kind": "alternateBeat",
      "x": 2166,
      "y": 320,
      "width": 64,
      "height": 18
    },
    {
      "kind": "segment",
      "x": 2230,
      "y": 352,
      "width": 64,
      "height": 18
    },
    {
      "kind": "segment",
      "x": 2294,
      "y": 384,
      "width": 64,
      "height": 18
    },
    {
      "kind": "segment",
      "x": 2358,
      "y": 416,
      "width": 64,
      "height": 18
    },
    {
      "kind": "elevator",
      "x": 2422,
      "y": 384,
      "width": 64,
      "height": 18
    },
    {
      "kind": "segment",
      "x": 2486,
      "y": 352,
      "width": 64,
      "height": 18
    },
    {
      "kind": "segment",
      "x": 2550,
      "y": 352,
      "width": 64,
      "height": 18
    },
    {
      "kind": "segment",
      "x": 2614,
      "y": 416,
      "width": 64,
      "height": 18
    },
    {
      "kind": "alternateBeat",
      "x": 2678,
      "y": 320,
      "width": 64,
      "height": 18
    },
    {
      "kind": "segment",
      "x": 2742,
      "y": 384,
      "width": 64,
      "height": 18
    },
    {
      "kind": "segment",
      "x": 2806,
      "y": 416,
      "width": 64,
      "height": 18
    },
    {
      "kind": "segment",
      "x": 2870,
      "y": 320,
      "width": 64,
      "height": 18
    },
    {
      "kind": "segment",
      "x": 2998,
      "y": 352,
      "width": 64,
      "height": 18
    },
    {
      "kind": "segment",
      "x": 3062,
      "y": 352,
      "width": 64,
      "height": 18
    },
    {
      "kind": "beat",
      "x": 3126,
      "y": 416,
      "width": 64,
      "height": 18
    },
    {
      "kind": "segment",
      "x": 3190,
      "y": 416,
      "width": 64,
      "height": 18
    },
    {
      "kind": "segment",
      "x": 3254,
      "y": 320,
      "width": 64,
      "height": 18
    },
    {
      "kind": "segment",
      "x": 3318,
      "y": 416,
      "width": 64,
      "height": 18
    },
    {
      "kind": "elevator",
      "x": 3382,
      "y": 416,
      "width": 64,
      "height": 18
    },
    {
      "kind": "segment",
      "x": 3446,
      "y": 384,
      "width": 64,
      "height": 18
    },
    {
      "kind": "segment",
      "x": 3510,
      "y": 384,
      "width": 64,
      "height": 18
    },
    {
      "kind": "segment",
      "x": 3574,
      "y": 384,
      "width": 64,
      "height": 18
    },
    {
      "kind": "elevator",
      "x": 3638,
      "y": 384,
      "width": 64,
      "height": 18
    },
    {
      "kind": "segment",
      "x": 3702,
      "y": 352,
      "width": 64,
      "height": 18
    },
    {
      "kind": "segment",
      "x": 3766,
      "y": 320,
      "width": 64,
      "height": 18
    },
    {
      "kind": "segment",
      "x": 3830,
      "y": 352,
      "width": 64,
      "height": 18
    },
    {
      "kind": "reverseGhost",
      "x": 3894,
      "y": 352,
      "width": 64,
      "height": 18
    },
    {
      "kind": "launch60",
      "x": 3958,
      "y": 416,
      "width": 64,
      "height": 18
    },
    {
      "kind": "segment",
      "x": 4022,
      "y": 288,
      "width": 64,
      "height": 18
    },
    {
      "kind": "segment",
      "x": 4086,
      "y": 416,
      "width": 64,
      "height": 18
    },
    {
      "kind": "reverseGhost",
      "x": 4150,
      "y": 288,
      "width": 64,
      "height": 18
    },
    {
      "kind": "alternateBeat",
      "x": 4214,
      "y": 288,
      "width": 64,
      "height": 18
    },
    {
      "kind": "segment",
      "x": 4278,
      "y": 352,
      "width": 64,
      "height": 18
    },
    {
      "kind": "segment",
      "x": 4342,
      "y": 416,
      "width": 64,
      "height": 18
    },
    {
      "kind": "elevator",
      "x": 4406,
      "y": 416,
      "width": 64,
      "height": 18
    },
    {
      "kind": "segment",
      "x": 4598,
      "y": 320,
      "width": 64,
      "height": 18
    },
    {
      "kind": "beat",
      "x": 4662,
      "y": 352,
      "width": 64,
      "height": 18
    },
    {
      "kind": "segment",
      "x": 4726,
      "y": 416,
      "width": 64,
      "height": 18
    },
    {
      "kind": "alternateBeat",
      "x": 4790,
      "y": 384,
      "width": 64,
      "height": 18
    },
    {
      "kind": "segment",
      "x": 4854,
      "y": 320,
      "width": 64,
      "height": 18
    },
    {
      "kind": "beat",
      "x": 4918,
      "y": 320,
      "width": 64,
      "height": 18
    },
    {
      "kind": "segment",
      "x": 4982,
      "y": 288,
      "width": 64,
      "height": 18
    },
    {
      "kind": "segment",
      "x": 5046,
      "y": 320,
      "width": 64,
      "height": 18
    },
    {
      "kind": "segment",
      "x": 5110,
      "y": 384,
      "width": 64,
      "height": 18
    },
    {
      "kind": "beat",
      "x": 5174,
      "y": 416,
      "width": 64,
      "height": 18
    },
    {
      "kind": "launch60",
      "x": 5238,
      "y": 352,
      "width": 64,
      "height": 18
    },
    {
      "kind": "segment",
      "x": 5302,
      "y": 384,
      "width": 64,
      "height": 18
    },
    {
      "kind": "segment",
      "x": 5366,
      "y": 384,
      "width": 64,
      "height": 18
    },
    {
      "kind": "beat",
      "x": 5430,
      "y": 352,
      "width": 64,
      "height": 18
    },
    {
      "kind": "segment",
      "x": 5494,
      "y": 416,
      "width": 64,
      "height": 18
    },
    {
      "kind": "segment",
      "x": 5558,
      "y": 320,
      "width": 64,
      "height": 18
    },
    {
      "kind": "segment",
      "x": 5686,
      "y": 320,
      "width": 64,
      "height": 18
    },
    {
      "kind": "segment",
      "x": 5814,
      "y": 416,
      "width": 64,
      "height": 18
    },
    {
      "kind": "segment",
      "x": 5878,
      "y": 320,
      "width": 64,
      "height": 18
    },
    {
      "kind": "segment",
      "x": 5942,
      "y": 288,
      "width": 64,
      "height": 18
    },
    {
      "kind": "beat",
      "x": 6006,
      "y": 320,
      "width": 64,
      "height": 18
    },
    {
      "kind": "segment",
      "x": 6070,
      "y": 416,
      "width": 64,
      "height": 18
    },
    {
      "kind": "segment",
      "x": 6134,
      "y": 416,
      "width": 64,
      "height": 18
    },
    {
      "kind": "segment",
      "x": 6198,
      "y": 352,
      "width": 64,
      "height": 18
    },
    {
      "kind": "shuttle",
      "x": 6262,
      "y": 320,
      "width": 64,
      "height": 18
    },
    {
      "kind": "segment",
      "x": 6326,
      "y": 416,
      "width": 64,
      "height": 18
    },
    {
      "kind": "segment",
      "x": 6390,
      "y": 416,
      "width": 64,
      "height": 18
    },
    {
      "kind": "segment",
      "x": 6518,
      "y": 352,
      "width": 64,
      "height": 18
    },
    {
      "kind": "segment",
      "x": 6646,
      "y": 352,
      "width": 64,
      "height": 18
    },
    {
      "kind": "segment",
      "x": 6710,
      "y": 352,
      "width": 64,
      "height": 18
    },
    {
      "kind": "segment",
      "x": 6774,
      "y": 352,
      "width": 64,
      "height": 18
    },
    {
      "kind": "alternateBeat",
      "x": 6838,
      "y": 320,
      "width": 64,
      "height": 18
    },
    {
      "kind": "segment",
      "x": 6966,
      "y": 320,
      "width": 64,
      "height": 18
    },
    {
      "kind": "elevator",
      "x": 7030,
      "y": 288,
      "width": 64,
      "height": 18
    },
    {
      "kind": "segment",
      "x": 7222,
      "y": 352,
      "width": 64,
      "height": 18
    },
    {
      "kind": "alternateBeat",
      "x": 7286,
      "y": 352,
      "width": 64,
      "height": 18
    },
    {
      "kind": "segment",
      "x": 7350,
      "y": 416,
      "width": 64,
      "height": 18
    },
    {
      "kind": "segment",
      "x": 7414,
      "y": 416,
      "width": 64,
      "height": 18
    },
    {
      "kind": "alternateBeat",
      "x": 7478,
      "y": 416,
      "width": 64,
      "height": 18
    },
    {
      "kind": "segment",
      "x": 7542,
      "y": 384,
      "width": 64,
      "height": 18
    },
    {
      "kind": "segment",
      "x": 7606,
      "y": 416,
      "width": 64,
      "height": 18
    },
    {
      "kind": "elevator",
      "x": 7670,
      "y": 416,
      "width": 64,
      "height": 18
    },
    {
      "kind": "segment",
      "x": 7862,
      "y": 352,
      "width": 64,
      "height": 18
    },
    {
      "kind": "reverseGhost",
      "x": 7926,
      "y": 320,
      "width": 64,
      "height": 18
    },
    {
      "kind": "segment",
      "x": 7990,
      "y": 352,
      "width": 64,
      "height": 18
    },
    {
      "kind": "beat",
      "x": 8054,
      "y": 288,
      "width": 64,
      "height": 18
    },
    {
      "kind": "segment",
      "x": 8118,
      "y": 288,
      "width": 64,
      "height": 18
    },
    {
      "kind": "beat",
      "x": 8182,
      "y": 288,
      "width": 64,
      "height": 18
    },
    {
      "kind": "segment",
      "x": 8246,
      "y": 384,
      "width": 64,
      "height": 18
    },
    {
      "kind": "segment",
      "x": 8310,
      "y": 320,
      "width": 64,
      "height": 18
    },
    {
      "kind": "segment",
      "x": 8374,
      "y": 288,
      "width": 64,
      "height": 18
    },
    {
      "kind": "segment",
      "x": 8502,
      "y": 352,
      "width": 64,
      "height": 18
    },
    {
      "kind": "segment",
      "x": 8566,
      "y": 384,
      "width": 64,
      "height": 18
    },
    {
      "kind": "segment",
      "x": 8630,
      "y": 384,
      "width": 64,
      "height": 18
    },
    {
      "kind": "hazard",
      "x": 8694,
      "y": 352,
      "width": 64,
      "height": 18
    },
    {
      "kind": "beat",
      "x": 8758,
      "y": 288,
      "width": 64,
      "height": 18
    },
    {
      "kind": "segment",
      "x": 8822,
      "y": 320,
      "width": 64,
      "height": 18
    },
    {
      "kind": "elevator",
      "x": 8886,
      "y": 320,
      "width": 64,
      "height": 18
    },
    {
      "kind": "segment",
      "x": 9078,
      "y": 288,
      "width": 64,
      "height": 18
    },
    {
      "kind": "ghost",
      "x": 9142,
      "y": 384,
      "width": 64,
      "height": 18
    },
    {
      "kind": "segment",
      "x": 9206,
      "y": 384,
      "width": 64,
      "height": 18
    },
    {
      "kind": "alternateBeat",
      "x": 9270,
      "y": 416,
      "width": 64,
      "height": 18
    },
    {
      "kind": "segment",
      "x": 9334,
      "y": 416,
      "width": 64,
      "height": 18
    },
    {
      "kind": "alternateBeat",
      "x": 9398,
      "y": 352,
      "width": 64,
      "height": 18
    },
    {
      "kind": "segment",
      "x": 9462,
      "y": 384,
      "width": 64,
      "height": 18
    },
    {
      "kind": "segment",
      "x": 9526,
      "y": 384,
      "width": 64,
      "height": 18
    },
    {
      "kind": "segment",
      "x": 9590,
      "y": 384,
      "width": 64,
      "height": 18
    },
    {
      "kind": "elevator",
      "x": 9654,
      "y": 384,
      "width": 64,
      "height": 18
    },
    {
      "kind": "segment",
      "x": 9718,
      "y": 352,
      "width": 64,
      "height": 18
    },
    {
      "kind": "segment",
      "x": 9782,
      "y": 320,
      "width": 64,
      "height": 18
    },
    {
      "kind": "segment",
      "x": 9846,
      "y": 288,
      "width": 64,
      "height": 18
    },
    {
      "kind": "alternateBeat",
      "x": 9910,
      "y": 352,
      "width": 64,
      "height": 18
    },
    {
      "kind": "segment",
      "x": 9974,
      "y": 384,
      "width": 64,
      "height": 18
    },
    {
      "kind": "ghost",
      "x": 10038,
      "y": 384,
      "width": 64,
      "height": 18
    },
    {
      "kind": "reverseGhost",
      "x": 10102,
      "y": 320,
      "width": 64,
      "height": 18
    },
    {
      "kind": "segment",
      "x": 10166,
      "y": 416,
      "width": 64,
      "height": 18
    },
    {
      "kind": "elevator",
      "x": 10230,
      "y": 320,
      "width": 64,
      "height": 18
    },
    {
      "kind": "segment",
      "x": 10422,
      "y": 384,
      "width": 64,
      "height": 18
    },
    {
      "kind": "alternateBeat",
      "x": 10486,
      "y": 384,
      "width": 64,
      "height": 18
    },
    {
      "kind": "segment",
      "x": 10550,
      "y": 384,
      "width": 64,
      "height": 18
    },
    {
      "kind": "alternateBeat",
      "x": 10614,
      "y": 352,
      "width": 64,
      "height": 18
    },
    {
      "kind": "segment",
      "x": 10678,
      "y": 288,
      "width": 64,
      "height": 18
    },
    {
      "kind": "beat",
      "x": 10742,
      "y": 288,
      "width": 64,
      "height": 18
    },
    {
      "kind": "segment",
      "x": 10806,
      "y": 352,
      "width": 64,
      "height": 18
    },
    {
      "kind": "segment",
      "x": 10870,
      "y": 384,
      "width": 64,
      "height": 18
    },
    {
      "kind": "segment",
      "x": 10934,
      "y": 352,
      "width": 64,
      "height": 18
    },
    {
      "kind": "elevator",
      "x": 11126,
      "y": 288,
      "width": 64,
      "height": 18
    },
    {
      "kind": "segment",
      "x": 11318,
      "y": 320,
      "width": 64,
      "height": 18
    },
    {
      "kind": "reverseGhost",
      "x": 11382,
      "y": 352,
      "width": 64,
      "height": 18
    },
    {
      "kind": "segment",
      "x": 11446,
      "y": 416,
      "width": 64,
      "height": 18
    },
    {
      "kind": "segment",
      "x": 11510,
      "y": 416,
      "width": 64,
      "height": 18
    },
    {
      "kind": "segment",
      "x": 11574,
      "y": 416,
      "width": 64,
      "height": 18
    },
    {
      "kind": "beat",
      "x": 11638,
      "y": 352,
      "width": 64,
      "height": 18
    },
    {
      "kind": "segment",
      "x": 11702,
      "y": 352,
      "width": 64,
      "height": 18
    },
    {
      "kind": "segment",
      "x": 11766,
      "y": 384,
      "width": 64,
      "height": 18
    },
    {
      "kind": "segment",
      "x": 11830,
      "y": 384,
      "width": 64,
      "height": 18
    },
    {
      "kind": "elevator",
      "x": 11894,
      "y": 288,
      "width": 64,
      "height": 18
    },
    {
      "kind": "segment",
      "x": 11958,
      "y": 384,
      "width": 64,
      "height": 18
    },
    {
      "kind": "segment",
      "x": 12022,
      "y": 384,
      "width": 64,
      "height": 18
    },
    {
      "kind": "segment",
      "x": 12150,
      "y": 352,
      "width": 64,
      "height": 18
    },
    {
      "kind": "segment",
      "x": 12278,
      "y": 416,
      "width": 64,
      "height": 18
    },
    {
      "kind": "segment",
      "x": 12342,
      "y": 416,
      "width": 64,
      "height": 18
    },
    {
      "kind": "segment",
      "x": 12406,
      "y": 416,
      "width": 64,
      "height": 18
    },
    {
      "kind": "elevator",
      "x": 12470,
      "y": 320,
      "width": 64,
      "height": 18
    },
    {
      "kind": "segment",
      "x": 12534,
      "y": 416,
      "width": 64,
      "height": 18
    },
    {
      "kind": "segment",
      "x": 12598,
      "y": 416,
      "width": 64,
      "height": 18
    },
    {
      "kind": "segment",
      "x": 12662,
      "y": 416,
      "width": 64,
      "height": 18
    },
    {
      "kind": "elevator",
      "x": 12726,
      "y": 352,
      "width": 64,
      "height": 18
    },
    {
      "kind": "segment",
      "x": 12790,
      "y": 352,
      "width": 64,
      "height": 18
    },
    {
      "kind": "segment",
      "x": 12854,
      "y": 352,
      "width": 64,
      "height": 18
    },
    {
      "kind": "segment",
      "x": 12918,
      "y": 384,
      "width": 64,
      "height": 18
    },
    {
      "kind": "elevator",
      "x": 12982,
      "y": 384,
      "width": 64,
      "height": 18
    },
    {
      "kind": "segment",
      "x": 13046,
      "y": 352,
      "width": 64,
      "height": 18
    },
    {
      "kind": "segment",
      "x": 13110,
      "y": 416,
      "width": 64,
      "height": 18
    },
    {
      "kind": "segment",
      "x": 13174,
      "y": 320,
      "width": 64,
      "height": 18
    },
    {
      "kind": "alternateBeat",
      "x": 13238,
      "y": 416,
      "width": 64,
      "height": 18
    },
    {
      "kind": "segment",
      "x": 13302,
      "y": 384,
      "width": 64,
      "height": 18
    },
    {
      "kind": "segment",
      "x": 13366,
      "y": 416,
      "width": 64,
      "height": 18
    },
    {
      "kind": "segment",
      "x": 13430,
      "y": 352,
      "width": 64,
      "height": 18
    },
    {
      "kind": "ghost",
      "x": 13494,
      "y": 384,
      "width": 64,
      "height": 18
    },
    {
      "kind": "beat",
      "x": 13558,
      "y": 416,
      "width": 64,
      "height": 18
    },
    {
      "kind": "segment",
      "x": 13622,
      "y": 416,
      "width": 64,
      "height": 18
    },
    {
      "kind": "alternateBeat",
      "x": 13686,
      "y": 416,
      "width": 64,
      "height": 18
    },
    {
      "kind": "segment",
      "x": 13750,
      "y": 384,
      "width": 64,
      "height": 18
    },
    {
      "kind": "segment",
      "x": 13814,
      "y": 416,
      "width": 64,
      "height": 18
    },
    {
      "kind": "segment",
      "x": 13942,
      "y": 416,
      "width": 64,
      "height": 18
    },
    {
      "kind": "segment",
      "x": 14006,
      "y": 384,
      "width": 64,
      "height": 18
    },
    {
      "kind": "segment",
      "x": 14070,
      "y": 384,
      "width": 64,
      "height": 18
    },
    {
      "kind": "segment",
      "x": 14134,
      "y": 320,
      "width": 64,
      "height": 18
    },
    {
      "kind": "segment",
      "x": 14198,
      "y": 256,
      "width": 64,
      "height": 18
    },
    {
      "kind": "segment",
      "x": 14262,
      "y": 192,
      "width": 64,
      "height": 18
    }
  ],
  "segmentEnemies": [
    {
      "segmentIndex": 4,
      "patrolCount": 0,
      "flyingSpawnIntervalMs": 3400,
      "fallingRockSpawnIntervalMs": 0
    },
    {
      "segmentIndex": 9,
      "patrolCount": 0,
      "flyingSpawnIntervalMs": 3400,
      "fallingRockSpawnIntervalMs": 0
    },
    {
      "segmentIndex": 11,
      "patrolCount": 1,
      "flyingSpawnIntervalMs": 0,
      "fallingRockSpawnIntervalMs": 0
    },
    {
      "segmentIndex": 14,
      "patrolCount": 0,
      "flyingSpawnIntervalMs": 3400,
      "fallingRockSpawnIntervalMs": 0
    },
    {
      "segmentIndex": 19,
      "patrolCount": 0,
      "flyingSpawnIntervalMs": 3400,
      "fallingRockSpawnIntervalMs": 0
    },
    {
      "segmentIndex": 24,
      "patrolCount": 0,
      "flyingSpawnIntervalMs": 3400,
      "fallingRockSpawnIntervalMs": 0
    },
    {
      "segmentIndex": 27,
      "patrolCount": 1,
      "flyingSpawnIntervalMs": 0,
      "fallingRockSpawnIntervalMs": 0
    },
    {
      "segmentIndex": 29,
      "patrolCount": 0,
      "flyingSpawnIntervalMs": 3400,
      "fallingRockSpawnIntervalMs": 0
    },
    {
      "segmentIndex": 31,
      "patrolCount": 1,
      "flyingSpawnIntervalMs": 0,
      "fallingRockSpawnIntervalMs": 0
    },
    {
      "segmentIndex": 34,
      "patrolCount": 0,
      "flyingSpawnIntervalMs": 3400,
      "fallingRockSpawnIntervalMs": 0
    },
    {
      "segmentIndex": 39,
      "patrolCount": 0,
      "flyingSpawnIntervalMs": 3400,
      "fallingRockSpawnIntervalMs": 0
    },
    {
      "segmentIndex": 43,
      "patrolCount": 1,
      "flyingSpawnIntervalMs": 0,
      "fallingRockSpawnIntervalMs": 0
    },
    {
      "segmentIndex": 44,
      "patrolCount": 0,
      "flyingSpawnIntervalMs": 3400,
      "fallingRockSpawnIntervalMs": 0
    },
    {
      "segmentIndex": 49,
      "patrolCount": 0,
      "flyingSpawnIntervalMs": 3400,
      "fallingRockSpawnIntervalMs": 0
    },
    {
      "segmentIndex": 54,
      "patrolCount": 0,
      "flyingSpawnIntervalMs": 3400,
      "fallingRockSpawnIntervalMs": 0
    },
    {
      "segmentIndex": 58,
      "patrolCount": 1,
      "flyingSpawnIntervalMs": 0,
      "fallingRockSpawnIntervalMs": 0
    },
    {
      "segmentIndex": 59,
      "patrolCount": 0,
      "flyingSpawnIntervalMs": 1800,
      "fallingRockSpawnIntervalMs": 0
    },
    {
      "segmentIndex": 60,
      "patrolCount": 1,
      "flyingSpawnIntervalMs": 0,
      "fallingRockSpawnIntervalMs": 0
    },
    {
      "segmentIndex": 62,
      "patrolCount": 1,
      "flyingSpawnIntervalMs": 0,
      "fallingRockSpawnIntervalMs": 0
    },
    {
      "segmentIndex": 64,
      "patrolCount": 0,
      "flyingSpawnIntervalMs": 3400,
      "fallingRockSpawnIntervalMs": 0
    },
    {
      "segmentIndex": 66,
      "patrolCount": 1,
      "flyingSpawnIntervalMs": 0,
      "fallingRockSpawnIntervalMs": 0
    },
    {
      "segmentIndex": 67,
      "patrolCount": 1,
      "flyingSpawnIntervalMs": 0,
      "fallingRockSpawnIntervalMs": 0
    },
    {
      "segmentIndex": 69,
      "patrolCount": 0,
      "flyingSpawnIntervalMs": 3400,
      "fallingRockSpawnIntervalMs": 0
    },
    {
      "segmentIndex": 74,
      "patrolCount": 0,
      "flyingSpawnIntervalMs": 2600,
      "fallingRockSpawnIntervalMs": 0
    },
    {
      "segmentIndex": 79,
      "patrolCount": 1,
      "flyingSpawnIntervalMs": 1800,
      "fallingRockSpawnIntervalMs": 0
    },
    {
      "segmentIndex": 83,
      "patrolCount": 1,
      "flyingSpawnIntervalMs": 0,
      "fallingRockSpawnIntervalMs": 0
    },
    {
      "segmentIndex": 84,
      "patrolCount": 0,
      "flyingSpawnIntervalMs": 3400,
      "fallingRockSpawnIntervalMs": 0
    },
    {
      "segmentIndex": 89,
      "patrolCount": 1,
      "flyingSpawnIntervalMs": 2600,
      "fallingRockSpawnIntervalMs": 0
    },
    {
      "segmentIndex": 94,
      "patrolCount": 0,
      "flyingSpawnIntervalMs": 3400,
      "fallingRockSpawnIntervalMs": 0
    },
    {
      "segmentIndex": 95,
      "patrolCount": 1,
      "flyingSpawnIntervalMs": 0,
      "fallingRockSpawnIntervalMs": 0
    },
    {
      "segmentIndex": 99,
      "patrolCount": 0,
      "flyingSpawnIntervalMs": 3400,
      "fallingRockSpawnIntervalMs": 0
    },
    {
      "segmentIndex": 101,
      "patrolCount": 1,
      "flyingSpawnIntervalMs": 0,
      "fallingRockSpawnIntervalMs": 0
    },
    {
      "segmentIndex": 104,
      "patrolCount": 0,
      "flyingSpawnIntervalMs": 3400,
      "fallingRockSpawnIntervalMs": 0
    },
    {
      "segmentIndex": 107,
      "patrolCount": 1,
      "flyingSpawnIntervalMs": 0,
      "fallingRockSpawnIntervalMs": 0
    },
    {
      "segmentIndex": 109,
      "patrolCount": 1,
      "flyingSpawnIntervalMs": 2600,
      "fallingRockSpawnIntervalMs": 0
    },
    {
      "segmentIndex": 110,
      "patrolCount": 1,
      "flyingSpawnIntervalMs": 0,
      "fallingRockSpawnIntervalMs": 0
    },
    {
      "segmentIndex": 114,
      "patrolCount": 0,
      "flyingSpawnIntervalMs": 3400,
      "fallingRockSpawnIntervalMs": 0
    },
    {
      "segmentIndex": 117,
      "patrolCount": 1,
      "flyingSpawnIntervalMs": 0,
      "fallingRockSpawnIntervalMs": 0
    },
    {
      "segmentIndex": 119,
      "patrolCount": 0,
      "flyingSpawnIntervalMs": 2600,
      "fallingRockSpawnIntervalMs": 0
    },
    {
      "segmentIndex": 120,
      "patrolCount": 1,
      "flyingSpawnIntervalMs": 0,
      "fallingRockSpawnIntervalMs": 0
    },
    {
      "segmentIndex": 124,
      "patrolCount": 0,
      "flyingSpawnIntervalMs": 3400,
      "fallingRockSpawnIntervalMs": 0
    },
    {
      "segmentIndex": 126,
      "patrolCount": 1,
      "flyingSpawnIntervalMs": 0,
      "fallingRockSpawnIntervalMs": 0
    },
    {
      "segmentIndex": 127,
      "patrolCount": 1,
      "flyingSpawnIntervalMs": 0,
      "fallingRockSpawnIntervalMs": 0
    },
    {
      "segmentIndex": 129,
      "patrolCount": 0,
      "flyingSpawnIntervalMs": 2600,
      "fallingRockSpawnIntervalMs": 0
    },
    {
      "segmentIndex": 132,
      "patrolCount": 1,
      "flyingSpawnIntervalMs": 0,
      "fallingRockSpawnIntervalMs": 0
    },
    {
      "segmentIndex": 134,
      "patrolCount": 1,
      "flyingSpawnIntervalMs": 2600,
      "fallingRockSpawnIntervalMs": 0
    },
    {
      "segmentIndex": 136,
      "patrolCount": 1,
      "flyingSpawnIntervalMs": 0,
      "fallingRockSpawnIntervalMs": 0
    },
    {
      "segmentIndex": 137,
      "patrolCount": 1,
      "flyingSpawnIntervalMs": 0,
      "fallingRockSpawnIntervalMs": 0
    },
    {
      "segmentIndex": 139,
      "patrolCount": 0,
      "flyingSpawnIntervalMs": 2600,
      "fallingRockSpawnIntervalMs": 0
    },
    {
      "segmentIndex": 142,
      "patrolCount": 1,
      "flyingSpawnIntervalMs": 0,
      "fallingRockSpawnIntervalMs": 0
    },
    {
      "segmentIndex": 144,
      "patrolCount": 0,
      "flyingSpawnIntervalMs": 3400,
      "fallingRockSpawnIntervalMs": 0
    },
    {
      "segmentIndex": 149,
      "patrolCount": 1,
      "flyingSpawnIntervalMs": 2600,
      "fallingRockSpawnIntervalMs": 0
    },
    {
      "segmentIndex": 150,
      "patrolCount": 1,
      "flyingSpawnIntervalMs": 0,
      "fallingRockSpawnIntervalMs": 0
    },
    {
      "segmentIndex": 151,
      "patrolCount": 1,
      "flyingSpawnIntervalMs": 0,
      "fallingRockSpawnIntervalMs": 0
    },
    {
      "segmentIndex": 152,
      "patrolCount": 1,
      "flyingSpawnIntervalMs": 0,
      "fallingRockSpawnIntervalMs": 0
    },
    {
      "segmentIndex": 153,
      "patrolCount": 1,
      "flyingSpawnIntervalMs": 0,
      "fallingRockSpawnIntervalMs": 0
    },
    {
      "segmentIndex": 154,
      "patrolCount": 1,
      "flyingSpawnIntervalMs": 2600,
      "fallingRockSpawnIntervalMs": 0
    },
    {
      "segmentIndex": 159,
      "patrolCount": 1,
      "flyingSpawnIntervalMs": 1800,
      "fallingRockSpawnIntervalMs": 0
    },
    {
      "segmentIndex": 161,
      "patrolCount": 1,
      "flyingSpawnIntervalMs": 0,
      "fallingRockSpawnIntervalMs": 0
    },
    {
      "segmentIndex": 164,
      "patrolCount": 0,
      "flyingSpawnIntervalMs": 2600,
      "fallingRockSpawnIntervalMs": 0
    },
    {
      "segmentIndex": 165,
      "patrolCount": 1,
      "flyingSpawnIntervalMs": 0,
      "fallingRockSpawnIntervalMs": 0
    },
    {
      "segmentIndex": 166,
      "patrolCount": 1,
      "flyingSpawnIntervalMs": 0,
      "fallingRockSpawnIntervalMs": 0
    },
    {
      "segmentIndex": 167,
      "patrolCount": 1,
      "flyingSpawnIntervalMs": 0,
      "fallingRockSpawnIntervalMs": 0
    },
    {
      "segmentIndex": 169,
      "patrolCount": 0,
      "flyingSpawnIntervalMs": 2600,
      "fallingRockSpawnIntervalMs": 0
    },
    {
      "segmentIndex": 171,
      "patrolCount": 1,
      "flyingSpawnIntervalMs": 0,
      "fallingRockSpawnIntervalMs": 0
    },
    {
      "segmentIndex": 172,
      "patrolCount": 1,
      "flyingSpawnIntervalMs": 0,
      "fallingRockSpawnIntervalMs": 0
    },
    {
      "segmentIndex": 173,
      "patrolCount": 1,
      "flyingSpawnIntervalMs": 0,
      "fallingRockSpawnIntervalMs": 0
    },
    {
      "segmentIndex": 174,
      "patrolCount": 1,
      "flyingSpawnIntervalMs": 2600,
      "fallingRockSpawnIntervalMs": 0
    },
    {
      "segmentIndex": 175,
      "patrolCount": 1,
      "flyingSpawnIntervalMs": 0,
      "fallingRockSpawnIntervalMs": 0
    },
    {
      "segmentIndex": 179,
      "patrolCount": 0,
      "flyingSpawnIntervalMs": 2600,
      "fallingRockSpawnIntervalMs": 0
    },
    {
      "segmentIndex": 182,
      "patrolCount": 1,
      "flyingSpawnIntervalMs": 0,
      "fallingRockSpawnIntervalMs": 0
    },
    {
      "segmentIndex": 184,
      "patrolCount": 0,
      "flyingSpawnIntervalMs": 3400,
      "fallingRockSpawnIntervalMs": 0
    },
    {
      "segmentIndex": 189,
      "patrolCount": 0,
      "flyingSpawnIntervalMs": 3400,
      "fallingRockSpawnIntervalMs": 0
    },
    {
      "segmentIndex": 194,
      "patrolCount": 0,
      "flyingSpawnIntervalMs": 3400,
      "fallingRockSpawnIntervalMs": 0
    },
    {
      "segmentIndex": 199,
      "patrolCount": 1,
      "flyingSpawnIntervalMs": 2600,
      "fallingRockSpawnIntervalMs": 0
    },
    {
      "segmentIndex": 204,
      "patrolCount": 0,
      "flyingSpawnIntervalMs": 3400,
      "fallingRockSpawnIntervalMs": 0
    },
    {
      "segmentIndex": 209,
      "patrolCount": 0,
      "flyingSpawnIntervalMs": 3400,
      "fallingRockSpawnIntervalMs": 0
    },
    {
      "segmentIndex": 214,
      "patrolCount": 0,
      "flyingSpawnIntervalMs": 3400,
      "fallingRockSpawnIntervalMs": 0
    }
  ],
  "segments": [
    {
      "index": 0,
      "duration_beats": 2,
      "bpm": 108,
      "energy_state": "low",
      "platform_types": [
        "static",
        "beat",
        "alternateBeat",
        "elevator"
      ],
      "vertical_range": [
        0,
        1
      ],
      "rhythm_density": 0,
      "patrol_enemies": 0,
      "flying_spawn_interval_ms": 0,
      "falling_rock_spawn_interval_ms": 0
    },
    {
      "index": 1,
      "duration_beats": 2,
      "bpm": 108,
      "energy_state": "low",
      "platform_types": [
        "static",
        "beat",
        "alternateBeat",
        "elevator"
      ],
      "vertical_range": [
        0,
        1
      ],
      "rhythm_density": 0,
      "patrol_enemies": 0,
      "flying_spawn_interval_ms": 0,
      "falling_rock_spawn_interval_ms": 0
    },
    {
      "index": 2,
      "duration_beats": 2,
      "bpm": 108,
      "energy_state": "low",
      "platform_types": [
        "static",
        "beat",
        "alternateBeat",
        "elevator"
      ],
      "vertical_range": [
        0,
        1
      ],
      "rhythm_density": 0,
      "patrol_enemies": 0,
      "flying_spawn_interval_ms": 0,
      "falling_rock_spawn_interval_ms": 0
    },
    {
      "index": 3,
      "duration_beats": 2,
      "bpm": 108,
      "energy_state": "low",
      "platform_types": [
        "static",
        "beat",
        "alternateBeat",
        "elevator"
      ],
      "vertical_range": [
        0,
        3
      ],
      "rhythm_density": 0.47401574803149604,
      "patrol_enemies": 0,
      "flying_spawn_interval_ms": 0,
      "falling_rock_spawn_interval_ms": 0
    },
    {
      "index": 4,
      "duration_beats": 2,
      "bpm": 108,
      "energy_state": "low",
      "platform_types": [
        "static",
        "beat",
        "alternateBeat",
        "elevator"
      ],
      "vertical_range": [
        0,
        3
      ],
      "rhythm_density": 0.45931758530183725,
      "patrol_enemies": 0,
      "flying_spawn_interval_ms": 3400,
      "falling_rock_spawn_interval_ms": 0
    },
    {
      "index": 5,
      "duration_beats": 2,
      "bpm": 108,
      "energy_state": "low",
      "platform_types": [
        "static",
        "beat",
        "alternateBeat",
        "elevator"
      ],
      "vertical_range": [
        0,
        4
      ],
      "rhythm_density": 0.5078740157480315,
      "patrol_enemies": 0,
      "flying_spawn_interval_ms": 0,
      "falling_rock_spawn_interval_ms": 0
    },
    {
      "index": 6,
      "duration_beats": 2,
      "bpm": 108,
      "energy_state": "low",
      "platform_types": [
        "static",
        "beat",
        "alternateBeat",
        "elevator"
      ],
      "vertical_range": [
        0,
        2
      ],
      "rhythm_density": 0.5288713910761155,
      "patrol_enemies": 0,
      "flying_spawn_interval_ms": 0,
      "falling_rock_spawn_interval_ms": 0
    },
    {
      "index": 7,
      "duration_beats": 2,
      "bpm": 108,
      "energy_state": "low",
      "platform_types": [
        "static",
        "beat",
        "alternateBeat",
        "elevator"
      ],
      "vertical_range": [
        0,
        4
      ],
      "rhythm_density": 0.40577427821522316,
      "patrol_enemies": 0,
      "flying_spawn_interval_ms": 0,
      "falling_rock_spawn_interval_ms": 0
    },
    {
      "index": 8,
      "duration_beats": 2,
      "bpm": 108,
      "energy_state": "medium",
      "platform_types": [
        "static",
        "beat",
        "alternateBeat",
        "ghost",
        "reverseGhost",
        "elevator"
      ],
      "vertical_range": [
        0,
        4
      ],
      "rhythm_density": 0.4621062992125983,
      "patrol_enemies": 0,
      "flying_spawn_interval_ms": 0,
      "falling_rock_spawn_interval_ms": 0
    },
    {
      "index": 9,
      "duration_beats": 2,
      "bpm": 108,
      "energy_state": "low",
      "platform_types": [
        "static",
        "beat",
        "alternateBeat",
        "elevator"
      ],
      "vertical_range": [
        0,
        1
      ],
      "rhythm_density": 0.6062992125984252,
      "patrol_enemies": 0,
      "flying_spawn_interval_ms": 3400,
      "falling_rock_spawn_interval_ms": 0
    },
    {
      "index": 10,
      "duration_beats": 2,
      "bpm": 108,
      "energy_state": "medium",
      "platform_types": [
        "static",
        "beat",
        "alternateBeat",
        "ghost",
        "reverseGhost",
        "elevator"
      ],
      "vertical_range": [
        0,
        4
      ],
      "rhythm_density": 0.38411502909962336,
      "patrol_enemies": 0,
      "flying_spawn_interval_ms": 0,
      "falling_rock_spawn_interval_ms": 0
    },
    {
      "index": 11,
      "duration_beats": 2,
      "bpm": 108,
      "energy_state": "high",
      "platform_types": [
        "static",
        "beat",
        "alternateBeat",
        "ghost",
        "reverseGhost",
        "elevator",
        "shuttle",
        "cross",
        "spring",
        "hazard",
        "launch30",
        "launch60"
      ],
      "vertical_range": [
        0,
        4
      ],
      "rhythm_density": 0.40112485939257597,
      "patrol_enemies": 1,
      "flying_spawn_interval_ms": 0,
      "falling_rock_spawn_interval_ms": 0
    },
    {
      "index": 12,
      "duration_beats": 2,
      "bpm": 108,
      "energy_state": "low",
      "platform_types": [
        "static",
        "beat",
        "alternateBeat",
        "elevator"
      ],
      "vertical_range": [
        0,
        3
      ],
      "rhythm_density": 0.5363079615048119,
      "patrol_enemies": 0,
      "flying_spawn_interval_ms": 0,
      "falling_rock_spawn_interval_ms": 0
    },
    {
      "index": 13,
      "duration_beats": 2,
      "bpm": 108,
      "energy_state": "low",
      "platform_types": [
        "static",
        "beat",
        "alternateBeat",
        "elevator"
      ],
      "vertical_range": [
        0,
        2
      ],
      "rhythm_density": 0.6062992125984252,
      "patrol_enemies": 0,
      "flying_spawn_interval_ms": 0,
      "falling_rock_spawn_interval_ms": 0
    },
    {
      "index": 14,
      "duration_beats": 2,
      "bpm": 108,
      "energy_state": "low",
      "platform_types": [
        "static",
        "beat",
        "alternateBeat",
        "elevator"
      ],
      "vertical_range": [
        0,
        3
      ],
      "rhythm_density": 0.5485564304461942,
      "patrol_enemies": 0,
      "flying_spawn_interval_ms": 3400,
      "falling_rock_spawn_interval_ms": 0
    },
    {
      "index": 15,
      "duration_beats": 2,
      "bpm": 108,
      "energy_state": "low",
      "platform_types": [
        "static",
        "beat",
        "alternateBeat",
        "elevator"
      ],
      "vertical_range": [
        0,
        4
      ],
      "rhythm_density": 0.5019685039370079,
      "patrol_enemies": 0,
      "flying_spawn_interval_ms": 0,
      "falling_rock_spawn_interval_ms": 0
    },
    {
      "index": 16,
      "duration_beats": 2,
      "bpm": 108,
      "energy_state": "low",
      "platform_types": [
        "static",
        "beat",
        "alternateBeat",
        "elevator"
      ],
      "vertical_range": [
        0,
        3
      ],
      "rhythm_density": 0.5441819772528433,
      "patrol_enemies": 0,
      "flying_spawn_interval_ms": 0,
      "falling_rock_spawn_interval_ms": 0
    },
    {
      "index": 17,
      "duration_beats": 2,
      "bpm": 108,
      "energy_state": "low",
      "platform_types": [
        "static",
        "beat",
        "alternateBeat",
        "elevator"
      ],
      "vertical_range": [
        0,
        2
      ],
      "rhythm_density": 0.6019247594050743,
      "patrol_enemies": 0,
      "flying_spawn_interval_ms": 0,
      "falling_rock_spawn_interval_ms": 0
    },
    {
      "index": 18,
      "duration_beats": 2,
      "bpm": 108,
      "energy_state": "low",
      "platform_types": [
        "static",
        "beat",
        "alternateBeat",
        "elevator"
      ],
      "vertical_range": [
        0,
        2
      ],
      "rhythm_density": 0.6456692913385826,
      "patrol_enemies": 0,
      "flying_spawn_interval_ms": 0,
      "falling_rock_spawn_interval_ms": 0
    },
    {
      "index": 19,
      "duration_beats": 2,
      "bpm": 108,
      "energy_state": "low",
      "platform_types": [
        "static",
        "beat",
        "alternateBeat",
        "elevator"
      ],
      "vertical_range": [
        1,
        3
      ],
      "rhythm_density": 0.6010498687664042,
      "patrol_enemies": 0,
      "flying_spawn_interval_ms": 3400,
      "falling_rock_spawn_interval_ms": 0
    },
    {
      "index": 20,
      "duration_beats": 2,
      "bpm": 108,
      "energy_state": "low",
      "platform_types": [
        "static",
        "beat",
        "alternateBeat",
        "elevator"
      ],
      "vertical_range": [
        0,
        3
      ],
      "rhythm_density": 0.5654974946313529,
      "patrol_enemies": 0,
      "flying_spawn_interval_ms": 0,
      "falling_rock_spawn_interval_ms": 0
    },
    {
      "index": 21,
      "duration_beats": 2,
      "bpm": 108,
      "energy_state": "low",
      "platform_types": [
        "static",
        "beat",
        "alternateBeat",
        "elevator"
      ],
      "vertical_range": [
        0,
        2
      ],
      "rhythm_density": 0.5216535433070866,
      "patrol_enemies": 0,
      "flying_spawn_interval_ms": 0,
      "falling_rock_spawn_interval_ms": 0
    },
    {
      "index": 22,
      "duration_beats": 2,
      "bpm": 108,
      "energy_state": "low",
      "platform_types": [
        "static",
        "beat",
        "alternateBeat",
        "elevator"
      ],
      "vertical_range": [
        0,
        2
      ],
      "rhythm_density": 0.652755905511811,
      "patrol_enemies": 0,
      "flying_spawn_interval_ms": 0,
      "falling_rock_spawn_interval_ms": 0
    },
    {
      "index": 23,
      "duration_beats": 2,
      "bpm": 108,
      "energy_state": "low",
      "platform_types": [
        "static",
        "beat",
        "alternateBeat",
        "elevator"
      ],
      "vertical_range": [
        0,
        4
      ],
      "rhythm_density": 0.5219347581552306,
      "patrol_enemies": 0,
      "flying_spawn_interval_ms": 0,
      "falling_rock_spawn_interval_ms": 0
    },
    {
      "index": 24,
      "duration_beats": 2,
      "bpm": 108,
      "energy_state": "low",
      "platform_types": [
        "static",
        "beat",
        "alternateBeat",
        "elevator"
      ],
      "vertical_range": [
        0,
        3
      ],
      "rhythm_density": 0.5118110236220472,
      "patrol_enemies": 0,
      "flying_spawn_interval_ms": 3400,
      "falling_rock_spawn_interval_ms": 0
    },
    {
      "index": 25,
      "duration_beats": 2,
      "bpm": 108,
      "energy_state": "low",
      "platform_types": [
        "static",
        "beat",
        "alternateBeat",
        "elevator"
      ],
      "vertical_range": [
        0,
        2
      ],
      "rhythm_density": 0.6525590551181102,
      "patrol_enemies": 0,
      "flying_spawn_interval_ms": 0,
      "falling_rock_spawn_interval_ms": 0
    },
    {
      "index": 26,
      "duration_beats": 2,
      "bpm": 108,
      "energy_state": "low",
      "platform_types": [
        "static",
        "beat",
        "alternateBeat",
        "elevator"
      ],
      "vertical_range": [
        0,
        4
      ],
      "rhythm_density": 0.5376827896512936,
      "patrol_enemies": 0,
      "flying_spawn_interval_ms": 0,
      "falling_rock_spawn_interval_ms": 0
    },
    {
      "index": 27,
      "duration_beats": 2,
      "bpm": 108,
      "energy_state": "medium",
      "platform_types": [
        "static",
        "beat",
        "alternateBeat",
        "ghost",
        "reverseGhost",
        "elevator"
      ],
      "vertical_range": [
        0,
        4
      ],
      "rhythm_density": 0.49669291338582694,
      "patrol_enemies": 1,
      "flying_spawn_interval_ms": 0,
      "falling_rock_spawn_interval_ms": 0
    },
    {
      "index": 28,
      "duration_beats": 2,
      "bpm": 108,
      "energy_state": "low",
      "platform_types": [
        "static",
        "beat",
        "alternateBeat",
        "elevator"
      ],
      "vertical_range": [
        0,
        3
      ],
      "rhythm_density": 0.5363079615048119,
      "patrol_enemies": 0,
      "flying_spawn_interval_ms": 0,
      "falling_rock_spawn_interval_ms": 0
    },
    {
      "index": 29,
      "duration_beats": 2,
      "bpm": 108,
      "energy_state": "low",
      "platform_types": [
        "static",
        "beat",
        "alternateBeat",
        "elevator"
      ],
      "vertical_range": [
        0,
        2
      ],
      "rhythm_density": 0.5669291338582677,
      "patrol_enemies": 0,
      "flying_spawn_interval_ms": 3400,
      "falling_rock_spawn_interval_ms": 0
    },
    {
      "index": 30,
      "duration_beats": 2,
      "bpm": 108,
      "energy_state": "low",
      "platform_types": [
        "static",
        "beat",
        "alternateBeat",
        "elevator"
      ],
      "vertical_range": [
        0,
        4
      ],
      "rhythm_density": 0.49409448818897633,
      "patrol_enemies": 0,
      "flying_spawn_interval_ms": 0,
      "falling_rock_spawn_interval_ms": 0
    },
    {
      "index": 31,
      "duration_beats": 2,
      "bpm": 108,
      "energy_state": "medium",
      "platform_types": [
        "static",
        "beat",
        "alternateBeat",
        "ghost",
        "reverseGhost",
        "elevator"
      ],
      "vertical_range": [
        0,
        4
      ],
      "rhythm_density": 0.49469359808284846,
      "patrol_enemies": 1,
      "flying_spawn_interval_ms": 0,
      "falling_rock_spawn_interval_ms": 0
    },
    {
      "index": 32,
      "duration_beats": 2,
      "bpm": 108,
      "energy_state": "low",
      "platform_types": [
        "static",
        "beat",
        "alternateBeat",
        "elevator"
      ],
      "vertical_range": [
        0,
        3
      ],
      "rhythm_density": 0.5188101487314085,
      "patrol_enemies": 0,
      "flying_spawn_interval_ms": 0,
      "falling_rock_spawn_interval_ms": 0
    },
    {
      "index": 33,
      "duration_beats": 2,
      "bpm": 108,
      "energy_state": "low",
      "platform_types": [
        "static",
        "beat",
        "alternateBeat",
        "elevator"
      ],
      "vertical_range": [
        0,
        2
      ],
      "rhythm_density": 0.5879265091863517,
      "patrol_enemies": 0,
      "flying_spawn_interval_ms": 0,
      "falling_rock_spawn_interval_ms": 0
    },
    {
      "index": 34,
      "duration_beats": 2,
      "bpm": 108,
      "energy_state": "low",
      "platform_types": [
        "static",
        "beat",
        "alternateBeat",
        "elevator"
      ],
      "vertical_range": [
        0,
        2
      ],
      "rhythm_density": 0.6318897637795275,
      "patrol_enemies": 0,
      "flying_spawn_interval_ms": 3400,
      "falling_rock_spawn_interval_ms": 0
    },
    {
      "index": 35,
      "duration_beats": 2,
      "bpm": 108,
      "energy_state": "low",
      "platform_types": [
        "static",
        "beat",
        "alternateBeat",
        "elevator"
      ],
      "vertical_range": [
        0,
        3
      ],
      "rhythm_density": 0.6051743532058492,
      "patrol_enemies": 0,
      "flying_spawn_interval_ms": 0,
      "falling_rock_spawn_interval_ms": 0
    },
    {
      "index": 36,
      "duration_beats": 2,
      "bpm": 108,
      "energy_state": "low",
      "platform_types": [
        "static",
        "beat",
        "alternateBeat",
        "elevator"
      ],
      "vertical_range": [
        0,
        3
      ],
      "rhythm_density": 0.5597709377236936,
      "patrol_enemies": 0,
      "flying_spawn_interval_ms": 0,
      "falling_rock_spawn_interval_ms": 0
    },
    {
      "index": 37,
      "duration_beats": 2,
      "bpm": 108,
      "energy_state": "low",
      "platform_types": [
        "static",
        "beat",
        "alternateBeat",
        "elevator"
      ],
      "vertical_range": [
        0,
        2
      ],
      "rhythm_density": 0.5074365704286964,
      "patrol_enemies": 0,
      "flying_spawn_interval_ms": 0,
      "falling_rock_spawn_interval_ms": 0
    },
    {
      "index": 38,
      "duration_beats": 2,
      "bpm": 108,
      "energy_state": "low",
      "platform_types": [
        "static",
        "beat",
        "alternateBeat",
        "elevator"
      ],
      "vertical_range": [
        0,
        2
      ],
      "rhythm_density": 0.5647816750178953,
      "patrol_enemies": 0,
      "flying_spawn_interval_ms": 0,
      "falling_rock_spawn_interval_ms": 0
    },
    {
      "index": 39,
      "duration_beats": 2,
      "bpm": 108,
      "energy_state": "low",
      "platform_types": [
        "static",
        "beat",
        "alternateBeat",
        "elevator"
      ],
      "vertical_range": [
        0,
        4
      ],
      "rhythm_density": 0.5468861846814602,
      "patrol_enemies": 0,
      "flying_spawn_interval_ms": 3400,
      "falling_rock_spawn_interval_ms": 0
    },
    {
      "index": 40,
      "duration_beats": 2,
      "bpm": 108,
      "energy_state": "low",
      "platform_types": [
        "static",
        "beat",
        "alternateBeat",
        "elevator"
      ],
      "vertical_range": [
        0,
        3
      ],
      "rhythm_density": 0.5230596175478065,
      "patrol_enemies": 0,
      "flying_spawn_interval_ms": 0,
      "falling_rock_spawn_interval_ms": 0
    },
    {
      "index": 41,
      "duration_beats": 2,
      "bpm": 108,
      "energy_state": "low",
      "platform_types": [
        "static",
        "beat",
        "alternateBeat",
        "elevator"
      ],
      "vertical_range": [
        0,
        3
      ],
      "rhythm_density": 0.5933633295838021,
      "patrol_enemies": 0,
      "flying_spawn_interval_ms": 0,
      "falling_rock_spawn_interval_ms": 0
    },
    {
      "index": 42,
      "duration_beats": 2,
      "bpm": 108,
      "energy_state": "medium",
      "platform_types": [
        "static",
        "beat",
        "alternateBeat",
        "ghost",
        "reverseGhost",
        "elevator"
      ],
      "vertical_range": [
        0,
        3
      ],
      "rhythm_density": 0.4763779527559056,
      "patrol_enemies": 0,
      "flying_spawn_interval_ms": 0,
      "falling_rock_spawn_interval_ms": 0
    },
    {
      "index": 43,
      "duration_beats": 2,
      "bpm": 108,
      "energy_state": "high",
      "platform_types": [
        "static",
        "beat",
        "alternateBeat",
        "ghost",
        "reverseGhost",
        "elevator",
        "shuttle",
        "cross",
        "spring",
        "hazard",
        "launch30",
        "launch60"
      ],
      "vertical_range": [
        0,
        4
      ],
      "rhythm_density": 0.4752074909555222,
      "patrol_enemies": 1,
      "flying_spawn_interval_ms": 0,
      "falling_rock_spawn_interval_ms": 0
    },
    {
      "index": 44,
      "duration_beats": 2,
      "bpm": 108,
      "energy_state": "low",
      "platform_types": [
        "static",
        "beat",
        "alternateBeat",
        "elevator"
      ],
      "vertical_range": [
        0,
        3
      ],
      "rhythm_density": 0.5905511811023623,
      "patrol_enemies": 0,
      "flying_spawn_interval_ms": 3400,
      "falling_rock_spawn_interval_ms": 0
    },
    {
      "index": 45,
      "duration_beats": 2,
      "bpm": 108,
      "energy_state": "low",
      "platform_types": [
        "static",
        "beat",
        "alternateBeat",
        "elevator"
      ],
      "vertical_range": [
        0,
        2
      ],
      "rhythm_density": 0.6316710411198599,
      "patrol_enemies": 0,
      "flying_spawn_interval_ms": 0,
      "falling_rock_spawn_interval_ms": 0
    },
    {
      "index": 46,
      "duration_beats": 2,
      "bpm": 108,
      "energy_state": "low",
      "platform_types": [
        "static",
        "beat",
        "alternateBeat",
        "elevator"
      ],
      "vertical_range": [
        0,
        2
      ],
      "rhythm_density": 0.6141732283464567,
      "patrol_enemies": 0,
      "flying_spawn_interval_ms": 0,
      "falling_rock_spawn_interval_ms": 0
    },
    {
      "index": 47,
      "duration_beats": 2,
      "bpm": 108,
      "energy_state": "low",
      "platform_types": [
        "static",
        "beat",
        "alternateBeat",
        "elevator"
      ],
      "vertical_range": [
        0,
        3
      ],
      "rhythm_density": 0.6409448818897637,
      "patrol_enemies": 0,
      "flying_spawn_interval_ms": 0,
      "falling_rock_spawn_interval_ms": 0
    },
    {
      "index": 48,
      "duration_beats": 2,
      "bpm": 108,
      "energy_state": "low",
      "platform_types": [
        "static",
        "beat",
        "alternateBeat",
        "elevator"
      ],
      "vertical_range": [
        0,
        3
      ],
      "rhythm_density": 0.5543307086614173,
      "patrol_enemies": 0,
      "flying_spawn_interval_ms": 0,
      "falling_rock_spawn_interval_ms": 0
    },
    {
      "index": 49,
      "duration_beats": 2,
      "bpm": 108,
      "energy_state": "low",
      "platform_types": [
        "static",
        "beat",
        "alternateBeat",
        "elevator"
      ],
      "vertical_range": [
        0,
        2
      ],
      "rhythm_density": 0.6069553805774278,
      "patrol_enemies": 0,
      "flying_spawn_interval_ms": 3400,
      "falling_rock_spawn_interval_ms": 0
    },
    {
      "index": 50,
      "duration_beats": 2,
      "bpm": 108,
      "energy_state": "low",
      "platform_types": [
        "static",
        "beat",
        "alternateBeat",
        "elevator"
      ],
      "vertical_range": [
        0,
        2
      ],
      "rhythm_density": 0.6265466816647918,
      "patrol_enemies": 0,
      "flying_spawn_interval_ms": 0,
      "falling_rock_spawn_interval_ms": 0
    },
    {
      "index": 51,
      "duration_beats": 2,
      "bpm": 108,
      "energy_state": "low",
      "platform_types": [
        "static",
        "beat",
        "alternateBeat",
        "elevator"
      ],
      "vertical_range": [
        0,
        3
      ],
      "rhythm_density": 0.6449534717251252,
      "patrol_enemies": 0,
      "flying_spawn_interval_ms": 0,
      "falling_rock_spawn_interval_ms": 0
    },
    {
      "index": 52,
      "duration_beats": 2,
      "bpm": 108,
      "energy_state": "low",
      "platform_types": [
        "static",
        "beat",
        "alternateBeat",
        "elevator"
      ],
      "vertical_range": [
        0,
        3
      ],
      "rhythm_density": 0.565717746820109,
      "patrol_enemies": 0,
      "flying_spawn_interval_ms": 0,
      "falling_rock_spawn_interval_ms": 0
    },
    {
      "index": 53,
      "duration_beats": 2,
      "bpm": 108,
      "energy_state": "low",
      "platform_types": [
        "static",
        "beat",
        "alternateBeat",
        "elevator"
      ],
      "vertical_range": [
        0,
        3
      ],
      "rhythm_density": 0.6062992125984251,
      "patrol_enemies": 0,
      "flying_spawn_interval_ms": 0,
      "falling_rock_spawn_interval_ms": 0
    },
    {
      "index": 54,
      "duration_beats": 2,
      "bpm": 108,
      "energy_state": "low",
      "platform_types": [
        "static",
        "beat",
        "alternateBeat",
        "elevator"
      ],
      "vertical_range": [
        0,
        3
      ],
      "rhythm_density": 0.5975503062117234,
      "patrol_enemies": 0,
      "flying_spawn_interval_ms": 3400,
      "falling_rock_spawn_interval_ms": 0
    },
    {
      "index": 55,
      "duration_beats": 2,
      "bpm": 108,
      "energy_state": "low",
      "platform_types": [
        "static",
        "beat",
        "alternateBeat",
        "elevator"
      ],
      "vertical_range": [
        0,
        4
      ],
      "rhythm_density": 0.5286839145106861,
      "patrol_enemies": 0,
      "flying_spawn_interval_ms": 0,
      "falling_rock_spawn_interval_ms": 0
    },
    {
      "index": 56,
      "duration_beats": 2,
      "bpm": 108,
      "energy_state": "low",
      "platform_types": [
        "static",
        "beat",
        "alternateBeat",
        "elevator"
      ],
      "vertical_range": [
        0,
        3
      ],
      "rhythm_density": 0.5311381531853973,
      "patrol_enemies": 0,
      "flying_spawn_interval_ms": 0,
      "falling_rock_spawn_interval_ms": 0
    },
    {
      "index": 57,
      "duration_beats": 2,
      "bpm": 108,
      "energy_state": "low",
      "platform_types": [
        "static",
        "beat",
        "alternateBeat",
        "elevator"
      ],
      "vertical_range": [
        0,
        2
      ],
      "rhythm_density": 0.5774278215223096,
      "patrol_enemies": 0,
      "flying_spawn_interval_ms": 0,
      "falling_rock_spawn_interval_ms": 0
    },
    {
      "index": 58,
      "duration_beats": 2,
      "bpm": 108,
      "energy_state": "medium",
      "platform_types": [
        "static",
        "beat",
        "alternateBeat",
        "ghost",
        "reverseGhost",
        "elevator"
      ],
      "vertical_range": [
        0,
        3
      ],
      "rhythm_density": 0.4915202907328891,
      "patrol_enemies": 1,
      "flying_spawn_interval_ms": 0,
      "falling_rock_spawn_interval_ms": 0
    },
    {
      "index": 59,
      "duration_beats": 2,
      "bpm": 108,
      "energy_state": "high",
      "platform_types": [
        "static",
        "beat",
        "alternateBeat",
        "ghost",
        "reverseGhost",
        "elevator",
        "shuttle",
        "cross",
        "spring",
        "hazard",
        "launch30",
        "launch60"
      ],
      "vertical_range": [
        0,
        4
      ],
      "rhythm_density": 0.4904935663529862,
      "patrol_enemies": 0,
      "flying_spawn_interval_ms": 1800,
      "falling_rock_spawn_interval_ms": 0
    },
    {
      "index": 60,
      "duration_beats": 2,
      "bpm": 108,
      "energy_state": "medium",
      "platform_types": [
        "static",
        "beat",
        "alternateBeat",
        "ghost",
        "reverseGhost",
        "elevator"
      ],
      "vertical_range": [
        0,
        4
      ],
      "rhythm_density": 0.5118110236220473,
      "patrol_enemies": 1,
      "flying_spawn_interval_ms": 0,
      "falling_rock_spawn_interval_ms": 0
    },
    {
      "index": 61,
      "duration_beats": 2,
      "bpm": 108,
      "energy_state": "low",
      "platform_types": [
        "static",
        "beat",
        "alternateBeat",
        "elevator"
      ],
      "vertical_range": [
        0,
        3
      ],
      "rhythm_density": 0.571522309711286,
      "patrol_enemies": 0,
      "flying_spawn_interval_ms": 0,
      "falling_rock_spawn_interval_ms": 0
    },
    {
      "index": 62,
      "duration_beats": 2,
      "bpm": 108,
      "energy_state": "medium",
      "platform_types": [
        "static",
        "beat",
        "alternateBeat",
        "ghost",
        "reverseGhost",
        "elevator"
      ],
      "vertical_range": [
        0,
        4
      ],
      "rhythm_density": 0.5196850393700788,
      "patrol_enemies": 1,
      "flying_spawn_interval_ms": 0,
      "falling_rock_spawn_interval_ms": 0
    },
    {
      "index": 63,
      "duration_beats": 2,
      "bpm": 108,
      "energy_state": "low",
      "platform_types": [
        "static",
        "beat",
        "alternateBeat",
        "elevator"
      ],
      "vertical_range": [
        0,
        4
      ],
      "rhythm_density": 0.581465778316172,
      "patrol_enemies": 0,
      "flying_spawn_interval_ms": 0,
      "falling_rock_spawn_interval_ms": 0
    },
    {
      "index": 64,
      "duration_beats": 2,
      "bpm": 108,
      "energy_state": "low",
      "platform_types": [
        "static",
        "beat",
        "alternateBeat",
        "elevator"
      ],
      "vertical_range": [
        0,
        3
      ],
      "rhythm_density": 0.548152634766808,
      "patrol_enemies": 0,
      "flying_spawn_interval_ms": 3400,
      "falling_rock_spawn_interval_ms": 0
    },
    {
      "index": 65,
      "duration_beats": 2,
      "bpm": 108,
      "energy_state": "low",
      "platform_types": [
        "static",
        "beat",
        "alternateBeat",
        "elevator"
      ],
      "vertical_range": [
        0,
        3
      ],
      "rhythm_density": 0.5112485939257593,
      "patrol_enemies": 0,
      "flying_spawn_interval_ms": 0,
      "falling_rock_spawn_interval_ms": 0
    },
    {
      "index": 66,
      "duration_beats": 2,
      "bpm": 108,
      "energy_state": "medium",
      "platform_types": [
        "static",
        "beat",
        "alternateBeat",
        "ghost",
        "reverseGhost",
        "elevator"
      ],
      "vertical_range": [
        0,
        4
      ],
      "rhythm_density": 0.49360236220472437,
      "patrol_enemies": 1,
      "flying_spawn_interval_ms": 0,
      "falling_rock_spawn_interval_ms": 0
    },
    {
      "index": 67,
      "duration_beats": 2,
      "bpm": 108,
      "energy_state": "medium",
      "platform_types": [
        "static",
        "beat",
        "alternateBeat",
        "ghost",
        "reverseGhost",
        "elevator"
      ],
      "vertical_range": [
        0,
        4
      ],
      "rhythm_density": 0.567343555739743,
      "patrol_enemies": 1,
      "flying_spawn_interval_ms": 0,
      "falling_rock_spawn_interval_ms": 0
    },
    {
      "index": 68,
      "duration_beats": 2,
      "bpm": 108,
      "energy_state": "medium",
      "platform_types": [
        "static",
        "beat",
        "alternateBeat",
        "ghost",
        "reverseGhost",
        "elevator"
      ],
      "vertical_range": [
        0,
        4
      ],
      "rhythm_density": 0.5246062992125984,
      "patrol_enemies": 0,
      "flying_spawn_interval_ms": 0,
      "falling_rock_spawn_interval_ms": 0
    },
    {
      "index": 69,
      "duration_beats": 2,
      "bpm": 108,
      "energy_state": "low",
      "platform_types": [
        "static",
        "beat",
        "alternateBeat",
        "elevator"
      ],
      "vertical_range": [
        0,
        3
      ],
      "rhythm_density": 0.5805297065139584,
      "patrol_enemies": 0,
      "flying_spawn_interval_ms": 3400,
      "falling_rock_spawn_interval_ms": 0
    },
    {
      "index": 70,
      "duration_beats": 2,
      "bpm": 108,
      "energy_state": "low",
      "platform_types": [
        "static",
        "beat",
        "alternateBeat",
        "elevator"
      ],
      "vertical_range": [
        0,
        4
      ],
      "rhythm_density": 0.5072178477690289,
      "patrol_enemies": 0,
      "flying_spawn_interval_ms": 0,
      "falling_rock_spawn_interval_ms": 0
    },
    {
      "index": 71,
      "duration_beats": 2,
      "bpm": 108,
      "energy_state": "low",
      "platform_types": [
        "static",
        "beat",
        "alternateBeat",
        "elevator"
      ],
      "vertical_range": [
        0,
        3
      ],
      "rhythm_density": 0.5543307086614173,
      "patrol_enemies": 0,
      "flying_spawn_interval_ms": 0,
      "falling_rock_spawn_interval_ms": 0
    },
    {
      "index": 72,
      "duration_beats": 2,
      "bpm": 108,
      "energy_state": "low",
      "platform_types": [
        "static",
        "beat",
        "alternateBeat",
        "elevator"
      ],
      "vertical_range": [
        0,
        3
      ],
      "rhythm_density": 0.46794150731158596,
      "patrol_enemies": 0,
      "flying_spawn_interval_ms": 0,
      "falling_rock_spawn_interval_ms": 0
    },
    {
      "index": 73,
      "duration_beats": 2,
      "bpm": 108,
      "energy_state": "low",
      "platform_types": [
        "static",
        "beat",
        "alternateBeat",
        "elevator"
      ],
      "vertical_range": [
        0,
        4
      ],
      "rhythm_density": 0.5687462144155059,
      "patrol_enemies": 0,
      "flying_spawn_interval_ms": 0,
      "falling_rock_spawn_interval_ms": 0
    },
    {
      "index": 74,
      "duration_beats": 2,
      "bpm": 108,
      "energy_state": "medium",
      "platform_types": [
        "static",
        "beat",
        "alternateBeat",
        "ghost",
        "reverseGhost",
        "elevator"
      ],
      "vertical_range": [
        0,
        4
      ],
      "rhythm_density": 0.5049212598425197,
      "patrol_enemies": 0,
      "flying_spawn_interval_ms": 2600,
      "falling_rock_spawn_interval_ms": 0
    },
    {
      "index": 75,
      "duration_beats": 2,
      "bpm": 108,
      "energy_state": "medium",
      "platform_types": [
        "static",
        "beat",
        "alternateBeat",
        "ghost",
        "reverseGhost",
        "elevator"
      ],
      "vertical_range": [
        0,
        4
      ],
      "rhythm_density": 0.4334645669291339,
      "patrol_enemies": 0,
      "flying_spawn_interval_ms": 0,
      "falling_rock_spawn_interval_ms": 0
    },
    {
      "index": 76,
      "duration_beats": 2,
      "bpm": 108,
      "energy_state": "low",
      "platform_types": [
        "static",
        "beat",
        "alternateBeat",
        "elevator"
      ],
      "vertical_range": [
        0,
        3
      ],
      "rhythm_density": 0.4700787401574803,
      "patrol_enemies": 0,
      "flying_spawn_interval_ms": 0,
      "falling_rock_spawn_interval_ms": 0
    },
    {
      "index": 77,
      "duration_beats": 2,
      "bpm": 108,
      "energy_state": "low",
      "platform_types": [
        "static",
        "beat",
        "alternateBeat",
        "elevator"
      ],
      "vertical_range": [
        0,
        3
      ],
      "rhythm_density": 0.4304461942257218,
      "patrol_enemies": 0,
      "flying_spawn_interval_ms": 0,
      "falling_rock_spawn_interval_ms": 0
    },
    {
      "index": 78,
      "duration_beats": 2,
      "bpm": 108,
      "energy_state": "medium",
      "platform_types": [
        "static",
        "beat",
        "alternateBeat",
        "ghost",
        "reverseGhost",
        "elevator"
      ],
      "vertical_range": [
        0,
        4
      ],
      "rhythm_density": 0.37195350581177355,
      "patrol_enemies": 0,
      "flying_spawn_interval_ms": 0,
      "falling_rock_spawn_interval_ms": 0
    },
    {
      "index": 79,
      "duration_beats": 2,
      "bpm": 108,
      "energy_state": "high",
      "platform_types": [
        "static",
        "beat",
        "alternateBeat",
        "ghost",
        "reverseGhost",
        "elevator",
        "shuttle",
        "cross",
        "spring",
        "hazard",
        "launch30",
        "launch60"
      ],
      "vertical_range": [
        0,
        4
      ],
      "rhythm_density": 0.4613681102362206,
      "patrol_enemies": 1,
      "flying_spawn_interval_ms": 1800,
      "falling_rock_spawn_interval_ms": 0
    },
    {
      "index": 80,
      "duration_beats": 2,
      "bpm": 108,
      "energy_state": "low",
      "platform_types": [
        "static",
        "beat",
        "alternateBeat",
        "elevator"
      ],
      "vertical_range": [
        0,
        3
      ],
      "rhythm_density": 0.5311381531853973,
      "patrol_enemies": 0,
      "flying_spawn_interval_ms": 0,
      "falling_rock_spawn_interval_ms": 0
    },
    {
      "index": 81,
      "duration_beats": 2,
      "bpm": 108,
      "energy_state": "medium",
      "platform_types": [
        "static",
        "beat",
        "alternateBeat",
        "ghost",
        "reverseGhost",
        "elevator"
      ],
      "vertical_range": [
        0,
        3
      ],
      "rhythm_density": 0.5188101487314086,
      "patrol_enemies": 0,
      "flying_spawn_interval_ms": 0,
      "falling_rock_spawn_interval_ms": 0
    },
    {
      "index": 82,
      "duration_beats": 2,
      "bpm": 108,
      "energy_state": "low",
      "platform_types": [
        "static",
        "beat",
        "alternateBeat",
        "elevator"
      ],
      "vertical_range": [
        0,
        3
      ],
      "rhythm_density": 0.4619422572178478,
      "patrol_enemies": 0,
      "flying_spawn_interval_ms": 0,
      "falling_rock_spawn_interval_ms": 0
    },
    {
      "index": 83,
      "duration_beats": 2,
      "bpm": 108,
      "energy_state": "medium",
      "platform_types": [
        "static",
        "beat",
        "alternateBeat",
        "ghost",
        "reverseGhost",
        "elevator"
      ],
      "vertical_range": [
        0,
        3
      ],
      "rhythm_density": 0.5114173228346457,
      "patrol_enemies": 1,
      "flying_spawn_interval_ms": 0,
      "falling_rock_spawn_interval_ms": 0
    },
    {
      "index": 84,
      "duration_beats": 2,
      "bpm": 108,
      "energy_state": "low",
      "platform_types": [
        "static",
        "beat",
        "alternateBeat",
        "elevator"
      ],
      "vertical_range": [
        0,
        3
      ],
      "rhythm_density": 0.5082319255547602,
      "patrol_enemies": 0,
      "flying_spawn_interval_ms": 3400,
      "falling_rock_spawn_interval_ms": 0
    },
    {
      "index": 85,
      "duration_beats": 2,
      "bpm": 108,
      "energy_state": "medium",
      "platform_types": [
        "static",
        "beat",
        "alternateBeat",
        "ghost",
        "reverseGhost",
        "elevator"
      ],
      "vertical_range": [
        0,
        3
      ],
      "rhythm_density": 0.5488188976377953,
      "patrol_enemies": 0,
      "flying_spawn_interval_ms": 0,
      "falling_rock_spawn_interval_ms": 0
    },
    {
      "index": 86,
      "duration_beats": 2,
      "bpm": 108,
      "energy_state": "low",
      "platform_types": [
        "static",
        "beat",
        "alternateBeat",
        "elevator"
      ],
      "vertical_range": [
        0,
        3
      ],
      "rhythm_density": 0.5517435320584926,
      "patrol_enemies": 0,
      "flying_spawn_interval_ms": 0,
      "falling_rock_spawn_interval_ms": 0
    },
    {
      "index": 87,
      "duration_beats": 2,
      "bpm": 108,
      "energy_state": "low",
      "platform_types": [
        "static",
        "beat",
        "alternateBeat",
        "elevator"
      ],
      "vertical_range": [
        0,
        4
      ],
      "rhythm_density": 0.5270341207349081,
      "patrol_enemies": 0,
      "flying_spawn_interval_ms": 0,
      "falling_rock_spawn_interval_ms": 0
    },
    {
      "index": 88,
      "duration_beats": 2,
      "bpm": 108,
      "energy_state": "low",
      "platform_types": [
        "static",
        "beat",
        "alternateBeat",
        "elevator"
      ],
      "vertical_range": [
        0,
        4
      ],
      "rhythm_density": 0.5464566929133858,
      "patrol_enemies": 0,
      "flying_spawn_interval_ms": 0,
      "falling_rock_spawn_interval_ms": 0
    },
    {
      "index": 89,
      "duration_beats": 2,
      "bpm": 108,
      "energy_state": "medium",
      "platform_types": [
        "static",
        "beat",
        "alternateBeat",
        "ghost",
        "reverseGhost",
        "elevator"
      ],
      "vertical_range": [
        0,
        4
      ],
      "rhythm_density": 0.48950131233595795,
      "patrol_enemies": 1,
      "flying_spawn_interval_ms": 2600,
      "falling_rock_spawn_interval_ms": 0
    },
    {
      "index": 90,
      "duration_beats": 2,
      "bpm": 108,
      "energy_state": "low",
      "platform_types": [
        "static",
        "beat",
        "alternateBeat",
        "elevator"
      ],
      "vertical_range": [
        0,
        4
      ],
      "rhythm_density": 0.5375328083989501,
      "patrol_enemies": 0,
      "flying_spawn_interval_ms": 0,
      "falling_rock_spawn_interval_ms": 0
    },
    {
      "index": 91,
      "duration_beats": 2,
      "bpm": 108,
      "energy_state": "low",
      "platform_types": [
        "static",
        "beat",
        "alternateBeat",
        "elevator"
      ],
      "vertical_range": [
        0,
        4
      ],
      "rhythm_density": 0.537007874015748,
      "patrol_enemies": 0,
      "flying_spawn_interval_ms": 0,
      "falling_rock_spawn_interval_ms": 0
    },
    {
      "index": 92,
      "duration_beats": 2,
      "bpm": 108,
      "energy_state": "low",
      "platform_types": [
        "static",
        "beat",
        "alternateBeat",
        "elevator"
      ],
      "vertical_range": [
        0,
        2
      ],
      "rhythm_density": 0.5275590551181101,
      "patrol_enemies": 0,
      "flying_spawn_interval_ms": 0,
      "falling_rock_spawn_interval_ms": 0
    },
    {
      "index": 93,
      "duration_beats": 2,
      "bpm": 108,
      "energy_state": "medium",
      "platform_types": [
        "static",
        "beat",
        "alternateBeat",
        "ghost",
        "reverseGhost",
        "elevator"
      ],
      "vertical_range": [
        0,
        4
      ],
      "rhythm_density": 0.5515955242436802,
      "patrol_enemies": 0,
      "flying_spawn_interval_ms": 0,
      "falling_rock_spawn_interval_ms": 0
    },
    {
      "index": 94,
      "duration_beats": 2,
      "bpm": 108,
      "energy_state": "low",
      "platform_types": [
        "static",
        "beat",
        "alternateBeat",
        "elevator"
      ],
      "vertical_range": [
        0,
        2
      ],
      "rhythm_density": 0.5570866141732282,
      "patrol_enemies": 0,
      "flying_spawn_interval_ms": 3400,
      "falling_rock_spawn_interval_ms": 0
    },
    {
      "index": 95,
      "duration_beats": 2,
      "bpm": 108,
      "energy_state": "high",
      "platform_types": [
        "static",
        "beat",
        "alternateBeat",
        "ghost",
        "reverseGhost",
        "elevator",
        "shuttle",
        "cross",
        "spring",
        "hazard",
        "launch30",
        "launch60"
      ],
      "vertical_range": [
        0,
        4
      ],
      "rhythm_density": 0.4950787401574803,
      "patrol_enemies": 1,
      "flying_spawn_interval_ms": 0,
      "falling_rock_spawn_interval_ms": 0
    },
    {
      "index": 96,
      "duration_beats": 2,
      "bpm": 108,
      "energy_state": "low",
      "platform_types": [
        "static",
        "beat",
        "alternateBeat",
        "elevator"
      ],
      "vertical_range": [
        0,
        2
      ],
      "rhythm_density": 0.5922384701912262,
      "patrol_enemies": 0,
      "flying_spawn_interval_ms": 0,
      "falling_rock_spawn_interval_ms": 0
    },
    {
      "index": 97,
      "duration_beats": 2,
      "bpm": 108,
      "energy_state": "low",
      "platform_types": [
        "static",
        "beat",
        "alternateBeat",
        "elevator"
      ],
      "vertical_range": [
        0,
        2
      ],
      "rhythm_density": 0.5849268841394826,
      "patrol_enemies": 0,
      "flying_spawn_interval_ms": 0,
      "falling_rock_spawn_interval_ms": 0
    },
    {
      "index": 98,
      "duration_beats": 2,
      "bpm": 108,
      "energy_state": "low",
      "platform_types": [
        "static",
        "beat",
        "alternateBeat",
        "elevator"
      ],
      "vertical_range": [
        0,
        2
      ],
      "rhythm_density": 0.5204724409448819,
      "patrol_enemies": 0,
      "flying_spawn_interval_ms": 0,
      "falling_rock_spawn_interval_ms": 0
    },
    {
      "index": 99,
      "duration_beats": 2,
      "bpm": 108,
      "energy_state": "low",
      "platform_types": [
        "static",
        "beat",
        "alternateBeat",
        "elevator"
      ],
      "vertical_range": [
        0,
        3
      ],
      "rhythm_density": 0.5863113264688067,
      "patrol_enemies": 0,
      "flying_spawn_interval_ms": 3400,
      "falling_rock_spawn_interval_ms": 0
    },
    {
      "index": 100,
      "duration_beats": 2,
      "bpm": 108,
      "energy_state": "low",
      "platform_types": [
        "static",
        "beat",
        "alternateBeat",
        "elevator"
      ],
      "vertical_range": [
        0,
        2
      ],
      "rhythm_density": 0.5583989501312335,
      "patrol_enemies": 0,
      "flying_spawn_interval_ms": 0,
      "falling_rock_spawn_interval_ms": 0
    },
    {
      "index": 101,
      "duration_beats": 2,
      "bpm": 108,
      "energy_state": "medium",
      "platform_types": [
        "static",
        "beat",
        "alternateBeat",
        "ghost",
        "reverseGhost",
        "elevator"
      ],
      "vertical_range": [
        0,
        2
      ],
      "rhythm_density": 0.5685868213841692,
      "patrol_enemies": 1,
      "flying_spawn_interval_ms": 0,
      "falling_rock_spawn_interval_ms": 0
    },
    {
      "index": 102,
      "duration_beats": 2,
      "bpm": 108,
      "energy_state": "low",
      "platform_types": [
        "static",
        "beat",
        "alternateBeat",
        "elevator"
      ],
      "vertical_range": [
        0,
        2
      ],
      "rhythm_density": 0.5139107611548556,
      "patrol_enemies": 0,
      "flying_spawn_interval_ms": 0,
      "falling_rock_spawn_interval_ms": 0
    },
    {
      "index": 103,
      "duration_beats": 2,
      "bpm": 108,
      "energy_state": "medium",
      "platform_types": [
        "static",
        "beat",
        "alternateBeat",
        "ghost",
        "reverseGhost",
        "elevator"
      ],
      "vertical_range": [
        0,
        3
      ],
      "rhythm_density": 0.5949803149606301,
      "patrol_enemies": 0,
      "flying_spawn_interval_ms": 0,
      "falling_rock_spawn_interval_ms": 0
    },
    {
      "index": 104,
      "duration_beats": 2,
      "bpm": 108,
      "energy_state": "low",
      "platform_types": [
        "static",
        "beat",
        "alternateBeat",
        "elevator"
      ],
      "vertical_range": [
        0,
        3
      ],
      "rhythm_density": 0.5669291338582677,
      "patrol_enemies": 0,
      "flying_spawn_interval_ms": 3400,
      "falling_rock_spawn_interval_ms": 0
    },
    {
      "index": 105,
      "duration_beats": 2,
      "bpm": 108,
      "energy_state": "low",
      "platform_types": [
        "static",
        "beat",
        "alternateBeat",
        "elevator"
      ],
      "vertical_range": [
        0,
        3
      ],
      "rhythm_density": 0.5669291338582677,
      "patrol_enemies": 0,
      "flying_spawn_interval_ms": 0,
      "falling_rock_spawn_interval_ms": 0
    },
    {
      "index": 106,
      "duration_beats": 2,
      "bpm": 108,
      "energy_state": "low",
      "platform_types": [
        "static",
        "beat",
        "alternateBeat",
        "elevator"
      ],
      "vertical_range": [
        0,
        3
      ],
      "rhythm_density": 0.5483689538807648,
      "patrol_enemies": 0,
      "flying_spawn_interval_ms": 0,
      "falling_rock_spawn_interval_ms": 0
    },
    {
      "index": 107,
      "duration_beats": 2,
      "bpm": 108,
      "energy_state": "medium",
      "platform_types": [
        "static",
        "beat",
        "alternateBeat",
        "ghost",
        "reverseGhost",
        "elevator"
      ],
      "vertical_range": [
        0,
        4
      ],
      "rhythm_density": 0.5226377952755905,
      "patrol_enemies": 1,
      "flying_spawn_interval_ms": 0,
      "falling_rock_spawn_interval_ms": 0
    },
    {
      "index": 108,
      "duration_beats": 2,
      "bpm": 108,
      "energy_state": "low",
      "platform_types": [
        "static",
        "beat",
        "alternateBeat",
        "elevator"
      ],
      "vertical_range": [
        0,
        4
      ],
      "rhythm_density": 0.5330102967898243,
      "patrol_enemies": 0,
      "flying_spawn_interval_ms": 0,
      "falling_rock_spawn_interval_ms": 0
    },
    {
      "index": 109,
      "duration_beats": 2,
      "bpm": 108,
      "energy_state": "medium",
      "platform_types": [
        "static",
        "beat",
        "alternateBeat",
        "ghost",
        "reverseGhost",
        "elevator"
      ],
      "vertical_range": [
        0,
        4
      ],
      "rhythm_density": 0.5526574803149606,
      "patrol_enemies": 1,
      "flying_spawn_interval_ms": 2600,
      "falling_rock_spawn_interval_ms": 0
    },
    {
      "index": 110,
      "duration_beats": 2,
      "bpm": 108,
      "energy_state": "medium",
      "platform_types": [
        "static",
        "beat",
        "alternateBeat",
        "ghost",
        "reverseGhost",
        "elevator"
      ],
      "vertical_range": [
        0,
        3
      ],
      "rhythm_density": 0.5419175544233441,
      "patrol_enemies": 1,
      "flying_spawn_interval_ms": 0,
      "falling_rock_spawn_interval_ms": 0
    },
    {
      "index": 111,
      "duration_beats": 2,
      "bpm": 108,
      "energy_state": "high",
      "platform_types": [
        "static",
        "beat",
        "alternateBeat",
        "ghost",
        "reverseGhost",
        "elevator",
        "shuttle",
        "cross",
        "spring",
        "hazard",
        "launch30",
        "launch60"
      ],
      "vertical_range": [
        0,
        4
      ],
      "rhythm_density": 0.4849586109428627,
      "patrol_enemies": 0,
      "flying_spawn_interval_ms": 0,
      "falling_rock_spawn_interval_ms": 0
    },
    {
      "index": 112,
      "duration_beats": 2,
      "bpm": 108,
      "energy_state": "low",
      "platform_types": [
        "static",
        "beat",
        "alternateBeat",
        "elevator"
      ],
      "vertical_range": [
        0,
        4
      ],
      "rhythm_density": 0.5262467191601049,
      "patrol_enemies": 0,
      "flying_spawn_interval_ms": 0,
      "falling_rock_spawn_interval_ms": 0
    },
    {
      "index": 113,
      "duration_beats": 2,
      "bpm": 108,
      "energy_state": "medium",
      "platform_types": [
        "static",
        "beat",
        "alternateBeat",
        "ghost",
        "reverseGhost",
        "elevator"
      ],
      "vertical_range": [
        0,
        2
      ],
      "rhythm_density": 0.5953630796150482,
      "patrol_enemies": 0,
      "flying_spawn_interval_ms": 0,
      "falling_rock_spawn_interval_ms": 0
    },
    {
      "index": 114,
      "duration_beats": 2,
      "bpm": 108,
      "energy_state": "low",
      "platform_types": [
        "static",
        "beat",
        "alternateBeat",
        "elevator"
      ],
      "vertical_range": [
        0,
        3
      ],
      "rhythm_density": 0.5622047244094488,
      "patrol_enemies": 0,
      "flying_spawn_interval_ms": 3400,
      "falling_rock_spawn_interval_ms": 0
    },
    {
      "index": 115,
      "duration_beats": 2,
      "bpm": 108,
      "energy_state": "low",
      "platform_types": [
        "static",
        "beat",
        "alternateBeat",
        "elevator"
      ],
      "vertical_range": [
        0,
        3
      ],
      "rhythm_density": 0.5849268841394826,
      "patrol_enemies": 0,
      "flying_spawn_interval_ms": 0,
      "falling_rock_spawn_interval_ms": 0
    },
    {
      "index": 116,
      "duration_beats": 2,
      "bpm": 108,
      "energy_state": "medium",
      "platform_types": [
        "static",
        "beat",
        "alternateBeat",
        "ghost",
        "reverseGhost",
        "elevator"
      ],
      "vertical_range": [
        0,
        4
      ],
      "rhythm_density": 0.546751968503937,
      "patrol_enemies": 0,
      "flying_spawn_interval_ms": 0,
      "falling_rock_spawn_interval_ms": 0
    },
    {
      "index": 117,
      "duration_beats": 2,
      "bpm": 108,
      "energy_state": "medium",
      "platform_types": [
        "static",
        "beat",
        "alternateBeat",
        "ghost",
        "reverseGhost",
        "elevator"
      ],
      "vertical_range": [
        0,
        4
      ],
      "rhythm_density": 0.5122484689413824,
      "patrol_enemies": 1,
      "flying_spawn_interval_ms": 0,
      "falling_rock_spawn_interval_ms": 0
    },
    {
      "index": 118,
      "duration_beats": 2,
      "bpm": 108,
      "energy_state": "medium",
      "platform_types": [
        "static",
        "beat",
        "alternateBeat",
        "ghost",
        "reverseGhost",
        "elevator"
      ],
      "vertical_range": [
        0,
        2
      ],
      "rhythm_density": 0.5246062992125984,
      "patrol_enemies": 0,
      "flying_spawn_interval_ms": 0,
      "falling_rock_spawn_interval_ms": 0
    },
    {
      "index": 119,
      "duration_beats": 2,
      "bpm": 108,
      "energy_state": "medium",
      "platform_types": [
        "static",
        "beat",
        "alternateBeat",
        "ghost",
        "reverseGhost",
        "elevator"
      ],
      "vertical_range": [
        0,
        4
      ],
      "rhythm_density": 0.5813648293963256,
      "patrol_enemies": 0,
      "flying_spawn_interval_ms": 2600,
      "falling_rock_spawn_interval_ms": 0
    },
    {
      "index": 120,
      "duration_beats": 2,
      "bpm": 108,
      "energy_state": "medium",
      "platform_types": [
        "static",
        "beat",
        "alternateBeat",
        "ghost",
        "reverseGhost",
        "elevator"
      ],
      "vertical_range": [
        0,
        4
      ],
      "rhythm_density": 0.5551181102362205,
      "patrol_enemies": 1,
      "flying_spawn_interval_ms": 0,
      "falling_rock_spawn_interval_ms": 0
    },
    {
      "index": 121,
      "duration_beats": 2,
      "bpm": 108,
      "energy_state": "medium",
      "platform_types": [
        "static",
        "beat",
        "alternateBeat",
        "ghost",
        "reverseGhost",
        "elevator"
      ],
      "vertical_range": [
        0,
        3
      ],
      "rhythm_density": 0.5644685039370079,
      "patrol_enemies": 0,
      "flying_spawn_interval_ms": 0,
      "falling_rock_spawn_interval_ms": 0
    },
    {
      "index": 122,
      "duration_beats": 2,
      "bpm": 108,
      "energy_state": "low",
      "platform_types": [
        "static",
        "beat",
        "alternateBeat",
        "elevator"
      ],
      "vertical_range": [
        0,
        3
      ],
      "rhythm_density": 0.543307086614173,
      "patrol_enemies": 0,
      "flying_spawn_interval_ms": 0,
      "falling_rock_spawn_interval_ms": 0
    },
    {
      "index": 123,
      "duration_beats": 2,
      "bpm": 108,
      "energy_state": "low",
      "platform_types": [
        "static",
        "beat",
        "alternateBeat",
        "elevator"
      ],
      "vertical_range": [
        0,
        4
      ],
      "rhythm_density": 0.5360387643852209,
      "patrol_enemies": 0,
      "flying_spawn_interval_ms": 0,
      "falling_rock_spawn_interval_ms": 0
    },
    {
      "index": 124,
      "duration_beats": 2,
      "bpm": 108,
      "energy_state": "low",
      "platform_types": [
        "static",
        "beat",
        "alternateBeat",
        "elevator"
      ],
      "vertical_range": [
        0,
        4
      ],
      "rhythm_density": 0.5118110236220471,
      "patrol_enemies": 0,
      "flying_spawn_interval_ms": 3400,
      "falling_rock_spawn_interval_ms": 0
    },
    {
      "index": 125,
      "duration_beats": 2,
      "bpm": 108,
      "energy_state": "medium",
      "platform_types": [
        "static",
        "beat",
        "alternateBeat",
        "ghost",
        "reverseGhost",
        "elevator"
      ],
      "vertical_range": [
        0,
        4
      ],
      "rhythm_density": 0.5713035870516188,
      "patrol_enemies": 0,
      "flying_spawn_interval_ms": 0,
      "falling_rock_spawn_interval_ms": 0
    },
    {
      "index": 126,
      "duration_beats": 2,
      "bpm": 108,
      "energy_state": "medium",
      "platform_types": [
        "static",
        "beat",
        "alternateBeat",
        "ghost",
        "reverseGhost",
        "elevator"
      ],
      "vertical_range": [
        0,
        4
      ],
      "rhythm_density": 0.5700787401574804,
      "patrol_enemies": 1,
      "flying_spawn_interval_ms": 0,
      "falling_rock_spawn_interval_ms": 0
    },
    {
      "index": 127,
      "duration_beats": 2,
      "bpm": 108,
      "energy_state": "high",
      "platform_types": [
        "static",
        "beat",
        "alternateBeat",
        "ghost",
        "reverseGhost",
        "elevator",
        "shuttle",
        "cross",
        "spring",
        "hazard",
        "launch30",
        "launch60"
      ],
      "vertical_range": [
        0,
        4
      ],
      "rhythm_density": 0.5336286089238843,
      "patrol_enemies": 1,
      "flying_spawn_interval_ms": 0,
      "falling_rock_spawn_interval_ms": 0
    },
    {
      "index": 128,
      "duration_beats": 2,
      "bpm": 108,
      "energy_state": "low",
      "platform_types": [
        "static",
        "beat",
        "alternateBeat",
        "elevator"
      ],
      "vertical_range": [
        0,
        4
      ],
      "rhythm_density": 0.531758530183727,
      "patrol_enemies": 0,
      "flying_spawn_interval_ms": 0,
      "falling_rock_spawn_interval_ms": 0
    },
    {
      "index": 129,
      "duration_beats": 2,
      "bpm": 108,
      "energy_state": "medium",
      "platform_types": [
        "static",
        "beat",
        "alternateBeat",
        "ghost",
        "reverseGhost",
        "elevator"
      ],
      "vertical_range": [
        0,
        4
      ],
      "rhythm_density": 0.5216535433070866,
      "patrol_enemies": 0,
      "flying_spawn_interval_ms": 2600,
      "falling_rock_spawn_interval_ms": 0
    },
    {
      "index": 130,
      "duration_beats": 2,
      "bpm": 108,
      "energy_state": "low",
      "platform_types": [
        "static",
        "beat",
        "alternateBeat",
        "elevator"
      ],
      "vertical_range": [
        0,
        4
      ],
      "rhythm_density": 0.5153901216893343,
      "patrol_enemies": 0,
      "flying_spawn_interval_ms": 0,
      "falling_rock_spawn_interval_ms": 0
    },
    {
      "index": 131,
      "duration_beats": 2,
      "bpm": 108,
      "energy_state": "medium",
      "platform_types": [
        "static",
        "beat",
        "alternateBeat",
        "ghost",
        "reverseGhost",
        "elevator"
      ],
      "vertical_range": [
        0,
        4
      ],
      "rhythm_density": 0.5055661145805052,
      "patrol_enemies": 0,
      "flying_spawn_interval_ms": 0,
      "falling_rock_spawn_interval_ms": 0
    },
    {
      "index": 132,
      "duration_beats": 2,
      "bpm": 108,
      "energy_state": "medium",
      "platform_types": [
        "static",
        "beat",
        "alternateBeat",
        "ghost",
        "reverseGhost",
        "elevator"
      ],
      "vertical_range": [
        0,
        4
      ],
      "rhythm_density": 0.5498687664041996,
      "patrol_enemies": 1,
      "flying_spawn_interval_ms": 0,
      "falling_rock_spawn_interval_ms": 0
    },
    {
      "index": 133,
      "duration_beats": 2,
      "bpm": 108,
      "energy_state": "high",
      "platform_types": [
        "static",
        "beat",
        "alternateBeat",
        "ghost",
        "reverseGhost",
        "elevator",
        "shuttle",
        "cross",
        "spring",
        "hazard",
        "launch30",
        "launch60"
      ],
      "vertical_range": [
        0,
        4
      ],
      "rhythm_density": 0.5411596277738009,
      "patrol_enemies": 0,
      "flying_spawn_interval_ms": 0,
      "falling_rock_spawn_interval_ms": 0
    },
    {
      "index": 134,
      "duration_beats": 2,
      "bpm": 108,
      "energy_state": "medium",
      "platform_types": [
        "static",
        "beat",
        "alternateBeat",
        "ghost",
        "reverseGhost",
        "elevator"
      ],
      "vertical_range": [
        0,
        4
      ],
      "rhythm_density": 0.553960166743863,
      "patrol_enemies": 1,
      "flying_spawn_interval_ms": 2600,
      "falling_rock_spawn_interval_ms": 0
    },
    {
      "index": 135,
      "duration_beats": 2,
      "bpm": 108,
      "energy_state": "medium",
      "platform_types": [
        "static",
        "beat",
        "alternateBeat",
        "ghost",
        "reverseGhost",
        "elevator"
      ],
      "vertical_range": [
        0,
        4
      ],
      "rhythm_density": 0.5720775287704423,
      "patrol_enemies": 0,
      "flying_spawn_interval_ms": 0,
      "falling_rock_spawn_interval_ms": 0
    },
    {
      "index": 136,
      "duration_beats": 2,
      "bpm": 108,
      "energy_state": "medium",
      "platform_types": [
        "static",
        "beat",
        "alternateBeat",
        "ghost",
        "reverseGhost",
        "elevator"
      ],
      "vertical_range": [
        0,
        4
      ],
      "rhythm_density": 0.5412349772067967,
      "patrol_enemies": 1,
      "flying_spawn_interval_ms": 0,
      "falling_rock_spawn_interval_ms": 0
    },
    {
      "index": 137,
      "duration_beats": 2,
      "bpm": 108,
      "energy_state": "medium",
      "platform_types": [
        "static",
        "beat",
        "alternateBeat",
        "ghost",
        "reverseGhost",
        "elevator"
      ],
      "vertical_range": [
        0,
        4
      ],
      "rhythm_density": 0.46259842519685046,
      "patrol_enemies": 1,
      "flying_spawn_interval_ms": 0,
      "falling_rock_spawn_interval_ms": 0
    },
    {
      "index": 138,
      "duration_beats": 2,
      "bpm": 108,
      "energy_state": "medium",
      "platform_types": [
        "static",
        "beat",
        "alternateBeat",
        "ghost",
        "reverseGhost",
        "elevator"
      ],
      "vertical_range": [
        0,
        4
      ],
      "rhythm_density": 0.5717746820109026,
      "patrol_enemies": 0,
      "flying_spawn_interval_ms": 0,
      "falling_rock_spawn_interval_ms": 0
    },
    {
      "index": 139,
      "duration_beats": 2,
      "bpm": 108,
      "energy_state": "medium",
      "platform_types": [
        "static",
        "beat",
        "alternateBeat",
        "ghost",
        "reverseGhost",
        "elevator"
      ],
      "vertical_range": [
        0,
        4
      ],
      "rhythm_density": 0.5064235391628678,
      "patrol_enemies": 0,
      "flying_spawn_interval_ms": 2600,
      "falling_rock_spawn_interval_ms": 0
    },
    {
      "index": 140,
      "duration_beats": 2,
      "bpm": 108,
      "energy_state": "medium",
      "platform_types": [
        "static",
        "beat",
        "alternateBeat",
        "ghost",
        "reverseGhost",
        "elevator"
      ],
      "vertical_range": [
        0,
        4
      ],
      "rhythm_density": 0.5767716535433072,
      "patrol_enemies": 0,
      "flying_spawn_interval_ms": 0,
      "falling_rock_spawn_interval_ms": 0
    },
    {
      "index": 141,
      "duration_beats": 2,
      "bpm": 108,
      "energy_state": "medium",
      "platform_types": [
        "static",
        "beat",
        "alternateBeat",
        "ghost",
        "reverseGhost",
        "elevator"
      ],
      "vertical_range": [
        0,
        4
      ],
      "rhythm_density": 0.5537120359955007,
      "patrol_enemies": 0,
      "flying_spawn_interval_ms": 0,
      "falling_rock_spawn_interval_ms": 0
    },
    {
      "index": 142,
      "duration_beats": 2,
      "bpm": 108,
      "energy_state": "medium",
      "platform_types": [
        "static",
        "beat",
        "alternateBeat",
        "ghost",
        "reverseGhost",
        "elevator"
      ],
      "vertical_range": [
        0,
        4
      ],
      "rhythm_density": 0.45844269466316717,
      "patrol_enemies": 1,
      "flying_spawn_interval_ms": 0,
      "falling_rock_spawn_interval_ms": 0
    },
    {
      "index": 143,
      "duration_beats": 2,
      "bpm": 108,
      "energy_state": "high",
      "platform_types": [
        "static",
        "beat",
        "alternateBeat",
        "ghost",
        "reverseGhost",
        "elevator",
        "shuttle",
        "cross",
        "spring",
        "hazard",
        "launch30",
        "launch60"
      ],
      "vertical_range": [
        0,
        4
      ],
      "rhythm_density": 0.46788230418566074,
      "patrol_enemies": 0,
      "flying_spawn_interval_ms": 0,
      "falling_rock_spawn_interval_ms": 0
    },
    {
      "index": 144,
      "duration_beats": 2,
      "bpm": 108,
      "energy_state": "low",
      "platform_types": [
        "static",
        "beat",
        "alternateBeat",
        "elevator"
      ],
      "vertical_range": [
        0,
        4
      ],
      "rhythm_density": 0.537007874015748,
      "patrol_enemies": 0,
      "flying_spawn_interval_ms": 3400,
      "falling_rock_spawn_interval_ms": 0
    },
    {
      "index": 145,
      "duration_beats": 2,
      "bpm": 108,
      "energy_state": "low",
      "platform_types": [
        "static",
        "beat",
        "alternateBeat",
        "elevator"
      ],
      "vertical_range": [
        0,
        2
      ],
      "rhythm_density": 0.5950506186726658,
      "patrol_enemies": 0,
      "flying_spawn_interval_ms": 0,
      "falling_rock_spawn_interval_ms": 0
    },
    {
      "index": 146,
      "duration_beats": 2,
      "bpm": 108,
      "energy_state": "low",
      "platform_types": [
        "static",
        "beat",
        "alternateBeat",
        "elevator"
      ],
      "vertical_range": [
        0,
        2
      ],
      "rhythm_density": 0.5204724409448819,
      "patrol_enemies": 0,
      "flying_spawn_interval_ms": 0,
      "falling_rock_spawn_interval_ms": 0
    },
    {
      "index": 147,
      "duration_beats": 2,
      "bpm": 108,
      "energy_state": "low",
      "platform_types": [
        "static",
        "beat",
        "alternateBeat",
        "elevator"
      ],
      "vertical_range": [
        0,
        3
      ],
      "rhythm_density": 0.5844942459115686,
      "patrol_enemies": 0,
      "flying_spawn_interval_ms": 0,
      "falling_rock_spawn_interval_ms": 0
    },
    {
      "index": 148,
      "duration_beats": 2,
      "bpm": 108,
      "energy_state": "low",
      "platform_types": [
        "static",
        "beat",
        "alternateBeat",
        "elevator"
      ],
      "vertical_range": [
        0,
        2
      ],
      "rhythm_density": 0.5711689884918232,
      "patrol_enemies": 0,
      "flying_spawn_interval_ms": 0,
      "falling_rock_spawn_interval_ms": 0
    },
    {
      "index": 149,
      "duration_beats": 2,
      "bpm": 108,
      "energy_state": "medium",
      "platform_types": [
        "static",
        "beat",
        "alternateBeat",
        "ghost",
        "reverseGhost",
        "elevator"
      ],
      "vertical_range": [
        0,
        4
      ],
      "rhythm_density": 0.567716535433071,
      "patrol_enemies": 1,
      "flying_spawn_interval_ms": 2600,
      "falling_rock_spawn_interval_ms": 0
    },
    {
      "index": 150,
      "duration_beats": 2,
      "bpm": 108,
      "energy_state": "medium",
      "platform_types": [
        "static",
        "beat",
        "alternateBeat",
        "ghost",
        "reverseGhost",
        "elevator"
      ],
      "vertical_range": [
        0,
        4
      ],
      "rhythm_density": 0.5437992125984252,
      "patrol_enemies": 1,
      "flying_spawn_interval_ms": 0,
      "falling_rock_spawn_interval_ms": 0
    },
    {
      "index": 151,
      "duration_beats": 2,
      "bpm": 108,
      "energy_state": "medium",
      "platform_types": [
        "static",
        "beat",
        "alternateBeat",
        "ghost",
        "reverseGhost",
        "elevator"
      ],
      "vertical_range": [
        0,
        4
      ],
      "rhythm_density": 0.5800524934383203,
      "patrol_enemies": 1,
      "flying_spawn_interval_ms": 0,
      "falling_rock_spawn_interval_ms": 0
    },
    {
      "index": 152,
      "duration_beats": 2,
      "bpm": 108,
      "energy_state": "medium",
      "platform_types": [
        "static",
        "beat",
        "alternateBeat",
        "ghost",
        "reverseGhost",
        "elevator"
      ],
      "vertical_range": [
        0,
        3
      ],
      "rhythm_density": 0.5558128763316351,
      "patrol_enemies": 1,
      "flying_spawn_interval_ms": 0,
      "falling_rock_spawn_interval_ms": 0
    },
    {
      "index": 153,
      "duration_beats": 2,
      "bpm": 108,
      "energy_state": "medium",
      "platform_types": [
        "static",
        "beat",
        "alternateBeat",
        "ghost",
        "reverseGhost",
        "elevator"
      ],
      "vertical_range": [
        0,
        3
      ],
      "rhythm_density": 0.5629921259842521,
      "patrol_enemies": 1,
      "flying_spawn_interval_ms": 0,
      "falling_rock_spawn_interval_ms": 0
    },
    {
      "index": 154,
      "duration_beats": 2,
      "bpm": 108,
      "energy_state": "medium",
      "platform_types": [
        "static",
        "beat",
        "alternateBeat",
        "ghost",
        "reverseGhost",
        "elevator"
      ],
      "vertical_range": [
        0,
        3
      ],
      "rhythm_density": 0.5409911996294582,
      "patrol_enemies": 1,
      "flying_spawn_interval_ms": 2600,
      "falling_rock_spawn_interval_ms": 0
    },
    {
      "index": 155,
      "duration_beats": 2,
      "bpm": 108,
      "energy_state": "medium",
      "platform_types": [
        "static",
        "beat",
        "alternateBeat",
        "ghost",
        "reverseGhost",
        "elevator"
      ],
      "vertical_range": [
        0,
        3
      ],
      "rhythm_density": 0.5530338119499769,
      "patrol_enemies": 0,
      "flying_spawn_interval_ms": 0,
      "falling_rock_spawn_interval_ms": 0
    },
    {
      "index": 156,
      "duration_beats": 2,
      "bpm": 108,
      "energy_state": "low",
      "platform_types": [
        "static",
        "beat",
        "alternateBeat",
        "elevator"
      ],
      "vertical_range": [
        0,
        4
      ],
      "rhythm_density": 0.5309336332958379,
      "patrol_enemies": 0,
      "flying_spawn_interval_ms": 0,
      "falling_rock_spawn_interval_ms": 0
    },
    {
      "index": 157,
      "duration_beats": 2,
      "bpm": 108,
      "energy_state": "medium",
      "platform_types": [
        "static",
        "beat",
        "alternateBeat",
        "ghost",
        "reverseGhost",
        "elevator"
      ],
      "vertical_range": [
        0,
        4
      ],
      "rhythm_density": 0.5565497494631354,
      "patrol_enemies": 0,
      "flying_spawn_interval_ms": 0,
      "falling_rock_spawn_interval_ms": 0
    },
    {
      "index": 158,
      "duration_beats": 2,
      "bpm": 108,
      "energy_state": "medium",
      "platform_types": [
        "static",
        "beat",
        "alternateBeat",
        "ghost",
        "reverseGhost",
        "elevator"
      ],
      "vertical_range": [
        0,
        3
      ],
      "rhythm_density": 0.5428926647326979,
      "patrol_enemies": 0,
      "flying_spawn_interval_ms": 0,
      "falling_rock_spawn_interval_ms": 0
    },
    {
      "index": 159,
      "duration_beats": 2,
      "bpm": 108,
      "energy_state": "high",
      "platform_types": [
        "static",
        "beat",
        "alternateBeat",
        "ghost",
        "reverseGhost",
        "elevator",
        "shuttle",
        "cross",
        "spring",
        "hazard",
        "launch30",
        "launch60"
      ],
      "vertical_range": [
        0,
        4
      ],
      "rhythm_density": 0.5064336470136355,
      "patrol_enemies": 1,
      "flying_spawn_interval_ms": 1800,
      "falling_rock_spawn_interval_ms": 0
    },
    {
      "index": 160,
      "duration_beats": 2,
      "bpm": 108,
      "energy_state": "low",
      "platform_types": [
        "static",
        "beat",
        "alternateBeat",
        "elevator"
      ],
      "vertical_range": [
        0,
        2
      ],
      "rhythm_density": 0.547244094488189,
      "patrol_enemies": 0,
      "flying_spawn_interval_ms": 0,
      "falling_rock_spawn_interval_ms": 0
    },
    {
      "index": 161,
      "duration_beats": 2,
      "bpm": 108,
      "energy_state": "medium",
      "platform_types": [
        "static",
        "beat",
        "alternateBeat",
        "ghost",
        "reverseGhost",
        "elevator"
      ],
      "vertical_range": [
        0,
        2
      ],
      "rhythm_density": 0.5849930523390461,
      "patrol_enemies": 1,
      "flying_spawn_interval_ms": 0,
      "falling_rock_spawn_interval_ms": 0
    },
    {
      "index": 162,
      "duration_beats": 2,
      "bpm": 108,
      "energy_state": "medium",
      "platform_types": [
        "static",
        "beat",
        "alternateBeat",
        "ghost",
        "reverseGhost",
        "elevator"
      ],
      "vertical_range": [
        0,
        3
      ],
      "rhythm_density": 0.5370907583920431,
      "patrol_enemies": 0,
      "flying_spawn_interval_ms": 0,
      "falling_rock_spawn_interval_ms": 0
    },
    {
      "index": 163,
      "duration_beats": 2,
      "bpm": 108,
      "energy_state": "low",
      "platform_types": [
        "static",
        "beat",
        "alternateBeat",
        "elevator"
      ],
      "vertical_range": [
        0,
        3
      ],
      "rhythm_density": 0.5826771653543307,
      "patrol_enemies": 0,
      "flying_spawn_interval_ms": 0,
      "falling_rock_spawn_interval_ms": 0
    },
    {
      "index": 164,
      "duration_beats": 2,
      "bpm": 108,
      "energy_state": "medium",
      "platform_types": [
        "static",
        "beat",
        "alternateBeat",
        "ghost",
        "reverseGhost",
        "elevator"
      ],
      "vertical_range": [
        0,
        4
      ],
      "rhythm_density": 0.5446966188050024,
      "patrol_enemies": 0,
      "flying_spawn_interval_ms": 2600,
      "falling_rock_spawn_interval_ms": 0
    },
    {
      "index": 165,
      "duration_beats": 2,
      "bpm": 108,
      "energy_state": "medium",
      "platform_types": [
        "static",
        "beat",
        "alternateBeat",
        "ghost",
        "reverseGhost",
        "elevator"
      ],
      "vertical_range": [
        0,
        4
      ],
      "rhythm_density": 0.5341207349081365,
      "patrol_enemies": 1,
      "flying_spawn_interval_ms": 0,
      "falling_rock_spawn_interval_ms": 0
    },
    {
      "index": 166,
      "duration_beats": 2,
      "bpm": 108,
      "energy_state": "medium",
      "platform_types": [
        "static",
        "beat",
        "alternateBeat",
        "ghost",
        "reverseGhost",
        "elevator"
      ],
      "vertical_range": [
        0,
        4
      ],
      "rhythm_density": 0.520559930008749,
      "patrol_enemies": 1,
      "flying_spawn_interval_ms": 0,
      "falling_rock_spawn_interval_ms": 0
    },
    {
      "index": 167,
      "duration_beats": 2,
      "bpm": 108,
      "energy_state": "medium",
      "platform_types": [
        "static",
        "beat",
        "alternateBeat",
        "ghost",
        "reverseGhost",
        "elevator"
      ],
      "vertical_range": [
        0,
        4
      ],
      "rhythm_density": 0.5811023622047244,
      "patrol_enemies": 1,
      "flying_spawn_interval_ms": 0,
      "falling_rock_spawn_interval_ms": 0
    },
    {
      "index": 168,
      "duration_beats": 2,
      "bpm": 108,
      "energy_state": "low",
      "platform_types": [
        "static",
        "beat",
        "alternateBeat",
        "elevator"
      ],
      "vertical_range": [
        0,
        3
      ],
      "rhythm_density": 0.5627296587926509,
      "patrol_enemies": 0,
      "flying_spawn_interval_ms": 0,
      "falling_rock_spawn_interval_ms": 0
    },
    {
      "index": 169,
      "duration_beats": 2,
      "bpm": 108,
      "energy_state": "medium",
      "platform_types": [
        "static",
        "beat",
        "alternateBeat",
        "ghost",
        "reverseGhost",
        "elevator"
      ],
      "vertical_range": [
        0,
        3
      ],
      "rhythm_density": 0.5511811023622047,
      "patrol_enemies": 0,
      "flying_spawn_interval_ms": 2600,
      "falling_rock_spawn_interval_ms": 0
    },
    {
      "index": 170,
      "duration_beats": 2,
      "bpm": 108,
      "energy_state": "medium",
      "platform_types": [
        "static",
        "beat",
        "alternateBeat",
        "ghost",
        "reverseGhost",
        "elevator"
      ],
      "vertical_range": [
        0,
        3
      ],
      "rhythm_density": 0.5118110236220472,
      "patrol_enemies": 0,
      "flying_spawn_interval_ms": 0,
      "falling_rock_spawn_interval_ms": 0
    },
    {
      "index": 171,
      "duration_beats": 2,
      "bpm": 108,
      "energy_state": "medium",
      "platform_types": [
        "static",
        "beat",
        "alternateBeat",
        "ghost",
        "reverseGhost",
        "elevator"
      ],
      "vertical_range": [
        0,
        4
      ],
      "rhythm_density": 0.5196850393700787,
      "patrol_enemies": 1,
      "flying_spawn_interval_ms": 0,
      "falling_rock_spawn_interval_ms": 0
    },
    {
      "index": 172,
      "duration_beats": 2,
      "bpm": 108,
      "energy_state": "medium",
      "platform_types": [
        "static",
        "beat",
        "alternateBeat",
        "ghost",
        "reverseGhost",
        "elevator"
      ],
      "vertical_range": [
        0,
        4
      ],
      "rhythm_density": 0.5411198600174979,
      "patrol_enemies": 1,
      "flying_spawn_interval_ms": 0,
      "falling_rock_spawn_interval_ms": 0
    },
    {
      "index": 173,
      "duration_beats": 2,
      "bpm": 108,
      "energy_state": "medium",
      "platform_types": [
        "static",
        "beat",
        "alternateBeat",
        "ghost",
        "reverseGhost",
        "elevator"
      ],
      "vertical_range": [
        0,
        3
      ],
      "rhythm_density": 0.5702445089100706,
      "patrol_enemies": 1,
      "flying_spawn_interval_ms": 0,
      "falling_rock_spawn_interval_ms": 0
    },
    {
      "index": 174,
      "duration_beats": 2,
      "bpm": 108,
      "energy_state": "medium",
      "platform_types": [
        "static",
        "beat",
        "alternateBeat",
        "ghost",
        "reverseGhost",
        "elevator"
      ],
      "vertical_range": [
        0,
        4
      ],
      "rhythm_density": 0.5808244557665587,
      "patrol_enemies": 1,
      "flying_spawn_interval_ms": 2600,
      "falling_rock_spawn_interval_ms": 0
    },
    {
      "index": 175,
      "duration_beats": 2,
      "bpm": 108,
      "energy_state": "medium",
      "platform_types": [
        "static",
        "beat",
        "alternateBeat",
        "ghost",
        "reverseGhost",
        "elevator"
      ],
      "vertical_range": [
        0,
        4
      ],
      "rhythm_density": 0.5882352941176471,
      "patrol_enemies": 1,
      "flying_spawn_interval_ms": 0,
      "falling_rock_spawn_interval_ms": 0
    },
    {
      "index": 176,
      "duration_beats": 2,
      "bpm": 108,
      "energy_state": "low",
      "platform_types": [
        "static",
        "beat",
        "alternateBeat",
        "elevator"
      ],
      "vertical_range": [
        0,
        4
      ],
      "rhythm_density": 0.5099939430648092,
      "patrol_enemies": 0,
      "flying_spawn_interval_ms": 0,
      "falling_rock_spawn_interval_ms": 0
    },
    {
      "index": 177,
      "duration_beats": 2,
      "bpm": 108,
      "energy_state": "low",
      "platform_types": [
        "static",
        "beat",
        "alternateBeat",
        "elevator"
      ],
      "vertical_range": [
        0,
        2
      ],
      "rhythm_density": 0.584776902887139,
      "patrol_enemies": 0,
      "flying_spawn_interval_ms": 0,
      "falling_rock_spawn_interval_ms": 0
    },
    {
      "index": 178,
      "duration_beats": 2,
      "bpm": 106,
      "energy_state": "low",
      "platform_types": [
        "static",
        "beat",
        "alternateBeat",
        "elevator"
      ],
      "vertical_range": [
        0,
        2
      ],
      "rhythm_density": 0.29133858267716534,
      "patrol_enemies": 0,
      "flying_spawn_interval_ms": 0,
      "falling_rock_spawn_interval_ms": 0
    },
    {
      "index": 179,
      "duration_beats": 2,
      "bpm": 104,
      "energy_state": "medium",
      "platform_types": [
        "static",
        "beat",
        "alternateBeat",
        "ghost",
        "reverseGhost",
        "elevator"
      ],
      "vertical_range": [
        0,
        4
      ],
      "rhythm_density": 0.4724409448818896,
      "patrol_enemies": 0,
      "flying_spawn_interval_ms": 2600,
      "falling_rock_spawn_interval_ms": 0
    },
    {
      "index": 180,
      "duration_beats": 2,
      "bpm": 104,
      "energy_state": "low",
      "platform_types": [
        "static",
        "beat",
        "alternateBeat",
        "elevator"
      ],
      "vertical_range": [
        0,
        2
      ],
      "rhythm_density": 0.5523059617547805,
      "patrol_enemies": 0,
      "flying_spawn_interval_ms": 0,
      "falling_rock_spawn_interval_ms": 0
    },
    {
      "index": 181,
      "duration_beats": 2,
      "bpm": 104,
      "energy_state": "low",
      "platform_types": [
        "static",
        "beat",
        "alternateBeat",
        "elevator"
      ],
      "vertical_range": [
        0,
        3
      ],
      "rhythm_density": 0.4472440944881889,
      "patrol_enemies": 0,
      "flying_spawn_interval_ms": 0,
      "falling_rock_spawn_interval_ms": 0
    },
    {
      "index": 182,
      "duration_beats": 2,
      "bpm": 104,
      "energy_state": "medium",
      "platform_types": [
        "static",
        "beat",
        "alternateBeat",
        "ghost",
        "reverseGhost",
        "elevator"
      ],
      "vertical_range": [
        0,
        4
      ],
      "rhythm_density": 0.45324803149606296,
      "patrol_enemies": 1,
      "flying_spawn_interval_ms": 0,
      "falling_rock_spawn_interval_ms": 0
    },
    {
      "index": 183,
      "duration_beats": 2,
      "bpm": 104,
      "energy_state": "low",
      "platform_types": [
        "static",
        "beat",
        "alternateBeat",
        "elevator"
      ],
      "vertical_range": [
        2,
        4
      ],
      "rhythm_density": 0.42125984251968507,
      "patrol_enemies": 0,
      "flying_spawn_interval_ms": 0,
      "falling_rock_spawn_interval_ms": 0
    },
    {
      "index": 184,
      "duration_beats": 2,
      "bpm": 108,
      "energy_state": "low",
      "platform_types": [
        "static",
        "beat",
        "alternateBeat",
        "elevator"
      ],
      "vertical_range": [
        1,
        2
      ],
      "rhythm_density": 0.38188976377952755,
      "patrol_enemies": 0,
      "flying_spawn_interval_ms": 3400,
      "falling_rock_spawn_interval_ms": 0
    },
    {
      "index": 185,
      "duration_beats": 2,
      "bpm": 108,
      "energy_state": "low",
      "platform_types": [
        "static",
        "beat",
        "alternateBeat",
        "elevator"
      ],
      "vertical_range": [
        1,
        3
      ],
      "rhythm_density": 0.5748031496062992,
      "patrol_enemies": 0,
      "flying_spawn_interval_ms": 0,
      "falling_rock_spawn_interval_ms": 0
    },
    {
      "index": 186,
      "duration_beats": 2,
      "bpm": 108,
      "energy_state": "low",
      "platform_types": [
        "static",
        "beat",
        "alternateBeat",
        "elevator"
      ],
      "vertical_range": [
        0,
        3
      ],
      "rhythm_density": 0.45729860690490615,
      "patrol_enemies": 0,
      "flying_spawn_interval_ms": 0,
      "falling_rock_spawn_interval_ms": 0
    },
    {
      "index": 187,
      "duration_beats": 2,
      "bpm": 108,
      "energy_state": "low",
      "platform_types": [
        "static",
        "beat",
        "alternateBeat",
        "elevator"
      ],
      "vertical_range": [
        0,
        2
      ],
      "rhythm_density": 0.5131233595800525,
      "patrol_enemies": 0,
      "flying_spawn_interval_ms": 0,
      "falling_rock_spawn_interval_ms": 0
    },
    {
      "index": 188,
      "duration_beats": 2,
      "bpm": 108,
      "energy_state": "low",
      "platform_types": [
        "static",
        "beat",
        "alternateBeat",
        "elevator"
      ],
      "vertical_range": [
        0,
        2
      ],
      "rhythm_density": 0.4713160854893138,
      "patrol_enemies": 0,
      "flying_spawn_interval_ms": 0,
      "falling_rock_spawn_interval_ms": 0
    },
    {
      "index": 189,
      "duration_beats": 2,
      "bpm": 108,
      "energy_state": "low",
      "platform_types": [
        "static",
        "beat",
        "alternateBeat",
        "elevator"
      ],
      "vertical_range": [
        0,
        4
      ],
      "rhythm_density": 0.5061867266591676,
      "patrol_enemies": 0,
      "flying_spawn_interval_ms": 3400,
      "falling_rock_spawn_interval_ms": 0
    },
    {
      "index": 190,
      "duration_beats": 2,
      "bpm": 108,
      "energy_state": "low",
      "platform_types": [
        "static",
        "beat",
        "alternateBeat",
        "elevator"
      ],
      "vertical_range": [
        0,
        3
      ],
      "rhythm_density": 0.5104986876640419,
      "patrol_enemies": 0,
      "flying_spawn_interval_ms": 0,
      "falling_rock_spawn_interval_ms": 0
    },
    {
      "index": 191,
      "duration_beats": 2,
      "bpm": 108,
      "energy_state": "low",
      "platform_types": [
        "static",
        "beat",
        "alternateBeat",
        "elevator"
      ],
      "vertical_range": [
        0,
        2
      ],
      "rhythm_density": 0.46231721034870643,
      "patrol_enemies": 0,
      "flying_spawn_interval_ms": 0,
      "falling_rock_spawn_interval_ms": 0
    },
    {
      "index": 192,
      "duration_beats": 2,
      "bpm": 108,
      "energy_state": "low",
      "platform_types": [
        "static",
        "beat",
        "alternateBeat",
        "elevator"
      ],
      "vertical_range": [
        0,
        3
      ],
      "rhythm_density": 0.49268841394825647,
      "patrol_enemies": 0,
      "flying_spawn_interval_ms": 0,
      "falling_rock_spawn_interval_ms": 0
    },
    {
      "index": 193,
      "duration_beats": 2,
      "bpm": 108,
      "energy_state": "low",
      "platform_types": [
        "static",
        "beat",
        "alternateBeat",
        "elevator"
      ],
      "vertical_range": [
        0,
        4
      ],
      "rhythm_density": 0.5029527559055118,
      "patrol_enemies": 0,
      "flying_spawn_interval_ms": 0,
      "falling_rock_spawn_interval_ms": 0
    },
    {
      "index": 194,
      "duration_beats": 2,
      "bpm": 106,
      "energy_state": "low",
      "platform_types": [
        "static",
        "beat",
        "alternateBeat",
        "elevator"
      ],
      "vertical_range": [
        0,
        3
      ],
      "rhythm_density": 0.447244094488189,
      "patrol_enemies": 0,
      "flying_spawn_interval_ms": 3400,
      "falling_rock_spawn_interval_ms": 0
    },
    {
      "index": 195,
      "duration_beats": 2,
      "bpm": 102,
      "energy_state": "low",
      "platform_types": [
        "static",
        "beat",
        "alternateBeat",
        "elevator"
      ],
      "vertical_range": [
        0,
        2
      ],
      "rhythm_density": 0.45538057742782145,
      "patrol_enemies": 0,
      "flying_spawn_interval_ms": 0,
      "falling_rock_spawn_interval_ms": 0
    },
    {
      "index": 196,
      "duration_beats": 2,
      "bpm": 90,
      "energy_state": "low",
      "platform_types": [
        "static",
        "beat",
        "alternateBeat",
        "elevator"
      ],
      "vertical_range": [
        0,
        2
      ],
      "rhythm_density": 0.484251968503937,
      "patrol_enemies": 0,
      "flying_spawn_interval_ms": 0,
      "falling_rock_spawn_interval_ms": 0
    },
    {
      "index": 197,
      "duration_beats": 2,
      "bpm": 90,
      "energy_state": "low",
      "platform_types": [
        "static",
        "beat",
        "alternateBeat",
        "elevator"
      ],
      "vertical_range": [
        1,
        2
      ],
      "rhythm_density": 0.4566929133858268,
      "patrol_enemies": 0,
      "flying_spawn_interval_ms": 0,
      "falling_rock_spawn_interval_ms": 0
    },
    {
      "index": 198,
      "duration_beats": 2,
      "bpm": 90,
      "energy_state": "low",
      "platform_types": [
        "static",
        "beat",
        "alternateBeat",
        "elevator"
      ],
      "vertical_range": [
        0,
        2
      ],
      "rhythm_density": 0.4448818897637795,
      "patrol_enemies": 0,
      "flying_spawn_interval_ms": 0,
      "falling_rock_spawn_interval_ms": 0
    },
    {
      "index": 199,
      "duration_beats": 2,
      "bpm": 108,
      "energy_state": "medium",
      "platform_types": [
        "static",
        "beat",
        "alternateBeat",
        "ghost",
        "reverseGhost",
        "elevator"
      ],
      "vertical_range": [
        0,
        3
      ],
      "rhythm_density": 0.312992125984252,
      "patrol_enemies": 1,
      "flying_spawn_interval_ms": 2600,
      "falling_rock_spawn_interval_ms": 0
    },
    {
      "index": 200,
      "duration_beats": 2,
      "bpm": 108,
      "energy_state": "medium",
      "platform_types": [
        "static",
        "beat",
        "alternateBeat",
        "ghost",
        "reverseGhost",
        "elevator"
      ],
      "vertical_range": [
        0,
        4
      ],
      "rhythm_density": 0.486757337151038,
      "patrol_enemies": 0,
      "flying_spawn_interval_ms": 0,
      "falling_rock_spawn_interval_ms": 0
    },
    {
      "index": 201,
      "duration_beats": 2,
      "bpm": 108,
      "energy_state": "low",
      "platform_types": [
        "static",
        "beat",
        "alternateBeat",
        "elevator"
      ],
      "vertical_range": [
        0,
        2
      ],
      "rhythm_density": 0.5288713910761155,
      "patrol_enemies": 0,
      "flying_spawn_interval_ms": 0,
      "falling_rock_spawn_interval_ms": 0
    },
    {
      "index": 202,
      "duration_beats": 2,
      "bpm": 108,
      "energy_state": "low",
      "platform_types": [
        "static",
        "beat",
        "alternateBeat",
        "elevator"
      ],
      "vertical_range": [
        0,
        2
      ],
      "rhythm_density": 0.610236220472441,
      "patrol_enemies": 0,
      "flying_spawn_interval_ms": 0,
      "falling_rock_spawn_interval_ms": 0
    },
    {
      "index": 203,
      "duration_beats": 2,
      "bpm": 108,
      "energy_state": "low",
      "platform_types": [
        "static",
        "beat",
        "alternateBeat",
        "elevator"
      ],
      "vertical_range": [
        0,
        3
      ],
      "rhythm_density": 0.4708661417322834,
      "patrol_enemies": 0,
      "flying_spawn_interval_ms": 0,
      "falling_rock_spawn_interval_ms": 0
    },
    {
      "index": 204,
      "duration_beats": 2,
      "bpm": 108,
      "energy_state": "low",
      "platform_types": [
        "static",
        "beat",
        "alternateBeat",
        "elevator"
      ],
      "vertical_range": [
        0,
        3
      ],
      "rhythm_density": 0.49485160508782555,
      "patrol_enemies": 0,
      "flying_spawn_interval_ms": 3400,
      "falling_rock_spawn_interval_ms": 0
    },
    {
      "index": 205,
      "duration_beats": 2,
      "bpm": 106,
      "energy_state": "low",
      "platform_types": [
        "static",
        "beat",
        "alternateBeat",
        "elevator"
      ],
      "vertical_range": [
        0,
        2
      ],
      "rhythm_density": 0.5971128608923885,
      "patrol_enemies": 0,
      "flying_spawn_interval_ms": 0,
      "falling_rock_spawn_interval_ms": 0
    },
    {
      "index": 206,
      "duration_beats": 2,
      "bpm": 106,
      "energy_state": "low",
      "platform_types": [
        "static",
        "beat",
        "alternateBeat",
        "elevator"
      ],
      "vertical_range": [
        0,
        2
      ],
      "rhythm_density": 0.6154855643044619,
      "patrol_enemies": 0,
      "flying_spawn_interval_ms": 0,
      "falling_rock_spawn_interval_ms": 0
    },
    {
      "index": 207,
      "duration_beats": 2,
      "bpm": 102,
      "energy_state": "low",
      "platform_types": [
        "static",
        "beat",
        "alternateBeat",
        "elevator"
      ],
      "vertical_range": [
        0,
        4
      ],
      "rhythm_density": 0.530511811023622,
      "patrol_enemies": 0,
      "flying_spawn_interval_ms": 0,
      "falling_rock_spawn_interval_ms": 0
    },
    {
      "index": 208,
      "duration_beats": 2,
      "bpm": 100,
      "energy_state": "medium",
      "platform_types": [
        "static",
        "beat",
        "alternateBeat",
        "ghost",
        "reverseGhost",
        "elevator"
      ],
      "vertical_range": [
        0,
        4
      ],
      "rhythm_density": 0.39692197566213316,
      "patrol_enemies": 0,
      "flying_spawn_interval_ms": 0,
      "falling_rock_spawn_interval_ms": 0
    },
    {
      "index": 209,
      "duration_beats": 2,
      "bpm": 100,
      "energy_state": "low",
      "platform_types": [
        "static",
        "beat",
        "alternateBeat",
        "elevator"
      ],
      "vertical_range": [
        0,
        1
      ],
      "rhythm_density": 0,
      "patrol_enemies": 0,
      "flying_spawn_interval_ms": 3400,
      "falling_rock_spawn_interval_ms": 0
    },
    {
      "index": 210,
      "duration_beats": 2,
      "bpm": 100,
      "energy_state": "low",
      "platform_types": [
        "static",
        "beat",
        "alternateBeat",
        "elevator"
      ],
      "vertical_range": [
        0,
        1
      ],
      "rhythm_density": 0,
      "patrol_enemies": 0,
      "flying_spawn_interval_ms": 0,
      "falling_rock_spawn_interval_ms": 0
    },
    {
      "index": 211,
      "duration_beats": 2,
      "bpm": 100,
      "energy_state": "low",
      "platform_types": [
        "static",
        "beat",
        "alternateBeat",
        "elevator"
      ],
      "vertical_range": [
        0,
        1
      ],
      "rhythm_density": 0,
      "patrol_enemies": 0,
      "flying_spawn_interval_ms": 0,
      "falling_rock_spawn_interval_ms": 0
    },
    {
      "index": 212,
      "duration_beats": 2,
      "bpm": 100,
      "energy_state": "low",
      "platform_types": [
        "static",
        "beat",
        "alternateBeat",
        "elevator"
      ],
      "vertical_range": [
        0,
        1
      ],
      "rhythm_density": 0,
      "patrol_enemies": 0,
      "flying_spawn_interval_ms": 0,
      "falling_rock_spawn_interval_ms": 0
    },
    {
      "index": 213,
      "duration_beats": 2,
      "bpm": 100,
      "energy_state": "low",
      "platform_types": [
        "static",
        "beat",
        "alternateBeat",
        "elevator"
      ],
      "vertical_range": [
        0,
        1
      ],
      "rhythm_density": 0,
      "patrol_enemies": 0,
      "flying_spawn_interval_ms": 0,
      "falling_rock_spawn_interval_ms": 0
    },
    {
      "index": 214,
      "duration_beats": 2,
      "bpm": 100,
      "energy_state": "low",
      "platform_types": [
        "static",
        "beat",
        "alternateBeat",
        "elevator"
      ],
      "vertical_range": [
        0,
        1
      ],
      "rhythm_density": 0,
      "patrol_enemies": 0,
      "flying_spawn_interval_ms": 3400,
      "falling_rock_spawn_interval_ms": 0
    },
    {
      "index": 215,
      "duration_beats": 2,
      "bpm": 100,
      "energy_state": "low",
      "platform_types": [
        "static",
        "beat",
        "alternateBeat",
        "elevator"
      ],
      "vertical_range": [
        0,
        1
      ],
      "rhythm_density": 0,
      "patrol_enemies": 0,
      "flying_spawn_interval_ms": 0,
      "falling_rock_spawn_interval_ms": 0
    },
    {
      "index": 216,
      "duration_beats": 2,
      "bpm": 100,
      "energy_state": "low",
      "platform_types": [
        "static",
        "beat",
        "alternateBeat",
        "elevator"
      ],
      "vertical_range": [
        0,
        1
      ],
      "rhythm_density": 0,
      "patrol_enemies": 0,
      "flying_spawn_interval_ms": 0,
      "falling_rock_spawn_interval_ms": 0
    },
    {
      "index": 217,
      "duration_beats": 2,
      "bpm": 100,
      "energy_state": "low",
      "platform_types": [
        "static",
        "beat",
        "alternateBeat",
        "elevator"
      ],
      "vertical_range": [
        0,
        1
      ],
      "rhythm_density": 0,
      "patrol_enemies": 0,
      "flying_spawn_interval_ms": 0,
      "falling_rock_spawn_interval_ms": 0
    }
  ],
  "midi_file": "Aladdin.mid"
}