{
  "midiPlayback": {
    "ppq": 192,
    "songEndTick": 262143,
    "tempoPoints": [
      {
        "tick": 0,
        "usPerQuarter": 769230
      },
      {
        "tick": 56832,
        "usPerQuarter": 389610
      },
      {
        "tick": 78720,
        "usPerQuarter": 769230
      }
    ],
    "notes": [
      {
        "startTick": 672,
        "endTick": 748,
        "pitch": 73,
        "velocity": 113,
        "trackId": 6,
        "channel": 3
      },
      {
        "startTick": 672,
        "endTick": 752,
        "pitch": 65,
        "velocity": 113,
        "trackId": 6,
        "channel": 3
      },
      {
        "startTick": 672,
        "endTick": 766,
        "pitch": 68,
        "velocity": 113,
        "trackId": 6,
        "channel": 3
      },
      {
        "startTick": 672,
        "endTick": 766,
        "pitch": 70,
        "velocity": 113,
        "trackId": 6,
        "channel": 3
      },
      {
        "startTick": 768,
        "endTick": 822,
        "pitch": 68,
        "velocity": 113,
        "trackId": 6,
        "channel": 3
      },
      {
        "startTick": 768,
        "endTick": 824,
        "pitch": 70,
        "velocity": 113,
        "trackId": 6,
        "channel": 3
      },
      {
        "startTick": 768,
        "endTick": 838,
        "pitch": 73,
        "velocity": 113,
        "trackId": 6,
        "channel": 3
      },
      {
        "startTick": 768,
        "endTick": 844,
        "pitch": 65,
        "velocity": 113,
        "trackId": 6,
        "channel": 3
      },
      {
        "startTick": 864,
        "endTick": 946,
        "pitch": 73,
        "velocity": 113,
        "trackId": 6,
        "channel": 3
      },
      {
        "startTick": 864,
        "endTick": 950,
        "pitch": 65,
        "velocity": 113,
        "trackId": 6,
        "channel": 3
      },
      {
        "startTick": 864,
        "endTick": 950,
        "pitch": 68,
        "velocity": 113,
        "trackId": 6,
        "channel": 3
      },
      {
        "startTick": 864,
        "endTick": 954,
        "pitch": 70,
        "velocity": 113,
        "trackId": 6,
        "channel": 3
      },
      {
        "startTick": 960,
        "endTick": 1124,
        "pitch": 73,
        "velocity": 113,
        "trackId": 6,
        "channel": 3
      },
      {
        "startTick": 960,
        "endTick": 1130,
        "pitch": 65,
        "velocity": 113,
        "trackId": 6,
        "channel": 3
      },
      {
        "startTick": 960,
        "endTick": 1136,
        "pitch": 68,
        "velocity": 113,
        "trackId": 6,
        "channel": 3
      },
      {
        "startTick": 960,
        "endTick": 1140,
        "pitch": 70,
        "velocity": 113,
        "trackId": 6,
        "channel": 3
      },
      {
        "startTick": 1152,
        "endTick": 1310,
        "pitch": 68,
        "velocity": 113,
        "trackId": 6,
        "channel": 3
      },
      {
        "startTick": 1152,
        "endTick": 1314,
        "pitch": 70,
        "velocity": 113,
        "trackId": 6,
        "channel": 3
      },
      {
        "startTick": 1152,
        "endTick": 1320,
        "pitch": 73,
        "velocity": 113,
        "trackId": 6,
        "channel": 3
      },
      {
        "startTick": 1152,
        "endTick": 1324,
        "pitch": 65,
        "velocity": 113,
        "trackId": 6,
        "channel": 3
      },
      {
        "startTick": 1440,
        "endTick": 1514,
        "pitch": 67,
        "velocity": 113,
        "trackId": 6,
        "channel": 3
      },
      {
        "startTick": 1440,
        "endTick": 1514,
        "pitch": 70,
        "velocity": 113,
        "trackId": 6,
        "channel": 3
      },
      {
        "startTick": 1440,
        "endTick": 1516,
        "pitch": 73,
        "velocity": 113,
        "trackId": 6,
        "channel": 3
      },
      {
        "startTick": 1440,
        "endTick": 1520,
        "pitch": 63,
        "velocity": 113,
        "trackId": 6,
        "channel": 3
      },
      {
        "startTick": 1536,
        "endTick": 1618,
        "pitch": 67,
        "velocity": 113,
        "trackId": 6,
        "channel": 3
      },
      {
        "startTick": 1536,
        "endTick": 1622,
        "pitch": 70,
        "velocity": 113,
        "trackId": 6,
        "channel": 3
      },
      {
        "startTick": 1536,
        "endTick": 1630,
        "pitch": 63,
        "velocity": 113,
        "trackId": 6,
        "channel": 3
      },
      {
        "startTick": 1536,
        "endTick": 1630,
        "pitch": 73,
        "velocity": 113,
        "trackId": 6,
        "channel": 3
      },
      {
        "startTick": 1632,
        "endTick": 1712,
        "pitch": 70,
        "velocity": 113,
        "trackId": 6,
        "channel": 3
      },
      {
        "startTick": 1632,
        "endTick": 1720,
        "pitch": 68,
        "velocity": 113,
        "trackId": 6,
        "channel": 3
      },
      {
        "startTick": 1632,
        "endTick": 1726,
        "pitch": 65,
        "velocity": 113,
        "trackId": 6,
        "channel": 3
      },
      {
        "startTick": 1728,
        "endTick": 1822,
        "pitch": 67,
        "velocity": 113,
        "trackId": 6,
        "channel": 3
      },
      {
        "startTick": 1728,
        "endTick": 1822,
        "pitch": 70,
        "velocity": 113,
        "trackId": 6,
        "channel": 3
      },
      {
        "startTick": 1728,
        "endTick": 1822,
        "pitch": 73,
        "velocity": 113,
        "trackId": 6,
        "channel": 3
      },
      {
        "startTick": 1824,
        "endTick": 1870,
        "pitch": 65,
        "velocity": 113,
        "trackId": 6,
        "channel": 3
      },
      {
        "startTick": 1824,
        "endTick": 1870,
        "pitch": 68,
        "velocity": 113,
        "trackId": 6,
        "channel": 3
      },
      {
        "startTick": 1872,
        "endTick": 2044,
        "pitch": 67,
        "velocity": 113,
        "trackId": 6,
        "channel": 3
      },
      {
        "startTick": 1872,
        "endTick": 2072,
        "pitch": 63,
        "velocity": 113,
        "trackId": 6,
        "channel": 3
      },
      {
        "startTick": 2112,
        "endTick": 2184,
        "pitch": 66,
        "velocity": 113,
        "trackId": 6,
        "channel": 3
      },
      {
        "startTick": 2112,
        "endTick": 2192,
        "pitch": 72,
        "velocity": 113,
        "trackId": 6,
        "channel": 3
      },
      {
        "startTick": 2112,
        "endTick": 2200,
        "pitch": 63,
        "velocity": 113,
        "trackId": 6,
        "channel": 3
      },
      {
        "startTick": 2112,
        "endTick": 2202,
        "pitch": 68,
        "velocity": 113,
        "trackId": 6,
        "channel": 3
      },
      {
        "startTick": 2208,
        "endTick": 2280,
        "pitch": 66,
        "velocity": 113,
        "trackId": 6,
        "channel": 3
      },
      {
        "startTick": 2208,
        "endTick": 2288,
        "pitch": 63,
        "velocity": 113,
        "trackId": 6,
        "channel": 3
      },
      {
        "startTick": 2208,
        "endTick": 2290,
        "pitch": 68,
        "velocity": 113,
        "trackId": 6,
        "channel": 3
      },
      {
        "startTick": 2208,
        "endTick": 2292,
        "pitch": 72,
        "velocity": 113,
        "trackId": 6,
        "channel": 3
      },
      {
        "startTick": 2304,
        "endTick": 2378,
        "pitch": 66,
        "velocity": 113,
        "trackId": 6,
        "channel": 3
      },
      {
        "startTick": 2304,
        "endTick": 2392,
        "pitch": 63,
        "velocity": 113,
        "trackId": 6,
        "channel": 3
      },
      {
        "startTick": 2304,
        "endTick": 2392,
        "pitch": 72,
        "velocity": 113,
        "trackId": 6,
        "channel": 3
      },
      {
        "startTick": 2304,
        "endTick": 2398,
        "pitch": 68,
        "velocity": 113,
        "trackId": 6,
        "channel": 3
      },
      {
        "startTick": 2400,
        "endTick": 2590,
        "pitch": 63,
        "velocity": 113,
        "trackId": 6,
        "channel": 3
      },
      {
        "startTick": 2400,
        "endTick": 2590,
        "pitch": 66,
        "velocity": 113,
        "trackId": 6,
        "channel": 3
      },
      {
        "startTick": 2400,
        "endTick": 2590,
        "pitch": 70,
        "velocity": 113,
        "trackId": 6,
        "channel": 3
      },
      {
        "startTick": 2400,
        "endTick": 2590,
        "pitch": 73,
        "velocity": 113,
        "trackId": 6,
        "channel": 3
      },
      {
        "startTick": 2592,
        "endTick": 2640,
        "pitch": 66,
        "velocity": 113,
        "trackId": 6,
        "channel": 3
      },
      {
        "startTick": 2592,
        "endTick": 2646,
        "pitch": 63,
        "velocity": 113,
        "trackId": 6,
        "channel": 3
      },
      {
        "startTick": 2592,
        "endTick": 2758,
        "pitch": 68,
        "velocity": 113,
        "trackId": 6,
        "channel": 3
      },
      {
        "startTick": 2592,
        "endTick": 2782,
        "pitch": 72,
        "velocity": 113,
        "trackId": 6,
        "channel": 3
      },
      {
        "startTick": 2784,
        "endTick": 2862,
        "pitch": 68,
        "velocity": 113,
        "trackId": 6,
        "channel": 3
      },
      {
        "startTick": 2880,
        "endTick": 2922,
        "pitch": 65,
        "velocity": 113,
        "trackId": 6,
        "channel": 3
      },
      {
        "startTick": 2880,
        "endTick": 2924,
        "pitch": 61,
        "velocity": 113,
        "trackId": 6,
        "channel": 3
      },
      {
        "startTick": 2880,
        "endTick": 2924,
        "pitch": 68,
        "velocity": 113,
        "trackId": 6,
        "channel": 3
      },
      {
        "startTick": 2880,
        "endTick": 2932,
        "pitch": 73,
        "velocity": 113,
        "trackId": 6,
        "channel": 3
      },
      {
        "startTick": 2976,
        "endTick": 3022,
        "pitch": 65,
        "velocity": 113,
        "trackId": 6,
        "channel": 3
      },
      {
        "startTick": 2976,
        "endTick": 3062,
        "pitch": 68,
        "velocity": 113,
        "trackId": 6,
        "channel": 3
      },
      {
        "startTick": 2976,
        "endTick": 3070,
        "pitch": 61,
        "velocity": 113,
        "trackId": 6,
        "channel": 3
      },
      {
        "startTick": 2976,
        "endTick": 3070,
        "pitch": 73,
        "velocity": 113,
        "trackId": 6,
        "channel": 3
      },
      {
        "startTick": 3072,
        "endTick": 3146,
        "pitch": 66,
        "velocity": 113,
        "trackId": 6,
        "channel": 3
      },
      {
        "startTick": 3072,
        "endTick": 3166,
        "pitch": 70,
        "velocity": 113,
        "trackId": 6,
        "channel": 3
      },
      {
        "startTick": 3168,
        "endTick": 3262,
        "pitch": 65,
        "velocity": 113,
        "trackId": 6,
        "channel": 3
      },
      {
        "startTick": 3168,
        "endTick": 3262,
        "pitch": 68,
        "velocity": 113,
        "trackId": 6,
        "channel": 3
      },
      {
        "startTick": 3264,
        "endTick": 3358,
        "pitch": 63,
        "velocity": 113,
        "trackId": 6,
        "channel": 3
      },
      {
        "startTick": 3264,
        "endTick": 3358,
        "pitch": 66,
        "velocity": 113,
        "trackId": 6,
        "channel": 3
      },
      {
        "startTick": 3360,
        "endTick": 3712,
        "pitch": 65,
        "velocity": 113,
        "trackId": 6,
        "channel": 3
      },
      {
        "startTick": 3360,
        "endTick": 3724,
        "pitch": 61,
        "velocity": 113,
        "trackId": 6,
        "channel": 3
      },
      {
        "startTick": 3840,
        "endTick": 3922,
        "pitch": 58,
        "velocity": 123,
        "trackId": 3,
        "channel": 0
      },
      {
        "startTick": 3840,
        "endTick": 3944,
        "pitch": 65,
        "velocity": 122,
        "trackId": 3,
        "channel": 0
      },
      {
        "startTick": 3840,
        "endTick": 3960,
        "pitch": 61,
        "velocity": 123,
        "trackId": 3,
        "channel": 0
      },
      {
        "startTick": 3840,
        "endTick": 4000,
        "pitch": 65,
        "velocity": 104,
        "trackId": 5,
        "channel": 2
      },
      {
        "startTick": 3840,
        "endTick": 4502,
        "pitch": 53,
        "velocity": 123,
        "trackId": 3,
        "channel": 0
      },
      {
        "startTick": 3840,
        "endTick": 4578,
        "pitch": 58,
        "velocity": 113,
        "trackId": 6,
        "channel": 3
      },
      {
        "startTick": 3840,
        "endTick": 4598,
        "pitch": 46,
        "velocity": 113,
        "trackId": 6,
        "channel": 3
      },
      {
        "startTick": 3840,
        "endTick": 4598,
        "pitch": 53,
        "velocity": 113,
        "trackId": 6,
        "channel": 3
      },
      {
        "startTick": 3840,
        "endTick": 4600,
        "pitch": 46,
        "velocity": 120,
        "trackId": 3,
        "channel": 0
      },
      {
        "startTick": 3840,
        "endTick": 4606,
        "pitch": 61,
        "velocity": 113,
        "trackId": 6,
        "channel": 3
      },
      {
        "startTick": 3840,
        "endTick": 4606,
        "pitch": 65,
        "velocity": 113,
        "trackId": 6,
        "channel": 3
      },
      {
        "startTick": 3936,
        "endTick": 4042,
        "pitch": 58,
        "velocity": 95,
        "trackId": 3,
        "channel": 0
      },
      {
        "startTick": 4032,
        "endTick": 4114,
        "pitch": 65,
        "velocity": 111,
        "trackId": 5,
        "channel": 2
      },
      {
        "startTick": 4032,
        "endTick": 4120,
        "pitch": 65,
        "velocity": 122,
        "trackId": 3,
        "channel": 0
      },
      {
        "startTick": 4032,
        "endTick": 4144,
        "pitch": 61,
        "velocity": 121,
        "trackId": 3,
        "channel": 0
      },
      {
        "startTick": 4128,
        "endTick": 4236,
        "pitch": 58,
        "velocity": 104,
        "trackId": 3,
        "channel": 0
      },
      {
        "startTick": 4128,
        "endTick": 4494,
        "pitch": 65,
        "velocity": 110,
        "trackId": 5,
        "channel": 2
      },
      {
        "startTick": 4224,
        "endTick": 4320,
        "pitch": 65,
        "velocity": 122,
        "trackId": 3,
        "channel": 0
      },
      {
        "startTick": 4224,
        "endTick": 4338,
        "pitch": 61,
        "velocity": 121,
        "trackId": 3,
        "channel": 0
      },
      {
        "startTick": 4320,
        "endTick": 4436,
        "pitch": 58,
        "velocity": 109,
        "trackId": 3,
        "channel": 0
      },
      {
        "startTick": 4416,
        "endTick": 4520,
        "pitch": 65,
        "velocity": 120,
        "trackId": 3,
        "channel": 0
      },
      {
        "startTick": 4416,
        "endTick": 4528,
        "pitch": 61,
        "velocity": 120,
        "trackId": 3,
        "channel": 0
      },
      {
        "startTick": 4512,
        "endTick": 4552,
        "pitch": 58,
        "velocity": 116,
        "trackId": 3,
        "channel": 0
      },
      {
        "startTick": 4512,
        "endTick": 4596,
        "pitch": 65,
        "velocity": 111,
        "trackId": 5,
        "channel": 2
      },
      {
        "startTick": 4608,
        "endTick": 4680,
        "pitch": 59,
        "velocity": 123,
        "trackId": 3,
        "channel": 0
      },
      {
        "startTick": 4608,
        "endTick": 4690,
        "pitch": 65,
        "velocity": 117,
        "trackId": 5,
        "channel": 2
      },
      {
        "startTick": 4608,
        "endTick": 4708,
        "pitch": 61,
        "velocity": 123,
        "trackId": 3,
        "channel": 0
      },
      {
        "startTick": 4608,
        "endTick": 4720,
        "pitch": 65,
        "velocity": 123,
        "trackId": 3,
        "channel": 0
      },
      {
        "startTick": 4608,
        "endTick": 4798,
        "pitch": 59,
        "velocity": 113,
        "trackId": 6,
        "channel": 3
      },
      {
        "startTick": 4608,
        "endTick": 5314,
        "pitch": 56,
        "velocity": 122,
        "trackId": 3,
        "channel": 0
      },
      {
        "startTick": 4608,
        "endTick": 6142,
        "pitch": 49,
        "velocity": 123,
        "trackId": 3,
        "channel": 0
      },
      {
        "startTick": 4704,
        "endTick": 4800,
        "pitch": 65,
        "velocity": 116,
        "trackId": 5,
        "channel": 2
      },
      {
        "startTick": 4704,
        "endTick": 4820,
        "pitch": 59,
        "velocity": 118,
        "trackId": 3,
        "channel": 0
      },
      {
        "startTick": 4800,
        "endTick": 4894,
        "pitch": 66,
        "velocity": 113,
        "trackId": 6,
        "channel": 3
      },
      {
        "startTick": 4800,
        "endTick": 4902,
        "pitch": 65,
        "velocity": 123,
        "trackId": 3,
        "channel": 0
      },
      {
        "startTick": 4800,
        "endTick": 4906,
        "pitch": 66,
        "velocity": 115,
        "trackId": 5,
        "channel": 2
      },
      {
        "startTick": 4800,
        "endTick": 4912,
        "pitch": 61,
        "velocity": 122,
        "trackId": 3,
        "channel": 0
      },
      {
        "startTick": 4896,
        "endTick": 5002,
        "pitch": 59,
        "velocity": 110,
        "trackId": 3,
        "channel": 0
      },
      {
        "startTick": 4896,
        "endTick": 5086,
        "pitch": 68,
        "velocity": 113,
        "trackId": 6,
        "channel": 3
      },
      {
        "startTick": 4896,
        "endTick": 5096,
        "pitch": 68,
        "velocity": 113,
        "trackId": 5,
        "channel": 2
      },
      {
        "startTick": 4992,
        "endTick": 5096,
        "pitch": 65,
        "velocity": 118,
        "trackId": 3,
        "channel": 0
      },
      {
        "startTick": 4992,
        "endTick": 5104,
        "pitch": 61,
        "velocity": 121,
        "trackId": 3,
        "channel": 0
      },
      {
        "startTick": 5088,
        "endTick": 5196,
        "pitch": 59,
        "velocity": 117,
        "trackId": 3,
        "channel": 0
      },
      {
        "startTick": 5088,
        "endTick": 5278,
        "pitch": 61,
        "velocity": 113,
        "trackId": 6,
        "channel": 3
      },
      {
        "startTick": 5088,
        "endTick": 5300,
        "pitch": 61,
        "velocity": 103,
        "trackId": 5,
        "channel": 2
      },
      {
        "startTick": 5184,
        "endTick": 5274,
        "pitch": 65,
        "velocity": 122,
        "trackId": 3,
        "channel": 0
      },
      {
        "startTick": 5184,
        "endTick": 5312,
        "pitch": 61,
        "velocity": 120,
        "trackId": 3,
        "channel": 0
      },
      {
        "startTick": 5280,
        "endTick": 5324,
        "pitch": 59,
        "velocity": 117,
        "trackId": 3,
        "channel": 0
      },
      {
        "startTick": 5280,
        "endTick": 5998,
        "pitch": 70,
        "velocity": 101,
        "trackId": 5,
        "channel": 2
      },
      {
        "startTick": 5280,
        "endTick": 6142,
        "pitch": 66,
        "velocity": 113,
        "trackId": 6,
        "channel": 3
      },
      {
        "startTick": 5280,
        "endTick": 6142,
        "pitch": 70,
        "velocity": 113,
        "trackId": 6,
        "channel": 3
      },
      {
        "startTick": 5376,
        "endTick": 5484,
        "pitch": 70,
        "velocity": 121,
        "trackId": 3,
        "channel": 0
      },
      {
        "startTick": 5376,
        "endTick": 5494,
        "pitch": 66,
        "velocity": 118,
        "trackId": 3,
        "channel": 0
      },
      {
        "startTick": 5376,
        "endTick": 5496,
        "pitch": 61,
        "velocity": 123,
        "trackId": 3,
        "channel": 0
      },
      {
        "startTick": 5376,
        "endTick": 6138,
        "pitch": 54,
        "velocity": 118,
        "trackId": 3,
        "channel": 0
      },
      {
        "startTick": 5376,
        "endTick": 6146,
        "pitch": 42,
        "velocity": 121,
        "trackId": 3,
        "channel": 0
      },
      {
        "startTick": 5472,
        "endTick": 5578,
        "pitch": 58,
        "velocity": 116,
        "trackId": 3,
        "channel": 0
      },
      {
        "startTick": 5568,
        "endTick": 5660,
        "pitch": 70,
        "velocity": 121,
        "trackId": 3,
        "channel": 0
      },
      {
        "startTick": 5568,
        "endTick": 5664,
        "pitch": 66,
        "velocity": 121,
        "trackId": 3,
        "channel": 0
      },
      {
        "startTick": 5568,
        "endTick": 5672,
        "pitch": 61,
        "velocity": 122,
        "trackId": 3,
        "channel": 0
      },
      {
        "startTick": 5664,
        "endTick": 5772,
        "pitch": 58,
        "velocity": 117,
        "trackId": 3,
        "channel": 0
      },
      {
        "startTick": 5760,
        "endTick": 5862,
        "pitch": 70,
        "velocity": 123,
        "trackId": 3,
        "channel": 0
      },
      {
        "startTick": 5760,
        "endTick": 5874,
        "pitch": 66,
        "velocity": 122,
        "trackId": 3,
        "channel": 0
      },
      {
        "startTick": 5760,
        "endTick": 5876,
        "pitch": 61,
        "velocity": 121,
        "trackId": 3,
        "channel": 0
      },
      {
        "startTick": 5856,
        "endTick": 5966,
        "pitch": 58,
        "velocity": 116,
        "trackId": 3,
        "channel": 0
      },
      {
        "startTick": 5952,
        "endTick": 6052,
        "pitch": 70,
        "velocity": 121,
        "trackId": 3,
        "channel": 0
      },
      {
        "startTick": 5952,
        "endTick": 6058,
        "pitch": 61,
        "velocity": 120,
        "trackId": 3,
        "channel": 0
      },
      {
        "startTick": 5952,
        "endTick": 6058,
        "pitch": 66,
        "velocity": 119,
        "trackId": 3,
        "channel": 0
      },
      {
        "startTick": 6048,
        "endTick": 6152,
        "pitch": 58,
        "velocity": 115,
        "trackId": 3,
        "channel": 0
      },
      {
        "startTick": 6144,
        "endTick": 6236,
        "pitch": 70,
        "velocity": 123,
        "trackId": 3,
        "channel": 0
      },
      {
        "startTick": 6144,
        "endTick": 6248,
        "pitch": 66,
        "velocity": 122,
        "trackId": 3,
        "channel": 0
      },
      {
        "startTick": 6144,
        "endTick": 6262,
        "pitch": 63,
        "velocity": 123,
        "trackId": 3,
        "channel": 0
      },
      {
        "startTick": 6144,
        "endTick": 6328,
        "pitch": 82,
        "velocity": 47,
        "trackId": 5,
        "channel": 2
      },
      {
        "startTick": 6144,
        "endTick": 6426,
        "pitch": 70,
        "velocity": 107,
        "trackId": 5,
        "channel": 2
      },
      {
        "startTick": 6144,
        "endTick": 6910,
        "pitch": 58,
        "velocity": 113,
        "trackId": 6,
        "channel": 3
      },
      {
        "startTick": 6144,
        "endTick": 6910,
        "pitch": 63,
        "velocity": 113,
        "trackId": 6,
        "channel": 3
      },
      {
        "startTick": 6144,
        "endTick": 6924,
        "pitch": 51,
        "velocity": 123,
        "trackId": 3,
        "channel": 0
      },
      {
        "startTick": 6240,
        "endTick": 6346,
        "pitch": 58,
        "velocity": 109,
        "trackId": 3,
        "channel": 0
      },
      {
        "startTick": 6336,
        "endTick": 6428,
        "pitch": 70,
        "velocity": 122,
        "trackId": 3,
        "channel": 0
      },
      {
        "startTick": 6336,
        "endTick": 6438,
        "pitch": 66,
        "velocity": 119,
        "trackId": 3,
        "channel": 0
      },
      {
        "startTick": 6336,
        "endTick": 6444,
        "pitch": 63,
        "velocity": 122,
        "trackId": 3,
        "channel": 0
      },
      {
        "startTick": 6336,
        "endTick": 6916,
        "pitch": 82,
        "velocity": 104,
        "trackId": 5,
        "channel": 2
      },
      {
        "startTick": 6432,
        "endTick": 6540,
        "pitch": 58,
        "velocity": 115,
        "trackId": 3,
        "channel": 0
      },
      {
        "startTick": 6432,
        "endTick": 6612,
        "pitch": 70,
        "velocity": 117,
        "trackId": 5,
        "channel": 2
      },
      {
        "startTick": 6528,
        "endTick": 6600,
        "pitch": 70,
        "velocity": 120,
        "trackId": 3,
        "channel": 0
      },
      {
        "startTick": 6528,
        "endTick": 6624,
        "pitch": 66,
        "velocity": 120,
        "trackId": 3,
        "channel": 0
      },
      {
        "startTick": 6528,
        "endTick": 6636,
        "pitch": 63,
        "velocity": 122,
        "trackId": 3,
        "channel": 0
      },
      {
        "startTick": 6624,
        "endTick": 6730,
        "pitch": 58,
        "velocity": 108,
        "trackId": 3,
        "channel": 0
      },
      {
        "startTick": 6624,
        "endTick": 6912,
        "pitch": 70,
        "velocity": 115,
        "trackId": 5,
        "channel": 2
      },
      {
        "startTick": 6720,
        "endTick": 6788,
        "pitch": 66,
        "velocity": 117,
        "trackId": 3,
        "channel": 0
      },
      {
        "startTick": 6720,
        "endTick": 6824,
        "pitch": 63,
        "velocity": 121,
        "trackId": 3,
        "channel": 0
      },
      {
        "startTick": 6720,
        "endTick": 6904,
        "pitch": 70,
        "velocity": 122,
        "trackId": 3,
        "channel": 0
      },
      {
        "startTick": 6816,
        "endTick": 6862,
        "pitch": 58,
        "velocity": 115,
        "trackId": 3,
        "channel": 0
      },
      {
        "startTick": 6912,
        "endTick": 6972,
        "pitch": 60,
        "velocity": 119,
        "trackId": 3,
        "channel": 0
      },
      {
        "startTick": 6912,
        "endTick": 6988,
        "pitch": 68,
        "velocity": 111,
        "trackId": 5,
        "channel": 2
      },
      {
        "startTick": 6912,
        "endTick": 6990,
        "pitch": 80,
        "velocity": 76,
        "trackId": 5,
        "channel": 2
      },
      {
        "startTick": 6912,
        "endTick": 7008,
        "pitch": 68,
        "velocity": 123,
        "trackId": 3,
        "channel": 0
      },
      {
        "startTick": 6912,
        "endTick": 7014,
        "pitch": 63,
        "velocity": 122,
        "trackId": 3,
        "channel": 0
      },
      {
        "startTick": 6912,
        "endTick": 7022,
        "pitch": 56,
        "velocity": 122,
        "trackId": 3,
        "channel": 0
      },
      {
        "startTick": 6912,
        "endTick": 7102,
        "pitch": 56,
        "velocity": 113,
        "trackId": 6,
        "channel": 3
      },
      {
        "startTick": 6912,
        "endTick": 7102,
        "pitch": 60,
        "velocity": 113,
        "trackId": 6,
        "channel": 3
      },
      {
        "startTick": 6912,
        "endTick": 7102,
        "pitch": 68,
        "velocity": 113,
        "trackId": 6,
        "channel": 3
      },
      {
        "startTick": 6912,
        "endTick": 7346,
        "pitch": 44,
        "velocity": 109,
        "trackId": 3,
        "channel": 0
      },
      {
        "startTick": 7008,
        "endTick": 7102,
        "pitch": 51,
        "velocity": 120,
        "trackId": 3,
        "channel": 0
      },
      {
        "startTick": 7008,
        "endTick": 7114,
        "pitch": 68,
        "velocity": 116,
        "trackId": 5,
        "channel": 2
      },
      {
        "startTick": 7008,
        "endTick": 7116,
        "pitch": 80,
        "velocity": 110,
        "trackId": 5,
        "channel": 2
      },
      {
        "startTick": 7008,
        "endTick": 7118,
        "pitch": 60,
        "velocity": 119,
        "trackId": 3,
        "channel": 0
      },
      {
        "startTick": 7104,
        "endTick": 7192,
        "pitch": 63,
        "velocity": 122,
        "trackId": 3,
        "channel": 0
      },
      {
        "startTick": 7104,
        "endTick": 7198,
        "pitch": 58,
        "velocity": 113,
        "trackId": 6,
        "channel": 3
      },
      {
        "startTick": 7104,
        "endTick": 7198,
        "pitch": 70,
        "velocity": 113,
        "trackId": 6,
        "channel": 3
      },
      {
        "startTick": 7104,
        "endTick": 7200,
        "pitch": 70,
        "velocity": 117,
        "trackId": 5,
        "channel": 2
      },
      {
        "startTick": 7104,
        "endTick": 7206,
        "pitch": 56,
        "velocity": 123,
        "trackId": 3,
        "channel": 0
      },
      {
        "startTick": 7104,
        "endTick": 7210,
        "pitch": 70,
        "velocity": 123,
        "trackId": 3,
        "channel": 0
      },
      {
        "startTick": 7104,
        "endTick": 7216,
        "pitch": 82,
        "velocity": 112,
        "trackId": 5,
        "channel": 2
      },
      {
        "startTick": 7200,
        "endTick": 7246,
        "pitch": 56,
        "velocity": 113,
        "trackId": 6,
        "channel": 3
      },
      {
        "startTick": 7200,
        "endTick": 7246,
        "pitch": 68,
        "velocity": 113,
        "trackId": 6,
        "channel": 3
      },
      {
        "startTick": 7200,
        "endTick": 7256,
        "pitch": 80,
        "velocity": 112,
        "trackId": 5,
        "channel": 2
      },
      {
        "startTick": 7200,
        "endTick": 7258,
        "pitch": 68,
        "velocity": 111,
        "trackId": 5,
        "channel": 2
      },
      {
        "startTick": 7200,
        "endTick": 7262,
        "pitch": 68,
        "velocity": 119,
        "trackId": 3,
        "channel": 0
      },
      {
        "startTick": 7200,
        "endTick": 7460,
        "pitch": 51,
        "velocity": 119,
        "trackId": 3,
        "channel": 0
      },
      {
        "startTick": 7200,
        "endTick": 7462,
        "pitch": 60,
        "velocity": 114,
        "trackId": 3,
        "channel": 0
      },
      {
        "startTick": 7248,
        "endTick": 7294,
        "pitch": 66,
        "velocity": 113,
        "trackId": 5,
        "channel": 2
      },
      {
        "startTick": 7248,
        "endTick": 7294,
        "pitch": 78,
        "velocity": 108,
        "trackId": 5,
        "channel": 2
      },
      {
        "startTick": 7248,
        "endTick": 7294,
        "pitch": 66,
        "velocity": 113,
        "trackId": 6,
        "channel": 3
      },
      {
        "startTick": 7248,
        "endTick": 7314,
        "pitch": 66,
        "velocity": 113,
        "trackId": 3,
        "channel": 0
      },
      {
        "startTick": 7296,
        "endTick": 7336,
        "pitch": 63,
        "velocity": 113,
        "trackId": 6,
        "channel": 3
      },
      {
        "startTick": 7296,
        "endTick": 7372,
        "pitch": 75,
        "velocity": 118,
        "trackId": 5,
        "channel": 2
      },
      {
        "startTick": 7296,
        "endTick": 7378,
        "pitch": 63,
        "velocity": 116,
        "trackId": 5,
        "channel": 2
      },
      {
        "startTick": 7296,
        "endTick": 7450,
        "pitch": 63,
        "velocity": 115,
        "trackId": 3,
        "channel": 0
      },
      {
        "startTick": 7488,
        "endTick": 7580,
        "pitch": 65,
        "velocity": 121,
        "trackId": 3,
        "channel": 0
      },
      {
        "startTick": 7488,
        "endTick": 7582,
        "pitch": 65,
        "velocity": 113,
        "trackId": 6,
        "channel": 3
      },
      {
        "startTick": 7488,
        "endTick": 7610,
        "pitch": 65,
        "velocity": 83,
        "trackId": 5,
        "channel": 2
      },
      {
        "startTick": 7584,
        "endTick": 7678,
        "pitch": 66,
        "velocity": 117,
        "trackId": 3,
        "channel": 0
      },
      {
        "startTick": 7584,
        "endTick": 7678,
        "pitch": 66,
        "velocity": 113,
        "trackId": 6,
        "channel": 3
      },
      {
        "startTick": 7584,
        "endTick": 7692,
        "pitch": 66,
        "velocity": 112,
        "trackId": 5,
        "channel": 2
      },
      {
        "startTick": 7680,
        "endTick": 7682,
        "pitch": 66,
        "velocity": 122,
        "trackId": 3,
        "channel": 0
      },
      {
        "startTick": 7680,
        "endTick": 7742,
        "pitch": 71,
        "velocity": 123,
        "trackId": 3,
        "channel": 0
      },
      {
        "startTick": 7680,
        "endTick": 7744,
        "pitch": 59,
        "velocity": 113,
        "trackId": 6,
        "channel": 3
      },
      {
        "startTick": 7680,
        "endTick": 7746,
        "pitch": 63,
        "velocity": 121,
        "trackId": 3,
        "channel": 0
      },
      {
        "startTick": 7680,
        "endTick": 7748,
        "pitch": 47,
        "velocity": 117,
        "trackId": 3,
        "channel": 0
      },
      {
        "startTick": 7680,
        "endTick": 7750,
        "pitch": 59,
        "velocity": 123,
        "trackId": 3,
        "channel": 0
      },
      {
        "startTick": 7680,
        "endTick": 7750,
        "pitch": 63,
        "velocity": 113,
        "trackId": 6,
        "channel": 3
      },
      {
        "startTick": 7680,
        "endTick": 7750,
        "pitch": 71,
        "velocity": 113,
        "trackId": 6,
        "channel": 3
      },
      {
        "startTick": 7680,
        "endTick": 7756,
        "pitch": 71,
        "velocity": 115,
        "trackId": 5,
        "channel": 2
      },
      {
        "startTick": 7680,
        "endTick": 7832,
        "pitch": 54,
        "velocity": 122,
        "trackId": 3,
        "channel": 0
      },
      {
        "startTick": 7776,
        "endTick": 7828,
        "pitch": 59,
        "velocity": 122,
        "trackId": 3,
        "channel": 0
      },
      {
        "startTick": 7776,
        "endTick": 7830,
        "pitch": 47,
        "velocity": 113,
        "trackId": 3,
        "channel": 0
      },
      {
        "startTick": 7776,
        "endTick": 7842,
        "pitch": 66,
        "velocity": 122,
        "trackId": 3,
        "channel": 0
      },
      {
        "startTick": 7776,
        "endTick": 7846,
        "pitch": 63,
        "velocity": 113,
        "trackId": 6,
        "channel": 3
      },
      {
        "startTick": 7776,
        "endTick": 7854,
        "pitch": 63,
        "velocity": 123,
        "trackId": 3,
        "channel": 0
      },
      {
        "startTick": 7776,
        "endTick": 7862,
        "pitch": 71,
        "velocity": 122,
        "trackId": 3,
        "channel": 0
      },
      {
        "startTick": 7776,
        "endTick": 7862,
        "pitch": 71,
        "velocity": 113,
        "trackId": 6,
        "channel": 3
      },
      {
        "startTick": 7776,
        "endTick": 7870,
        "pitch": 59,
        "velocity": 113,
        "trackId": 6,
        "channel": 3
      },
      {
        "startTick": 7776,
        "endTick": 7878,
        "pitch": 71,
        "velocity": 114,
        "trackId": 5,
        "channel": 2
      },
      {
        "startTick": 7872,
        "endTick": 7926,
        "pitch": 70,
        "velocity": 123,
        "trackId": 3,
        "channel": 0
      },
      {
        "startTick": 7872,
        "endTick": 7930,
        "pitch": 62,
        "velocity": 123,
        "trackId": 3,
        "channel": 0
      },
      {
        "startTick": 7872,
        "endTick": 7938,
        "pitch": 70,
        "velocity": 113,
        "trackId": 6,
        "channel": 3
      },
      {
        "startTick": 7872,
        "endTick": 7942,
        "pitch": 53,
        "velocity": 123,
        "trackId": 3,
        "channel": 0
      },
      {
        "startTick": 7872,
        "endTick": 7942,
        "pitch": 58,
        "velocity": 123,
        "trackId": 3,
        "channel": 0
      },
      {
        "startTick": 7872,
        "endTick": 7944,
        "pitch": 65,
        "velocity": 123,
        "trackId": 3,
        "channel": 0
      },
      {
        "startTick": 7872,
        "endTick": 7944,
        "pitch": 70,
        "velocity": 116,
        "trackId": 5,
        "channel": 2
      },
      {
        "startTick": 7872,
        "endTick": 7952,
        "pitch": 65,
        "velocity": 113,
        "trackId": 6,
        "channel": 3
      },
      {
        "startTick": 7872,
        "endTick": 7960,
        "pitch": 58,
        "velocity": 113,
        "trackId": 6,
        "channel": 3
      },
      {
        "startTick": 7872,
        "endTick": 7962,
        "pitch": 46,
        "velocity": 117,
        "trackId": 3,
        "channel": 0
      },
      {
        "startTick": 8064,
        "endTick": 8128,
        "pitch": 69,
        "velocity": 113,
        "trackId": 6,
        "channel": 3
      },
      {
        "startTick": 8064,
        "endTick": 8130,
        "pitch": 61,
        "velocity": 113,
        "trackId": 3,
        "channel": 0
      },
      {
        "startTick": 8064,
        "endTick": 8130,
        "pitch": 69,
        "velocity": 117,
        "trackId": 3,
        "channel": 0
      },
      {
        "startTick": 8064,
        "endTick": 8130,
        "pitch": 57,
        "velocity": 113,
        "trackId": 6,
        "channel": 3
      },
      {
        "startTick": 8064,
        "endTick": 8132,
        "pitch": 57,
        "velocity": 123,
        "trackId": 3,
        "channel": 0
      },
      {
        "startTick": 8064,
        "endTick": 8136,
        "pitch": 45,
        "velocity": 120,
        "trackId": 3,
        "channel": 0
      },
      {
        "startTick": 8064,
        "endTick": 8138,
        "pitch": 64,
        "velocity": 113,
        "trackId": 6,
        "channel": 3
      },
      {
        "startTick": 8064,
        "endTick": 8140,
        "pitch": 64,
        "velocity": 123,
        "trackId": 3,
        "channel": 0
      },
      {
        "startTick": 8064,
        "endTick": 8140,
        "pitch": 69,
        "velocity": 111,
        "trackId": 5,
        "channel": 2
      },
      {
        "startTick": 8064,
        "endTick": 8148,
        "pitch": 52,
        "velocity": 123,
        "trackId": 3,
        "channel": 0
      },
      {
        "startTick": 8160,
        "endTick": 8196,
        "pitch": 45,
        "velocity": 117,
        "trackId": 3,
        "channel": 0
      },
      {
        "startTick": 8160,
        "endTick": 8202,
        "pitch": 64,
        "velocity": 123,
        "trackId": 3,
        "channel": 0
      },
      {
        "startTick": 8160,
        "endTick": 8210,
        "pitch": 57,
        "velocity": 122,
        "trackId": 3,
        "channel": 0
      },
      {
        "startTick": 8160,
        "endTick": 8222,
        "pitch": 52,
        "velocity": 117,
        "trackId": 3,
        "channel": 0
      },
      {
        "startTick": 8160,
        "endTick": 8226,
        "pitch": 69,
        "velocity": 120,
        "trackId": 3,
        "channel": 0
      },
      {
        "startTick": 8160,
        "endTick": 8234,
        "pitch": 61,
        "velocity": 123,
        "trackId": 3,
        "channel": 0
      },
      {
        "startTick": 8160,
        "endTick": 8250,
        "pitch": 57,
        "velocity": 113,
        "trackId": 6,
        "channel": 3
      },
      {
        "startTick": 8160,
        "endTick": 8250,
        "pitch": 69,
        "velocity": 113,
        "trackId": 6,
        "channel": 3
      },
      {
        "startTick": 8160,
        "endTick": 8254,
        "pitch": 64,
        "velocity": 113,
        "trackId": 6,
        "channel": 3
      },
      {
        "startTick": 8160,
        "endTick": 8256,
        "pitch": 69,
        "velocity": 118,
        "trackId": 5,
        "channel": 2
      },
      {
        "startTick": 8256,
        "endTick": 8314,
        "pitch": 62,
        "velocity": 123,
        "trackId": 3,
        "channel": 0
      },
      {
        "startTick": 8256,
        "endTick": 8332,
        "pitch": 46,
        "velocity": 118,
        "trackId": 3,
        "channel": 0
      },
      {
        "startTick": 8256,
        "endTick": 8334,
        "pitch": 65,
        "velocity": 123,
        "trackId": 3,
        "channel": 0
      },
      {
        "startTick": 8256,
        "endTick": 8336,
        "pitch": 53,
        "velocity": 123,
        "trackId": 3,
        "channel": 0
      },
      {
        "startTick": 8256,
        "endTick": 8336,
        "pitch": 65,
        "velocity": 113,
        "trackId": 6,
        "channel": 3
      },
      {
        "startTick": 8256,
        "endTick": 8340,
        "pitch": 70,
        "velocity": 123,
        "trackId": 3,
        "channel": 0
      },
      {
        "startTick": 8256,
        "endTick": 8342,
        "pitch": 58,
        "velocity": 113,
        "trackId": 6,
        "channel": 3
      },
      {
        "startTick": 8256,
        "endTick": 8344,
        "pitch": 70,
        "velocity": 117,
        "trackId": 5,
        "channel": 2
      },
      {
        "startTick": 8256,
        "endTick": 8348,
        "pitch": 58,
        "velocity": 123,
        "trackId": 3,
        "channel": 0
      },
      {
        "startTick": 8256,
        "endTick": 8354,
        "pitch": 70,
        "velocity": 113,
        "trackId": 6,
        "channel": 3
      },
      {
        "startTick": 8448,
        "endTick": 8506,
        "pitch": 63,
        "velocity": 122,
        "trackId": 3,
        "channel": 0
      },
      {
        "startTick": 8448,
        "endTick": 8508,
        "pitch": 59,
        "velocity": 113,
        "trackId": 6,
        "channel": 3
      },
      {
        "startTick": 8448,
        "endTick": 8514,
        "pitch": 59,
        "velocity": 123,
        "trackId": 3,
        "channel": 0
      },
      {
        "startTick": 8448,
        "endTick": 8514,
        "pitch": 71,
        "velocity": 123,
        "trackId": 3,
        "channel": 0
      },
      {
        "startTick": 8448,
        "endTick": 8518,
        "pitch": 47,
        "velocity": 119,
        "trackId": 3,
        "channel": 0
      },
      {
        "startTick": 8448,
        "endTick": 8520,
        "pitch": 71,
        "velocity": 113,
        "trackId": 6,
        "channel": 3
      },
      {
        "startTick": 8448,
        "endTick": 8524,
        "pitch": 66,
        "velocity": 113,
        "trackId": 6,
        "channel": 3
      },
      {
        "startTick": 8448,
        "endTick": 8526,
        "pitch": 71,
        "velocity": 110,
        "trackId": 5,
        "channel": 2
      },
      {
        "startTick": 8448,
        "endTick": 8528,
        "pitch": 66,
        "velocity": 119,
        "trackId": 3,
        "channel": 0
      },
      {
        "startTick": 8448,
        "endTick": 8600,
        "pitch": 54,
        "velocity": 121,
        "trackId": 3,
        "channel": 0
      },
      {
        "startTick": 8544,
        "endTick": 8594,
        "pitch": 47,
        "velocity": 117,
        "trackId": 3,
        "channel": 0
      },
      {
        "startTick": 8544,
        "endTick": 8594,
        "pitch": 59,
        "velocity": 123,
        "trackId": 3,
        "channel": 0
      },
      {
        "startTick": 8544,
        "endTick": 8600,
        "pitch": 66,
        "velocity": 119,
        "trackId": 3,
        "channel": 0
      },
      {
        "startTick": 8544,
        "endTick": 8608,
        "pitch": 63,
        "velocity": 121,
        "trackId": 3,
        "channel": 0
      },
      {
        "startTick": 8544,
        "endTick": 8620,
        "pitch": 71,
        "velocity": 123,
        "trackId": 3,
        "channel": 0
      },
      {
        "startTick": 8544,
        "endTick": 8634,
        "pitch": 66,
        "velocity": 113,
        "trackId": 6,
        "channel": 3
      },
      {
        "startTick": 8544,
        "endTick": 8638,
        "pitch": 59,
        "velocity": 113,
        "trackId": 6,
        "channel": 3
      },
      {
        "startTick": 8544,
        "endTick": 8638,
        "pitch": 71,
        "velocity": 113,
        "trackId": 6,
        "channel": 3
      },
      {
        "startTick": 8544,
        "endTick": 8640,
        "pitch": 71,
        "velocity": 118,
        "trackId": 5,
        "channel": 2
      },
      {
        "startTick": 8640,
        "endTick": 8698,
        "pitch": 62,
        "velocity": 123,
        "trackId": 3,
        "channel": 0
      },
      {
        "startTick": 8640,
        "endTick": 8712,
        "pitch": 70,
        "velocity": 121,
        "trackId": 3,
        "channel": 0
      },
      {
        "startTick": 8640,
        "endTick": 8728,
        "pitch": 53,
        "velocity": 121,
        "trackId": 3,
        "channel": 0
      },
      {
        "startTick": 8640,
        "endTick": 8732,
        "pitch": 70,
        "velocity": 113,
        "trackId": 6,
        "channel": 3
      },
      {
        "startTick": 8640,
        "endTick": 8734,
        "pitch": 58,
        "velocity": 123,
        "trackId": 3,
        "channel": 0
      },
      {
        "startTick": 8640,
        "endTick": 8738,
        "pitch": 65,
        "velocity": 123,
        "trackId": 3,
        "channel": 0
      },
      {
        "startTick": 8640,
        "endTick": 8738,
        "pitch": 65,
        "velocity": 113,
        "trackId": 6,
        "channel": 3
      },
      {
        "startTick": 8640,
        "endTick": 8740,
        "pitch": 58,
        "velocity": 113,
        "trackId": 6,
        "channel": 3
      },
      {
        "startTick": 8640,
        "endTick": 8750,
        "pitch": 46,
        "velocity": 18,
        "trackId": 3,
        "channel": 0
      },
      {
        "startTick": 8640,
        "endTick": 8750,
        "pitch": 70,
        "velocity": 117,
        "trackId": 5,
        "channel": 2
      },
      {
        "startTick": 8832,
        "endTick": 8882,
        "pitch": 61,
        "velocity": 122,
        "trackId": 3,
        "channel": 0
      },
      {
        "startTick": 8832,
        "endTick": 8890,
        "pitch": 57,
        "velocity": 120,
        "trackId": 3,
        "channel": 0
      },
      {
        "startTick": 8832,
        "endTick": 8896,
        "pitch": 69,
        "velocity": 117,
        "trackId": 3,
        "channel": 0
      },
      {
        "startTick": 8832,
        "endTick": 8898,
        "pitch": 64,
        "velocity": 123,
        "trackId": 3,
        "channel": 0
      },
      {
        "startTick": 8832,
        "endTick": 8904,
        "pitch": 57,
        "velocity": 113,
        "trackId": 6,
        "channel": 3
      },
      {
        "startTick": 8832,
        "endTick": 8906,
        "pitch": 69,
        "velocity": 115,
        "trackId": 5,
        "channel": 2
      },
      {
        "startTick": 8832,
        "endTick": 8926,
        "pitch": 64,
        "velocity": 113,
        "trackId": 6,
        "channel": 3
      },
      {
        "startTick": 8832,
        "endTick": 8926,
        "pitch": 69,
        "velocity": 113,
        "trackId": 6,
        "channel": 3
      },
      {
        "startTick": 8832,
        "endTick": 8954,
        "pitch": 45,
        "velocity": 117,
        "trackId": 3,
        "channel": 0
      },
      {
        "startTick": 8832,
        "endTick": 8980,
        "pitch": 52,
        "velocity": 121,
        "trackId": 3,
        "channel": 0
      },
      {
        "startTick": 8928,
        "endTick": 8966,
        "pitch": 64,
        "velocity": 119,
        "trackId": 3,
        "channel": 0
      },
      {
        "startTick": 8928,
        "endTick": 8982,
        "pitch": 57,
        "velocity": 116,
        "trackId": 3,
        "channel": 0
      },
      {
        "startTick": 8928,
        "endTick": 8984,
        "pitch": 69,
        "velocity": 115,
        "trackId": 5,
        "channel": 2
      },
      {
        "startTick": 8928,
        "endTick": 9008,
        "pitch": 61,
        "velocity": 120,
        "trackId": 3,
        "channel": 0
      },
      {
        "startTick": 8928,
        "endTick": 9008,
        "pitch": 69,
        "velocity": 116,
        "trackId": 3,
        "channel": 0
      },
      {
        "startTick": 8928,
        "endTick": 9022,
        "pitch": 57,
        "velocity": 113,
        "trackId": 6,
        "channel": 3
      },
      {
        "startTick": 9024,
        "endTick": 9102,
        "pitch": 70,
        "velocity": 113,
        "trackId": 6,
        "channel": 3
      },
      {
        "startTick": 9024,
        "endTick": 9122,
        "pitch": 65,
        "velocity": 113,
        "trackId": 6,
        "channel": 3
      },
      {
        "startTick": 9024,
        "endTick": 9132,
        "pitch": 58,
        "velocity": 113,
        "trackId": 6,
        "channel": 3
      },
      {
        "startTick": 9024,
        "endTick": 9152,
        "pitch": 62,
        "velocity": 121,
        "trackId": 3,
        "channel": 0
      },
      {
        "startTick": 9024,
        "endTick": 9162,
        "pitch": 58,
        "velocity": 122,
        "trackId": 3,
        "channel": 0
      },
      {
        "startTick": 9024,
        "endTick": 9196,
        "pitch": 46,
        "velocity": 112,
        "trackId": 3,
        "channel": 0
      },
      {
        "startTick": 9024,
        "endTick": 9210,
        "pitch": 53,
        "velocity": 122,
        "trackId": 3,
        "channel": 0
      },
      {
        "startTick": 9024,
        "endTick": 9210,
        "pitch": 65,
        "velocity": 122,
        "trackId": 3,
        "channel": 0
      },
      {
        "startTick": 9024,
        "endTick": 9226,
        "pitch": 70,
        "velocity": 122,
        "trackId": 3,
        "channel": 0
      },
      {
        "startTick": 9024,
        "endTick": 9264,
        "pitch": 70,
        "velocity": 113,
        "trackId": 5,
        "channel": 2
      },
      {
        "startTick": 9216,
        "endTick": 9280,
        "pitch": 63,
        "velocity": 122,
        "trackId": 3,
        "channel": 0
      },
      {
        "startTick": 9216,
        "endTick": 9338,
        "pitch": 67,
        "velocity": 123,
        "trackId": 3,
        "channel": 0
      },
      {
        "startTick": 9216,
        "endTick": 9350,
        "pitch": 58,
        "velocity": 123,
        "trackId": 3,
        "channel": 0
      },
      {
        "startTick": 9216,
        "endTick": 9422,
        "pitch": 51,
        "velocity": 123,
        "trackId": 3,
        "channel": 0
      },
      {
        "startTick": 9216,
        "endTick": 9592,
        "pitch": 63,
        "velocity": 113,
        "trackId": 6,
        "channel": 3
      },
      {
        "startTick": 9216,
        "endTick": 9594,
        "pitch": 67,
        "velocity": 113,
        "trackId": 6,
        "channel": 3
      },
      {
        "startTick": 9216,
        "endTick": 9598,
        "pitch": 70,
        "velocity": 113,
        "trackId": 6,
        "channel": 3
      },
      {
        "startTick": 9312,
        "endTick": 9382,
        "pitch": 67,
        "velocity": 76,
        "trackId": 5,
        "channel": 2
      },
      {
        "startTick": 9312,
        "endTick": 9418,
        "pitch": 63,
        "velocity": 118,
        "trackId": 3,
        "channel": 0
      },
      {
        "startTick": 9408,
        "endTick": 9488,
        "pitch": 67,
        "velocity": 117,
        "trackId": 5,
        "channel": 2
      },
      {
        "startTick": 9408,
        "endTick": 9496,
        "pitch": 70,
        "velocity": 122,
        "trackId": 3,
        "channel": 0
      },
      {
        "startTick": 9408,
        "endTick": 9510,
        "pitch": 58,
        "velocity": 123,
        "trackId": 3,
        "channel": 0
      },
      {
        "startTick": 9408,
        "endTick": 9598,
        "pitch": 67,
        "velocity": 122,
        "trackId": 3,
        "channel": 0
      },
      {
        "startTick": 9504,
        "endTick": 9588,
        "pitch": 63,
        "velocity": 118,
        "trackId": 3,
        "channel": 0
      },
      {
        "startTick": 9504,
        "endTick": 9604,
        "pitch": 51,
        "velocity": 122,
        "trackId": 3,
        "channel": 0
      },
      {
        "startTick": 9504,
        "endTick": 9624,
        "pitch": 67,
        "velocity": 118,
        "trackId": 5,
        "channel": 2
      },
      {
        "startTick": 9600,
        "endTick": 9662,
        "pitch": 62,
        "velocity": 122,
        "trackId": 3,
        "channel": 0
      },
      {
        "startTick": 9600,
        "endTick": 9714,
        "pitch": 65,
        "velocity": 123,
        "trackId": 3,
        "channel": 0
      },
      {
        "startTick": 9600,
        "endTick": 9748,
        "pitch": 58,
        "velocity": 121,
        "trackId": 3,
        "channel": 0
      },
      {
        "startTick": 9600,
        "endTick": 9790,
        "pitch": 65,
        "velocity": 115,
        "trackId": 5,
        "channel": 2
      },
      {
        "startTick": 9600,
        "endTick": 9794,
        "pitch": 50,
        "velocity": 121,
        "trackId": 3,
        "channel": 0
      },
      {
        "startTick": 9600,
        "endTick": 9838,
        "pitch": 62,
        "velocity": 113,
        "trackId": 6,
        "channel": 3
      },
      {
        "startTick": 9600,
        "endTick": 9838,
        "pitch": 65,
        "velocity": 113,
        "trackId": 6,
        "channel": 3
      },
      {
        "startTick": 9696,
        "endTick": 9804,
        "pitch": 62,
        "velocity": 121,
        "trackId": 3,
        "channel": 0
      },
      {
        "startTick": 9792,
        "endTick": 9896,
        "pitch": 58,
        "velocity": 122,
        "trackId": 3,
        "channel": 0
      },
      {
        "startTick": 9792,
        "endTick": 9898,
        "pitch": 65,
        "velocity": 123,
        "trackId": 3,
        "channel": 0
      },
      {
        "startTick": 9792,
        "endTick": 9972,
        "pitch": 70,
        "velocity": 120,
        "trackId": 3,
        "channel": 0
      },
      {
        "startTick": 9792,
        "endTick": 9992,
        "pitch": 70,
        "velocity": 112,
        "trackId": 5,
        "channel": 2
      },
      {
        "startTick": 9840,
        "endTick": 9982,
        "pitch": 70,
        "velocity": 113,
        "trackId": 6,
        "channel": 3
      },
      {
        "startTick": 9888,
        "endTick": 9930,
        "pitch": 62,
        "velocity": 121,
        "trackId": 3,
        "channel": 0
      },
      {
        "startTick": 9888,
        "endTick": 9994,
        "pitch": 50,
        "velocity": 120,
        "trackId": 3,
        "channel": 0
      },
      {
        "startTick": 9984,
        "endTick": 10042,
        "pitch": 61,
        "velocity": 123,
        "trackId": 3,
        "channel": 0
      },
      {
        "startTick": 9984,
        "endTick": 10066,
        "pitch": 64,
        "velocity": 115,
        "trackId": 5,
        "channel": 2
      },
      {
        "startTick": 9984,
        "endTick": 10078,
        "pitch": 61,
        "velocity": 113,
        "trackId": 6,
        "channel": 3
      },
      {
        "startTick": 9984,
        "endTick": 10078,
        "pitch": 64,
        "velocity": 113,
        "trackId": 6,
        "channel": 3
      },
      {
        "startTick": 9984,
        "endTick": 10102,
        "pitch": 64,
        "velocity": 123,
        "trackId": 3,
        "channel": 0
      },
      {
        "startTick": 9984,
        "endTick": 10104,
        "pitch": 67,
        "velocity": 123,
        "trackId": 3,
        "channel": 0
      },
      {
        "startTick": 9984,
        "endTick": 10164,
        "pitch": 58,
        "velocity": 123,
        "trackId": 3,
        "channel": 0
      },
      {
        "startTick": 9984,
        "endTick": 10386,
        "pitch": 49,
        "velocity": 122,
        "trackId": 3,
        "channel": 0
      },
      {
        "startTick": 10080,
        "endTick": 10158,
        "pitch": 64,
        "velocity": 117,
        "trackId": 5,
        "channel": 2
      },
      {
        "startTick": 10080,
        "endTick": 10174,
        "pitch": 67,
        "velocity": 113,
        "trackId": 6,
        "channel": 3
      },
      {
        "startTick": 10080,
        "endTick": 10248,
        "pitch": 61,
        "velocity": 120,
        "trackId": 3,
        "channel": 0
      },
      {
        "startTick": 10176,
        "endTick": 10258,
        "pitch": 64,
        "velocity": 117,
        "trackId": 5,
        "channel": 2
      },
      {
        "startTick": 10176,
        "endTick": 10266,
        "pitch": 64,
        "velocity": 123,
        "trackId": 3,
        "channel": 0
      },
      {
        "startTick": 10176,
        "endTick": 10342,
        "pitch": 67,
        "velocity": 122,
        "trackId": 3,
        "channel": 0
      },
      {
        "startTick": 10176,
        "endTick": 10366,
        "pitch": 70,
        "velocity": 113,
        "trackId": 6,
        "channel": 3
      },
      {
        "startTick": 10272,
        "endTick": 10344,
        "pitch": 58,
        "velocity": 122,
        "trackId": 3,
        "channel": 0
      },
      {
        "startTick": 10272,
        "endTick": 10348,
        "pitch": 61,
        "velocity": 118,
        "trackId": 3,
        "channel": 0
      },
      {
        "startTick": 10272,
        "endTick": 10356,
        "pitch": 70,
        "velocity": 122,
        "trackId": 3,
        "channel": 0
      },
      {
        "startTick": 10272,
        "endTick": 10366,
        "pitch": 65,
        "velocity": 110,
        "trackId": 5,
        "channel": 2
      },
      {
        "startTick": 10368,
        "endTick": 10426,
        "pitch": 60,
        "velocity": 123,
        "trackId": 3,
        "channel": 0
      },
      {
        "startTick": 10368,
        "endTick": 10490,
        "pitch": 65,
        "velocity": 123,
        "trackId": 3,
        "channel": 0
      },
      {
        "startTick": 10368,
        "endTick": 10496,
        "pitch": 69,
        "velocity": 123,
        "trackId": 3,
        "channel": 0
      },
      {
        "startTick": 10368,
        "endTick": 10558,
        "pitch": 60,
        "velocity": 113,
        "trackId": 6,
        "channel": 3
      },
      {
        "startTick": 10368,
        "endTick": 10558,
        "pitch": 65,
        "velocity": 113,
        "trackId": 6,
        "channel": 3
      },
      {
        "startTick": 10368,
        "endTick": 10558,
        "pitch": 69,
        "velocity": 113,
        "trackId": 6,
        "channel": 3
      },
      {
        "startTick": 10368,
        "endTick": 10572,
        "pitch": 65,
        "velocity": 117,
        "trackId": 5,
        "channel": 2
      },
      {
        "startTick": 10368,
        "endTick": 10632,
        "pitch": 57,
        "velocity": 123,
        "trackId": 3,
        "channel": 0
      },
      {
        "startTick": 10368,
        "endTick": 10662,
        "pitch": 48,
        "velocity": 117,
        "trackId": 3,
        "channel": 0
      },
      {
        "startTick": 10464,
        "endTick": 10586,
        "pitch": 60,
        "velocity": 112,
        "trackId": 3,
        "channel": 0
      },
      {
        "startTick": 10560,
        "endTick": 10652,
        "pitch": 60,
        "velocity": 113,
        "trackId": 5,
        "channel": 2
      },
      {
        "startTick": 10560,
        "endTick": 10676,
        "pitch": 65,
        "velocity": 123,
        "trackId": 3,
        "channel": 0
      },
      {
        "startTick": 10560,
        "endTick": 10750,
        "pitch": 63,
        "velocity": 113,
        "trackId": 6,
        "channel": 3
      },
      {
        "startTick": 10560,
        "endTick": 11040,
        "pitch": 69,
        "velocity": 122,
        "trackId": 3,
        "channel": 0
      },
      {
        "startTick": 10656,
        "endTick": 10964,
        "pitch": 60,
        "velocity": 117,
        "trackId": 3,
        "channel": 0
      },
      {
        "startTick": 10656,
        "endTick": 11184,
        "pitch": 63,
        "velocity": 110,
        "trackId": 5,
        "channel": 2
      },
      {
        "startTick": 10752,
        "endTick": 11100,
        "pitch": 63,
        "velocity": 123,
        "trackId": 3,
        "channel": 0
      },
      {
        "startTick": 10752,
        "endTick": 11118,
        "pitch": 72,
        "velocity": 122,
        "trackId": 3,
        "channel": 0
      },
      {
        "startTick": 10752,
        "endTick": 11128,
        "pitch": 67,
        "velocity": 123,
        "trackId": 3,
        "channel": 0
      },
      {
        "startTick": 10752,
        "endTick": 11160,
        "pitch": 65,
        "velocity": 103,
        "trackId": 5,
        "channel": 2
      },
      {
        "startTick": 10752,
        "endTick": 11160,
        "pitch": 72,
        "velocity": 113,
        "trackId": 6,
        "channel": 3
      },
      {
        "startTick": 10752,
        "endTick": 11166,
        "pitch": 69,
        "velocity": 104,
        "trackId": 5,
        "channel": 2
      },
      {
        "startTick": 10752,
        "endTick": 11316,
        "pitch": 41,
        "velocity": 120,
        "trackId": 3,
        "channel": 0
      },
      {
        "startTick": 10848,
        "endTick": 11330,
        "pitch": 48,
        "velocity": 119,
        "trackId": 3,
        "channel": 0
      },
      {
        "startTick": 10944,
        "endTick": 11254,
        "pitch": 57,
        "velocity": 123,
        "trackId": 3,
        "channel": 0
      },
      {
        "startTick": 11040,
        "endTick": 11272,
        "pitch": 60,
        "velocity": 119,
        "trackId": 3,
        "channel": 0
      },
      {
        "startTick": 11136,
        "endTick": 11144,
        "pitch": 69,
        "velocity": 117,
        "trackId": 3,
        "channel": 0
      },
      {
        "startTick": 11136,
        "endTick": 11288,
        "pitch": 72,
        "velocity": 121,
        "trackId": 3,
        "channel": 0
      },
      {
        "startTick": 11136,
        "endTick": 11318,
        "pitch": 63,
        "velocity": 18,
        "trackId": 3,
        "channel": 0
      },
      {
        "startTick": 11328,
        "endTick": 11504,
        "pitch": 57,
        "velocity": 122,
        "trackId": 3,
        "channel": 0
      },
      {
        "startTick": 11328,
        "endTick": 11518,
        "pitch": 57,
        "velocity": 113,
        "trackId": 6,
        "channel": 3
      },
      {
        "startTick": 11328,
        "endTick": 11526,
        "pitch": 57,
        "velocity": 98,
        "trackId": 5,
        "channel": 2
      },
      {
        "startTick": 11520,
        "endTick": 11650,
        "pitch": 58,
        "velocity": 119,
        "trackId": 3,
        "channel": 0
      },
      {
        "startTick": 11520,
        "endTick": 12234,
        "pitch": 34,
        "velocity": 121,
        "trackId": 3,
        "channel": 0
      },
      {
        "startTick": 11520,
        "endTick": 12944,
        "pitch": 58,
        "velocity": 89,
        "trackId": 5,
        "channel": 2
      },
      {
        "startTick": 11520,
        "endTick": 12948,
        "pitch": 58,
        "velocity": 113,
        "trackId": 6,
        "channel": 3
      },
      {
        "startTick": 11520,
        "endTick": 12988,
        "pitch": 46,
        "velocity": 123,
        "trackId": 3,
        "channel": 0
      },
      {
        "startTick": 11616,
        "endTick": 11934,
        "pitch": 53,
        "velocity": 115,
        "trackId": 3,
        "channel": 0
      },
      {
        "startTick": 11712,
        "endTick": 12198,
        "pitch": 58,
        "velocity": 117,
        "trackId": 3,
        "channel": 0
      },
      {
        "startTick": 11808,
        "endTick": 12130,
        "pitch": 62,
        "velocity": 115,
        "trackId": 3,
        "channel": 0
      },
      {
        "startTick": 11904,
        "endTick": 12306,
        "pitch": 79,
        "velocity": 116,
        "trackId": 3,
        "channel": 0
      },
      {
        "startTick": 11904,
        "endTick": 12584,
        "pitch": 67,
        "velocity": 116,
        "trackId": 3,
        "channel": 0
      },
      {
        "startTick": 12000,
        "endTick": 12108,
        "pitch": 53,
        "velocity": 101,
        "trackId": 3,
        "channel": 0
      },
      {
        "startTick": 12096,
        "endTick": 12270,
        "pitch": 65,
        "velocity": 117,
        "trackId": 3,
        "channel": 0
      },
      {
        "startTick": 12096,
        "endTick": 12278,
        "pitch": 77,
        "velocity": 118,
        "trackId": 3,
        "channel": 0
      },
      {
        "startTick": 12192,
        "endTick": 12300,
        "pitch": 53,
        "velocity": 107,
        "trackId": 3,
        "channel": 0
      },
      {
        "startTick": 12288,
        "endTick": 12400,
        "pitch": 62,
        "velocity": 123,
        "trackId": 3,
        "channel": 0
      },
      {
        "startTick": 12288,
        "endTick": 12402,
        "pitch": 58,
        "velocity": 118,
        "trackId": 3,
        "channel": 0
      },
      {
        "startTick": 12288,
        "endTick": 12986,
        "pitch": 34,
        "velocity": 123,
        "trackId": 3,
        "channel": 0
      },
      {
        "startTick": 12384,
        "endTick": 12694,
        "pitch": 53,
        "velocity": 104,
        "trackId": 3,
        "channel": 0
      },
      {
        "startTick": 12480,
        "endTick": 12956,
        "pitch": 58,
        "velocity": 113,
        "trackId": 3,
        "channel": 0
      },
      {
        "startTick": 12576,
        "endTick": 12798,
        "pitch": 62,
        "velocity": 116,
        "trackId": 3,
        "channel": 0
      },
      {
        "startTick": 12672,
        "endTick": 13074,
        "pitch": 67,
        "velocity": 116,
        "trackId": 3,
        "channel": 0
      },
      {
        "startTick": 12672,
        "endTick": 13074,
        "pitch": 79,
        "velocity": 116,
        "trackId": 3,
        "channel": 0
      },
      {
        "startTick": 12768,
        "endTick": 12888,
        "pitch": 53,
        "velocity": 108,
        "trackId": 3,
        "channel": 0
      },
      {
        "startTick": 12864,
        "endTick": 13046,
        "pitch": 65,
        "velocity": 118,
        "trackId": 3,
        "channel": 0
      },
      {
        "startTick": 12864,
        "endTick": 13046,
        "pitch": 77,
        "velocity": 118,
        "trackId": 3,
        "channel": 0
      },
      {
        "startTick": 12960,
        "endTick": 13062,
        "pitch": 53,
        "velocity": 115,
        "trackId": 3,
        "channel": 0
      },
      {
        "startTick": 13056,
        "endTick": 13078,
        "pitch": 72,
        "velocity": 121,
        "trackId": 1,
        "channel": 5
      },
      {
        "startTick": 13056,
        "endTick": 13138,
        "pitch": 58,
        "velocity": 122,
        "trackId": 3,
        "channel": 0
      },
      {
        "startTick": 13056,
        "endTick": 13250,
        "pitch": 62,
        "velocity": 122,
        "trackId": 3,
        "channel": 0
      },
      {
        "startTick": 13056,
        "endTick": 13716,
        "pitch": 74,
        "velocity": 119,
        "trackId": 1,
        "channel": 5
      },
      {
        "startTick": 13056,
        "endTick": 13820,
        "pitch": 46,
        "velocity": 123,
        "trackId": 3,
        "channel": 0
      },
      {
        "startTick": 13056,
        "endTick": 13826,
        "pitch": 34,
        "velocity": 123,
        "trackId": 3,
        "channel": 0
      },
      {
        "startTick": 13152,
        "endTick": 13450,
        "pitch": 53,
        "velocity": 113,
        "trackId": 3,
        "channel": 0
      },
      {
        "startTick": 13248,
        "endTick": 13734,
        "pitch": 58,
        "velocity": 115,
        "trackId": 3,
        "channel": 0
      },
      {
        "startTick": 13344,
        "endTick": 13640,
        "pitch": 62,
        "velocity": 115,
        "trackId": 3,
        "channel": 0
      },
      {
        "startTick": 13440,
        "endTick": 13840,
        "pitch": 67,
        "velocity": 117,
        "trackId": 3,
        "channel": 0
      },
      {
        "startTick": 13440,
        "endTick": 13842,
        "pitch": 79,
        "velocity": 116,
        "trackId": 3,
        "channel": 0
      },
      {
        "startTick": 13536,
        "endTick": 13686,
        "pitch": 53,
        "velocity": 115,
        "trackId": 3,
        "channel": 0
      },
      {
        "startTick": 13632,
        "endTick": 13814,
        "pitch": 77,
        "velocity": 118,
        "trackId": 3,
        "channel": 0
      },
      {
        "startTick": 13632,
        "endTick": 13832,
        "pitch": 65,
        "velocity": 120,
        "trackId": 3,
        "channel": 0
      },
      {
        "startTick": 13728,
        "endTick": 13824,
        "pitch": 70,
        "velocity": 121,
        "trackId": 1,
        "channel": 5
      },
      {
        "startTick": 13728,
        "endTick": 13828,
        "pitch": 53,
        "velocity": 114,
        "trackId": 3,
        "channel": 0
      },
      {
        "startTick": 13824,
        "endTick": 13914,
        "pitch": 72,
        "velocity": 122,
        "trackId": 1,
        "channel": 5
      },
      {
        "startTick": 13824,
        "endTick": 13934,
        "pitch": 58,
        "velocity": 120,
        "trackId": 3,
        "channel": 0
      },
      {
        "startTick": 13824,
        "endTick": 14036,
        "pitch": 62,
        "velocity": 123,
        "trackId": 3,
        "channel": 0
      },
      {
        "startTick": 13824,
        "endTick": 14596,
        "pitch": 43,
        "velocity": 122,
        "trackId": 3,
        "channel": 0
      },
      {
        "startTick": 13920,
        "endTick": 14250,
        "pitch": 55,
        "velocity": 116,
        "trackId": 3,
        "channel": 0
      },
      {
        "startTick": 13920,
        "endTick": 14454,
        "pitch": 74,
        "velocity": 117,
        "trackId": 1,
        "channel": 5
      },
      {
        "startTick": 13968,
        "endTick": 14004,
        "pitch": 73,
        "velocity": 118,
        "trackId": 1,
        "channel": 5
      },
      {
        "startTick": 14016,
        "endTick": 14518,
        "pitch": 58,
        "velocity": 117,
        "trackId": 3,
        "channel": 0
      },
      {
        "startTick": 14112,
        "endTick": 14404,
        "pitch": 62,
        "velocity": 118,
        "trackId": 3,
        "channel": 0
      },
      {
        "startTick": 14208,
        "endTick": 14312,
        "pitch": 69,
        "velocity": 117,
        "trackId": 3,
        "channel": 0
      },
      {
        "startTick": 14208,
        "endTick": 14610,
        "pitch": 81,
        "velocity": 116,
        "trackId": 3,
        "channel": 0
      },
      {
        "startTick": 14304,
        "endTick": 14584,
        "pitch": 55,
        "velocity": 117,
        "trackId": 3,
        "channel": 0
      },
      {
        "startTick": 14400,
        "endTick": 14582,
        "pitch": 79,
        "velocity": 118,
        "trackId": 3,
        "channel": 0
      },
      {
        "startTick": 14400,
        "endTick": 14612,
        "pitch": 67,
        "velocity": 121,
        "trackId": 3,
        "channel": 0
      },
      {
        "startTick": 14496,
        "endTick": 14528,
        "pitch": 62,
        "velocity": 117,
        "trackId": 3,
        "channel": 0
      },
      {
        "startTick": 14496,
        "endTick": 14590,
        "pitch": 74,
        "velocity": 123,
        "trackId": 1,
        "channel": 5
      },
      {
        "startTick": 14592,
        "endTick": 14680,
        "pitch": 60,
        "velocity": 123,
        "trackId": 3,
        "channel": 0
      },
      {
        "startTick": 14592,
        "endTick": 14688,
        "pitch": 75,
        "velocity": 123,
        "trackId": 1,
        "channel": 5
      },
      {
        "startTick": 14592,
        "endTick": 14728,
        "pitch": 63,
        "velocity": 123,
        "trackId": 3,
        "channel": 0
      },
      {
        "startTick": 14592,
        "endTick": 15304,
        "pitch": 48,
        "velocity": 123,
        "trackId": 3,
        "channel": 0
      },
      {
        "startTick": 14592,
        "endTick": 15314,
        "pitch": 36,
        "velocity": 123,
        "trackId": 3,
        "channel": 0
      },
      {
        "startTick": 14688,
        "endTick": 14738,
        "pitch": 77,
        "velocity": 122,
        "trackId": 1,
        "channel": 5
      },
      {
        "startTick": 14688,
        "endTick": 15004,
        "pitch": 60,
        "velocity": 119,
        "trackId": 3,
        "channel": 0
      },
      {
        "startTick": 14736,
        "endTick": 14832,
        "pitch": 75,
        "velocity": 121,
        "trackId": 1,
        "channel": 5
      },
      {
        "startTick": 14784,
        "endTick": 15230,
        "pitch": 63,
        "velocity": 117,
        "trackId": 3,
        "channel": 0
      },
      {
        "startTick": 14832,
        "endTick": 14916,
        "pitch": 74,
        "velocity": 120,
        "trackId": 1,
        "channel": 5
      },
      {
        "startTick": 14880,
        "endTick": 15184,
        "pitch": 67,
        "velocity": 109,
        "trackId": 3,
        "channel": 0
      },
      {
        "startTick": 14928,
        "endTick": 15238,
        "pitch": 72,
        "velocity": 120,
        "trackId": 1,
        "channel": 5
      },
      {
        "startTick": 14976,
        "endTick": 15086,
        "pitch": 74,
        "velocity": 116,
        "trackId": 3,
        "channel": 0
      },
      {
        "startTick": 14976,
        "endTick": 15378,
        "pitch": 86,
        "velocity": 116,
        "trackId": 3,
        "channel": 0
      },
      {
        "startTick": 15072,
        "endTick": 15372,
        "pitch": 60,
        "velocity": 119,
        "trackId": 3,
        "channel": 0
      },
      {
        "startTick": 15168,
        "endTick": 15350,
        "pitch": 84,
        "velocity": 118,
        "trackId": 3,
        "channel": 0
      },
      {
        "startTick": 15168,
        "endTick": 15728,
        "pitch": 72,
        "velocity": 121,
        "trackId": 3,
        "channel": 0
      },
      {
        "startTick": 15264,
        "endTick": 15328,
        "pitch": 72,
        "velocity": 120,
        "trackId": 1,
        "channel": 5
      },
      {
        "startTick": 15264,
        "endTick": 15446,
        "pitch": 63,
        "velocity": 121,
        "trackId": 3,
        "channel": 0
      },
      {
        "startTick": 15312,
        "endTick": 15382,
        "pitch": 74,
        "velocity": 122,
        "trackId": 1,
        "channel": 5
      },
      {
        "startTick": 15360,
        "endTick": 15452,
        "pitch": 75,
        "velocity": 121,
        "trackId": 1,
        "channel": 5
      },
      {
        "startTick": 15360,
        "endTick": 15472,
        "pitch": 36,
        "velocity": 123,
        "trackId": 3,
        "channel": 0
      },
      {
        "startTick": 15360,
        "endTick": 15542,
        "pitch": 67,
        "velocity": 123,
        "trackId": 3,
        "channel": 0
      },
      {
        "startTick": 15360,
        "endTick": 15736,
        "pitch": 48,
        "velocity": 123,
        "trackId": 3,
        "channel": 0
      },
      {
        "startTick": 15456,
        "endTick": 15524,
        "pitch": 77,
        "velocity": 121,
        "trackId": 1,
        "channel": 5
      },
      {
        "startTick": 15456,
        "endTick": 15642,
        "pitch": 60,
        "velocity": 114,
        "trackId": 3,
        "channel": 0
      },
      {
        "startTick": 15504,
        "endTick": 15562,
        "pitch": 36,
        "velocity": 99,
        "trackId": 3,
        "channel": 0
      },
      {
        "startTick": 15504,
        "endTick": 15584,
        "pitch": 75,
        "velocity": 120,
        "trackId": 1,
        "channel": 5
      },
      {
        "startTick": 15552,
        "endTick": 15648,
        "pitch": 63,
        "velocity": 118,
        "trackId": 3,
        "channel": 0
      },
      {
        "startTick": 15600,
        "endTick": 15676,
        "pitch": 74,
        "velocity": 120,
        "trackId": 1,
        "channel": 5
      },
      {
        "startTick": 15648,
        "endTick": 15738,
        "pitch": 67,
        "velocity": 117,
        "trackId": 3,
        "channel": 0
      },
      {
        "startTick": 15648,
        "endTick": 16106,
        "pitch": 72,
        "velocity": 118,
        "trackId": 1,
        "channel": 5
      },
      {
        "startTick": 15744,
        "endTick": 16020,
        "pitch": 69,
        "velocity": 123,
        "trackId": 3,
        "channel": 0
      },
      {
        "startTick": 15744,
        "endTick": 16128,
        "pitch": 53,
        "velocity": 121,
        "trackId": 3,
        "channel": 0
      },
      {
        "startTick": 15744,
        "endTick": 16136,
        "pitch": 41,
        "velocity": 113,
        "trackId": 3,
        "channel": 0
      },
      {
        "startTick": 15840,
        "endTick": 16020,
        "pitch": 63,
        "velocity": 117,
        "trackId": 3,
        "channel": 0
      },
      {
        "startTick": 15936,
        "endTick": 16042,
        "pitch": 65,
        "velocity": 119,
        "trackId": 3,
        "channel": 0
      },
      {
        "startTick": 16032,
        "endTick": 16060,
        "pitch": 72,
        "velocity": 119,
        "trackId": 3,
        "channel": 0
      },
      {
        "startTick": 16128,
        "endTick": 16138,
        "pitch": 73,
        "velocity": 122,
        "trackId": 1,
        "channel": 5
      },
      {
        "startTick": 16128,
        "endTick": 16204,
        "pitch": 74,
        "velocity": 123,
        "trackId": 1,
        "channel": 5
      },
      {
        "startTick": 16128,
        "endTick": 16242,
        "pitch": 58,
        "velocity": 119,
        "trackId": 3,
        "channel": 0
      },
      {
        "startTick": 16128,
        "endTick": 16340,
        "pitch": 62,
        "velocity": 122,
        "trackId": 3,
        "channel": 0
      },
      {
        "startTick": 16128,
        "endTick": 16898,
        "pitch": 46,
        "velocity": 121,
        "trackId": 3,
        "channel": 0
      },
      {
        "startTick": 16224,
        "endTick": 16428,
        "pitch": 74,
        "velocity": 122,
        "trackId": 1,
        "channel": 5
      },
      {
        "startTick": 16224,
        "endTick": 16526,
        "pitch": 53,
        "velocity": 113,
        "trackId": 3,
        "channel": 0
      },
      {
        "startTick": 16320,
        "endTick": 16804,
        "pitch": 58,
        "velocity": 118,
        "trackId": 3,
        "channel": 0
      },
      {
        "startTick": 16416,
        "endTick": 16462,
        "pitch": 72,
        "velocity": 120,
        "trackId": 1,
        "channel": 5
      },
      {
        "startTick": 16416,
        "endTick": 16700,
        "pitch": 62,
        "velocity": 120,
        "trackId": 3,
        "channel": 0
      },
      {
        "startTick": 16464,
        "endTick": 16506,
        "pitch": 70,
        "velocity": 120,
        "trackId": 1,
        "channel": 5
      },
      {
        "startTick": 16512,
        "endTick": 16576,
        "pitch": 72,
        "velocity": 118,
        "trackId": 1,
        "channel": 5
      },
      {
        "startTick": 16512,
        "endTick": 16914,
        "pitch": 67,
        "velocity": 120,
        "trackId": 3,
        "channel": 0
      },
      {
        "startTick": 16512,
        "endTick": 16914,
        "pitch": 79,
        "velocity": 116,
        "trackId": 3,
        "channel": 0
      },
      {
        "startTick": 16560,
        "endTick": 16618,
        "pitch": 74,
        "velocity": 118,
        "trackId": 1,
        "channel": 5
      },
      {
        "startTick": 16608,
        "endTick": 16716,
        "pitch": 53,
        "velocity": 116,
        "trackId": 3,
        "channel": 0
      },
      {
        "startTick": 16704,
        "endTick": 16886,
        "pitch": 77,
        "velocity": 118,
        "trackId": 3,
        "channel": 0
      },
      {
        "startTick": 16704,
        "endTick": 16892,
        "pitch": 65,
        "velocity": 119,
        "trackId": 3,
        "channel": 0
      },
      {
        "startTick": 16800,
        "endTick": 16876,
        "pitch": 77,
        "velocity": 123,
        "trackId": 1,
        "channel": 5
      },
      {
        "startTick": 16800,
        "endTick": 16886,
        "pitch": 53,
        "velocity": 112,
        "trackId": 3,
        "channel": 0
      },
      {
        "startTick": 16896,
        "endTick": 16910,
        "pitch": 80,
        "velocity": 122,
        "trackId": 1,
        "channel": 5
      },
      {
        "startTick": 16896,
        "endTick": 17008,
        "pitch": 58,
        "velocity": 122,
        "trackId": 3,
        "channel": 0
      },
      {
        "startTick": 16896,
        "endTick": 17030,
        "pitch": 81,
        "velocity": 122,
        "trackId": 1,
        "channel": 5
      },
      {
        "startTick": 16896,
        "endTick": 17122,
        "pitch": 62,
        "velocity": 123,
        "trackId": 3,
        "channel": 0
      },
      {
        "startTick": 16896,
        "endTick": 17668,
        "pitch": 43,
        "velocity": 120,
        "trackId": 3,
        "channel": 0
      },
      {
        "startTick": 16992,
        "endTick": 17290,
        "pitch": 55,
        "velocity": 117,
        "trackId": 3,
        "channel": 0
      },
      {
        "startTick": 17040,
        "endTick": 17576,
        "pitch": 79,
        "velocity": 120,
        "trackId": 1,
        "channel": 5
      },
      {
        "startTick": 17088,
        "endTick": 17552,
        "pitch": 58,
        "velocity": 121,
        "trackId": 3,
        "channel": 0
      },
      {
        "startTick": 17184,
        "endTick": 17506,
        "pitch": 62,
        "velocity": 120,
        "trackId": 3,
        "channel": 0
      },
      {
        "startTick": 17280,
        "endTick": 17382,
        "pitch": 69,
        "velocity": 117,
        "trackId": 3,
        "channel": 0
      },
      {
        "startTick": 17280,
        "endTick": 17682,
        "pitch": 81,
        "velocity": 116,
        "trackId": 3,
        "channel": 0
      },
      {
        "startTick": 17376,
        "endTick": 17480,
        "pitch": 55,
        "velocity": 121,
        "trackId": 3,
        "channel": 0
      },
      {
        "startTick": 17472,
        "endTick": 17654,
        "pitch": 79,
        "velocity": 118,
        "trackId": 3,
        "channel": 0
      },
      {
        "startTick": 17472,
        "endTick": 18066,
        "pitch": 67,
        "velocity": 120,
        "trackId": 3,
        "channel": 0
      },
      {
        "startTick": 17568,
        "endTick": 17608,
        "pitch": 78,
        "velocity": 122,
        "trackId": 1,
        "channel": 5
      },
      {
        "startTick": 17568,
        "endTick": 17654,
        "pitch": 55,
        "velocity": 117,
        "trackId": 3,
        "channel": 0
      },
      {
        "startTick": 17616,
        "endTick": 17664,
        "pitch": 79,
        "velocity": 122,
        "trackId": 1,
        "channel": 5
      },
      {
        "startTick": 17664,
        "endTick": 17744,
        "pitch": 82,
        "velocity": 123,
        "trackId": 1,
        "channel": 5
      },
      {
        "startTick": 17664,
        "endTick": 17776,
        "pitch": 60,
        "velocity": 123,
        "trackId": 3,
        "channel": 0
      },
      {
        "startTick": 17664,
        "endTick": 17782,
        "pitch": 63,
        "velocity": 122,
        "trackId": 3,
        "channel": 0
      },
      {
        "startTick": 17664,
        "endTick": 18010,
        "pitch": 48,
        "velocity": 123,
        "trackId": 3,
        "channel": 0
      },
      {
        "startTick": 17760,
        "endTick": 17804,
        "pitch": 82,
        "velocity": 122,
        "trackId": 1,
        "channel": 5
      },
      {
        "startTick": 17760,
        "endTick": 17946,
        "pitch": 55,
        "velocity": 117,
        "trackId": 3,
        "channel": 0
      },
      {
        "startTick": 17808,
        "endTick": 17996,
        "pitch": 82,
        "velocity": 122,
        "trackId": 1,
        "channel": 5
      },
      {
        "startTick": 17856,
        "endTick": 17978,
        "pitch": 60,
        "velocity": 118,
        "trackId": 3,
        "channel": 0
      },
      {
        "startTick": 17952,
        "endTick": 18012,
        "pitch": 47,
        "velocity": 122,
        "trackId": 3,
        "channel": 0
      },
      {
        "startTick": 17952,
        "endTick": 18014,
        "pitch": 63,
        "velocity": 121,
        "trackId": 3,
        "channel": 0
      },
      {
        "startTick": 17952,
        "endTick": 18040,
        "pitch": 55,
        "velocity": 119,
        "trackId": 3,
        "channel": 0
      },
      {
        "startTick": 18000,
        "endTick": 18018,
        "pitch": 81,
        "velocity": 120,
        "trackId": 1,
        "channel": 5
      },
      {
        "startTick": 18000,
        "endTick": 18142,
        "pitch": 82,
        "velocity": 119,
        "trackId": 1,
        "channel": 5
      },
      {
        "startTick": 18048,
        "endTick": 18140,
        "pitch": 58,
        "velocity": 123,
        "trackId": 3,
        "channel": 0
      },
      {
        "startTick": 18048,
        "endTick": 18162,
        "pitch": 63,
        "velocity": 122,
        "trackId": 3,
        "channel": 0
      },
      {
        "startTick": 18048,
        "endTick": 18232,
        "pitch": 46,
        "velocity": 123,
        "trackId": 3,
        "channel": 0
      },
      {
        "startTick": 18096,
        "endTick": 18250,
        "pitch": 67,
        "velocity": 18,
        "trackId": 3,
        "channel": 0
      },
      {
        "startTick": 18144,
        "endTick": 18230,
        "pitch": 79,
        "velocity": 123,
        "trackId": 1,
        "channel": 5
      },
      {
        "startTick": 18144,
        "endTick": 18254,
        "pitch": 55,
        "velocity": 117,
        "trackId": 3,
        "channel": 0
      },
      {
        "startTick": 18240,
        "endTick": 18264,
        "pitch": 75,
        "velocity": 123,
        "trackId": 1,
        "channel": 5
      },
      {
        "startTick": 18240,
        "endTick": 18332,
        "pitch": 57,
        "velocity": 123,
        "trackId": 3,
        "channel": 0
      },
      {
        "startTick": 18240,
        "endTick": 18368,
        "pitch": 74,
        "velocity": 123,
        "trackId": 1,
        "channel": 5
      },
      {
        "startTick": 18240,
        "endTick": 18374,
        "pitch": 63,
        "velocity": 123,
        "trackId": 3,
        "channel": 0
      },
      {
        "startTick": 18240,
        "endTick": 18434,
        "pitch": 45,
        "velocity": 123,
        "trackId": 3,
        "channel": 0
      },
      {
        "startTick": 18336,
        "endTick": 18432,
        "pitch": 55,
        "velocity": 118,
        "trackId": 3,
        "channel": 0
      },
      {
        "startTick": 18336,
        "endTick": 18824,
        "pitch": 72,
        "velocity": 123,
        "trackId": 1,
        "channel": 5
      },
      {
        "startTick": 18432,
        "endTick": 18528,
        "pitch": 58,
        "velocity": 123,
        "trackId": 3,
        "channel": 0
      },
      {
        "startTick": 18432,
        "endTick": 18576,
        "pitch": 63,
        "velocity": 123,
        "trackId": 3,
        "channel": 0
      },
      {
        "startTick": 18432,
        "endTick": 18806,
        "pitch": 44,
        "velocity": 123,
        "trackId": 3,
        "channel": 0
      },
      {
        "startTick": 18528,
        "endTick": 18614,
        "pitch": 56,
        "velocity": 120,
        "trackId": 3,
        "channel": 0
      },
      {
        "startTick": 18622,
        "endTick": 18634,
        "pitch": 35,
        "velocity": 111,
        "trackId": 12,
        "channel": 9
      },
      {
        "startTick": 18622,
        "endTick": 18642,
        "pitch": 45,
        "velocity": 111,
        "trackId": 12,
        "channel": 9
      },
      {
        "startTick": 18624,
        "endTick": 18746,
        "pitch": 63,
        "velocity": 120,
        "trackId": 3,
        "channel": 0
      },
      {
        "startTick": 18624,
        "endTick": 18816,
        "pitch": 60,
        "velocity": 121,
        "trackId": 3,
        "channel": 0
      },
      {
        "startTick": 18670,
        "endTick": 18682,
        "pitch": 35,
        "velocity": 113,
        "trackId": 12,
        "channel": 9
      },
      {
        "startTick": 18670,
        "endTick": 18688,
        "pitch": 45,
        "velocity": 113,
        "trackId": 12,
        "channel": 9
      },
      {
        "startTick": 18718,
        "endTick": 18730,
        "pitch": 35,
        "velocity": 114,
        "trackId": 12,
        "channel": 9
      },
      {
        "startTick": 18718,
        "endTick": 18738,
        "pitch": 45,
        "velocity": 114,
        "trackId": 12,
        "channel": 9
      },
      {
        "startTick": 18720,
        "endTick": 18810,
        "pitch": 56,
        "velocity": 116,
        "trackId": 3,
        "channel": 0
      },
      {
        "startTick": 18766,
        "endTick": 18786,
        "pitch": 45,
        "velocity": 115,
        "trackId": 12,
        "channel": 9
      },
      {
        "startTick": 18766,
        "endTick": 18788,
        "pitch": 35,
        "velocity": 115,
        "trackId": 12,
        "channel": 9
      },
      {
        "startTick": 18814,
        "endTick": 18834,
        "pitch": 45,
        "velocity": 116,
        "trackId": 12,
        "channel": 9
      },
      {
        "startTick": 18814,
        "endTick": 18836,
        "pitch": 35,
        "velocity": 116,
        "trackId": 12,
        "channel": 9
      },
      {
        "startTick": 18816,
        "endTick": 18914,
        "pitch": 58,
        "velocity": 123,
        "trackId": 3,
        "channel": 0
      },
      {
        "startTick": 18816,
        "endTick": 18980,
        "pitch": 63,
        "velocity": 123,
        "trackId": 3,
        "channel": 0
      },
      {
        "startTick": 18816,
        "endTick": 19016,
        "pitch": 43,
        "velocity": 122,
        "trackId": 3,
        "channel": 0
      },
      {
        "startTick": 18862,
        "endTick": 18880,
        "pitch": 35,
        "velocity": 117,
        "trackId": 12,
        "channel": 9
      },
      {
        "startTick": 18862,
        "endTick": 18880,
        "pitch": 45,
        "velocity": 117,
        "trackId": 12,
        "channel": 9
      },
      {
        "startTick": 18910,
        "endTick": 18930,
        "pitch": 35,
        "velocity": 118,
        "trackId": 12,
        "channel": 9
      },
      {
        "startTick": 18910,
        "endTick": 18930,
        "pitch": 45,
        "velocity": 118,
        "trackId": 12,
        "channel": 9
      },
      {
        "startTick": 18912,
        "endTick": 18980,
        "pitch": 55,
        "velocity": 113,
        "trackId": 3,
        "channel": 0
      },
      {
        "startTick": 18958,
        "endTick": 18978,
        "pitch": 35,
        "velocity": 119,
        "trackId": 12,
        "channel": 9
      },
      {
        "startTick": 18958,
        "endTick": 18978,
        "pitch": 45,
        "velocity": 119,
        "trackId": 12,
        "channel": 9
      },
      {
        "startTick": 19006,
        "endTick": 19026,
        "pitch": 35,
        "velocity": 121,
        "trackId": 12,
        "channel": 9
      },
      {
        "startTick": 19006,
        "endTick": 19026,
        "pitch": 43,
        "velocity": 121,
        "trackId": 12,
        "channel": 9
      },
      {
        "startTick": 19008,
        "endTick": 19112,
        "pitch": 56,
        "velocity": 123,
        "trackId": 3,
        "channel": 0
      },
      {
        "startTick": 19008,
        "endTick": 19144,
        "pitch": 63,
        "velocity": 123,
        "trackId": 3,
        "channel": 0
      },
      {
        "startTick": 19008,
        "endTick": 19198,
        "pitch": 41,
        "velocity": 122,
        "trackId": 3,
        "channel": 0
      },
      {
        "startTick": 19054,
        "endTick": 19074,
        "pitch": 35,
        "velocity": 122,
        "trackId": 12,
        "channel": 9
      },
      {
        "startTick": 19054,
        "endTick": 19074,
        "pitch": 43,
        "velocity": 122,
        "trackId": 12,
        "channel": 9
      },
      {
        "startTick": 19102,
        "endTick": 19120,
        "pitch": 43,
        "velocity": 123,
        "trackId": 12,
        "channel": 9
      },
      {
        "startTick": 19102,
        "endTick": 19122,
        "pitch": 35,
        "velocity": 123,
        "trackId": 12,
        "channel": 9
      },
      {
        "startTick": 19104,
        "endTick": 19194,
        "pitch": 53,
        "velocity": 117,
        "trackId": 3,
        "channel": 0
      },
      {
        "startTick": 19150,
        "endTick": 19174,
        "pitch": 35,
        "velocity": 123,
        "trackId": 12,
        "channel": 9
      },
      {
        "startTick": 19150,
        "endTick": 19174,
        "pitch": 43,
        "velocity": 123,
        "trackId": 12,
        "channel": 9
      },
      {
        "startTick": 19198,
        "endTick": 19456,
        "pitch": 35,
        "velocity": 124,
        "trackId": 12,
        "channel": 9
      },
      {
        "startTick": 19198,
        "endTick": 20350,
        "pitch": 49,
        "velocity": 124,
        "trackId": 12,
        "channel": 9
      },
      {
        "startTick": 19200,
        "endTick": 19216,
        "pitch": 78,
        "velocity": 123,
        "trackId": 1,
        "channel": 5
      },
      {
        "startTick": 19200,
        "endTick": 19312,
        "pitch": 67,
        "velocity": 123,
        "trackId": 3,
        "channel": 0
      },
      {
        "startTick": 19200,
        "endTick": 19316,
        "pitch": 58,
        "velocity": 123,
        "trackId": 3,
        "channel": 0
      },
      {
        "startTick": 19200,
        "endTick": 19324,
        "pitch": 63,
        "velocity": 123,
        "trackId": 3,
        "channel": 0
      },
      {
        "startTick": 19200,
        "endTick": 19764,
        "pitch": 51,
        "velocity": 122,
        "trackId": 3,
        "channel": 0
      },
      {
        "startTick": 19200,
        "endTick": 19772,
        "pitch": 79,
        "velocity": 123,
        "trackId": 1,
        "channel": 5
      },
      {
        "startTick": 19200,
        "endTick": 19786,
        "pitch": 39,
        "velocity": 123,
        "trackId": 3,
        "channel": 0
      },
      {
        "startTick": 19200,
        "endTick": 19796,
        "pitch": 75,
        "velocity": 80,
        "trackId": 5,
        "channel": 2
      },
      {
        "startTick": 19200,
        "endTick": 19974,
        "pitch": 82,
        "velocity": 92,
        "trackId": 5,
        "channel": 2
      },
      {
        "startTick": 19212,
        "endTick": 19458,
        "pitch": 39,
        "velocity": 125,
        "trackId": 4,
        "channel": 1
      },
      {
        "startTick": 19294,
        "endTick": 19340,
        "pitch": 51,
        "velocity": 120,
        "trackId": 12,
        "channel": 9
      },
      {
        "startTick": 19296,
        "endTick": 19410,
        "pitch": 55,
        "velocity": 93,
        "trackId": 3,
        "channel": 0
      },
      {
        "startTick": 19390,
        "endTick": 19436,
        "pitch": 51,
        "velocity": 122,
        "trackId": 12,
        "channel": 9
      },
      {
        "startTick": 19390,
        "endTick": 19456,
        "pitch": 42,
        "velocity": 122,
        "trackId": 12,
        "channel": 9
      },
      {
        "startTick": 19390,
        "endTick": 19704,
        "pitch": 40,
        "velocity": 124,
        "trackId": 12,
        "channel": 9
      },
      {
        "startTick": 19392,
        "endTick": 19492,
        "pitch": 67,
        "velocity": 123,
        "trackId": 3,
        "channel": 0
      },
      {
        "startTick": 19392,
        "endTick": 19510,
        "pitch": 58,
        "velocity": 123,
        "trackId": 3,
        "channel": 0
      },
      {
        "startTick": 19392,
        "endTick": 19518,
        "pitch": 63,
        "velocity": 122,
        "trackId": 3,
        "channel": 0
      },
      {
        "startTick": 19486,
        "endTick": 19512,
        "pitch": 51,
        "velocity": 120,
        "trackId": 12,
        "channel": 9
      },
      {
        "startTick": 19486,
        "endTick": 19516,
        "pitch": 35,
        "velocity": 117,
        "trackId": 12,
        "channel": 9
      },
      {
        "startTick": 19488,
        "endTick": 19600,
        "pitch": 55,
        "velocity": 117,
        "trackId": 3,
        "channel": 0
      },
      {
        "startTick": 19500,
        "endTick": 19530,
        "pitch": 39,
        "velocity": 125,
        "trackId": 4,
        "channel": 1
      },
      {
        "startTick": 19582,
        "endTick": 19628,
        "pitch": 51,
        "velocity": 122,
        "trackId": 12,
        "channel": 9
      },
      {
        "startTick": 19582,
        "endTick": 19890,
        "pitch": 35,
        "velocity": 123,
        "trackId": 12,
        "channel": 9
      },
      {
        "startTick": 19584,
        "endTick": 19678,
        "pitch": 67,
        "velocity": 123,
        "trackId": 3,
        "channel": 0
      },
      {
        "startTick": 19584,
        "endTick": 19696,
        "pitch": 58,
        "velocity": 122,
        "trackId": 3,
        "channel": 0
      },
      {
        "startTick": 19584,
        "endTick": 19734,
        "pitch": 63,
        "velocity": 121,
        "trackId": 3,
        "channel": 0
      },
      {
        "startTick": 19596,
        "endTick": 19788,
        "pitch": 39,
        "velocity": 125,
        "trackId": 4,
        "channel": 1
      },
      {
        "startTick": 19678,
        "endTick": 19698,
        "pitch": 51,
        "velocity": 117,
        "trackId": 12,
        "channel": 9
      },
      {
        "startTick": 19680,
        "endTick": 19758,
        "pitch": 55,
        "velocity": 118,
        "trackId": 3,
        "channel": 0
      },
      {
        "startTick": 19774,
        "endTick": 19820,
        "pitch": 51,
        "velocity": 123,
        "trackId": 12,
        "channel": 9
      },
      {
        "startTick": 19774,
        "endTick": 19826,
        "pitch": 42,
        "velocity": 123,
        "trackId": 12,
        "channel": 9
      },
      {
        "startTick": 19774,
        "endTick": 20066,
        "pitch": 40,
        "velocity": 124,
        "trackId": 12,
        "channel": 9
      },
      {
        "startTick": 19776,
        "endTick": 19862,
        "pitch": 62,
        "velocity": 123,
        "trackId": 3,
        "channel": 0
      },
      {
        "startTick": 19776,
        "endTick": 19872,
        "pitch": 58,
        "velocity": 123,
        "trackId": 3,
        "channel": 0
      },
      {
        "startTick": 19776,
        "endTick": 19882,
        "pitch": 77,
        "velocity": 123,
        "trackId": 1,
        "channel": 5
      },
      {
        "startTick": 19776,
        "endTick": 19940,
        "pitch": 50,
        "velocity": 123,
        "trackId": 3,
        "channel": 0
      },
      {
        "startTick": 19776,
        "endTick": 19964,
        "pitch": 38,
        "velocity": 122,
        "trackId": 3,
        "channel": 0
      },
      {
        "startTick": 19776,
        "endTick": 19968,
        "pitch": 74,
        "velocity": 101,
        "trackId": 5,
        "channel": 2
      },
      {
        "startTick": 19776,
        "endTick": 19978,
        "pitch": 65,
        "velocity": 123,
        "trackId": 3,
        "channel": 0
      },
      {
        "startTick": 19788,
        "endTick": 19986,
        "pitch": 34,
        "velocity": 125,
        "trackId": 4,
        "channel": 1
      },
      {
        "startTick": 19870,
        "endTick": 19904,
        "pitch": 51,
        "velocity": 118,
        "trackId": 12,
        "channel": 9
      },
      {
        "startTick": 19872,
        "endTick": 19928,
        "pitch": 79,
        "velocity": 122,
        "trackId": 1,
        "channel": 5
      },
      {
        "startTick": 19872,
        "endTick": 19954,
        "pitch": 53,
        "velocity": 117,
        "trackId": 3,
        "channel": 0
      },
      {
        "startTick": 19920,
        "endTick": 19972,
        "pitch": 80,
        "velocity": 121,
        "trackId": 1,
        "channel": 5
      },
      {
        "startTick": 19966,
        "endTick": 19994,
        "pitch": 51,
        "velocity": 122,
        "trackId": 12,
        "channel": 9
      },
      {
        "startTick": 19966,
        "endTick": 20186,
        "pitch": 35,
        "velocity": 124,
        "trackId": 12,
        "channel": 9
      },
      {
        "startTick": 19968,
        "endTick": 20032,
        "pitch": 60,
        "velocity": 123,
        "trackId": 3,
        "channel": 0
      },
      {
        "startTick": 19968,
        "endTick": 20080,
        "pitch": 63,
        "velocity": 123,
        "trackId": 3,
        "channel": 0
      },
      {
        "startTick": 19968,
        "endTick": 20538,
        "pitch": 79,
        "velocity": 122,
        "trackId": 1,
        "channel": 5
      },
      {
        "startTick": 19968,
        "endTick": 20604,
        "pitch": 36,
        "velocity": 123,
        "trackId": 3,
        "channel": 0
      },
      {
        "startTick": 19968,
        "endTick": 20626,
        "pitch": 48,
        "velocity": 123,
        "trackId": 3,
        "channel": 0
      },
      {
        "startTick": 19968,
        "endTick": 20732,
        "pitch": 79,
        "velocity": 69,
        "trackId": 5,
        "channel": 2
      },
      {
        "startTick": 19968,
        "endTick": 20736,
        "pitch": 75,
        "velocity": 80,
        "trackId": 5,
        "channel": 2
      },
      {
        "startTick": 19968,
        "endTick": 21424,
        "pitch": 72,
        "velocity": 91,
        "trackId": 5,
        "channel": 2
      },
      {
        "startTick": 19968,
        "endTick": 21520,
        "pitch": 84,
        "velocity": 91,
        "trackId": 5,
        "channel": 2
      },
      {
        "startTick": 19980,
        "endTick": 20196,
        "pitch": 36,
        "velocity": 125,
        "trackId": 4,
        "channel": 1
      },
      {
        "startTick": 20062,
        "endTick": 20082,
        "pitch": 51,
        "velocity": 119,
        "trackId": 12,
        "channel": 9
      },
      {
        "startTick": 20064,
        "endTick": 20176,
        "pitch": 60,
        "velocity": 116,
        "trackId": 3,
        "channel": 0
      },
      {
        "startTick": 20158,
        "endTick": 20204,
        "pitch": 51,
        "velocity": 123,
        "trackId": 12,
        "channel": 9
      },
      {
        "startTick": 20158,
        "endTick": 20214,
        "pitch": 42,
        "velocity": 123,
        "trackId": 12,
        "channel": 9
      },
      {
        "startTick": 20158,
        "endTick": 20454,
        "pitch": 40,
        "velocity": 124,
        "trackId": 12,
        "channel": 9
      },
      {
        "startTick": 20160,
        "endTick": 20322,
        "pitch": 63,
        "velocity": 121,
        "trackId": 3,
        "channel": 0
      },
      {
        "startTick": 20254,
        "endTick": 20272,
        "pitch": 35,
        "velocity": 121,
        "trackId": 12,
        "channel": 9
      },
      {
        "startTick": 20254,
        "endTick": 20288,
        "pitch": 51,
        "velocity": 120,
        "trackId": 12,
        "channel": 9
      },
      {
        "startTick": 20256,
        "endTick": 20358,
        "pitch": 67,
        "velocity": 117,
        "trackId": 3,
        "channel": 0
      },
      {
        "startTick": 20268,
        "endTick": 20300,
        "pitch": 36,
        "velocity": 125,
        "trackId": 4,
        "channel": 1
      },
      {
        "startTick": 20350,
        "endTick": 20382,
        "pitch": 51,
        "velocity": 122,
        "trackId": 12,
        "channel": 9
      },
      {
        "startTick": 20350,
        "endTick": 20576,
        "pitch": 35,
        "velocity": 124,
        "trackId": 12,
        "channel": 9
      },
      {
        "startTick": 20352,
        "endTick": 20452,
        "pitch": 62,
        "velocity": 119,
        "trackId": 3,
        "channel": 0
      },
      {
        "startTick": 20352,
        "endTick": 20482,
        "pitch": 74,
        "velocity": 118,
        "trackId": 3,
        "channel": 0
      },
      {
        "startTick": 20352,
        "endTick": 20524,
        "pitch": 77,
        "velocity": 100,
        "trackId": 5,
        "channel": 2
      },
      {
        "startTick": 20364,
        "endTick": 20564,
        "pitch": 36,
        "velocity": 125,
        "trackId": 4,
        "channel": 1
      },
      {
        "startTick": 20446,
        "endTick": 20472,
        "pitch": 51,
        "velocity": 120,
        "trackId": 12,
        "channel": 9
      },
      {
        "startTick": 20448,
        "endTick": 20712,
        "pitch": 63,
        "velocity": 119,
        "trackId": 3,
        "channel": 0
      },
      {
        "startTick": 20542,
        "endTick": 20572,
        "pitch": 51,
        "velocity": 123,
        "trackId": 12,
        "channel": 9
      },
      {
        "startTick": 20542,
        "endTick": 20604,
        "pitch": 42,
        "velocity": 124,
        "trackId": 12,
        "channel": 9
      },
      {
        "startTick": 20542,
        "endTick": 20836,
        "pitch": 40,
        "velocity": 124,
        "trackId": 12,
        "channel": 9
      },
      {
        "startTick": 20544,
        "endTick": 20732,
        "pitch": 82,
        "velocity": 95,
        "trackId": 5,
        "channel": 2
      },
      {
        "startTick": 20544,
        "endTick": 20776,
        "pitch": 60,
        "velocity": 116,
        "trackId": 3,
        "channel": 0
      },
      {
        "startTick": 20544,
        "endTick": 20844,
        "pitch": 72,
        "velocity": 122,
        "trackId": 3,
        "channel": 0
      },
      {
        "startTick": 20556,
        "endTick": 20658,
        "pitch": 31,
        "velocity": 125,
        "trackId": 4,
        "channel": 1
      },
      {
        "startTick": 20638,
        "endTick": 20656,
        "pitch": 35,
        "velocity": 116,
        "trackId": 12,
        "channel": 9
      },
      {
        "startTick": 20638,
        "endTick": 20672,
        "pitch": 51,
        "velocity": 113,
        "trackId": 12,
        "channel": 9
      },
      {
        "startTick": 20640,
        "endTick": 20720,
        "pitch": 67,
        "velocity": 114,
        "trackId": 3,
        "channel": 0
      },
      {
        "startTick": 20640,
        "endTick": 20724,
        "pitch": 79,
        "velocity": 123,
        "trackId": 1,
        "channel": 5
      },
      {
        "startTick": 20652,
        "endTick": 20760,
        "pitch": 30,
        "velocity": 125,
        "trackId": 4,
        "channel": 1
      },
      {
        "startTick": 20734,
        "endTick": 20830,
        "pitch": 49,
        "velocity": 122,
        "trackId": 12,
        "channel": 9
      },
      {
        "startTick": 20734,
        "endTick": 20956,
        "pitch": 35,
        "velocity": 124,
        "trackId": 12,
        "channel": 9
      },
      {
        "startTick": 20736,
        "endTick": 20766,
        "pitch": 79,
        "velocity": 123,
        "trackId": 1,
        "channel": 5
      },
      {
        "startTick": 20736,
        "endTick": 20836,
        "pitch": 68,
        "velocity": 123,
        "trackId": 3,
        "channel": 0
      },
      {
        "startTick": 20736,
        "endTick": 20870,
        "pitch": 80,
        "velocity": 119,
        "trackId": 1,
        "channel": 5
      },
      {
        "startTick": 20736,
        "endTick": 20880,
        "pitch": 65,
        "velocity": 122,
        "trackId": 3,
        "channel": 0
      },
      {
        "startTick": 20736,
        "endTick": 20956,
        "pitch": 77,
        "velocity": 98,
        "trackId": 5,
        "channel": 2
      },
      {
        "startTick": 20736,
        "endTick": 20980,
        "pitch": 53,
        "velocity": 123,
        "trackId": 3,
        "channel": 0
      },
      {
        "startTick": 20736,
        "endTick": 21036,
        "pitch": 41,
        "velocity": 120,
        "trackId": 3,
        "channel": 0
      },
      {
        "startTick": 20736,
        "endTick": 21526,
        "pitch": 80,
        "velocity": 96,
        "trackId": 5,
        "channel": 2
      },
      {
        "startTick": 20748,
        "endTick": 21032,
        "pitch": 29,
        "velocity": 125,
        "trackId": 4,
        "channel": 1
      },
      {
        "startTick": 20830,
        "endTick": 20856,
        "pitch": 51,
        "velocity": 118,
        "trackId": 12,
        "channel": 9
      },
      {
        "startTick": 20832,
        "endTick": 20938,
        "pitch": 60,
        "velocity": 120,
        "trackId": 3,
        "channel": 0
      },
      {
        "startTick": 20880,
        "endTick": 20946,
        "pitch": 79,
        "velocity": 123,
        "trackId": 1,
        "channel": 5
      },
      {
        "startTick": 20926,
        "endTick": 20962,
        "pitch": 51,
        "velocity": 123,
        "trackId": 12,
        "channel": 9
      },
      {
        "startTick": 20926,
        "endTick": 20984,
        "pitch": 42,
        "velocity": 123,
        "trackId": 12,
        "channel": 9
      },
      {
        "startTick": 20926,
        "endTick": 21188,
        "pitch": 40,
        "velocity": 124,
        "trackId": 12,
        "channel": 9
      },
      {
        "startTick": 20928,
        "endTick": 21004,
        "pitch": 65,
        "velocity": 123,
        "trackId": 3,
        "channel": 0
      },
      {
        "startTick": 20928,
        "endTick": 21090,
        "pitch": 68,
        "velocity": 121,
        "trackId": 3,
        "channel": 0
      },
      {
        "startTick": 20928,
        "endTick": 21102,
        "pitch": 76,
        "velocity": 96,
        "trackId": 5,
        "channel": 2
      },
      {
        "startTick": 20928,
        "endTick": 21262,
        "pitch": 72,
        "velocity": 120,
        "trackId": 3,
        "channel": 0
      },
      {
        "startTick": 20976,
        "endTick": 21032,
        "pitch": 79,
        "velocity": 123,
        "trackId": 1,
        "channel": 5
      },
      {
        "startTick": 21022,
        "endTick": 21044,
        "pitch": 35,
        "velocity": 118,
        "trackId": 12,
        "channel": 9
      },
      {
        "startTick": 21022,
        "endTick": 21118,
        "pitch": 49,
        "velocity": 120,
        "trackId": 12,
        "channel": 9
      },
      {
        "startTick": 21024,
        "endTick": 21078,
        "pitch": 52,
        "velocity": 115,
        "trackId": 3,
        "channel": 0
      },
      {
        "startTick": 21024,
        "endTick": 21080,
        "pitch": 77,
        "velocity": 122,
        "trackId": 1,
        "channel": 5
      },
      {
        "startTick": 21024,
        "endTick": 21088,
        "pitch": 64,
        "velocity": 122,
        "trackId": 3,
        "channel": 0
      },
      {
        "startTick": 21024,
        "endTick": 21126,
        "pitch": 40,
        "velocity": 121,
        "trackId": 3,
        "channel": 0
      },
      {
        "startTick": 21024,
        "endTick": 21186,
        "pitch": 60,
        "velocity": 112,
        "trackId": 3,
        "channel": 0
      },
      {
        "startTick": 21036,
        "endTick": 21144,
        "pitch": 40,
        "velocity": 125,
        "trackId": 4,
        "channel": 1
      },
      {
        "startTick": 21118,
        "endTick": 21214,
        "pitch": 49,
        "velocity": 123,
        "trackId": 12,
        "channel": 9
      },
      {
        "startTick": 21118,
        "endTick": 21312,
        "pitch": 35,
        "velocity": 123,
        "trackId": 12,
        "channel": 9
      },
      {
        "startTick": 21120,
        "endTick": 21230,
        "pitch": 63,
        "velocity": 123,
        "trackId": 3,
        "channel": 0
      },
      {
        "startTick": 21120,
        "endTick": 21252,
        "pitch": 68,
        "velocity": 123,
        "trackId": 3,
        "channel": 0
      },
      {
        "startTick": 21120,
        "endTick": 21288,
        "pitch": 51,
        "velocity": 123,
        "trackId": 3,
        "channel": 0
      },
      {
        "startTick": 21120,
        "endTick": 21328,
        "pitch": 75,
        "velocity": 92,
        "trackId": 5,
        "channel": 2
      },
      {
        "startTick": 21120,
        "endTick": 21334,
        "pitch": 39,
        "velocity": 122,
        "trackId": 3,
        "channel": 0
      },
      {
        "startTick": 21120,
        "endTick": 21474,
        "pitch": 77,
        "velocity": 123,
        "trackId": 1,
        "channel": 5
      },
      {
        "startTick": 21132,
        "endTick": 21334,
        "pitch": 39,
        "velocity": 125,
        "trackId": 4,
        "channel": 1
      },
      {
        "startTick": 21214,
        "endTick": 21236,
        "pitch": 51,
        "velocity": 119,
        "trackId": 12,
        "channel": 9
      },
      {
        "startTick": 21216,
        "endTick": 21322,
        "pitch": 60,
        "velocity": 95,
        "trackId": 3,
        "channel": 0
      },
      {
        "startTick": 21310,
        "endTick": 21350,
        "pitch": 51,
        "velocity": 123,
        "trackId": 12,
        "channel": 9
      },
      {
        "startTick": 21310,
        "endTick": 21368,
        "pitch": 42,
        "velocity": 123,
        "trackId": 12,
        "channel": 9
      },
      {
        "startTick": 21310,
        "endTick": 21612,
        "pitch": 40,
        "velocity": 124,
        "trackId": 12,
        "channel": 9
      },
      {
        "startTick": 21312,
        "endTick": 21392,
        "pitch": 50,
        "velocity": 123,
        "trackId": 3,
        "channel": 0
      },
      {
        "startTick": 21312,
        "endTick": 21406,
        "pitch": 68,
        "velocity": 123,
        "trackId": 3,
        "channel": 0
      },
      {
        "startTick": 21312,
        "endTick": 21410,
        "pitch": 72,
        "velocity": 123,
        "trackId": 3,
        "channel": 0
      },
      {
        "startTick": 21312,
        "endTick": 21434,
        "pitch": 62,
        "velocity": 123,
        "trackId": 3,
        "channel": 0
      },
      {
        "startTick": 21312,
        "endTick": 21494,
        "pitch": 38,
        "velocity": 122,
        "trackId": 3,
        "channel": 0
      },
      {
        "startTick": 21312,
        "endTick": 21502,
        "pitch": 74,
        "velocity": 99,
        "trackId": 5,
        "channel": 2
      },
      {
        "startTick": 21324,
        "endTick": 21446,
        "pitch": 38,
        "velocity": 125,
        "trackId": 4,
        "channel": 1
      },
      {
        "startTick": 21406,
        "endTick": 21426,
        "pitch": 35,
        "velocity": 117,
        "trackId": 12,
        "channel": 9
      },
      {
        "startTick": 21406,
        "endTick": 21432,
        "pitch": 51,
        "velocity": 120,
        "trackId": 12,
        "channel": 9
      },
      {
        "startTick": 21408,
        "endTick": 21486,
        "pitch": 60,
        "velocity": 110,
        "trackId": 3,
        "channel": 0
      },
      {
        "startTick": 21456,
        "endTick": 21500,
        "pitch": 70,
        "velocity": 123,
        "trackId": 1,
        "channel": 5
      },
      {
        "startTick": 21468,
        "endTick": 21540,
        "pitch": 36,
        "velocity": 119,
        "trackId": 4,
        "channel": 1
      },
      {
        "startTick": 21502,
        "endTick": 21534,
        "pitch": 51,
        "velocity": 123,
        "trackId": 12,
        "channel": 9
      },
      {
        "startTick": 21502,
        "endTick": 21722,
        "pitch": 35,
        "velocity": 123,
        "trackId": 12,
        "channel": 9
      },
      {
        "startTick": 21504,
        "endTick": 21520,
        "pitch": 74,
        "velocity": 86,
        "trackId": 5,
        "channel": 2
      },
      {
        "startTick": 21504,
        "endTick": 21564,
        "pitch": 66,
        "velocity": 18,
        "trackId": 3,
        "channel": 0
      },
      {
        "startTick": 21504,
        "endTick": 21586,
        "pitch": 70,
        "velocity": 123,
        "trackId": 1,
        "channel": 5
      },
      {
        "startTick": 21504,
        "endTick": 21620,
        "pitch": 62,
        "velocity": 123,
        "trackId": 3,
        "channel": 0
      },
      {
        "startTick": 21504,
        "endTick": 21808,
        "pitch": 70,
        "velocity": 122,
        "trackId": 3,
        "channel": 0
      },
      {
        "startTick": 21504,
        "endTick": 22182,
        "pitch": 34,
        "velocity": 121,
        "trackId": 3,
        "channel": 0
      },
      {
        "startTick": 21504,
        "endTick": 22194,
        "pitch": 46,
        "velocity": 123,
        "trackId": 3,
        "channel": 0
      },
      {
        "startTick": 21504,
        "endTick": 22290,
        "pitch": 77,
        "velocity": 74,
        "trackId": 5,
        "channel": 2
      },
      {
        "startTick": 21504,
        "endTick": 23030,
        "pitch": 70,
        "velocity": 92,
        "trackId": 5,
        "channel": 2
      },
      {
        "startTick": 21504,
        "endTick": 23048,
        "pitch": 82,
        "velocity": 88,
        "trackId": 5,
        "channel": 2
      },
      {
        "startTick": 21516,
        "endTick": 21762,
        "pitch": 34,
        "velocity": 125,
        "trackId": 4,
        "channel": 1
      },
      {
        "startTick": 21598,
        "endTick": 21620,
        "pitch": 51,
        "velocity": 119,
        "trackId": 12,
        "channel": 9
      },
      {
        "startTick": 21600,
        "endTick": 21658,
        "pitch": 77,
        "velocity": 122,
        "trackId": 1,
        "channel": 5
      },
      {
        "startTick": 21600,
        "endTick": 21710,
        "pitch": 58,
        "velocity": 107,
        "trackId": 3,
        "channel": 0
      },
      {
        "startTick": 21694,
        "endTick": 21728,
        "pitch": 51,
        "velocity": 124,
        "trackId": 12,
        "channel": 9
      },
      {
        "startTick": 21694,
        "endTick": 21738,
        "pitch": 42,
        "velocity": 121,
        "trackId": 12,
        "channel": 9
      },
      {
        "startTick": 21694,
        "endTick": 21904,
        "pitch": 40,
        "velocity": 124,
        "trackId": 12,
        "channel": 9
      },
      {
        "startTick": 21696,
        "endTick": 21786,
        "pitch": 77,
        "velocity": 123,
        "trackId": 1,
        "channel": 5
      },
      {
        "startTick": 21696,
        "endTick": 21804,
        "pitch": 65,
        "velocity": 123,
        "trackId": 3,
        "channel": 0
      },
      {
        "startTick": 21696,
        "endTick": 21810,
        "pitch": 62,
        "velocity": 123,
        "trackId": 3,
        "channel": 0
      },
      {
        "startTick": 21790,
        "endTick": 21808,
        "pitch": 35,
        "velocity": 122,
        "trackId": 12,
        "channel": 9
      },
      {
        "startTick": 21790,
        "endTick": 21820,
        "pitch": 51,
        "velocity": 120,
        "trackId": 12,
        "channel": 9
      },
      {
        "startTick": 21792,
        "endTick": 21848,
        "pitch": 79,
        "velocity": 123,
        "trackId": 1,
        "channel": 5
      },
      {
        "startTick": 21792,
        "endTick": 21894,
        "pitch": 58,
        "velocity": 105,
        "trackId": 3,
        "channel": 0
      },
      {
        "startTick": 21804,
        "endTick": 21850,
        "pitch": 34,
        "velocity": 121,
        "trackId": 4,
        "channel": 1
      },
      {
        "startTick": 21886,
        "endTick": 21914,
        "pitch": 51,
        "velocity": 122,
        "trackId": 12,
        "channel": 9
      },
      {
        "startTick": 21886,
        "endTick": 22100,
        "pitch": 35,
        "velocity": 124,
        "trackId": 12,
        "channel": 9
      },
      {
        "startTick": 21888,
        "endTick": 21992,
        "pitch": 79,
        "velocity": 123,
        "trackId": 1,
        "channel": 5
      },
      {
        "startTick": 21888,
        "endTick": 22006,
        "pitch": 62,
        "velocity": 122,
        "trackId": 3,
        "channel": 0
      },
      {
        "startTick": 21888,
        "endTick": 22012,
        "pitch": 65,
        "velocity": 122,
        "trackId": 3,
        "channel": 0
      },
      {
        "startTick": 21888,
        "endTick": 22028,
        "pitch": 70,
        "velocity": 120,
        "trackId": 3,
        "channel": 0
      },
      {
        "startTick": 21900,
        "endTick": 21958,
        "pitch": 34,
        "velocity": 125,
        "trackId": 4,
        "channel": 1
      },
      {
        "startTick": 21982,
        "endTick": 22000,
        "pitch": 51,
        "velocity": 120,
        "trackId": 12,
        "channel": 9
      },
      {
        "startTick": 21982,
        "endTick": 22010,
        "pitch": 40,
        "velocity": 124,
        "trackId": 12,
        "channel": 9
      },
      {
        "startTick": 21984,
        "endTick": 22058,
        "pitch": 80,
        "velocity": 122,
        "trackId": 1,
        "channel": 5
      },
      {
        "startTick": 21984,
        "endTick": 22318,
        "pitch": 58,
        "velocity": 117,
        "trackId": 3,
        "channel": 0
      },
      {
        "startTick": 21996,
        "endTick": 22072,
        "pitch": 34,
        "velocity": 125,
        "trackId": 4,
        "channel": 1
      },
      {
        "startTick": 22078,
        "endTick": 22104,
        "pitch": 40,
        "velocity": 124,
        "trackId": 12,
        "channel": 9
      },
      {
        "startTick": 22078,
        "endTick": 22116,
        "pitch": 42,
        "velocity": 121,
        "trackId": 12,
        "channel": 9
      },
      {
        "startTick": 22080,
        "endTick": 22130,
        "pitch": 70,
        "velocity": 117,
        "trackId": 3,
        "channel": 0
      },
      {
        "startTick": 22080,
        "endTick": 22158,
        "pitch": 62,
        "velocity": 122,
        "trackId": 3,
        "channel": 0
      },
      {
        "startTick": 22080,
        "endTick": 22162,
        "pitch": 65,
        "velocity": 122,
        "trackId": 3,
        "channel": 0
      },
      {
        "startTick": 22080,
        "endTick": 22180,
        "pitch": 80,
        "velocity": 122,
        "trackId": 1,
        "channel": 5
      },
      {
        "startTick": 22080,
        "endTick": 22278,
        "pitch": 80,
        "velocity": 90,
        "trackId": 5,
        "channel": 2
      },
      {
        "startTick": 22092,
        "endTick": 22140,
        "pitch": 34,
        "velocity": 125,
        "trackId": 4,
        "channel": 1
      },
      {
        "startTick": 22126,
        "endTick": 22170,
        "pitch": 43,
        "velocity": 123,
        "trackId": 12,
        "channel": 9
      },
      {
        "startTick": 22140,
        "endTick": 22188,
        "pitch": 36,
        "velocity": 125,
        "trackId": 4,
        "channel": 1
      },
      {
        "startTick": 22174,
        "endTick": 22206,
        "pitch": 35,
        "velocity": 124,
        "trackId": 12,
        "channel": 9
      },
      {
        "startTick": 22174,
        "endTick": 22206,
        "pitch": 45,
        "velocity": 122,
        "trackId": 12,
        "channel": 9
      },
      {
        "startTick": 22176,
        "endTick": 22278,
        "pitch": 82,
        "velocity": 122,
        "trackId": 1,
        "channel": 5
      },
      {
        "startTick": 22188,
        "endTick": 22282,
        "pitch": 38,
        "velocity": 125,
        "trackId": 4,
        "channel": 1
      },
      {
        "startTick": 22270,
        "endTick": 22496,
        "pitch": 35,
        "velocity": 123,
        "trackId": 12,
        "channel": 9
      },
      {
        "startTick": 22270,
        "endTick": 22750,
        "pitch": 49,
        "velocity": 124,
        "trackId": 12,
        "channel": 9
      },
      {
        "startTick": 22272,
        "endTick": 22362,
        "pitch": 80,
        "velocity": 119,
        "trackId": 1,
        "channel": 5
      },
      {
        "startTick": 22272,
        "endTick": 22362,
        "pitch": 67,
        "velocity": 123,
        "trackId": 3,
        "channel": 0
      },
      {
        "startTick": 22272,
        "endTick": 22366,
        "pitch": 75,
        "velocity": 90,
        "trackId": 5,
        "channel": 2
      },
      {
        "startTick": 22272,
        "endTick": 22554,
        "pitch": 63,
        "velocity": 122,
        "trackId": 3,
        "channel": 0
      },
      {
        "startTick": 22272,
        "endTick": 22622,
        "pitch": 51,
        "velocity": 122,
        "trackId": 3,
        "channel": 0
      },
      {
        "startTick": 22272,
        "endTick": 22646,
        "pitch": 79,
        "velocity": 92,
        "trackId": 5,
        "channel": 2
      },
      {
        "startTick": 22272,
        "endTick": 22662,
        "pitch": 39,
        "velocity": 121,
        "trackId": 3,
        "channel": 0
      },
      {
        "startTick": 22280,
        "endTick": 22358,
        "pitch": 39,
        "velocity": 125,
        "trackId": 4,
        "channel": 1
      },
      {
        "startTick": 22366,
        "endTick": 22388,
        "pitch": 51,
        "velocity": 122,
        "trackId": 12,
        "channel": 9
      },
      {
        "startTick": 22368,
        "endTick": 22540,
        "pitch": 79,
        "velocity": 118,
        "trackId": 1,
        "channel": 5
      },
      {
        "startTick": 22368,
        "endTick": 22620,
        "pitch": 58,
        "velocity": 102,
        "trackId": 3,
        "channel": 0
      },
      {
        "startTick": 22368,
        "endTick": 22638,
        "pitch": 75,
        "velocity": 18,
        "trackId": 5,
        "channel": 2
      },
      {
        "startTick": 22376,
        "endTick": 22420,
        "pitch": 39,
        "velocity": 125,
        "trackId": 4,
        "channel": 1
      },
      {
        "startTick": 22462,
        "endTick": 22494,
        "pitch": 51,
        "velocity": 123,
        "trackId": 12,
        "channel": 9
      },
      {
        "startTick": 22462,
        "endTick": 22512,
        "pitch": 42,
        "velocity": 123,
        "trackId": 12,
        "channel": 9
      },
      {
        "startTick": 22462,
        "endTick": 22770,
        "pitch": 40,
        "velocity": 124,
        "trackId": 12,
        "channel": 9
      },
      {
        "startTick": 22464,
        "endTick": 22582,
        "pitch": 67,
        "velocity": 117,
        "trackId": 3,
        "channel": 0
      },
      {
        "startTick": 22472,
        "endTick": 22534,
        "pitch": 39,
        "velocity": 125,
        "trackId": 4,
        "channel": 1
      },
      {
        "startTick": 22558,
        "endTick": 22586,
        "pitch": 35,
        "velocity": 120,
        "trackId": 12,
        "channel": 9
      },
      {
        "startTick": 22558,
        "endTick": 22590,
        "pitch": 51,
        "velocity": 119,
        "trackId": 12,
        "channel": 9
      },
      {
        "startTick": 22560,
        "endTick": 22606,
        "pitch": 65,
        "velocity": 114,
        "trackId": 3,
        "channel": 0
      },
      {
        "startTick": 22560,
        "endTick": 22608,
        "pitch": 77,
        "velocity": 123,
        "trackId": 1,
        "channel": 5
      },
      {
        "startTick": 22568,
        "endTick": 22662,
        "pitch": 39,
        "velocity": 125,
        "trackId": 4,
        "channel": 1
      },
      {
        "startTick": 22608,
        "endTick": 22646,
        "pitch": 75,
        "velocity": 122,
        "trackId": 1,
        "channel": 5
      },
      {
        "startTick": 22608,
        "endTick": 22668,
        "pitch": 63,
        "velocity": 115,
        "trackId": 3,
        "channel": 0
      },
      {
        "startTick": 22654,
        "endTick": 22690,
        "pitch": 51,
        "velocity": 122,
        "trackId": 12,
        "channel": 9
      },
      {
        "startTick": 22654,
        "endTick": 22866,
        "pitch": 35,
        "velocity": 124,
        "trackId": 12,
        "channel": 9
      },
      {
        "startTick": 22656,
        "endTick": 22716,
        "pitch": 58,
        "velocity": 123,
        "trackId": 3,
        "channel": 0
      },
      {
        "startTick": 22656,
        "endTick": 22776,
        "pitch": 65,
        "velocity": 123,
        "trackId": 3,
        "channel": 0
      },
      {
        "startTick": 22656,
        "endTick": 22780,
        "pitch": 62,
        "velocity": 123,
        "trackId": 3,
        "channel": 0
      },
      {
        "startTick": 22656,
        "endTick": 22952,
        "pitch": 77,
        "velocity": 119,
        "trackId": 1,
        "channel": 5
      },
      {
        "startTick": 22656,
        "endTick": 23012,
        "pitch": 50,
        "velocity": 119,
        "trackId": 3,
        "channel": 0
      },
      {
        "startTick": 22656,
        "endTick": 23042,
        "pitch": 74,
        "velocity": 98,
        "trackId": 5,
        "channel": 2
      },
      {
        "startTick": 22656,
        "endTick": 23048,
        "pitch": 38,
        "velocity": 119,
        "trackId": 3,
        "channel": 0
      },
      {
        "startTick": 22656,
        "endTick": 23062,
        "pitch": 77,
        "velocity": 73,
        "trackId": 5,
        "channel": 2
      },
      {
        "startTick": 22664,
        "endTick": 22714,
        "pitch": 38,
        "velocity": 125,
        "trackId": 4,
        "channel": 1
      },
      {
        "startTick": 22750,
        "endTick": 22768,
        "pitch": 51,
        "velocity": 117,
        "trackId": 12,
        "channel": 9
      },
      {
        "startTick": 22752,
        "endTick": 22986,
        "pitch": 58,
        "velocity": 93,
        "trackId": 3,
        "channel": 0
      },
      {
        "startTick": 22760,
        "endTick": 22816,
        "pitch": 38,
        "velocity": 125,
        "trackId": 4,
        "channel": 1
      },
      {
        "startTick": 22846,
        "endTick": 22884,
        "pitch": 51,
        "velocity": 123,
        "trackId": 12,
        "channel": 9
      },
      {
        "startTick": 22846,
        "endTick": 22894,
        "pitch": 42,
        "velocity": 122,
        "trackId": 12,
        "channel": 9
      },
      {
        "startTick": 22846,
        "endTick": 23162,
        "pitch": 40,
        "velocity": 124,
        "trackId": 12,
        "channel": 9
      },
      {
        "startTick": 22848,
        "endTick": 22928,
        "pitch": 62,
        "velocity": 117,
        "trackId": 3,
        "channel": 0
      },
      {
        "startTick": 22848,
        "endTick": 22966,
        "pitch": 65,
        "velocity": 117,
        "trackId": 3,
        "channel": 0
      },
      {
        "startTick": 22856,
        "endTick": 22906,
        "pitch": 38,
        "velocity": 125,
        "trackId": 4,
        "channel": 1
      },
      {
        "startTick": 22942,
        "endTick": 22972,
        "pitch": 51,
        "velocity": 115,
        "trackId": 12,
        "channel": 9
      },
      {
        "startTick": 22942,
        "endTick": 22978,
        "pitch": 35,
        "velocity": 122,
        "trackId": 12,
        "channel": 9
      },
      {
        "startTick": 22944,
        "endTick": 22998,
        "pitch": 63,
        "velocity": 107,
        "trackId": 3,
        "channel": 0
      },
      {
        "startTick": 22944,
        "endTick": 23004,
        "pitch": 75,
        "velocity": 123,
        "trackId": 1,
        "channel": 5
      },
      {
        "startTick": 22952,
        "endTick": 23048,
        "pitch": 38,
        "velocity": 125,
        "trackId": 4,
        "channel": 1
      },
      {
        "startTick": 22992,
        "endTick": 23040,
        "pitch": 74,
        "velocity": 116,
        "trackId": 1,
        "channel": 5
      },
      {
        "startTick": 22992,
        "endTick": 23040,
        "pitch": 62,
        "velocity": 115,
        "trackId": 3,
        "channel": 0
      },
      {
        "startTick": 23038,
        "endTick": 23076,
        "pitch": 51,
        "velocity": 122,
        "trackId": 12,
        "channel": 9
      },
      {
        "startTick": 23038,
        "endTick": 23256,
        "pitch": 35,
        "velocity": 124,
        "trackId": 12,
        "channel": 9
      },
      {
        "startTick": 23040,
        "endTick": 23156,
        "pitch": 60,
        "velocity": 122,
        "trackId": 3,
        "channel": 0
      },
      {
        "startTick": 23040,
        "endTick": 23158,
        "pitch": 63,
        "velocity": 118,
        "trackId": 3,
        "channel": 0
      },
      {
        "startTick": 23040,
        "endTick": 23340,
        "pitch": 75,
        "velocity": 119,
        "trackId": 1,
        "channel": 5
      },
      {
        "startTick": 23040,
        "endTick": 23426,
        "pitch": 48,
        "velocity": 121,
        "trackId": 3,
        "channel": 0
      },
      {
        "startTick": 23040,
        "endTick": 23428,
        "pitch": 36,
        "velocity": 119,
        "trackId": 3,
        "channel": 0
      },
      {
        "startTick": 23040,
        "endTick": 23438,
        "pitch": 72,
        "velocity": 91,
        "trackId": 5,
        "channel": 2
      },
      {
        "startTick": 23040,
        "endTick": 23824,
        "pitch": 75,
        "velocity": 83,
        "trackId": 5,
        "channel": 2
      },
      {
        "startTick": 23052,
        "endTick": 23120,
        "pitch": 36,
        "velocity": 125,
        "trackId": 4,
        "channel": 1
      },
      {
        "startTick": 23134,
        "endTick": 23160,
        "pitch": 51,
        "velocity": 119,
        "trackId": 12,
        "channel": 9
      },
      {
        "startTick": 23136,
        "endTick": 23248,
        "pitch": 55,
        "velocity": 63,
        "trackId": 3,
        "channel": 0
      },
      {
        "startTick": 23148,
        "endTick": 23212,
        "pitch": 36,
        "velocity": 125,
        "trackId": 4,
        "channel": 1
      },
      {
        "startTick": 23230,
        "endTick": 23258,
        "pitch": 51,
        "velocity": 124,
        "trackId": 12,
        "channel": 9
      },
      {
        "startTick": 23230,
        "endTick": 23264,
        "pitch": 42,
        "velocity": 121,
        "trackId": 12,
        "channel": 9
      },
      {
        "startTick": 23230,
        "endTick": 23378,
        "pitch": 40,
        "velocity": 124,
        "trackId": 12,
        "channel": 9
      },
      {
        "startTick": 23232,
        "endTick": 23326,
        "pitch": 60,
        "velocity": 117,
        "trackId": 3,
        "channel": 0
      },
      {
        "startTick": 23232,
        "endTick": 23344,
        "pitch": 63,
        "velocity": 117,
        "trackId": 3,
        "channel": 0
      },
      {
        "startTick": 23244,
        "endTick": 23334,
        "pitch": 36,
        "velocity": 125,
        "trackId": 4,
        "channel": 1
      },
      {
        "startTick": 23326,
        "endTick": 23350,
        "pitch": 42,
        "velocity": 120,
        "trackId": 12,
        "channel": 9
      },
      {
        "startTick": 23326,
        "endTick": 23352,
        "pitch": 35,
        "velocity": 121,
        "trackId": 12,
        "channel": 9
      },
      {
        "startTick": 23328,
        "endTick": 23356,
        "pitch": 70,
        "velocity": 121,
        "trackId": 1,
        "channel": 5
      },
      {
        "startTick": 23328,
        "endTick": 23418,
        "pitch": 55,
        "velocity": 112,
        "trackId": 3,
        "channel": 0
      },
      {
        "startTick": 23340,
        "endTick": 23434,
        "pitch": 31,
        "velocity": 125,
        "trackId": 4,
        "channel": 1
      },
      {
        "startTick": 23376,
        "endTick": 23418,
        "pitch": 70,
        "velocity": 122,
        "trackId": 1,
        "channel": 5
      },
      {
        "startTick": 23422,
        "endTick": 23694,
        "pitch": 35,
        "velocity": 124,
        "trackId": 12,
        "channel": 9
      },
      {
        "startTick": 23422,
        "endTick": 23762,
        "pitch": 49,
        "velocity": 123,
        "trackId": 12,
        "channel": 9
      },
      {
        "startTick": 23424,
        "endTick": 23508,
        "pitch": 71,
        "velocity": 122,
        "trackId": 1,
        "channel": 5
      },
      {
        "startTick": 23424,
        "endTick": 23538,
        "pitch": 63,
        "velocity": 117,
        "trackId": 3,
        "channel": 0
      },
      {
        "startTick": 23424,
        "endTick": 23540,
        "pitch": 59,
        "velocity": 122,
        "trackId": 3,
        "channel": 0
      },
      {
        "startTick": 23424,
        "endTick": 23746,
        "pitch": 71,
        "velocity": 92,
        "trackId": 5,
        "channel": 2
      },
      {
        "startTick": 23424,
        "endTick": 23786,
        "pitch": 44,
        "velocity": 122,
        "trackId": 3,
        "channel": 0
      },
      {
        "startTick": 23424,
        "endTick": 23838,
        "pitch": 68,
        "velocity": 67,
        "trackId": 5,
        "channel": 2
      },
      {
        "startTick": 23436,
        "endTick": 23830,
        "pitch": 32,
        "velocity": 125,
        "trackId": 4,
        "channel": 1
      },
      {
        "startTick": 23520,
        "endTick": 23582,
        "pitch": 73,
        "velocity": 119,
        "trackId": 1,
        "channel": 5
      },
      {
        "startTick": 23520,
        "endTick": 23624,
        "pitch": 56,
        "velocity": 107,
        "trackId": 3,
        "channel": 0
      },
      {
        "startTick": 23568,
        "endTick": 23630,
        "pitch": 71,
        "velocity": 120,
        "trackId": 1,
        "channel": 5
      },
      {
        "startTick": 23616,
        "endTick": 23658,
        "pitch": 73,
        "velocity": 119,
        "trackId": 1,
        "channel": 5
      },
      {
        "startTick": 23616,
        "endTick": 23802,
        "pitch": 59,
        "velocity": 121,
        "trackId": 3,
        "channel": 0
      },
      {
        "startTick": 23616,
        "endTick": 23826,
        "pitch": 63,
        "velocity": 117,
        "trackId": 3,
        "channel": 0
      },
      {
        "startTick": 23664,
        "endTick": 23698,
        "pitch": 71,
        "velocity": 119,
        "trackId": 1,
        "channel": 5
      },
      {
        "startTick": 23712,
        "endTick": 23746,
        "pitch": 73,
        "velocity": 119,
        "trackId": 1,
        "channel": 5
      },
      {
        "startTick": 23712,
        "endTick": 23790,
        "pitch": 56,
        "velocity": 109,
        "trackId": 3,
        "channel": 0
      },
      {
        "startTick": 23760,
        "endTick": 23794,
        "pitch": 71,
        "velocity": 121,
        "trackId": 1,
        "channel": 5
      },
      {
        "startTick": 23806,
        "endTick": 24692,
        "pitch": 49,
        "velocity": 123,
        "trackId": 12,
        "channel": 9
      },
      {
        "startTick": 23806,
        "endTick": 24854,
        "pitch": 35,
        "velocity": 124,
        "trackId": 12,
        "channel": 9
      },
      {
        "startTick": 23808,
        "endTick": 24170,
        "pitch": 63,
        "velocity": 63,
        "trackId": 5,
        "channel": 2
      },
      {
        "startTick": 23808,
        "endTick": 24190,
        "pitch": 70,
        "velocity": 77,
        "trackId": 5,
        "channel": 2
      },
      {
        "startTick": 23808,
        "endTick": 24240,
        "pitch": 70,
        "velocity": 120,
        "trackId": 1,
        "channel": 5
      },
      {
        "startTick": 23808,
        "endTick": 24950,
        "pitch": 39,
        "velocity": 121,
        "trackId": 3,
        "channel": 0
      },
      {
        "startTick": 23808,
        "endTick": 24954,
        "pitch": 51,
        "velocity": 117,
        "trackId": 3,
        "channel": 0
      },
      {
        "startTick": 23820,
        "endTick": 24840,
        "pitch": 39,
        "velocity": 125,
        "trackId": 4,
        "channel": 1
      },
      {
        "startTick": 23820,
        "endTick": 24844,
        "pitch": 27,
        "velocity": 125,
        "trackId": 4,
        "channel": 1
      },
      {
        "startTick": 23904,
        "endTick": 24930,
        "pitch": 63,
        "velocity": 114,
        "trackId": 3,
        "channel": 0
      },
      {
        "startTick": 24000,
        "endTick": 24090,
        "pitch": 67,
        "velocity": 117,
        "trackId": 3,
        "channel": 0
      },
      {
        "startTick": 24096,
        "endTick": 24190,
        "pitch": 70,
        "velocity": 120,
        "trackId": 3,
        "channel": 0
      },
      {
        "startTick": 24192,
        "endTick": 24292,
        "pitch": 72,
        "velocity": 116,
        "trackId": 3,
        "channel": 0
      },
      {
        "startTick": 24192,
        "endTick": 24310,
        "pitch": 68,
        "velocity": 121,
        "trackId": 3,
        "channel": 0
      },
      {
        "startTick": 24192,
        "endTick": 24378,
        "pitch": 75,
        "velocity": 18,
        "trackId": 5,
        "channel": 2
      },
      {
        "startTick": 24192,
        "endTick": 24382,
        "pitch": 80,
        "velocity": 51,
        "trackId": 5,
        "channel": 2
      },
      {
        "startTick": 24192,
        "endTick": 24390,
        "pitch": 68,
        "velocity": 76,
        "trackId": 5,
        "channel": 2
      },
      {
        "startTick": 24192,
        "endTick": 24392,
        "pitch": 72,
        "velocity": 60,
        "trackId": 5,
        "channel": 2
      },
      {
        "startTick": 24288,
        "endTick": 24392,
        "pitch": 75,
        "velocity": 112,
        "trackId": 3,
        "channel": 0
      },
      {
        "startTick": 24384,
        "endTick": 24494,
        "pitch": 67,
        "velocity": 116,
        "trackId": 3,
        "channel": 0
      },
      {
        "startTick": 24384,
        "endTick": 24504,
        "pitch": 70,
        "velocity": 118,
        "trackId": 3,
        "channel": 0
      },
      {
        "startTick": 24384,
        "endTick": 24588,
        "pitch": 70,
        "velocity": 90,
        "trackId": 5,
        "channel": 2
      },
      {
        "startTick": 24384,
        "endTick": 24598,
        "pitch": 67,
        "velocity": 96,
        "trackId": 5,
        "channel": 2
      },
      {
        "startTick": 24480,
        "endTick": 24586,
        "pitch": 75,
        "velocity": 116,
        "trackId": 3,
        "channel": 0
      },
      {
        "startTick": 24576,
        "endTick": 24674,
        "pitch": 69,
        "velocity": 118,
        "trackId": 3,
        "channel": 0
      },
      {
        "startTick": 24576,
        "endTick": 24692,
        "pitch": 66,
        "velocity": 108,
        "trackId": 3,
        "channel": 0
      },
      {
        "startTick": 24576,
        "endTick": 24708,
        "pitch": 69,
        "velocity": 63,
        "trackId": 5,
        "channel": 2
      },
      {
        "startTick": 24576,
        "endTick": 24776,
        "pitch": 66,
        "velocity": 63,
        "trackId": 5,
        "channel": 2
      },
      {
        "startTick": 24670,
        "endTick": 25044,
        "pitch": 42,
        "velocity": 121,
        "trackId": 12,
        "channel": 9
      },
      {
        "startTick": 24672,
        "endTick": 24772,
        "pitch": 75,
        "velocity": 119,
        "trackId": 3,
        "channel": 0
      },
      {
        "startTick": 24766,
        "endTick": 24814,
        "pitch": 40,
        "velocity": 122,
        "trackId": 12,
        "channel": 9
      },
      {
        "startTick": 24768,
        "endTick": 24892,
        "pitch": 68,
        "velocity": 120,
        "trackId": 3,
        "channel": 0
      },
      {
        "startTick": 24768,
        "endTick": 24910,
        "pitch": 68,
        "velocity": 88,
        "trackId": 5,
        "channel": 2
      },
      {
        "startTick": 24768,
        "endTick": 24920,
        "pitch": 65,
        "velocity": 119,
        "trackId": 3,
        "channel": 0
      },
      {
        "startTick": 24768,
        "endTick": 24952,
        "pitch": 65,
        "velocity": 97,
        "trackId": 5,
        "channel": 2
      },
      {
        "startTick": 24814,
        "endTick": 24860,
        "pitch": 43,
        "velocity": 119,
        "trackId": 12,
        "channel": 9
      },
      {
        "startTick": 24862,
        "endTick": 24940,
        "pitch": 45,
        "velocity": 117,
        "trackId": 12,
        "channel": 9
      },
      {
        "startTick": 24864,
        "endTick": 24934,
        "pitch": 75,
        "velocity": 121,
        "trackId": 3,
        "channel": 0
      },
      {
        "startTick": 24958,
        "endTick": 25140,
        "pitch": 35,
        "velocity": 124,
        "trackId": 12,
        "channel": 9
      },
      {
        "startTick": 24958,
        "endTick": 25750,
        "pitch": 49,
        "velocity": 124,
        "trackId": 12,
        "channel": 9
      },
      {
        "startTick": 24960,
        "endTick": 25090,
        "pitch": 58,
        "velocity": 119,
        "trackId": 3,
        "channel": 0
      },
      {
        "startTick": 24960,
        "endTick": 25198,
        "pitch": 34,
        "velocity": 125,
        "trackId": 4,
        "channel": 1
      },
      {
        "startTick": 24960,
        "endTick": 25674,
        "pitch": 34,
        "velocity": 121,
        "trackId": 3,
        "channel": 0
      },
      {
        "startTick": 24960,
        "endTick": 26428,
        "pitch": 46,
        "velocity": 123,
        "trackId": 3,
        "channel": 0
      },
      {
        "startTick": 25056,
        "endTick": 25374,
        "pitch": 53,
        "velocity": 115,
        "trackId": 3,
        "channel": 0
      },
      {
        "startTick": 25148,
        "endTick": 25194,
        "pitch": 42,
        "velocity": 122,
        "trackId": 12,
        "channel": 9
      },
      {
        "startTick": 25150,
        "endTick": 25454,
        "pitch": 40,
        "velocity": 124,
        "trackId": 12,
        "channel": 9
      },
      {
        "startTick": 25152,
        "endTick": 25638,
        "pitch": 58,
        "velocity": 117,
        "trackId": 3,
        "channel": 0
      },
      {
        "startTick": 25244,
        "endTick": 25266,
        "pitch": 35,
        "velocity": 119,
        "trackId": 12,
        "channel": 9
      },
      {
        "startTick": 25246,
        "endTick": 25272,
        "pitch": 42,
        "velocity": 116,
        "trackId": 12,
        "channel": 9
      },
      {
        "startTick": 25248,
        "endTick": 25570,
        "pitch": 62,
        "velocity": 115,
        "trackId": 3,
        "channel": 0
      },
      {
        "startTick": 25252,
        "endTick": 25290,
        "pitch": 34,
        "velocity": 122,
        "trackId": 4,
        "channel": 1
      },
      {
        "startTick": 25342,
        "endTick": 25378,
        "pitch": 42,
        "velocity": 122,
        "trackId": 12,
        "channel": 9
      },
      {
        "startTick": 25342,
        "endTick": 25660,
        "pitch": 35,
        "velocity": 124,
        "trackId": 12,
        "channel": 9
      },
      {
        "startTick": 25342,
        "endTick": 25674,
        "pitch": 34,
        "velocity": 124,
        "trackId": 4,
        "channel": 1
      },
      {
        "startTick": 25344,
        "endTick": 25746,
        "pitch": 79,
        "velocity": 116,
        "trackId": 3,
        "channel": 0
      },
      {
        "startTick": 25344,
        "endTick": 26024,
        "pitch": 67,
        "velocity": 116,
        "trackId": 3,
        "channel": 0
      },
      {
        "startTick": 25438,
        "endTick": 25464,
        "pitch": 42,
        "velocity": 114,
        "trackId": 12,
        "channel": 9
      },
      {
        "startTick": 25440,
        "endTick": 25548,
        "pitch": 53,
        "velocity": 101,
        "trackId": 3,
        "channel": 0
      },
      {
        "startTick": 25534,
        "endTick": 25582,
        "pitch": 42,
        "velocity": 123,
        "trackId": 12,
        "channel": 9
      },
      {
        "startTick": 25534,
        "endTick": 25844,
        "pitch": 40,
        "velocity": 124,
        "trackId": 12,
        "channel": 9
      },
      {
        "startTick": 25536,
        "endTick": 25710,
        "pitch": 65,
        "velocity": 117,
        "trackId": 3,
        "channel": 0
      },
      {
        "startTick": 25536,
        "endTick": 25718,
        "pitch": 77,
        "velocity": 118,
        "trackId": 3,
        "channel": 0
      },
      {
        "startTick": 25630,
        "endTick": 25658,
        "pitch": 42,
        "velocity": 114,
        "trackId": 12,
        "channel": 9
      },
      {
        "startTick": 25632,
        "endTick": 25740,
        "pitch": 53,
        "velocity": 107,
        "trackId": 3,
        "channel": 0
      },
      {
        "startTick": 25726,
        "endTick": 25768,
        "pitch": 42,
        "velocity": 122,
        "trackId": 12,
        "channel": 9
      },
      {
        "startTick": 25726,
        "endTick": 25952,
        "pitch": 34,
        "velocity": 125,
        "trackId": 4,
        "channel": 1
      },
      {
        "startTick": 25726,
        "endTick": 25952,
        "pitch": 35,
        "velocity": 123,
        "trackId": 12,
        "channel": 9
      },
      {
        "startTick": 25728,
        "endTick": 25840,
        "pitch": 62,
        "velocity": 123,
        "trackId": 3,
        "channel": 0
      },
      {
        "startTick": 25728,
        "endTick": 25842,
        "pitch": 58,
        "velocity": 118,
        "trackId": 3,
        "channel": 0
      },
      {
        "startTick": 25728,
        "endTick": 26426,
        "pitch": 34,
        "velocity": 123,
        "trackId": 3,
        "channel": 0
      },
      {
        "startTick": 25822,
        "endTick": 25852,
        "pitch": 42,
        "velocity": 113,
        "trackId": 12,
        "channel": 9
      },
      {
        "startTick": 25824,
        "endTick": 26134,
        "pitch": 53,
        "velocity": 104,
        "trackId": 3,
        "channel": 0
      },
      {
        "startTick": 25918,
        "endTick": 25958,
        "pitch": 42,
        "velocity": 122,
        "trackId": 12,
        "channel": 9
      },
      {
        "startTick": 25918,
        "endTick": 26210,
        "pitch": 40,
        "velocity": 124,
        "trackId": 12,
        "channel": 9
      },
      {
        "startTick": 25920,
        "endTick": 26396,
        "pitch": 58,
        "velocity": 113,
        "trackId": 3,
        "channel": 0
      },
      {
        "startTick": 26014,
        "endTick": 26040,
        "pitch": 42,
        "velocity": 116,
        "trackId": 12,
        "channel": 9
      },
      {
        "startTick": 26014,
        "endTick": 26042,
        "pitch": 35,
        "velocity": 121,
        "trackId": 12,
        "channel": 9
      },
      {
        "startTick": 26014,
        "endTick": 26052,
        "pitch": 34,
        "velocity": 125,
        "trackId": 4,
        "channel": 1
      },
      {
        "startTick": 26016,
        "endTick": 26238,
        "pitch": 62,
        "velocity": 116,
        "trackId": 3,
        "channel": 0
      },
      {
        "startTick": 26110,
        "endTick": 26146,
        "pitch": 42,
        "velocity": 120,
        "trackId": 12,
        "channel": 9
      },
      {
        "startTick": 26110,
        "endTick": 26310,
        "pitch": 34,
        "velocity": 125,
        "trackId": 4,
        "channel": 1
      },
      {
        "startTick": 26110,
        "endTick": 26418,
        "pitch": 35,
        "velocity": 123,
        "trackId": 12,
        "channel": 9
      },
      {
        "startTick": 26112,
        "endTick": 26514,
        "pitch": 67,
        "velocity": 116,
        "trackId": 3,
        "channel": 0
      },
      {
        "startTick": 26112,
        "endTick": 26514,
        "pitch": 79,
        "velocity": 116,
        "trackId": 3,
        "channel": 0
      },
      {
        "startTick": 26206,
        "endTick": 26236,
        "pitch": 42,
        "velocity": 115,
        "trackId": 12,
        "channel": 9
      },
      {
        "startTick": 26208,
        "endTick": 26328,
        "pitch": 53,
        "velocity": 108,
        "trackId": 3,
        "channel": 0
      },
      {
        "startTick": 26302,
        "endTick": 26324,
        "pitch": 42,
        "velocity": 121,
        "trackId": 12,
        "channel": 9
      },
      {
        "startTick": 26302,
        "endTick": 26494,
        "pitch": 29,
        "velocity": 123,
        "trackId": 4,
        "channel": 1
      },
      {
        "startTick": 26302,
        "endTick": 26600,
        "pitch": 40,
        "velocity": 124,
        "trackId": 12,
        "channel": 9
      },
      {
        "startTick": 26304,
        "endTick": 26486,
        "pitch": 65,
        "velocity": 118,
        "trackId": 3,
        "channel": 0
      },
      {
        "startTick": 26304,
        "endTick": 26486,
        "pitch": 77,
        "velocity": 118,
        "trackId": 3,
        "channel": 0
      },
      {
        "startTick": 26350,
        "endTick": 26398,
        "pitch": 42,
        "velocity": 120,
        "trackId": 12,
        "channel": 9
      },
      {
        "startTick": 26398,
        "endTick": 26500,
        "pitch": 46,
        "velocity": 120,
        "trackId": 12,
        "channel": 9
      },
      {
        "startTick": 26400,
        "endTick": 26502,
        "pitch": 53,
        "velocity": 115,
        "trackId": 3,
        "channel": 0
      },
      {
        "startTick": 26494,
        "endTick": 26716,
        "pitch": 34,
        "velocity": 125,
        "trackId": 4,
        "channel": 1
      },
      {
        "startTick": 26494,
        "endTick": 26718,
        "pitch": 35,
        "velocity": 123,
        "trackId": 12,
        "channel": 9
      },
      {
        "startTick": 26494,
        "endTick": 26926,
        "pitch": 49,
        "velocity": 123,
        "trackId": 12,
        "channel": 9
      },
      {
        "startTick": 26494,
        "endTick": 27168,
        "pitch": 62,
        "velocity": 122,
        "trackId": 2,
        "channel": 4
      },
      {
        "startTick": 26496,
        "endTick": 26578,
        "pitch": 58,
        "velocity": 122,
        "trackId": 3,
        "channel": 0
      },
      {
        "startTick": 26496,
        "endTick": 26690,
        "pitch": 62,
        "velocity": 122,
        "trackId": 3,
        "channel": 0
      },
      {
        "startTick": 26496,
        "endTick": 27260,
        "pitch": 46,
        "velocity": 123,
        "trackId": 3,
        "channel": 0
      },
      {
        "startTick": 26496,
        "endTick": 27266,
        "pitch": 34,
        "velocity": 123,
        "trackId": 3,
        "channel": 0
      },
      {
        "startTick": 26590,
        "endTick": 26620,
        "pitch": 42,
        "velocity": 113,
        "trackId": 12,
        "channel": 9
      },
      {
        "startTick": 26592,
        "endTick": 26890,
        "pitch": 53,
        "velocity": 113,
        "trackId": 3,
        "channel": 0
      },
      {
        "startTick": 26686,
        "endTick": 26734,
        "pitch": 42,
        "velocity": 123,
        "trackId": 12,
        "channel": 9
      },
      {
        "startTick": 26686,
        "endTick": 26980,
        "pitch": 40,
        "velocity": 124,
        "trackId": 12,
        "channel": 9
      },
      {
        "startTick": 26688,
        "endTick": 27174,
        "pitch": 58,
        "velocity": 115,
        "trackId": 3,
        "channel": 0
      },
      {
        "startTick": 26782,
        "endTick": 26810,
        "pitch": 35,
        "velocity": 120,
        "trackId": 12,
        "channel": 9
      },
      {
        "startTick": 26782,
        "endTick": 26816,
        "pitch": 42,
        "velocity": 117,
        "trackId": 12,
        "channel": 9
      },
      {
        "startTick": 26782,
        "endTick": 26822,
        "pitch": 34,
        "velocity": 122,
        "trackId": 4,
        "channel": 1
      },
      {
        "startTick": 26784,
        "endTick": 27080,
        "pitch": 62,
        "velocity": 115,
        "trackId": 3,
        "channel": 0
      },
      {
        "startTick": 26878,
        "endTick": 26922,
        "pitch": 42,
        "velocity": 115,
        "trackId": 12,
        "channel": 9
      },
      {
        "startTick": 26878,
        "endTick": 27184,
        "pitch": 35,
        "velocity": 123,
        "trackId": 12,
        "channel": 9
      },
      {
        "startTick": 26878,
        "endTick": 27260,
        "pitch": 34,
        "velocity": 125,
        "trackId": 4,
        "channel": 1
      },
      {
        "startTick": 26880,
        "endTick": 27280,
        "pitch": 67,
        "velocity": 117,
        "trackId": 3,
        "channel": 0
      },
      {
        "startTick": 26880,
        "endTick": 27282,
        "pitch": 79,
        "velocity": 116,
        "trackId": 3,
        "channel": 0
      },
      {
        "startTick": 26974,
        "endTick": 27004,
        "pitch": 42,
        "velocity": 114,
        "trackId": 12,
        "channel": 9
      },
      {
        "startTick": 26976,
        "endTick": 27126,
        "pitch": 53,
        "velocity": 115,
        "trackId": 3,
        "channel": 0
      },
      {
        "startTick": 27070,
        "endTick": 27116,
        "pitch": 42,
        "velocity": 123,
        "trackId": 12,
        "channel": 9
      },
      {
        "startTick": 27070,
        "endTick": 27352,
        "pitch": 40,
        "velocity": 124,
        "trackId": 12,
        "channel": 9
      },
      {
        "startTick": 27072,
        "endTick": 27254,
        "pitch": 77,
        "velocity": 118,
        "trackId": 3,
        "channel": 0
      },
      {
        "startTick": 27072,
        "endTick": 27272,
        "pitch": 65,
        "velocity": 120,
        "trackId": 3,
        "channel": 0
      },
      {
        "startTick": 27166,
        "endTick": 27200,
        "pitch": 42,
        "velocity": 114,
        "trackId": 12,
        "channel": 9
      },
      {
        "startTick": 27168,
        "endTick": 27268,
        "pitch": 53,
        "velocity": 114,
        "trackId": 3,
        "channel": 0
      },
      {
        "startTick": 27172,
        "endTick": 27242,
        "pitch": 58,
        "velocity": 123,
        "trackId": 2,
        "channel": 4
      },
      {
        "startTick": 27260,
        "endTick": 27344,
        "pitch": 60,
        "velocity": 123,
        "trackId": 2,
        "channel": 4
      },
      {
        "startTick": 27262,
        "endTick": 27298,
        "pitch": 42,
        "velocity": 120,
        "trackId": 12,
        "channel": 9
      },
      {
        "startTick": 27262,
        "endTick": 27480,
        "pitch": 35,
        "velocity": 123,
        "trackId": 12,
        "channel": 9
      },
      {
        "startTick": 27262,
        "endTick": 27482,
        "pitch": 31,
        "velocity": 125,
        "trackId": 4,
        "channel": 1
      },
      {
        "startTick": 27264,
        "endTick": 27374,
        "pitch": 58,
        "velocity": 120,
        "trackId": 3,
        "channel": 0
      },
      {
        "startTick": 27264,
        "endTick": 27476,
        "pitch": 62,
        "velocity": 123,
        "trackId": 3,
        "channel": 0
      },
      {
        "startTick": 27264,
        "endTick": 28036,
        "pitch": 43,
        "velocity": 122,
        "trackId": 3,
        "channel": 0
      },
      {
        "startTick": 27350,
        "endTick": 27806,
        "pitch": 62,
        "velocity": 123,
        "trackId": 2,
        "channel": 4
      },
      {
        "startTick": 27358,
        "endTick": 27384,
        "pitch": 42,
        "velocity": 115,
        "trackId": 12,
        "channel": 9
      },
      {
        "startTick": 27360,
        "endTick": 27690,
        "pitch": 55,
        "velocity": 116,
        "trackId": 3,
        "channel": 0
      },
      {
        "startTick": 27454,
        "endTick": 27502,
        "pitch": 42,
        "velocity": 123,
        "trackId": 12,
        "channel": 9
      },
      {
        "startTick": 27454,
        "endTick": 27756,
        "pitch": 40,
        "velocity": 124,
        "trackId": 12,
        "channel": 9
      },
      {
        "startTick": 27456,
        "endTick": 27958,
        "pitch": 58,
        "velocity": 117,
        "trackId": 3,
        "channel": 0
      },
      {
        "startTick": 27550,
        "endTick": 27576,
        "pitch": 35,
        "velocity": 121,
        "trackId": 12,
        "channel": 9
      },
      {
        "startTick": 27550,
        "endTick": 27584,
        "pitch": 42,
        "velocity": 116,
        "trackId": 12,
        "channel": 9
      },
      {
        "startTick": 27550,
        "endTick": 27596,
        "pitch": 31,
        "velocity": 123,
        "trackId": 4,
        "channel": 1
      },
      {
        "startTick": 27552,
        "endTick": 27844,
        "pitch": 62,
        "velocity": 118,
        "trackId": 3,
        "channel": 0
      },
      {
        "startTick": 27646,
        "endTick": 27676,
        "pitch": 42,
        "velocity": 121,
        "trackId": 12,
        "channel": 9
      },
      {
        "startTick": 27646,
        "endTick": 27954,
        "pitch": 35,
        "velocity": 123,
        "trackId": 12,
        "channel": 9
      },
      {
        "startTick": 27646,
        "endTick": 28040,
        "pitch": 31,
        "velocity": 124,
        "trackId": 4,
        "channel": 1
      },
      {
        "startTick": 27648,
        "endTick": 27752,
        "pitch": 69,
        "velocity": 117,
        "trackId": 3,
        "channel": 0
      },
      {
        "startTick": 27648,
        "endTick": 28050,
        "pitch": 81,
        "velocity": 116,
        "trackId": 3,
        "channel": 0
      },
      {
        "startTick": 27742,
        "endTick": 27760,
        "pitch": 42,
        "velocity": 116,
        "trackId": 12,
        "channel": 9
      },
      {
        "startTick": 27744,
        "endTick": 28024,
        "pitch": 55,
        "velocity": 117,
        "trackId": 3,
        "channel": 0
      },
      {
        "startTick": 27838,
        "endTick": 27878,
        "pitch": 42,
        "velocity": 123,
        "trackId": 12,
        "channel": 9
      },
      {
        "startTick": 27838,
        "endTick": 28132,
        "pitch": 40,
        "velocity": 124,
        "trackId": 12,
        "channel": 9
      },
      {
        "startTick": 27840,
        "endTick": 28022,
        "pitch": 79,
        "velocity": 118,
        "trackId": 3,
        "channel": 0
      },
      {
        "startTick": 27840,
        "endTick": 28052,
        "pitch": 67,
        "velocity": 121,
        "trackId": 3,
        "channel": 0
      },
      {
        "startTick": 27934,
        "endTick": 27966,
        "pitch": 42,
        "velocity": 116,
        "trackId": 12,
        "channel": 9
      },
      {
        "startTick": 27936,
        "endTick": 27968,
        "pitch": 62,
        "velocity": 117,
        "trackId": 3,
        "channel": 0
      },
      {
        "startTick": 27938,
        "endTick": 28022,
        "pitch": 62,
        "velocity": 122,
        "trackId": 2,
        "channel": 4
      },
      {
        "startTick": 28030,
        "endTick": 28068,
        "pitch": 42,
        "velocity": 120,
        "trackId": 12,
        "channel": 9
      },
      {
        "startTick": 28030,
        "endTick": 28244,
        "pitch": 36,
        "velocity": 124,
        "trackId": 4,
        "channel": 1
      },
      {
        "startTick": 28030,
        "endTick": 28260,
        "pitch": 35,
        "velocity": 124,
        "trackId": 12,
        "channel": 9
      },
      {
        "startTick": 28032,
        "endTick": 28120,
        "pitch": 60,
        "velocity": 123,
        "trackId": 3,
        "channel": 0
      },
      {
        "startTick": 28032,
        "endTick": 28122,
        "pitch": 63,
        "velocity": 122,
        "trackId": 2,
        "channel": 4
      },
      {
        "startTick": 28032,
        "endTick": 28168,
        "pitch": 63,
        "velocity": 123,
        "trackId": 3,
        "channel": 0
      },
      {
        "startTick": 28032,
        "endTick": 28744,
        "pitch": 48,
        "velocity": 123,
        "trackId": 3,
        "channel": 0
      },
      {
        "startTick": 28032,
        "endTick": 28754,
        "pitch": 36,
        "velocity": 123,
        "trackId": 3,
        "channel": 0
      },
      {
        "startTick": 28126,
        "endTick": 28152,
        "pitch": 42,
        "velocity": 116,
        "trackId": 12,
        "channel": 9
      },
      {
        "startTick": 28128,
        "endTick": 28444,
        "pitch": 60,
        "velocity": 119,
        "trackId": 3,
        "channel": 0
      },
      {
        "startTick": 28130,
        "endTick": 28198,
        "pitch": 65,
        "velocity": 122,
        "trackId": 2,
        "channel": 4
      },
      {
        "startTick": 28176,
        "endTick": 28272,
        "pitch": 63,
        "velocity": 123,
        "trackId": 2,
        "channel": 4
      },
      {
        "startTick": 28222,
        "endTick": 28268,
        "pitch": 42,
        "velocity": 123,
        "trackId": 12,
        "channel": 9
      },
      {
        "startTick": 28222,
        "endTick": 28526,
        "pitch": 40,
        "velocity": 124,
        "trackId": 12,
        "channel": 9
      },
      {
        "startTick": 28224,
        "endTick": 28670,
        "pitch": 63,
        "velocity": 117,
        "trackId": 3,
        "channel": 0
      },
      {
        "startTick": 28272,
        "endTick": 28326,
        "pitch": 62,
        "velocity": 122,
        "trackId": 2,
        "channel": 4
      },
      {
        "startTick": 28318,
        "endTick": 28350,
        "pitch": 35,
        "velocity": 120,
        "trackId": 12,
        "channel": 9
      },
      {
        "startTick": 28318,
        "endTick": 28350,
        "pitch": 42,
        "velocity": 117,
        "trackId": 12,
        "channel": 9
      },
      {
        "startTick": 28318,
        "endTick": 28356,
        "pitch": 36,
        "velocity": 122,
        "trackId": 4,
        "channel": 1
      },
      {
        "startTick": 28320,
        "endTick": 28624,
        "pitch": 67,
        "velocity": 109,
        "trackId": 3,
        "channel": 0
      },
      {
        "startTick": 28328,
        "endTick": 28586,
        "pitch": 60,
        "velocity": 122,
        "trackId": 2,
        "channel": 4
      },
      {
        "startTick": 28414,
        "endTick": 28446,
        "pitch": 42,
        "velocity": 120,
        "trackId": 12,
        "channel": 9
      },
      {
        "startTick": 28414,
        "endTick": 28700,
        "pitch": 36,
        "velocity": 125,
        "trackId": 4,
        "channel": 1
      },
      {
        "startTick": 28414,
        "endTick": 28728,
        "pitch": 35,
        "velocity": 123,
        "trackId": 12,
        "channel": 9
      },
      {
        "startTick": 28416,
        "endTick": 28526,
        "pitch": 74,
        "velocity": 116,
        "trackId": 3,
        "channel": 0
      },
      {
        "startTick": 28416,
        "endTick": 28818,
        "pitch": 86,
        "velocity": 116,
        "trackId": 3,
        "channel": 0
      },
      {
        "startTick": 28510,
        "endTick": 28536,
        "pitch": 42,
        "velocity": 113,
        "trackId": 12,
        "channel": 9
      },
      {
        "startTick": 28512,
        "endTick": 28812,
        "pitch": 60,
        "velocity": 119,
        "trackId": 3,
        "channel": 0
      },
      {
        "startTick": 28606,
        "endTick": 28648,
        "pitch": 42,
        "velocity": 122,
        "trackId": 12,
        "channel": 9
      },
      {
        "startTick": 28606,
        "endTick": 28896,
        "pitch": 40,
        "velocity": 124,
        "trackId": 12,
        "channel": 9
      },
      {
        "startTick": 28608,
        "endTick": 28790,
        "pitch": 84,
        "velocity": 118,
        "trackId": 3,
        "channel": 0
      },
      {
        "startTick": 28608,
        "endTick": 29168,
        "pitch": 72,
        "velocity": 121,
        "trackId": 3,
        "channel": 0
      },
      {
        "startTick": 28698,
        "endTick": 28760,
        "pitch": 60,
        "velocity": 122,
        "trackId": 2,
        "channel": 4
      },
      {
        "startTick": 28702,
        "endTick": 28730,
        "pitch": 42,
        "velocity": 118,
        "trackId": 12,
        "channel": 9
      },
      {
        "startTick": 28702,
        "endTick": 28808,
        "pitch": 31,
        "velocity": 123,
        "trackId": 4,
        "channel": 1
      },
      {
        "startTick": 28704,
        "endTick": 28886,
        "pitch": 63,
        "velocity": 121,
        "trackId": 3,
        "channel": 0
      },
      {
        "startTick": 28748,
        "endTick": 28798,
        "pitch": 62,
        "velocity": 122,
        "trackId": 2,
        "channel": 4
      },
      {
        "startTick": 28798,
        "endTick": 28836,
        "pitch": 42,
        "velocity": 120,
        "trackId": 12,
        "channel": 9
      },
      {
        "startTick": 28798,
        "endTick": 29020,
        "pitch": 35,
        "velocity": 123,
        "trackId": 12,
        "channel": 9
      },
      {
        "startTick": 28798,
        "endTick": 29080,
        "pitch": 36,
        "velocity": 125,
        "trackId": 4,
        "channel": 1
      },
      {
        "startTick": 28800,
        "endTick": 28912,
        "pitch": 36,
        "velocity": 123,
        "trackId": 3,
        "channel": 0
      },
      {
        "startTick": 28800,
        "endTick": 28982,
        "pitch": 67,
        "velocity": 123,
        "trackId": 3,
        "channel": 0
      },
      {
        "startTick": 28800,
        "endTick": 29176,
        "pitch": 48,
        "velocity": 123,
        "trackId": 3,
        "channel": 0
      },
      {
        "startTick": 28802,
        "endTick": 28880,
        "pitch": 63,
        "velocity": 122,
        "trackId": 2,
        "channel": 4
      },
      {
        "startTick": 28888,
        "endTick": 28958,
        "pitch": 65,
        "velocity": 122,
        "trackId": 2,
        "channel": 4
      },
      {
        "startTick": 28894,
        "endTick": 28914,
        "pitch": 42,
        "velocity": 113,
        "trackId": 12,
        "channel": 9
      },
      {
        "startTick": 28896,
        "endTick": 29082,
        "pitch": 60,
        "velocity": 114,
        "trackId": 3,
        "channel": 0
      },
      {
        "startTick": 28944,
        "endTick": 29002,
        "pitch": 36,
        "velocity": 99,
        "trackId": 3,
        "channel": 0
      },
      {
        "startTick": 28948,
        "endTick": 29026,
        "pitch": 63,
        "velocity": 122,
        "trackId": 2,
        "channel": 4
      },
      {
        "startTick": 28990,
        "endTick": 29022,
        "pitch": 42,
        "velocity": 122,
        "trackId": 12,
        "channel": 9
      },
      {
        "startTick": 28990,
        "endTick": 29196,
        "pitch": 40,
        "velocity": 124,
        "trackId": 12,
        "channel": 9
      },
      {
        "startTick": 28992,
        "endTick": 29088,
        "pitch": 63,
        "velocity": 118,
        "trackId": 3,
        "channel": 0
      },
      {
        "startTick": 29022,
        "endTick": 29070,
        "pitch": 62,
        "velocity": 122,
        "trackId": 2,
        "channel": 4
      },
      {
        "startTick": 29086,
        "endTick": 29116,
        "pitch": 35,
        "velocity": 121,
        "trackId": 12,
        "channel": 9
      },
      {
        "startTick": 29086,
        "endTick": 29140,
        "pitch": 31,
        "velocity": 123,
        "trackId": 4,
        "channel": 1
      },
      {
        "startTick": 29086,
        "endTick": 29176,
        "pitch": 46,
        "velocity": 120,
        "trackId": 12,
        "channel": 9
      },
      {
        "startTick": 29088,
        "endTick": 29178,
        "pitch": 67,
        "velocity": 117,
        "trackId": 3,
        "channel": 0
      },
      {
        "startTick": 29090,
        "endTick": 29178,
        "pitch": 62,
        "velocity": 122,
        "trackId": 2,
        "channel": 4
      },
      {
        "startTick": 29134,
        "endTick": 29194,
        "pitch": 30,
        "velocity": 120,
        "trackId": 4,
        "channel": 1
      },
      {
        "startTick": 29178,
        "endTick": 29560,
        "pitch": 60,
        "velocity": 122,
        "trackId": 2,
        "channel": 4
      },
      {
        "startTick": 29182,
        "endTick": 29212,
        "pitch": 42,
        "velocity": 121,
        "trackId": 12,
        "channel": 9
      },
      {
        "startTick": 29182,
        "endTick": 29372,
        "pitch": 29,
        "velocity": 125,
        "trackId": 4,
        "channel": 1
      },
      {
        "startTick": 29182,
        "endTick": 29412,
        "pitch": 35,
        "velocity": 123,
        "trackId": 12,
        "channel": 9
      },
      {
        "startTick": 29184,
        "endTick": 29460,
        "pitch": 69,
        "velocity": 123,
        "trackId": 3,
        "channel": 0
      },
      {
        "startTick": 29184,
        "endTick": 29568,
        "pitch": 53,
        "velocity": 121,
        "trackId": 3,
        "channel": 0
      },
      {
        "startTick": 29184,
        "endTick": 29576,
        "pitch": 41,
        "velocity": 113,
        "trackId": 3,
        "channel": 0
      },
      {
        "startTick": 29278,
        "endTick": 29318,
        "pitch": 40,
        "velocity": 124,
        "trackId": 12,
        "channel": 9
      },
      {
        "startTick": 29280,
        "endTick": 29460,
        "pitch": 63,
        "velocity": 117,
        "trackId": 3,
        "channel": 0
      },
      {
        "startTick": 29374,
        "endTick": 29414,
        "pitch": 43,
        "velocity": 124,
        "trackId": 12,
        "channel": 9
      },
      {
        "startTick": 29374,
        "endTick": 29422,
        "pitch": 42,
        "velocity": 116,
        "trackId": 12,
        "channel": 9
      },
      {
        "startTick": 29374,
        "endTick": 29566,
        "pitch": 29,
        "velocity": 125,
        "trackId": 4,
        "channel": 1
      },
      {
        "startTick": 29376,
        "endTick": 29482,
        "pitch": 65,
        "velocity": 119,
        "trackId": 3,
        "channel": 0
      },
      {
        "startTick": 29422,
        "endTick": 29492,
        "pitch": 45,
        "velocity": 122,
        "trackId": 12,
        "channel": 9
      },
      {
        "startTick": 29470,
        "endTick": 29524,
        "pitch": 35,
        "velocity": 123,
        "trackId": 12,
        "channel": 9
      },
      {
        "startTick": 29472,
        "endTick": 29500,
        "pitch": 72,
        "velocity": 119,
        "trackId": 3,
        "channel": 0
      },
      {
        "startTick": 29566,
        "endTick": 29782,
        "pitch": 35,
        "velocity": 123,
        "trackId": 12,
        "channel": 9
      },
      {
        "startTick": 29566,
        "endTick": 29808,
        "pitch": 34,
        "velocity": 125,
        "trackId": 4,
        "channel": 1
      },
      {
        "startTick": 29566,
        "endTick": 30190,
        "pitch": 49,
        "velocity": 122,
        "trackId": 12,
        "channel": 9
      },
      {
        "startTick": 29568,
        "endTick": 29682,
        "pitch": 58,
        "velocity": 119,
        "trackId": 3,
        "channel": 0
      },
      {
        "startTick": 29568,
        "endTick": 29780,
        "pitch": 62,
        "velocity": 122,
        "trackId": 3,
        "channel": 0
      },
      {
        "startTick": 29568,
        "endTick": 30338,
        "pitch": 46,
        "velocity": 121,
        "trackId": 3,
        "channel": 0
      },
      {
        "startTick": 29570,
        "endTick": 29864,
        "pitch": 62,
        "velocity": 122,
        "trackId": 2,
        "channel": 4
      },
      {
        "startTick": 29662,
        "endTick": 29710,
        "pitch": 42,
        "velocity": 111,
        "trackId": 12,
        "channel": 9
      },
      {
        "startTick": 29664,
        "endTick": 29966,
        "pitch": 53,
        "velocity": 113,
        "trackId": 3,
        "channel": 0
      },
      {
        "startTick": 29758,
        "endTick": 29798,
        "pitch": 42,
        "velocity": 122,
        "trackId": 12,
        "channel": 9
      },
      {
        "startTick": 29758,
        "endTick": 30062,
        "pitch": 40,
        "velocity": 123,
        "trackId": 12,
        "channel": 9
      },
      {
        "startTick": 29760,
        "endTick": 30244,
        "pitch": 58,
        "velocity": 118,
        "trackId": 3,
        "channel": 0
      },
      {
        "startTick": 29854,
        "endTick": 29882,
        "pitch": 42,
        "velocity": 113,
        "trackId": 12,
        "channel": 9
      },
      {
        "startTick": 29854,
        "endTick": 29890,
        "pitch": 35,
        "velocity": 121,
        "trackId": 12,
        "channel": 9
      },
      {
        "startTick": 29854,
        "endTick": 29926,
        "pitch": 34,
        "velocity": 121,
        "trackId": 4,
        "channel": 1
      },
      {
        "startTick": 29856,
        "endTick": 29902,
        "pitch": 60,
        "velocity": 122,
        "trackId": 2,
        "channel": 4
      },
      {
        "startTick": 29856,
        "endTick": 30140,
        "pitch": 62,
        "velocity": 120,
        "trackId": 3,
        "channel": 0
      },
      {
        "startTick": 29902,
        "endTick": 29938,
        "pitch": 58,
        "velocity": 122,
        "trackId": 2,
        "channel": 4
      },
      {
        "startTick": 29948,
        "endTick": 30002,
        "pitch": 60,
        "velocity": 122,
        "trackId": 2,
        "channel": 4
      },
      {
        "startTick": 29950,
        "endTick": 29986,
        "pitch": 42,
        "velocity": 120,
        "trackId": 12,
        "channel": 9
      },
      {
        "startTick": 29950,
        "endTick": 30266,
        "pitch": 35,
        "velocity": 124,
        "trackId": 12,
        "channel": 9
      },
      {
        "startTick": 29950,
        "endTick": 30324,
        "pitch": 34,
        "velocity": 125,
        "trackId": 4,
        "channel": 1
      },
      {
        "startTick": 29952,
        "endTick": 30354,
        "pitch": 67,
        "velocity": 120,
        "trackId": 3,
        "channel": 0
      },
      {
        "startTick": 29952,
        "endTick": 30354,
        "pitch": 79,
        "velocity": 116,
        "trackId": 3,
        "channel": 0
      },
      {
        "startTick": 30004,
        "endTick": 30038,
        "pitch": 62,
        "velocity": 122,
        "trackId": 2,
        "channel": 4
      },
      {
        "startTick": 30046,
        "endTick": 30078,
        "pitch": 42,
        "velocity": 115,
        "trackId": 12,
        "channel": 9
      },
      {
        "startTick": 30048,
        "endTick": 30156,
        "pitch": 53,
        "velocity": 116,
        "trackId": 3,
        "channel": 0
      },
      {
        "startTick": 30142,
        "endTick": 30182,
        "pitch": 42,
        "velocity": 123,
        "trackId": 12,
        "channel": 9
      },
      {
        "startTick": 30142,
        "endTick": 30440,
        "pitch": 40,
        "velocity": 124,
        "trackId": 12,
        "channel": 9
      },
      {
        "startTick": 30144,
        "endTick": 30326,
        "pitch": 77,
        "velocity": 118,
        "trackId": 3,
        "channel": 0
      },
      {
        "startTick": 30144,
        "endTick": 30332,
        "pitch": 65,
        "velocity": 119,
        "trackId": 3,
        "channel": 0
      },
      {
        "startTick": 30236,
        "endTick": 30268,
        "pitch": 65,
        "velocity": 122,
        "trackId": 2,
        "channel": 4
      },
      {
        "startTick": 30238,
        "endTick": 30266,
        "pitch": 42,
        "velocity": 116,
        "trackId": 12,
        "channel": 9
      },
      {
        "startTick": 30240,
        "endTick": 30326,
        "pitch": 53,
        "velocity": 112,
        "trackId": 3,
        "channel": 0
      },
      {
        "startTick": 30332,
        "endTick": 30498,
        "pitch": 67,
        "velocity": 122,
        "trackId": 2,
        "channel": 4
      },
      {
        "startTick": 30334,
        "endTick": 30372,
        "pitch": 42,
        "velocity": 121,
        "trackId": 12,
        "channel": 9
      },
      {
        "startTick": 30334,
        "endTick": 30520,
        "pitch": 31,
        "velocity": 125,
        "trackId": 4,
        "channel": 1
      },
      {
        "startTick": 30334,
        "endTick": 30552,
        "pitch": 35,
        "velocity": 124,
        "trackId": 12,
        "channel": 9
      },
      {
        "startTick": 30336,
        "endTick": 30448,
        "pitch": 58,
        "velocity": 122,
        "trackId": 3,
        "channel": 0
      },
      {
        "startTick": 30336,
        "endTick": 30562,
        "pitch": 62,
        "velocity": 123,
        "trackId": 3,
        "channel": 0
      },
      {
        "startTick": 30336,
        "endTick": 31108,
        "pitch": 43,
        "velocity": 120,
        "trackId": 3,
        "channel": 0
      },
      {
        "startTick": 30358,
        "endTick": 30360,
        "pitch": 60,
        "velocity": 109,
        "trackId": 3,
        "channel": 0
      },
      {
        "startTick": 30430,
        "endTick": 30460,
        "pitch": 42,
        "velocity": 116,
        "trackId": 12,
        "channel": 9
      },
      {
        "startTick": 30432,
        "endTick": 30730,
        "pitch": 55,
        "velocity": 117,
        "trackId": 3,
        "channel": 0
      },
      {
        "startTick": 30498,
        "endTick": 30526,
        "pitch": 65,
        "velocity": 122,
        "trackId": 2,
        "channel": 4
      },
      {
        "startTick": 30518,
        "endTick": 30890,
        "pitch": 67,
        "velocity": 122,
        "trackId": 2,
        "channel": 4
      },
      {
        "startTick": 30526,
        "endTick": 30566,
        "pitch": 42,
        "velocity": 122,
        "trackId": 12,
        "channel": 9
      },
      {
        "startTick": 30526,
        "endTick": 30628,
        "pitch": 34,
        "velocity": 124,
        "trackId": 4,
        "channel": 1
      },
      {
        "startTick": 30526,
        "endTick": 30838,
        "pitch": 40,
        "velocity": 124,
        "trackId": 12,
        "channel": 9
      },
      {
        "startTick": 30528,
        "endTick": 30992,
        "pitch": 58,
        "velocity": 121,
        "trackId": 3,
        "channel": 0
      },
      {
        "startTick": 30622,
        "endTick": 30656,
        "pitch": 42,
        "velocity": 115,
        "trackId": 12,
        "channel": 9
      },
      {
        "startTick": 30622,
        "endTick": 30658,
        "pitch": 35,
        "velocity": 118,
        "trackId": 12,
        "channel": 9
      },
      {
        "startTick": 30622,
        "endTick": 30722,
        "pitch": 38,
        "velocity": 122,
        "trackId": 4,
        "channel": 1
      },
      {
        "startTick": 30624,
        "endTick": 30946,
        "pitch": 62,
        "velocity": 120,
        "trackId": 3,
        "channel": 0
      },
      {
        "startTick": 30718,
        "endTick": 30754,
        "pitch": 42,
        "velocity": 121,
        "trackId": 12,
        "channel": 9
      },
      {
        "startTick": 30718,
        "endTick": 30966,
        "pitch": 35,
        "velocity": 124,
        "trackId": 12,
        "channel": 9
      },
      {
        "startTick": 30718,
        "endTick": 31004,
        "pitch": 43,
        "velocity": 125,
        "trackId": 4,
        "channel": 1
      },
      {
        "startTick": 30720,
        "endTick": 30822,
        "pitch": 69,
        "velocity": 117,
        "trackId": 3,
        "channel": 0
      },
      {
        "startTick": 30720,
        "endTick": 31122,
        "pitch": 81,
        "velocity": 116,
        "trackId": 3,
        "channel": 0
      },
      {
        "startTick": 30814,
        "endTick": 30840,
        "pitch": 42,
        "velocity": 113,
        "trackId": 12,
        "channel": 9
      },
      {
        "startTick": 30816,
        "endTick": 30920,
        "pitch": 55,
        "velocity": 121,
        "trackId": 3,
        "channel": 0
      },
      {
        "startTick": 30910,
        "endTick": 30950,
        "pitch": 42,
        "velocity": 122,
        "trackId": 12,
        "channel": 9
      },
      {
        "startTick": 30910,
        "endTick": 31210,
        "pitch": 40,
        "velocity": 124,
        "trackId": 12,
        "channel": 9
      },
      {
        "startTick": 30912,
        "endTick": 31094,
        "pitch": 79,
        "velocity": 118,
        "trackId": 3,
        "channel": 0
      },
      {
        "startTick": 30912,
        "endTick": 31506,
        "pitch": 67,
        "velocity": 120,
        "trackId": 3,
        "channel": 0
      },
      {
        "startTick": 30994,
        "endTick": 31060,
        "pitch": 65,
        "velocity": 122,
        "trackId": 2,
        "channel": 4
      },
      {
        "startTick": 31006,
        "endTick": 31036,
        "pitch": 43,
        "velocity": 121,
        "trackId": 12,
        "channel": 9
      },
      {
        "startTick": 31006,
        "endTick": 31040,
        "pitch": 35,
        "velocity": 120,
        "trackId": 12,
        "channel": 9
      },
      {
        "startTick": 31006,
        "endTick": 31122,
        "pitch": 38,
        "velocity": 125,
        "trackId": 4,
        "channel": 1
      },
      {
        "startTick": 31008,
        "endTick": 31094,
        "pitch": 55,
        "velocity": 117,
        "trackId": 3,
        "channel": 0
      },
      {
        "startTick": 31044,
        "endTick": 31098,
        "pitch": 67,
        "velocity": 122,
        "trackId": 2,
        "channel": 4
      },
      {
        "startTick": 31102,
        "endTick": 31320,
        "pitch": 35,
        "velocity": 123,
        "trackId": 12,
        "channel": 9
      },
      {
        "startTick": 31102,
        "endTick": 31390,
        "pitch": 49,
        "velocity": 123,
        "trackId": 12,
        "channel": 9
      },
      {
        "startTick": 31102,
        "endTick": 31392,
        "pitch": 36,
        "velocity": 124,
        "trackId": 4,
        "channel": 1
      },
      {
        "startTick": 31104,
        "endTick": 31216,
        "pitch": 60,
        "velocity": 123,
        "trackId": 3,
        "channel": 0
      },
      {
        "startTick": 31104,
        "endTick": 31222,
        "pitch": 63,
        "velocity": 122,
        "trackId": 3,
        "channel": 0
      },
      {
        "startTick": 31104,
        "endTick": 31450,
        "pitch": 48,
        "velocity": 123,
        "trackId": 3,
        "channel": 0
      },
      {
        "startTick": 31114,
        "endTick": 31192,
        "pitch": 70,
        "velocity": 122,
        "trackId": 2,
        "channel": 4
      },
      {
        "startTick": 31198,
        "endTick": 31294,
        "pitch": 46,
        "velocity": 120,
        "trackId": 12,
        "channel": 9
      },
      {
        "startTick": 31200,
        "endTick": 31386,
        "pitch": 55,
        "velocity": 117,
        "trackId": 3,
        "channel": 0
      },
      {
        "startTick": 31218,
        "endTick": 31264,
        "pitch": 70,
        "velocity": 122,
        "trackId": 2,
        "channel": 4
      },
      {
        "startTick": 31294,
        "endTick": 31390,
        "pitch": 46,
        "velocity": 121,
        "trackId": 12,
        "channel": 9
      },
      {
        "startTick": 31294,
        "endTick": 31622,
        "pitch": 40,
        "velocity": 124,
        "trackId": 12,
        "channel": 9
      },
      {
        "startTick": 31296,
        "endTick": 31418,
        "pitch": 60,
        "velocity": 118,
        "trackId": 3,
        "channel": 0
      },
      {
        "startTick": 31306,
        "endTick": 31352,
        "pitch": 70,
        "velocity": 122,
        "trackId": 2,
        "channel": 4
      },
      {
        "startTick": 31370,
        "endTick": 31420,
        "pitch": 70,
        "velocity": 122,
        "trackId": 2,
        "channel": 4
      },
      {
        "startTick": 31390,
        "endTick": 31426,
        "pitch": 35,
        "velocity": 123,
        "trackId": 12,
        "channel": 9
      },
      {
        "startTick": 31390,
        "endTick": 31482,
        "pitch": 35,
        "velocity": 125,
        "trackId": 4,
        "channel": 1
      },
      {
        "startTick": 31390,
        "endTick": 31486,
        "pitch": 49,
        "velocity": 124,
        "trackId": 12,
        "channel": 9
      },
      {
        "startTick": 31392,
        "endTick": 31452,
        "pitch": 47,
        "velocity": 122,
        "trackId": 3,
        "channel": 0
      },
      {
        "startTick": 31392,
        "endTick": 31454,
        "pitch": 63,
        "velocity": 121,
        "trackId": 3,
        "channel": 0
      },
      {
        "startTick": 31392,
        "endTick": 31480,
        "pitch": 55,
        "velocity": 119,
        "trackId": 3,
        "channel": 0
      },
      {
        "startTick": 31448,
        "endTick": 31626,
        "pitch": 70,
        "velocity": 122,
        "trackId": 2,
        "channel": 4
      },
      {
        "startTick": 31486,
        "endTick": 31570,
        "pitch": 35,
        "velocity": 124,
        "trackId": 12,
        "channel": 9
      },
      {
        "startTick": 31486,
        "endTick": 31678,
        "pitch": 49,
        "velocity": 124,
        "trackId": 12,
        "channel": 9
      },
      {
        "startTick": 31486,
        "endTick": 31682,
        "pitch": 34,
        "velocity": 125,
        "trackId": 4,
        "channel": 1
      },
      {
        "startTick": 31488,
        "endTick": 31580,
        "pitch": 58,
        "velocity": 123,
        "trackId": 3,
        "channel": 0
      },
      {
        "startTick": 31488,
        "endTick": 31602,
        "pitch": 63,
        "velocity": 122,
        "trackId": 3,
        "channel": 0
      },
      {
        "startTick": 31488,
        "endTick": 31672,
        "pitch": 46,
        "velocity": 123,
        "trackId": 3,
        "channel": 0
      },
      {
        "startTick": 31536,
        "endTick": 31690,
        "pitch": 67,
        "velocity": 18,
        "trackId": 3,
        "channel": 0
      },
      {
        "startTick": 31582,
        "endTick": 31678,
        "pitch": 46,
        "velocity": 119,
        "trackId": 12,
        "channel": 9
      },
      {
        "startTick": 31584,
        "endTick": 31694,
        "pitch": 55,
        "velocity": 117,
        "trackId": 3,
        "channel": 0
      },
      {
        "startTick": 31614,
        "endTick": 31678,
        "pitch": 67,
        "velocity": 122,
        "trackId": 2,
        "channel": 4
      },
      {
        "startTick": 31630,
        "endTick": 31758,
        "pitch": 35,
        "velocity": 120,
        "trackId": 12,
        "channel": 9
      },
      {
        "startTick": 31678,
        "endTick": 31866,
        "pitch": 33,
        "velocity": 125,
        "trackId": 4,
        "channel": 1
      },
      {
        "startTick": 31678,
        "endTick": 32020,
        "pitch": 40,
        "velocity": 124,
        "trackId": 12,
        "channel": 9
      },
      {
        "startTick": 31678,
        "endTick": 92928,
        "pitch": 49,
        "velocity": 124,
        "trackId": 12,
        "channel": 9
      },
      {
        "startTick": 31680,
        "endTick": 31772,
        "pitch": 57,
        "velocity": 123,
        "trackId": 3,
        "channel": 0
      },
      {
        "startTick": 31680,
        "endTick": 31814,
        "pitch": 63,
        "velocity": 123,
        "trackId": 3,
        "channel": 0
      },
      {
        "startTick": 31680,
        "endTick": 31874,
        "pitch": 45,
        "velocity": 123,
        "trackId": 3,
        "channel": 0
      },
      {
        "startTick": 31682,
        "endTick": 31838,
        "pitch": 62,
        "velocity": 122,
        "trackId": 2,
        "channel": 4
      },
      {
        "startTick": 31774,
        "endTick": 31822,
        "pitch": 35,
        "velocity": 123,
        "trackId": 12,
        "channel": 9
      },
      {
        "startTick": 31774,
        "endTick": 31870,
        "pitch": 46,
        "velocity": 119,
        "trackId": 12,
        "channel": 9
      },
      {
        "startTick": 31776,
        "endTick": 31872,
        "pitch": 55,
        "velocity": 118,
        "trackId": 3,
        "channel": 0
      },
      {
        "startTick": 31826,
        "endTick": 32354,
        "pitch": 60,
        "velocity": 122,
        "trackId": 2,
        "channel": 4
      },
      {
        "startTick": 31870,
        "endTick": 31996,
        "pitch": 35,
        "velocity": 124,
        "trackId": 12,
        "channel": 9
      },
      {
        "startTick": 31870,
        "endTick": 32254,
        "pitch": 49,
        "velocity": 124,
        "trackId": 12,
        "channel": 9
      },
      {
        "startTick": 31870,
        "endTick": 32264,
        "pitch": 32,
        "velocity": 125,
        "trackId": 4,
        "channel": 1
      },
      {
        "startTick": 31872,
        "endTick": 31968,
        "pitch": 58,
        "velocity": 123,
        "trackId": 3,
        "channel": 0
      },
      {
        "startTick": 31872,
        "endTick": 32016,
        "pitch": 63,
        "velocity": 123,
        "trackId": 3,
        "channel": 0
      },
      {
        "startTick": 31872,
        "endTick": 32246,
        "pitch": 44,
        "velocity": 123,
        "trackId": 3,
        "channel": 0
      },
      {
        "startTick": 31966,
        "endTick": 32062,
        "pitch": 46,
        "velocity": 121,
        "trackId": 12,
        "channel": 9
      },
      {
        "startTick": 31968,
        "endTick": 32054,
        "pitch": 56,
        "velocity": 120,
        "trackId": 3,
        "channel": 0
      },
      {
        "startTick": 32062,
        "endTick": 32158,
        "pitch": 46,
        "velocity": 120,
        "trackId": 12,
        "channel": 9
      },
      {
        "startTick": 32062,
        "endTick": 32172,
        "pitch": 40,
        "velocity": 124,
        "trackId": 12,
        "channel": 9
      },
      {
        "startTick": 32064,
        "endTick": 32186,
        "pitch": 63,
        "velocity": 120,
        "trackId": 3,
        "channel": 0
      },
      {
        "startTick": 32064,
        "endTick": 32256,
        "pitch": 60,
        "velocity": 121,
        "trackId": 3,
        "channel": 0
      },
      {
        "startTick": 32158,
        "endTick": 32254,
        "pitch": 46,
        "velocity": 120,
        "trackId": 12,
        "channel": 9
      },
      {
        "startTick": 32158,
        "endTick": 32260,
        "pitch": 35,
        "velocity": 124,
        "trackId": 12,
        "channel": 9
      },
      {
        "startTick": 32160,
        "endTick": 32250,
        "pitch": 56,
        "velocity": 116,
        "trackId": 3,
        "channel": 0
      },
      {
        "startTick": 32254,
        "endTick": 32364,
        "pitch": 40,
        "velocity": 124,
        "trackId": 12,
        "channel": 9
      },
      {
        "startTick": 32254,
        "endTick": 32440,
        "pitch": 31,
        "velocity": 124,
        "trackId": 4,
        "channel": 1
      },
      {
        "startTick": 32254,
        "endTick": 92928,
        "pitch": 46,
        "velocity": 123,
        "trackId": 12,
        "channel": 9
      },
      {
        "startTick": 32256,
        "endTick": 32354,
        "pitch": 58,
        "velocity": 123,
        "trackId": 3,
        "channel": 0
      },
      {
        "startTick": 32256,
        "endTick": 32420,
        "pitch": 63,
        "velocity": 123,
        "trackId": 3,
        "channel": 0
      },
      {
        "startTick": 32256,
        "endTick": 32456,
        "pitch": 43,
        "velocity": 122,
        "trackId": 3,
        "channel": 0
      },
      {
        "startTick": 32350,
        "endTick": 32440,
        "pitch": 35,
        "velocity": 124,
        "trackId": 12,
        "channel": 9
      },
      {
        "startTick": 32352,
        "endTick": 32420,
        "pitch": 55,
        "velocity": 113,
        "trackId": 3,
        "channel": 0
      },
      {
        "startTick": 32446,
        "endTick": 32476,
        "pitch": 40,
        "velocity": 124,
        "trackId": 12,
        "channel": 9
      },
      {
        "startTick": 32446,
        "endTick": 32494,
        "pitch": 42,
        "velocity": 120,
        "trackId": 12,
        "channel": 9
      },
      {
        "startTick": 32446,
        "endTick": 32644,
        "pitch": 34,
        "velocity": 121,
        "trackId": 4,
        "channel": 1
      },
      {
        "startTick": 32448,
        "endTick": 32552,
        "pitch": 56,
        "velocity": 123,
        "trackId": 3,
        "channel": 0
      },
      {
        "startTick": 32448,
        "endTick": 32584,
        "pitch": 63,
        "velocity": 123,
        "trackId": 3,
        "channel": 0
      },
      {
        "startTick": 32448,
        "endTick": 32638,
        "pitch": 41,
        "velocity": 122,
        "trackId": 3,
        "channel": 0
      },
      {
        "startTick": 32494,
        "endTick": 32526,
        "pitch": 43,
        "velocity": 123,
        "trackId": 12,
        "channel": 9
      },
      {
        "startTick": 32542,
        "endTick": 32582,
        "pitch": 35,
        "velocity": 123,
        "trackId": 12,
        "channel": 9
      },
      {
        "startTick": 32542,
        "endTick": 32590,
        "pitch": 45,
        "velocity": 124,
        "trackId": 12,
        "channel": 9
      },
      {
        "startTick": 32544,
        "endTick": 32634,
        "pitch": 53,
        "velocity": 117,
        "trackId": 3,
        "channel": 0
      },
      {
        "startTick": 32638,
        "endTick": 32734,
        "pitch": 49,
        "velocity": 123,
        "trackId": 12,
        "channel": 9
      },
      {
        "startTick": 32638,
        "endTick": 32808,
        "pitch": 39,
        "velocity": 125,
        "trackId": 4,
        "channel": 1
      },
      {
        "startTick": 32638,
        "endTick": 32896,
        "pitch": 35,
        "velocity": 124,
        "trackId": 12,
        "channel": 9
      },
      {
        "startTick": 32640,
        "endTick": 32752,
        "pitch": 67,
        "velocity": 123,
        "trackId": 3,
        "channel": 0
      },
      {
        "startTick": 32640,
        "endTick": 32756,
        "pitch": 58,
        "velocity": 123,
        "trackId": 3,
        "channel": 0
      },
      {
        "startTick": 32640,
        "endTick": 32764,
        "pitch": 63,
        "velocity": 123,
        "trackId": 3,
        "channel": 0
      },
      {
        "startTick": 32640,
        "endTick": 33204,
        "pitch": 51,
        "velocity": 122,
        "trackId": 3,
        "channel": 0
      },
      {
        "startTick": 32640,
        "endTick": 33216,
        "pitch": 70,
        "velocity": 97,
        "trackId": 5,
        "channel": 2
      },
      {
        "startTick": 32640,
        "endTick": 33220,
        "pitch": 75,
        "velocity": 86,
        "trackId": 5,
        "channel": 2
      },
      {
        "startTick": 32640,
        "endTick": 33226,
        "pitch": 39,
        "velocity": 123,
        "trackId": 3,
        "channel": 0
      },
      {
        "startTick": 32642,
        "endTick": 33214,
        "pitch": 67,
        "velocity": 123,
        "trackId": 2,
        "channel": 4
      },
      {
        "startTick": 32734,
        "endTick": 32780,
        "pitch": 51,
        "velocity": 120,
        "trackId": 12,
        "channel": 9
      },
      {
        "startTick": 32736,
        "endTick": 32850,
        "pitch": 55,
        "velocity": 93,
        "trackId": 3,
        "channel": 0
      },
      {
        "startTick": 32830,
        "endTick": 32876,
        "pitch": 39,
        "velocity": 123,
        "trackId": 4,
        "channel": 1
      },
      {
        "startTick": 32830,
        "endTick": 32876,
        "pitch": 51,
        "velocity": 122,
        "trackId": 12,
        "channel": 9
      },
      {
        "startTick": 32830,
        "endTick": 32896,
        "pitch": 42,
        "velocity": 122,
        "trackId": 12,
        "channel": 9
      },
      {
        "startTick": 32830,
        "endTick": 33144,
        "pitch": 40,
        "velocity": 124,
        "trackId": 12,
        "channel": 9
      },
      {
        "startTick": 32832,
        "endTick": 32932,
        "pitch": 67,
        "velocity": 123,
        "trackId": 3,
        "channel": 0
      },
      {
        "startTick": 32832,
        "endTick": 32950,
        "pitch": 58,
        "velocity": 123,
        "trackId": 3,
        "channel": 0
      },
      {
        "startTick": 32832,
        "endTick": 32958,
        "pitch": 63,
        "velocity": 122,
        "trackId": 3,
        "channel": 0
      },
      {
        "startTick": 32926,
        "endTick": 32952,
        "pitch": 51,
        "velocity": 120,
        "trackId": 12,
        "channel": 9
      },
      {
        "startTick": 32926,
        "endTick": 32956,
        "pitch": 35,
        "velocity": 117,
        "trackId": 12,
        "channel": 9
      },
      {
        "startTick": 32926,
        "endTick": 32972,
        "pitch": 39,
        "velocity": 123,
        "trackId": 4,
        "channel": 1
      },
      {
        "startTick": 32928,
        "endTick": 33040,
        "pitch": 55,
        "velocity": 117,
        "trackId": 3,
        "channel": 0
      },
      {
        "startTick": 33022,
        "endTick": 33068,
        "pitch": 51,
        "velocity": 122,
        "trackId": 12,
        "channel": 9
      },
      {
        "startTick": 33022,
        "endTick": 33072,
        "pitch": 39,
        "velocity": 124,
        "trackId": 4,
        "channel": 1
      },
      {
        "startTick": 33022,
        "endTick": 33330,
        "pitch": 35,
        "velocity": 123,
        "trackId": 12,
        "channel": 9
      },
      {
        "startTick": 33024,
        "endTick": 33118,
        "pitch": 67,
        "velocity": 123,
        "trackId": 3,
        "channel": 0
      },
      {
        "startTick": 33024,
        "endTick": 33136,
        "pitch": 58,
        "velocity": 122,
        "trackId": 3,
        "channel": 0
      },
      {
        "startTick": 33024,
        "endTick": 33174,
        "pitch": 63,
        "velocity": 121,
        "trackId": 3,
        "channel": 0
      },
      {
        "startTick": 33118,
        "endTick": 33138,
        "pitch": 51,
        "velocity": 117,
        "trackId": 12,
        "channel": 9
      },
      {
        "startTick": 33118,
        "endTick": 33200,
        "pitch": 39,
        "velocity": 123,
        "trackId": 4,
        "channel": 1
      },
      {
        "startTick": 33120,
        "endTick": 33198,
        "pitch": 55,
        "velocity": 118,
        "trackId": 3,
        "channel": 0
      },
      {
        "startTick": 33214,
        "endTick": 33260,
        "pitch": 51,
        "velocity": 123,
        "trackId": 12,
        "channel": 9
      },
      {
        "startTick": 33214,
        "endTick": 33266,
        "pitch": 42,
        "velocity": 123,
        "trackId": 12,
        "channel": 9
      },
      {
        "startTick": 33214,
        "endTick": 33282,
        "pitch": 38,
        "velocity": 124,
        "trackId": 4,
        "channel": 1
      },
      {
        "startTick": 33214,
        "endTick": 33506,
        "pitch": 40,
        "velocity": 124,
        "trackId": 12,
        "channel": 9
      },
      {
        "startTick": 33216,
        "endTick": 33302,
        "pitch": 62,
        "velocity": 123,
        "trackId": 3,
        "channel": 0
      },
      {
        "startTick": 33216,
        "endTick": 33312,
        "pitch": 58,
        "velocity": 123,
        "trackId": 3,
        "channel": 0
      },
      {
        "startTick": 33216,
        "endTick": 33380,
        "pitch": 50,
        "velocity": 123,
        "trackId": 3,
        "channel": 0
      },
      {
        "startTick": 33216,
        "endTick": 33404,
        "pitch": 38,
        "velocity": 122,
        "trackId": 3,
        "channel": 0
      },
      {
        "startTick": 33216,
        "endTick": 33418,
        "pitch": 65,
        "velocity": 123,
        "trackId": 3,
        "channel": 0
      },
      {
        "startTick": 33216,
        "endTick": 33418,
        "pitch": 77,
        "velocity": 102,
        "trackId": 5,
        "channel": 2
      },
      {
        "startTick": 33216,
        "endTick": 33420,
        "pitch": 74,
        "velocity": 100,
        "trackId": 5,
        "channel": 2
      },
      {
        "startTick": 33218,
        "endTick": 33322,
        "pitch": 65,
        "velocity": 123,
        "trackId": 2,
        "channel": 4
      },
      {
        "startTick": 33310,
        "endTick": 33344,
        "pitch": 51,
        "velocity": 118,
        "trackId": 12,
        "channel": 9
      },
      {
        "startTick": 33310,
        "endTick": 33388,
        "pitch": 38,
        "velocity": 123,
        "trackId": 4,
        "channel": 1
      },
      {
        "startTick": 33312,
        "endTick": 33394,
        "pitch": 53,
        "velocity": 117,
        "trackId": 3,
        "channel": 0
      },
      {
        "startTick": 33314,
        "endTick": 33950,
        "pitch": 67,
        "velocity": 123,
        "trackId": 2,
        "channel": 4
      },
      {
        "startTick": 33406,
        "endTick": 33434,
        "pitch": 51,
        "velocity": 122,
        "trackId": 12,
        "channel": 9
      },
      {
        "startTick": 33406,
        "endTick": 33460,
        "pitch": 36,
        "velocity": 123,
        "trackId": 4,
        "channel": 1
      },
      {
        "startTick": 33406,
        "endTick": 33626,
        "pitch": 35,
        "velocity": 124,
        "trackId": 12,
        "channel": 9
      },
      {
        "startTick": 33408,
        "endTick": 33472,
        "pitch": 60,
        "velocity": 123,
        "trackId": 3,
        "channel": 0
      },
      {
        "startTick": 33408,
        "endTick": 33520,
        "pitch": 63,
        "velocity": 123,
        "trackId": 3,
        "channel": 0
      },
      {
        "startTick": 33408,
        "endTick": 33798,
        "pitch": 72,
        "velocity": 98,
        "trackId": 5,
        "channel": 2
      },
      {
        "startTick": 33408,
        "endTick": 33800,
        "pitch": 75,
        "velocity": 92,
        "trackId": 5,
        "channel": 2
      },
      {
        "startTick": 33408,
        "endTick": 34044,
        "pitch": 36,
        "velocity": 123,
        "trackId": 3,
        "channel": 0
      },
      {
        "startTick": 33408,
        "endTick": 34066,
        "pitch": 48,
        "velocity": 123,
        "trackId": 3,
        "channel": 0
      },
      {
        "startTick": 33502,
        "endTick": 33522,
        "pitch": 51,
        "velocity": 119,
        "trackId": 12,
        "channel": 9
      },
      {
        "startTick": 33502,
        "endTick": 33540,
        "pitch": 36,
        "velocity": 122,
        "trackId": 4,
        "channel": 1
      },
      {
        "startTick": 33504,
        "endTick": 33616,
        "pitch": 60,
        "velocity": 116,
        "trackId": 3,
        "channel": 0
      },
      {
        "startTick": 33598,
        "endTick": 33644,
        "pitch": 51,
        "velocity": 123,
        "trackId": 12,
        "channel": 9
      },
      {
        "startTick": 33598,
        "endTick": 33654,
        "pitch": 42,
        "velocity": 123,
        "trackId": 12,
        "channel": 9
      },
      {
        "startTick": 33598,
        "endTick": 33682,
        "pitch": 36,
        "velocity": 123,
        "trackId": 4,
        "channel": 1
      },
      {
        "startTick": 33598,
        "endTick": 33894,
        "pitch": 40,
        "velocity": 124,
        "trackId": 12,
        "channel": 9
      },
      {
        "startTick": 33600,
        "endTick": 33762,
        "pitch": 63,
        "velocity": 121,
        "trackId": 3,
        "channel": 0
      },
      {
        "startTick": 33600,
        "endTick": 34186,
        "pitch": 79,
        "velocity": 98,
        "trackId": 5,
        "channel": 2
      },
      {
        "startTick": 33694,
        "endTick": 33712,
        "pitch": 35,
        "velocity": 121,
        "trackId": 12,
        "channel": 9
      },
      {
        "startTick": 33694,
        "endTick": 33728,
        "pitch": 51,
        "velocity": 120,
        "trackId": 12,
        "channel": 9
      },
      {
        "startTick": 33694,
        "endTick": 33758,
        "pitch": 31,
        "velocity": 125,
        "trackId": 4,
        "channel": 1
      },
      {
        "startTick": 33696,
        "endTick": 33798,
        "pitch": 67,
        "velocity": 117,
        "trackId": 3,
        "channel": 0
      },
      {
        "startTick": 33790,
        "endTick": 33822,
        "pitch": 51,
        "velocity": 122,
        "trackId": 12,
        "channel": 9
      },
      {
        "startTick": 33790,
        "endTick": 33866,
        "pitch": 36,
        "velocity": 123,
        "trackId": 4,
        "channel": 1
      },
      {
        "startTick": 33790,
        "endTick": 34016,
        "pitch": 35,
        "velocity": 124,
        "trackId": 12,
        "channel": 9
      },
      {
        "startTick": 33792,
        "endTick": 33804,
        "pitch": 69,
        "velocity": 92,
        "trackId": 5,
        "channel": 2
      },
      {
        "startTick": 33792,
        "endTick": 33892,
        "pitch": 62,
        "velocity": 119,
        "trackId": 3,
        "channel": 0
      },
      {
        "startTick": 33792,
        "endTick": 33922,
        "pitch": 74,
        "velocity": 118,
        "trackId": 3,
        "channel": 0
      },
      {
        "startTick": 33792,
        "endTick": 33966,
        "pitch": 71,
        "velocity": 77,
        "trackId": 5,
        "channel": 2
      },
      {
        "startTick": 33792,
        "endTick": 33970,
        "pitch": 74,
        "velocity": 95,
        "trackId": 5,
        "channel": 2
      },
      {
        "startTick": 33886,
        "endTick": 33912,
        "pitch": 51,
        "velocity": 120,
        "trackId": 12,
        "channel": 9
      },
      {
        "startTick": 33886,
        "endTick": 33952,
        "pitch": 36,
        "velocity": 121,
        "trackId": 4,
        "channel": 1
      },
      {
        "startTick": 33888,
        "endTick": 34152,
        "pitch": 63,
        "velocity": 119,
        "trackId": 3,
        "channel": 0
      },
      {
        "startTick": 33982,
        "endTick": 34008,
        "pitch": 36,
        "velocity": 123,
        "trackId": 4,
        "channel": 1
      },
      {
        "startTick": 33982,
        "endTick": 34012,
        "pitch": 51,
        "velocity": 123,
        "trackId": 12,
        "channel": 9
      },
      {
        "startTick": 33982,
        "endTick": 34044,
        "pitch": 42,
        "velocity": 124,
        "trackId": 12,
        "channel": 9
      },
      {
        "startTick": 33982,
        "endTick": 34276,
        "pitch": 40,
        "velocity": 124,
        "trackId": 12,
        "channel": 9
      },
      {
        "startTick": 33984,
        "endTick": 34188,
        "pitch": 75,
        "velocity": 92,
        "trackId": 5,
        "channel": 2
      },
      {
        "startTick": 33984,
        "endTick": 34196,
        "pitch": 72,
        "velocity": 99,
        "trackId": 5,
        "channel": 2
      },
      {
        "startTick": 33984,
        "endTick": 34216,
        "pitch": 60,
        "velocity": 116,
        "trackId": 3,
        "channel": 0
      },
      {
        "startTick": 33984,
        "endTick": 34284,
        "pitch": 72,
        "velocity": 122,
        "trackId": 3,
        "channel": 0
      },
      {
        "startTick": 34030,
        "endTick": 34076,
        "pitch": 36,
        "velocity": 122,
        "trackId": 4,
        "channel": 1
      },
      {
        "startTick": 34074,
        "endTick": 34112,
        "pitch": 67,
        "velocity": 112,
        "trackId": 2,
        "channel": 4
      },
      {
        "startTick": 34078,
        "endTick": 34096,
        "pitch": 35,
        "velocity": 116,
        "trackId": 12,
        "channel": 9
      },
      {
        "startTick": 34078,
        "endTick": 34112,
        "pitch": 51,
        "velocity": 113,
        "trackId": 12,
        "channel": 9
      },
      {
        "startTick": 34078,
        "endTick": 34128,
        "pitch": 31,
        "velocity": 122,
        "trackId": 4,
        "channel": 1
      },
      {
        "startTick": 34080,
        "endTick": 34160,
        "pitch": 67,
        "velocity": 114,
        "trackId": 3,
        "channel": 0
      },
      {
        "startTick": 34098,
        "endTick": 34132,
        "pitch": 72,
        "velocity": 117,
        "trackId": 2,
        "channel": 4
      },
      {
        "startTick": 34122,
        "endTick": 34156,
        "pitch": 75,
        "velocity": 123,
        "trackId": 2,
        "channel": 4
      },
      {
        "startTick": 34126,
        "endTick": 34172,
        "pitch": 30,
        "velocity": 125,
        "trackId": 4,
        "channel": 1
      },
      {
        "startTick": 34146,
        "endTick": 34384,
        "pitch": 79,
        "velocity": 123,
        "trackId": 2,
        "channel": 4
      },
      {
        "startTick": 34174,
        "endTick": 34208,
        "pitch": 51,
        "velocity": 122,
        "trackId": 12,
        "channel": 9
      },
      {
        "startTick": 34174,
        "endTick": 34256,
        "pitch": 29,
        "velocity": 123,
        "trackId": 4,
        "channel": 1
      },
      {
        "startTick": 34174,
        "endTick": 34396,
        "pitch": 35,
        "velocity": 124,
        "trackId": 12,
        "channel": 9
      },
      {
        "startTick": 34176,
        "endTick": 34276,
        "pitch": 68,
        "velocity": 123,
        "trackId": 3,
        "channel": 0
      },
      {
        "startTick": 34176,
        "endTick": 34320,
        "pitch": 65,
        "velocity": 122,
        "trackId": 3,
        "channel": 0
      },
      {
        "startTick": 34176,
        "endTick": 34420,
        "pitch": 53,
        "velocity": 123,
        "trackId": 3,
        "channel": 0
      },
      {
        "startTick": 34176,
        "endTick": 34476,
        "pitch": 41,
        "velocity": 120,
        "trackId": 3,
        "channel": 0
      },
      {
        "startTick": 34176,
        "endTick": 34560,
        "pitch": 68,
        "velocity": 99,
        "trackId": 5,
        "channel": 2
      },
      {
        "startTick": 34176,
        "endTick": 34952,
        "pitch": 77,
        "velocity": 98,
        "trackId": 5,
        "channel": 2
      },
      {
        "startTick": 34270,
        "endTick": 34296,
        "pitch": 51,
        "velocity": 118,
        "trackId": 12,
        "channel": 9
      },
      {
        "startTick": 34270,
        "endTick": 34324,
        "pitch": 29,
        "velocity": 122,
        "trackId": 4,
        "channel": 1
      },
      {
        "startTick": 34272,
        "endTick": 34378,
        "pitch": 60,
        "velocity": 120,
        "trackId": 3,
        "channel": 0
      },
      {
        "startTick": 34366,
        "endTick": 34402,
        "pitch": 51,
        "velocity": 123,
        "trackId": 12,
        "channel": 9
      },
      {
        "startTick": 34366,
        "endTick": 34424,
        "pitch": 42,
        "velocity": 123,
        "trackId": 12,
        "channel": 9
      },
      {
        "startTick": 34366,
        "endTick": 34446,
        "pitch": 29,
        "velocity": 120,
        "trackId": 4,
        "channel": 1
      },
      {
        "startTick": 34366,
        "endTick": 34628,
        "pitch": 40,
        "velocity": 124,
        "trackId": 12,
        "channel": 9
      },
      {
        "startTick": 34368,
        "endTick": 34444,
        "pitch": 65,
        "velocity": 123,
        "trackId": 3,
        "channel": 0
      },
      {
        "startTick": 34368,
        "endTick": 34530,
        "pitch": 68,
        "velocity": 121,
        "trackId": 3,
        "channel": 0
      },
      {
        "startTick": 34368,
        "endTick": 34702,
        "pitch": 72,
        "velocity": 120,
        "trackId": 3,
        "channel": 0
      },
      {
        "startTick": 34404,
        "endTick": 34466,
        "pitch": 79,
        "velocity": 123,
        "trackId": 2,
        "channel": 4
      },
      {
        "startTick": 34462,
        "endTick": 34484,
        "pitch": 35,
        "velocity": 118,
        "trackId": 12,
        "channel": 9
      },
      {
        "startTick": 34462,
        "endTick": 34490,
        "pitch": 51,
        "velocity": 120,
        "trackId": 12,
        "channel": 9
      },
      {
        "startTick": 34462,
        "endTick": 34502,
        "pitch": 41,
        "velocity": 125,
        "trackId": 4,
        "channel": 1
      },
      {
        "startTick": 34462,
        "endTick": 34508,
        "pitch": 77,
        "velocity": 123,
        "trackId": 2,
        "channel": 4
      },
      {
        "startTick": 34464,
        "endTick": 34518,
        "pitch": 52,
        "velocity": 115,
        "trackId": 3,
        "channel": 0
      },
      {
        "startTick": 34464,
        "endTick": 34528,
        "pitch": 64,
        "velocity": 122,
        "trackId": 3,
        "channel": 0
      },
      {
        "startTick": 34464,
        "endTick": 34566,
        "pitch": 40,
        "velocity": 121,
        "trackId": 3,
        "channel": 0
      },
      {
        "startTick": 34464,
        "endTick": 34626,
        "pitch": 60,
        "velocity": 112,
        "trackId": 3,
        "channel": 0
      },
      {
        "startTick": 34510,
        "endTick": 34564,
        "pitch": 40,
        "velocity": 125,
        "trackId": 4,
        "channel": 1
      },
      {
        "startTick": 34528,
        "endTick": 34844,
        "pitch": 77,
        "velocity": 123,
        "trackId": 2,
        "channel": 4
      },
      {
        "startTick": 34558,
        "endTick": 34596,
        "pitch": 51,
        "velocity": 123,
        "trackId": 12,
        "channel": 9
      },
      {
        "startTick": 34558,
        "endTick": 34636,
        "pitch": 39,
        "velocity": 125,
        "trackId": 4,
        "channel": 1
      },
      {
        "startTick": 34558,
        "endTick": 34752,
        "pitch": 35,
        "velocity": 123,
        "trackId": 12,
        "channel": 9
      },
      {
        "startTick": 34560,
        "endTick": 34670,
        "pitch": 63,
        "velocity": 123,
        "trackId": 3,
        "channel": 0
      },
      {
        "startTick": 34560,
        "endTick": 34692,
        "pitch": 68,
        "velocity": 123,
        "trackId": 3,
        "channel": 0
      },
      {
        "startTick": 34560,
        "endTick": 34728,
        "pitch": 51,
        "velocity": 123,
        "trackId": 3,
        "channel": 0
      },
      {
        "startTick": 34560,
        "endTick": 34760,
        "pitch": 67,
        "velocity": 104,
        "trackId": 5,
        "channel": 2
      },
      {
        "startTick": 34560,
        "endTick": 34774,
        "pitch": 39,
        "velocity": 122,
        "trackId": 3,
        "channel": 0
      },
      {
        "startTick": 34654,
        "endTick": 34676,
        "pitch": 51,
        "velocity": 119,
        "trackId": 12,
        "channel": 9
      },
      {
        "startTick": 34654,
        "endTick": 34752,
        "pitch": 39,
        "velocity": 120,
        "trackId": 4,
        "channel": 1
      },
      {
        "startTick": 34656,
        "endTick": 34762,
        "pitch": 60,
        "velocity": 95,
        "trackId": 3,
        "channel": 0
      },
      {
        "startTick": 34750,
        "endTick": 34790,
        "pitch": 51,
        "velocity": 123,
        "trackId": 12,
        "channel": 9
      },
      {
        "startTick": 34750,
        "endTick": 34808,
        "pitch": 42,
        "velocity": 123,
        "trackId": 12,
        "channel": 9
      },
      {
        "startTick": 34750,
        "endTick": 34818,
        "pitch": 38,
        "velocity": 125,
        "trackId": 4,
        "channel": 1
      },
      {
        "startTick": 34750,
        "endTick": 35052,
        "pitch": 40,
        "velocity": 124,
        "trackId": 12,
        "channel": 9
      },
      {
        "startTick": 34752,
        "endTick": 34832,
        "pitch": 50,
        "velocity": 123,
        "trackId": 3,
        "channel": 0
      },
      {
        "startTick": 34752,
        "endTick": 34846,
        "pitch": 68,
        "velocity": 123,
        "trackId": 3,
        "channel": 0
      },
      {
        "startTick": 34752,
        "endTick": 34850,
        "pitch": 72,
        "velocity": 123,
        "trackId": 3,
        "channel": 0
      },
      {
        "startTick": 34752,
        "endTick": 34874,
        "pitch": 62,
        "velocity": 123,
        "trackId": 3,
        "channel": 0
      },
      {
        "startTick": 34752,
        "endTick": 34934,
        "pitch": 38,
        "velocity": 122,
        "trackId": 3,
        "channel": 0
      },
      {
        "startTick": 34752,
        "endTick": 34948,
        "pitch": 68,
        "velocity": 100,
        "trackId": 5,
        "channel": 2
      },
      {
        "startTick": 34846,
        "endTick": 34866,
        "pitch": 35,
        "velocity": 117,
        "trackId": 12,
        "channel": 9
      },
      {
        "startTick": 34846,
        "endTick": 34872,
        "pitch": 51,
        "velocity": 120,
        "trackId": 12,
        "channel": 9
      },
      {
        "startTick": 34846,
        "endTick": 34904,
        "pitch": 38,
        "velocity": 125,
        "trackId": 4,
        "channel": 1
      },
      {
        "startTick": 34848,
        "endTick": 34926,
        "pitch": 60,
        "velocity": 110,
        "trackId": 3,
        "channel": 0
      },
      {
        "startTick": 34884,
        "endTick": 34930,
        "pitch": 70,
        "velocity": 123,
        "trackId": 2,
        "channel": 4
      },
      {
        "startTick": 34894,
        "endTick": 34942,
        "pitch": 36,
        "velocity": 121,
        "trackId": 4,
        "channel": 1
      },
      {
        "startTick": 34942,
        "endTick": 34974,
        "pitch": 51,
        "velocity": 123,
        "trackId": 12,
        "channel": 9
      },
      {
        "startTick": 34942,
        "endTick": 35024,
        "pitch": 34,
        "velocity": 125,
        "trackId": 4,
        "channel": 1
      },
      {
        "startTick": 34942,
        "endTick": 35162,
        "pitch": 35,
        "velocity": 123,
        "trackId": 12,
        "channel": 9
      },
      {
        "startTick": 34944,
        "endTick": 35004,
        "pitch": 66,
        "velocity": 18,
        "trackId": 3,
        "channel": 0
      },
      {
        "startTick": 34944,
        "endTick": 35060,
        "pitch": 62,
        "velocity": 123,
        "trackId": 3,
        "channel": 0
      },
      {
        "startTick": 34944,
        "endTick": 35248,
        "pitch": 70,
        "velocity": 122,
        "trackId": 3,
        "channel": 0
      },
      {
        "startTick": 34944,
        "endTick": 35346,
        "pitch": 70,
        "velocity": 95,
        "trackId": 5,
        "channel": 2
      },
      {
        "startTick": 34944,
        "endTick": 35348,
        "pitch": 74,
        "velocity": 96,
        "trackId": 5,
        "channel": 2
      },
      {
        "startTick": 34944,
        "endTick": 35622,
        "pitch": 34,
        "velocity": 121,
        "trackId": 3,
        "channel": 0
      },
      {
        "startTick": 34944,
        "endTick": 35634,
        "pitch": 46,
        "velocity": 123,
        "trackId": 3,
        "channel": 0
      },
      {
        "startTick": 34952,
        "endTick": 35030,
        "pitch": 70,
        "velocity": 123,
        "trackId": 2,
        "channel": 4
      },
      {
        "startTick": 35038,
        "endTick": 35060,
        "pitch": 51,
        "velocity": 119,
        "trackId": 12,
        "channel": 9
      },
      {
        "startTick": 35038,
        "endTick": 35086,
        "pitch": 34,
        "velocity": 121,
        "trackId": 4,
        "channel": 1
      },
      {
        "startTick": 35040,
        "endTick": 35114,
        "pitch": 77,
        "velocity": 123,
        "trackId": 2,
        "channel": 4
      },
      {
        "startTick": 35040,
        "endTick": 35150,
        "pitch": 58,
        "velocity": 107,
        "trackId": 3,
        "channel": 0
      },
      {
        "startTick": 35134,
        "endTick": 35168,
        "pitch": 51,
        "velocity": 124,
        "trackId": 12,
        "channel": 9
      },
      {
        "startTick": 35134,
        "endTick": 35178,
        "pitch": 42,
        "velocity": 121,
        "trackId": 12,
        "channel": 9
      },
      {
        "startTick": 35134,
        "endTick": 35188,
        "pitch": 34,
        "velocity": 122,
        "trackId": 4,
        "channel": 1
      },
      {
        "startTick": 35134,
        "endTick": 35344,
        "pitch": 40,
        "velocity": 124,
        "trackId": 12,
        "channel": 9
      },
      {
        "startTick": 35136,
        "endTick": 35244,
        "pitch": 65,
        "velocity": 123,
        "trackId": 3,
        "channel": 0
      },
      {
        "startTick": 35136,
        "endTick": 35250,
        "pitch": 62,
        "velocity": 123,
        "trackId": 3,
        "channel": 0
      },
      {
        "startTick": 35138,
        "endTick": 35226,
        "pitch": 77,
        "velocity": 123,
        "trackId": 2,
        "channel": 4
      },
      {
        "startTick": 35230,
        "endTick": 35248,
        "pitch": 35,
        "velocity": 122,
        "trackId": 12,
        "channel": 9
      },
      {
        "startTick": 35230,
        "endTick": 35260,
        "pitch": 51,
        "velocity": 120,
        "trackId": 12,
        "channel": 9
      },
      {
        "startTick": 35230,
        "endTick": 35278,
        "pitch": 34,
        "velocity": 123,
        "trackId": 4,
        "channel": 1
      },
      {
        "startTick": 35232,
        "endTick": 35334,
        "pitch": 58,
        "velocity": 105,
        "trackId": 3,
        "channel": 0
      },
      {
        "startTick": 35236,
        "endTick": 35314,
        "pitch": 79,
        "velocity": 123,
        "trackId": 2,
        "channel": 4
      },
      {
        "startTick": 35326,
        "endTick": 35354,
        "pitch": 51,
        "velocity": 122,
        "trackId": 12,
        "channel": 9
      },
      {
        "startTick": 35326,
        "endTick": 35386,
        "pitch": 34,
        "velocity": 125,
        "trackId": 4,
        "channel": 1
      },
      {
        "startTick": 35326,
        "endTick": 35540,
        "pitch": 35,
        "velocity": 124,
        "trackId": 12,
        "channel": 9
      },
      {
        "startTick": 35328,
        "endTick": 35446,
        "pitch": 62,
        "velocity": 122,
        "trackId": 3,
        "channel": 0
      },
      {
        "startTick": 35328,
        "endTick": 35452,
        "pitch": 65,
        "velocity": 122,
        "trackId": 3,
        "channel": 0
      },
      {
        "startTick": 35328,
        "endTick": 35468,
        "pitch": 70,
        "velocity": 120,
        "trackId": 3,
        "channel": 0
      },
      {
        "startTick": 35328,
        "endTick": 35518,
        "pitch": 72,
        "velocity": 100,
        "trackId": 5,
        "channel": 2
      },
      {
        "startTick": 35328,
        "endTick": 35524,
        "pitch": 75,
        "velocity": 96,
        "trackId": 5,
        "channel": 2
      },
      {
        "startTick": 35336,
        "endTick": 35420,
        "pitch": 79,
        "velocity": 123,
        "trackId": 2,
        "channel": 4
      },
      {
        "startTick": 35422,
        "endTick": 35440,
        "pitch": 51,
        "velocity": 120,
        "trackId": 12,
        "channel": 9
      },
      {
        "startTick": 35422,
        "endTick": 35450,
        "pitch": 40,
        "velocity": 124,
        "trackId": 12,
        "channel": 9
      },
      {
        "startTick": 35422,
        "endTick": 35476,
        "pitch": 34,
        "velocity": 125,
        "trackId": 4,
        "channel": 1
      },
      {
        "startTick": 35424,
        "endTick": 35710,
        "pitch": 58,
        "velocity": 117,
        "trackId": 3,
        "channel": 0
      },
      {
        "startTick": 35430,
        "endTick": 35502,
        "pitch": 80,
        "velocity": 123,
        "trackId": 2,
        "channel": 4
      },
      {
        "startTick": 35518,
        "endTick": 35544,
        "pitch": 40,
        "velocity": 124,
        "trackId": 12,
        "channel": 9
      },
      {
        "startTick": 35518,
        "endTick": 35556,
        "pitch": 42,
        "velocity": 121,
        "trackId": 12,
        "channel": 9
      },
      {
        "startTick": 35518,
        "endTick": 35564,
        "pitch": 34,
        "velocity": 123,
        "trackId": 4,
        "channel": 1
      },
      {
        "startTick": 35520,
        "endTick": 35570,
        "pitch": 70,
        "velocity": 117,
        "trackId": 3,
        "channel": 0
      },
      {
        "startTick": 35520,
        "endTick": 35598,
        "pitch": 62,
        "velocity": 122,
        "trackId": 3,
        "channel": 0
      },
      {
        "startTick": 35520,
        "endTick": 35602,
        "pitch": 65,
        "velocity": 122,
        "trackId": 3,
        "channel": 0
      },
      {
        "startTick": 35520,
        "endTick": 35714,
        "pitch": 74,
        "velocity": 95,
        "trackId": 5,
        "channel": 2
      },
      {
        "startTick": 35520,
        "endTick": 35720,
        "pitch": 77,
        "velocity": 96,
        "trackId": 5,
        "channel": 2
      },
      {
        "startTick": 35526,
        "endTick": 35804,
        "pitch": 80,
        "velocity": 123,
        "trackId": 2,
        "channel": 4
      },
      {
        "startTick": 35566,
        "endTick": 35610,
        "pitch": 43,
        "velocity": 123,
        "trackId": 12,
        "channel": 9
      },
      {
        "startTick": 35566,
        "endTick": 35618,
        "pitch": 36,
        "velocity": 124,
        "trackId": 4,
        "channel": 1
      },
      {
        "startTick": 35614,
        "endTick": 35646,
        "pitch": 35,
        "velocity": 124,
        "trackId": 12,
        "channel": 9
      },
      {
        "startTick": 35614,
        "endTick": 35646,
        "pitch": 45,
        "velocity": 122,
        "trackId": 12,
        "channel": 9
      },
      {
        "startTick": 35614,
        "endTick": 35690,
        "pitch": 38,
        "velocity": 125,
        "trackId": 4,
        "channel": 1
      },
      {
        "startTick": 35710,
        "endTick": 35798,
        "pitch": 49,
        "velocity": 122,
        "trackId": 12,
        "channel": 9
      },
      {
        "startTick": 35710,
        "endTick": 35946,
        "pitch": 39,
        "velocity": 122,
        "trackId": 4,
        "channel": 1
      },
      {
        "startTick": 35710,
        "endTick": 35964,
        "pitch": 35,
        "velocity": 123,
        "trackId": 12,
        "channel": 9
      },
      {
        "startTick": 35712,
        "endTick": 35758,
        "pitch": 58,
        "velocity": 123,
        "trackId": 3,
        "channel": 0
      },
      {
        "startTick": 35712,
        "endTick": 35846,
        "pitch": 51,
        "velocity": 123,
        "trackId": 3,
        "channel": 0
      },
      {
        "startTick": 35712,
        "endTick": 35890,
        "pitch": 67,
        "velocity": 122,
        "trackId": 3,
        "channel": 0
      },
      {
        "startTick": 35712,
        "endTick": 35902,
        "pitch": 75,
        "velocity": 98,
        "trackId": 5,
        "channel": 2
      },
      {
        "startTick": 35712,
        "endTick": 36000,
        "pitch": 63,
        "velocity": 122,
        "trackId": 3,
        "channel": 0
      },
      {
        "startTick": 35712,
        "endTick": 36074,
        "pitch": 39,
        "velocity": 122,
        "trackId": 3,
        "channel": 0
      },
      {
        "startTick": 35712,
        "endTick": 36108,
        "pitch": 79,
        "velocity": 102,
        "trackId": 5,
        "channel": 2
      },
      {
        "startTick": 35798,
        "endTick": 36168,
        "pitch": 79,
        "velocity": 123,
        "trackId": 2,
        "channel": 4
      },
      {
        "startTick": 35806,
        "endTick": 35858,
        "pitch": 51,
        "velocity": 120,
        "trackId": 12,
        "channel": 9
      },
      {
        "startTick": 35898,
        "endTick": 35998,
        "pitch": 67,
        "velocity": 122,
        "trackId": 9,
        "channel": 8
      },
      {
        "startTick": 35902,
        "endTick": 35944,
        "pitch": 51,
        "velocity": 122,
        "trackId": 12,
        "channel": 9
      },
      {
        "startTick": 35902,
        "endTick": 36006,
        "pitch": 42,
        "velocity": 122,
        "trackId": 12,
        "channel": 9
      },
      {
        "startTick": 35902,
        "endTick": 36192,
        "pitch": 40,
        "velocity": 124,
        "trackId": 12,
        "channel": 9
      },
      {
        "startTick": 35904,
        "endTick": 36008,
        "pitch": 67,
        "velocity": 122,
        "trackId": 3,
        "channel": 0
      },
      {
        "startTick": 35904,
        "endTick": 36082,
        "pitch": 58,
        "velocity": 122,
        "trackId": 3,
        "channel": 0
      },
      {
        "startTick": 35904,
        "endTick": 36082,
        "pitch": 75,
        "velocity": 74,
        "trackId": 5,
        "channel": 2
      },
      {
        "startTick": 35904,
        "endTick": 36094,
        "pitch": 51,
        "velocity": 123,
        "trackId": 3,
        "channel": 0
      },
      {
        "startTick": 35904,
        "endTick": 36308,
        "pitch": 70,
        "velocity": 87,
        "trackId": 5,
        "channel": 2
      },
      {
        "startTick": 35992,
        "endTick": 36042,
        "pitch": 65,
        "velocity": 124,
        "trackId": 9,
        "channel": 8
      },
      {
        "startTick": 35994,
        "endTick": 36094,
        "pitch": 67,
        "velocity": 117,
        "trackId": 10,
        "channel": 11
      },
      {
        "startTick": 35998,
        "endTick": 36022,
        "pitch": 35,
        "velocity": 118,
        "trackId": 12,
        "channel": 9
      },
      {
        "startTick": 35998,
        "endTick": 36030,
        "pitch": 51,
        "velocity": 120,
        "trackId": 12,
        "channel": 9
      },
      {
        "startTick": 35998,
        "endTick": 36088,
        "pitch": 39,
        "velocity": 120,
        "trackId": 4,
        "channel": 1
      },
      {
        "startTick": 36000,
        "endTick": 36052,
        "pitch": 65,
        "velocity": 122,
        "trackId": 3,
        "channel": 0
      },
      {
        "startTick": 36044,
        "endTick": 36084,
        "pitch": 63,
        "velocity": 124,
        "trackId": 9,
        "channel": 8
      },
      {
        "startTick": 36048,
        "endTick": 36090,
        "pitch": 63,
        "velocity": 112,
        "trackId": 3,
        "channel": 0
      },
      {
        "startTick": 36088,
        "endTick": 36138,
        "pitch": 65,
        "velocity": 119,
        "trackId": 10,
        "channel": 11
      },
      {
        "startTick": 36090,
        "endTick": 36382,
        "pitch": 70,
        "velocity": 124,
        "trackId": 9,
        "channel": 8
      },
      {
        "startTick": 36094,
        "endTick": 36118,
        "pitch": 51,
        "velocity": 123,
        "trackId": 12,
        "channel": 9
      },
      {
        "startTick": 36094,
        "endTick": 36308,
        "pitch": 35,
        "velocity": 123,
        "trackId": 12,
        "channel": 9
      },
      {
        "startTick": 36094,
        "endTick": 36320,
        "pitch": 38,
        "velocity": 123,
        "trackId": 4,
        "channel": 1
      },
      {
        "startTick": 36096,
        "endTick": 36308,
        "pitch": 77,
        "velocity": 89,
        "trackId": 5,
        "channel": 2
      },
      {
        "startTick": 36096,
        "endTick": 36338,
        "pitch": 62,
        "velocity": 123,
        "trackId": 3,
        "channel": 0
      },
      {
        "startTick": 36096,
        "endTick": 36352,
        "pitch": 58,
        "velocity": 102,
        "trackId": 3,
        "channel": 0
      },
      {
        "startTick": 36096,
        "endTick": 36362,
        "pitch": 65,
        "velocity": 123,
        "trackId": 3,
        "channel": 0
      },
      {
        "startTick": 36096,
        "endTick": 36376,
        "pitch": 70,
        "velocity": 122,
        "trackId": 3,
        "channel": 0
      },
      {
        "startTick": 36096,
        "endTick": 36442,
        "pitch": 38,
        "velocity": 123,
        "trackId": 3,
        "channel": 0
      },
      {
        "startTick": 36140,
        "endTick": 36180,
        "pitch": 63,
        "velocity": 119,
        "trackId": 10,
        "channel": 11
      },
      {
        "startTick": 36186,
        "endTick": 36478,
        "pitch": 70,
        "velocity": 119,
        "trackId": 10,
        "channel": 11
      },
      {
        "startTick": 36190,
        "endTick": 36204,
        "pitch": 51,
        "velocity": 119,
        "trackId": 12,
        "channel": 9
      },
      {
        "startTick": 36286,
        "endTick": 36314,
        "pitch": 51,
        "velocity": 123,
        "trackId": 12,
        "channel": 9
      },
      {
        "startTick": 36286,
        "endTick": 36340,
        "pitch": 42,
        "velocity": 123,
        "trackId": 12,
        "channel": 9
      },
      {
        "startTick": 36286,
        "endTick": 36580,
        "pitch": 40,
        "velocity": 124,
        "trackId": 12,
        "channel": 9
      },
      {
        "startTick": 36288,
        "endTick": 36472,
        "pitch": 74,
        "velocity": 89,
        "trackId": 5,
        "channel": 2
      },
      {
        "startTick": 36288,
        "endTick": 36478,
        "pitch": 65,
        "velocity": 82,
        "trackId": 5,
        "channel": 2
      },
      {
        "startTick": 36288,
        "endTick": 36486,
        "pitch": 50,
        "velocity": 122,
        "trackId": 3,
        "channel": 0
      },
      {
        "startTick": 36382,
        "endTick": 36412,
        "pitch": 51,
        "velocity": 118,
        "trackId": 12,
        "channel": 9
      },
      {
        "startTick": 36382,
        "endTick": 36416,
        "pitch": 35,
        "velocity": 114,
        "trackId": 12,
        "channel": 9
      },
      {
        "startTick": 36382,
        "endTick": 36476,
        "pitch": 67,
        "velocity": 124,
        "trackId": 9,
        "channel": 8
      },
      {
        "startTick": 36382,
        "endTick": 36478,
        "pitch": 38,
        "velocity": 124,
        "trackId": 4,
        "channel": 1
      },
      {
        "startTick": 36384,
        "endTick": 36464,
        "pitch": 67,
        "velocity": 122,
        "trackId": 3,
        "channel": 0
      },
      {
        "startTick": 36478,
        "endTick": 36504,
        "pitch": 51,
        "velocity": 123,
        "trackId": 12,
        "channel": 9
      },
      {
        "startTick": 36478,
        "endTick": 36572,
        "pitch": 67,
        "velocity": 119,
        "trackId": 10,
        "channel": 11
      },
      {
        "startTick": 36478,
        "endTick": 36704,
        "pitch": 35,
        "velocity": 124,
        "trackId": 12,
        "channel": 9
      },
      {
        "startTick": 36478,
        "endTick": 36724,
        "pitch": 36,
        "velocity": 122,
        "trackId": 4,
        "channel": 1
      },
      {
        "startTick": 36478,
        "endTick": 36826,
        "pitch": 72,
        "velocity": 124,
        "trackId": 9,
        "channel": 8
      },
      {
        "startTick": 36480,
        "endTick": 36682,
        "pitch": 75,
        "velocity": 77,
        "trackId": 5,
        "channel": 2
      },
      {
        "startTick": 36480,
        "endTick": 36684,
        "pitch": 67,
        "velocity": 89,
        "trackId": 5,
        "channel": 2
      },
      {
        "startTick": 36480,
        "endTick": 36824,
        "pitch": 60,
        "velocity": 122,
        "trackId": 3,
        "channel": 0
      },
      {
        "startTick": 36480,
        "endTick": 36830,
        "pitch": 72,
        "velocity": 122,
        "trackId": 3,
        "channel": 0
      },
      {
        "startTick": 36480,
        "endTick": 36832,
        "pitch": 36,
        "velocity": 123,
        "trackId": 3,
        "channel": 0
      },
      {
        "startTick": 36480,
        "endTick": 36834,
        "pitch": 63,
        "velocity": 122,
        "trackId": 3,
        "channel": 0
      },
      {
        "startTick": 36480,
        "endTick": 36836,
        "pitch": 67,
        "velocity": 123,
        "trackId": 3,
        "channel": 0
      },
      {
        "startTick": 36574,
        "endTick": 36598,
        "pitch": 51,
        "velocity": 114,
        "trackId": 12,
        "channel": 9
      },
      {
        "startTick": 36574,
        "endTick": 36922,
        "pitch": 72,
        "velocity": 119,
        "trackId": 10,
        "channel": 11
      },
      {
        "startTick": 36670,
        "endTick": 36700,
        "pitch": 51,
        "velocity": 123,
        "trackId": 12,
        "channel": 9
      },
      {
        "startTick": 36670,
        "endTick": 36726,
        "pitch": 42,
        "velocity": 122,
        "trackId": 12,
        "channel": 9
      },
      {
        "startTick": 36670,
        "endTick": 36936,
        "pitch": 40,
        "velocity": 124,
        "trackId": 12,
        "channel": 9
      },
      {
        "startTick": 36672,
        "endTick": 36868,
        "pitch": 79,
        "velocity": 92,
        "trackId": 5,
        "channel": 2
      },
      {
        "startTick": 36672,
        "endTick": 36876,
        "pitch": 72,
        "velocity": 77,
        "trackId": 5,
        "channel": 2
      },
      {
        "startTick": 36672,
        "endTick": 37016,
        "pitch": 48,
        "velocity": 121,
        "trackId": 3,
        "channel": 0
      },
      {
        "startTick": 36766,
        "endTick": 36792,
        "pitch": 51,
        "velocity": 115,
        "trackId": 12,
        "channel": 9
      },
      {
        "startTick": 36766,
        "endTick": 36794,
        "pitch": 35,
        "velocity": 114,
        "trackId": 12,
        "channel": 9
      },
      {
        "startTick": 36766,
        "endTick": 36802,
        "pitch": 36,
        "velocity": 119,
        "trackId": 4,
        "channel": 1
      },
      {
        "startTick": 36858,
        "endTick": 36972,
        "pitch": 72,
        "velocity": 124,
        "trackId": 9,
        "channel": 8
      },
      {
        "startTick": 36862,
        "endTick": 36890,
        "pitch": 51,
        "velocity": 122,
        "trackId": 12,
        "channel": 9
      },
      {
        "startTick": 36862,
        "endTick": 37054,
        "pitch": 36,
        "velocity": 122,
        "trackId": 4,
        "channel": 1
      },
      {
        "startTick": 36862,
        "endTick": 37078,
        "pitch": 35,
        "velocity": 124,
        "trackId": 12,
        "channel": 9
      },
      {
        "startTick": 36864,
        "endTick": 36928,
        "pitch": 60,
        "velocity": 123,
        "trackId": 3,
        "channel": 0
      },
      {
        "startTick": 36864,
        "endTick": 36952,
        "pitch": 63,
        "velocity": 123,
        "trackId": 3,
        "channel": 0
      },
      {
        "startTick": 36864,
        "endTick": 36980,
        "pitch": 67,
        "velocity": 123,
        "trackId": 3,
        "channel": 0
      },
      {
        "startTick": 36864,
        "endTick": 37024,
        "pitch": 72,
        "velocity": 123,
        "trackId": 3,
        "channel": 0
      },
      {
        "startTick": 36864,
        "endTick": 37052,
        "pitch": 84,
        "velocity": 78,
        "trackId": 5,
        "channel": 2
      },
      {
        "startTick": 36864,
        "endTick": 37196,
        "pitch": 36,
        "velocity": 123,
        "trackId": 3,
        "channel": 0
      },
      {
        "startTick": 36864,
        "endTick": 37244,
        "pitch": 75,
        "velocity": 86,
        "trackId": 5,
        "channel": 2
      },
      {
        "startTick": 36954,
        "endTick": 37068,
        "pitch": 72,
        "velocity": 119,
        "trackId": 10,
        "channel": 11
      },
      {
        "startTick": 36958,
        "endTick": 36978,
        "pitch": 51,
        "velocity": 115,
        "trackId": 12,
        "channel": 9
      },
      {
        "startTick": 36960,
        "endTick": 37006,
        "pitch": 62,
        "velocity": 122,
        "trackId": 3,
        "channel": 0
      },
      {
        "startTick": 36960,
        "endTick": 37008,
        "pitch": 74,
        "velocity": 124,
        "trackId": 9,
        "channel": 8
      },
      {
        "startTick": 37006,
        "endTick": 37070,
        "pitch": 75,
        "velocity": 124,
        "trackId": 9,
        "channel": 8
      },
      {
        "startTick": 37008,
        "endTick": 37134,
        "pitch": 63,
        "velocity": 119,
        "trackId": 3,
        "channel": 0
      },
      {
        "startTick": 37054,
        "endTick": 37092,
        "pitch": 51,
        "velocity": 122,
        "trackId": 12,
        "channel": 9
      },
      {
        "startTick": 37054,
        "endTick": 37122,
        "pitch": 42,
        "velocity": 124,
        "trackId": 12,
        "channel": 9
      },
      {
        "startTick": 37054,
        "endTick": 37154,
        "pitch": 31,
        "velocity": 122,
        "trackId": 4,
        "channel": 1
      },
      {
        "startTick": 37054,
        "endTick": 37356,
        "pitch": 40,
        "velocity": 123,
        "trackId": 12,
        "channel": 9
      },
      {
        "startTick": 37056,
        "endTick": 37104,
        "pitch": 74,
        "velocity": 119,
        "trackId": 10,
        "channel": 11
      },
      {
        "startTick": 37056,
        "endTick": 37112,
        "pitch": 60,
        "velocity": 123,
        "trackId": 3,
        "channel": 0
      },
      {
        "startTick": 37056,
        "endTick": 37162,
        "pitch": 67,
        "velocity": 123,
        "trackId": 3,
        "channel": 0
      },
      {
        "startTick": 37056,
        "endTick": 37234,
        "pitch": 48,
        "velocity": 121,
        "trackId": 3,
        "channel": 0
      },
      {
        "startTick": 37056,
        "endTick": 37244,
        "pitch": 79,
        "velocity": 84,
        "trackId": 5,
        "channel": 2
      },
      {
        "startTick": 37056,
        "endTick": 37502,
        "pitch": 72,
        "velocity": 122,
        "trackId": 3,
        "channel": 0
      },
      {
        "startTick": 37066,
        "endTick": 37162,
        "pitch": 72,
        "velocity": 124,
        "trackId": 9,
        "channel": 8
      },
      {
        "startTick": 37102,
        "endTick": 37166,
        "pitch": 75,
        "velocity": 119,
        "trackId": 10,
        "channel": 11
      },
      {
        "startTick": 37150,
        "endTick": 37182,
        "pitch": 35,
        "velocity": 118,
        "trackId": 12,
        "channel": 9
      },
      {
        "startTick": 37150,
        "endTick": 37184,
        "pitch": 51,
        "velocity": 121,
        "trackId": 12,
        "channel": 9
      },
      {
        "startTick": 37150,
        "endTick": 37250,
        "pitch": 30,
        "velocity": 120,
        "trackId": 4,
        "channel": 1
      },
      {
        "startTick": 37152,
        "endTick": 37214,
        "pitch": 62,
        "velocity": 119,
        "trackId": 3,
        "channel": 0
      },
      {
        "startTick": 37154,
        "endTick": 37206,
        "pitch": 74,
        "velocity": 124,
        "trackId": 9,
        "channel": 8
      },
      {
        "startTick": 37162,
        "endTick": 37258,
        "pitch": 72,
        "velocity": 119,
        "trackId": 10,
        "channel": 11
      },
      {
        "startTick": 37200,
        "endTick": 37224,
        "pitch": 43,
        "velocity": 118,
        "trackId": 3,
        "channel": 0
      },
      {
        "startTick": 37200,
        "endTick": 37232,
        "pitch": 63,
        "velocity": 114,
        "trackId": 3,
        "channel": 0
      },
      {
        "startTick": 37200,
        "endTick": 37254,
        "pitch": 75,
        "velocity": 124,
        "trackId": 9,
        "channel": 8
      },
      {
        "startTick": 37246,
        "endTick": 37338,
        "pitch": 49,
        "velocity": 123,
        "trackId": 12,
        "channel": 9
      },
      {
        "startTick": 37246,
        "endTick": 37470,
        "pitch": 35,
        "velocity": 124,
        "trackId": 12,
        "channel": 9
      },
      {
        "startTick": 37246,
        "endTick": 37530,
        "pitch": 29,
        "velocity": 123,
        "trackId": 4,
        "channel": 1
      },
      {
        "startTick": 37248,
        "endTick": 37452,
        "pitch": 77,
        "velocity": 89,
        "trackId": 5,
        "channel": 2
      },
      {
        "startTick": 37248,
        "endTick": 37514,
        "pitch": 41,
        "velocity": 122,
        "trackId": 3,
        "channel": 0
      },
      {
        "startTick": 37248,
        "endTick": 37514,
        "pitch": 65,
        "velocity": 121,
        "trackId": 3,
        "channel": 0
      },
      {
        "startTick": 37248,
        "endTick": 37626,
        "pitch": 68,
        "velocity": 121,
        "trackId": 3,
        "channel": 0
      },
      {
        "startTick": 37248,
        "endTick": 38024,
        "pitch": 80,
        "velocity": 84,
        "trackId": 5,
        "channel": 2
      },
      {
        "startTick": 37250,
        "endTick": 37302,
        "pitch": 74,
        "velocity": 119,
        "trackId": 10,
        "channel": 11
      },
      {
        "startTick": 37258,
        "endTick": 37540,
        "pitch": 77,
        "velocity": 124,
        "trackId": 9,
        "channel": 8
      },
      {
        "startTick": 37296,
        "endTick": 37350,
        "pitch": 75,
        "velocity": 119,
        "trackId": 10,
        "channel": 11
      },
      {
        "startTick": 37342,
        "endTick": 37370,
        "pitch": 51,
        "velocity": 120,
        "trackId": 12,
        "channel": 9
      },
      {
        "startTick": 37354,
        "endTick": 37636,
        "pitch": 77,
        "velocity": 119,
        "trackId": 10,
        "channel": 11
      },
      {
        "startTick": 37438,
        "endTick": 37510,
        "pitch": 42,
        "velocity": 123,
        "trackId": 12,
        "channel": 9
      },
      {
        "startTick": 37438,
        "endTick": 37540,
        "pitch": 51,
        "velocity": 124,
        "trackId": 12,
        "channel": 9
      },
      {
        "startTick": 37438,
        "endTick": 37708,
        "pitch": 40,
        "velocity": 124,
        "trackId": 12,
        "channel": 9
      },
      {
        "startTick": 37440,
        "endTick": 37512,
        "pitch": 53,
        "velocity": 122,
        "trackId": 3,
        "channel": 0
      },
      {
        "startTick": 37440,
        "endTick": 37634,
        "pitch": 76,
        "velocity": 94,
        "trackId": 5,
        "channel": 2
      },
      {
        "startTick": 37534,
        "endTick": 37560,
        "pitch": 35,
        "velocity": 120,
        "trackId": 12,
        "channel": 9
      },
      {
        "startTick": 37534,
        "endTick": 37588,
        "pitch": 41,
        "velocity": 122,
        "trackId": 4,
        "channel": 1
      },
      {
        "startTick": 37536,
        "endTick": 37602,
        "pitch": 64,
        "velocity": 123,
        "trackId": 3,
        "channel": 0
      },
      {
        "startTick": 37536,
        "endTick": 37620,
        "pitch": 72,
        "velocity": 123,
        "trackId": 3,
        "channel": 0
      },
      {
        "startTick": 37536,
        "endTick": 37636,
        "pitch": 52,
        "velocity": 122,
        "trackId": 3,
        "channel": 0
      },
      {
        "startTick": 37536,
        "endTick": 37638,
        "pitch": 40,
        "velocity": 123,
        "trackId": 3,
        "channel": 0
      },
      {
        "startTick": 37536,
        "endTick": 37806,
        "pitch": 60,
        "velocity": 123,
        "trackId": 3,
        "channel": 0
      },
      {
        "startTick": 37542,
        "endTick": 37612,
        "pitch": 72,
        "velocity": 124,
        "trackId": 9,
        "channel": 8
      },
      {
        "startTick": 37582,
        "endTick": 37644,
        "pitch": 40,
        "velocity": 121,
        "trackId": 4,
        "channel": 1
      },
      {
        "startTick": 37622,
        "endTick": 37680,
        "pitch": 77,
        "velocity": 124,
        "trackId": 9,
        "channel": 8
      },
      {
        "startTick": 37630,
        "endTick": 37650,
        "pitch": 51,
        "velocity": 123,
        "trackId": 12,
        "channel": 9
      },
      {
        "startTick": 37630,
        "endTick": 37812,
        "pitch": 39,
        "velocity": 123,
        "trackId": 4,
        "channel": 1
      },
      {
        "startTick": 37630,
        "endTick": 37916,
        "pitch": 35,
        "velocity": 123,
        "trackId": 12,
        "channel": 9
      },
      {
        "startTick": 37632,
        "endTick": 37782,
        "pitch": 72,
        "velocity": 123,
        "trackId": 3,
        "channel": 0
      },
      {
        "startTick": 37632,
        "endTick": 37784,
        "pitch": 63,
        "velocity": 123,
        "trackId": 3,
        "channel": 0
      },
      {
        "startTick": 37632,
        "endTick": 37836,
        "pitch": 39,
        "velocity": 123,
        "trackId": 3,
        "channel": 0
      },
      {
        "startTick": 37632,
        "endTick": 37836,
        "pitch": 75,
        "velocity": 84,
        "trackId": 5,
        "channel": 2
      },
      {
        "startTick": 37632,
        "endTick": 37962,
        "pitch": 68,
        "velocity": 123,
        "trackId": 3,
        "channel": 0
      },
      {
        "startTick": 37638,
        "endTick": 37708,
        "pitch": 72,
        "velocity": 119,
        "trackId": 10,
        "channel": 11
      },
      {
        "startTick": 37680,
        "endTick": 37716,
        "pitch": 79,
        "velocity": 123,
        "trackId": 9,
        "channel": 8
      },
      {
        "startTick": 37718,
        "endTick": 37776,
        "pitch": 77,
        "velocity": 119,
        "trackId": 10,
        "channel": 11
      },
      {
        "startTick": 37736,
        "endTick": 37764,
        "pitch": 80,
        "velocity": 124,
        "trackId": 9,
        "channel": 8
      },
      {
        "startTick": 37776,
        "endTick": 37798,
        "pitch": 82,
        "velocity": 124,
        "trackId": 9,
        "channel": 8
      },
      {
        "startTick": 37776,
        "endTick": 37812,
        "pitch": 79,
        "velocity": 118,
        "trackId": 10,
        "channel": 11
      },
      {
        "startTick": 37820,
        "endTick": 38132,
        "pitch": 82,
        "velocity": 124,
        "trackId": 9,
        "channel": 8
      },
      {
        "startTick": 37822,
        "endTick": 37864,
        "pitch": 51,
        "velocity": 123,
        "trackId": 12,
        "channel": 9
      },
      {
        "startTick": 37822,
        "endTick": 37896,
        "pitch": 42,
        "velocity": 123,
        "trackId": 12,
        "channel": 9
      },
      {
        "startTick": 37822,
        "endTick": 38024,
        "pitch": 38,
        "velocity": 125,
        "trackId": 4,
        "channel": 1
      },
      {
        "startTick": 37822,
        "endTick": 38116,
        "pitch": 40,
        "velocity": 124,
        "trackId": 12,
        "channel": 9
      },
      {
        "startTick": 37824,
        "endTick": 37902,
        "pitch": 72,
        "velocity": 123,
        "trackId": 3,
        "channel": 0
      },
      {
        "startTick": 37824,
        "endTick": 37922,
        "pitch": 50,
        "velocity": 123,
        "trackId": 3,
        "channel": 0
      },
      {
        "startTick": 37824,
        "endTick": 37924,
        "pitch": 60,
        "velocity": 123,
        "trackId": 3,
        "channel": 0
      },
      {
        "startTick": 37824,
        "endTick": 37996,
        "pitch": 62,
        "velocity": 123,
        "trackId": 3,
        "channel": 0
      },
      {
        "startTick": 37824,
        "endTick": 38008,
        "pitch": 74,
        "velocity": 87,
        "trackId": 5,
        "channel": 2
      },
      {
        "startTick": 37832,
        "endTick": 37860,
        "pitch": 80,
        "velocity": 119,
        "trackId": 10,
        "channel": 11
      },
      {
        "startTick": 37872,
        "endTick": 37894,
        "pitch": 82,
        "velocity": 119,
        "trackId": 10,
        "channel": 11
      },
      {
        "startTick": 37916,
        "endTick": 38228,
        "pitch": 82,
        "velocity": 119,
        "trackId": 10,
        "channel": 11
      },
      {
        "startTick": 37918,
        "endTick": 37944,
        "pitch": 51,
        "velocity": 120,
        "trackId": 12,
        "channel": 9
      },
      {
        "startTick": 38014,
        "endTick": 38060,
        "pitch": 49,
        "velocity": 123,
        "trackId": 12,
        "channel": 9
      },
      {
        "startTick": 38014,
        "endTick": 38230,
        "pitch": 35,
        "velocity": 124,
        "trackId": 12,
        "channel": 9
      },
      {
        "startTick": 38014,
        "endTick": 38272,
        "pitch": 34,
        "velocity": 125,
        "trackId": 4,
        "channel": 1
      },
      {
        "startTick": 38016,
        "endTick": 38158,
        "pitch": 46,
        "velocity": 123,
        "trackId": 3,
        "channel": 0
      },
      {
        "startTick": 38016,
        "endTick": 38212,
        "pitch": 34,
        "velocity": 123,
        "trackId": 3,
        "channel": 0
      },
      {
        "startTick": 38016,
        "endTick": 38250,
        "pitch": 70,
        "velocity": 84,
        "trackId": 5,
        "channel": 2
      },
      {
        "startTick": 38016,
        "endTick": 38264,
        "pitch": 58,
        "velocity": 123,
        "trackId": 3,
        "channel": 0
      },
      {
        "startTick": 38016,
        "endTick": 38386,
        "pitch": 62,
        "velocity": 123,
        "trackId": 3,
        "channel": 0
      },
      {
        "startTick": 38016,
        "endTick": 38430,
        "pitch": 65,
        "velocity": 123,
        "trackId": 3,
        "channel": 0
      },
      {
        "startTick": 38016,
        "endTick": 38522,
        "pitch": 70,
        "velocity": 123,
        "trackId": 3,
        "channel": 0
      },
      {
        "startTick": 38016,
        "endTick": 38608,
        "pitch": 82,
        "velocity": 83,
        "trackId": 5,
        "channel": 2
      },
      {
        "startTick": 38110,
        "endTick": 38142,
        "pitch": 51,
        "velocity": 117,
        "trackId": 12,
        "channel": 9
      },
      {
        "startTick": 38128,
        "endTick": 38160,
        "pitch": 80,
        "velocity": 124,
        "trackId": 9,
        "channel": 8
      },
      {
        "startTick": 38162,
        "endTick": 38204,
        "pitch": 82,
        "velocity": 124,
        "trackId": 9,
        "channel": 8
      },
      {
        "startTick": 38196,
        "endTick": 38226,
        "pitch": 80,
        "velocity": 124,
        "trackId": 9,
        "channel": 8
      },
      {
        "startTick": 38206,
        "endTick": 38246,
        "pitch": 51,
        "velocity": 123,
        "trackId": 12,
        "channel": 9
      },
      {
        "startTick": 38206,
        "endTick": 38274,
        "pitch": 42,
        "velocity": 124,
        "trackId": 12,
        "channel": 9
      },
      {
        "startTick": 38206,
        "endTick": 38460,
        "pitch": 40,
        "velocity": 123,
        "trackId": 12,
        "channel": 9
      },
      {
        "startTick": 38208,
        "endTick": 38240,
        "pitch": 76,
        "velocity": 89,
        "trackId": 5,
        "channel": 2
      },
      {
        "startTick": 38208,
        "endTick": 38248,
        "pitch": 75,
        "velocity": 89,
        "trackId": 5,
        "channel": 2
      },
      {
        "startTick": 38208,
        "endTick": 38382,
        "pitch": 72,
        "velocity": 97,
        "trackId": 5,
        "channel": 2
      },
      {
        "startTick": 38208,
        "endTick": 38540,
        "pitch": 46,
        "velocity": 120,
        "trackId": 3,
        "channel": 0
      },
      {
        "startTick": 38224,
        "endTick": 38256,
        "pitch": 80,
        "velocity": 119,
        "trackId": 10,
        "channel": 11
      },
      {
        "startTick": 38226,
        "endTick": 38260,
        "pitch": 79,
        "velocity": 124,
        "trackId": 9,
        "channel": 8
      },
      {
        "startTick": 38256,
        "endTick": 38360,
        "pitch": 75,
        "velocity": 42,
        "trackId": 5,
        "channel": 2
      },
      {
        "startTick": 38258,
        "endTick": 38300,
        "pitch": 82,
        "velocity": 119,
        "trackId": 10,
        "channel": 11
      },
      {
        "startTick": 38260,
        "endTick": 38290,
        "pitch": 80,
        "velocity": 124,
        "trackId": 9,
        "channel": 8
      },
      {
        "startTick": 38286,
        "endTick": 38320,
        "pitch": 79,
        "velocity": 124,
        "trackId": 9,
        "channel": 8
      },
      {
        "startTick": 38292,
        "endTick": 38322,
        "pitch": 80,
        "velocity": 119,
        "trackId": 10,
        "channel": 11
      },
      {
        "startTick": 38302,
        "endTick": 38328,
        "pitch": 51,
        "velocity": 120,
        "trackId": 12,
        "channel": 9
      },
      {
        "startTick": 38302,
        "endTick": 38344,
        "pitch": 35,
        "velocity": 119,
        "trackId": 12,
        "channel": 9
      },
      {
        "startTick": 38302,
        "endTick": 38346,
        "pitch": 34,
        "velocity": 119,
        "trackId": 4,
        "channel": 1
      },
      {
        "startTick": 38304,
        "endTick": 38382,
        "pitch": 34,
        "velocity": 119,
        "trackId": 3,
        "channel": 0
      },
      {
        "startTick": 38304,
        "endTick": 38578,
        "pitch": 58,
        "velocity": 118,
        "trackId": 3,
        "channel": 0
      },
      {
        "startTick": 38318,
        "endTick": 38346,
        "pitch": 77,
        "velocity": 124,
        "trackId": 9,
        "channel": 8
      },
      {
        "startTick": 38322,
        "endTick": 38356,
        "pitch": 79,
        "velocity": 119,
        "trackId": 10,
        "channel": 11
      },
      {
        "startTick": 38340,
        "endTick": 38378,
        "pitch": 79,
        "velocity": 124,
        "trackId": 9,
        "channel": 8
      },
      {
        "startTick": 38356,
        "endTick": 38386,
        "pitch": 80,
        "velocity": 119,
        "trackId": 10,
        "channel": 11
      },
      {
        "startTick": 38366,
        "endTick": 38400,
        "pitch": 77,
        "velocity": 124,
        "trackId": 9,
        "channel": 8
      },
      {
        "startTick": 38382,
        "endTick": 38416,
        "pitch": 79,
        "velocity": 119,
        "trackId": 10,
        "channel": 11
      },
      {
        "startTick": 38398,
        "endTick": 38430,
        "pitch": 51,
        "velocity": 123,
        "trackId": 12,
        "channel": 9
      },
      {
        "startTick": 38398,
        "endTick": 38432,
        "pitch": 75,
        "velocity": 124,
        "trackId": 9,
        "channel": 8
      },
      {
        "startTick": 38398,
        "endTick": 38602,
        "pitch": 35,
        "velocity": 122,
        "trackId": 12,
        "channel": 9
      },
      {
        "startTick": 38398,
        "endTick": 38642,
        "pitch": 34,
        "velocity": 123,
        "trackId": 4,
        "channel": 1
      },
      {
        "startTick": 38400,
        "endTick": 38606,
        "pitch": 34,
        "velocity": 117,
        "trackId": 3,
        "channel": 0
      },
      {
        "startTick": 38400,
        "endTick": 38632,
        "pitch": 62,
        "velocity": 120,
        "trackId": 3,
        "channel": 0
      },
      {
        "startTick": 38400,
        "endTick": 38780,
        "pitch": 77,
        "velocity": 89,
        "trackId": 5,
        "channel": 2
      },
      {
        "startTick": 38400,
        "endTick": 38782,
        "pitch": 74,
        "velocity": 92,
        "trackId": 5,
        "channel": 2
      },
      {
        "startTick": 38414,
        "endTick": 38442,
        "pitch": 77,
        "velocity": 119,
        "trackId": 10,
        "channel": 11
      },
      {
        "startTick": 38432,
        "endTick": 38458,
        "pitch": 77,
        "velocity": 124,
        "trackId": 9,
        "channel": 8
      },
      {
        "startTick": 38436,
        "endTick": 38474,
        "pitch": 79,
        "velocity": 119,
        "trackId": 10,
        "channel": 11
      },
      {
        "startTick": 38454,
        "endTick": 38486,
        "pitch": 75,
        "velocity": 124,
        "trackId": 9,
        "channel": 8
      },
      {
        "startTick": 38462,
        "endTick": 38496,
        "pitch": 77,
        "velocity": 119,
        "trackId": 10,
        "channel": 11
      },
      {
        "startTick": 38482,
        "endTick": 38502,
        "pitch": 74,
        "velocity": 124,
        "trackId": 9,
        "channel": 8
      },
      {
        "startTick": 38494,
        "endTick": 38518,
        "pitch": 40,
        "velocity": 123,
        "trackId": 12,
        "channel": 9
      },
      {
        "startTick": 38494,
        "endTick": 38524,
        "pitch": 51,
        "velocity": 122,
        "trackId": 12,
        "channel": 9
      },
      {
        "startTick": 38494,
        "endTick": 38528,
        "pitch": 75,
        "velocity": 119,
        "trackId": 10,
        "channel": 11
      },
      {
        "startTick": 38494,
        "endTick": 38552,
        "pitch": 42,
        "velocity": 123,
        "trackId": 12,
        "channel": 9
      },
      {
        "startTick": 38496,
        "endTick": 38604,
        "pitch": 65,
        "velocity": 120,
        "trackId": 3,
        "channel": 0
      },
      {
        "startTick": 38502,
        "endTick": 38530,
        "pitch": 75,
        "velocity": 124,
        "trackId": 9,
        "channel": 8
      },
      {
        "startTick": 38526,
        "endTick": 38550,
        "pitch": 74,
        "velocity": 124,
        "trackId": 9,
        "channel": 8
      },
      {
        "startTick": 38528,
        "endTick": 38554,
        "pitch": 77,
        "velocity": 119,
        "trackId": 10,
        "channel": 11
      },
      {
        "startTick": 38550,
        "endTick": 38582,
        "pitch": 75,
        "velocity": 119,
        "trackId": 10,
        "channel": 11
      },
      {
        "startTick": 38552,
        "endTick": 38592,
        "pitch": 72,
        "velocity": 124,
        "trackId": 9,
        "channel": 8
      },
      {
        "startTick": 38578,
        "endTick": 38598,
        "pitch": 74,
        "velocity": 119,
        "trackId": 10,
        "channel": 11
      },
      {
        "startTick": 38584,
        "endTick": 38774,
        "pitch": 70,
        "velocity": 124,
        "trackId": 9,
        "channel": 8
      },
      {
        "startTick": 38590,
        "endTick": 38624,
        "pitch": 40,
        "velocity": 123,
        "trackId": 12,
        "channel": 9
      },
      {
        "startTick": 38592,
        "endTick": 38740,
        "pitch": 46,
        "velocity": 122,
        "trackId": 3,
        "channel": 0
      },
      {
        "startTick": 38592,
        "endTick": 38750,
        "pitch": 70,
        "velocity": 120,
        "trackId": 3,
        "channel": 0
      },
      {
        "startTick": 38592,
        "endTick": 38756,
        "pitch": 58,
        "velocity": 120,
        "trackId": 3,
        "channel": 0
      },
      {
        "startTick": 38592,
        "endTick": 38786,
        "pitch": 80,
        "velocity": 82,
        "trackId": 5,
        "channel": 2
      },
      {
        "startTick": 38598,
        "endTick": 38626,
        "pitch": 75,
        "velocity": 119,
        "trackId": 10,
        "channel": 11
      },
      {
        "startTick": 38622,
        "endTick": 38646,
        "pitch": 74,
        "velocity": 119,
        "trackId": 10,
        "channel": 11
      },
      {
        "startTick": 38638,
        "endTick": 38666,
        "pitch": 51,
        "velocity": 123,
        "trackId": 12,
        "channel": 9
      },
      {
        "startTick": 38638,
        "endTick": 38684,
        "pitch": 43,
        "velocity": 122,
        "trackId": 12,
        "channel": 9
      },
      {
        "startTick": 38638,
        "endTick": 38688,
        "pitch": 36,
        "velocity": 121,
        "trackId": 4,
        "channel": 1
      },
      {
        "startTick": 38640,
        "endTick": 38778,
        "pitch": 65,
        "velocity": 107,
        "trackId": 3,
        "channel": 0
      },
      {
        "startTick": 38648,
        "endTick": 38688,
        "pitch": 72,
        "velocity": 119,
        "trackId": 10,
        "channel": 11
      },
      {
        "startTick": 38680,
        "endTick": 38870,
        "pitch": 70,
        "velocity": 119,
        "trackId": 10,
        "channel": 11
      },
      {
        "startTick": 38686,
        "endTick": 38708,
        "pitch": 42,
        "velocity": 123,
        "trackId": 12,
        "channel": 9
      },
      {
        "startTick": 38686,
        "endTick": 38724,
        "pitch": 35,
        "velocity": 123,
        "trackId": 12,
        "channel": 9
      },
      {
        "startTick": 38686,
        "endTick": 38776,
        "pitch": 45,
        "velocity": 122,
        "trackId": 12,
        "channel": 9
      },
      {
        "startTick": 38686,
        "endTick": 38788,
        "pitch": 38,
        "velocity": 124,
        "trackId": 4,
        "channel": 1
      },
      {
        "startTick": 38688,
        "endTick": 38718,
        "pitch": 34,
        "velocity": 116,
        "trackId": 3,
        "channel": 0
      },
      {
        "startTick": 38782,
        "endTick": 38910,
        "pitch": 49,
        "velocity": 123,
        "trackId": 12,
        "channel": 9
      },
      {
        "startTick": 38782,
        "endTick": 38944,
        "pitch": 39,
        "velocity": 123,
        "trackId": 4,
        "channel": 1
      },
      {
        "startTick": 38782,
        "endTick": 38996,
        "pitch": 35,
        "velocity": 123,
        "trackId": 12,
        "channel": 9
      },
      {
        "startTick": 38784,
        "endTick": 38992,
        "pitch": 79,
        "velocity": 88,
        "trackId": 5,
        "channel": 2
      },
      {
        "startTick": 38784,
        "endTick": 39030,
        "pitch": 58,
        "velocity": 123,
        "trackId": 3,
        "channel": 0
      },
      {
        "startTick": 38784,
        "endTick": 39036,
        "pitch": 39,
        "velocity": 123,
        "trackId": 3,
        "channel": 0
      },
      {
        "startTick": 38784,
        "endTick": 39038,
        "pitch": 70,
        "velocity": 123,
        "trackId": 3,
        "channel": 0
      },
      {
        "startTick": 38784,
        "endTick": 39042,
        "pitch": 67,
        "velocity": 123,
        "trackId": 3,
        "channel": 0
      },
      {
        "startTick": 38784,
        "endTick": 39054,
        "pitch": 63,
        "velocity": 123,
        "trackId": 3,
        "channel": 0
      },
      {
        "startTick": 38784,
        "endTick": 39168,
        "pitch": 75,
        "velocity": 83,
        "trackId": 5,
        "channel": 2
      },
      {
        "startTick": 38846,
        "endTick": 38886,
        "pitch": 70,
        "velocity": 124,
        "trackId": 9,
        "channel": 8
      },
      {
        "startTick": 38890,
        "endTick": 38940,
        "pitch": 72,
        "velocity": 124,
        "trackId": 9,
        "channel": 8
      },
      {
        "startTick": 38930,
        "endTick": 38962,
        "pitch": 74,
        "velocity": 124,
        "trackId": 9,
        "channel": 8
      },
      {
        "startTick": 38942,
        "endTick": 38982,
        "pitch": 70,
        "velocity": 119,
        "trackId": 10,
        "channel": 11
      },
      {
        "startTick": 38970,
        "endTick": 38998,
        "pitch": 75,
        "velocity": 124,
        "trackId": 9,
        "channel": 8
      },
      {
        "startTick": 38974,
        "endTick": 39028,
        "pitch": 39,
        "velocity": 119,
        "trackId": 4,
        "channel": 1
      },
      {
        "startTick": 38974,
        "endTick": 39030,
        "pitch": 51,
        "velocity": 123,
        "trackId": 12,
        "channel": 9
      },
      {
        "startTick": 38974,
        "endTick": 39062,
        "pitch": 42,
        "velocity": 123,
        "trackId": 12,
        "channel": 9
      },
      {
        "startTick": 38974,
        "endTick": 39270,
        "pitch": 40,
        "velocity": 124,
        "trackId": 12,
        "channel": 9
      },
      {
        "startTick": 38976,
        "endTick": 39168,
        "pitch": 82,
        "velocity": 90,
        "trackId": 5,
        "channel": 2
      },
      {
        "startTick": 38976,
        "endTick": 39170,
        "pitch": 51,
        "velocity": 120,
        "trackId": 3,
        "channel": 0
      },
      {
        "startTick": 38986,
        "endTick": 39036,
        "pitch": 72,
        "velocity": 119,
        "trackId": 10,
        "channel": 11
      },
      {
        "startTick": 39006,
        "endTick": 39044,
        "pitch": 77,
        "velocity": 124,
        "trackId": 9,
        "channel": 8
      },
      {
        "startTick": 39026,
        "endTick": 39058,
        "pitch": 74,
        "velocity": 119,
        "trackId": 10,
        "channel": 11
      },
      {
        "startTick": 39038,
        "endTick": 39068,
        "pitch": 79,
        "velocity": 124,
        "trackId": 9,
        "channel": 8
      },
      {
        "startTick": 39066,
        "endTick": 39094,
        "pitch": 75,
        "velocity": 119,
        "trackId": 10,
        "channel": 11
      },
      {
        "startTick": 39070,
        "endTick": 39096,
        "pitch": 51,
        "velocity": 121,
        "trackId": 12,
        "channel": 9
      },
      {
        "startTick": 39070,
        "endTick": 39108,
        "pitch": 35,
        "velocity": 116,
        "trackId": 12,
        "channel": 9
      },
      {
        "startTick": 39070,
        "endTick": 39168,
        "pitch": 39,
        "velocity": 122,
        "trackId": 4,
        "channel": 1
      },
      {
        "startTick": 39072,
        "endTick": 39104,
        "pitch": 80,
        "velocity": 124,
        "trackId": 9,
        "channel": 8
      },
      {
        "startTick": 39072,
        "endTick": 39148,
        "pitch": 39,
        "velocity": 122,
        "trackId": 3,
        "channel": 0
      },
      {
        "startTick": 39072,
        "endTick": 39158,
        "pitch": 63,
        "velocity": 120,
        "trackId": 3,
        "channel": 0
      },
      {
        "startTick": 39072,
        "endTick": 39162,
        "pitch": 67,
        "velocity": 120,
        "trackId": 3,
        "channel": 0
      },
      {
        "startTick": 39072,
        "endTick": 39250,
        "pitch": 58,
        "velocity": 123,
        "trackId": 3,
        "channel": 0
      },
      {
        "startTick": 39072,
        "endTick": 39394,
        "pitch": 70,
        "velocity": 122,
        "trackId": 3,
        "channel": 0
      },
      {
        "startTick": 39102,
        "endTick": 39140,
        "pitch": 77,
        "velocity": 119,
        "trackId": 10,
        "channel": 11
      },
      {
        "startTick": 39102,
        "endTick": 39232,
        "pitch": 82,
        "velocity": 124,
        "trackId": 9,
        "channel": 8
      },
      {
        "startTick": 39134,
        "endTick": 39164,
        "pitch": 79,
        "velocity": 119,
        "trackId": 10,
        "channel": 11
      },
      {
        "startTick": 39166,
        "endTick": 39214,
        "pitch": 49,
        "velocity": 123,
        "trackId": 12,
        "channel": 9
      },
      {
        "startTick": 39166,
        "endTick": 39346,
        "pitch": 38,
        "velocity": 125,
        "trackId": 4,
        "channel": 1
      },
      {
        "startTick": 39166,
        "endTick": 39386,
        "pitch": 35,
        "velocity": 123,
        "trackId": 12,
        "channel": 9
      },
      {
        "startTick": 39168,
        "endTick": 39200,
        "pitch": 80,
        "velocity": 119,
        "trackId": 10,
        "channel": 11
      },
      {
        "startTick": 39168,
        "endTick": 39272,
        "pitch": 62,
        "velocity": 123,
        "trackId": 3,
        "channel": 0
      },
      {
        "startTick": 39168,
        "endTick": 39326,
        "pitch": 65,
        "velocity": 123,
        "trackId": 3,
        "channel": 0
      },
      {
        "startTick": 39168,
        "endTick": 39380,
        "pitch": 38,
        "velocity": 121,
        "trackId": 3,
        "channel": 0
      },
      {
        "startTick": 39168,
        "endTick": 39562,
        "pitch": 77,
        "velocity": 78,
        "trackId": 5,
        "channel": 2
      },
      {
        "startTick": 39168,
        "endTick": 39572,
        "pitch": 74,
        "velocity": 92,
        "trackId": 5,
        "channel": 2
      },
      {
        "startTick": 39198,
        "endTick": 39328,
        "pitch": 82,
        "velocity": 119,
        "trackId": 10,
        "channel": 11
      },
      {
        "startTick": 39230,
        "endTick": 39256,
        "pitch": 70,
        "velocity": 124,
        "trackId": 9,
        "channel": 8
      },
      {
        "startTick": 39262,
        "endTick": 39292,
        "pitch": 51,
        "velocity": 120,
        "trackId": 12,
        "channel": 9
      },
      {
        "startTick": 39262,
        "endTick": 39308,
        "pitch": 72,
        "velocity": 124,
        "trackId": 9,
        "channel": 8
      },
      {
        "startTick": 39264,
        "endTick": 39378,
        "pitch": 58,
        "velocity": 117,
        "trackId": 3,
        "channel": 0
      },
      {
        "startTick": 39300,
        "endTick": 39332,
        "pitch": 74,
        "velocity": 124,
        "trackId": 9,
        "channel": 8
      },
      {
        "startTick": 39312,
        "endTick": 39460,
        "pitch": 62,
        "velocity": 110,
        "trackId": 3,
        "channel": 0
      },
      {
        "startTick": 39326,
        "endTick": 39352,
        "pitch": 70,
        "velocity": 119,
        "trackId": 10,
        "channel": 11
      },
      {
        "startTick": 39336,
        "endTick": 39366,
        "pitch": 75,
        "velocity": 124,
        "trackId": 9,
        "channel": 8
      },
      {
        "startTick": 39358,
        "endTick": 39388,
        "pitch": 38,
        "velocity": 121,
        "trackId": 4,
        "channel": 1
      },
      {
        "startTick": 39358,
        "endTick": 39396,
        "pitch": 51,
        "velocity": 123,
        "trackId": 12,
        "channel": 9
      },
      {
        "startTick": 39358,
        "endTick": 39404,
        "pitch": 72,
        "velocity": 119,
        "trackId": 10,
        "channel": 11
      },
      {
        "startTick": 39358,
        "endTick": 39438,
        "pitch": 42,
        "velocity": 123,
        "trackId": 12,
        "channel": 9
      },
      {
        "startTick": 39358,
        "endTick": 39654,
        "pitch": 40,
        "velocity": 124,
        "trackId": 12,
        "channel": 9
      },
      {
        "startTick": 39360,
        "endTick": 39542,
        "pitch": 82,
        "velocity": 78,
        "trackId": 5,
        "channel": 2
      },
      {
        "startTick": 39360,
        "endTick": 39552,
        "pitch": 50,
        "velocity": 123,
        "trackId": 3,
        "channel": 0
      },
      {
        "startTick": 39370,
        "endTick": 39416,
        "pitch": 77,
        "velocity": 124,
        "trackId": 9,
        "channel": 8
      },
      {
        "startTick": 39396,
        "endTick": 39428,
        "pitch": 74,
        "velocity": 119,
        "trackId": 10,
        "channel": 11
      },
      {
        "startTick": 39408,
        "endTick": 39440,
        "pitch": 79,
        "velocity": 124,
        "trackId": 9,
        "channel": 8
      },
      {
        "startTick": 39408,
        "endTick": 39472,
        "pitch": 65,
        "velocity": 123,
        "trackId": 3,
        "channel": 0
      },
      {
        "startTick": 39408,
        "endTick": 39500,
        "pitch": 70,
        "velocity": 122,
        "trackId": 3,
        "channel": 0
      },
      {
        "startTick": 39408,
        "endTick": 39516,
        "pitch": 58,
        "velocity": 122,
        "trackId": 3,
        "channel": 0
      },
      {
        "startTick": 39432,
        "endTick": 39462,
        "pitch": 75,
        "velocity": 119,
        "trackId": 10,
        "channel": 11
      },
      {
        "startTick": 39446,
        "endTick": 39476,
        "pitch": 80,
        "velocity": 124,
        "trackId": 9,
        "channel": 8
      },
      {
        "startTick": 39454,
        "endTick": 39478,
        "pitch": 51,
        "velocity": 122,
        "trackId": 12,
        "channel": 9
      },
      {
        "startTick": 39454,
        "endTick": 39498,
        "pitch": 35,
        "velocity": 121,
        "trackId": 12,
        "channel": 9
      },
      {
        "startTick": 39454,
        "endTick": 39566,
        "pitch": 38,
        "velocity": 125,
        "trackId": 4,
        "channel": 1
      },
      {
        "startTick": 39456,
        "endTick": 39554,
        "pitch": 43,
        "velocity": 116,
        "trackId": 3,
        "channel": 0
      },
      {
        "startTick": 39466,
        "endTick": 39512,
        "pitch": 77,
        "velocity": 119,
        "trackId": 10,
        "channel": 11
      },
      {
        "startTick": 39480,
        "endTick": 39840,
        "pitch": 82,
        "velocity": 124,
        "trackId": 9,
        "channel": 8
      },
      {
        "startTick": 39504,
        "endTick": 39516,
        "pitch": 67,
        "velocity": 112,
        "trackId": 3,
        "channel": 0
      },
      {
        "startTick": 39504,
        "endTick": 39536,
        "pitch": 79,
        "velocity": 119,
        "trackId": 10,
        "channel": 11
      },
      {
        "startTick": 39542,
        "endTick": 39572,
        "pitch": 80,
        "velocity": 119,
        "trackId": 10,
        "channel": 11
      },
      {
        "startTick": 39550,
        "endTick": 39606,
        "pitch": 49,
        "velocity": 123,
        "trackId": 12,
        "channel": 9
      },
      {
        "startTick": 39550,
        "endTick": 39778,
        "pitch": 35,
        "velocity": 124,
        "trackId": 12,
        "channel": 9
      },
      {
        "startTick": 39550,
        "endTick": 39822,
        "pitch": 36,
        "velocity": 125,
        "trackId": 4,
        "channel": 1
      },
      {
        "startTick": 39552,
        "endTick": 39756,
        "pitch": 60,
        "velocity": 123,
        "trackId": 3,
        "channel": 0
      },
      {
        "startTick": 39552,
        "endTick": 39816,
        "pitch": 63,
        "velocity": 123,
        "trackId": 3,
        "channel": 0
      },
      {
        "startTick": 39552,
        "endTick": 39846,
        "pitch": 67,
        "velocity": 123,
        "trackId": 3,
        "channel": 0
      },
      {
        "startTick": 39552,
        "endTick": 39892,
        "pitch": 72,
        "velocity": 123,
        "trackId": 3,
        "channel": 0
      },
      {
        "startTick": 39552,
        "endTick": 39916,
        "pitch": 36,
        "velocity": 123,
        "trackId": 3,
        "channel": 0
      },
      {
        "startTick": 39552,
        "endTick": 39932,
        "pitch": 75,
        "velocity": 86,
        "trackId": 5,
        "channel": 2
      },
      {
        "startTick": 39552,
        "endTick": 39938,
        "pitch": 72,
        "velocity": 89,
        "trackId": 5,
        "channel": 2
      },
      {
        "startTick": 39576,
        "endTick": 39936,
        "pitch": 82,
        "velocity": 119,
        "trackId": 10,
        "channel": 11
      },
      {
        "startTick": 39646,
        "endTick": 39674,
        "pitch": 51,
        "velocity": 118,
        "trackId": 12,
        "channel": 9
      },
      {
        "startTick": 39742,
        "endTick": 39782,
        "pitch": 51,
        "velocity": 123,
        "trackId": 12,
        "channel": 9
      },
      {
        "startTick": 39742,
        "endTick": 39812,
        "pitch": 42,
        "velocity": 123,
        "trackId": 12,
        "channel": 9
      },
      {
        "startTick": 39742,
        "endTick": 40024,
        "pitch": 40,
        "velocity": 124,
        "trackId": 12,
        "channel": 9
      },
      {
        "startTick": 39744,
        "endTick": 39936,
        "pitch": 82,
        "velocity": 87,
        "trackId": 5,
        "channel": 2
      },
      {
        "startTick": 39744,
        "endTick": 40056,
        "pitch": 48,
        "velocity": 122,
        "trackId": 3,
        "channel": 0
      },
      {
        "startTick": 39838,
        "endTick": 39868,
        "pitch": 51,
        "velocity": 120,
        "trackId": 12,
        "channel": 9
      },
      {
        "startTick": 39838,
        "endTick": 39872,
        "pitch": 35,
        "velocity": 121,
        "trackId": 12,
        "channel": 9
      },
      {
        "startTick": 39838,
        "endTick": 39902,
        "pitch": 31,
        "velocity": 121,
        "trackId": 4,
        "channel": 1
      },
      {
        "startTick": 39840,
        "endTick": 39884,
        "pitch": 74,
        "velocity": 124,
        "trackId": 9,
        "channel": 8
      },
      {
        "startTick": 39840,
        "endTick": 39886,
        "pitch": 62,
        "velocity": 117,
        "trackId": 3,
        "channel": 0
      },
      {
        "startTick": 39886,
        "endTick": 39930,
        "pitch": 34,
        "velocity": 122,
        "trackId": 4,
        "channel": 1
      },
      {
        "startTick": 39888,
        "endTick": 39936,
        "pitch": 75,
        "velocity": 124,
        "trackId": 9,
        "channel": 8
      },
      {
        "startTick": 39888,
        "endTick": 39954,
        "pitch": 63,
        "velocity": 116,
        "trackId": 3,
        "channel": 0
      },
      {
        "startTick": 39934,
        "endTick": 39976,
        "pitch": 51,
        "velocity": 123,
        "trackId": 12,
        "channel": 9
      },
      {
        "startTick": 39934,
        "endTick": 40128,
        "pitch": 36,
        "velocity": 124,
        "trackId": 4,
        "channel": 1
      },
      {
        "startTick": 39934,
        "endTick": 40158,
        "pitch": 35,
        "velocity": 124,
        "trackId": 12,
        "channel": 9
      },
      {
        "startTick": 39936,
        "endTick": 39980,
        "pitch": 74,
        "velocity": 119,
        "trackId": 10,
        "channel": 11
      },
      {
        "startTick": 39936,
        "endTick": 40004,
        "pitch": 60,
        "velocity": 122,
        "trackId": 3,
        "channel": 0
      },
      {
        "startTick": 39936,
        "endTick": 40026,
        "pitch": 72,
        "velocity": 124,
        "trackId": 9,
        "channel": 8
      },
      {
        "startTick": 39936,
        "endTick": 40096,
        "pitch": 67,
        "velocity": 122,
        "trackId": 3,
        "channel": 0
      },
      {
        "startTick": 39936,
        "endTick": 40100,
        "pitch": 72,
        "velocity": 123,
        "trackId": 3,
        "channel": 0
      },
      {
        "startTick": 39936,
        "endTick": 40126,
        "pitch": 70,
        "velocity": 81,
        "trackId": 5,
        "channel": 2
      },
      {
        "startTick": 39936,
        "endTick": 40144,
        "pitch": 77,
        "velocity": 78,
        "trackId": 5,
        "channel": 2
      },
      {
        "startTick": 39936,
        "endTick": 40160,
        "pitch": 74,
        "velocity": 74,
        "trackId": 5,
        "channel": 2
      },
      {
        "startTick": 39936,
        "endTick": 40190,
        "pitch": 36,
        "velocity": 121,
        "trackId": 3,
        "channel": 0
      },
      {
        "startTick": 39984,
        "endTick": 40032,
        "pitch": 75,
        "velocity": 119,
        "trackId": 10,
        "channel": 11
      },
      {
        "startTick": 40030,
        "endTick": 40058,
        "pitch": 51,
        "velocity": 120,
        "trackId": 12,
        "channel": 9
      },
      {
        "startTick": 40032,
        "endTick": 40080,
        "pitch": 62,
        "velocity": 120,
        "trackId": 3,
        "channel": 0
      },
      {
        "startTick": 40032,
        "endTick": 40080,
        "pitch": 74,
        "velocity": 124,
        "trackId": 9,
        "channel": 8
      },
      {
        "startTick": 40032,
        "endTick": 40122,
        "pitch": 72,
        "velocity": 119,
        "trackId": 10,
        "channel": 11
      },
      {
        "startTick": 40074,
        "endTick": 40134,
        "pitch": 75,
        "velocity": 124,
        "trackId": 9,
        "channel": 8
      },
      {
        "startTick": 40080,
        "endTick": 40130,
        "pitch": 63,
        "velocity": 122,
        "trackId": 3,
        "channel": 0
      },
      {
        "startTick": 40126,
        "endTick": 40166,
        "pitch": 51,
        "velocity": 124,
        "trackId": 12,
        "channel": 9
      },
      {
        "startTick": 40126,
        "endTick": 40226,
        "pitch": 42,
        "velocity": 123,
        "trackId": 12,
        "channel": 9
      },
      {
        "startTick": 40126,
        "endTick": 40230,
        "pitch": 31,
        "velocity": 122,
        "trackId": 4,
        "channel": 1
      },
      {
        "startTick": 40126,
        "endTick": 40426,
        "pitch": 40,
        "velocity": 124,
        "trackId": 12,
        "channel": 9
      },
      {
        "startTick": 40128,
        "endTick": 40154,
        "pitch": 82,
        "velocity": 74,
        "trackId": 5,
        "channel": 2
      },
      {
        "startTick": 40128,
        "endTick": 40176,
        "pitch": 74,
        "velocity": 119,
        "trackId": 10,
        "channel": 11
      },
      {
        "startTick": 40128,
        "endTick": 40178,
        "pitch": 60,
        "velocity": 123,
        "trackId": 3,
        "channel": 0
      },
      {
        "startTick": 40128,
        "endTick": 40242,
        "pitch": 67,
        "velocity": 123,
        "trackId": 3,
        "channel": 0
      },
      {
        "startTick": 40128,
        "endTick": 40270,
        "pitch": 48,
        "velocity": 122,
        "trackId": 3,
        "channel": 0
      },
      {
        "startTick": 40128,
        "endTick": 40280,
        "pitch": 72,
        "velocity": 123,
        "trackId": 3,
        "channel": 0
      },
      {
        "startTick": 40128,
        "endTick": 40320,
        "pitch": 72,
        "velocity": 74,
        "trackId": 5,
        "channel": 2
      },
      {
        "startTick": 40128,
        "endTick": 40320,
        "pitch": 75,
        "velocity": 90,
        "trackId": 5,
        "channel": 2
      },
      {
        "startTick": 40132,
        "endTick": 40236,
        "pitch": 72,
        "velocity": 124,
        "trackId": 9,
        "channel": 8
      },
      {
        "startTick": 40170,
        "endTick": 40230,
        "pitch": 75,
        "velocity": 119,
        "trackId": 10,
        "channel": 11
      },
      {
        "startTick": 40222,
        "endTick": 40256,
        "pitch": 51,
        "velocity": 122,
        "trackId": 12,
        "channel": 9
      },
      {
        "startTick": 40222,
        "endTick": 40260,
        "pitch": 35,
        "velocity": 123,
        "trackId": 12,
        "channel": 9
      },
      {
        "startTick": 40222,
        "endTick": 40270,
        "pitch": 74,
        "velocity": 124,
        "trackId": 9,
        "channel": 8
      },
      {
        "startTick": 40222,
        "endTick": 40312,
        "pitch": 30,
        "velocity": 122,
        "trackId": 4,
        "channel": 1
      },
      {
        "startTick": 40224,
        "endTick": 40284,
        "pitch": 62,
        "velocity": 114,
        "trackId": 3,
        "channel": 0
      },
      {
        "startTick": 40228,
        "endTick": 40332,
        "pitch": 72,
        "velocity": 119,
        "trackId": 10,
        "channel": 11
      },
      {
        "startTick": 40266,
        "endTick": 40318,
        "pitch": 75,
        "velocity": 124,
        "trackId": 9,
        "channel": 8
      },
      {
        "startTick": 40272,
        "endTick": 40296,
        "pitch": 43,
        "velocity": 119,
        "trackId": 3,
        "channel": 0
      },
      {
        "startTick": 40272,
        "endTick": 40304,
        "pitch": 63,
        "velocity": 117,
        "trackId": 3,
        "channel": 0
      },
      {
        "startTick": 40318,
        "endTick": 40366,
        "pitch": 74,
        "velocity": 119,
        "trackId": 10,
        "channel": 11
      },
      {
        "startTick": 40318,
        "endTick": 40368,
        "pitch": 49,
        "velocity": 123,
        "trackId": 12,
        "channel": 9
      },
      {
        "startTick": 40318,
        "endTick": 40536,
        "pitch": 35,
        "velocity": 123,
        "trackId": 12,
        "channel": 9
      },
      {
        "startTick": 40318,
        "endTick": 40602,
        "pitch": 29,
        "velocity": 124,
        "trackId": 4,
        "channel": 1
      },
      {
        "startTick": 40320,
        "endTick": 40480,
        "pitch": 60,
        "velocity": 123,
        "trackId": 3,
        "channel": 0
      },
      {
        "startTick": 40320,
        "endTick": 40508,
        "pitch": 65,
        "velocity": 123,
        "trackId": 3,
        "channel": 0
      },
      {
        "startTick": 40320,
        "endTick": 40512,
        "pitch": 72,
        "velocity": 81,
        "trackId": 5,
        "channel": 2
      },
      {
        "startTick": 40320,
        "endTick": 40514,
        "pitch": 72,
        "velocity": 123,
        "trackId": 3,
        "channel": 0
      },
      {
        "startTick": 40320,
        "endTick": 40518,
        "pitch": 68,
        "velocity": 122,
        "trackId": 3,
        "channel": 0
      },
      {
        "startTick": 40320,
        "endTick": 40560,
        "pitch": 65,
        "velocity": 81,
        "trackId": 5,
        "channel": 2
      },
      {
        "startTick": 40320,
        "endTick": 40560,
        "pitch": 77,
        "velocity": 81,
        "trackId": 5,
        "channel": 2
      },
      {
        "startTick": 40320,
        "endTick": 40584,
        "pitch": 80,
        "velocity": 81,
        "trackId": 5,
        "channel": 2
      },
      {
        "startTick": 40320,
        "endTick": 40608,
        "pitch": 41,
        "velocity": 119,
        "trackId": 3,
        "channel": 0
      },
      {
        "startTick": 40324,
        "endTick": 40588,
        "pitch": 77,
        "velocity": 124,
        "trackId": 9,
        "channel": 8
      },
      {
        "startTick": 40362,
        "endTick": 40414,
        "pitch": 75,
        "velocity": 119,
        "trackId": 10,
        "channel": 11
      },
      {
        "startTick": 40414,
        "endTick": 40442,
        "pitch": 51,
        "velocity": 121,
        "trackId": 12,
        "channel": 9
      },
      {
        "startTick": 40420,
        "endTick": 40684,
        "pitch": 77,
        "velocity": 119,
        "trackId": 10,
        "channel": 11
      },
      {
        "startTick": 40510,
        "endTick": 40568,
        "pitch": 51,
        "velocity": 123,
        "trackId": 12,
        "channel": 9
      },
      {
        "startTick": 40510,
        "endTick": 40590,
        "pitch": 42,
        "velocity": 123,
        "trackId": 12,
        "channel": 9
      },
      {
        "startTick": 40510,
        "endTick": 40606,
        "pitch": 40,
        "velocity": 123,
        "trackId": 12,
        "channel": 9
      },
      {
        "startTick": 40512,
        "endTick": 40614,
        "pitch": 53,
        "velocity": 123,
        "trackId": 3,
        "channel": 0
      },
      {
        "startTick": 40590,
        "endTick": 40668,
        "pitch": 65,
        "velocity": 124,
        "trackId": 9,
        "channel": 8
      },
      {
        "startTick": 40606,
        "endTick": 40662,
        "pitch": 41,
        "velocity": 125,
        "trackId": 4,
        "channel": 1
      },
      {
        "startTick": 40606,
        "endTick": 40702,
        "pitch": 40,
        "velocity": 122,
        "trackId": 12,
        "channel": 9
      },
      {
        "startTick": 40608,
        "endTick": 40630,
        "pitch": 65,
        "velocity": 122,
        "trackId": 3,
        "channel": 0
      },
      {
        "startTick": 40608,
        "endTick": 40632,
        "pitch": 77,
        "velocity": 121,
        "trackId": 3,
        "channel": 0
      },
      {
        "startTick": 40608,
        "endTick": 40632,
        "pitch": 53,
        "velocity": 100,
        "trackId": 5,
        "channel": 2
      },
      {
        "startTick": 40608,
        "endTick": 40632,
        "pitch": 65,
        "velocity": 100,
        "trackId": 5,
        "channel": 2
      },
      {
        "startTick": 40608,
        "endTick": 40632,
        "pitch": 77,
        "velocity": 100,
        "trackId": 5,
        "channel": 2
      },
      {
        "startTick": 40608,
        "endTick": 40638,
        "pitch": 89,
        "velocity": 92,
        "trackId": 5,
        "channel": 2
      },
      {
        "startTick": 40652,
        "endTick": 40714,
        "pitch": 67,
        "velocity": 124,
        "trackId": 9,
        "channel": 8
      },
      {
        "startTick": 40654,
        "endTick": 40680,
        "pitch": 40,
        "velocity": 124,
        "trackId": 12,
        "channel": 9
      },
      {
        "startTick": 40654,
        "endTick": 40712,
        "pitch": 40,
        "velocity": 121,
        "trackId": 4,
        "channel": 1
      },
      {
        "startTick": 40656,
        "endTick": 40664,
        "pitch": 52,
        "velocity": 120,
        "trackId": 3,
        "channel": 0
      },
      {
        "startTick": 40656,
        "endTick": 40674,
        "pitch": 67,
        "velocity": 123,
        "trackId": 3,
        "channel": 0
      },
      {
        "startTick": 40656,
        "endTick": 40680,
        "pitch": 52,
        "velocity": 100,
        "trackId": 5,
        "channel": 2
      },
      {
        "startTick": 40656,
        "endTick": 40680,
        "pitch": 64,
        "velocity": 100,
        "trackId": 5,
        "channel": 2
      },
      {
        "startTick": 40656,
        "endTick": 40680,
        "pitch": 79,
        "velocity": 100,
        "trackId": 5,
        "channel": 2
      },
      {
        "startTick": 40656,
        "endTick": 40680,
        "pitch": 91,
        "velocity": 100,
        "trackId": 5,
        "channel": 2
      },
      {
        "startTick": 40656,
        "endTick": 40682,
        "pitch": 79,
        "velocity": 123,
        "trackId": 3,
        "channel": 0
      },
      {
        "startTick": 40686,
        "endTick": 40764,
        "pitch": 65,
        "velocity": 119,
        "trackId": 10,
        "channel": 11
      },
      {
        "startTick": 40702,
        "endTick": 40778,
        "pitch": 49,
        "velocity": 120,
        "trackId": 12,
        "channel": 9
      },
      {
        "startTick": 40702,
        "endTick": 40886,
        "pitch": 39,
        "velocity": 125,
        "trackId": 4,
        "channel": 1
      },
      {
        "startTick": 40702,
        "endTick": 41010,
        "pitch": 35,
        "velocity": 124,
        "trackId": 12,
        "channel": 9
      },
      {
        "startTick": 40704,
        "endTick": 40790,
        "pitch": 68,
        "velocity": 122,
        "trackId": 3,
        "channel": 0
      },
      {
        "startTick": 40704,
        "endTick": 40800,
        "pitch": 51,
        "velocity": 100,
        "trackId": 5,
        "channel": 2
      },
      {
        "startTick": 40704,
        "endTick": 40812,
        "pitch": 80,
        "velocity": 123,
        "trackId": 3,
        "channel": 0
      },
      {
        "startTick": 40704,
        "endTick": 40814,
        "pitch": 68,
        "velocity": 100,
        "trackId": 5,
        "channel": 2
      },
      {
        "startTick": 40704,
        "endTick": 40816,
        "pitch": 63,
        "velocity": 123,
        "trackId": 3,
        "channel": 0
      },
      {
        "startTick": 40704,
        "endTick": 40824,
        "pitch": 51,
        "velocity": 122,
        "trackId": 3,
        "channel": 0
      },
      {
        "startTick": 40704,
        "endTick": 40824,
        "pitch": 80,
        "velocity": 100,
        "trackId": 5,
        "channel": 2
      },
      {
        "startTick": 40704,
        "endTick": 40830,
        "pitch": 63,
        "velocity": 100,
        "trackId": 5,
        "channel": 2
      },
      {
        "startTick": 40704,
        "endTick": 40862,
        "pitch": 75,
        "velocity": 100,
        "trackId": 5,
        "channel": 2
      },
      {
        "startTick": 40704,
        "endTick": 40864,
        "pitch": 92,
        "velocity": 100,
        "trackId": 5,
        "channel": 2
      },
      {
        "startTick": 40716,
        "endTick": 40880,
        "pitch": 68,
        "velocity": 124,
        "trackId": 9,
        "channel": 8
      },
      {
        "startTick": 40748,
        "endTick": 40810,
        "pitch": 67,
        "velocity": 119,
        "trackId": 10,
        "channel": 11
      },
      {
        "startTick": 40812,
        "endTick": 40976,
        "pitch": 68,
        "velocity": 119,
        "trackId": 10,
        "channel": 11
      },
      {
        "startTick": 40886,
        "endTick": 41088,
        "pitch": 77,
        "velocity": 124,
        "trackId": 9,
        "channel": 8
      },
      {
        "startTick": 40894,
        "endTick": 40938,
        "pitch": 57,
        "velocity": 121,
        "trackId": 12,
        "channel": 9
      },
      {
        "startTick": 40894,
        "endTick": 41086,
        "pitch": 38,
        "velocity": 125,
        "trackId": 4,
        "channel": 1
      },
      {
        "startTick": 40894,
        "endTick": 41222,
        "pitch": 40,
        "velocity": 124,
        "trackId": 12,
        "channel": 9
      },
      {
        "startTick": 40896,
        "endTick": 40986,
        "pitch": 89,
        "velocity": 122,
        "trackId": 3,
        "channel": 0
      },
      {
        "startTick": 40896,
        "endTick": 40988,
        "pitch": 77,
        "velocity": 123,
        "trackId": 3,
        "channel": 0
      },
      {
        "startTick": 40896,
        "endTick": 40998,
        "pitch": 50,
        "velocity": 121,
        "trackId": 3,
        "channel": 0
      },
      {
        "startTick": 40896,
        "endTick": 41000,
        "pitch": 62,
        "velocity": 123,
        "trackId": 3,
        "channel": 0
      },
      {
        "startTick": 40896,
        "endTick": 41004,
        "pitch": 89,
        "velocity": 103,
        "trackId": 5,
        "channel": 2
      },
      {
        "startTick": 40896,
        "endTick": 41014,
        "pitch": 77,
        "velocity": 104,
        "trackId": 5,
        "channel": 2
      },
      {
        "startTick": 40896,
        "endTick": 41024,
        "pitch": 50,
        "velocity": 95,
        "trackId": 5,
        "channel": 2
      },
      {
        "startTick": 40896,
        "endTick": 41030,
        "pitch": 62,
        "velocity": 90,
        "trackId": 5,
        "channel": 2
      },
      {
        "startTick": 40982,
        "endTick": 41184,
        "pitch": 77,
        "velocity": 119,
        "trackId": 10,
        "channel": 11
      },
      {
        "startTick": 41086,
        "endTick": 41138,
        "pitch": 49,
        "velocity": 121,
        "trackId": 12,
        "channel": 9
      },
      {
        "startTick": 41086,
        "endTick": 41296,
        "pitch": 35,
        "velocity": 124,
        "trackId": 12,
        "channel": 9
      },
      {
        "startTick": 41086,
        "endTick": 41326,
        "pitch": 37,
        "velocity": 125,
        "trackId": 4,
        "channel": 1
      },
      {
        "startTick": 41086,
        "endTick": 41344,
        "pitch": 68,
        "velocity": 124,
        "trackId": 9,
        "channel": 8
      },
      {
        "startTick": 41088,
        "endTick": 41288,
        "pitch": 68,
        "velocity": 103,
        "trackId": 5,
        "channel": 2
      },
      {
        "startTick": 41088,
        "endTick": 41290,
        "pitch": 68,
        "velocity": 123,
        "trackId": 3,
        "channel": 0
      },
      {
        "startTick": 41088,
        "endTick": 41292,
        "pitch": 80,
        "velocity": 98,
        "trackId": 5,
        "channel": 2
      },
      {
        "startTick": 41088,
        "endTick": 41298,
        "pitch": 80,
        "velocity": 122,
        "trackId": 3,
        "channel": 0
      },
      {
        "startTick": 41088,
        "endTick": 41328,
        "pitch": 61,
        "velocity": 123,
        "trackId": 3,
        "channel": 0
      },
      {
        "startTick": 41088,
        "endTick": 41356,
        "pitch": 61,
        "velocity": 104,
        "trackId": 5,
        "channel": 2
      },
      {
        "startTick": 41088,
        "endTick": 41364,
        "pitch": 49,
        "velocity": 97,
        "trackId": 5,
        "channel": 2
      },
      {
        "startTick": 41088,
        "endTick": 41392,
        "pitch": 49,
        "velocity": 123,
        "trackId": 3,
        "channel": 0
      },
      {
        "startTick": 41182,
        "endTick": 41440,
        "pitch": 68,
        "velocity": 119,
        "trackId": 10,
        "channel": 11
      },
      {
        "startTick": 41278,
        "endTick": 41312,
        "pitch": 51,
        "velocity": 122,
        "trackId": 12,
        "channel": 9
      },
      {
        "startTick": 41278,
        "endTick": 41336,
        "pitch": 40,
        "velocity": 124,
        "trackId": 12,
        "channel": 9
      },
      {
        "startTick": 41326,
        "endTick": 41358,
        "pitch": 52,
        "velocity": 122,
        "trackId": 12,
        "channel": 9
      },
      {
        "startTick": 41326,
        "endTick": 41368,
        "pitch": 35,
        "velocity": 123,
        "trackId": 12,
        "channel": 9
      },
      {
        "startTick": 41326,
        "endTick": 41566,
        "pitch": 37,
        "velocity": 123,
        "trackId": 4,
        "channel": 1
      },
      {
        "startTick": 41328,
        "endTick": 41358,
        "pitch": 73,
        "velocity": 118,
        "trackId": 3,
        "channel": 0
      },
      {
        "startTick": 41328,
        "endTick": 41358,
        "pitch": 85,
        "velocity": 118,
        "trackId": 3,
        "channel": 0
      },
      {
        "startTick": 41328,
        "endTick": 41362,
        "pitch": 73,
        "velocity": 100,
        "trackId": 5,
        "channel": 2
      },
      {
        "startTick": 41328,
        "endTick": 41362,
        "pitch": 85,
        "velocity": 102,
        "trackId": 5,
        "channel": 2
      },
      {
        "startTick": 41328,
        "endTick": 41568,
        "pitch": 61,
        "velocity": 118,
        "trackId": 3,
        "channel": 0
      },
      {
        "startTick": 41342,
        "endTick": 41382,
        "pitch": 73,
        "velocity": 124,
        "trackId": 9,
        "channel": 8
      },
      {
        "startTick": 41398,
        "endTick": 41438,
        "pitch": 35,
        "velocity": 124,
        "trackId": 12,
        "channel": 9
      },
      {
        "startTick": 41398,
        "endTick": 41440,
        "pitch": 49,
        "velocity": 120,
        "trackId": 12,
        "channel": 9
      },
      {
        "startTick": 41398,
        "endTick": 41478,
        "pitch": 36,
        "velocity": 125,
        "trackId": 4,
        "channel": 1
      },
      {
        "startTick": 41400,
        "endTick": 41440,
        "pitch": 73,
        "velocity": 123,
        "trackId": 3,
        "channel": 0
      },
      {
        "startTick": 41400,
        "endTick": 41440,
        "pitch": 85,
        "velocity": 123,
        "trackId": 3,
        "channel": 0
      },
      {
        "startTick": 41400,
        "endTick": 41452,
        "pitch": 48,
        "velocity": 117,
        "trackId": 3,
        "channel": 0
      },
      {
        "startTick": 41400,
        "endTick": 41452,
        "pitch": 60,
        "velocity": 121,
        "trackId": 3,
        "channel": 0
      },
      {
        "startTick": 41400,
        "endTick": 41456,
        "pitch": 73,
        "velocity": 124,
        "trackId": 9,
        "channel": 8
      },
      {
        "startTick": 41424,
        "endTick": 41458,
        "pitch": 85,
        "velocity": 100,
        "trackId": 5,
        "channel": 2
      },
      {
        "startTick": 41424,
        "endTick": 41462,
        "pitch": 60,
        "velocity": 89,
        "trackId": 5,
        "channel": 2
      },
      {
        "startTick": 41424,
        "endTick": 41464,
        "pitch": 73,
        "velocity": 100,
        "trackId": 5,
        "channel": 2
      },
      {
        "startTick": 41424,
        "endTick": 41468,
        "pitch": 48,
        "velocity": 92,
        "trackId": 5,
        "channel": 2
      },
      {
        "startTick": 41438,
        "endTick": 41478,
        "pitch": 73,
        "velocity": 119,
        "trackId": 10,
        "channel": 11
      },
      {
        "startTick": 41470,
        "endTick": 41544,
        "pitch": 57,
        "velocity": 121,
        "trackId": 12,
        "channel": 9
      },
      {
        "startTick": 41470,
        "endTick": 41662,
        "pitch": 35,
        "velocity": 125,
        "trackId": 4,
        "channel": 1
      },
      {
        "startTick": 41470,
        "endTick": 41766,
        "pitch": 35,
        "velocity": 124,
        "trackId": 12,
        "channel": 9
      },
      {
        "startTick": 41472,
        "endTick": 41564,
        "pitch": 85,
        "velocity": 122,
        "trackId": 3,
        "channel": 0
      },
      {
        "startTick": 41472,
        "endTick": 41566,
        "pitch": 85,
        "velocity": 103,
        "trackId": 5,
        "channel": 2
      },
      {
        "startTick": 41472,
        "endTick": 41576,
        "pitch": 73,
        "velocity": 123,
        "trackId": 3,
        "channel": 0
      },
      {
        "startTick": 41472,
        "endTick": 41580,
        "pitch": 73,
        "velocity": 104,
        "trackId": 5,
        "channel": 2
      },
      {
        "startTick": 41472,
        "endTick": 41584,
        "pitch": 47,
        "velocity": 95,
        "trackId": 5,
        "channel": 2
      },
      {
        "startTick": 41472,
        "endTick": 41592,
        "pitch": 59,
        "velocity": 100,
        "trackId": 5,
        "channel": 2
      },
      {
        "startTick": 41472,
        "endTick": 41600,
        "pitch": 47,
        "velocity": 123,
        "trackId": 3,
        "channel": 0
      },
      {
        "startTick": 41472,
        "endTick": 41606,
        "pitch": 59,
        "velocity": 123,
        "trackId": 3,
        "channel": 0
      },
      {
        "startTick": 41480,
        "endTick": 41656,
        "pitch": 73,
        "velocity": 124,
        "trackId": 9,
        "channel": 8
      },
      {
        "startTick": 41496,
        "endTick": 41552,
        "pitch": 73,
        "velocity": 119,
        "trackId": 10,
        "channel": 11
      },
      {
        "startTick": 41576,
        "endTick": 41752,
        "pitch": 73,
        "velocity": 119,
        "trackId": 10,
        "channel": 11
      },
      {
        "startTick": 41660,
        "endTick": 41802,
        "pitch": 61,
        "velocity": 124,
        "trackId": 9,
        "channel": 8
      },
      {
        "startTick": 41662,
        "endTick": 41702,
        "pitch": 49,
        "velocity": 123,
        "trackId": 12,
        "channel": 9
      },
      {
        "startTick": 41662,
        "endTick": 41780,
        "pitch": 40,
        "velocity": 124,
        "trackId": 12,
        "channel": 9
      },
      {
        "startTick": 41662,
        "endTick": 41782,
        "pitch": 43,
        "velocity": 124,
        "trackId": 12,
        "channel": 9
      },
      {
        "startTick": 41662,
        "endTick": 41846,
        "pitch": 34,
        "velocity": 125,
        "trackId": 4,
        "channel": 1
      },
      {
        "startTick": 41664,
        "endTick": 41762,
        "pitch": 58,
        "velocity": 123,
        "trackId": 3,
        "channel": 0
      },
      {
        "startTick": 41664,
        "endTick": 41762,
        "pitch": 73,
        "velocity": 123,
        "trackId": 3,
        "channel": 0
      },
      {
        "startTick": 41664,
        "endTick": 41770,
        "pitch": 61,
        "velocity": 123,
        "trackId": 3,
        "channel": 0
      },
      {
        "startTick": 41664,
        "endTick": 41776,
        "pitch": 46,
        "velocity": 120,
        "trackId": 3,
        "channel": 0
      },
      {
        "startTick": 41664,
        "endTick": 41780,
        "pitch": 46,
        "velocity": 102,
        "trackId": 5,
        "channel": 2
      },
      {
        "startTick": 41664,
        "endTick": 41780,
        "pitch": 61,
        "velocity": 104,
        "trackId": 5,
        "channel": 2
      },
      {
        "startTick": 41664,
        "endTick": 41784,
        "pitch": 73,
        "velocity": 100,
        "trackId": 5,
        "channel": 2
      },
      {
        "startTick": 41664,
        "endTick": 41788,
        "pitch": 58,
        "velocity": 102,
        "trackId": 5,
        "channel": 2
      },
      {
        "startTick": 41756,
        "endTick": 41898,
        "pitch": 61,
        "velocity": 119,
        "trackId": 10,
        "channel": 11
      },
      {
        "startTick": 41854,
        "endTick": 41922,
        "pitch": 33,
        "velocity": 125,
        "trackId": 4,
        "channel": 1
      },
      {
        "startTick": 41856,
        "endTick": 41864,
        "pitch": 40,
        "velocity": 124,
        "trackId": 12,
        "channel": 9
      },
      {
        "startTick": 41856,
        "endTick": 41884,
        "pitch": 69,
        "velocity": 123,
        "trackId": 3,
        "channel": 0
      },
      {
        "startTick": 41856,
        "endTick": 41886,
        "pitch": 76,
        "velocity": 123,
        "trackId": 3,
        "channel": 0
      },
      {
        "startTick": 41856,
        "endTick": 41888,
        "pitch": 81,
        "velocity": 123,
        "trackId": 3,
        "channel": 0
      },
      {
        "startTick": 41856,
        "endTick": 41902,
        "pitch": 33,
        "velocity": 123,
        "trackId": 3,
        "channel": 0
      },
      {
        "startTick": 41856,
        "endTick": 41904,
        "pitch": 45,
        "velocity": 123,
        "trackId": 3,
        "channel": 0
      },
      {
        "startTick": 41856,
        "endTick": 41912,
        "pitch": 33,
        "velocity": 119,
        "trackId": 5,
        "channel": 2
      },
      {
        "startTick": 41856,
        "endTick": 41912,
        "pitch": 57,
        "velocity": 121,
        "trackId": 5,
        "channel": 2
      },
      {
        "startTick": 41856,
        "endTick": 41920,
        "pitch": 45,
        "velocity": 122,
        "trackId": 5,
        "channel": 2
      },
      {
        "startTick": 41866,
        "endTick": 41952,
        "pitch": 40,
        "velocity": 123,
        "trackId": 12,
        "channel": 9
      },
      {
        "startTick": 41952,
        "endTick": 41968,
        "pitch": 57,
        "velocity": 120,
        "trackId": 3,
        "channel": 0
      },
      {
        "startTick": 41952,
        "endTick": 41974,
        "pitch": 61,
        "velocity": 122,
        "trackId": 3,
        "channel": 0
      },
      {
        "startTick": 41952,
        "endTick": 41974,
        "pitch": 64,
        "velocity": 122,
        "trackId": 3,
        "channel": 0
      },
      {
        "startTick": 41956,
        "endTick": 41984,
        "pitch": 81,
        "velocity": 103,
        "trackId": 12,
        "channel": 9
      },
      {
        "startTick": 42046,
        "endTick": 42070,
        "pitch": 81,
        "velocity": 103,
        "trackId": 12,
        "channel": 9
      },
      {
        "startTick": 42048,
        "endTick": 42066,
        "pitch": 57,
        "velocity": 121,
        "trackId": 3,
        "channel": 0
      },
      {
        "startTick": 42048,
        "endTick": 42066,
        "pitch": 61,
        "velocity": 119,
        "trackId": 3,
        "channel": 0
      },
      {
        "startTick": 42048,
        "endTick": 42072,
        "pitch": 64,
        "velocity": 122,
        "trackId": 3,
        "channel": 0
      },
      {
        "startTick": 42138,
        "endTick": 42162,
        "pitch": 81,
        "velocity": 104,
        "trackId": 12,
        "channel": 9
      },
      {
        "startTick": 42144,
        "endTick": 42166,
        "pitch": 57,
        "velocity": 121,
        "trackId": 3,
        "channel": 0
      },
      {
        "startTick": 42144,
        "endTick": 42168,
        "pitch": 61,
        "velocity": 121,
        "trackId": 3,
        "channel": 0
      },
      {
        "startTick": 42144,
        "endTick": 42172,
        "pitch": 64,
        "velocity": 123,
        "trackId": 3,
        "channel": 0
      },
      {
        "startTick": 42232,
        "endTick": 42258,
        "pitch": 81,
        "velocity": 103,
        "trackId": 12,
        "channel": 9
      },
      {
        "startTick": 42240,
        "endTick": 42262,
        "pitch": 57,
        "velocity": 120,
        "trackId": 3,
        "channel": 0
      },
      {
        "startTick": 42240,
        "endTick": 42266,
        "pitch": 61,
        "velocity": 120,
        "trackId": 3,
        "channel": 0
      },
      {
        "startTick": 42240,
        "endTick": 42268,
        "pitch": 64,
        "velocity": 120,
        "trackId": 3,
        "channel": 0
      },
      {
        "startTick": 42330,
        "endTick": 42358,
        "pitch": 81,
        "velocity": 104,
        "trackId": 12,
        "channel": 9
      },
      {
        "startTick": 42336,
        "endTick": 42358,
        "pitch": 57,
        "velocity": 121,
        "trackId": 3,
        "channel": 0
      },
      {
        "startTick": 42336,
        "endTick": 42358,
        "pitch": 61,
        "velocity": 119,
        "trackId": 3,
        "channel": 0
      },
      {
        "startTick": 42336,
        "endTick": 42364,
        "pitch": 64,
        "velocity": 118,
        "trackId": 3,
        "channel": 0
      },
      {
        "startTick": 42426,
        "endTick": 42454,
        "pitch": 81,
        "velocity": 104,
        "trackId": 12,
        "channel": 9
      },
      {
        "startTick": 42432,
        "endTick": 42450,
        "pitch": 57,
        "velocity": 115,
        "trackId": 3,
        "channel": 0
      },
      {
        "startTick": 42432,
        "endTick": 42456,
        "pitch": 61,
        "velocity": 118,
        "trackId": 3,
        "channel": 0
      },
      {
        "startTick": 42432,
        "endTick": 42456,
        "pitch": 64,
        "velocity": 119,
        "trackId": 3,
        "channel": 0
      },
      {
        "startTick": 42522,
        "endTick": 42550,
        "pitch": 81,
        "velocity": 104,
        "trackId": 12,
        "channel": 9
      },
      {
        "startTick": 42528,
        "endTick": 42548,
        "pitch": 57,
        "velocity": 118,
        "trackId": 3,
        "channel": 0
      },
      {
        "startTick": 42528,
        "endTick": 42552,
        "pitch": 61,
        "velocity": 118,
        "trackId": 3,
        "channel": 0
      },
      {
        "startTick": 42528,
        "endTick": 42554,
        "pitch": 64,
        "velocity": 120,
        "trackId": 3,
        "channel": 0
      },
      {
        "startTick": 42622,
        "endTick": 42646,
        "pitch": 81,
        "velocity": 104,
        "trackId": 12,
        "channel": 9
      },
      {
        "startTick": 42624,
        "endTick": 42646,
        "pitch": 57,
        "velocity": 122,
        "trackId": 3,
        "channel": 0
      },
      {
        "startTick": 42624,
        "endTick": 42656,
        "pitch": 62,
        "velocity": 123,
        "trackId": 3,
        "channel": 0
      },
      {
        "startTick": 42624,
        "endTick": 42660,
        "pitch": 66,
        "velocity": 122,
        "trackId": 3,
        "channel": 0
      },
      {
        "startTick": 42624,
        "endTick": 42702,
        "pitch": 74,
        "velocity": 119,
        "trackId": 8,
        "channel": 7
      },
      {
        "startTick": 42714,
        "endTick": 42738,
        "pitch": 81,
        "velocity": 104,
        "trackId": 12,
        "channel": 9
      },
      {
        "startTick": 42720,
        "endTick": 42738,
        "pitch": 57,
        "velocity": 122,
        "trackId": 3,
        "channel": 0
      },
      {
        "startTick": 42720,
        "endTick": 42738,
        "pitch": 73,
        "velocity": 118,
        "trackId": 8,
        "channel": 7
      },
      {
        "startTick": 42720,
        "endTick": 42742,
        "pitch": 61,
        "velocity": 121,
        "trackId": 3,
        "channel": 0
      },
      {
        "startTick": 42720,
        "endTick": 42742,
        "pitch": 64,
        "velocity": 123,
        "trackId": 3,
        "channel": 0
      },
      {
        "startTick": 42768,
        "endTick": 42780,
        "pitch": 57,
        "velocity": 117,
        "trackId": 3,
        "channel": 0
      },
      {
        "startTick": 42768,
        "endTick": 42790,
        "pitch": 61,
        "velocity": 121,
        "trackId": 3,
        "channel": 0
      },
      {
        "startTick": 42768,
        "endTick": 42790,
        "pitch": 64,
        "velocity": 118,
        "trackId": 3,
        "channel": 0
      },
      {
        "startTick": 42768,
        "endTick": 42790,
        "pitch": 73,
        "velocity": 119,
        "trackId": 8,
        "channel": 7
      },
      {
        "startTick": 42810,
        "endTick": 42838,
        "pitch": 81,
        "velocity": 104,
        "trackId": 12,
        "channel": 9
      },
      {
        "startTick": 42816,
        "endTick": 42824,
        "pitch": 71,
        "velocity": 113,
        "trackId": 8,
        "channel": 7
      },
      {
        "startTick": 42816,
        "endTick": 42836,
        "pitch": 72,
        "velocity": 117,
        "trackId": 8,
        "channel": 7
      },
      {
        "startTick": 42816,
        "endTick": 42844,
        "pitch": 57,
        "velocity": 122,
        "trackId": 3,
        "channel": 0
      },
      {
        "startTick": 42816,
        "endTick": 42844,
        "pitch": 60,
        "velocity": 122,
        "trackId": 3,
        "channel": 0
      },
      {
        "startTick": 42816,
        "endTick": 42856,
        "pitch": 63,
        "velocity": 122,
        "trackId": 3,
        "channel": 0
      },
      {
        "startTick": 42864,
        "endTick": 42884,
        "pitch": 72,
        "velocity": 118,
        "trackId": 8,
        "channel": 7
      },
      {
        "startTick": 42908,
        "endTick": 42932,
        "pitch": 81,
        "velocity": 106,
        "trackId": 12,
        "channel": 9
      },
      {
        "startTick": 42912,
        "endTick": 42930,
        "pitch": 73,
        "velocity": 119,
        "trackId": 8,
        "channel": 7
      },
      {
        "startTick": 42912,
        "endTick": 42938,
        "pitch": 57,
        "velocity": 123,
        "trackId": 3,
        "channel": 0
      },
      {
        "startTick": 42912,
        "endTick": 42944,
        "pitch": 64,
        "velocity": 123,
        "trackId": 3,
        "channel": 0
      },
      {
        "startTick": 42912,
        "endTick": 42946,
        "pitch": 61,
        "velocity": 123,
        "trackId": 3,
        "channel": 0
      },
      {
        "startTick": 42960,
        "endTick": 42976,
        "pitch": 73,
        "velocity": 118,
        "trackId": 8,
        "channel": 7
      },
      {
        "startTick": 43002,
        "endTick": 43030,
        "pitch": 81,
        "velocity": 102,
        "trackId": 12,
        "channel": 9
      },
      {
        "startTick": 43008,
        "endTick": 43026,
        "pitch": 74,
        "velocity": 118,
        "trackId": 8,
        "channel": 7
      },
      {
        "startTick": 43008,
        "endTick": 43030,
        "pitch": 57,
        "velocity": 123,
        "trackId": 3,
        "channel": 0
      },
      {
        "startTick": 43008,
        "endTick": 43036,
        "pitch": 62,
        "velocity": 123,
        "trackId": 3,
        "channel": 0
      },
      {
        "startTick": 43008,
        "endTick": 43042,
        "pitch": 66,
        "velocity": 122,
        "trackId": 3,
        "channel": 0
      },
      {
        "startTick": 43056,
        "endTick": 43078,
        "pitch": 74,
        "velocity": 119,
        "trackId": 8,
        "channel": 7
      },
      {
        "startTick": 43096,
        "endTick": 43120,
        "pitch": 81,
        "velocity": 104,
        "trackId": 12,
        "channel": 9
      },
      {
        "startTick": 43104,
        "endTick": 43122,
        "pitch": 57,
        "velocity": 122,
        "trackId": 3,
        "channel": 0
      },
      {
        "startTick": 43104,
        "endTick": 43122,
        "pitch": 61,
        "velocity": 123,
        "trackId": 3,
        "channel": 0
      },
      {
        "startTick": 43104,
        "endTick": 43124,
        "pitch": 73,
        "velocity": 119,
        "trackId": 8,
        "channel": 7
      },
      {
        "startTick": 43104,
        "endTick": 43126,
        "pitch": 64,
        "velocity": 122,
        "trackId": 3,
        "channel": 0
      },
      {
        "startTick": 43152,
        "endTick": 43164,
        "pitch": 57,
        "velocity": 118,
        "trackId": 3,
        "channel": 0
      },
      {
        "startTick": 43152,
        "endTick": 43170,
        "pitch": 61,
        "velocity": 119,
        "trackId": 3,
        "channel": 0
      },
      {
        "startTick": 43152,
        "endTick": 43170,
        "pitch": 64,
        "velocity": 122,
        "trackId": 3,
        "channel": 0
      },
      {
        "startTick": 43152,
        "endTick": 43172,
        "pitch": 73,
        "velocity": 118,
        "trackId": 8,
        "channel": 7
      },
      {
        "startTick": 43196,
        "endTick": 43220,
        "pitch": 81,
        "velocity": 102,
        "trackId": 12,
        "channel": 9
      },
      {
        "startTick": 43200,
        "endTick": 43252,
        "pitch": 60,
        "velocity": 123,
        "trackId": 3,
        "channel": 0
      },
      {
        "startTick": 43200,
        "endTick": 43254,
        "pitch": 57,
        "velocity": 121,
        "trackId": 3,
        "channel": 0
      },
      {
        "startTick": 43200,
        "endTick": 43260,
        "pitch": 63,
        "velocity": 123,
        "trackId": 3,
        "channel": 0
      },
      {
        "startTick": 43200,
        "endTick": 43276,
        "pitch": 72,
        "velocity": 118,
        "trackId": 8,
        "channel": 7
      },
      {
        "startTick": 43292,
        "endTick": 43316,
        "pitch": 81,
        "velocity": 103,
        "trackId": 12,
        "channel": 9
      },
      {
        "startTick": 43294,
        "endTick": 43322,
        "pitch": 37,
        "velocity": 125,
        "trackId": 4,
        "channel": 1
      },
      {
        "startTick": 43296,
        "endTick": 43312,
        "pitch": 64,
        "velocity": 123,
        "trackId": 3,
        "channel": 0
      },
      {
        "startTick": 43296,
        "endTick": 43312,
        "pitch": 81,
        "velocity": 96,
        "trackId": 5,
        "channel": 2
      },
      {
        "startTick": 43296,
        "endTick": 43314,
        "pitch": 88,
        "velocity": 121,
        "trackId": 1,
        "channel": 5
      },
      {
        "startTick": 43296,
        "endTick": 43314,
        "pitch": 76,
        "velocity": 120,
        "trackId": 7,
        "channel": 6
      },
      {
        "startTick": 43296,
        "endTick": 43316,
        "pitch": 57,
        "velocity": 120,
        "trackId": 3,
        "channel": 0
      },
      {
        "startTick": 43296,
        "endTick": 43316,
        "pitch": 61,
        "velocity": 121,
        "trackId": 3,
        "channel": 0
      },
      {
        "startTick": 43296,
        "endTick": 43316,
        "pitch": 76,
        "velocity": 115,
        "trackId": 5,
        "channel": 2
      },
      {
        "startTick": 43296,
        "endTick": 43318,
        "pitch": 69,
        "velocity": 114,
        "trackId": 5,
        "channel": 2
      },
      {
        "startTick": 43296,
        "endTick": 43318,
        "pitch": 73,
        "velocity": 112,
        "trackId": 5,
        "channel": 2
      },
      {
        "startTick": 43296,
        "endTick": 43328,
        "pitch": 64,
        "velocity": 119,
        "trackId": 5,
        "channel": 2
      },
      {
        "startTick": 43342,
        "endTick": 43380,
        "pitch": 37,
        "velocity": 124,
        "trackId": 4,
        "channel": 1
      },
      {
        "startTick": 43344,
        "endTick": 43364,
        "pitch": 88,
        "velocity": 120,
        "trackId": 1,
        "channel": 5
      },
      {
        "startTick": 43344,
        "endTick": 43364,
        "pitch": 76,
        "velocity": 119,
        "trackId": 7,
        "channel": 6
      },
      {
        "startTick": 43344,
        "endTick": 43366,
        "pitch": 57,
        "velocity": 118,
        "trackId": 3,
        "channel": 0
      },
      {
        "startTick": 43344,
        "endTick": 43368,
        "pitch": 64,
        "velocity": 123,
        "trackId": 3,
        "channel": 0
      },
      {
        "startTick": 43344,
        "endTick": 43368,
        "pitch": 69,
        "velocity": 115,
        "trackId": 5,
        "channel": 2
      },
      {
        "startTick": 43344,
        "endTick": 43370,
        "pitch": 61,
        "velocity": 121,
        "trackId": 3,
        "channel": 0
      },
      {
        "startTick": 43344,
        "endTick": 43370,
        "pitch": 81,
        "velocity": 112,
        "trackId": 5,
        "channel": 2
      },
      {
        "startTick": 43344,
        "endTick": 43378,
        "pitch": 73,
        "velocity": 112,
        "trackId": 5,
        "channel": 2
      },
      {
        "startTick": 43344,
        "endTick": 43380,
        "pitch": 76,
        "velocity": 117,
        "trackId": 5,
        "channel": 2
      },
      {
        "startTick": 43344,
        "endTick": 43388,
        "pitch": 64,
        "velocity": 119,
        "trackId": 5,
        "channel": 2
      },
      {
        "startTick": 43390,
        "endTick": 43412,
        "pitch": 81,
        "velocity": 103,
        "trackId": 12,
        "channel": 9
      },
      {
        "startTick": 43390,
        "endTick": 43472,
        "pitch": 38,
        "velocity": 125,
        "trackId": 4,
        "channel": 1
      },
      {
        "startTick": 43392,
        "endTick": 43442,
        "pitch": 57,
        "velocity": 123,
        "trackId": 3,
        "channel": 0
      },
      {
        "startTick": 43392,
        "endTick": 43448,
        "pitch": 69,
        "velocity": 123,
        "trackId": 3,
        "channel": 0
      },
      {
        "startTick": 43392,
        "endTick": 43454,
        "pitch": 62,
        "velocity": 123,
        "trackId": 3,
        "channel": 0
      },
      {
        "startTick": 43392,
        "endTick": 43456,
        "pitch": 74,
        "velocity": 121,
        "trackId": 5,
        "channel": 2
      },
      {
        "startTick": 43392,
        "endTick": 43460,
        "pitch": 66,
        "velocity": 123,
        "trackId": 3,
        "channel": 0
      },
      {
        "startTick": 43392,
        "endTick": 43466,
        "pitch": 62,
        "velocity": 119,
        "trackId": 5,
        "channel": 2
      },
      {
        "startTick": 43392,
        "endTick": 43472,
        "pitch": 93,
        "velocity": 122,
        "trackId": 1,
        "channel": 5
      },
      {
        "startTick": 43392,
        "endTick": 43472,
        "pitch": 81,
        "velocity": 121,
        "trackId": 7,
        "channel": 6
      },
      {
        "startTick": 43392,
        "endTick": 43478,
        "pitch": 78,
        "velocity": 118,
        "trackId": 5,
        "channel": 2
      },
      {
        "startTick": 43392,
        "endTick": 43482,
        "pitch": 66,
        "velocity": 110,
        "trackId": 5,
        "channel": 2
      },
      {
        "startTick": 43392,
        "endTick": 43482,
        "pitch": 81,
        "velocity": 118,
        "trackId": 5,
        "channel": 2
      },
      {
        "startTick": 43392,
        "endTick": 43484,
        "pitch": 69,
        "velocity": 121,
        "trackId": 5,
        "channel": 2
      },
      {
        "startTick": 43486,
        "endTick": 43510,
        "pitch": 37,
        "velocity": 124,
        "trackId": 4,
        "channel": 1
      },
      {
        "startTick": 43488,
        "endTick": 43494,
        "pitch": 81,
        "velocity": 18,
        "trackId": 5,
        "channel": 2
      },
      {
        "startTick": 43488,
        "endTick": 43500,
        "pitch": 64,
        "velocity": 118,
        "trackId": 3,
        "channel": 0
      },
      {
        "startTick": 43488,
        "endTick": 43502,
        "pitch": 57,
        "velocity": 115,
        "trackId": 3,
        "channel": 0
      },
      {
        "startTick": 43488,
        "endTick": 43506,
        "pitch": 61,
        "velocity": 118,
        "trackId": 3,
        "channel": 0
      },
      {
        "startTick": 43488,
        "endTick": 43508,
        "pitch": 88,
        "velocity": 120,
        "trackId": 1,
        "channel": 5
      },
      {
        "startTick": 43488,
        "endTick": 43508,
        "pitch": 64,
        "velocity": 112,
        "trackId": 5,
        "channel": 2
      },
      {
        "startTick": 43488,
        "endTick": 43508,
        "pitch": 69,
        "velocity": 114,
        "trackId": 5,
        "channel": 2
      },
      {
        "startTick": 43488,
        "endTick": 43508,
        "pitch": 73,
        "velocity": 115,
        "trackId": 5,
        "channel": 2
      },
      {
        "startTick": 43488,
        "endTick": 43508,
        "pitch": 76,
        "velocity": 119,
        "trackId": 7,
        "channel": 6
      },
      {
        "startTick": 43488,
        "endTick": 43512,
        "pitch": 76,
        "velocity": 116,
        "trackId": 5,
        "channel": 2
      },
      {
        "startTick": 43488,
        "endTick": 43520,
        "pitch": 61,
        "velocity": 108,
        "trackId": 5,
        "channel": 2
      },
      {
        "startTick": 43494,
        "endTick": 43514,
        "pitch": 81,
        "velocity": 104,
        "trackId": 12,
        "channel": 9
      },
      {
        "startTick": 43534,
        "endTick": 43562,
        "pitch": 37,
        "velocity": 125,
        "trackId": 4,
        "channel": 1
      },
      {
        "startTick": 43536,
        "endTick": 43558,
        "pitch": 88,
        "velocity": 122,
        "trackId": 1,
        "channel": 5
      },
      {
        "startTick": 43536,
        "endTick": 43558,
        "pitch": 57,
        "velocity": 113,
        "trackId": 3,
        "channel": 0
      },
      {
        "startTick": 43536,
        "endTick": 43558,
        "pitch": 76,
        "velocity": 120,
        "trackId": 7,
        "channel": 6
      },
      {
        "startTick": 43536,
        "endTick": 43560,
        "pitch": 81,
        "velocity": 114,
        "trackId": 5,
        "channel": 2
      },
      {
        "startTick": 43536,
        "endTick": 43562,
        "pitch": 69,
        "velocity": 117,
        "trackId": 5,
        "channel": 2
      },
      {
        "startTick": 43536,
        "endTick": 43566,
        "pitch": 61,
        "velocity": 118,
        "trackId": 3,
        "channel": 0
      },
      {
        "startTick": 43536,
        "endTick": 43568,
        "pitch": 73,
        "velocity": 115,
        "trackId": 5,
        "channel": 2
      },
      {
        "startTick": 43536,
        "endTick": 43568,
        "pitch": 76,
        "velocity": 108,
        "trackId": 5,
        "channel": 2
      },
      {
        "startTick": 43536,
        "endTick": 43570,
        "pitch": 64,
        "velocity": 123,
        "trackId": 3,
        "channel": 0
      },
      {
        "startTick": 43536,
        "endTick": 43572,
        "pitch": 61,
        "velocity": 118,
        "trackId": 5,
        "channel": 2
      },
      {
        "startTick": 43536,
        "endTick": 43590,
        "pitch": 64,
        "velocity": 108,
        "trackId": 5,
        "channel": 2
      },
      {
        "startTick": 43582,
        "endTick": 43660,
        "pitch": 38,
        "velocity": 125,
        "trackId": 4,
        "channel": 1
      },
      {
        "startTick": 43584,
        "endTick": 43634,
        "pitch": 74,
        "velocity": 120,
        "trackId": 5,
        "channel": 2
      },
      {
        "startTick": 43584,
        "endTick": 43650,
        "pitch": 57,
        "velocity": 123,
        "trackId": 3,
        "channel": 0
      },
      {
        "startTick": 43584,
        "endTick": 43652,
        "pitch": 62,
        "velocity": 123,
        "trackId": 3,
        "channel": 0
      },
      {
        "startTick": 43584,
        "endTick": 43652,
        "pitch": 69,
        "velocity": 123,
        "trackId": 3,
        "channel": 0
      },
      {
        "startTick": 43584,
        "endTick": 43662,
        "pitch": 66,
        "velocity": 123,
        "trackId": 3,
        "channel": 0
      },
      {
        "startTick": 43584,
        "endTick": 43664,
        "pitch": 78,
        "velocity": 119,
        "trackId": 5,
        "channel": 2
      },
      {
        "startTick": 43584,
        "endTick": 43664,
        "pitch": 81,
        "velocity": 119,
        "trackId": 5,
        "channel": 2
      },
      {
        "startTick": 43584,
        "endTick": 43666,
        "pitch": 62,
        "velocity": 123,
        "trackId": 5,
        "channel": 2
      },
      {
        "startTick": 43584,
        "endTick": 43668,
        "pitch": 66,
        "velocity": 119,
        "trackId": 5,
        "channel": 2
      },
      {
        "startTick": 43584,
        "endTick": 43670,
        "pitch": 93,
        "velocity": 122,
        "trackId": 1,
        "channel": 5
      },
      {
        "startTick": 43584,
        "endTick": 43670,
        "pitch": 81,
        "velocity": 121,
        "trackId": 7,
        "channel": 6
      },
      {
        "startTick": 43584,
        "endTick": 43700,
        "pitch": 69,
        "velocity": 119,
        "trackId": 5,
        "channel": 2
      },
      {
        "startTick": 43592,
        "endTick": 43614,
        "pitch": 81,
        "velocity": 103,
        "trackId": 12,
        "channel": 9
      },
      {
        "startTick": 43678,
        "endTick": 43702,
        "pitch": 37,
        "velocity": 125,
        "trackId": 4,
        "channel": 1
      },
      {
        "startTick": 43680,
        "endTick": 43696,
        "pitch": 57,
        "velocity": 117,
        "trackId": 3,
        "channel": 0
      },
      {
        "startTick": 43680,
        "endTick": 43698,
        "pitch": 64,
        "velocity": 122,
        "trackId": 3,
        "channel": 0
      },
      {
        "startTick": 43680,
        "endTick": 43700,
        "pitch": 61,
        "velocity": 121,
        "trackId": 3,
        "channel": 0
      },
      {
        "startTick": 43680,
        "endTick": 43700,
        "pitch": 76,
        "velocity": 112,
        "trackId": 5,
        "channel": 2
      },
      {
        "startTick": 43680,
        "endTick": 43702,
        "pitch": 88,
        "velocity": 121,
        "trackId": 1,
        "channel": 5
      },
      {
        "startTick": 43680,
        "endTick": 43702,
        "pitch": 76,
        "velocity": 120,
        "trackId": 7,
        "channel": 6
      },
      {
        "startTick": 43680,
        "endTick": 43704,
        "pitch": 61,
        "velocity": 113,
        "trackId": 5,
        "channel": 2
      },
      {
        "startTick": 43680,
        "endTick": 43706,
        "pitch": 73,
        "velocity": 114,
        "trackId": 5,
        "channel": 2
      },
      {
        "startTick": 43680,
        "endTick": 43710,
        "pitch": 64,
        "velocity": 117,
        "trackId": 5,
        "channel": 2
      },
      {
        "startTick": 43688,
        "endTick": 43710,
        "pitch": 81,
        "velocity": 105,
        "trackId": 12,
        "channel": 9
      },
      {
        "startTick": 43726,
        "endTick": 43762,
        "pitch": 37,
        "velocity": 125,
        "trackId": 4,
        "channel": 1
      },
      {
        "startTick": 43728,
        "endTick": 43736,
        "pitch": 81,
        "velocity": 101,
        "trackId": 5,
        "channel": 2
      },
      {
        "startTick": 43728,
        "endTick": 43746,
        "pitch": 69,
        "velocity": 115,
        "trackId": 5,
        "channel": 2
      },
      {
        "startTick": 43728,
        "endTick": 43746,
        "pitch": 76,
        "velocity": 114,
        "trackId": 5,
        "channel": 2
      },
      {
        "startTick": 43728,
        "endTick": 43750,
        "pitch": 64,
        "velocity": 122,
        "trackId": 3,
        "channel": 0
      },
      {
        "startTick": 43728,
        "endTick": 43752,
        "pitch": 57,
        "velocity": 117,
        "trackId": 3,
        "channel": 0
      },
      {
        "startTick": 43728,
        "endTick": 43754,
        "pitch": 61,
        "velocity": 121,
        "trackId": 3,
        "channel": 0
      },
      {
        "startTick": 43728,
        "endTick": 43754,
        "pitch": 64,
        "velocity": 120,
        "trackId": 5,
        "channel": 2
      },
      {
        "startTick": 43728,
        "endTick": 43754,
        "pitch": 73,
        "velocity": 116,
        "trackId": 5,
        "channel": 2
      },
      {
        "startTick": 43728,
        "endTick": 43756,
        "pitch": 88,
        "velocity": 120,
        "trackId": 1,
        "channel": 5
      },
      {
        "startTick": 43728,
        "endTick": 43756,
        "pitch": 61,
        "velocity": 107,
        "trackId": 5,
        "channel": 2
      },
      {
        "startTick": 43728,
        "endTick": 43756,
        "pitch": 76,
        "velocity": 119,
        "trackId": 7,
        "channel": 6
      },
      {
        "startTick": 43728,
        "endTick": 43758,
        "pitch": 69,
        "velocity": 122,
        "trackId": 3,
        "channel": 0
      },
      {
        "startTick": 43774,
        "endTick": 43804,
        "pitch": 36,
        "velocity": 123,
        "trackId": 4,
        "channel": 1
      },
      {
        "startTick": 43776,
        "endTick": 43794,
        "pitch": 57,
        "velocity": 121,
        "trackId": 3,
        "channel": 0
      },
      {
        "startTick": 43776,
        "endTick": 43794,
        "pitch": 69,
        "velocity": 111,
        "trackId": 5,
        "channel": 2
      },
      {
        "startTick": 43776,
        "endTick": 43798,
        "pitch": 69,
        "velocity": 123,
        "trackId": 3,
        "channel": 0
      },
      {
        "startTick": 43776,
        "endTick": 43798,
        "pitch": 75,
        "velocity": 118,
        "trackId": 5,
        "channel": 2
      },
      {
        "startTick": 43776,
        "endTick": 43800,
        "pitch": 87,
        "velocity": 121,
        "trackId": 1,
        "channel": 5
      },
      {
        "startTick": 43776,
        "endTick": 43800,
        "pitch": 60,
        "velocity": 121,
        "trackId": 3,
        "channel": 0
      },
      {
        "startTick": 43776,
        "endTick": 43800,
        "pitch": 63,
        "velocity": 116,
        "trackId": 5,
        "channel": 2
      },
      {
        "startTick": 43776,
        "endTick": 43800,
        "pitch": 72,
        "velocity": 118,
        "trackId": 5,
        "channel": 2
      },
      {
        "startTick": 43776,
        "endTick": 43800,
        "pitch": 75,
        "velocity": 120,
        "trackId": 7,
        "channel": 6
      },
      {
        "startTick": 43776,
        "endTick": 43802,
        "pitch": 63,
        "velocity": 123,
        "trackId": 3,
        "channel": 0
      },
      {
        "startTick": 43776,
        "endTick": 43802,
        "pitch": 60,
        "velocity": 113,
        "trackId": 5,
        "channel": 2
      },
      {
        "startTick": 43784,
        "endTick": 43810,
        "pitch": 81,
        "velocity": 103,
        "trackId": 12,
        "channel": 9
      },
      {
        "startTick": 43822,
        "endTick": 43860,
        "pitch": 36,
        "velocity": 122,
        "trackId": 4,
        "channel": 1
      },
      {
        "startTick": 43824,
        "endTick": 43838,
        "pitch": 69,
        "velocity": 113,
        "trackId": 5,
        "channel": 2
      },
      {
        "startTick": 43824,
        "endTick": 43844,
        "pitch": 72,
        "velocity": 115,
        "trackId": 5,
        "channel": 2
      },
      {
        "startTick": 43824,
        "endTick": 43846,
        "pitch": 57,
        "velocity": 122,
        "trackId": 3,
        "channel": 0
      },
      {
        "startTick": 43824,
        "endTick": 43846,
        "pitch": 60,
        "velocity": 117,
        "trackId": 3,
        "channel": 0
      },
      {
        "startTick": 43824,
        "endTick": 43848,
        "pitch": 69,
        "velocity": 122,
        "trackId": 3,
        "channel": 0
      },
      {
        "startTick": 43824,
        "endTick": 43848,
        "pitch": 75,
        "velocity": 114,
        "trackId": 5,
        "channel": 2
      },
      {
        "startTick": 43824,
        "endTick": 43852,
        "pitch": 87,
        "velocity": 119,
        "trackId": 1,
        "channel": 5
      },
      {
        "startTick": 43824,
        "endTick": 43852,
        "pitch": 63,
        "velocity": 122,
        "trackId": 3,
        "channel": 0
      },
      {
        "startTick": 43824,
        "endTick": 43852,
        "pitch": 75,
        "velocity": 118,
        "trackId": 7,
        "channel": 6
      },
      {
        "startTick": 43824,
        "endTick": 43854,
        "pitch": 60,
        "velocity": 112,
        "trackId": 5,
        "channel": 2
      },
      {
        "startTick": 43824,
        "endTick": 43858,
        "pitch": 63,
        "velocity": 115,
        "trackId": 5,
        "channel": 2
      },
      {
        "startTick": 43870,
        "endTick": 43914,
        "pitch": 37,
        "velocity": 125,
        "trackId": 4,
        "channel": 1
      },
      {
        "startTick": 43872,
        "endTick": 43896,
        "pitch": 69,
        "velocity": 121,
        "trackId": 3,
        "channel": 0
      },
      {
        "startTick": 43872,
        "endTick": 43904,
        "pitch": 57,
        "velocity": 123,
        "trackId": 3,
        "channel": 0
      },
      {
        "startTick": 43872,
        "endTick": 43906,
        "pitch": 69,
        "velocity": 119,
        "trackId": 5,
        "channel": 2
      },
      {
        "startTick": 43872,
        "endTick": 43908,
        "pitch": 64,
        "velocity": 123,
        "trackId": 3,
        "channel": 0
      },
      {
        "startTick": 43872,
        "endTick": 43910,
        "pitch": 88,
        "velocity": 121,
        "trackId": 1,
        "channel": 5
      },
      {
        "startTick": 43872,
        "endTick": 43910,
        "pitch": 61,
        "velocity": 123,
        "trackId": 3,
        "channel": 0
      },
      {
        "startTick": 43872,
        "endTick": 43910,
        "pitch": 76,
        "velocity": 119,
        "trackId": 7,
        "channel": 6
      },
      {
        "startTick": 43872,
        "endTick": 43912,
        "pitch": 76,
        "velocity": 118,
        "trackId": 5,
        "channel": 2
      },
      {
        "startTick": 43872,
        "endTick": 43914,
        "pitch": 73,
        "velocity": 116,
        "trackId": 5,
        "channel": 2
      },
      {
        "startTick": 43872,
        "endTick": 43924,
        "pitch": 61,
        "velocity": 116,
        "trackId": 5,
        "channel": 2
      },
      {
        "startTick": 43872,
        "endTick": 43928,
        "pitch": 64,
        "velocity": 112,
        "trackId": 5,
        "channel": 2
      },
      {
        "startTick": 43878,
        "endTick": 43902,
        "pitch": 81,
        "velocity": 102,
        "trackId": 12,
        "channel": 9
      },
      {
        "startTick": 43966,
        "endTick": 44028,
        "pitch": 38,
        "velocity": 125,
        "trackId": 4,
        "channel": 1
      },
      {
        "startTick": 43968,
        "endTick": 43992,
        "pitch": 69,
        "velocity": 120,
        "trackId": 5,
        "channel": 2
      },
      {
        "startTick": 43968,
        "endTick": 44000,
        "pitch": 74,
        "velocity": 119,
        "trackId": 5,
        "channel": 2
      },
      {
        "startTick": 43968,
        "endTick": 44004,
        "pitch": 57,
        "velocity": 123,
        "trackId": 3,
        "channel": 0
      },
      {
        "startTick": 43968,
        "endTick": 44008,
        "pitch": 62,
        "velocity": 122,
        "trackId": 3,
        "channel": 0
      },
      {
        "startTick": 43968,
        "endTick": 44010,
        "pitch": 78,
        "velocity": 119,
        "trackId": 5,
        "channel": 2
      },
      {
        "startTick": 43968,
        "endTick": 44012,
        "pitch": 66,
        "velocity": 111,
        "trackId": 5,
        "channel": 2
      },
      {
        "startTick": 43968,
        "endTick": 44014,
        "pitch": 69,
        "velocity": 123,
        "trackId": 3,
        "channel": 0
      },
      {
        "startTick": 43968,
        "endTick": 44016,
        "pitch": 90,
        "velocity": 121,
        "trackId": 1,
        "channel": 5
      },
      {
        "startTick": 43968,
        "endTick": 44016,
        "pitch": 78,
        "velocity": 120,
        "trackId": 7,
        "channel": 6
      },
      {
        "startTick": 43968,
        "endTick": 44018,
        "pitch": 62,
        "velocity": 119,
        "trackId": 5,
        "channel": 2
      },
      {
        "startTick": 43968,
        "endTick": 44022,
        "pitch": 66,
        "velocity": 122,
        "trackId": 3,
        "channel": 0
      },
      {
        "startTick": 43974,
        "endTick": 43998,
        "pitch": 81,
        "velocity": 103,
        "trackId": 12,
        "channel": 9
      },
      {
        "startTick": 44062,
        "endTick": 44108,
        "pitch": 37,
        "velocity": 125,
        "trackId": 4,
        "channel": 1
      },
      {
        "startTick": 44064,
        "endTick": 44096,
        "pitch": 69,
        "velocity": 122,
        "trackId": 5,
        "channel": 2
      },
      {
        "startTick": 44064,
        "endTick": 44102,
        "pitch": 73,
        "velocity": 118,
        "trackId": 5,
        "channel": 2
      },
      {
        "startTick": 44064,
        "endTick": 44104,
        "pitch": 88,
        "velocity": 122,
        "trackId": 1,
        "channel": 5
      },
      {
        "startTick": 44064,
        "endTick": 44104,
        "pitch": 76,
        "velocity": 121,
        "trackId": 7,
        "channel": 6
      },
      {
        "startTick": 44064,
        "endTick": 44108,
        "pitch": 57,
        "velocity": 123,
        "trackId": 3,
        "channel": 0
      },
      {
        "startTick": 44064,
        "endTick": 44108,
        "pitch": 61,
        "velocity": 123,
        "trackId": 3,
        "channel": 0
      },
      {
        "startTick": 44064,
        "endTick": 44108,
        "pitch": 64,
        "velocity": 123,
        "trackId": 3,
        "channel": 0
      },
      {
        "startTick": 44064,
        "endTick": 44108,
        "pitch": 76,
        "velocity": 122,
        "trackId": 5,
        "channel": 2
      },
      {
        "startTick": 44064,
        "endTick": 44112,
        "pitch": 64,
        "velocity": 120,
        "trackId": 5,
        "channel": 2
      },
      {
        "startTick": 44064,
        "endTick": 44114,
        "pitch": 69,
        "velocity": 123,
        "trackId": 3,
        "channel": 0
      },
      {
        "startTick": 44064,
        "endTick": 44114,
        "pitch": 61,
        "velocity": 119,
        "trackId": 5,
        "channel": 2
      },
      {
        "startTick": 44072,
        "endTick": 44100,
        "pitch": 81,
        "velocity": 104,
        "trackId": 12,
        "channel": 9
      },
      {
        "startTick": 44158,
        "endTick": 44166,
        "pitch": 47,
        "velocity": 118,
        "trackId": 12,
        "channel": 9
      },
      {
        "startTick": 44158,
        "endTick": 44174,
        "pitch": 35,
        "velocity": 123,
        "trackId": 12,
        "channel": 9
      },
      {
        "startTick": 44158,
        "endTick": 44174,
        "pitch": 45,
        "velocity": 123,
        "trackId": 12,
        "channel": 9
      },
      {
        "startTick": 44158,
        "endTick": 44188,
        "pitch": 36,
        "velocity": 125,
        "trackId": 4,
        "channel": 1
      },
      {
        "startTick": 44160,
        "endTick": 44176,
        "pitch": 60,
        "velocity": 123,
        "trackId": 3,
        "channel": 0
      },
      {
        "startTick": 44160,
        "endTick": 44176,
        "pitch": 64,
        "velocity": 123,
        "trackId": 3,
        "channel": 0
      },
      {
        "startTick": 44160,
        "endTick": 44176,
        "pitch": 60,
        "velocity": 120,
        "trackId": 5,
        "channel": 2
      },
      {
        "startTick": 44160,
        "endTick": 44176,
        "pitch": 67,
        "velocity": 119,
        "trackId": 5,
        "channel": 2
      },
      {
        "startTick": 44160,
        "endTick": 44176,
        "pitch": 72,
        "velocity": 120,
        "trackId": 5,
        "channel": 2
      },
      {
        "startTick": 44160,
        "endTick": 44176,
        "pitch": 36,
        "velocity": 122,
        "trackId": 13,
        "channel": 10
      },
      {
        "startTick": 44160,
        "endTick": 44178,
        "pitch": 67,
        "velocity": 123,
        "trackId": 3,
        "channel": 0
      },
      {
        "startTick": 44160,
        "endTick": 44178,
        "pitch": 64,
        "velocity": 119,
        "trackId": 5,
        "channel": 2
      },
      {
        "startTick": 44160,
        "endTick": 44178,
        "pitch": 76,
        "velocity": 118,
        "trackId": 5,
        "channel": 2
      },
      {
        "startTick": 44160,
        "endTick": 44178,
        "pitch": 48,
        "velocity": 118,
        "trackId": 13,
        "channel": 10
      },
      {
        "startTick": 44160,
        "endTick": 44180,
        "pitch": 48,
        "velocity": 120,
        "trackId": 3,
        "channel": 0
      },
      {
        "startTick": 44160,
        "endTick": 44182,
        "pitch": 55,
        "velocity": 123,
        "trackId": 3,
        "channel": 0
      },
      {
        "startTick": 44166,
        "endTick": 44186,
        "pitch": 81,
        "velocity": 102,
        "trackId": 12,
        "channel": 9
      },
      {
        "startTick": 44168,
        "endTick": 44172,
        "pitch": 88,
        "velocity": 113,
        "trackId": 6,
        "channel": 3
      },
      {
        "startTick": 44172,
        "endTick": 44194,
        "pitch": 76,
        "velocity": 113,
        "trackId": 6,
        "channel": 3
      },
      {
        "startTick": 44200,
        "endTick": 44232,
        "pitch": 55,
        "velocity": 119,
        "trackId": 3,
        "channel": 0
      },
      {
        "startTick": 44202,
        "endTick": 44224,
        "pitch": 60,
        "velocity": 123,
        "trackId": 3,
        "channel": 0
      },
      {
        "startTick": 44202,
        "endTick": 44228,
        "pitch": 48,
        "velocity": 118,
        "trackId": 3,
        "channel": 0
      },
      {
        "startTick": 44202,
        "endTick": 44230,
        "pitch": 67,
        "velocity": 123,
        "trackId": 3,
        "channel": 0
      },
      {
        "startTick": 44204,
        "endTick": 44228,
        "pitch": 64,
        "velocity": 123,
        "trackId": 3,
        "channel": 0
      },
      {
        "startTick": 44206,
        "endTick": 44228,
        "pitch": 35,
        "velocity": 123,
        "trackId": 12,
        "channel": 9
      },
      {
        "startTick": 44206,
        "endTick": 44230,
        "pitch": 45,
        "velocity": 123,
        "trackId": 12,
        "channel": 9
      },
      {
        "startTick": 44206,
        "endTick": 44236,
        "pitch": 36,
        "velocity": 120,
        "trackId": 4,
        "channel": 1
      },
      {
        "startTick": 44208,
        "endTick": 44226,
        "pitch": 72,
        "velocity": 114,
        "trackId": 5,
        "channel": 2
      },
      {
        "startTick": 44208,
        "endTick": 44226,
        "pitch": 48,
        "velocity": 117,
        "trackId": 13,
        "channel": 10
      },
      {
        "startTick": 44208,
        "endTick": 44228,
        "pitch": 67,
        "velocity": 116,
        "trackId": 5,
        "channel": 2
      },
      {
        "startTick": 44208,
        "endTick": 44230,
        "pitch": 76,
        "velocity": 116,
        "trackId": 5,
        "channel": 2
      },
      {
        "startTick": 44208,
        "endTick": 44230,
        "pitch": 36,
        "velocity": 122,
        "trackId": 13,
        "channel": 10
      },
      {
        "startTick": 44208,
        "endTick": 44232,
        "pitch": 60,
        "velocity": 116,
        "trackId": 5,
        "channel": 2
      },
      {
        "startTick": 44208,
        "endTick": 44234,
        "pitch": 64,
        "velocity": 108,
        "trackId": 5,
        "channel": 2
      },
      {
        "startTick": 44214,
        "endTick": 44232,
        "pitch": 88,
        "velocity": 113,
        "trackId": 6,
        "channel": 3
      },
      {
        "startTick": 44214,
        "endTick": 44232,
        "pitch": 81,
        "velocity": 99,
        "trackId": 12,
        "channel": 9
      },
      {
        "startTick": 44214,
        "endTick": 44236,
        "pitch": 76,
        "velocity": 113,
        "trackId": 6,
        "channel": 3
      },
      {
        "startTick": 44250,
        "endTick": 44274,
        "pitch": 60,
        "velocity": 122,
        "trackId": 3,
        "channel": 0
      },
      {
        "startTick": 44252,
        "endTick": 44278,
        "pitch": 67,
        "velocity": 123,
        "trackId": 3,
        "channel": 0
      },
      {
        "startTick": 44252,
        "endTick": 44280,
        "pitch": 48,
        "velocity": 123,
        "trackId": 3,
        "channel": 0
      },
      {
        "startTick": 44252,
        "endTick": 44282,
        "pitch": 55,
        "velocity": 121,
        "trackId": 3,
        "channel": 0
      },
      {
        "startTick": 44254,
        "endTick": 44276,
        "pitch": 64,
        "velocity": 123,
        "trackId": 3,
        "channel": 0
      },
      {
        "startTick": 44254,
        "endTick": 44276,
        "pitch": 35,
        "velocity": 123,
        "trackId": 12,
        "channel": 9
      },
      {
        "startTick": 44254,
        "endTick": 44276,
        "pitch": 45,
        "velocity": 124,
        "trackId": 12,
        "channel": 9
      },
      {
        "startTick": 44254,
        "endTick": 44276,
        "pitch": 81,
        "velocity": 104,
        "trackId": 12,
        "channel": 9
      },
      {
        "startTick": 44254,
        "endTick": 44294,
        "pitch": 36,
        "velocity": 116,
        "trackId": 4,
        "channel": 1
      },
      {
        "startTick": 44256,
        "endTick": 44258,
        "pitch": 88,
        "velocity": 113,
        "trackId": 6,
        "channel": 3
      },
      {
        "startTick": 44256,
        "endTick": 44274,
        "pitch": 72,
        "velocity": 116,
        "trackId": 5,
        "channel": 2
      },
      {
        "startTick": 44256,
        "endTick": 44274,
        "pitch": 36,
        "velocity": 120,
        "trackId": 13,
        "channel": 10
      },
      {
        "startTick": 44256,
        "endTick": 44274,
        "pitch": 48,
        "velocity": 117,
        "trackId": 13,
        "channel": 10
      },
      {
        "startTick": 44256,
        "endTick": 44276,
        "pitch": 67,
        "velocity": 113,
        "trackId": 5,
        "channel": 2
      },
      {
        "startTick": 44256,
        "endTick": 44278,
        "pitch": 76,
        "velocity": 113,
        "trackId": 5,
        "channel": 2
      },
      {
        "startTick": 44256,
        "endTick": 44284,
        "pitch": 60,
        "velocity": 115,
        "trackId": 5,
        "channel": 2
      },
      {
        "startTick": 44256,
        "endTick": 44284,
        "pitch": 64,
        "velocity": 117,
        "trackId": 5,
        "channel": 2
      },
      {
        "startTick": 44260,
        "endTick": 44278,
        "pitch": 76,
        "velocity": 113,
        "trackId": 6,
        "channel": 3
      },
      {
        "startTick": 44296,
        "endTick": 44334,
        "pitch": 48,
        "velocity": 109,
        "trackId": 3,
        "channel": 0
      },
      {
        "startTick": 44298,
        "endTick": 44320,
        "pitch": 81,
        "velocity": 110,
        "trackId": 12,
        "channel": 9
      },
      {
        "startTick": 44298,
        "endTick": 44324,
        "pitch": 60,
        "velocity": 122,
        "trackId": 3,
        "channel": 0
      },
      {
        "startTick": 44298,
        "endTick": 44326,
        "pitch": 67,
        "velocity": 123,
        "trackId": 3,
        "channel": 0
      },
      {
        "startTick": 44298,
        "endTick": 44328,
        "pitch": 55,
        "velocity": 122,
        "trackId": 3,
        "channel": 0
      },
      {
        "startTick": 44300,
        "endTick": 44324,
        "pitch": 76,
        "velocity": 113,
        "trackId": 6,
        "channel": 3
      },
      {
        "startTick": 44300,
        "endTick": 44324,
        "pitch": 88,
        "velocity": 113,
        "trackId": 6,
        "channel": 3
      },
      {
        "startTick": 44300,
        "endTick": 44332,
        "pitch": 64,
        "velocity": 122,
        "trackId": 3,
        "channel": 0
      },
      {
        "startTick": 44302,
        "endTick": 44326,
        "pitch": 35,
        "velocity": 123,
        "trackId": 12,
        "channel": 9
      },
      {
        "startTick": 44302,
        "endTick": 44334,
        "pitch": 45,
        "velocity": 122,
        "trackId": 12,
        "channel": 9
      },
      {
        "startTick": 44302,
        "endTick": 44338,
        "pitch": 31,
        "velocity": 125,
        "trackId": 4,
        "channel": 1
      },
      {
        "startTick": 44304,
        "endTick": 44322,
        "pitch": 36,
        "velocity": 120,
        "trackId": 13,
        "channel": 10
      },
      {
        "startTick": 44304,
        "endTick": 44322,
        "pitch": 48,
        "velocity": 118,
        "trackId": 13,
        "channel": 10
      },
      {
        "startTick": 44304,
        "endTick": 44330,
        "pitch": 67,
        "velocity": 119,
        "trackId": 5,
        "channel": 2
      },
      {
        "startTick": 44304,
        "endTick": 44336,
        "pitch": 72,
        "velocity": 120,
        "trackId": 5,
        "channel": 2
      },
      {
        "startTick": 44304,
        "endTick": 44338,
        "pitch": 64,
        "velocity": 118,
        "trackId": 5,
        "channel": 2
      },
      {
        "startTick": 44304,
        "endTick": 44338,
        "pitch": 76,
        "velocity": 117,
        "trackId": 5,
        "channel": 2
      },
      {
        "startTick": 44304,
        "endTick": 44342,
        "pitch": 60,
        "velocity": 115,
        "trackId": 5,
        "channel": 2
      },
      {
        "startTick": 44350,
        "endTick": 44386,
        "pitch": 47,
        "velocity": 120,
        "trackId": 3,
        "channel": 0
      },
      {
        "startTick": 44350,
        "endTick": 44392,
        "pitch": 35,
        "velocity": 124,
        "trackId": 12,
        "channel": 9
      },
      {
        "startTick": 44350,
        "endTick": 44396,
        "pitch": 43,
        "velocity": 124,
        "trackId": 12,
        "channel": 9
      },
      {
        "startTick": 44350,
        "endTick": 44400,
        "pitch": 35,
        "velocity": 125,
        "trackId": 4,
        "channel": 1
      },
      {
        "startTick": 44352,
        "endTick": 44372,
        "pitch": 36,
        "velocity": 119,
        "trackId": 13,
        "channel": 10
      },
      {
        "startTick": 44352,
        "endTick": 44372,
        "pitch": 48,
        "velocity": 120,
        "trackId": 13,
        "channel": 10
      },
      {
        "startTick": 44352,
        "endTick": 44374,
        "pitch": 81,
        "velocity": 114,
        "trackId": 12,
        "channel": 9
      },
      {
        "startTick": 44352,
        "endTick": 44386,
        "pitch": 67,
        "velocity": 119,
        "trackId": 5,
        "channel": 2
      },
      {
        "startTick": 44352,
        "endTick": 44388,
        "pitch": 55,
        "velocity": 123,
        "trackId": 3,
        "channel": 0
      },
      {
        "startTick": 44352,
        "endTick": 44388,
        "pitch": 71,
        "velocity": 121,
        "trackId": 5,
        "channel": 2
      },
      {
        "startTick": 44352,
        "endTick": 44390,
        "pitch": 59,
        "velocity": 123,
        "trackId": 3,
        "channel": 0
      },
      {
        "startTick": 44352,
        "endTick": 44392,
        "pitch": 62,
        "velocity": 123,
        "trackId": 3,
        "channel": 0
      },
      {
        "startTick": 44352,
        "endTick": 44392,
        "pitch": 67,
        "velocity": 123,
        "trackId": 3,
        "channel": 0
      },
      {
        "startTick": 44352,
        "endTick": 44394,
        "pitch": 74,
        "velocity": 119,
        "trackId": 5,
        "channel": 2
      },
      {
        "startTick": 44352,
        "endTick": 44396,
        "pitch": 62,
        "velocity": 119,
        "trackId": 5,
        "channel": 2
      },
      {
        "startTick": 44352,
        "endTick": 44398,
        "pitch": 59,
        "velocity": 118,
        "trackId": 5,
        "channel": 2
      },
      {
        "startTick": 44354,
        "endTick": 44382,
        "pitch": 74,
        "velocity": 113,
        "trackId": 6,
        "channel": 3
      },
      {
        "startTick": 44354,
        "endTick": 44382,
        "pitch": 86,
        "velocity": 113,
        "trackId": 6,
        "channel": 3
      },
      {
        "startTick": 44444,
        "endTick": 44492,
        "pitch": 47,
        "velocity": 120,
        "trackId": 3,
        "channel": 0
      },
      {
        "startTick": 44446,
        "endTick": 44460,
        "pitch": 45,
        "velocity": 121,
        "trackId": 12,
        "channel": 9
      },
      {
        "startTick": 44446,
        "endTick": 44484,
        "pitch": 67,
        "velocity": 123,
        "trackId": 3,
        "channel": 0
      },
      {
        "startTick": 44446,
        "endTick": 44486,
        "pitch": 55,
        "velocity": 123,
        "trackId": 3,
        "channel": 0
      },
      {
        "startTick": 44446,
        "endTick": 44490,
        "pitch": 35,
        "velocity": 124,
        "trackId": 12,
        "channel": 9
      },
      {
        "startTick": 44446,
        "endTick": 44492,
        "pitch": 43,
        "velocity": 123,
        "trackId": 12,
        "channel": 9
      },
      {
        "startTick": 44446,
        "endTick": 44494,
        "pitch": 35,
        "velocity": 125,
        "trackId": 4,
        "channel": 1
      },
      {
        "startTick": 44448,
        "endTick": 44466,
        "pitch": 48,
        "velocity": 122,
        "trackId": 13,
        "channel": 10
      },
      {
        "startTick": 44448,
        "endTick": 44468,
        "pitch": 36,
        "velocity": 122,
        "trackId": 13,
        "channel": 10
      },
      {
        "startTick": 44448,
        "endTick": 44472,
        "pitch": 71,
        "velocity": 121,
        "trackId": 5,
        "channel": 2
      },
      {
        "startTick": 44448,
        "endTick": 44472,
        "pitch": 81,
        "velocity": 109,
        "trackId": 12,
        "channel": 9
      },
      {
        "startTick": 44448,
        "endTick": 44478,
        "pitch": 59,
        "velocity": 123,
        "trackId": 3,
        "channel": 0
      },
      {
        "startTick": 44448,
        "endTick": 44480,
        "pitch": 62,
        "velocity": 119,
        "trackId": 5,
        "channel": 2
      },
      {
        "startTick": 44448,
        "endTick": 44484,
        "pitch": 59,
        "velocity": 115,
        "trackId": 5,
        "channel": 2
      },
      {
        "startTick": 44448,
        "endTick": 44484,
        "pitch": 67,
        "velocity": 117,
        "trackId": 5,
        "channel": 2
      },
      {
        "startTick": 44448,
        "endTick": 44492,
        "pitch": 62,
        "velocity": 123,
        "trackId": 3,
        "channel": 0
      },
      {
        "startTick": 44448,
        "endTick": 44492,
        "pitch": 74,
        "velocity": 119,
        "trackId": 5,
        "channel": 2
      },
      {
        "startTick": 44450,
        "endTick": 44482,
        "pitch": 86,
        "velocity": 113,
        "trackId": 6,
        "channel": 3
      },
      {
        "startTick": 44450,
        "endTick": 44486,
        "pitch": 74,
        "velocity": 113,
        "trackId": 6,
        "channel": 3
      },
      {
        "startTick": 44540,
        "endTick": 44572,
        "pitch": 53,
        "velocity": 123,
        "trackId": 3,
        "channel": 0
      },
      {
        "startTick": 44542,
        "endTick": 44558,
        "pitch": 35,
        "velocity": 124,
        "trackId": 12,
        "channel": 9
      },
      {
        "startTick": 44542,
        "endTick": 44560,
        "pitch": 81,
        "velocity": 108,
        "trackId": 12,
        "channel": 9
      },
      {
        "startTick": 44542,
        "endTick": 44564,
        "pitch": 43,
        "velocity": 123,
        "trackId": 12,
        "channel": 9
      },
      {
        "startTick": 44542,
        "endTick": 44590,
        "pitch": 34,
        "velocity": 125,
        "trackId": 4,
        "channel": 1
      },
      {
        "startTick": 44544,
        "endTick": 44546,
        "pitch": 86,
        "velocity": 113,
        "trackId": 6,
        "channel": 3
      },
      {
        "startTick": 44544,
        "endTick": 44562,
        "pitch": 48,
        "velocity": 120,
        "trackId": 13,
        "channel": 10
      },
      {
        "startTick": 44544,
        "endTick": 44564,
        "pitch": 36,
        "velocity": 119,
        "trackId": 13,
        "channel": 10
      },
      {
        "startTick": 44544,
        "endTick": 44566,
        "pitch": 70,
        "velocity": 118,
        "trackId": 5,
        "channel": 2
      },
      {
        "startTick": 44544,
        "endTick": 44568,
        "pitch": 62,
        "velocity": 123,
        "trackId": 3,
        "channel": 0
      },
      {
        "startTick": 44544,
        "endTick": 44568,
        "pitch": 77,
        "velocity": 116,
        "trackId": 5,
        "channel": 2
      },
      {
        "startTick": 44544,
        "endTick": 44570,
        "pitch": 58,
        "velocity": 123,
        "trackId": 3,
        "channel": 0
      },
      {
        "startTick": 44544,
        "endTick": 44570,
        "pitch": 65,
        "velocity": 114,
        "trackId": 5,
        "channel": 2
      },
      {
        "startTick": 44544,
        "endTick": 44570,
        "pitch": 74,
        "velocity": 122,
        "trackId": 5,
        "channel": 2
      },
      {
        "startTick": 44544,
        "endTick": 44574,
        "pitch": 46,
        "velocity": 122,
        "trackId": 3,
        "channel": 0
      },
      {
        "startTick": 44544,
        "endTick": 44576,
        "pitch": 58,
        "velocity": 121,
        "trackId": 5,
        "channel": 2
      },
      {
        "startTick": 44546,
        "endTick": 44574,
        "pitch": 65,
        "velocity": 123,
        "trackId": 3,
        "channel": 0
      },
      {
        "startTick": 44548,
        "endTick": 44568,
        "pitch": 74,
        "velocity": 113,
        "trackId": 6,
        "channel": 3
      },
      {
        "startTick": 44584,
        "endTick": 44612,
        "pitch": 62,
        "velocity": 115,
        "trackId": 3,
        "channel": 0
      },
      {
        "startTick": 44586,
        "endTick": 44606,
        "pitch": 81,
        "velocity": 106,
        "trackId": 12,
        "channel": 9
      },
      {
        "startTick": 44586,
        "endTick": 44616,
        "pitch": 58,
        "velocity": 120,
        "trackId": 3,
        "channel": 0
      },
      {
        "startTick": 44586,
        "endTick": 44618,
        "pitch": 53,
        "velocity": 122,
        "trackId": 3,
        "channel": 0
      },
      {
        "startTick": 44588,
        "endTick": 44616,
        "pitch": 46,
        "velocity": 121,
        "trackId": 3,
        "channel": 0
      },
      {
        "startTick": 44588,
        "endTick": 44616,
        "pitch": 65,
        "velocity": 123,
        "trackId": 3,
        "channel": 0
      },
      {
        "startTick": 44590,
        "endTick": 44610,
        "pitch": 35,
        "velocity": 123,
        "trackId": 12,
        "channel": 9
      },
      {
        "startTick": 44590,
        "endTick": 44612,
        "pitch": 43,
        "velocity": 123,
        "trackId": 12,
        "channel": 9
      },
      {
        "startTick": 44590,
        "endTick": 44622,
        "pitch": 33,
        "velocity": 125,
        "trackId": 4,
        "channel": 1
      },
      {
        "startTick": 44592,
        "endTick": 44610,
        "pitch": 86,
        "velocity": 113,
        "trackId": 6,
        "channel": 3
      },
      {
        "startTick": 44592,
        "endTick": 44610,
        "pitch": 36,
        "velocity": 121,
        "trackId": 13,
        "channel": 10
      },
      {
        "startTick": 44592,
        "endTick": 44610,
        "pitch": 48,
        "velocity": 118,
        "trackId": 13,
        "channel": 10
      },
      {
        "startTick": 44592,
        "endTick": 44612,
        "pitch": 74,
        "velocity": 104,
        "trackId": 5,
        "channel": 2
      },
      {
        "startTick": 44592,
        "endTick": 44612,
        "pitch": 74,
        "velocity": 113,
        "trackId": 6,
        "channel": 3
      },
      {
        "startTick": 44592,
        "endTick": 44616,
        "pitch": 70,
        "velocity": 120,
        "trackId": 5,
        "channel": 2
      },
      {
        "startTick": 44592,
        "endTick": 44622,
        "pitch": 77,
        "velocity": 117,
        "trackId": 5,
        "channel": 2
      },
      {
        "startTick": 44592,
        "endTick": 44624,
        "pitch": 65,
        "velocity": 114,
        "trackId": 5,
        "channel": 2
      },
      {
        "startTick": 44592,
        "endTick": 44626,
        "pitch": 58,
        "velocity": 115,
        "trackId": 5,
        "channel": 2
      },
      {
        "startTick": 44630,
        "endTick": 44652,
        "pitch": 81,
        "velocity": 108,
        "trackId": 12,
        "channel": 9
      },
      {
        "startTick": 44632,
        "endTick": 44660,
        "pitch": 62,
        "velocity": 123,
        "trackId": 3,
        "channel": 0
      },
      {
        "startTick": 44634,
        "endTick": 44664,
        "pitch": 58,
        "velocity": 123,
        "trackId": 3,
        "channel": 0
      },
      {
        "startTick": 44634,
        "endTick": 44666,
        "pitch": 65,
        "velocity": 113,
        "trackId": 3,
        "channel": 0
      },
      {
        "startTick": 44634,
        "endTick": 44704,
        "pitch": 53,
        "velocity": 122,
        "trackId": 3,
        "channel": 0
      },
      {
        "startTick": 44636,
        "endTick": 44640,
        "pitch": 86,
        "velocity": 113,
        "trackId": 6,
        "channel": 3
      },
      {
        "startTick": 44638,
        "endTick": 44660,
        "pitch": 35,
        "velocity": 123,
        "trackId": 12,
        "channel": 9
      },
      {
        "startTick": 44638,
        "endTick": 44660,
        "pitch": 43,
        "velocity": 123,
        "trackId": 12,
        "channel": 9
      },
      {
        "startTick": 44638,
        "endTick": 44664,
        "pitch": 46,
        "velocity": 120,
        "trackId": 3,
        "channel": 0
      },
      {
        "startTick": 44638,
        "endTick": 44682,
        "pitch": 32,
        "velocity": 125,
        "trackId": 4,
        "channel": 1
      },
      {
        "startTick": 44640,
        "endTick": 44654,
        "pitch": 48,
        "velocity": 119,
        "trackId": 13,
        "channel": 10
      },
      {
        "startTick": 44640,
        "endTick": 44658,
        "pitch": 74,
        "velocity": 113,
        "trackId": 6,
        "channel": 3
      },
      {
        "startTick": 44640,
        "endTick": 44658,
        "pitch": 36,
        "velocity": 122,
        "trackId": 13,
        "channel": 10
      },
      {
        "startTick": 44640,
        "endTick": 44660,
        "pitch": 74,
        "velocity": 105,
        "trackId": 5,
        "channel": 2
      },
      {
        "startTick": 44640,
        "endTick": 44664,
        "pitch": 70,
        "velocity": 105,
        "trackId": 5,
        "channel": 2
      },
      {
        "startTick": 44640,
        "endTick": 44666,
        "pitch": 77,
        "velocity": 105,
        "trackId": 5,
        "channel": 2
      },
      {
        "startTick": 44640,
        "endTick": 44680,
        "pitch": 65,
        "velocity": 105,
        "trackId": 5,
        "channel": 2
      },
      {
        "startTick": 44678,
        "endTick": 44700,
        "pitch": 81,
        "velocity": 111,
        "trackId": 12,
        "channel": 9
      },
      {
        "startTick": 44680,
        "endTick": 44706,
        "pitch": 62,
        "velocity": 123,
        "trackId": 3,
        "channel": 0
      },
      {
        "startTick": 44680,
        "endTick": 44712,
        "pitch": 58,
        "velocity": 122,
        "trackId": 3,
        "channel": 0
      },
      {
        "startTick": 44682,
        "endTick": 44712,
        "pitch": 65,
        "velocity": 117,
        "trackId": 3,
        "channel": 0
      },
      {
        "startTick": 44684,
        "endTick": 44702,
        "pitch": 74,
        "velocity": 113,
        "trackId": 6,
        "channel": 3
      },
      {
        "startTick": 44684,
        "endTick": 44706,
        "pitch": 86,
        "velocity": 113,
        "trackId": 6,
        "channel": 3
      },
      {
        "startTick": 44684,
        "endTick": 44708,
        "pitch": 66,
        "velocity": 120,
        "trackId": 3,
        "channel": 0
      },
      {
        "startTick": 44684,
        "endTick": 44722,
        "pitch": 46,
        "velocity": 121,
        "trackId": 3,
        "channel": 0
      },
      {
        "startTick": 44686,
        "endTick": 44712,
        "pitch": 35,
        "velocity": 122,
        "trackId": 12,
        "channel": 9
      },
      {
        "startTick": 44686,
        "endTick": 44714,
        "pitch": 43,
        "velocity": 123,
        "trackId": 12,
        "channel": 9
      },
      {
        "startTick": 44686,
        "endTick": 44722,
        "pitch": 31,
        "velocity": 125,
        "trackId": 4,
        "channel": 1
      },
      {
        "startTick": 44688,
        "endTick": 44706,
        "pitch": 48,
        "velocity": 119,
        "trackId": 13,
        "channel": 10
      },
      {
        "startTick": 44688,
        "endTick": 44708,
        "pitch": 74,
        "velocity": 111,
        "trackId": 5,
        "channel": 2
      },
      {
        "startTick": 44688,
        "endTick": 44708,
        "pitch": 36,
        "velocity": 122,
        "trackId": 13,
        "channel": 10
      },
      {
        "startTick": 44688,
        "endTick": 44714,
        "pitch": 70,
        "velocity": 116,
        "trackId": 5,
        "channel": 2
      },
      {
        "startTick": 44688,
        "endTick": 44722,
        "pitch": 77,
        "velocity": 118,
        "trackId": 5,
        "channel": 2
      },
      {
        "startTick": 44688,
        "endTick": 44724,
        "pitch": 58,
        "velocity": 119,
        "trackId": 5,
        "channel": 2
      },
      {
        "startTick": 44728,
        "endTick": 44754,
        "pitch": 81,
        "velocity": 112,
        "trackId": 12,
        "channel": 9
      },
      {
        "startTick": 44732,
        "endTick": 44784,
        "pitch": 66,
        "velocity": 123,
        "trackId": 3,
        "channel": 0
      },
      {
        "startTick": 44734,
        "endTick": 44776,
        "pitch": 35,
        "velocity": 123,
        "trackId": 12,
        "channel": 9
      },
      {
        "startTick": 44734,
        "endTick": 44780,
        "pitch": 60,
        "velocity": 123,
        "trackId": 3,
        "channel": 0
      },
      {
        "startTick": 44734,
        "endTick": 44782,
        "pitch": 45,
        "velocity": 124,
        "trackId": 12,
        "channel": 9
      },
      {
        "startTick": 44734,
        "endTick": 44784,
        "pitch": 54,
        "velocity": 123,
        "trackId": 3,
        "channel": 0
      },
      {
        "startTick": 44734,
        "endTick": 44788,
        "pitch": 50,
        "velocity": 122,
        "trackId": 3,
        "channel": 0
      },
      {
        "startTick": 44734,
        "endTick": 44790,
        "pitch": 62,
        "velocity": 123,
        "trackId": 3,
        "channel": 0
      },
      {
        "startTick": 44734,
        "endTick": 44798,
        "pitch": 30,
        "velocity": 125,
        "trackId": 4,
        "channel": 1
      },
      {
        "startTick": 44736,
        "endTick": 44738,
        "pitch": 78,
        "velocity": 113,
        "trackId": 6,
        "channel": 3
      },
      {
        "startTick": 44736,
        "endTick": 44756,
        "pitch": 48,
        "velocity": 120,
        "trackId": 13,
        "channel": 10
      },
      {
        "startTick": 44736,
        "endTick": 44758,
        "pitch": 36,
        "velocity": 122,
        "trackId": 13,
        "channel": 10
      },
      {
        "startTick": 44736,
        "endTick": 44776,
        "pitch": 74,
        "velocity": 117,
        "trackId": 5,
        "channel": 2
      },
      {
        "startTick": 44736,
        "endTick": 44780,
        "pitch": 50,
        "velocity": 122,
        "trackId": 5,
        "channel": 2
      },
      {
        "startTick": 44736,
        "endTick": 44782,
        "pitch": 78,
        "velocity": 118,
        "trackId": 5,
        "channel": 2
      },
      {
        "startTick": 44736,
        "endTick": 44786,
        "pitch": 72,
        "velocity": 117,
        "trackId": 5,
        "channel": 2
      },
      {
        "startTick": 44736,
        "endTick": 44792,
        "pitch": 62,
        "velocity": 123,
        "trackId": 5,
        "channel": 2
      },
      {
        "startTick": 44740,
        "endTick": 44764,
        "pitch": 90,
        "velocity": 113,
        "trackId": 6,
        "channel": 3
      },
      {
        "startTick": 44824,
        "endTick": 44850,
        "pitch": 81,
        "velocity": 112,
        "trackId": 12,
        "channel": 9
      },
      {
        "startTick": 44830,
        "endTick": 44844,
        "pitch": 28,
        "velocity": 125,
        "trackId": 4,
        "channel": 1
      },
      {
        "startTick": 44830,
        "endTick": 44872,
        "pitch": 35,
        "velocity": 124,
        "trackId": 12,
        "channel": 9
      },
      {
        "startTick": 44830,
        "endTick": 44872,
        "pitch": 43,
        "velocity": 124,
        "trackId": 12,
        "channel": 9
      },
      {
        "startTick": 44830,
        "endTick": 44888,
        "pitch": 26,
        "velocity": 125,
        "trackId": 4,
        "channel": 1
      },
      {
        "startTick": 44832,
        "endTick": 44852,
        "pitch": 48,
        "velocity": 120,
        "trackId": 13,
        "channel": 10
      },
      {
        "startTick": 44832,
        "endTick": 44856,
        "pitch": 36,
        "velocity": 120,
        "trackId": 13,
        "channel": 10
      },
      {
        "startTick": 44832,
        "endTick": 44868,
        "pitch": 62,
        "velocity": 120,
        "trackId": 5,
        "channel": 2
      },
      {
        "startTick": 44832,
        "endTick": 44872,
        "pitch": 72,
        "velocity": 121,
        "trackId": 5,
        "channel": 2
      },
      {
        "startTick": 44832,
        "endTick": 44874,
        "pitch": 74,
        "velocity": 122,
        "trackId": 5,
        "channel": 2
      },
      {
        "startTick": 44832,
        "endTick": 44876,
        "pitch": 78,
        "velocity": 119,
        "trackId": 5,
        "channel": 2
      },
      {
        "startTick": 44832,
        "endTick": 44880,
        "pitch": 50,
        "velocity": 122,
        "trackId": 5,
        "channel": 2
      },
      {
        "startTick": 44834,
        "endTick": 44862,
        "pitch": 78,
        "velocity": 113,
        "trackId": 6,
        "channel": 3
      },
      {
        "startTick": 44834,
        "endTick": 44862,
        "pitch": 90,
        "velocity": 113,
        "trackId": 6,
        "channel": 3
      },
      {
        "startTick": 44836,
        "endTick": 44882,
        "pitch": 54,
        "velocity": 123,
        "trackId": 3,
        "channel": 0
      },
      {
        "startTick": 44836,
        "endTick": 44890,
        "pitch": 50,
        "velocity": 122,
        "trackId": 3,
        "channel": 0
      },
      {
        "startTick": 44838,
        "endTick": 44880,
        "pitch": 60,
        "velocity": 123,
        "trackId": 3,
        "channel": 0
      },
      {
        "startTick": 44838,
        "endTick": 44886,
        "pitch": 62,
        "velocity": 123,
        "trackId": 3,
        "channel": 0
      },
      {
        "startTick": 44838,
        "endTick": 44892,
        "pitch": 66,
        "velocity": 123,
        "trackId": 3,
        "channel": 0
      },
      {
        "startTick": 44926,
        "endTick": 44994,
        "pitch": 31,
        "velocity": 125,
        "trackId": 4,
        "channel": 1
      },
      {
        "startTick": 44926,
        "endTick": 45006,
        "pitch": 35,
        "velocity": 124,
        "trackId": 12,
        "channel": 9
      },
      {
        "startTick": 44926,
        "endTick": 45006,
        "pitch": 40,
        "velocity": 124,
        "trackId": 12,
        "channel": 9
      },
      {
        "startTick": 44928,
        "endTick": 44946,
        "pitch": 81,
        "velocity": 117,
        "trackId": 12,
        "channel": 9
      },
      {
        "startTick": 44928,
        "endTick": 44948,
        "pitch": 36,
        "velocity": 122,
        "trackId": 13,
        "channel": 10
      },
      {
        "startTick": 44928,
        "endTick": 44950,
        "pitch": 48,
        "velocity": 120,
        "trackId": 13,
        "channel": 10
      },
      {
        "startTick": 44928,
        "endTick": 44970,
        "pitch": 71,
        "velocity": 122,
        "trackId": 5,
        "channel": 2
      },
      {
        "startTick": 44928,
        "endTick": 44976,
        "pitch": 43,
        "velocity": 121,
        "trackId": 5,
        "channel": 2
      },
      {
        "startTick": 44928,
        "endTick": 44976,
        "pitch": 74,
        "velocity": 121,
        "trackId": 5,
        "channel": 2
      },
      {
        "startTick": 44928,
        "endTick": 44978,
        "pitch": 55,
        "velocity": 122,
        "trackId": 5,
        "channel": 2
      },
      {
        "startTick": 44928,
        "endTick": 44978,
        "pitch": 79,
        "velocity": 119,
        "trackId": 5,
        "channel": 2
      },
      {
        "startTick": 44930,
        "endTick": 44932,
        "pitch": 79,
        "velocity": 113,
        "trackId": 6,
        "channel": 3
      },
      {
        "startTick": 44930,
        "endTick": 44962,
        "pitch": 91,
        "velocity": 113,
        "trackId": 6,
        "channel": 3
      },
      {
        "startTick": 44930,
        "endTick": 44998,
        "pitch": 67,
        "velocity": 123,
        "trackId": 3,
        "channel": 0
      },
      {
        "startTick": 44930,
        "endTick": 45002,
        "pitch": 50,
        "velocity": 123,
        "trackId": 3,
        "channel": 0
      },
      {
        "startTick": 44932,
        "endTick": 44994,
        "pitch": 62,
        "velocity": 123,
        "trackId": 3,
        "channel": 0
      },
      {
        "startTick": 44932,
        "endTick": 44996,
        "pitch": 59,
        "velocity": 123,
        "trackId": 3,
        "channel": 0
      },
      {
        "startTick": 44932,
        "endTick": 45000,
        "pitch": 43,
        "velocity": 123,
        "trackId": 3,
        "channel": 0
      },
      {
        "startTick": 44932,
        "endTick": 45000,
        "pitch": 55,
        "velocity": 123,
        "trackId": 3,
        "channel": 0
      },
      {
        "startTick": 44940,
        "endTick": 44946,
        "pitch": 66,
        "velocity": 101,
        "trackId": 3,
        "channel": 0
      },
      {
        "startTick": 45024,
        "endTick": 45048,
        "pitch": 67,
        "velocity": 119,
        "trackId": 8,
        "channel": 7
      },
      {
        "startTick": 45024,
        "endTick": 45052,
        "pitch": 59,
        "velocity": 119,
        "trackId": 8,
        "channel": 7
      },
      {
        "startTick": 45072,
        "endTick": 45094,
        "pitch": 67,
        "velocity": 119,
        "trackId": 8,
        "channel": 7
      },
      {
        "startTick": 45072,
        "endTick": 45120,
        "pitch": 59,
        "velocity": 119,
        "trackId": 8,
        "channel": 7
      },
      {
        "startTick": 45120,
        "endTick": 45178,
        "pitch": 60,
        "velocity": 120,
        "trackId": 8,
        "channel": 7
      },
      {
        "startTick": 45120,
        "endTick": 45188,
        "pitch": 67,
        "velocity": 120,
        "trackId": 8,
        "channel": 7
      },
      {
        "startTick": 45168,
        "endTick": 45202,
        "pitch": 59,
        "velocity": 120,
        "trackId": 8,
        "channel": 7
      },
      {
        "startTick": 45216,
        "endTick": 45234,
        "pitch": 50,
        "velocity": 116,
        "trackId": 5,
        "channel": 2
      },
      {
        "startTick": 45216,
        "endTick": 45234,
        "pitch": 62,
        "velocity": 114,
        "trackId": 5,
        "channel": 2
      },
      {
        "startTick": 45216,
        "endTick": 45234,
        "pitch": 62,
        "velocity": 113,
        "trackId": 6,
        "channel": 3
      },
      {
        "startTick": 45216,
        "endTick": 45240,
        "pitch": 74,
        "velocity": 113,
        "trackId": 6,
        "channel": 3
      },
      {
        "startTick": 45264,
        "endTick": 45276,
        "pitch": 50,
        "velocity": 113,
        "trackId": 5,
        "channel": 2
      },
      {
        "startTick": 45264,
        "endTick": 45278,
        "pitch": 62,
        "velocity": 114,
        "trackId": 5,
        "channel": 2
      },
      {
        "startTick": 45264,
        "endTick": 45290,
        "pitch": 62,
        "velocity": 113,
        "trackId": 6,
        "channel": 3
      },
      {
        "startTick": 45264,
        "endTick": 45290,
        "pitch": 74,
        "velocity": 113,
        "trackId": 6,
        "channel": 3
      },
      {
        "startTick": 45312,
        "endTick": 45354,
        "pitch": 52,
        "velocity": 119,
        "trackId": 5,
        "channel": 2
      },
      {
        "startTick": 45312,
        "endTick": 45358,
        "pitch": 64,
        "velocity": 119,
        "trackId": 5,
        "channel": 2
      },
      {
        "startTick": 45312,
        "endTick": 45358,
        "pitch": 64,
        "velocity": 113,
        "trackId": 6,
        "channel": 3
      },
      {
        "startTick": 45312,
        "endTick": 45358,
        "pitch": 76,
        "velocity": 113,
        "trackId": 6,
        "channel": 3
      },
      {
        "startTick": 45360,
        "endTick": 45380,
        "pitch": 62,
        "velocity": 114,
        "trackId": 5,
        "channel": 2
      },
      {
        "startTick": 45360,
        "endTick": 45382,
        "pitch": 50,
        "velocity": 115,
        "trackId": 5,
        "channel": 2
      },
      {
        "startTick": 45360,
        "endTick": 45402,
        "pitch": 74,
        "velocity": 113,
        "trackId": 6,
        "channel": 3
      },
      {
        "startTick": 45360,
        "endTick": 45408,
        "pitch": 62,
        "velocity": 113,
        "trackId": 6,
        "channel": 3
      },
      {
        "startTick": 45408,
        "endTick": 45428,
        "pitch": 67,
        "velocity": 120,
        "trackId": 8,
        "channel": 7
      },
      {
        "startTick": 45408,
        "endTick": 45432,
        "pitch": 59,
        "velocity": 120,
        "trackId": 8,
        "channel": 7
      },
      {
        "startTick": 45456,
        "endTick": 45476,
        "pitch": 67,
        "velocity": 120,
        "trackId": 8,
        "channel": 7
      },
      {
        "startTick": 45456,
        "endTick": 45504,
        "pitch": 59,
        "velocity": 120,
        "trackId": 8,
        "channel": 7
      },
      {
        "startTick": 45504,
        "endTick": 45550,
        "pitch": 60,
        "velocity": 120,
        "trackId": 8,
        "channel": 7
      },
      {
        "startTick": 45504,
        "endTick": 45552,
        "pitch": 67,
        "velocity": 120,
        "trackId": 8,
        "channel": 7
      },
      {
        "startTick": 45552,
        "endTick": 45580,
        "pitch": 59,
        "velocity": 120,
        "trackId": 8,
        "channel": 7
      },
      {
        "startTick": 45600,
        "endTick": 45614,
        "pitch": 50,
        "velocity": 116,
        "trackId": 5,
        "channel": 2
      },
      {
        "startTick": 45600,
        "endTick": 45616,
        "pitch": 62,
        "velocity": 118,
        "trackId": 5,
        "channel": 2
      },
      {
        "startTick": 45600,
        "endTick": 45622,
        "pitch": 74,
        "velocity": 113,
        "trackId": 6,
        "channel": 3
      },
      {
        "startTick": 45600,
        "endTick": 45628,
        "pitch": 60,
        "velocity": 113,
        "trackId": 6,
        "channel": 3
      },
      {
        "startTick": 45648,
        "endTick": 45664,
        "pitch": 50,
        "velocity": 116,
        "trackId": 5,
        "channel": 2
      },
      {
        "startTick": 45648,
        "endTick": 45666,
        "pitch": 62,
        "velocity": 116,
        "trackId": 5,
        "channel": 2
      },
      {
        "startTick": 45648,
        "endTick": 45674,
        "pitch": 74,
        "velocity": 113,
        "trackId": 6,
        "channel": 3
      },
      {
        "startTick": 45696,
        "endTick": 45728,
        "pitch": 52,
        "velocity": 119,
        "trackId": 5,
        "channel": 2
      },
      {
        "startTick": 45696,
        "endTick": 45732,
        "pitch": 64,
        "velocity": 119,
        "trackId": 5,
        "channel": 2
      },
      {
        "startTick": 45696,
        "endTick": 45742,
        "pitch": 64,
        "velocity": 113,
        "trackId": 6,
        "channel": 3
      },
      {
        "startTick": 45696,
        "endTick": 45742,
        "pitch": 76,
        "velocity": 113,
        "trackId": 6,
        "channel": 3
      },
      {
        "startTick": 45744,
        "endTick": 45762,
        "pitch": 62,
        "velocity": 119,
        "trackId": 5,
        "channel": 2
      },
      {
        "startTick": 45744,
        "endTick": 45764,
        "pitch": 50,
        "velocity": 116,
        "trackId": 5,
        "channel": 2
      },
      {
        "startTick": 45744,
        "endTick": 45776,
        "pitch": 62,
        "velocity": 113,
        "trackId": 6,
        "channel": 3
      },
      {
        "startTick": 45744,
        "endTick": 45776,
        "pitch": 74,
        "velocity": 113,
        "trackId": 6,
        "channel": 3
      },
      {
        "startTick": 45792,
        "endTick": 45802,
        "pitch": 62,
        "velocity": 119,
        "trackId": 5,
        "channel": 2
      },
      {
        "startTick": 45792,
        "endTick": 45810,
        "pitch": 74,
        "velocity": 119,
        "trackId": 5,
        "channel": 2
      },
      {
        "startTick": 45792,
        "endTick": 45816,
        "pitch": 67,
        "velocity": 120,
        "trackId": 8,
        "channel": 7
      },
      {
        "startTick": 45792,
        "endTick": 45818,
        "pitch": 55,
        "velocity": 120,
        "trackId": 8,
        "channel": 7
      },
      {
        "startTick": 45792,
        "endTick": 45818,
        "pitch": 59,
        "velocity": 120,
        "trackId": 8,
        "channel": 7
      },
      {
        "startTick": 45840,
        "endTick": 45862,
        "pitch": 62,
        "velocity": 119,
        "trackId": 5,
        "channel": 2
      },
      {
        "startTick": 45840,
        "endTick": 45868,
        "pitch": 67,
        "velocity": 120,
        "trackId": 8,
        "channel": 7
      },
      {
        "startTick": 45840,
        "endTick": 45874,
        "pitch": 74,
        "velocity": 121,
        "trackId": 5,
        "channel": 2
      },
      {
        "startTick": 45840,
        "endTick": 45876,
        "pitch": 55,
        "velocity": 120,
        "trackId": 8,
        "channel": 7
      },
      {
        "startTick": 45840,
        "endTick": 45886,
        "pitch": 59,
        "velocity": 119,
        "trackId": 8,
        "channel": 7
      },
      {
        "startTick": 45888,
        "endTick": 45930,
        "pitch": 76,
        "velocity": 116,
        "trackId": 5,
        "channel": 2
      },
      {
        "startTick": 45888,
        "endTick": 45934,
        "pitch": 60,
        "velocity": 119,
        "trackId": 8,
        "channel": 7
      },
      {
        "startTick": 45888,
        "endTick": 45936,
        "pitch": 57,
        "velocity": 120,
        "trackId": 8,
        "channel": 7
      },
      {
        "startTick": 45888,
        "endTick": 45940,
        "pitch": 64,
        "velocity": 121,
        "trackId": 5,
        "channel": 2
      },
      {
        "startTick": 45888,
        "endTick": 46072,
        "pitch": 67,
        "velocity": 120,
        "trackId": 8,
        "channel": 7
      },
      {
        "startTick": 45936,
        "endTick": 45974,
        "pitch": 62,
        "velocity": 119,
        "trackId": 5,
        "channel": 2
      },
      {
        "startTick": 45936,
        "endTick": 45978,
        "pitch": 74,
        "velocity": 117,
        "trackId": 5,
        "channel": 2
      },
      {
        "startTick": 45936,
        "endTick": 45978,
        "pitch": 55,
        "velocity": 119,
        "trackId": 8,
        "channel": 7
      },
      {
        "startTick": 45936,
        "endTick": 45990,
        "pitch": 59,
        "velocity": 111,
        "trackId": 8,
        "channel": 7
      },
      {
        "startTick": 45984,
        "endTick": 46012,
        "pitch": 54,
        "velocity": 119,
        "trackId": 8,
        "channel": 7
      },
      {
        "startTick": 45984,
        "endTick": 46018,
        "pitch": 60,
        "velocity": 119,
        "trackId": 5,
        "channel": 2
      },
      {
        "startTick": 45984,
        "endTick": 46018,
        "pitch": 72,
        "velocity": 120,
        "trackId": 5,
        "channel": 2
      },
      {
        "startTick": 45984,
        "endTick": 46038,
        "pitch": 57,
        "velocity": 119,
        "trackId": 8,
        "channel": 7
      },
      {
        "startTick": 46032,
        "endTick": 46062,
        "pitch": 71,
        "velocity": 119,
        "trackId": 5,
        "channel": 2
      },
      {
        "startTick": 46032,
        "endTick": 46068,
        "pitch": 59,
        "velocity": 119,
        "trackId": 5,
        "channel": 2
      },
      {
        "startTick": 46032,
        "endTick": 46072,
        "pitch": 55,
        "velocity": 120,
        "trackId": 8,
        "channel": 7
      },
      {
        "startTick": 46032,
        "endTick": 46080,
        "pitch": 52,
        "velocity": 120,
        "trackId": 8,
        "channel": 7
      },
      {
        "startTick": 46080,
        "endTick": 46110,
        "pitch": 69,
        "velocity": 120,
        "trackId": 5,
        "channel": 2
      },
      {
        "startTick": 46080,
        "endTick": 46122,
        "pitch": 50,
        "velocity": 120,
        "trackId": 8,
        "channel": 7
      },
      {
        "startTick": 46080,
        "endTick": 46124,
        "pitch": 57,
        "velocity": 119,
        "trackId": 5,
        "channel": 2
      },
      {
        "startTick": 46080,
        "endTick": 46128,
        "pitch": 54,
        "velocity": 120,
        "trackId": 8,
        "channel": 7
      },
      {
        "startTick": 46080,
        "endTick": 46132,
        "pitch": 66,
        "velocity": 120,
        "trackId": 8,
        "channel": 7
      },
      {
        "startTick": 46080,
        "endTick": 46138,
        "pitch": 62,
        "velocity": 120,
        "trackId": 8,
        "channel": 7
      },
      {
        "startTick": 46176,
        "endTick": 46206,
        "pitch": 84,
        "velocity": 119,
        "trackId": 1,
        "channel": 5
      },
      {
        "startTick": 46176,
        "endTick": 46206,
        "pitch": 72,
        "velocity": 117,
        "trackId": 7,
        "channel": 6
      },
      {
        "startTick": 46176,
        "endTick": 46206,
        "pitch": 72,
        "velocity": 118,
        "trackId": 8,
        "channel": 7
      },
      {
        "startTick": 46176,
        "endTick": 46208,
        "pitch": 72,
        "velocity": 113,
        "trackId": 6,
        "channel": 3
      },
      {
        "startTick": 46224,
        "endTick": 46248,
        "pitch": 84,
        "velocity": 119,
        "trackId": 1,
        "channel": 5
      },
      {
        "startTick": 46224,
        "endTick": 46248,
        "pitch": 72,
        "velocity": 117,
        "trackId": 7,
        "channel": 6
      },
      {
        "startTick": 46224,
        "endTick": 46248,
        "pitch": 72,
        "velocity": 118,
        "trackId": 8,
        "channel": 7
      },
      {
        "startTick": 46224,
        "endTick": 46260,
        "pitch": 72,
        "velocity": 113,
        "trackId": 6,
        "channel": 3
      },
      {
        "startTick": 46272,
        "endTick": 46318,
        "pitch": 72,
        "velocity": 113,
        "trackId": 6,
        "channel": 3
      },
      {
        "startTick": 46272,
        "endTick": 46574,
        "pitch": 84,
        "velocity": 119,
        "trackId": 1,
        "channel": 5
      },
      {
        "startTick": 46272,
        "endTick": 46574,
        "pitch": 72,
        "velocity": 117,
        "trackId": 7,
        "channel": 6
      },
      {
        "startTick": 46272,
        "endTick": 46574,
        "pitch": 72,
        "velocity": 118,
        "trackId": 8,
        "channel": 7
      },
      {
        "startTick": 46320,
        "endTick": 46414,
        "pitch": 69,
        "velocity": 113,
        "trackId": 6,
        "channel": 3
      },
      {
        "startTick": 46320,
        "endTick": 46704,
        "pitch": 81,
        "velocity": 119,
        "trackId": 1,
        "channel": 5
      },
      {
        "startTick": 46320,
        "endTick": 46704,
        "pitch": 69,
        "velocity": 117,
        "trackId": 7,
        "channel": 6
      },
      {
        "startTick": 46320,
        "endTick": 46704,
        "pitch": 69,
        "velocity": 118,
        "trackId": 8,
        "channel": 7
      },
      {
        "startTick": 46416,
        "endTick": 46510,
        "pitch": 65,
        "velocity": 113,
        "trackId": 6,
        "channel": 3
      },
      {
        "startTick": 46416,
        "endTick": 46714,
        "pitch": 77,
        "velocity": 119,
        "trackId": 1,
        "channel": 5
      },
      {
        "startTick": 46416,
        "endTick": 46714,
        "pitch": 65,
        "velocity": 117,
        "trackId": 7,
        "channel": 6
      },
      {
        "startTick": 46416,
        "endTick": 46714,
        "pitch": 65,
        "velocity": 118,
        "trackId": 8,
        "channel": 7
      },
      {
        "startTick": 46512,
        "endTick": 46606,
        "pitch": 62,
        "velocity": 113,
        "trackId": 6,
        "channel": 3
      },
      {
        "startTick": 46512,
        "endTick": 46718,
        "pitch": 74,
        "velocity": 120,
        "trackId": 1,
        "channel": 5
      },
      {
        "startTick": 46512,
        "endTick": 46718,
        "pitch": 62,
        "velocity": 119,
        "trackId": 7,
        "channel": 6
      },
      {
        "startTick": 46512,
        "endTick": 46718,
        "pitch": 62,
        "velocity": 119,
        "trackId": 8,
        "channel": 7
      },
      {
        "startTick": 46608,
        "endTick": 46706,
        "pitch": 60,
        "velocity": 113,
        "trackId": 6,
        "channel": 3
      },
      {
        "startTick": 46608,
        "endTick": 46734,
        "pitch": 72,
        "velocity": 120,
        "trackId": 1,
        "channel": 5
      },
      {
        "startTick": 46608,
        "endTick": 46734,
        "pitch": 60,
        "velocity": 118,
        "trackId": 7,
        "channel": 6
      },
      {
        "startTick": 46608,
        "endTick": 46734,
        "pitch": 60,
        "velocity": 119,
        "trackId": 8,
        "channel": 7
      },
      {
        "startTick": 46752,
        "endTick": 46770,
        "pitch": 49,
        "velocity": 116,
        "trackId": 5,
        "channel": 2
      },
      {
        "startTick": 46752,
        "endTick": 46772,
        "pitch": 61,
        "velocity": 113,
        "trackId": 5,
        "channel": 2
      },
      {
        "startTick": 46752,
        "endTick": 46774,
        "pitch": 68,
        "velocity": 113,
        "trackId": 3,
        "channel": 0
      },
      {
        "startTick": 46752,
        "endTick": 46774,
        "pitch": 56,
        "velocity": 113,
        "trackId": 5,
        "channel": 2
      },
      {
        "startTick": 46752,
        "endTick": 46776,
        "pitch": 65,
        "velocity": 113,
        "trackId": 3,
        "channel": 0
      },
      {
        "startTick": 46752,
        "endTick": 46776,
        "pitch": 73,
        "velocity": 113,
        "trackId": 3,
        "channel": 0
      },
      {
        "startTick": 46752,
        "endTick": 46782,
        "pitch": 61,
        "velocity": 113,
        "trackId": 3,
        "channel": 0
      },
      {
        "startTick": 46848,
        "endTick": 46864,
        "pitch": 64,
        "velocity": 114,
        "trackId": 3,
        "channel": 0
      },
      {
        "startTick": 46848,
        "endTick": 46864,
        "pitch": 67,
        "velocity": 114,
        "trackId": 3,
        "channel": 0
      },
      {
        "startTick": 46848,
        "endTick": 46864,
        "pitch": 48,
        "velocity": 103,
        "trackId": 5,
        "channel": 2
      },
      {
        "startTick": 46848,
        "endTick": 46864,
        "pitch": 55,
        "velocity": 107,
        "trackId": 5,
        "channel": 2
      },
      {
        "startTick": 46848,
        "endTick": 46866,
        "pitch": 60,
        "velocity": 111,
        "trackId": 5,
        "channel": 2
      },
      {
        "startTick": 46848,
        "endTick": 46868,
        "pitch": 60,
        "velocity": 114,
        "trackId": 3,
        "channel": 0
      },
      {
        "startTick": 46848,
        "endTick": 46868,
        "pitch": 72,
        "velocity": 114,
        "trackId": 3,
        "channel": 0
      },
      {
        "startTick": 46896,
        "endTick": 46910,
        "pitch": 55,
        "velocity": 111,
        "trackId": 5,
        "channel": 2
      },
      {
        "startTick": 46896,
        "endTick": 46912,
        "pitch": 64,
        "velocity": 114,
        "trackId": 3,
        "channel": 0
      },
      {
        "startTick": 46896,
        "endTick": 46914,
        "pitch": 67,
        "velocity": 114,
        "trackId": 3,
        "channel": 0
      },
      {
        "startTick": 46896,
        "endTick": 46914,
        "pitch": 72,
        "velocity": 114,
        "trackId": 3,
        "channel": 0
      },
      {
        "startTick": 46896,
        "endTick": 46914,
        "pitch": 48,
        "velocity": 113,
        "trackId": 5,
        "channel": 2
      },
      {
        "startTick": 46896,
        "endTick": 46914,
        "pitch": 60,
        "velocity": 108,
        "trackId": 5,
        "channel": 2
      },
      {
        "startTick": 46896,
        "endTick": 46916,
        "pitch": 60,
        "velocity": 114,
        "trackId": 3,
        "channel": 0
      },
      {
        "startTick": 46944,
        "endTick": 46960,
        "pitch": 54,
        "velocity": 117,
        "trackId": 5,
        "channel": 2
      },
      {
        "startTick": 46944,
        "endTick": 46960,
        "pitch": 59,
        "velocity": 118,
        "trackId": 5,
        "channel": 2
      },
      {
        "startTick": 46944,
        "endTick": 46962,
        "pitch": 63,
        "velocity": 114,
        "trackId": 3,
        "channel": 0
      },
      {
        "startTick": 46944,
        "endTick": 46962,
        "pitch": 47,
        "velocity": 117,
        "trackId": 5,
        "channel": 2
      },
      {
        "startTick": 46944,
        "endTick": 46972,
        "pitch": 59,
        "velocity": 114,
        "trackId": 3,
        "channel": 0
      },
      {
        "startTick": 46944,
        "endTick": 46974,
        "pitch": 71,
        "velocity": 114,
        "trackId": 3,
        "channel": 0
      },
      {
        "startTick": 46944,
        "endTick": 46976,
        "pitch": 66,
        "velocity": 114,
        "trackId": 3,
        "channel": 0
      },
      {
        "startTick": 47040,
        "endTick": 47058,
        "pitch": 55,
        "velocity": 116,
        "trackId": 5,
        "channel": 2
      },
      {
        "startTick": 47040,
        "endTick": 47060,
        "pitch": 64,
        "velocity": 114,
        "trackId": 3,
        "channel": 0
      },
      {
        "startTick": 47040,
        "endTick": 47060,
        "pitch": 60,
        "velocity": 119,
        "trackId": 5,
        "channel": 2
      },
      {
        "startTick": 47040,
        "endTick": 47062,
        "pitch": 48,
        "velocity": 114,
        "trackId": 5,
        "channel": 2
      },
      {
        "startTick": 47040,
        "endTick": 47070,
        "pitch": 72,
        "velocity": 114,
        "trackId": 3,
        "channel": 0
      },
      {
        "startTick": 47040,
        "endTick": 47072,
        "pitch": 67,
        "velocity": 114,
        "trackId": 3,
        "channel": 0
      },
      {
        "startTick": 47040,
        "endTick": 47080,
        "pitch": 60,
        "velocity": 114,
        "trackId": 3,
        "channel": 0
      },
      {
        "startTick": 47136,
        "endTick": 47156,
        "pitch": 56,
        "velocity": 117,
        "trackId": 5,
        "channel": 2
      },
      {
        "startTick": 47136,
        "endTick": 47156,
        "pitch": 61,
        "velocity": 118,
        "trackId": 5,
        "channel": 2
      },
      {
        "startTick": 47136,
        "endTick": 47158,
        "pitch": 49,
        "velocity": 116,
        "trackId": 5,
        "channel": 2
      },
      {
        "startTick": 47136,
        "endTick": 47162,
        "pitch": 65,
        "velocity": 114,
        "trackId": 3,
        "channel": 0
      },
      {
        "startTick": 47136,
        "endTick": 47162,
        "pitch": 68,
        "velocity": 114,
        "trackId": 3,
        "channel": 0
      },
      {
        "startTick": 47136,
        "endTick": 47166,
        "pitch": 73,
        "velocity": 114,
        "trackId": 3,
        "channel": 0
      },
      {
        "startTick": 47136,
        "endTick": 47174,
        "pitch": 61,
        "velocity": 114,
        "trackId": 3,
        "channel": 0
      },
      {
        "startTick": 47232,
        "endTick": 47246,
        "pitch": 64,
        "velocity": 114,
        "trackId": 3,
        "channel": 0
      },
      {
        "startTick": 47232,
        "endTick": 47250,
        "pitch": 67,
        "velocity": 114,
        "trackId": 3,
        "channel": 0
      },
      {
        "startTick": 47232,
        "endTick": 47250,
        "pitch": 48,
        "velocity": 113,
        "trackId": 5,
        "channel": 2
      },
      {
        "startTick": 47232,
        "endTick": 47250,
        "pitch": 55,
        "velocity": 113,
        "trackId": 5,
        "channel": 2
      },
      {
        "startTick": 47232,
        "endTick": 47252,
        "pitch": 60,
        "velocity": 114,
        "trackId": 3,
        "channel": 0
      },
      {
        "startTick": 47232,
        "endTick": 47252,
        "pitch": 60,
        "velocity": 114,
        "trackId": 5,
        "channel": 2
      },
      {
        "startTick": 47232,
        "endTick": 47256,
        "pitch": 72,
        "velocity": 114,
        "trackId": 3,
        "channel": 0
      },
      {
        "startTick": 47280,
        "endTick": 47290,
        "pitch": 64,
        "velocity": 114,
        "trackId": 3,
        "channel": 0
      },
      {
        "startTick": 47280,
        "endTick": 47292,
        "pitch": 55,
        "velocity": 100,
        "trackId": 5,
        "channel": 2
      },
      {
        "startTick": 47280,
        "endTick": 47296,
        "pitch": 60,
        "velocity": 110,
        "trackId": 5,
        "channel": 2
      },
      {
        "startTick": 47280,
        "endTick": 47298,
        "pitch": 48,
        "velocity": 104,
        "trackId": 5,
        "channel": 2
      },
      {
        "startTick": 47280,
        "endTick": 47302,
        "pitch": 60,
        "velocity": 114,
        "trackId": 3,
        "channel": 0
      },
      {
        "startTick": 47280,
        "endTick": 47302,
        "pitch": 67,
        "velocity": 114,
        "trackId": 3,
        "channel": 0
      },
      {
        "startTick": 47280,
        "endTick": 47302,
        "pitch": 72,
        "velocity": 114,
        "trackId": 3,
        "channel": 0
      },
      {
        "startTick": 47328,
        "endTick": 47376,
        "pitch": 63,
        "velocity": 114,
        "trackId": 3,
        "channel": 0
      },
      {
        "startTick": 47328,
        "endTick": 47384,
        "pitch": 66,
        "velocity": 114,
        "trackId": 3,
        "channel": 0
      },
      {
        "startTick": 47328,
        "endTick": 47384,
        "pitch": 71,
        "velocity": 114,
        "trackId": 3,
        "channel": 0
      },
      {
        "startTick": 47328,
        "endTick": 47410,
        "pitch": 54,
        "velocity": 116,
        "trackId": 5,
        "channel": 2
      },
      {
        "startTick": 47328,
        "endTick": 47412,
        "pitch": 59,
        "velocity": 114,
        "trackId": 5,
        "channel": 2
      },
      {
        "startTick": 47328,
        "endTick": 47414,
        "pitch": 59,
        "velocity": 114,
        "trackId": 3,
        "channel": 0
      },
      {
        "startTick": 47328,
        "endTick": 47418,
        "pitch": 47,
        "velocity": 118,
        "trackId": 5,
        "channel": 2
      },
      {
        "startTick": 47424,
        "endTick": 47462,
        "pitch": 60,
        "velocity": 122,
        "trackId": 3,
        "channel": 0
      },
      {
        "startTick": 47424,
        "endTick": 47470,
        "pitch": 55,
        "velocity": 115,
        "trackId": 5,
        "channel": 2
      },
      {
        "startTick": 47424,
        "endTick": 47482,
        "pitch": 60,
        "velocity": 117,
        "trackId": 5,
        "channel": 2
      },
      {
        "startTick": 47424,
        "endTick": 47486,
        "pitch": 64,
        "velocity": 122,
        "trackId": 3,
        "channel": 0
      },
      {
        "startTick": 47424,
        "endTick": 47488,
        "pitch": 72,
        "velocity": 120,
        "trackId": 3,
        "channel": 0
      },
      {
        "startTick": 47424,
        "endTick": 47510,
        "pitch": 48,
        "velocity": 118,
        "trackId": 5,
        "channel": 2
      },
      {
        "startTick": 47424,
        "endTick": 47520,
        "pitch": 67,
        "velocity": 120,
        "trackId": 3,
        "channel": 0
      },
      {
        "startTick": 47518,
        "endTick": 47568,
        "pitch": 35,
        "velocity": 123,
        "trackId": 12,
        "channel": 9
      },
      {
        "startTick": 47518,
        "endTick": 47572,
        "pitch": 43,
        "velocity": 123,
        "trackId": 12,
        "channel": 9
      },
      {
        "startTick": 47518,
        "endTick": 47582,
        "pitch": 29,
        "velocity": 125,
        "trackId": 4,
        "channel": 1
      },
      {
        "startTick": 47520,
        "endTick": 47534,
        "pitch": 48,
        "velocity": 122,
        "trackId": 13,
        "channel": 10
      },
      {
        "startTick": 47520,
        "endTick": 47538,
        "pitch": 36,
        "velocity": 121,
        "trackId": 13,
        "channel": 10
      },
      {
        "startTick": 47520,
        "endTick": 47564,
        "pitch": 53,
        "velocity": 123,
        "trackId": 3,
        "channel": 0
      },
      {
        "startTick": 47520,
        "endTick": 47574,
        "pitch": 41,
        "velocity": 117,
        "trackId": 3,
        "channel": 0
      },
      {
        "startTick": 47520,
        "endTick": 47576,
        "pitch": 65,
        "velocity": 123,
        "trackId": 3,
        "channel": 0
      },
      {
        "startTick": 47520,
        "endTick": 47582,
        "pitch": 65,
        "velocity": 117,
        "trackId": 5,
        "channel": 2
      },
      {
        "startTick": 47520,
        "endTick": 47584,
        "pitch": 53,
        "velocity": 119,
        "trackId": 5,
        "channel": 2
      },
      {
        "startTick": 47520,
        "endTick": 47586,
        "pitch": 74,
        "velocity": 120,
        "trackId": 5,
        "channel": 2
      },
      {
        "startTick": 47520,
        "endTick": 47592,
        "pitch": 70,
        "velocity": 118,
        "trackId": 5,
        "channel": 2
      },
      {
        "startTick": 47520,
        "endTick": 47594,
        "pitch": 70,
        "velocity": 123,
        "trackId": 3,
        "channel": 0
      },
      {
        "startTick": 47520,
        "endTick": 47596,
        "pitch": 74,
        "velocity": 121,
        "trackId": 3,
        "channel": 0
      },
      {
        "startTick": 47520,
        "endTick": 47598,
        "pitch": 74,
        "velocity": 123,
        "trackId": 11,
        "channel": 12
      },
      {
        "startTick": 47520,
        "endTick": 47610,
        "pitch": 86,
        "velocity": 113,
        "trackId": 6,
        "channel": 3
      },
      {
        "startTick": 47520,
        "endTick": 47614,
        "pitch": 74,
        "velocity": 113,
        "trackId": 6,
        "channel": 3
      },
      {
        "startTick": 47530,
        "endTick": 47554,
        "pitch": 81,
        "velocity": 114,
        "trackId": 12,
        "channel": 9
      },
      {
        "startTick": 47614,
        "endTick": 47634,
        "pitch": 35,
        "velocity": 122,
        "trackId": 12,
        "channel": 9
      },
      {
        "startTick": 47614,
        "endTick": 47634,
        "pitch": 43,
        "velocity": 122,
        "trackId": 12,
        "channel": 9
      },
      {
        "startTick": 47614,
        "endTick": 47636,
        "pitch": 29,
        "velocity": 125,
        "trackId": 4,
        "channel": 1
      },
      {
        "startTick": 47616,
        "endTick": 47630,
        "pitch": 69,
        "velocity": 119,
        "trackId": 5,
        "channel": 2
      },
      {
        "startTick": 47616,
        "endTick": 47632,
        "pitch": 65,
        "velocity": 117,
        "trackId": 5,
        "channel": 2
      },
      {
        "startTick": 47616,
        "endTick": 47632,
        "pitch": 72,
        "velocity": 119,
        "trackId": 5,
        "channel": 2
      },
      {
        "startTick": 47616,
        "endTick": 47632,
        "pitch": 48,
        "velocity": 121,
        "trackId": 13,
        "channel": 10
      },
      {
        "startTick": 47616,
        "endTick": 47634,
        "pitch": 53,
        "velocity": 114,
        "trackId": 3,
        "channel": 0
      },
      {
        "startTick": 47616,
        "endTick": 47634,
        "pitch": 53,
        "velocity": 117,
        "trackId": 5,
        "channel": 2
      },
      {
        "startTick": 47616,
        "endTick": 47634,
        "pitch": 84,
        "velocity": 113,
        "trackId": 6,
        "channel": 3
      },
      {
        "startTick": 47616,
        "endTick": 47634,
        "pitch": 72,
        "velocity": 123,
        "trackId": 11,
        "channel": 12
      },
      {
        "startTick": 47616,
        "endTick": 47634,
        "pitch": 36,
        "velocity": 122,
        "trackId": 13,
        "channel": 10
      },
      {
        "startTick": 47616,
        "endTick": 47636,
        "pitch": 65,
        "velocity": 123,
        "trackId": 3,
        "channel": 0
      },
      {
        "startTick": 47616,
        "endTick": 47636,
        "pitch": 69,
        "velocity": 123,
        "trackId": 3,
        "channel": 0
      },
      {
        "startTick": 47616,
        "endTick": 47638,
        "pitch": 41,
        "velocity": 122,
        "trackId": 3,
        "channel": 0
      },
      {
        "startTick": 47616,
        "endTick": 47638,
        "pitch": 72,
        "velocity": 113,
        "trackId": 6,
        "channel": 3
      },
      {
        "startTick": 47616,
        "endTick": 47640,
        "pitch": 72,
        "velocity": 123,
        "trackId": 3,
        "channel": 0
      },
      {
        "startTick": 47622,
        "endTick": 47644,
        "pitch": 81,
        "velocity": 108,
        "trackId": 12,
        "channel": 9
      },
      {
        "startTick": 47662,
        "endTick": 47678,
        "pitch": 43,
        "velocity": 121,
        "trackId": 12,
        "channel": 9
      },
      {
        "startTick": 47662,
        "endTick": 47680,
        "pitch": 35,
        "velocity": 121,
        "trackId": 12,
        "channel": 9
      },
      {
        "startTick": 47662,
        "endTick": 47682,
        "pitch": 29,
        "velocity": 124,
        "trackId": 4,
        "channel": 1
      },
      {
        "startTick": 47664,
        "endTick": 47676,
        "pitch": 65,
        "velocity": 117,
        "trackId": 3,
        "channel": 0
      },
      {
        "startTick": 47664,
        "endTick": 47676,
        "pitch": 65,
        "velocity": 114,
        "trackId": 5,
        "channel": 2
      },
      {
        "startTick": 47664,
        "endTick": 47678,
        "pitch": 69,
        "velocity": 121,
        "trackId": 3,
        "channel": 0
      },
      {
        "startTick": 47664,
        "endTick": 47678,
        "pitch": 53,
        "velocity": 116,
        "trackId": 5,
        "channel": 2
      },
      {
        "startTick": 47664,
        "endTick": 47678,
        "pitch": 69,
        "velocity": 118,
        "trackId": 5,
        "channel": 2
      },
      {
        "startTick": 47664,
        "endTick": 47682,
        "pitch": 41,
        "velocity": 116,
        "trackId": 3,
        "channel": 0
      },
      {
        "startTick": 47664,
        "endTick": 47682,
        "pitch": 72,
        "velocity": 122,
        "trackId": 11,
        "channel": 12
      },
      {
        "startTick": 47664,
        "endTick": 47684,
        "pitch": 84,
        "velocity": 113,
        "trackId": 6,
        "channel": 3
      },
      {
        "startTick": 47664,
        "endTick": 47686,
        "pitch": 53,
        "velocity": 118,
        "trackId": 3,
        "channel": 0
      },
      {
        "startTick": 47664,
        "endTick": 47686,
        "pitch": 72,
        "velocity": 113,
        "trackId": 5,
        "channel": 2
      },
      {
        "startTick": 47664,
        "endTick": 47688,
        "pitch": 72,
        "velocity": 113,
        "trackId": 6,
        "channel": 3
      },
      {
        "startTick": 47664,
        "endTick": 47690,
        "pitch": 72,
        "velocity": 116,
        "trackId": 3,
        "channel": 0
      },
      {
        "startTick": 47670,
        "endTick": 47690,
        "pitch": 81,
        "velocity": 108,
        "trackId": 12,
        "channel": 9
      },
      {
        "startTick": 47710,
        "endTick": 47760,
        "pitch": 35,
        "velocity": 122,
        "trackId": 12,
        "channel": 9
      },
      {
        "startTick": 47710,
        "endTick": 47766,
        "pitch": 43,
        "velocity": 121,
        "trackId": 12,
        "channel": 9
      },
      {
        "startTick": 47710,
        "endTick": 47784,
        "pitch": 29,
        "velocity": 125,
        "trackId": 4,
        "channel": 1
      },
      {
        "startTick": 47712,
        "endTick": 47726,
        "pitch": 36,
        "velocity": 121,
        "trackId": 13,
        "channel": 10
      },
      {
        "startTick": 47712,
        "endTick": 47726,
        "pitch": 48,
        "velocity": 121,
        "trackId": 13,
        "channel": 10
      },
      {
        "startTick": 47712,
        "endTick": 47744,
        "pitch": 71,
        "velocity": 123,
        "trackId": 11,
        "channel": 12
      },
      {
        "startTick": 47712,
        "endTick": 47770,
        "pitch": 65,
        "velocity": 120,
        "trackId": 3,
        "channel": 0
      },
      {
        "startTick": 47712,
        "endTick": 47772,
        "pitch": 41,
        "velocity": 118,
        "trackId": 3,
        "channel": 0
      },
      {
        "startTick": 47712,
        "endTick": 47774,
        "pitch": 53,
        "velocity": 123,
        "trackId": 3,
        "channel": 0
      },
      {
        "startTick": 47712,
        "endTick": 47774,
        "pitch": 68,
        "velocity": 122,
        "trackId": 3,
        "channel": 0
      },
      {
        "startTick": 47712,
        "endTick": 47774,
        "pitch": 53,
        "velocity": 117,
        "trackId": 5,
        "channel": 2
      },
      {
        "startTick": 47712,
        "endTick": 47774,
        "pitch": 65,
        "velocity": 119,
        "trackId": 5,
        "channel": 2
      },
      {
        "startTick": 47712,
        "endTick": 47776,
        "pitch": 68,
        "velocity": 117,
        "trackId": 5,
        "channel": 2
      },
      {
        "startTick": 47712,
        "endTick": 47782,
        "pitch": 71,
        "velocity": 119,
        "trackId": 5,
        "channel": 2
      },
      {
        "startTick": 47712,
        "endTick": 47784,
        "pitch": 71,
        "velocity": 117,
        "trackId": 3,
        "channel": 0
      },
      {
        "startTick": 47712,
        "endTick": 47784,
        "pitch": 71,
        "velocity": 113,
        "trackId": 6,
        "channel": 3
      },
      {
        "startTick": 47712,
        "endTick": 47788,
        "pitch": 83,
        "velocity": 113,
        "trackId": 6,
        "channel": 3
      },
      {
        "startTick": 47720,
        "endTick": 47744,
        "pitch": 81,
        "velocity": 111,
        "trackId": 12,
        "channel": 9
      },
      {
        "startTick": 47806,
        "endTick": 47868,
        "pitch": 35,
        "velocity": 123,
        "trackId": 12,
        "channel": 9
      },
      {
        "startTick": 47806,
        "endTick": 47868,
        "pitch": 43,
        "velocity": 123,
        "trackId": 12,
        "channel": 9
      },
      {
        "startTick": 47806,
        "endTick": 47876,
        "pitch": 29,
        "velocity": 125,
        "trackId": 4,
        "channel": 1
      },
      {
        "startTick": 47808,
        "endTick": 47826,
        "pitch": 36,
        "velocity": 120,
        "trackId": 13,
        "channel": 10
      },
      {
        "startTick": 47808,
        "endTick": 47826,
        "pitch": 48,
        "velocity": 121,
        "trackId": 13,
        "channel": 10
      },
      {
        "startTick": 47808,
        "endTick": 47858,
        "pitch": 72,
        "velocity": 123,
        "trackId": 11,
        "channel": 12
      },
      {
        "startTick": 47808,
        "endTick": 47872,
        "pitch": 65,
        "velocity": 123,
        "trackId": 3,
        "channel": 0
      },
      {
        "startTick": 47808,
        "endTick": 47874,
        "pitch": 41,
        "velocity": 117,
        "trackId": 3,
        "channel": 0
      },
      {
        "startTick": 47808,
        "endTick": 47874,
        "pitch": 65,
        "velocity": 114,
        "trackId": 5,
        "channel": 2
      },
      {
        "startTick": 47808,
        "endTick": 47876,
        "pitch": 53,
        "velocity": 123,
        "trackId": 3,
        "channel": 0
      },
      {
        "startTick": 47808,
        "endTick": 47878,
        "pitch": 69,
        "velocity": 123,
        "trackId": 3,
        "channel": 0
      },
      {
        "startTick": 47808,
        "endTick": 47882,
        "pitch": 53,
        "velocity": 117,
        "trackId": 5,
        "channel": 2
      },
      {
        "startTick": 47808,
        "endTick": 47882,
        "pitch": 69,
        "velocity": 118,
        "trackId": 5,
        "channel": 2
      },
      {
        "startTick": 47808,
        "endTick": 47884,
        "pitch": 72,
        "velocity": 123,
        "trackId": 3,
        "channel": 0
      },
      {
        "startTick": 47808,
        "endTick": 47884,
        "pitch": 72,
        "velocity": 115,
        "trackId": 5,
        "channel": 2
      },
      {
        "startTick": 47808,
        "endTick": 47890,
        "pitch": 84,
        "velocity": 113,
        "trackId": 6,
        "channel": 3
      },
      {
        "startTick": 47808,
        "endTick": 47894,
        "pitch": 72,
        "velocity": 113,
        "trackId": 6,
        "channel": 3
      },
      {
        "startTick": 47816,
        "endTick": 47838,
        "pitch": 81,
        "velocity": 113,
        "trackId": 12,
        "channel": 9
      },
      {
        "startTick": 47902,
        "endTick": 47924,
        "pitch": 29,
        "velocity": 125,
        "trackId": 4,
        "channel": 1
      },
      {
        "startTick": 47902,
        "endTick": 47924,
        "pitch": 35,
        "velocity": 123,
        "trackId": 12,
        "channel": 9
      },
      {
        "startTick": 47902,
        "endTick": 47924,
        "pitch": 45,
        "velocity": 122,
        "trackId": 12,
        "channel": 9
      },
      {
        "startTick": 47904,
        "endTick": 47918,
        "pitch": 70,
        "velocity": 123,
        "trackId": 3,
        "channel": 0
      },
      {
        "startTick": 47904,
        "endTick": 47918,
        "pitch": 65,
        "velocity": 115,
        "trackId": 5,
        "channel": 2
      },
      {
        "startTick": 47904,
        "endTick": 47918,
        "pitch": 70,
        "velocity": 119,
        "trackId": 5,
        "channel": 2
      },
      {
        "startTick": 47904,
        "endTick": 47918,
        "pitch": 48,
        "velocity": 121,
        "trackId": 13,
        "channel": 10
      },
      {
        "startTick": 47904,
        "endTick": 47920,
        "pitch": 41,
        "velocity": 105,
        "trackId": 3,
        "channel": 0
      },
      {
        "startTick": 47904,
        "endTick": 47920,
        "pitch": 65,
        "velocity": 123,
        "trackId": 3,
        "channel": 0
      },
      {
        "startTick": 47904,
        "endTick": 47920,
        "pitch": 74,
        "velocity": 118,
        "trackId": 3,
        "channel": 0
      },
      {
        "startTick": 47904,
        "endTick": 47920,
        "pitch": 53,
        "velocity": 120,
        "trackId": 5,
        "channel": 2
      },
      {
        "startTick": 47904,
        "endTick": 47920,
        "pitch": 74,
        "velocity": 112,
        "trackId": 5,
        "channel": 2
      },
      {
        "startTick": 47904,
        "endTick": 47922,
        "pitch": 53,
        "velocity": 119,
        "trackId": 3,
        "channel": 0
      },
      {
        "startTick": 47904,
        "endTick": 47922,
        "pitch": 36,
        "velocity": 120,
        "trackId": 13,
        "channel": 10
      },
      {
        "startTick": 47904,
        "endTick": 47924,
        "pitch": 86,
        "velocity": 113,
        "trackId": 6,
        "channel": 3
      },
      {
        "startTick": 47904,
        "endTick": 47926,
        "pitch": 74,
        "velocity": 113,
        "trackId": 6,
        "channel": 3
      },
      {
        "startTick": 47904,
        "endTick": 47926,
        "pitch": 74,
        "velocity": 123,
        "trackId": 11,
        "channel": 12
      },
      {
        "startTick": 47910,
        "endTick": 47926,
        "pitch": 81,
        "velocity": 111,
        "trackId": 12,
        "channel": 9
      },
      {
        "startTick": 47950,
        "endTick": 47972,
        "pitch": 45,
        "velocity": 120,
        "trackId": 12,
        "channel": 9
      },
      {
        "startTick": 47950,
        "endTick": 47974,
        "pitch": 29,
        "velocity": 123,
        "trackId": 4,
        "channel": 1
      },
      {
        "startTick": 47950,
        "endTick": 47976,
        "pitch": 35,
        "velocity": 121,
        "trackId": 12,
        "channel": 9
      },
      {
        "startTick": 47952,
        "endTick": 47962,
        "pitch": 74,
        "velocity": 120,
        "trackId": 3,
        "channel": 0
      },
      {
        "startTick": 47952,
        "endTick": 47962,
        "pitch": 65,
        "velocity": 113,
        "trackId": 5,
        "channel": 2
      },
      {
        "startTick": 47952,
        "endTick": 47964,
        "pitch": 65,
        "velocity": 120,
        "trackId": 3,
        "channel": 0
      },
      {
        "startTick": 47952,
        "endTick": 47966,
        "pitch": 41,
        "velocity": 117,
        "trackId": 3,
        "channel": 0
      },
      {
        "startTick": 47952,
        "endTick": 47968,
        "pitch": 53,
        "velocity": 118,
        "trackId": 5,
        "channel": 2
      },
      {
        "startTick": 47952,
        "endTick": 47968,
        "pitch": 74,
        "velocity": 117,
        "trackId": 5,
        "channel": 2
      },
      {
        "startTick": 47952,
        "endTick": 47970,
        "pitch": 53,
        "velocity": 120,
        "trackId": 3,
        "channel": 0
      },
      {
        "startTick": 47952,
        "endTick": 47970,
        "pitch": 70,
        "velocity": 118,
        "trackId": 5,
        "channel": 2
      },
      {
        "startTick": 47952,
        "endTick": 47974,
        "pitch": 70,
        "velocity": 120,
        "trackId": 3,
        "channel": 0
      },
      {
        "startTick": 47952,
        "endTick": 47974,
        "pitch": 74,
        "velocity": 121,
        "trackId": 11,
        "channel": 12
      },
      {
        "startTick": 47952,
        "endTick": 47976,
        "pitch": 74,
        "velocity": 113,
        "trackId": 6,
        "channel": 3
      },
      {
        "startTick": 47952,
        "endTick": 47976,
        "pitch": 86,
        "velocity": 113,
        "trackId": 6,
        "channel": 3
      },
      {
        "startTick": 47956,
        "endTick": 47978,
        "pitch": 81,
        "velocity": 109,
        "trackId": 12,
        "channel": 9
      },
      {
        "startTick": 47998,
        "endTick": 48066,
        "pitch": 43,
        "velocity": 123,
        "trackId": 12,
        "channel": 9
      },
      {
        "startTick": 47998,
        "endTick": 48068,
        "pitch": 35,
        "velocity": 124,
        "trackId": 12,
        "channel": 9
      },
      {
        "startTick": 47998,
        "endTick": 48072,
        "pitch": 29,
        "velocity": 125,
        "trackId": 4,
        "channel": 1
      },
      {
        "startTick": 48000,
        "endTick": 48014,
        "pitch": 36,
        "velocity": 121,
        "trackId": 13,
        "channel": 10
      },
      {
        "startTick": 48000,
        "endTick": 48014,
        "pitch": 48,
        "velocity": 119,
        "trackId": 13,
        "channel": 10
      },
      {
        "startTick": 48000,
        "endTick": 48040,
        "pitch": 72,
        "velocity": 124,
        "trackId": 11,
        "channel": 12
      },
      {
        "startTick": 48000,
        "endTick": 48056,
        "pitch": 69,
        "velocity": 122,
        "trackId": 3,
        "channel": 0
      },
      {
        "startTick": 48000,
        "endTick": 48060,
        "pitch": 41,
        "velocity": 120,
        "trackId": 3,
        "channel": 0
      },
      {
        "startTick": 48000,
        "endTick": 48066,
        "pitch": 65,
        "velocity": 122,
        "trackId": 3,
        "channel": 0
      },
      {
        "startTick": 48000,
        "endTick": 48066,
        "pitch": 69,
        "velocity": 121,
        "trackId": 5,
        "channel": 2
      },
      {
        "startTick": 48000,
        "endTick": 48068,
        "pitch": 53,
        "velocity": 120,
        "trackId": 3,
        "channel": 0
      },
      {
        "startTick": 48000,
        "endTick": 48068,
        "pitch": 72,
        "velocity": 117,
        "trackId": 3,
        "channel": 0
      },
      {
        "startTick": 48000,
        "endTick": 48068,
        "pitch": 65,
        "velocity": 117,
        "trackId": 5,
        "channel": 2
      },
      {
        "startTick": 48000,
        "endTick": 48072,
        "pitch": 53,
        "velocity": 121,
        "trackId": 5,
        "channel": 2
      },
      {
        "startTick": 48000,
        "endTick": 48078,
        "pitch": 72,
        "velocity": 116,
        "trackId": 5,
        "channel": 2
      },
      {
        "startTick": 48000,
        "endTick": 48086,
        "pitch": 72,
        "velocity": 113,
        "trackId": 6,
        "channel": 3
      },
      {
        "startTick": 48000,
        "endTick": 48090,
        "pitch": 84,
        "velocity": 113,
        "trackId": 6,
        "channel": 3
      },
      {
        "startTick": 48004,
        "endTick": 48028,
        "pitch": 81,
        "velocity": 110,
        "trackId": 12,
        "channel": 9
      },
      {
        "startTick": 48094,
        "endTick": 48114,
        "pitch": 81,
        "velocity": 113,
        "trackId": 12,
        "channel": 9
      },
      {
        "startTick": 48094,
        "endTick": 48118,
        "pitch": 35,
        "velocity": 122,
        "trackId": 12,
        "channel": 9
      },
      {
        "startTick": 48094,
        "endTick": 48118,
        "pitch": 41,
        "velocity": 123,
        "trackId": 12,
        "channel": 9
      },
      {
        "startTick": 48094,
        "endTick": 48120,
        "pitch": 29,
        "velocity": 125,
        "trackId": 4,
        "channel": 1
      },
      {
        "startTick": 48096,
        "endTick": 48108,
        "pitch": 71,
        "velocity": 117,
        "trackId": 3,
        "channel": 0
      },
      {
        "startTick": 48096,
        "endTick": 48110,
        "pitch": 36,
        "velocity": 120,
        "trackId": 13,
        "channel": 10
      },
      {
        "startTick": 48096,
        "endTick": 48110,
        "pitch": 48,
        "velocity": 121,
        "trackId": 13,
        "channel": 10
      },
      {
        "startTick": 48096,
        "endTick": 48112,
        "pitch": 71,
        "velocity": 114,
        "trackId": 5,
        "channel": 2
      },
      {
        "startTick": 48096,
        "endTick": 48114,
        "pitch": 41,
        "velocity": 117,
        "trackId": 3,
        "channel": 0
      },
      {
        "startTick": 48096,
        "endTick": 48114,
        "pitch": 65,
        "velocity": 114,
        "trackId": 3,
        "channel": 0
      },
      {
        "startTick": 48096,
        "endTick": 48114,
        "pitch": 65,
        "velocity": 104,
        "trackId": 5,
        "channel": 2
      },
      {
        "startTick": 48096,
        "endTick": 48114,
        "pitch": 71,
        "velocity": 113,
        "trackId": 6,
        "channel": 3
      },
      {
        "startTick": 48096,
        "endTick": 48114,
        "pitch": 83,
        "velocity": 113,
        "trackId": 6,
        "channel": 3
      },
      {
        "startTick": 48096,
        "endTick": 48114,
        "pitch": 71,
        "velocity": 124,
        "trackId": 11,
        "channel": 12
      },
      {
        "startTick": 48096,
        "endTick": 48118,
        "pitch": 53,
        "velocity": 120,
        "trackId": 3,
        "channel": 0
      },
      {
        "startTick": 48096,
        "endTick": 48118,
        "pitch": 53,
        "velocity": 119,
        "trackId": 5,
        "channel": 2
      },
      {
        "startTick": 48096,
        "endTick": 48120,
        "pitch": 68,
        "velocity": 122,
        "trackId": 3,
        "channel": 0
      },
      {
        "startTick": 48096,
        "endTick": 48120,
        "pitch": 68,
        "velocity": 117,
        "trackId": 5,
        "channel": 2
      },
      {
        "startTick": 48142,
        "endTick": 48162,
        "pitch": 81,
        "velocity": 107,
        "trackId": 12,
        "channel": 9
      },
      {
        "startTick": 48142,
        "endTick": 48166,
        "pitch": 41,
        "velocity": 121,
        "trackId": 12,
        "channel": 9
      },
      {
        "startTick": 48142,
        "endTick": 48170,
        "pitch": 35,
        "velocity": 122,
        "trackId": 12,
        "channel": 9
      },
      {
        "startTick": 48142,
        "endTick": 48174,
        "pitch": 29,
        "velocity": 122,
        "trackId": 4,
        "channel": 1
      },
      {
        "startTick": 48144,
        "endTick": 48164,
        "pitch": 83,
        "velocity": 113,
        "trackId": 6,
        "channel": 3
      },
      {
        "startTick": 48144,
        "endTick": 48166,
        "pitch": 41,
        "velocity": 114,
        "trackId": 3,
        "channel": 0
      },
      {
        "startTick": 48144,
        "endTick": 48166,
        "pitch": 65,
        "velocity": 93,
        "trackId": 3,
        "channel": 0
      },
      {
        "startTick": 48144,
        "endTick": 48166,
        "pitch": 65,
        "velocity": 113,
        "trackId": 5,
        "channel": 2
      },
      {
        "startTick": 48144,
        "endTick": 48166,
        "pitch": 71,
        "velocity": 113,
        "trackId": 6,
        "channel": 3
      },
      {
        "startTick": 48144,
        "endTick": 48166,
        "pitch": 71,
        "velocity": 124,
        "trackId": 11,
        "channel": 12
      },
      {
        "startTick": 48144,
        "endTick": 48168,
        "pitch": 53,
        "velocity": 118,
        "trackId": 5,
        "channel": 2
      },
      {
        "startTick": 48144,
        "endTick": 48170,
        "pitch": 53,
        "velocity": 122,
        "trackId": 3,
        "channel": 0
      },
      {
        "startTick": 48144,
        "endTick": 48172,
        "pitch": 68,
        "velocity": 110,
        "trackId": 3,
        "channel": 0
      },
      {
        "startTick": 48144,
        "endTick": 48174,
        "pitch": 71,
        "velocity": 115,
        "trackId": 3,
        "channel": 0
      },
      {
        "startTick": 48144,
        "endTick": 48174,
        "pitch": 68,
        "velocity": 114,
        "trackId": 5,
        "channel": 2
      },
      {
        "startTick": 48144,
        "endTick": 48178,
        "pitch": 71,
        "velocity": 116,
        "trackId": 5,
        "channel": 2
      },
      {
        "startTick": 48190,
        "endTick": 48250,
        "pitch": 43,
        "velocity": 123,
        "trackId": 12,
        "channel": 9
      },
      {
        "startTick": 48190,
        "endTick": 48258,
        "pitch": 35,
        "velocity": 124,
        "trackId": 12,
        "channel": 9
      },
      {
        "startTick": 48190,
        "endTick": 48280,
        "pitch": 29,
        "velocity": 125,
        "trackId": 4,
        "channel": 1
      },
      {
        "startTick": 48192,
        "endTick": 48210,
        "pitch": 36,
        "velocity": 121,
        "trackId": 13,
        "channel": 10
      },
      {
        "startTick": 48192,
        "endTick": 48210,
        "pitch": 48,
        "velocity": 122,
        "trackId": 13,
        "channel": 10
      },
      {
        "startTick": 48192,
        "endTick": 48216,
        "pitch": 81,
        "velocity": 109,
        "trackId": 12,
        "channel": 9
      },
      {
        "startTick": 48192,
        "endTick": 48228,
        "pitch": 69,
        "velocity": 123,
        "trackId": 3,
        "channel": 0
      },
      {
        "startTick": 48192,
        "endTick": 48230,
        "pitch": 41,
        "velocity": 119,
        "trackId": 3,
        "channel": 0
      },
      {
        "startTick": 48192,
        "endTick": 48230,
        "pitch": 72,
        "velocity": 123,
        "trackId": 3,
        "channel": 0
      },
      {
        "startTick": 48192,
        "endTick": 48232,
        "pitch": 72,
        "velocity": 123,
        "trackId": 11,
        "channel": 12
      },
      {
        "startTick": 48192,
        "endTick": 48240,
        "pitch": 53,
        "velocity": 123,
        "trackId": 3,
        "channel": 0
      },
      {
        "startTick": 48192,
        "endTick": 48244,
        "pitch": 65,
        "velocity": 123,
        "trackId": 3,
        "channel": 0
      },
      {
        "startTick": 48192,
        "endTick": 48252,
        "pitch": 84,
        "velocity": 113,
        "trackId": 6,
        "channel": 3
      },
      {
        "startTick": 48192,
        "endTick": 48256,
        "pitch": 72,
        "velocity": 113,
        "trackId": 6,
        "channel": 3
      },
      {
        "startTick": 48192,
        "endTick": 48258,
        "pitch": 53,
        "velocity": 119,
        "trackId": 5,
        "channel": 2
      },
      {
        "startTick": 48192,
        "endTick": 48262,
        "pitch": 65,
        "velocity": 117,
        "trackId": 5,
        "channel": 2
      },
      {
        "startTick": 48192,
        "endTick": 48262,
        "pitch": 69,
        "velocity": 121,
        "trackId": 5,
        "channel": 2
      },
      {
        "startTick": 48192,
        "endTick": 48266,
        "pitch": 72,
        "velocity": 119,
        "trackId": 5,
        "channel": 2
      },
      {
        "startTick": 48286,
        "endTick": 48358,
        "pitch": 34,
        "velocity": 125,
        "trackId": 4,
        "channel": 1
      },
      {
        "startTick": 48286,
        "endTick": 48382,
        "pitch": 35,
        "velocity": 124,
        "trackId": 12,
        "channel": 9
      },
      {
        "startTick": 48286,
        "endTick": 48440,
        "pitch": 49,
        "velocity": 123,
        "trackId": 12,
        "channel": 9
      },
      {
        "startTick": 48288,
        "endTick": 48302,
        "pitch": 36,
        "velocity": 122,
        "trackId": 13,
        "channel": 10
      },
      {
        "startTick": 48288,
        "endTick": 48306,
        "pitch": 48,
        "velocity": 122,
        "trackId": 13,
        "channel": 10
      },
      {
        "startTick": 48288,
        "endTick": 48312,
        "pitch": 81,
        "velocity": 114,
        "trackId": 12,
        "channel": 9
      },
      {
        "startTick": 48288,
        "endTick": 48320,
        "pitch": 74,
        "velocity": 122,
        "trackId": 11,
        "channel": 12
      },
      {
        "startTick": 48288,
        "endTick": 48342,
        "pitch": 65,
        "velocity": 123,
        "trackId": 3,
        "channel": 0
      },
      {
        "startTick": 48288,
        "endTick": 48346,
        "pitch": 74,
        "velocity": 121,
        "trackId": 3,
        "channel": 0
      },
      {
        "startTick": 48288,
        "endTick": 48348,
        "pitch": 74,
        "velocity": 113,
        "trackId": 6,
        "channel": 3
      },
      {
        "startTick": 48288,
        "endTick": 48350,
        "pitch": 70,
        "velocity": 123,
        "trackId": 3,
        "channel": 0
      },
      {
        "startTick": 48288,
        "endTick": 48352,
        "pitch": 86,
        "velocity": 113,
        "trackId": 6,
        "channel": 3
      },
      {
        "startTick": 48288,
        "endTick": 48354,
        "pitch": 46,
        "velocity": 121,
        "trackId": 3,
        "channel": 0
      },
      {
        "startTick": 48288,
        "endTick": 48354,
        "pitch": 65,
        "velocity": 111,
        "trackId": 5,
        "channel": 2
      },
      {
        "startTick": 48288,
        "endTick": 48358,
        "pitch": 70,
        "velocity": 118,
        "trackId": 5,
        "channel": 2
      },
      {
        "startTick": 48288,
        "endTick": 48360,
        "pitch": 58,
        "velocity": 122,
        "trackId": 3,
        "channel": 0
      },
      {
        "startTick": 48288,
        "endTick": 48360,
        "pitch": 74,
        "velocity": 117,
        "trackId": 5,
        "channel": 2
      },
      {
        "startTick": 48288,
        "endTick": 48364,
        "pitch": 58,
        "velocity": 118,
        "trackId": 5,
        "channel": 2
      },
      {
        "startTick": 48382,
        "endTick": 48414,
        "pitch": 34,
        "velocity": 125,
        "trackId": 4,
        "channel": 1
      },
      {
        "startTick": 48382,
        "endTick": 48430,
        "pitch": 35,
        "velocity": 121,
        "trackId": 12,
        "channel": 9
      },
      {
        "startTick": 48382,
        "endTick": 48430,
        "pitch": 43,
        "velocity": 121,
        "trackId": 12,
        "channel": 9
      },
      {
        "startTick": 48384,
        "endTick": 48406,
        "pitch": 74,
        "velocity": 123,
        "trackId": 11,
        "channel": 12
      },
      {
        "startTick": 48384,
        "endTick": 48408,
        "pitch": 65,
        "velocity": 112,
        "trackId": 5,
        "channel": 2
      },
      {
        "startTick": 48384,
        "endTick": 48414,
        "pitch": 58,
        "velocity": 119,
        "trackId": 5,
        "channel": 2
      },
      {
        "startTick": 48384,
        "endTick": 48414,
        "pitch": 86,
        "velocity": 113,
        "trackId": 6,
        "channel": 3
      },
      {
        "startTick": 48384,
        "endTick": 48418,
        "pitch": 74,
        "velocity": 119,
        "trackId": 5,
        "channel": 2
      },
      {
        "startTick": 48384,
        "endTick": 48420,
        "pitch": 70,
        "velocity": 117,
        "trackId": 5,
        "channel": 2
      },
      {
        "startTick": 48384,
        "endTick": 48428,
        "pitch": 74,
        "velocity": 113,
        "trackId": 6,
        "channel": 3
      },
      {
        "startTick": 48384,
        "endTick": 48444,
        "pitch": 74,
        "velocity": 122,
        "trackId": 3,
        "channel": 0
      },
      {
        "startTick": 48384,
        "endTick": 48446,
        "pitch": 70,
        "velocity": 122,
        "trackId": 3,
        "channel": 0
      },
      {
        "startTick": 48384,
        "endTick": 48450,
        "pitch": 65,
        "velocity": 123,
        "trackId": 3,
        "channel": 0
      },
      {
        "startTick": 48384,
        "endTick": 48452,
        "pitch": 58,
        "velocity": 123,
        "trackId": 3,
        "channel": 0
      },
      {
        "startTick": 48384,
        "endTick": 48454,
        "pitch": 46,
        "velocity": 119,
        "trackId": 3,
        "channel": 0
      },
      {
        "startTick": 48388,
        "endTick": 48402,
        "pitch": 81,
        "velocity": 108,
        "trackId": 12,
        "channel": 9
      },
      {
        "startTick": 48430,
        "endTick": 48450,
        "pitch": 81,
        "velocity": 106,
        "trackId": 12,
        "channel": 9
      },
      {
        "startTick": 48430,
        "endTick": 48470,
        "pitch": 34,
        "velocity": 119,
        "trackId": 4,
        "channel": 1
      },
      {
        "startTick": 48430,
        "endTick": 48478,
        "pitch": 35,
        "velocity": 124,
        "trackId": 12,
        "channel": 9
      },
      {
        "startTick": 48430,
        "endTick": 48478,
        "pitch": 43,
        "velocity": 124,
        "trackId": 12,
        "channel": 9
      },
      {
        "startTick": 48432,
        "endTick": 48450,
        "pitch": 65,
        "velocity": 107,
        "trackId": 5,
        "channel": 2
      },
      {
        "startTick": 48432,
        "endTick": 48454,
        "pitch": 76,
        "velocity": 104,
        "trackId": 5,
        "channel": 2
      },
      {
        "startTick": 48432,
        "endTick": 48456,
        "pitch": 76,
        "velocity": 122,
        "trackId": 11,
        "channel": 12
      },
      {
        "startTick": 48432,
        "endTick": 48462,
        "pitch": 76,
        "velocity": 117,
        "trackId": 3,
        "channel": 0
      },
      {
        "startTick": 48432,
        "endTick": 48466,
        "pitch": 58,
        "velocity": 117,
        "trackId": 5,
        "channel": 2
      },
      {
        "startTick": 48432,
        "endTick": 48466,
        "pitch": 76,
        "velocity": 113,
        "trackId": 6,
        "channel": 3
      },
      {
        "startTick": 48432,
        "endTick": 48468,
        "pitch": 88,
        "velocity": 113,
        "trackId": 6,
        "channel": 3
      },
      {
        "startTick": 48478,
        "endTick": 48542,
        "pitch": 33,
        "velocity": 125,
        "trackId": 4,
        "channel": 1
      },
      {
        "startTick": 48478,
        "endTick": 48574,
        "pitch": 35,
        "velocity": 124,
        "trackId": 12,
        "channel": 9
      },
      {
        "startTick": 48478,
        "endTick": 48602,
        "pitch": 57,
        "velocity": 123,
        "trackId": 12,
        "channel": 9
      },
      {
        "startTick": 48480,
        "endTick": 48498,
        "pitch": 36,
        "velocity": 122,
        "trackId": 13,
        "channel": 10
      },
      {
        "startTick": 48480,
        "endTick": 48498,
        "pitch": 48,
        "velocity": 122,
        "trackId": 13,
        "channel": 10
      },
      {
        "startTick": 48480,
        "endTick": 48504,
        "pitch": 81,
        "velocity": 113,
        "trackId": 12,
        "channel": 9
      },
      {
        "startTick": 48480,
        "endTick": 48506,
        "pitch": 65,
        "velocity": 121,
        "trackId": 5,
        "channel": 2
      },
      {
        "startTick": 48480,
        "endTick": 48508,
        "pitch": 69,
        "velocity": 120,
        "trackId": 5,
        "channel": 2
      },
      {
        "startTick": 48480,
        "endTick": 48510,
        "pitch": 72,
        "velocity": 123,
        "trackId": 3,
        "channel": 0
      },
      {
        "startTick": 48480,
        "endTick": 48512,
        "pitch": 45,
        "velocity": 123,
        "trackId": 3,
        "channel": 0
      },
      {
        "startTick": 48480,
        "endTick": 48512,
        "pitch": 57,
        "velocity": 122,
        "trackId": 3,
        "channel": 0
      },
      {
        "startTick": 48480,
        "endTick": 48512,
        "pitch": 69,
        "velocity": 123,
        "trackId": 3,
        "channel": 0
      },
      {
        "startTick": 48480,
        "endTick": 48512,
        "pitch": 57,
        "velocity": 119,
        "trackId": 5,
        "channel": 2
      },
      {
        "startTick": 48480,
        "endTick": 48512,
        "pitch": 72,
        "velocity": 124,
        "trackId": 11,
        "channel": 12
      },
      {
        "startTick": 48480,
        "endTick": 48514,
        "pitch": 65,
        "velocity": 122,
        "trackId": 3,
        "channel": 0
      },
      {
        "startTick": 48480,
        "endTick": 48514,
        "pitch": 72,
        "velocity": 117,
        "trackId": 5,
        "channel": 2
      },
      {
        "startTick": 48480,
        "endTick": 48532,
        "pitch": 84,
        "velocity": 113,
        "trackId": 6,
        "channel": 3
      },
      {
        "startTick": 48480,
        "endTick": 48534,
        "pitch": 72,
        "velocity": 113,
        "trackId": 6,
        "channel": 3
      },
      {
        "startTick": 48574,
        "endTick": 48602,
        "pitch": 33,
        "velocity": 125,
        "trackId": 4,
        "channel": 1
      },
      {
        "startTick": 48574,
        "endTick": 48622,
        "pitch": 35,
        "velocity": 120,
        "trackId": 12,
        "channel": 9
      },
      {
        "startTick": 48574,
        "endTick": 48622,
        "pitch": 43,
        "velocity": 120,
        "trackId": 12,
        "channel": 9
      },
      {
        "startTick": 48576,
        "endTick": 48594,
        "pitch": 84,
        "velocity": 113,
        "trackId": 6,
        "channel": 3
      },
      {
        "startTick": 48576,
        "endTick": 48594,
        "pitch": 72,
        "velocity": 123,
        "trackId": 11,
        "channel": 12
      },
      {
        "startTick": 48576,
        "endTick": 48598,
        "pitch": 65,
        "velocity": 123,
        "trackId": 3,
        "channel": 0
      },
      {
        "startTick": 48576,
        "endTick": 48598,
        "pitch": 57,
        "velocity": 119,
        "trackId": 5,
        "channel": 2
      },
      {
        "startTick": 48576,
        "endTick": 48598,
        "pitch": 72,
        "velocity": 113,
        "trackId": 6,
        "channel": 3
      },
      {
        "startTick": 48576,
        "endTick": 48612,
        "pitch": 72,
        "velocity": 119,
        "trackId": 5,
        "channel": 2
      },
      {
        "startTick": 48576,
        "endTick": 48614,
        "pitch": 69,
        "velocity": 119,
        "trackId": 5,
        "channel": 2
      },
      {
        "startTick": 48576,
        "endTick": 48618,
        "pitch": 72,
        "velocity": 123,
        "trackId": 3,
        "channel": 0
      },
      {
        "startTick": 48576,
        "endTick": 48622,
        "pitch": 69,
        "velocity": 123,
        "trackId": 3,
        "channel": 0
      },
      {
        "startTick": 48576,
        "endTick": 48636,
        "pitch": 57,
        "velocity": 123,
        "trackId": 3,
        "channel": 0
      },
      {
        "startTick": 48576,
        "endTick": 48648,
        "pitch": 45,
        "velocity": 123,
        "trackId": 3,
        "channel": 0
      },
      {
        "startTick": 48582,
        "endTick": 48600,
        "pitch": 81,
        "velocity": 114,
        "trackId": 12,
        "channel": 9
      },
      {
        "startTick": 48622,
        "endTick": 48660,
        "pitch": 33,
        "velocity": 123,
        "trackId": 4,
        "channel": 1
      },
      {
        "startTick": 48622,
        "endTick": 48670,
        "pitch": 35,
        "velocity": 123,
        "trackId": 12,
        "channel": 9
      },
      {
        "startTick": 48622,
        "endTick": 48670,
        "pitch": 43,
        "velocity": 123,
        "trackId": 12,
        "channel": 9
      },
      {
        "startTick": 48624,
        "endTick": 48646,
        "pitch": 72,
        "velocity": 121,
        "trackId": 11,
        "channel": 12
      },
      {
        "startTick": 48624,
        "endTick": 48648,
        "pitch": 84,
        "velocity": 113,
        "trackId": 6,
        "channel": 3
      },
      {
        "startTick": 48624,
        "endTick": 48648,
        "pitch": 81,
        "velocity": 111,
        "trackId": 12,
        "channel": 9
      },
      {
        "startTick": 48624,
        "endTick": 48652,
        "pitch": 72,
        "velocity": 113,
        "trackId": 6,
        "channel": 3
      },
      {
        "startTick": 48624,
        "endTick": 48654,
        "pitch": 65,
        "velocity": 118,
        "trackId": 5,
        "channel": 2
      },
      {
        "startTick": 48624,
        "endTick": 48662,
        "pitch": 57,
        "velocity": 119,
        "trackId": 5,
        "channel": 2
      },
      {
        "startTick": 48624,
        "endTick": 48710,
        "pitch": 65,
        "velocity": 122,
        "trackId": 3,
        "channel": 0
      },
      {
        "startTick": 48670,
        "endTick": 48730,
        "pitch": 35,
        "velocity": 124,
        "trackId": 12,
        "channel": 9
      },
      {
        "startTick": 48670,
        "endTick": 48748,
        "pitch": 31,
        "velocity": 125,
        "trackId": 4,
        "channel": 1
      },
      {
        "startTick": 48670,
        "endTick": 48778,
        "pitch": 49,
        "velocity": 124,
        "trackId": 12,
        "channel": 9
      },
      {
        "startTick": 48672,
        "endTick": 48690,
        "pitch": 36,
        "velocity": 122,
        "trackId": 13,
        "channel": 10
      },
      {
        "startTick": 48672,
        "endTick": 48690,
        "pitch": 48,
        "velocity": 122,
        "trackId": 13,
        "channel": 10
      },
      {
        "startTick": 48672,
        "endTick": 48700,
        "pitch": 65,
        "velocity": 116,
        "trackId": 5,
        "channel": 2
      },
      {
        "startTick": 48672,
        "endTick": 48700,
        "pitch": 71,
        "velocity": 123,
        "trackId": 11,
        "channel": 12
      },
      {
        "startTick": 48672,
        "endTick": 48702,
        "pitch": 67,
        "velocity": 118,
        "trackId": 5,
        "channel": 2
      },
      {
        "startTick": 48672,
        "endTick": 48704,
        "pitch": 71,
        "velocity": 119,
        "trackId": 5,
        "channel": 2
      },
      {
        "startTick": 48672,
        "endTick": 48708,
        "pitch": 71,
        "velocity": 123,
        "trackId": 3,
        "channel": 0
      },
      {
        "startTick": 48672,
        "endTick": 48710,
        "pitch": 43,
        "velocity": 123,
        "trackId": 3,
        "channel": 0
      },
      {
        "startTick": 48672,
        "endTick": 48710,
        "pitch": 55,
        "velocity": 120,
        "trackId": 3,
        "channel": 0
      },
      {
        "startTick": 48672,
        "endTick": 48710,
        "pitch": 55,
        "velocity": 121,
        "trackId": 5,
        "channel": 2
      },
      {
        "startTick": 48672,
        "endTick": 48712,
        "pitch": 67,
        "velocity": 122,
        "trackId": 3,
        "channel": 0
      },
      {
        "startTick": 48672,
        "endTick": 48718,
        "pitch": 83,
        "velocity": 113,
        "trackId": 6,
        "channel": 3
      },
      {
        "startTick": 48672,
        "endTick": 48722,
        "pitch": 71,
        "velocity": 113,
        "trackId": 6,
        "channel": 3
      },
      {
        "startTick": 48674,
        "endTick": 48694,
        "pitch": 81,
        "velocity": 116,
        "trackId": 12,
        "channel": 9
      },
      {
        "startTick": 48766,
        "endTick": 48784,
        "pitch": 35,
        "velocity": 123,
        "trackId": 12,
        "channel": 9
      },
      {
        "startTick": 48766,
        "endTick": 48786,
        "pitch": 43,
        "velocity": 123,
        "trackId": 12,
        "channel": 9
      },
      {
        "startTick": 48766,
        "endTick": 48788,
        "pitch": 31,
        "velocity": 123,
        "trackId": 4,
        "channel": 1
      },
      {
        "startTick": 48768,
        "endTick": 48784,
        "pitch": 48,
        "velocity": 121,
        "trackId": 13,
        "channel": 10
      },
      {
        "startTick": 48768,
        "endTick": 48786,
        "pitch": 71,
        "velocity": 123,
        "trackId": 11,
        "channel": 12
      },
      {
        "startTick": 48768,
        "endTick": 48788,
        "pitch": 67,
        "velocity": 123,
        "trackId": 3,
        "channel": 0
      },
      {
        "startTick": 48768,
        "endTick": 48788,
        "pitch": 71,
        "velocity": 113,
        "trackId": 6,
        "channel": 3
      },
      {
        "startTick": 48768,
        "endTick": 48788,
        "pitch": 83,
        "velocity": 113,
        "trackId": 6,
        "channel": 3
      },
      {
        "startTick": 48768,
        "endTick": 48788,
        "pitch": 36,
        "velocity": 122,
        "trackId": 13,
        "channel": 10
      },
      {
        "startTick": 48768,
        "endTick": 48790,
        "pitch": 43,
        "velocity": 123,
        "trackId": 3,
        "channel": 0
      },
      {
        "startTick": 48768,
        "endTick": 48792,
        "pitch": 65,
        "velocity": 123,
        "trackId": 3,
        "channel": 0
      },
      {
        "startTick": 48768,
        "endTick": 48792,
        "pitch": 65,
        "velocity": 117,
        "trackId": 5,
        "channel": 2
      },
      {
        "startTick": 48768,
        "endTick": 48794,
        "pitch": 71,
        "velocity": 118,
        "trackId": 3,
        "channel": 0
      },
      {
        "startTick": 48768,
        "endTick": 48796,
        "pitch": 55,
        "velocity": 123,
        "trackId": 3,
        "channel": 0
      },
      {
        "startTick": 48768,
        "endTick": 48796,
        "pitch": 67,
        "velocity": 119,
        "trackId": 5,
        "channel": 2
      },
      {
        "startTick": 48768,
        "endTick": 48798,
        "pitch": 71,
        "velocity": 121,
        "trackId": 5,
        "channel": 2
      },
      {
        "startTick": 48768,
        "endTick": 48800,
        "pitch": 55,
        "velocity": 117,
        "trackId": 5,
        "channel": 2
      },
      {
        "startTick": 48776,
        "endTick": 48798,
        "pitch": 81,
        "velocity": 115,
        "trackId": 12,
        "channel": 9
      },
      {
        "startTick": 48814,
        "endTick": 48832,
        "pitch": 43,
        "velocity": 123,
        "trackId": 12,
        "channel": 9
      },
      {
        "startTick": 48814,
        "endTick": 48838,
        "pitch": 35,
        "velocity": 124,
        "trackId": 12,
        "channel": 9
      },
      {
        "startTick": 48814,
        "endTick": 48864,
        "pitch": 31,
        "velocity": 123,
        "trackId": 4,
        "channel": 1
      },
      {
        "startTick": 48816,
        "endTick": 48836,
        "pitch": 65,
        "velocity": 121,
        "trackId": 3,
        "channel": 0
      },
      {
        "startTick": 48816,
        "endTick": 48838,
        "pitch": 71,
        "velocity": 124,
        "trackId": 11,
        "channel": 12
      },
      {
        "startTick": 48816,
        "endTick": 48840,
        "pitch": 67,
        "velocity": 122,
        "trackId": 3,
        "channel": 0
      },
      {
        "startTick": 48816,
        "endTick": 48842,
        "pitch": 83,
        "velocity": 113,
        "trackId": 6,
        "channel": 3
      },
      {
        "startTick": 48816,
        "endTick": 48848,
        "pitch": 65,
        "velocity": 115,
        "trackId": 5,
        "channel": 2
      },
      {
        "startTick": 48816,
        "endTick": 48848,
        "pitch": 67,
        "velocity": 115,
        "trackId": 5,
        "channel": 2
      },
      {
        "startTick": 48816,
        "endTick": 48848,
        "pitch": 71,
        "velocity": 113,
        "trackId": 6,
        "channel": 3
      },
      {
        "startTick": 48816,
        "endTick": 48850,
        "pitch": 71,
        "velocity": 115,
        "trackId": 3,
        "channel": 0
      },
      {
        "startTick": 48816,
        "endTick": 48862,
        "pitch": 43,
        "velocity": 113,
        "trackId": 3,
        "channel": 0
      },
      {
        "startTick": 48816,
        "endTick": 48862,
        "pitch": 71,
        "velocity": 116,
        "trackId": 5,
        "channel": 2
      },
      {
        "startTick": 48816,
        "endTick": 48864,
        "pitch": 55,
        "velocity": 123,
        "trackId": 3,
        "channel": 0
      },
      {
        "startTick": 48816,
        "endTick": 48872,
        "pitch": 55,
        "velocity": 115,
        "trackId": 5,
        "channel": 2
      },
      {
        "startTick": 48822,
        "endTick": 48842,
        "pitch": 81,
        "velocity": 112,
        "trackId": 12,
        "channel": 9
      },
      {
        "startTick": 48862,
        "endTick": 48934,
        "pitch": 36,
        "velocity": 125,
        "trackId": 4,
        "channel": 1
      },
      {
        "startTick": 48862,
        "endTick": 48958,
        "pitch": 46,
        "velocity": 123,
        "trackId": 12,
        "channel": 9
      },
      {
        "startTick": 48862,
        "endTick": 49016,
        "pitch": 35,
        "velocity": 124,
        "trackId": 12,
        "channel": 9
      },
      {
        "startTick": 48864,
        "endTick": 48882,
        "pitch": 48,
        "velocity": 122,
        "trackId": 13,
        "channel": 10
      },
      {
        "startTick": 48864,
        "endTick": 48888,
        "pitch": 36,
        "velocity": 122,
        "trackId": 13,
        "channel": 10
      },
      {
        "startTick": 48864,
        "endTick": 48890,
        "pitch": 60,
        "velocity": 122,
        "trackId": 3,
        "channel": 0
      },
      {
        "startTick": 48864,
        "endTick": 48890,
        "pitch": 72,
        "velocity": 123,
        "trackId": 11,
        "channel": 12
      },
      {
        "startTick": 48864,
        "endTick": 48900,
        "pitch": 84,
        "velocity": 113,
        "trackId": 6,
        "channel": 3
      },
      {
        "startTick": 48864,
        "endTick": 48904,
        "pitch": 67,
        "velocity": 123,
        "trackId": 3,
        "channel": 0
      },
      {
        "startTick": 48864,
        "endTick": 48910,
        "pitch": 48,
        "velocity": 119,
        "trackId": 5,
        "channel": 2
      },
      {
        "startTick": 48864,
        "endTick": 48912,
        "pitch": 60,
        "velocity": 121,
        "trackId": 5,
        "channel": 2
      },
      {
        "startTick": 48864,
        "endTick": 48912,
        "pitch": 72,
        "velocity": 113,
        "trackId": 6,
        "channel": 3
      },
      {
        "startTick": 48864,
        "endTick": 48914,
        "pitch": 72,
        "velocity": 122,
        "trackId": 3,
        "channel": 0
      },
      {
        "startTick": 48864,
        "endTick": 48914,
        "pitch": 64,
        "velocity": 119,
        "trackId": 5,
        "channel": 2
      },
      {
        "startTick": 48864,
        "endTick": 48916,
        "pitch": 67,
        "velocity": 121,
        "trackId": 5,
        "channel": 2
      },
      {
        "startTick": 48864,
        "endTick": 48922,
        "pitch": 72,
        "velocity": 119,
        "trackId": 5,
        "channel": 2
      },
      {
        "startTick": 48864,
        "endTick": 48936,
        "pitch": 48,
        "velocity": 122,
        "trackId": 3,
        "channel": 0
      },
      {
        "startTick": 48866,
        "endTick": 48890,
        "pitch": 81,
        "velocity": 117,
        "trackId": 12,
        "channel": 9
      },
      {
        "startTick": 48960,
        "endTick": 48980,
        "pitch": 72,
        "velocity": 123,
        "trackId": 3,
        "channel": 0
      },
      {
        "startTick": 49008,
        "endTick": 49048,
        "pitch": 72,
        "velocity": 121,
        "trackId": 3,
        "channel": 0
      },
      {
        "startTick": 49056,
        "endTick": 49092,
        "pitch": 74,
        "velocity": 119,
        "trackId": 3,
        "channel": 0
      },
      {
        "startTick": 49056,
        "endTick": 49152,
        "pitch": 70,
        "velocity": 122,
        "trackId": 3,
        "channel": 0
      },
      {
        "startTick": 49104,
        "endTick": 49150,
        "pitch": 77,
        "velocity": 117,
        "trackId": 3,
        "channel": 0
      },
      {
        "startTick": 49152,
        "endTick": 49200,
        "pitch": 72,
        "velocity": 121,
        "trackId": 3,
        "channel": 0
      },
      {
        "startTick": 49152,
        "endTick": 49232,
        "pitch": 69,
        "velocity": 123,
        "trackId": 3,
        "channel": 0
      },
      {
        "startTick": 49200,
        "endTick": 49250,
        "pitch": 77,
        "velocity": 121,
        "trackId": 3,
        "channel": 0
      },
      {
        "startTick": 49248,
        "endTick": 49292,
        "pitch": 71,
        "velocity": 118,
        "trackId": 3,
        "channel": 0
      },
      {
        "startTick": 49248,
        "endTick": 49344,
        "pitch": 68,
        "velocity": 118,
        "trackId": 3,
        "channel": 0
      },
      {
        "startTick": 49296,
        "endTick": 49348,
        "pitch": 77,
        "velocity": 118,
        "trackId": 3,
        "channel": 0
      },
      {
        "startTick": 49344,
        "endTick": 49388,
        "pitch": 67,
        "velocity": 122,
        "trackId": 3,
        "channel": 0
      },
      {
        "startTick": 49344,
        "endTick": 49398,
        "pitch": 70,
        "velocity": 123,
        "trackId": 3,
        "channel": 0
      },
      {
        "startTick": 49392,
        "endTick": 49410,
        "pitch": 77,
        "velocity": 120,
        "trackId": 3,
        "channel": 0
      },
      {
        "startTick": 49438,
        "endTick": 49468,
        "pitch": 37,
        "velocity": 118,
        "trackId": 4,
        "channel": 1
      },
      {
        "startTick": 49440,
        "endTick": 49446,
        "pitch": 49,
        "velocity": 113,
        "trackId": 5,
        "channel": 2
      },
      {
        "startTick": 49440,
        "endTick": 49452,
        "pitch": 56,
        "velocity": 113,
        "trackId": 5,
        "channel": 2
      },
      {
        "startTick": 49440,
        "endTick": 49452,
        "pitch": 61,
        "velocity": 113,
        "trackId": 5,
        "channel": 2
      },
      {
        "startTick": 49440,
        "endTick": 49454,
        "pitch": 65,
        "velocity": 120,
        "trackId": 3,
        "channel": 0
      },
      {
        "startTick": 49440,
        "endTick": 49458,
        "pitch": 68,
        "velocity": 122,
        "trackId": 3,
        "channel": 0
      },
      {
        "startTick": 49440,
        "endTick": 49462,
        "pitch": 73,
        "velocity": 120,
        "trackId": 3,
        "channel": 0
      },
      {
        "startTick": 49440,
        "endTick": 49474,
        "pitch": 61,
        "velocity": 123,
        "trackId": 3,
        "channel": 0
      },
      {
        "startTick": 49486,
        "endTick": 49528,
        "pitch": 37,
        "velocity": 106,
        "trackId": 4,
        "channel": 1
      },
      {
        "startTick": 49488,
        "endTick": 49502,
        "pitch": 65,
        "velocity": 120,
        "trackId": 3,
        "channel": 0
      },
      {
        "startTick": 49488,
        "endTick": 49502,
        "pitch": 56,
        "velocity": 115,
        "trackId": 5,
        "channel": 2
      },
      {
        "startTick": 49488,
        "endTick": 49504,
        "pitch": 49,
        "velocity": 113,
        "trackId": 5,
        "channel": 2
      },
      {
        "startTick": 49488,
        "endTick": 49506,
        "pitch": 68,
        "velocity": 122,
        "trackId": 3,
        "channel": 0
      },
      {
        "startTick": 49488,
        "endTick": 49510,
        "pitch": 73,
        "velocity": 120,
        "trackId": 3,
        "channel": 0
      },
      {
        "startTick": 49488,
        "endTick": 49522,
        "pitch": 61,
        "velocity": 123,
        "trackId": 3,
        "channel": 0
      },
      {
        "startTick": 49534,
        "endTick": 49570,
        "pitch": 36,
        "velocity": 121,
        "trackId": 4,
        "channel": 1
      },
      {
        "startTick": 49536,
        "endTick": 49548,
        "pitch": 36,
        "velocity": 114,
        "trackId": 5,
        "channel": 2
      },
      {
        "startTick": 49536,
        "endTick": 49550,
        "pitch": 43,
        "velocity": 116,
        "trackId": 5,
        "channel": 2
      },
      {
        "startTick": 49536,
        "endTick": 49550,
        "pitch": 48,
        "velocity": 118,
        "trackId": 5,
        "channel": 2
      },
      {
        "startTick": 49536,
        "endTick": 49552,
        "pitch": 64,
        "velocity": 119,
        "trackId": 3,
        "channel": 0
      },
      {
        "startTick": 49536,
        "endTick": 49554,
        "pitch": 67,
        "velocity": 119,
        "trackId": 3,
        "channel": 0
      },
      {
        "startTick": 49536,
        "endTick": 49554,
        "pitch": 72,
        "velocity": 112,
        "trackId": 3,
        "channel": 0
      },
      {
        "startTick": 49536,
        "endTick": 49556,
        "pitch": 60,
        "velocity": 123,
        "trackId": 3,
        "channel": 0
      },
      {
        "startTick": 49630,
        "endTick": 49654,
        "pitch": 35,
        "velocity": 116,
        "trackId": 4,
        "channel": 1
      },
      {
        "startTick": 49632,
        "endTick": 49640,
        "pitch": 35,
        "velocity": 103,
        "trackId": 5,
        "channel": 2
      },
      {
        "startTick": 49632,
        "endTick": 49642,
        "pitch": 47,
        "velocity": 112,
        "trackId": 5,
        "channel": 2
      },
      {
        "startTick": 49632,
        "endTick": 49644,
        "pitch": 42,
        "velocity": 113,
        "trackId": 5,
        "channel": 2
      },
      {
        "startTick": 49632,
        "endTick": 49646,
        "pitch": 63,
        "velocity": 117,
        "trackId": 3,
        "channel": 0
      },
      {
        "startTick": 49632,
        "endTick": 49650,
        "pitch": 59,
        "velocity": 117,
        "trackId": 3,
        "channel": 0
      },
      {
        "startTick": 49632,
        "endTick": 49652,
        "pitch": 71,
        "velocity": 112,
        "trackId": 3,
        "channel": 0
      },
      {
        "startTick": 49632,
        "endTick": 49656,
        "pitch": 66,
        "velocity": 117,
        "trackId": 3,
        "channel": 0
      },
      {
        "startTick": 49678,
        "endTick": 49720,
        "pitch": 35,
        "velocity": 111,
        "trackId": 4,
        "channel": 1
      },
      {
        "startTick": 49680,
        "endTick": 49690,
        "pitch": 35,
        "velocity": 108,
        "trackId": 5,
        "channel": 2
      },
      {
        "startTick": 49680,
        "endTick": 49690,
        "pitch": 47,
        "velocity": 100,
        "trackId": 5,
        "channel": 2
      },
      {
        "startTick": 49680,
        "endTick": 49692,
        "pitch": 42,
        "velocity": 112,
        "trackId": 5,
        "channel": 2
      },
      {
        "startTick": 49680,
        "endTick": 49704,
        "pitch": 63,
        "velocity": 95,
        "trackId": 3,
        "channel": 0
      },
      {
        "startTick": 49680,
        "endTick": 49706,
        "pitch": 66,
        "velocity": 109,
        "trackId": 3,
        "channel": 0
      },
      {
        "startTick": 49680,
        "endTick": 49706,
        "pitch": 71,
        "velocity": 102,
        "trackId": 3,
        "channel": 0
      },
      {
        "startTick": 49680,
        "endTick": 49728,
        "pitch": 59,
        "velocity": 117,
        "trackId": 3,
        "channel": 0
      },
      {
        "startTick": 49726,
        "endTick": 49774,
        "pitch": 36,
        "velocity": 118,
        "trackId": 4,
        "channel": 1
      },
      {
        "startTick": 49728,
        "endTick": 49746,
        "pitch": 43,
        "velocity": 112,
        "trackId": 5,
        "channel": 2
      },
      {
        "startTick": 49728,
        "endTick": 49748,
        "pitch": 64,
        "velocity": 118,
        "trackId": 3,
        "channel": 0
      },
      {
        "startTick": 49728,
        "endTick": 49748,
        "pitch": 36,
        "velocity": 118,
        "trackId": 5,
        "channel": 2
      },
      {
        "startTick": 49728,
        "endTick": 49748,
        "pitch": 48,
        "velocity": 113,
        "trackId": 5,
        "channel": 2
      },
      {
        "startTick": 49728,
        "endTick": 49750,
        "pitch": 67,
        "velocity": 113,
        "trackId": 3,
        "channel": 0
      },
      {
        "startTick": 49728,
        "endTick": 49752,
        "pitch": 72,
        "velocity": 116,
        "trackId": 3,
        "channel": 0
      },
      {
        "startTick": 49728,
        "endTick": 49758,
        "pitch": 60,
        "velocity": 122,
        "trackId": 3,
        "channel": 0
      },
      {
        "startTick": 49822,
        "endTick": 49840,
        "pitch": 37,
        "velocity": 118,
        "trackId": 4,
        "channel": 1
      },
      {
        "startTick": 49824,
        "endTick": 49836,
        "pitch": 44,
        "velocity": 117,
        "trackId": 5,
        "channel": 2
      },
      {
        "startTick": 49824,
        "endTick": 49840,
        "pitch": 37,
        "velocity": 115,
        "trackId": 5,
        "channel": 2
      },
      {
        "startTick": 49824,
        "endTick": 49840,
        "pitch": 49,
        "velocity": 112,
        "trackId": 5,
        "channel": 2
      },
      {
        "startTick": 49824,
        "endTick": 49842,
        "pitch": 65,
        "velocity": 115,
        "trackId": 3,
        "channel": 0
      },
      {
        "startTick": 49824,
        "endTick": 49844,
        "pitch": 68,
        "velocity": 120,
        "trackId": 3,
        "channel": 0
      },
      {
        "startTick": 49824,
        "endTick": 49848,
        "pitch": 61,
        "velocity": 119,
        "trackId": 3,
        "channel": 0
      },
      {
        "startTick": 49824,
        "endTick": 49850,
        "pitch": 73,
        "velocity": 118,
        "trackId": 3,
        "channel": 0
      },
      {
        "startTick": 49870,
        "endTick": 49900,
        "pitch": 37,
        "velocity": 118,
        "trackId": 4,
        "channel": 1
      },
      {
        "startTick": 49872,
        "endTick": 49882,
        "pitch": 65,
        "velocity": 107,
        "trackId": 3,
        "channel": 0
      },
      {
        "startTick": 49872,
        "endTick": 49888,
        "pitch": 37,
        "velocity": 115,
        "trackId": 5,
        "channel": 2
      },
      {
        "startTick": 49872,
        "endTick": 49888,
        "pitch": 44,
        "velocity": 112,
        "trackId": 5,
        "channel": 2
      },
      {
        "startTick": 49872,
        "endTick": 49888,
        "pitch": 49,
        "velocity": 104,
        "trackId": 5,
        "channel": 2
      },
      {
        "startTick": 49872,
        "endTick": 49890,
        "pitch": 73,
        "velocity": 120,
        "trackId": 3,
        "channel": 0
      },
      {
        "startTick": 49872,
        "endTick": 49892,
        "pitch": 68,
        "velocity": 120,
        "trackId": 3,
        "channel": 0
      },
      {
        "startTick": 49872,
        "endTick": 49906,
        "pitch": 61,
        "velocity": 117,
        "trackId": 3,
        "channel": 0
      },
      {
        "startTick": 49918,
        "endTick": 49948,
        "pitch": 36,
        "velocity": 117,
        "trackId": 4,
        "channel": 1
      },
      {
        "startTick": 49920,
        "endTick": 49934,
        "pitch": 67,
        "velocity": 117,
        "trackId": 3,
        "channel": 0
      },
      {
        "startTick": 49920,
        "endTick": 49934,
        "pitch": 43,
        "velocity": 112,
        "trackId": 5,
        "channel": 2
      },
      {
        "startTick": 49920,
        "endTick": 49936,
        "pitch": 64,
        "velocity": 121,
        "trackId": 3,
        "channel": 0
      },
      {
        "startTick": 49920,
        "endTick": 49936,
        "pitch": 48,
        "velocity": 111,
        "trackId": 5,
        "channel": 2
      },
      {
        "startTick": 49920,
        "endTick": 49938,
        "pitch": 60,
        "velocity": 118,
        "trackId": 3,
        "channel": 0
      },
      {
        "startTick": 49920,
        "endTick": 49938,
        "pitch": 72,
        "velocity": 117,
        "trackId": 3,
        "channel": 0
      },
      {
        "startTick": 49920,
        "endTick": 49938,
        "pitch": 36,
        "velocity": 111,
        "trackId": 5,
        "channel": 2
      },
      {
        "startTick": 49966,
        "endTick": 50014,
        "pitch": 36,
        "velocity": 114,
        "trackId": 4,
        "channel": 1
      },
      {
        "startTick": 49968,
        "endTick": 49986,
        "pitch": 72,
        "velocity": 105,
        "trackId": 3,
        "channel": 0
      },
      {
        "startTick": 49968,
        "endTick": 49986,
        "pitch": 48,
        "velocity": 100,
        "trackId": 5,
        "channel": 2
      },
      {
        "startTick": 49968,
        "endTick": 49988,
        "pitch": 67,
        "velocity": 108,
        "trackId": 3,
        "channel": 0
      },
      {
        "startTick": 49968,
        "endTick": 49990,
        "pitch": 36,
        "velocity": 104,
        "trackId": 5,
        "channel": 2
      },
      {
        "startTick": 49968,
        "endTick": 50008,
        "pitch": 60,
        "velocity": 112,
        "trackId": 3,
        "channel": 0
      },
      {
        "startTick": 50014,
        "endTick": 50098,
        "pitch": 35,
        "velocity": 120,
        "trackId": 4,
        "channel": 1
      },
      {
        "startTick": 50016,
        "endTick": 50032,
        "pitch": 42,
        "velocity": 114,
        "trackId": 5,
        "channel": 2
      },
      {
        "startTick": 50016,
        "endTick": 50036,
        "pitch": 66,
        "velocity": 113,
        "trackId": 3,
        "channel": 0
      },
      {
        "startTick": 50016,
        "endTick": 50038,
        "pitch": 47,
        "velocity": 115,
        "trackId": 5,
        "channel": 2
      },
      {
        "startTick": 50016,
        "endTick": 50056,
        "pitch": 35,
        "velocity": 115,
        "trackId": 5,
        "channel": 2
      },
      {
        "startTick": 50016,
        "endTick": 50060,
        "pitch": 63,
        "velocity": 123,
        "trackId": 3,
        "channel": 0
      },
      {
        "startTick": 50016,
        "endTick": 50066,
        "pitch": 71,
        "velocity": 119,
        "trackId": 3,
        "channel": 0
      },
      {
        "startTick": 50016,
        "endTick": 50100,
        "pitch": 59,
        "velocity": 120,
        "trackId": 3,
        "channel": 0
      },
      {
        "startTick": 50110,
        "endTick": 50138,
        "pitch": 35,
        "velocity": 124,
        "trackId": 12,
        "channel": 9
      },
      {
        "startTick": 50110,
        "endTick": 50150,
        "pitch": 36,
        "velocity": 125,
        "trackId": 4,
        "channel": 1
      },
      {
        "startTick": 50110,
        "endTick": 50150,
        "pitch": 49,
        "velocity": 123,
        "trackId": 12,
        "channel": 9
      },
      {
        "startTick": 50112,
        "endTick": 50130,
        "pitch": 36,
        "velocity": 122,
        "trackId": 13,
        "channel": 10
      },
      {
        "startTick": 50112,
        "endTick": 50130,
        "pitch": 48,
        "velocity": 121,
        "trackId": 13,
        "channel": 10
      },
      {
        "startTick": 50112,
        "endTick": 50132,
        "pitch": 64,
        "velocity": 123,
        "trackId": 3,
        "channel": 0
      },
      {
        "startTick": 50112,
        "endTick": 50132,
        "pitch": 67,
        "velocity": 123,
        "trackId": 3,
        "channel": 0
      },
      {
        "startTick": 50112,
        "endTick": 50136,
        "pitch": 60,
        "velocity": 123,
        "trackId": 3,
        "channel": 0
      },
      {
        "startTick": 50112,
        "endTick": 50138,
        "pitch": 60,
        "velocity": 116,
        "trackId": 5,
        "channel": 2
      },
      {
        "startTick": 50112,
        "endTick": 50140,
        "pitch": 48,
        "velocity": 116,
        "trackId": 5,
        "channel": 2
      },
      {
        "startTick": 50112,
        "endTick": 50142,
        "pitch": 72,
        "velocity": 123,
        "trackId": 3,
        "channel": 0
      },
      {
        "startTick": 50112,
        "endTick": 50144,
        "pitch": 64,
        "velocity": 116,
        "trackId": 5,
        "channel": 2
      },
      {
        "startTick": 50112,
        "endTick": 50146,
        "pitch": 67,
        "velocity": 116,
        "trackId": 5,
        "channel": 2
      },
      {
        "startTick": 50112,
        "endTick": 50160,
        "pitch": 48,
        "velocity": 123,
        "trackId": 3,
        "channel": 0
      },
      {
        "startTick": 50112,
        "endTick": 50160,
        "pitch": 72,
        "velocity": 116,
        "trackId": 5,
        "channel": 2
      },
      {
        "startTick": 50112,
        "endTick": 50178,
        "pitch": 60,
        "velocity": 122,
        "trackId": 11,
        "channel": 12
      },
      {
        "startTick": 50112,
        "endTick": 50178,
        "pitch": 72,
        "velocity": 124,
        "trackId": 11,
        "channel": 12
      },
      {
        "startTick": 50114,
        "endTick": 50134,
        "pitch": 81,
        "velocity": 111,
        "trackId": 12,
        "channel": 9
      },
      {
        "startTick": 50206,
        "endTick": 50248,
        "pitch": 29,
        "velocity": 125,
        "trackId": 4,
        "channel": 1
      },
      {
        "startTick": 50206,
        "endTick": 50250,
        "pitch": 35,
        "velocity": 124,
        "trackId": 12,
        "channel": 9
      },
      {
        "startTick": 50206,
        "endTick": 50252,
        "pitch": 52,
        "velocity": 123,
        "trackId": 12,
        "channel": 9
      },
      {
        "startTick": 50208,
        "endTick": 50226,
        "pitch": 36,
        "velocity": 123,
        "trackId": 13,
        "channel": 10
      },
      {
        "startTick": 50208,
        "endTick": 50226,
        "pitch": 48,
        "velocity": 121,
        "trackId": 13,
        "channel": 10
      },
      {
        "startTick": 50208,
        "endTick": 50230,
        "pitch": 69,
        "velocity": 123,
        "trackId": 3,
        "channel": 0
      },
      {
        "startTick": 50208,
        "endTick": 50232,
        "pitch": 53,
        "velocity": 123,
        "trackId": 3,
        "channel": 0
      },
      {
        "startTick": 50208,
        "endTick": 50232,
        "pitch": 60,
        "velocity": 116,
        "trackId": 5,
        "channel": 2
      },
      {
        "startTick": 50208,
        "endTick": 50236,
        "pitch": 72,
        "velocity": 123,
        "trackId": 3,
        "channel": 0
      },
      {
        "startTick": 50208,
        "endTick": 50236,
        "pitch": 77,
        "velocity": 123,
        "trackId": 3,
        "channel": 0
      },
      {
        "startTick": 50208,
        "endTick": 50238,
        "pitch": 65,
        "velocity": 123,
        "trackId": 3,
        "channel": 0
      },
      {
        "startTick": 50208,
        "endTick": 50238,
        "pitch": 41,
        "velocity": 116,
        "trackId": 5,
        "channel": 2
      },
      {
        "startTick": 50208,
        "endTick": 50238,
        "pitch": 65,
        "velocity": 116,
        "trackId": 5,
        "channel": 2
      },
      {
        "startTick": 50208,
        "endTick": 50240,
        "pitch": 69,
        "velocity": 116,
        "trackId": 5,
        "channel": 2
      },
      {
        "startTick": 50208,
        "endTick": 50240,
        "pitch": 72,
        "velocity": 116,
        "trackId": 5,
        "channel": 2
      },
      {
        "startTick": 50208,
        "endTick": 50242,
        "pitch": 41,
        "velocity": 123,
        "trackId": 3,
        "channel": 0
      },
      {
        "startTick": 50208,
        "endTick": 50256,
        "pitch": 77,
        "velocity": 116,
        "trackId": 5,
        "channel": 2
      },
      {
        "startTick": 50210,
        "endTick": 50272,
        "pitch": 77,
        "velocity": 122,
        "trackId": 11,
        "channel": 12
      },
      {
        "startTick": 50210,
        "endTick": 50280,
        "pitch": 65,
        "velocity": 124,
        "trackId": 11,
        "channel": 12
      },
      {
        "startTick": 50212,
        "endTick": 50234,
        "pitch": 81,
        "velocity": 117,
        "trackId": 12,
        "channel": 9
      },
      {
        "startTick": 50302,
        "endTick": 50330,
        "pitch": 35,
        "velocity": 124,
        "trackId": 12,
        "channel": 9
      },
      {
        "startTick": 50302,
        "endTick": 50348,
        "pitch": 49,
        "velocity": 122,
        "trackId": 12,
        "channel": 9
      },
      {
        "startTick": 50302,
        "endTick": 50352,
        "pitch": 36,
        "velocity": 125,
        "trackId": 4,
        "channel": 1
      },
      {
        "startTick": 50304,
        "endTick": 50318,
        "pitch": 64,
        "velocity": 123,
        "trackId": 3,
        "channel": 0
      },
      {
        "startTick": 50304,
        "endTick": 50322,
        "pitch": 67,
        "velocity": 123,
        "trackId": 3,
        "channel": 0
      },
      {
        "startTick": 50304,
        "endTick": 50322,
        "pitch": 36,
        "velocity": 122,
        "trackId": 13,
        "channel": 10
      },
      {
        "startTick": 50304,
        "endTick": 50322,
        "pitch": 48,
        "velocity": 121,
        "trackId": 13,
        "channel": 10
      },
      {
        "startTick": 50304,
        "endTick": 50324,
        "pitch": 60,
        "velocity": 119,
        "trackId": 5,
        "channel": 2
      },
      {
        "startTick": 50304,
        "endTick": 50326,
        "pitch": 48,
        "velocity": 123,
        "trackId": 3,
        "channel": 0
      },
      {
        "startTick": 50304,
        "endTick": 50332,
        "pitch": 72,
        "velocity": 123,
        "trackId": 3,
        "channel": 0
      },
      {
        "startTick": 50304,
        "endTick": 50332,
        "pitch": 64,
        "velocity": 118,
        "trackId": 5,
        "channel": 2
      },
      {
        "startTick": 50304,
        "endTick": 50336,
        "pitch": 67,
        "velocity": 120,
        "trackId": 5,
        "channel": 2
      },
      {
        "startTick": 50304,
        "endTick": 50338,
        "pitch": 36,
        "velocity": 123,
        "trackId": 3,
        "channel": 0
      },
      {
        "startTick": 50304,
        "endTick": 50340,
        "pitch": 48,
        "velocity": 117,
        "trackId": 5,
        "channel": 2
      },
      {
        "startTick": 50308,
        "endTick": 50368,
        "pitch": 60,
        "velocity": 120,
        "trackId": 11,
        "channel": 12
      },
      {
        "startTick": 50312,
        "endTick": 50332,
        "pitch": 81,
        "velocity": 117,
        "trackId": 12,
        "channel": 9
      },
      {
        "startTick": 50312,
        "endTick": 50364,
        "pitch": 72,
        "velocity": 121,
        "trackId": 11,
        "channel": 12
      },
      {
        "startTick": 50398,
        "endTick": 50494,
        "pitch": 35,
        "velocity": 124,
        "trackId": 12,
        "channel": 9
      },
      {
        "startTick": 50398,
        "endTick": 50516,
        "pitch": 57,
        "velocity": 123,
        "trackId": 12,
        "channel": 9
      },
      {
        "startTick": 50398,
        "endTick": 50526,
        "pitch": 41,
        "velocity": 125,
        "trackId": 4,
        "channel": 1
      },
      {
        "startTick": 50398,
        "endTick": 50536,
        "pitch": 29,
        "velocity": 125,
        "trackId": 4,
        "channel": 1
      },
      {
        "startTick": 50400,
        "endTick": 50420,
        "pitch": 36,
        "velocity": 122,
        "trackId": 13,
        "channel": 10
      },
      {
        "startTick": 50400,
        "endTick": 50420,
        "pitch": 48,
        "velocity": 122,
        "trackId": 13,
        "channel": 10
      },
      {
        "startTick": 50400,
        "endTick": 50490,
        "pitch": 65,
        "velocity": 119,
        "trackId": 5,
        "channel": 2
      },
      {
        "startTick": 50400,
        "endTick": 50496,
        "pitch": 77,
        "velocity": 122,
        "trackId": 5,
        "channel": 2
      },
      {
        "startTick": 50400,
        "endTick": 50498,
        "pitch": 41,
        "velocity": 114,
        "trackId": 5,
        "channel": 2
      },
      {
        "startTick": 50400,
        "endTick": 50498,
        "pitch": 69,
        "velocity": 121,
        "trackId": 5,
        "channel": 2
      },
      {
        "startTick": 50400,
        "endTick": 50498,
        "pitch": 72,
        "velocity": 119,
        "trackId": 5,
        "channel": 2
      },
      {
        "startTick": 50400,
        "endTick": 50504,
        "pitch": 77,
        "velocity": 123,
        "trackId": 3,
        "channel": 0
      },
      {
        "startTick": 50400,
        "endTick": 50506,
        "pitch": 72,
        "velocity": 123,
        "trackId": 3,
        "channel": 0
      },
      {
        "startTick": 50400,
        "endTick": 50510,
        "pitch": 69,
        "velocity": 123,
        "trackId": 3,
        "channel": 0
      },
      {
        "startTick": 50400,
        "endTick": 50512,
        "pitch": 65,
        "velocity": 123,
        "trackId": 3,
        "channel": 0
      },
      {
        "startTick": 50400,
        "endTick": 50536,
        "pitch": 29,
        "velocity": 123,
        "trackId": 3,
        "channel": 0
      },
      {
        "startTick": 50400,
        "endTick": 50542,
        "pitch": 41,
        "velocity": 123,
        "trackId": 3,
        "channel": 0
      },
      {
        "startTick": 50408,
        "endTick": 50432,
        "pitch": 81,
        "velocity": 119,
        "trackId": 12,
        "channel": 9
      },
      {
        "startTick": 50408,
        "endTick": 50538,
        "pitch": 65,
        "velocity": 124,
        "trackId": 11,
        "channel": 12
      },
      {
        "startTick": 50408,
        "endTick": 50544,
        "pitch": 77,
        "velocity": 123,
        "trackId": 11,
        "channel": 12
      },
      {
        "startTick": 50544,
        "endTick": 50558,
        "pitch": 60,
        "velocity": 117,
        "trackId": 3,
        "channel": 0
      },
      {
        "startTick": 50544,
        "endTick": 50558,
        "pitch": 64,
        "velocity": 117,
        "trackId": 3,
        "channel": 0
      },
      {
        "startTick": 50544,
        "endTick": 50558,
        "pitch": 48,
        "velocity": 111,
        "trackId": 13,
        "channel": 10
      },
      {
        "startTick": 50544,
        "endTick": 50562,
        "pitch": 67,
        "velocity": 117,
        "trackId": 3,
        "channel": 0
      },
      {
        "startTick": 50544,
        "endTick": 50562,
        "pitch": 36,
        "velocity": 114,
        "trackId": 13,
        "channel": 10
      },
      {
        "startTick": 50544,
        "endTick": 50564,
        "pitch": 60,
        "velocity": 121,
        "trackId": 7,
        "channel": 6
      },
      {
        "startTick": 50544,
        "endTick": 50564,
        "pitch": 67,
        "velocity": 121,
        "trackId": 7,
        "channel": 6
      },
      {
        "startTick": 50544,
        "endTick": 50566,
        "pitch": 64,
        "velocity": 119,
        "trackId": 7,
        "channel": 6
      },
      {
        "startTick": 50546,
        "endTick": 50566,
        "pitch": 81,
        "velocity": 104,
        "trackId": 12,
        "channel": 9
      },
      {
        "startTick": 50590,
        "endTick": 50610,
        "pitch": 81,
        "velocity": 108,
        "trackId": 12,
        "channel": 9
      },
      {
        "startTick": 50592,
        "endTick": 50602,
        "pitch": 60,
        "velocity": 118,
        "trackId": 3,
        "channel": 0
      },
      {
        "startTick": 50592,
        "endTick": 50606,
        "pitch": 36,
        "velocity": 116,
        "trackId": 13,
        "channel": 10
      },
      {
        "startTick": 50592,
        "endTick": 50606,
        "pitch": 48,
        "velocity": 112,
        "trackId": 13,
        "channel": 10
      },
      {
        "startTick": 50592,
        "endTick": 50610,
        "pitch": 60,
        "velocity": 120,
        "trackId": 7,
        "channel": 6
      },
      {
        "startTick": 50592,
        "endTick": 50610,
        "pitch": 64,
        "velocity": 119,
        "trackId": 7,
        "channel": 6
      },
      {
        "startTick": 50592,
        "endTick": 50614,
        "pitch": 67,
        "velocity": 120,
        "trackId": 7,
        "channel": 6
      },
      {
        "startTick": 50592,
        "endTick": 50632,
        "pitch": 67,
        "velocity": 118,
        "trackId": 3,
        "channel": 0
      },
      {
        "startTick": 50592,
        "endTick": 50640,
        "pitch": 64,
        "velocity": 118,
        "trackId": 3,
        "channel": 0
      },
      {
        "startTick": 50640,
        "endTick": 50654,
        "pitch": 65,
        "velocity": 118,
        "trackId": 7,
        "channel": 6
      },
      {
        "startTick": 50640,
        "endTick": 50654,
        "pitch": 48,
        "velocity": 118,
        "trackId": 13,
        "channel": 10
      },
      {
        "startTick": 50640,
        "endTick": 50656,
        "pitch": 60,
        "velocity": 119,
        "trackId": 7,
        "channel": 6
      },
      {
        "startTick": 50640,
        "endTick": 50656,
        "pitch": 69,
        "velocity": 119,
        "trackId": 7,
        "channel": 6
      },
      {
        "startTick": 50640,
        "endTick": 50658,
        "pitch": 60,
        "velocity": 116,
        "trackId": 3,
        "channel": 0
      },
      {
        "startTick": 50640,
        "endTick": 50658,
        "pitch": 81,
        "velocity": 113,
        "trackId": 12,
        "channel": 9
      },
      {
        "startTick": 50640,
        "endTick": 50658,
        "pitch": 36,
        "velocity": 122,
        "trackId": 13,
        "channel": 10
      },
      {
        "startTick": 50640,
        "endTick": 50688,
        "pitch": 65,
        "velocity": 116,
        "trackId": 3,
        "channel": 0
      },
      {
        "startTick": 50640,
        "endTick": 50698,
        "pitch": 69,
        "velocity": 116,
        "trackId": 3,
        "channel": 0
      },
      {
        "startTick": 50686,
        "endTick": 50706,
        "pitch": 81,
        "velocity": 116,
        "trackId": 12,
        "channel": 9
      },
      {
        "startTick": 50688,
        "endTick": 50702,
        "pitch": 70,
        "velocity": 117,
        "trackId": 3,
        "channel": 0
      },
      {
        "startTick": 50688,
        "endTick": 50702,
        "pitch": 67,
        "velocity": 119,
        "trackId": 7,
        "channel": 6
      },
      {
        "startTick": 50688,
        "endTick": 50704,
        "pitch": 60,
        "velocity": 117,
        "trackId": 7,
        "channel": 6
      },
      {
        "startTick": 50688,
        "endTick": 50706,
        "pitch": 36,
        "velocity": 120,
        "trackId": 13,
        "channel": 10
      },
      {
        "startTick": 50688,
        "endTick": 50706,
        "pitch": 48,
        "velocity": 117,
        "trackId": 13,
        "channel": 10
      },
      {
        "startTick": 50688,
        "endTick": 50712,
        "pitch": 70,
        "velocity": 120,
        "trackId": 7,
        "channel": 6
      },
      {
        "startTick": 50688,
        "endTick": 50730,
        "pitch": 60,
        "velocity": 117,
        "trackId": 3,
        "channel": 0
      },
      {
        "startTick": 50688,
        "endTick": 50736,
        "pitch": 67,
        "velocity": 117,
        "trackId": 3,
        "channel": 0
      },
      {
        "startTick": 50732,
        "endTick": 50754,
        "pitch": 81,
        "velocity": 118,
        "trackId": 12,
        "channel": 9
      },
      {
        "startTick": 50736,
        "endTick": 50754,
        "pitch": 65,
        "velocity": 120,
        "trackId": 7,
        "channel": 6
      },
      {
        "startTick": 50736,
        "endTick": 50754,
        "pitch": 69,
        "velocity": 119,
        "trackId": 7,
        "channel": 6
      },
      {
        "startTick": 50736,
        "endTick": 50754,
        "pitch": 36,
        "velocity": 122,
        "trackId": 13,
        "channel": 10
      },
      {
        "startTick": 50736,
        "endTick": 50754,
        "pitch": 48,
        "velocity": 119,
        "trackId": 13,
        "channel": 10
      },
      {
        "startTick": 50736,
        "endTick": 50756,
        "pitch": 60,
        "velocity": 119,
        "trackId": 7,
        "channel": 6
      },
      {
        "startTick": 50736,
        "endTick": 50784,
        "pitch": 65,
        "velocity": 118,
        "trackId": 3,
        "channel": 0
      },
      {
        "startTick": 50736,
        "endTick": 50800,
        "pitch": 69,
        "velocity": 118,
        "trackId": 3,
        "channel": 0
      },
      {
        "startTick": 50784,
        "endTick": 50792,
        "pitch": 67,
        "velocity": 123,
        "trackId": 3,
        "channel": 0
      },
      {
        "startTick": 50784,
        "endTick": 50802,
        "pitch": 48,
        "velocity": 121,
        "trackId": 13,
        "channel": 10
      },
      {
        "startTick": 50784,
        "endTick": 50804,
        "pitch": 36,
        "velocity": 120,
        "trackId": 13,
        "channel": 10
      },
      {
        "startTick": 50784,
        "endTick": 50808,
        "pitch": 81,
        "velocity": 120,
        "trackId": 12,
        "channel": 9
      },
      {
        "startTick": 50784,
        "endTick": 50810,
        "pitch": 64,
        "velocity": 121,
        "trackId": 7,
        "channel": 6
      },
      {
        "startTick": 50784,
        "endTick": 50810,
        "pitch": 67,
        "velocity": 122,
        "trackId": 7,
        "channel": 6
      },
      {
        "startTick": 50784,
        "endTick": 50812,
        "pitch": 60,
        "velocity": 121,
        "trackId": 7,
        "channel": 6
      },
      {
        "startTick": 50784,
        "endTick": 50832,
        "pitch": 64,
        "velocity": 123,
        "trackId": 3,
        "channel": 0
      },
      {
        "startTick": 50830,
        "endTick": 50848,
        "pitch": 49,
        "velocity": 123,
        "trackId": 12,
        "channel": 9
      },
      {
        "startTick": 50830,
        "endTick": 50850,
        "pitch": 35,
        "velocity": 122,
        "trackId": 12,
        "channel": 9
      },
      {
        "startTick": 50830,
        "endTick": 50856,
        "pitch": 29,
        "velocity": 125,
        "trackId": 4,
        "channel": 1
      },
      {
        "startTick": 50830,
        "endTick": 50856,
        "pitch": 41,
        "velocity": 125,
        "trackId": 4,
        "channel": 1
      },
      {
        "startTick": 50832,
        "endTick": 50848,
        "pitch": 65,
        "velocity": 123,
        "trackId": 3,
        "channel": 0
      },
      {
        "startTick": 50832,
        "endTick": 50852,
        "pitch": 69,
        "velocity": 123,
        "trackId": 3,
        "channel": 0
      },
      {
        "startTick": 50832,
        "endTick": 50854,
        "pitch": 41,
        "velocity": 123,
        "trackId": 5,
        "channel": 2
      },
      {
        "startTick": 50832,
        "endTick": 50856,
        "pitch": 72,
        "velocity": 123,
        "trackId": 3,
        "channel": 0
      },
      {
        "startTick": 50832,
        "endTick": 50856,
        "pitch": 77,
        "velocity": 123,
        "trackId": 3,
        "channel": 0
      },
      {
        "startTick": 50832,
        "endTick": 50858,
        "pitch": 65,
        "velocity": 119,
        "trackId": 5,
        "channel": 2
      },
      {
        "startTick": 50832,
        "endTick": 50860,
        "pitch": 29,
        "velocity": 118,
        "trackId": 5,
        "channel": 2
      },
      {
        "startTick": 50832,
        "endTick": 50862,
        "pitch": 53,
        "velocity": 123,
        "trackId": 3,
        "channel": 0
      },
      {
        "startTick": 50832,
        "endTick": 50864,
        "pitch": 41,
        "velocity": 123,
        "trackId": 3,
        "channel": 0
      },
      {
        "startTick": 50832,
        "endTick": 50864,
        "pitch": 72,
        "velocity": 119,
        "trackId": 5,
        "channel": 2
      },
      {
        "startTick": 50832,
        "endTick": 50864,
        "pitch": 77,
        "velocity": 118,
        "trackId": 5,
        "channel": 2
      },
      {
        "startTick": 50838,
        "endTick": 50864,
        "pitch": 77,
        "velocity": 120,
        "trackId": 11,
        "channel": 12
      },
      {
        "startTick": 50838,
        "endTick": 50866,
        "pitch": 65,
        "velocity": 123,
        "trackId": 11,
        "channel": 12
      },
      {
        "startTick": 50878,
        "endTick": 50900,
        "pitch": 35,
        "velocity": 124,
        "trackId": 12,
        "channel": 9
      },
      {
        "startTick": 50878,
        "endTick": 50900,
        "pitch": 57,
        "velocity": 122,
        "trackId": 12,
        "channel": 9
      },
      {
        "startTick": 50878,
        "endTick": 50902,
        "pitch": 41,
        "velocity": 125,
        "trackId": 4,
        "channel": 1
      },
      {
        "startTick": 50878,
        "endTick": 50904,
        "pitch": 29,
        "velocity": 124,
        "trackId": 4,
        "channel": 1
      },
      {
        "startTick": 50880,
        "endTick": 50898,
        "pitch": 65,
        "velocity": 123,
        "trackId": 3,
        "channel": 0
      },
      {
        "startTick": 50880,
        "endTick": 50900,
        "pitch": 69,
        "velocity": 123,
        "trackId": 3,
        "channel": 0
      },
      {
        "startTick": 50880,
        "endTick": 50902,
        "pitch": 77,
        "velocity": 123,
        "trackId": 3,
        "channel": 0
      },
      {
        "startTick": 50880,
        "endTick": 50904,
        "pitch": 72,
        "velocity": 123,
        "trackId": 3,
        "channel": 0
      },
      {
        "startTick": 50880,
        "endTick": 50908,
        "pitch": 41,
        "velocity": 120,
        "trackId": 3,
        "channel": 0
      },
      {
        "startTick": 50880,
        "endTick": 50908,
        "pitch": 65,
        "velocity": 119,
        "trackId": 5,
        "channel": 2
      },
      {
        "startTick": 50880,
        "endTick": 50910,
        "pitch": 53,
        "velocity": 123,
        "trackId": 3,
        "channel": 0
      },
      {
        "startTick": 50880,
        "endTick": 50910,
        "pitch": 77,
        "velocity": 117,
        "trackId": 5,
        "channel": 2
      },
      {
        "startTick": 50880,
        "endTick": 50912,
        "pitch": 29,
        "velocity": 116,
        "trackId": 5,
        "channel": 2
      },
      {
        "startTick": 50880,
        "endTick": 50912,
        "pitch": 41,
        "velocity": 116,
        "trackId": 5,
        "channel": 2
      },
      {
        "startTick": 50880,
        "endTick": 50914,
        "pitch": 72,
        "velocity": 119,
        "trackId": 5,
        "channel": 2
      },
      {
        "startTick": 50886,
        "endTick": 50914,
        "pitch": 77,
        "velocity": 120,
        "trackId": 11,
        "channel": 12
      },
      {
        "startTick": 50888,
        "endTick": 50914,
        "pitch": 65,
        "velocity": 121,
        "trackId": 11,
        "channel": 12
      },
      {
        "startTick": 50926,
        "endTick": 51024,
        "pitch": 35,
        "velocity": 124,
        "trackId": 12,
        "channel": 9
      },
      {
        "startTick": 50926,
        "endTick": 51024,
        "pitch": 49,
        "velocity": 123,
        "trackId": 12,
        "channel": 9
      },
      {
        "startTick": 50926,
        "endTick": 51042,
        "pitch": 41,
        "velocity": 125,
        "trackId": 4,
        "channel": 1
      },
      {
        "startTick": 50926,
        "endTick": 51074,
        "pitch": 29,
        "velocity": 125,
        "trackId": 4,
        "channel": 1
      },
      {
        "startTick": 50928,
        "endTick": 50998,
        "pitch": 77,
        "velocity": 123,
        "trackId": 3,
        "channel": 0
      },
      {
        "startTick": 50928,
        "endTick": 51000,
        "pitch": 72,
        "velocity": 123,
        "trackId": 3,
        "channel": 0
      },
      {
        "startTick": 50928,
        "endTick": 51006,
        "pitch": 53,
        "velocity": 123,
        "trackId": 3,
        "channel": 0
      },
      {
        "startTick": 50928,
        "endTick": 51006,
        "pitch": 65,
        "velocity": 123,
        "trackId": 3,
        "channel": 0
      },
      {
        "startTick": 50928,
        "endTick": 51006,
        "pitch": 69,
        "velocity": 123,
        "trackId": 3,
        "channel": 0
      },
      {
        "startTick": 50928,
        "endTick": 51020,
        "pitch": 41,
        "velocity": 123,
        "trackId": 3,
        "channel": 0
      },
      {
        "startTick": 50928,
        "endTick": 51032,
        "pitch": 77,
        "velocity": 119,
        "trackId": 5,
        "channel": 2
      },
      {
        "startTick": 50928,
        "endTick": 51036,
        "pitch": 65,
        "velocity": 123,
        "trackId": 5,
        "channel": 2
      },
      {
        "startTick": 50928,
        "endTick": 51036,
        "pitch": 72,
        "velocity": 116,
        "trackId": 5,
        "channel": 2
      },
      {
        "startTick": 50928,
        "endTick": 51064,
        "pitch": 29,
        "velocity": 113,
        "trackId": 5,
        "channel": 2
      },
      {
        "startTick": 50928,
        "endTick": 51064,
        "pitch": 41,
        "velocity": 122,
        "trackId": 5,
        "channel": 2
      },
      {
        "startTick": 50936,
        "endTick": 51046,
        "pitch": 77,
        "velocity": 123,
        "trackId": 11,
        "channel": 12
      },
      {
        "startTick": 50942,
        "endTick": 51046,
        "pitch": 65,
        "velocity": 123,
        "trackId": 11,
        "channel": 12
      },
      {
        "startTick": 51070,
        "endTick": 51112,
        "pitch": 35,
        "velocity": 124,
        "trackId": 12,
        "channel": 9
      },
      {
        "startTick": 51070,
        "endTick": 51116,
        "pitch": 43,
        "velocity": 124,
        "trackId": 12,
        "channel": 9
      },
      {
        "startTick": 51070,
        "endTick": 51118,
        "pitch": 36,
        "velocity": 125,
        "trackId": 4,
        "channel": 1
      },
      {
        "startTick": 51072,
        "endTick": 51090,
        "pitch": 60,
        "velocity": 119,
        "trackId": 5,
        "channel": 2
      },
      {
        "startTick": 51072,
        "endTick": 51090,
        "pitch": 36,
        "velocity": 123,
        "trackId": 13,
        "channel": 10
      },
      {
        "startTick": 51072,
        "endTick": 51090,
        "pitch": 48,
        "velocity": 121,
        "trackId": 13,
        "channel": 10
      },
      {
        "startTick": 51072,
        "endTick": 51092,
        "pitch": 60,
        "velocity": 123,
        "trackId": 3,
        "channel": 0
      },
      {
        "startTick": 51072,
        "endTick": 51096,
        "pitch": 64,
        "velocity": 123,
        "trackId": 3,
        "channel": 0
      },
      {
        "startTick": 51072,
        "endTick": 51100,
        "pitch": 67,
        "velocity": 123,
        "trackId": 3,
        "channel": 0
      },
      {
        "startTick": 51072,
        "endTick": 51104,
        "pitch": 48,
        "velocity": 123,
        "trackId": 3,
        "channel": 0
      },
      {
        "startTick": 51072,
        "endTick": 51108,
        "pitch": 72,
        "velocity": 123,
        "trackId": 3,
        "channel": 0
      },
      {
        "startTick": 51072,
        "endTick": 51110,
        "pitch": 72,
        "velocity": 120,
        "trackId": 5,
        "channel": 2
      },
      {
        "startTick": 51072,
        "endTick": 51112,
        "pitch": 36,
        "velocity": 123,
        "trackId": 3,
        "channel": 0
      },
      {
        "startTick": 51072,
        "endTick": 51122,
        "pitch": 36,
        "velocity": 120,
        "trackId": 5,
        "channel": 2
      },
      {
        "startTick": 51072,
        "endTick": 51140,
        "pitch": 60,
        "velocity": 121,
        "trackId": 11,
        "channel": 12
      },
      {
        "startTick": 51076,
        "endTick": 51102,
        "pitch": 81,
        "velocity": 122,
        "trackId": 12,
        "channel": 9
      },
      {
        "startTick": 51078,
        "endTick": 51132,
        "pitch": 72,
        "velocity": 123,
        "trackId": 11,
        "channel": 12
      },
      {
        "startTick": 51166,
        "endTick": 51202,
        "pitch": 35,
        "velocity": 124,
        "trackId": 12,
        "channel": 9
      },
      {
        "startTick": 51166,
        "endTick": 51208,
        "pitch": 43,
        "velocity": 124,
        "trackId": 12,
        "channel": 9
      },
      {
        "startTick": 51166,
        "endTick": 51214,
        "pitch": 29,
        "velocity": 125,
        "trackId": 4,
        "channel": 1
      },
      {
        "startTick": 51166,
        "endTick": 51226,
        "pitch": 41,
        "velocity": 125,
        "trackId": 4,
        "channel": 1
      },
      {
        "startTick": 51168,
        "endTick": 51184,
        "pitch": 41,
        "velocity": 123,
        "trackId": 3,
        "channel": 0
      },
      {
        "startTick": 51168,
        "endTick": 51186,
        "pitch": 36,
        "velocity": 122,
        "trackId": 13,
        "channel": 10
      },
      {
        "startTick": 51168,
        "endTick": 51186,
        "pitch": 48,
        "velocity": 122,
        "trackId": 13,
        "channel": 10
      },
      {
        "startTick": 51168,
        "endTick": 51192,
        "pitch": 29,
        "velocity": 123,
        "trackId": 3,
        "channel": 0
      },
      {
        "startTick": 51168,
        "endTick": 51194,
        "pitch": 65,
        "velocity": 123,
        "trackId": 3,
        "channel": 0
      },
      {
        "startTick": 51168,
        "endTick": 51196,
        "pitch": 72,
        "velocity": 123,
        "trackId": 3,
        "channel": 0
      },
      {
        "startTick": 51168,
        "endTick": 51196,
        "pitch": 77,
        "velocity": 123,
        "trackId": 3,
        "channel": 0
      },
      {
        "startTick": 51168,
        "endTick": 51198,
        "pitch": 65,
        "velocity": 120,
        "trackId": 5,
        "channel": 2
      },
      {
        "startTick": 51168,
        "endTick": 51200,
        "pitch": 69,
        "velocity": 123,
        "trackId": 3,
        "channel": 0
      },
      {
        "startTick": 51168,
        "endTick": 51202,
        "pitch": 77,
        "velocity": 122,
        "trackId": 5,
        "channel": 2
      },
      {
        "startTick": 51168,
        "endTick": 51204,
        "pitch": 69,
        "velocity": 120,
        "trackId": 5,
        "channel": 2
      },
      {
        "startTick": 51168,
        "endTick": 51204,
        "pitch": 72,
        "velocity": 118,
        "trackId": 5,
        "channel": 2
      },
      {
        "startTick": 51168,
        "endTick": 51210,
        "pitch": 29,
        "velocity": 119,
        "trackId": 5,
        "channel": 2
      },
      {
        "startTick": 51168,
        "endTick": 51210,
        "pitch": 41,
        "velocity": 120,
        "trackId": 5,
        "channel": 2
      },
      {
        "startTick": 51174,
        "endTick": 51198,
        "pitch": 81,
        "velocity": 118,
        "trackId": 12,
        "channel": 9
      },
      {
        "startTick": 51178,
        "endTick": 51228,
        "pitch": 77,
        "velocity": 123,
        "trackId": 11,
        "channel": 12
      },
      {
        "startTick": 51178,
        "endTick": 51236,
        "pitch": 65,
        "velocity": 124,
        "trackId": 11,
        "channel": 12
      },
      {
        "startTick": 51262,
        "endTick": 51300,
        "pitch": 43,
        "velocity": 124,
        "trackId": 12,
        "channel": 9
      },
      {
        "startTick": 51262,
        "endTick": 51302,
        "pitch": 35,
        "velocity": 124,
        "trackId": 12,
        "channel": 9
      },
      {
        "startTick": 51262,
        "endTick": 51306,
        "pitch": 36,
        "velocity": 125,
        "trackId": 4,
        "channel": 1
      },
      {
        "startTick": 51264,
        "endTick": 51278,
        "pitch": 60,
        "velocity": 123,
        "trackId": 3,
        "channel": 0
      },
      {
        "startTick": 51264,
        "endTick": 51278,
        "pitch": 64,
        "velocity": 123,
        "trackId": 3,
        "channel": 0
      },
      {
        "startTick": 51264,
        "endTick": 51282,
        "pitch": 67,
        "velocity": 123,
        "trackId": 3,
        "channel": 0
      },
      {
        "startTick": 51264,
        "endTick": 51282,
        "pitch": 36,
        "velocity": 122,
        "trackId": 13,
        "channel": 10
      },
      {
        "startTick": 51264,
        "endTick": 51284,
        "pitch": 48,
        "velocity": 121,
        "trackId": 13,
        "channel": 10
      },
      {
        "startTick": 51264,
        "endTick": 51286,
        "pitch": 48,
        "velocity": 123,
        "trackId": 3,
        "channel": 0
      },
      {
        "startTick": 51264,
        "endTick": 51286,
        "pitch": 60,
        "velocity": 121,
        "trackId": 5,
        "channel": 2
      },
      {
        "startTick": 51264,
        "endTick": 51290,
        "pitch": 36,
        "velocity": 123,
        "trackId": 3,
        "channel": 0
      },
      {
        "startTick": 51264,
        "endTick": 51290,
        "pitch": 64,
        "velocity": 119,
        "trackId": 5,
        "channel": 2
      },
      {
        "startTick": 51264,
        "endTick": 51292,
        "pitch": 67,
        "velocity": 122,
        "trackId": 5,
        "channel": 2
      },
      {
        "startTick": 51264,
        "endTick": 51294,
        "pitch": 72,
        "velocity": 123,
        "trackId": 3,
        "channel": 0
      },
      {
        "startTick": 51264,
        "endTick": 51298,
        "pitch": 72,
        "velocity": 121,
        "trackId": 5,
        "channel": 2
      },
      {
        "startTick": 51264,
        "endTick": 51316,
        "pitch": 36,
        "velocity": 118,
        "trackId": 5,
        "channel": 2
      },
      {
        "startTick": 51268,
        "endTick": 51294,
        "pitch": 81,
        "velocity": 116,
        "trackId": 12,
        "channel": 9
      },
      {
        "startTick": 51268,
        "endTick": 51322,
        "pitch": 72,
        "velocity": 124,
        "trackId": 11,
        "channel": 12
      },
      {
        "startTick": 51268,
        "endTick": 51330,
        "pitch": 60,
        "velocity": 122,
        "trackId": 11,
        "channel": 12
      },
      {
        "startTick": 51358,
        "endTick": 51490,
        "pitch": 41,
        "velocity": 125,
        "trackId": 4,
        "channel": 1
      },
      {
        "startTick": 51358,
        "endTick": 51492,
        "pitch": 29,
        "velocity": 125,
        "trackId": 4,
        "channel": 1
      },
      {
        "startTick": 51358,
        "endTick": 51560,
        "pitch": 49,
        "velocity": 123,
        "trackId": 12,
        "channel": 9
      },
      {
        "startTick": 51358,
        "endTick": 51568,
        "pitch": 35,
        "velocity": 124,
        "trackId": 12,
        "channel": 9
      },
      {
        "startTick": 51360,
        "endTick": 51378,
        "pitch": 48,
        "velocity": 120,
        "trackId": 13,
        "channel": 10
      },
      {
        "startTick": 51360,
        "endTick": 51382,
        "pitch": 36,
        "velocity": 121,
        "trackId": 13,
        "channel": 10
      },
      {
        "startTick": 51360,
        "endTick": 51448,
        "pitch": 77,
        "velocity": 123,
        "trackId": 3,
        "channel": 0
      },
      {
        "startTick": 51360,
        "endTick": 51454,
        "pitch": 72,
        "velocity": 123,
        "trackId": 3,
        "channel": 0
      },
      {
        "startTick": 51360,
        "endTick": 51460,
        "pitch": 69,
        "velocity": 123,
        "trackId": 3,
        "channel": 0
      },
      {
        "startTick": 51360,
        "endTick": 51462,
        "pitch": 65,
        "velocity": 123,
        "trackId": 3,
        "channel": 0
      },
      {
        "startTick": 51360,
        "endTick": 51480,
        "pitch": 41,
        "velocity": 123,
        "trackId": 3,
        "channel": 0
      },
      {
        "startTick": 51360,
        "endTick": 51482,
        "pitch": 29,
        "velocity": 123,
        "trackId": 3,
        "channel": 0
      },
      {
        "startTick": 51360,
        "endTick": 51486,
        "pitch": 65,
        "velocity": 119,
        "trackId": 5,
        "channel": 2
      },
      {
        "startTick": 51360,
        "endTick": 51486,
        "pitch": 72,
        "velocity": 122,
        "trackId": 5,
        "channel": 2
      },
      {
        "startTick": 51360,
        "endTick": 51488,
        "pitch": 69,
        "velocity": 121,
        "trackId": 5,
        "channel": 2
      },
      {
        "startTick": 51360,
        "endTick": 51488,
        "pitch": 77,
        "velocity": 123,
        "trackId": 5,
        "channel": 2
      },
      {
        "startTick": 51360,
        "endTick": 51492,
        "pitch": 29,
        "velocity": 117,
        "trackId": 5,
        "channel": 2
      },
      {
        "startTick": 51360,
        "endTick": 51492,
        "pitch": 41,
        "velocity": 123,
        "trackId": 5,
        "channel": 2
      },
      {
        "startTick": 51366,
        "endTick": 51390,
        "pitch": 81,
        "velocity": 118,
        "trackId": 12,
        "channel": 9
      },
      {
        "startTick": 51366,
        "endTick": 51478,
        "pitch": 77,
        "velocity": 123,
        "trackId": 11,
        "channel": 12
      },
      {
        "startTick": 51366,
        "endTick": 51482,
        "pitch": 65,
        "velocity": 123,
        "trackId": 11,
        "channel": 12
      },
      {
        "startTick": 51496,
        "endTick": 51518,
        "pitch": 81,
        "velocity": 100,
        "trackId": 12,
        "channel": 9
      },
      {
        "startTick": 51504,
        "endTick": 51518,
        "pitch": 36,
        "velocity": 111,
        "trackId": 13,
        "channel": 10
      },
      {
        "startTick": 51504,
        "endTick": 51522,
        "pitch": 48,
        "velocity": 105,
        "trackId": 13,
        "channel": 10
      },
      {
        "startTick": 51504,
        "endTick": 51524,
        "pitch": 60,
        "velocity": 113,
        "trackId": 3,
        "channel": 0
      },
      {
        "startTick": 51504,
        "endTick": 51526,
        "pitch": 64,
        "velocity": 113,
        "trackId": 3,
        "channel": 0
      },
      {
        "startTick": 51504,
        "endTick": 51526,
        "pitch": 60,
        "velocity": 116,
        "trackId": 7,
        "channel": 6
      },
      {
        "startTick": 51504,
        "endTick": 51528,
        "pitch": 64,
        "velocity": 115,
        "trackId": 7,
        "channel": 6
      },
      {
        "startTick": 51504,
        "endTick": 51528,
        "pitch": 67,
        "velocity": 117,
        "trackId": 7,
        "channel": 6
      },
      {
        "startTick": 51504,
        "endTick": 51534,
        "pitch": 67,
        "velocity": 113,
        "trackId": 3,
        "channel": 0
      },
      {
        "startTick": 51548,
        "endTick": 51568,
        "pitch": 81,
        "velocity": 107,
        "trackId": 12,
        "channel": 9
      },
      {
        "startTick": 51552,
        "endTick": 51568,
        "pitch": 48,
        "velocity": 110,
        "trackId": 13,
        "channel": 10
      },
      {
        "startTick": 51552,
        "endTick": 51570,
        "pitch": 36,
        "velocity": 113,
        "trackId": 13,
        "channel": 10
      },
      {
        "startTick": 51552,
        "endTick": 51574,
        "pitch": 64,
        "velocity": 113,
        "trackId": 7,
        "channel": 6
      },
      {
        "startTick": 51552,
        "endTick": 51578,
        "pitch": 60,
        "velocity": 115,
        "trackId": 7,
        "channel": 6
      },
      {
        "startTick": 51552,
        "endTick": 51582,
        "pitch": 64,
        "velocity": 113,
        "trackId": 3,
        "channel": 0
      },
      {
        "startTick": 51552,
        "endTick": 51588,
        "pitch": 67,
        "velocity": 116,
        "trackId": 7,
        "channel": 6
      },
      {
        "startTick": 51552,
        "endTick": 51594,
        "pitch": 67,
        "velocity": 113,
        "trackId": 3,
        "channel": 0
      },
      {
        "startTick": 51594,
        "endTick": 51612,
        "pitch": 81,
        "velocity": 114,
        "trackId": 12,
        "channel": 9
      },
      {
        "startTick": 51600,
        "endTick": 51618,
        "pitch": 48,
        "velocity": 120,
        "trackId": 13,
        "channel": 10
      },
      {
        "startTick": 51600,
        "endTick": 51620,
        "pitch": 65,
        "velocity": 117,
        "trackId": 7,
        "channel": 6
      },
      {
        "startTick": 51600,
        "endTick": 51620,
        "pitch": 36,
        "velocity": 122,
        "trackId": 13,
        "channel": 10
      },
      {
        "startTick": 51600,
        "endTick": 51622,
        "pitch": 60,
        "velocity": 119,
        "trackId": 7,
        "channel": 6
      },
      {
        "startTick": 51600,
        "endTick": 51630,
        "pitch": 69,
        "velocity": 117,
        "trackId": 7,
        "channel": 6
      },
      {
        "startTick": 51600,
        "endTick": 51634,
        "pitch": 65,
        "velocity": 113,
        "trackId": 3,
        "channel": 0
      },
      {
        "startTick": 51600,
        "endTick": 51638,
        "pitch": 69,
        "velocity": 113,
        "trackId": 3,
        "channel": 0
      },
      {
        "startTick": 51642,
        "endTick": 51660,
        "pitch": 81,
        "velocity": 118,
        "trackId": 12,
        "channel": 9
      },
      {
        "startTick": 51648,
        "endTick": 51660,
        "pitch": 60,
        "velocity": 113,
        "trackId": 3,
        "channel": 0
      },
      {
        "startTick": 51648,
        "endTick": 51662,
        "pitch": 48,
        "velocity": 120,
        "trackId": 13,
        "channel": 10
      },
      {
        "startTick": 51648,
        "endTick": 51666,
        "pitch": 36,
        "velocity": 122,
        "trackId": 13,
        "channel": 10
      },
      {
        "startTick": 51648,
        "endTick": 51670,
        "pitch": 70,
        "velocity": 113,
        "trackId": 3,
        "channel": 0
      },
      {
        "startTick": 51648,
        "endTick": 51674,
        "pitch": 60,
        "velocity": 114,
        "trackId": 7,
        "channel": 6
      },
      {
        "startTick": 51648,
        "endTick": 51676,
        "pitch": 67,
        "velocity": 113,
        "trackId": 3,
        "channel": 0
      },
      {
        "startTick": 51648,
        "endTick": 51680,
        "pitch": 67,
        "velocity": 119,
        "trackId": 7,
        "channel": 6
      },
      {
        "startTick": 51648,
        "endTick": 51684,
        "pitch": 70,
        "velocity": 119,
        "trackId": 7,
        "channel": 6
      },
      {
        "startTick": 51690,
        "endTick": 51710,
        "pitch": 81,
        "velocity": 118,
        "trackId": 12,
        "channel": 9
      },
      {
        "startTick": 51696,
        "endTick": 51714,
        "pitch": 48,
        "velocity": 118,
        "trackId": 13,
        "channel": 10
      },
      {
        "startTick": 51696,
        "endTick": 51718,
        "pitch": 65,
        "velocity": 117,
        "trackId": 7,
        "channel": 6
      },
      {
        "startTick": 51696,
        "endTick": 51718,
        "pitch": 36,
        "velocity": 120,
        "trackId": 13,
        "channel": 10
      },
      {
        "startTick": 51696,
        "endTick": 51720,
        "pitch": 60,
        "velocity": 119,
        "trackId": 7,
        "channel": 6
      },
      {
        "startTick": 51696,
        "endTick": 51724,
        "pitch": 69,
        "velocity": 119,
        "trackId": 7,
        "channel": 6
      },
      {
        "startTick": 51696,
        "endTick": 51740,
        "pitch": 65,
        "velocity": 113,
        "trackId": 3,
        "channel": 0
      },
      {
        "startTick": 51696,
        "endTick": 51758,
        "pitch": 69,
        "velocity": 113,
        "trackId": 3,
        "channel": 0
      },
      {
        "startTick": 51740,
        "endTick": 51764,
        "pitch": 81,
        "velocity": 119,
        "trackId": 12,
        "channel": 9
      },
      {
        "startTick": 51744,
        "endTick": 51758,
        "pitch": 67,
        "velocity": 113,
        "trackId": 3,
        "channel": 0
      },
      {
        "startTick": 51744,
        "endTick": 51766,
        "pitch": 36,
        "velocity": 120,
        "trackId": 13,
        "channel": 10
      },
      {
        "startTick": 51744,
        "endTick": 51766,
        "pitch": 48,
        "velocity": 122,
        "trackId": 13,
        "channel": 10
      },
      {
        "startTick": 51744,
        "endTick": 51772,
        "pitch": 60,
        "velocity": 119,
        "trackId": 7,
        "channel": 6
      },
      {
        "startTick": 51744,
        "endTick": 51774,
        "pitch": 64,
        "velocity": 119,
        "trackId": 7,
        "channel": 6
      },
      {
        "startTick": 51744,
        "endTick": 51780,
        "pitch": 67,
        "velocity": 119,
        "trackId": 7,
        "channel": 6
      },
      {
        "startTick": 51744,
        "endTick": 51792,
        "pitch": 64,
        "velocity": 113,
        "trackId": 3,
        "channel": 0
      },
      {
        "startTick": 51790,
        "endTick": 51812,
        "pitch": 35,
        "velocity": 124,
        "trackId": 12,
        "channel": 9
      },
      {
        "startTick": 51790,
        "endTick": 51812,
        "pitch": 43,
        "velocity": 123,
        "trackId": 12,
        "channel": 9
      },
      {
        "startTick": 51790,
        "endTick": 51814,
        "pitch": 29,
        "velocity": 123,
        "trackId": 4,
        "channel": 1
      },
      {
        "startTick": 51790,
        "endTick": 51814,
        "pitch": 41,
        "velocity": 125,
        "trackId": 4,
        "channel": 1
      },
      {
        "startTick": 51792,
        "endTick": 51806,
        "pitch": 65,
        "velocity": 123,
        "trackId": 3,
        "channel": 0
      },
      {
        "startTick": 51792,
        "endTick": 51808,
        "pitch": 69,
        "velocity": 123,
        "trackId": 3,
        "channel": 0
      },
      {
        "startTick": 51792,
        "endTick": 51812,
        "pitch": 72,
        "velocity": 123,
        "trackId": 3,
        "channel": 0
      },
      {
        "startTick": 51792,
        "endTick": 51818,
        "pitch": 41,
        "velocity": 123,
        "trackId": 3,
        "channel": 0
      },
      {
        "startTick": 51792,
        "endTick": 51820,
        "pitch": 77,
        "velocity": 123,
        "trackId": 3,
        "channel": 0
      },
      {
        "startTick": 51792,
        "endTick": 51824,
        "pitch": 65,
        "velocity": 119,
        "trackId": 5,
        "channel": 2
      },
      {
        "startTick": 51792,
        "endTick": 51824,
        "pitch": 72,
        "velocity": 118,
        "trackId": 5,
        "channel": 2
      },
      {
        "startTick": 51792,
        "endTick": 51824,
        "pitch": 77,
        "velocity": 111,
        "trackId": 5,
        "channel": 2
      },
      {
        "startTick": 51792,
        "endTick": 51826,
        "pitch": 29,
        "velocity": 123,
        "trackId": 3,
        "channel": 0
      },
      {
        "startTick": 51794,
        "endTick": 51822,
        "pitch": 65,
        "velocity": 124,
        "trackId": 11,
        "channel": 12
      },
      {
        "startTick": 51800,
        "endTick": 51818,
        "pitch": 77,
        "velocity": 123,
        "trackId": 11,
        "channel": 12
      },
      {
        "startTick": 51838,
        "endTick": 51862,
        "pitch": 29,
        "velocity": 124,
        "trackId": 4,
        "channel": 1
      },
      {
        "startTick": 51838,
        "endTick": 51862,
        "pitch": 41,
        "velocity": 125,
        "trackId": 4,
        "channel": 1
      },
      {
        "startTick": 51838,
        "endTick": 51862,
        "pitch": 35,
        "velocity": 124,
        "trackId": 12,
        "channel": 9
      },
      {
        "startTick": 51838,
        "endTick": 51862,
        "pitch": 43,
        "velocity": 124,
        "trackId": 12,
        "channel": 9
      },
      {
        "startTick": 51840,
        "endTick": 51858,
        "pitch": 69,
        "velocity": 123,
        "trackId": 3,
        "channel": 0
      },
      {
        "startTick": 51840,
        "endTick": 51858,
        "pitch": 72,
        "velocity": 123,
        "trackId": 3,
        "channel": 0
      },
      {
        "startTick": 51840,
        "endTick": 51858,
        "pitch": 77,
        "velocity": 123,
        "trackId": 3,
        "channel": 0
      },
      {
        "startTick": 51840,
        "endTick": 51860,
        "pitch": 65,
        "velocity": 123,
        "trackId": 3,
        "channel": 0
      },
      {
        "startTick": 51840,
        "endTick": 51874,
        "pitch": 65,
        "velocity": 117,
        "trackId": 5,
        "channel": 2
      },
      {
        "startTick": 51840,
        "endTick": 51878,
        "pitch": 77,
        "velocity": 117,
        "trackId": 5,
        "channel": 2
      },
      {
        "startTick": 51840,
        "endTick": 51880,
        "pitch": 29,
        "velocity": 123,
        "trackId": 3,
        "channel": 0
      },
      {
        "startTick": 51840,
        "endTick": 51880,
        "pitch": 72,
        "velocity": 117,
        "trackId": 5,
        "channel": 2
      },
      {
        "startTick": 51840,
        "endTick": 51884,
        "pitch": 41,
        "velocity": 123,
        "trackId": 3,
        "channel": 0
      },
      {
        "startTick": 51848,
        "endTick": 51868,
        "pitch": 77,
        "velocity": 123,
        "trackId": 11,
        "channel": 12
      },
      {
        "startTick": 51848,
        "endTick": 51872,
        "pitch": 65,
        "velocity": 123,
        "trackId": 11,
        "channel": 12
      },
      {
        "startTick": 51886,
        "endTick": 51946,
        "pitch": 35,
        "velocity": 124,
        "trackId": 12,
        "channel": 9
      },
      {
        "startTick": 51886,
        "endTick": 51946,
        "pitch": 43,
        "velocity": 124,
        "trackId": 12,
        "channel": 9
      },
      {
        "startTick": 51886,
        "endTick": 51952,
        "pitch": 29,
        "velocity": 125,
        "trackId": 4,
        "channel": 1
      },
      {
        "startTick": 51886,
        "endTick": 51958,
        "pitch": 41,
        "velocity": 125,
        "trackId": 4,
        "channel": 1
      },
      {
        "startTick": 51888,
        "endTick": 51908,
        "pitch": 60,
        "velocity": 112,
        "trackId": 3,
        "channel": 0
      },
      {
        "startTick": 51888,
        "endTick": 51908,
        "pitch": 67,
        "velocity": 118,
        "trackId": 7,
        "channel": 6
      },
      {
        "startTick": 51888,
        "endTick": 51910,
        "pitch": 64,
        "velocity": 112,
        "trackId": 3,
        "channel": 0
      },
      {
        "startTick": 51888,
        "endTick": 51912,
        "pitch": 77,
        "velocity": 117,
        "trackId": 5,
        "channel": 2
      },
      {
        "startTick": 51888,
        "endTick": 51912,
        "pitch": 60,
        "velocity": 119,
        "trackId": 7,
        "channel": 6
      },
      {
        "startTick": 51888,
        "endTick": 51914,
        "pitch": 64,
        "velocity": 117,
        "trackId": 7,
        "channel": 6
      },
      {
        "startTick": 51888,
        "endTick": 51918,
        "pitch": 67,
        "velocity": 112,
        "trackId": 3,
        "channel": 0
      },
      {
        "startTick": 51888,
        "endTick": 51936,
        "pitch": 65,
        "velocity": 117,
        "trackId": 5,
        "channel": 2
      },
      {
        "startTick": 51888,
        "endTick": 51936,
        "pitch": 72,
        "velocity": 117,
        "trackId": 5,
        "channel": 2
      },
      {
        "startTick": 51894,
        "endTick": 51982,
        "pitch": 65,
        "velocity": 122,
        "trackId": 11,
        "channel": 12
      },
      {
        "startTick": 51894,
        "endTick": 51982,
        "pitch": 77,
        "velocity": 124,
        "trackId": 11,
        "channel": 12
      },
      {
        "startTick": 51936,
        "endTick": 51952,
        "pitch": 36,
        "velocity": 119,
        "trackId": 13,
        "channel": 10
      },
      {
        "startTick": 51936,
        "endTick": 51956,
        "pitch": 64,
        "velocity": 115,
        "trackId": 7,
        "channel": 6
      },
      {
        "startTick": 51936,
        "endTick": 51956,
        "pitch": 48,
        "velocity": 114,
        "trackId": 13,
        "channel": 10
      },
      {
        "startTick": 51936,
        "endTick": 51958,
        "pitch": 60,
        "velocity": 116,
        "trackId": 7,
        "channel": 6
      },
      {
        "startTick": 51936,
        "endTick": 51966,
        "pitch": 64,
        "velocity": 112,
        "trackId": 3,
        "channel": 0
      },
      {
        "startTick": 51936,
        "endTick": 51966,
        "pitch": 67,
        "velocity": 119,
        "trackId": 7,
        "channel": 6
      },
      {
        "startTick": 51936,
        "endTick": 51978,
        "pitch": 67,
        "velocity": 112,
        "trackId": 3,
        "channel": 0
      },
      {
        "startTick": 51936,
        "endTick": 52166,
        "pitch": 77,
        "velocity": 98,
        "trackId": 5,
        "channel": 2
      },
      {
        "startTick": 51950,
        "endTick": 51974,
        "pitch": 81,
        "velocity": 102,
        "trackId": 12,
        "channel": 9
      },
      {
        "startTick": 51984,
        "endTick": 51998,
        "pitch": 36,
        "velocity": 121,
        "trackId": 13,
        "channel": 10
      },
      {
        "startTick": 51984,
        "endTick": 51998,
        "pitch": 48,
        "velocity": 116,
        "trackId": 13,
        "channel": 10
      },
      {
        "startTick": 51984,
        "endTick": 52002,
        "pitch": 65,
        "velocity": 118,
        "trackId": 7,
        "channel": 6
      },
      {
        "startTick": 51984,
        "endTick": 52006,
        "pitch": 60,
        "velocity": 121,
        "trackId": 7,
        "channel": 6
      },
      {
        "startTick": 51984,
        "endTick": 52010,
        "pitch": 69,
        "velocity": 120,
        "trackId": 7,
        "channel": 6
      },
      {
        "startTick": 51984,
        "endTick": 52018,
        "pitch": 65,
        "velocity": 112,
        "trackId": 3,
        "channel": 0
      },
      {
        "startTick": 51984,
        "endTick": 52022,
        "pitch": 69,
        "velocity": 112,
        "trackId": 3,
        "channel": 0
      },
      {
        "startTick": 51992,
        "endTick": 52012,
        "pitch": 81,
        "velocity": 106,
        "trackId": 12,
        "channel": 9
      },
      {
        "startTick": 52032,
        "endTick": 52044,
        "pitch": 60,
        "velocity": 112,
        "trackId": 3,
        "channel": 0
      },
      {
        "startTick": 52032,
        "endTick": 52048,
        "pitch": 36,
        "velocity": 122,
        "trackId": 13,
        "channel": 10
      },
      {
        "startTick": 52032,
        "endTick": 52050,
        "pitch": 48,
        "velocity": 118,
        "trackId": 13,
        "channel": 10
      },
      {
        "startTick": 52032,
        "endTick": 52052,
        "pitch": 60,
        "velocity": 121,
        "trackId": 7,
        "channel": 6
      },
      {
        "startTick": 52032,
        "endTick": 52054,
        "pitch": 70,
        "velocity": 112,
        "trackId": 3,
        "channel": 0
      },
      {
        "startTick": 52032,
        "endTick": 52060,
        "pitch": 67,
        "velocity": 112,
        "trackId": 3,
        "channel": 0
      },
      {
        "startTick": 52032,
        "endTick": 52062,
        "pitch": 67,
        "velocity": 120,
        "trackId": 7,
        "channel": 6
      },
      {
        "startTick": 52032,
        "endTick": 52068,
        "pitch": 70,
        "velocity": 119,
        "trackId": 7,
        "channel": 6
      },
      {
        "startTick": 52038,
        "endTick": 52060,
        "pitch": 81,
        "velocity": 117,
        "trackId": 12,
        "channel": 9
      },
      {
        "startTick": 52080,
        "endTick": 52098,
        "pitch": 48,
        "velocity": 120,
        "trackId": 13,
        "channel": 10
      },
      {
        "startTick": 52080,
        "endTick": 52102,
        "pitch": 65,
        "velocity": 120,
        "trackId": 7,
        "channel": 6
      },
      {
        "startTick": 52080,
        "endTick": 52102,
        "pitch": 36,
        "velocity": 119,
        "trackId": 13,
        "channel": 10
      },
      {
        "startTick": 52080,
        "endTick": 52106,
        "pitch": 60,
        "velocity": 117,
        "trackId": 7,
        "channel": 6
      },
      {
        "startTick": 52080,
        "endTick": 52110,
        "pitch": 69,
        "velocity": 119,
        "trackId": 7,
        "channel": 6
      },
      {
        "startTick": 52080,
        "endTick": 52124,
        "pitch": 65,
        "velocity": 112,
        "trackId": 3,
        "channel": 0
      },
      {
        "startTick": 52080,
        "endTick": 52142,
        "pitch": 69,
        "velocity": 112,
        "trackId": 3,
        "channel": 0
      },
      {
        "startTick": 52086,
        "endTick": 52106,
        "pitch": 81,
        "velocity": 118,
        "trackId": 12,
        "channel": 9
      },
      {
        "startTick": 52128,
        "endTick": 52142,
        "pitch": 67,
        "velocity": 112,
        "trackId": 3,
        "channel": 0
      },
      {
        "startTick": 52128,
        "endTick": 52146,
        "pitch": 48,
        "velocity": 122,
        "trackId": 13,
        "channel": 10
      },
      {
        "startTick": 52128,
        "endTick": 52150,
        "pitch": 36,
        "velocity": 121,
        "trackId": 13,
        "channel": 10
      },
      {
        "startTick": 52128,
        "endTick": 52160,
        "pitch": 60,
        "velocity": 121,
        "trackId": 7,
        "channel": 6
      },
      {
        "startTick": 52128,
        "endTick": 52160,
        "pitch": 64,
        "velocity": 120,
        "trackId": 7,
        "channel": 6
      },
      {
        "startTick": 52128,
        "endTick": 52160,
        "pitch": 67,
        "velocity": 121,
        "trackId": 7,
        "channel": 6
      },
      {
        "startTick": 52128,
        "endTick": 52176,
        "pitch": 64,
        "velocity": 112,
        "trackId": 3,
        "channel": 0
      },
      {
        "startTick": 52134,
        "endTick": 52154,
        "pitch": 81,
        "velocity": 121,
        "trackId": 12,
        "channel": 9
      },
      {
        "startTick": 52174,
        "endTick": 52194,
        "pitch": 35,
        "velocity": 123,
        "trackId": 12,
        "channel": 9
      },
      {
        "startTick": 52174,
        "endTick": 52196,
        "pitch": 43,
        "velocity": 124,
        "trackId": 12,
        "channel": 9
      },
      {
        "startTick": 52174,
        "endTick": 52200,
        "pitch": 29,
        "velocity": 125,
        "trackId": 4,
        "channel": 1
      },
      {
        "startTick": 52174,
        "endTick": 52202,
        "pitch": 41,
        "velocity": 125,
        "trackId": 4,
        "channel": 1
      },
      {
        "startTick": 52176,
        "endTick": 52192,
        "pitch": 65,
        "velocity": 123,
        "trackId": 3,
        "channel": 0
      },
      {
        "startTick": 52176,
        "endTick": 52198,
        "pitch": 69,
        "velocity": 123,
        "trackId": 3,
        "channel": 0
      },
      {
        "startTick": 52176,
        "endTick": 52200,
        "pitch": 77,
        "velocity": 123,
        "trackId": 3,
        "channel": 0
      },
      {
        "startTick": 52176,
        "endTick": 52204,
        "pitch": 41,
        "velocity": 123,
        "trackId": 3,
        "channel": 0
      },
      {
        "startTick": 52176,
        "endTick": 52204,
        "pitch": 65,
        "velocity": 119,
        "trackId": 5,
        "channel": 2
      },
      {
        "startTick": 52176,
        "endTick": 52206,
        "pitch": 29,
        "velocity": 123,
        "trackId": 3,
        "channel": 0
      },
      {
        "startTick": 52176,
        "endTick": 52208,
        "pitch": 72,
        "velocity": 119,
        "trackId": 5,
        "channel": 2
      },
      {
        "startTick": 52176,
        "endTick": 52208,
        "pitch": 77,
        "velocity": 114,
        "trackId": 5,
        "channel": 2
      },
      {
        "startTick": 52182,
        "endTick": 52206,
        "pitch": 65,
        "velocity": 124,
        "trackId": 11,
        "channel": 12
      },
      {
        "startTick": 52186,
        "endTick": 52206,
        "pitch": 77,
        "velocity": 123,
        "trackId": 11,
        "channel": 12
      },
      {
        "startTick": 52222,
        "endTick": 52246,
        "pitch": 41,
        "velocity": 125,
        "trackId": 4,
        "channel": 1
      },
      {
        "startTick": 52222,
        "endTick": 52246,
        "pitch": 35,
        "velocity": 124,
        "trackId": 12,
        "channel": 9
      },
      {
        "startTick": 52222,
        "endTick": 52246,
        "pitch": 43,
        "velocity": 124,
        "trackId": 12,
        "channel": 9
      },
      {
        "startTick": 52222,
        "endTick": 52248,
        "pitch": 29,
        "velocity": 125,
        "trackId": 4,
        "channel": 1
      },
      {
        "startTick": 52224,
        "endTick": 52244,
        "pitch": 65,
        "velocity": 123,
        "trackId": 3,
        "channel": 0
      },
      {
        "startTick": 52224,
        "endTick": 52250,
        "pitch": 69,
        "velocity": 123,
        "trackId": 3,
        "channel": 0
      },
      {
        "startTick": 52224,
        "endTick": 52252,
        "pitch": 77,
        "velocity": 123,
        "trackId": 3,
        "channel": 0
      },
      {
        "startTick": 52224,
        "endTick": 52258,
        "pitch": 29,
        "velocity": 123,
        "trackId": 3,
        "channel": 0
      },
      {
        "startTick": 52224,
        "endTick": 52258,
        "pitch": 41,
        "velocity": 123,
        "trackId": 3,
        "channel": 0
      },
      {
        "startTick": 52224,
        "endTick": 52270,
        "pitch": 77,
        "velocity": 117,
        "trackId": 5,
        "channel": 2
      },
      {
        "startTick": 52224,
        "endTick": 52272,
        "pitch": 65,
        "velocity": 118,
        "trackId": 5,
        "channel": 2
      },
      {
        "startTick": 52224,
        "endTick": 52272,
        "pitch": 72,
        "velocity": 118,
        "trackId": 5,
        "channel": 2
      },
      {
        "startTick": 52234,
        "endTick": 52256,
        "pitch": 65,
        "velocity": 124,
        "trackId": 11,
        "channel": 12
      },
      {
        "startTick": 52236,
        "endTick": 52256,
        "pitch": 77,
        "velocity": 124,
        "trackId": 11,
        "channel": 12
      },
      {
        "startTick": 52270,
        "endTick": 52310,
        "pitch": 35,
        "velocity": 124,
        "trackId": 12,
        "channel": 9
      },
      {
        "startTick": 52270,
        "endTick": 52312,
        "pitch": 43,
        "velocity": 124,
        "trackId": 12,
        "channel": 9
      },
      {
        "startTick": 52270,
        "endTick": 52348,
        "pitch": 41,
        "velocity": 125,
        "trackId": 4,
        "channel": 1
      },
      {
        "startTick": 52270,
        "endTick": 52352,
        "pitch": 29,
        "velocity": 125,
        "trackId": 4,
        "channel": 1
      },
      {
        "startTick": 52272,
        "endTick": 52292,
        "pitch": 60,
        "velocity": 112,
        "trackId": 3,
        "channel": 0
      },
      {
        "startTick": 52272,
        "endTick": 52294,
        "pitch": 64,
        "velocity": 112,
        "trackId": 3,
        "channel": 0
      },
      {
        "startTick": 52272,
        "endTick": 52294,
        "pitch": 64,
        "velocity": 121,
        "trackId": 7,
        "channel": 6
      },
      {
        "startTick": 52272,
        "endTick": 52294,
        "pitch": 67,
        "velocity": 121,
        "trackId": 7,
        "channel": 6
      },
      {
        "startTick": 52272,
        "endTick": 52296,
        "pitch": 77,
        "velocity": 117,
        "trackId": 5,
        "channel": 2
      },
      {
        "startTick": 52272,
        "endTick": 52296,
        "pitch": 60,
        "velocity": 120,
        "trackId": 7,
        "channel": 6
      },
      {
        "startTick": 52272,
        "endTick": 52302,
        "pitch": 67,
        "velocity": 112,
        "trackId": 3,
        "channel": 0
      },
      {
        "startTick": 52272,
        "endTick": 52320,
        "pitch": 65,
        "velocity": 117,
        "trackId": 5,
        "channel": 2
      },
      {
        "startTick": 52272,
        "endTick": 52320,
        "pitch": 72,
        "velocity": 117,
        "trackId": 5,
        "channel": 2
      },
      {
        "startTick": 52282,
        "endTick": 52318,
        "pitch": 65,
        "velocity": 123,
        "trackId": 11,
        "channel": 12
      },
      {
        "startTick": 52282,
        "endTick": 52318,
        "pitch": 77,
        "velocity": 124,
        "trackId": 11,
        "channel": 12
      },
      {
        "startTick": 52320,
        "endTick": 52334,
        "pitch": 36,
        "velocity": 116,
        "trackId": 13,
        "channel": 10
      },
      {
        "startTick": 52320,
        "endTick": 52338,
        "pitch": 48,
        "velocity": 118,
        "trackId": 13,
        "channel": 10
      },
      {
        "startTick": 52320,
        "endTick": 52340,
        "pitch": 64,
        "velocity": 119,
        "trackId": 7,
        "channel": 6
      },
      {
        "startTick": 52320,
        "endTick": 52346,
        "pitch": 60,
        "velocity": 117,
        "trackId": 7,
        "channel": 6
      },
      {
        "startTick": 52320,
        "endTick": 52350,
        "pitch": 64,
        "velocity": 112,
        "trackId": 3,
        "channel": 0
      },
      {
        "startTick": 52320,
        "endTick": 52352,
        "pitch": 67,
        "velocity": 120,
        "trackId": 7,
        "channel": 6
      },
      {
        "startTick": 52320,
        "endTick": 52362,
        "pitch": 67,
        "velocity": 112,
        "trackId": 3,
        "channel": 0
      },
      {
        "startTick": 52320,
        "endTick": 52560,
        "pitch": 77,
        "velocity": 94,
        "trackId": 5,
        "channel": 2
      },
      {
        "startTick": 52330,
        "endTick": 52352,
        "pitch": 81,
        "velocity": 104,
        "trackId": 12,
        "channel": 9
      },
      {
        "startTick": 52368,
        "endTick": 52382,
        "pitch": 36,
        "velocity": 121,
        "trackId": 13,
        "channel": 10
      },
      {
        "startTick": 52368,
        "endTick": 52382,
        "pitch": 48,
        "velocity": 119,
        "trackId": 13,
        "channel": 10
      },
      {
        "startTick": 52368,
        "endTick": 52388,
        "pitch": 65,
        "velocity": 120,
        "trackId": 7,
        "channel": 6
      },
      {
        "startTick": 52368,
        "endTick": 52390,
        "pitch": 60,
        "velocity": 119,
        "trackId": 7,
        "channel": 6
      },
      {
        "startTick": 52368,
        "endTick": 52396,
        "pitch": 69,
        "velocity": 120,
        "trackId": 7,
        "channel": 6
      },
      {
        "startTick": 52368,
        "endTick": 52402,
        "pitch": 65,
        "velocity": 112,
        "trackId": 3,
        "channel": 0
      },
      {
        "startTick": 52368,
        "endTick": 52406,
        "pitch": 69,
        "velocity": 112,
        "trackId": 3,
        "channel": 0
      },
      {
        "startTick": 52374,
        "endTick": 52396,
        "pitch": 81,
        "velocity": 110,
        "trackId": 12,
        "channel": 9
      },
      {
        "startTick": 52416,
        "endTick": 52428,
        "pitch": 60,
        "velocity": 112,
        "trackId": 3,
        "channel": 0
      },
      {
        "startTick": 52416,
        "endTick": 52430,
        "pitch": 48,
        "velocity": 118,
        "trackId": 13,
        "channel": 10
      },
      {
        "startTick": 52416,
        "endTick": 52434,
        "pitch": 36,
        "velocity": 122,
        "trackId": 13,
        "channel": 10
      },
      {
        "startTick": 52416,
        "endTick": 52438,
        "pitch": 70,
        "velocity": 112,
        "trackId": 3,
        "channel": 0
      },
      {
        "startTick": 52416,
        "endTick": 52440,
        "pitch": 60,
        "velocity": 120,
        "trackId": 7,
        "channel": 6
      },
      {
        "startTick": 52416,
        "endTick": 52444,
        "pitch": 67,
        "velocity": 112,
        "trackId": 3,
        "channel": 0
      },
      {
        "startTick": 52416,
        "endTick": 52446,
        "pitch": 67,
        "velocity": 120,
        "trackId": 7,
        "channel": 6
      },
      {
        "startTick": 52416,
        "endTick": 52452,
        "pitch": 70,
        "velocity": 119,
        "trackId": 7,
        "channel": 6
      },
      {
        "startTick": 52422,
        "endTick": 52440,
        "pitch": 81,
        "velocity": 118,
        "trackId": 12,
        "channel": 9
      },
      {
        "startTick": 52464,
        "endTick": 52480,
        "pitch": 48,
        "velocity": 120,
        "trackId": 13,
        "channel": 10
      },
      {
        "startTick": 52464,
        "endTick": 52482,
        "pitch": 65,
        "velocity": 120,
        "trackId": 7,
        "channel": 6
      },
      {
        "startTick": 52464,
        "endTick": 52486,
        "pitch": 36,
        "velocity": 119,
        "trackId": 13,
        "channel": 10
      },
      {
        "startTick": 52464,
        "endTick": 52488,
        "pitch": 60,
        "velocity": 121,
        "trackId": 7,
        "channel": 6
      },
      {
        "startTick": 52464,
        "endTick": 52492,
        "pitch": 69,
        "velocity": 120,
        "trackId": 7,
        "channel": 6
      },
      {
        "startTick": 52464,
        "endTick": 52508,
        "pitch": 65,
        "velocity": 112,
        "trackId": 3,
        "channel": 0
      },
      {
        "startTick": 52464,
        "endTick": 52526,
        "pitch": 69,
        "velocity": 112,
        "trackId": 3,
        "channel": 0
      },
      {
        "startTick": 52466,
        "endTick": 52484,
        "pitch": 81,
        "velocity": 118,
        "trackId": 12,
        "channel": 9
      },
      {
        "startTick": 52512,
        "endTick": 52526,
        "pitch": 67,
        "velocity": 112,
        "trackId": 3,
        "channel": 0
      },
      {
        "startTick": 52512,
        "endTick": 52530,
        "pitch": 36,
        "velocity": 120,
        "trackId": 13,
        "channel": 10
      },
      {
        "startTick": 52512,
        "endTick": 52534,
        "pitch": 48,
        "velocity": 122,
        "trackId": 13,
        "channel": 10
      },
      {
        "startTick": 52512,
        "endTick": 52544,
        "pitch": 64,
        "velocity": 119,
        "trackId": 7,
        "channel": 6
      },
      {
        "startTick": 52512,
        "endTick": 52546,
        "pitch": 60,
        "velocity": 122,
        "trackId": 7,
        "channel": 6
      },
      {
        "startTick": 52512,
        "endTick": 52546,
        "pitch": 67,
        "velocity": 121,
        "trackId": 7,
        "channel": 6
      },
      {
        "startTick": 52512,
        "endTick": 52560,
        "pitch": 64,
        "velocity": 112,
        "trackId": 3,
        "channel": 0
      },
      {
        "startTick": 52514,
        "endTick": 52538,
        "pitch": 81,
        "velocity": 121,
        "trackId": 12,
        "channel": 9
      },
      {
        "startTick": 52560,
        "endTick": 52608,
        "pitch": 65,
        "velocity": 123,
        "trackId": 3,
        "channel": 0
      },
      {
        "startTick": 52566,
        "endTick": 52588,
        "pitch": 65,
        "velocity": 124,
        "trackId": 11,
        "channel": 12
      },
      {
        "startTick": 52566,
        "endTick": 52590,
        "pitch": 77,
        "velocity": 123,
        "trackId": 11,
        "channel": 12
      },
      {
        "startTick": 52608,
        "endTick": 52638,
        "pitch": 77,
        "velocity": 116,
        "trackId": 5,
        "channel": 2
      },
      {
        "startTick": 52608,
        "endTick": 52640,
        "pitch": 77,
        "velocity": 123,
        "trackId": 3,
        "channel": 0
      },
      {
        "startTick": 52614,
        "endTick": 52636,
        "pitch": 77,
        "velocity": 122,
        "trackId": 11,
        "channel": 12
      },
      {
        "startTick": 52616,
        "endTick": 52636,
        "pitch": 65,
        "velocity": 124,
        "trackId": 11,
        "channel": 12
      },
      {
        "startTick": 52656,
        "endTick": 52784,
        "pitch": 77,
        "velocity": 121,
        "trackId": 3,
        "channel": 0
      },
      {
        "startTick": 52656,
        "endTick": 52850,
        "pitch": 77,
        "velocity": 116,
        "trackId": 5,
        "channel": 2
      },
      {
        "startTick": 52662,
        "endTick": 52698,
        "pitch": 65,
        "velocity": 124,
        "trackId": 11,
        "channel": 12
      },
      {
        "startTick": 52662,
        "endTick": 52702,
        "pitch": 77,
        "velocity": 124,
        "trackId": 11,
        "channel": 12
      },
      {
        "startTick": 52704,
        "endTick": 53162,
        "pitch": 75,
        "velocity": 116,
        "trackId": 5,
        "channel": 2
      },
      {
        "startTick": 52704,
        "endTick": 53228,
        "pitch": 75,
        "velocity": 122,
        "trackId": 3,
        "channel": 0
      },
      {
        "startTick": 52752,
        "endTick": 53048,
        "pitch": 72,
        "velocity": 107,
        "trackId": 5,
        "channel": 2
      },
      {
        "startTick": 52752,
        "endTick": 53144,
        "pitch": 84,
        "velocity": 121,
        "trackId": 1,
        "channel": 5
      },
      {
        "startTick": 52752,
        "endTick": 53144,
        "pitch": 72,
        "velocity": 119,
        "trackId": 7,
        "channel": 6
      },
      {
        "startTick": 52752,
        "endTick": 53144,
        "pitch": 72,
        "velocity": 119,
        "trackId": 8,
        "channel": 7
      },
      {
        "startTick": 52752,
        "endTick": 53220,
        "pitch": 72,
        "velocity": 123,
        "trackId": 3,
        "channel": 0
      },
      {
        "startTick": 52848,
        "endTick": 53150,
        "pitch": 80,
        "velocity": 120,
        "trackId": 1,
        "channel": 5
      },
      {
        "startTick": 52848,
        "endTick": 53150,
        "pitch": 68,
        "velocity": 119,
        "trackId": 7,
        "channel": 6
      },
      {
        "startTick": 52848,
        "endTick": 53150,
        "pitch": 68,
        "velocity": 119,
        "trackId": 8,
        "channel": 7
      },
      {
        "startTick": 52848,
        "endTick": 53160,
        "pitch": 68,
        "velocity": 118,
        "trackId": 5,
        "channel": 2
      },
      {
        "startTick": 52848,
        "endTick": 53214,
        "pitch": 68,
        "velocity": 123,
        "trackId": 3,
        "channel": 0
      },
      {
        "startTick": 52944,
        "endTick": 53160,
        "pitch": 77,
        "velocity": 120,
        "trackId": 1,
        "channel": 5
      },
      {
        "startTick": 52944,
        "endTick": 53160,
        "pitch": 65,
        "velocity": 119,
        "trackId": 7,
        "channel": 6
      },
      {
        "startTick": 52944,
        "endTick": 53160,
        "pitch": 65,
        "velocity": 119,
        "trackId": 8,
        "channel": 7
      },
      {
        "startTick": 52944,
        "endTick": 53166,
        "pitch": 65,
        "velocity": 118,
        "trackId": 5,
        "channel": 2
      },
      {
        "startTick": 52944,
        "endTick": 53210,
        "pitch": 65,
        "velocity": 123,
        "trackId": 3,
        "channel": 0
      },
      {
        "startTick": 53040,
        "endTick": 53046,
        "pitch": 63,
        "velocity": 117,
        "trackId": 5,
        "channel": 2
      },
      {
        "startTick": 53040,
        "endTick": 53170,
        "pitch": 75,
        "velocity": 121,
        "trackId": 1,
        "channel": 5
      },
      {
        "startTick": 53040,
        "endTick": 53170,
        "pitch": 63,
        "velocity": 119,
        "trackId": 7,
        "channel": 6
      },
      {
        "startTick": 53040,
        "endTick": 53170,
        "pitch": 63,
        "velocity": 119,
        "trackId": 8,
        "channel": 7
      },
      {
        "startTick": 53040,
        "endTick": 53226,
        "pitch": 63,
        "velocity": 123,
        "trackId": 3,
        "channel": 0
      },
      {
        "startTick": 53230,
        "endTick": 53254,
        "pitch": 81,
        "velocity": 118,
        "trackId": 12,
        "channel": 9
      },
      {
        "startTick": 53230,
        "endTick": 53286,
        "pitch": 35,
        "velocity": 123,
        "trackId": 12,
        "channel": 9
      },
      {
        "startTick": 53230,
        "endTick": 53286,
        "pitch": 43,
        "velocity": 124,
        "trackId": 12,
        "channel": 9
      },
      {
        "startTick": 53230,
        "endTick": 53306,
        "pitch": 43,
        "velocity": 125,
        "trackId": 4,
        "channel": 1
      },
      {
        "startTick": 53232,
        "endTick": 53252,
        "pitch": 36,
        "velocity": 108,
        "trackId": 13,
        "channel": 10
      },
      {
        "startTick": 53232,
        "endTick": 53272,
        "pitch": 60,
        "velocity": 116,
        "trackId": 5,
        "channel": 2
      },
      {
        "startTick": 53232,
        "endTick": 53276,
        "pitch": 60,
        "velocity": 123,
        "trackId": 3,
        "channel": 0
      },
      {
        "startTick": 53232,
        "endTick": 53278,
        "pitch": 72,
        "velocity": 116,
        "trackId": 5,
        "channel": 2
      },
      {
        "startTick": 53232,
        "endTick": 53280,
        "pitch": 48,
        "velocity": 123,
        "trackId": 3,
        "channel": 0
      },
      {
        "startTick": 53232,
        "endTick": 53280,
        "pitch": 72,
        "velocity": 123,
        "trackId": 3,
        "channel": 0
      },
      {
        "startTick": 53232,
        "endTick": 53280,
        "pitch": 67,
        "velocity": 116,
        "trackId": 5,
        "channel": 2
      },
      {
        "startTick": 53232,
        "endTick": 53282,
        "pitch": 84,
        "velocity": 123,
        "trackId": 3,
        "channel": 0
      },
      {
        "startTick": 53232,
        "endTick": 53292,
        "pitch": 60,
        "velocity": 123,
        "trackId": 11,
        "channel": 12
      },
      {
        "startTick": 53232,
        "endTick": 53298,
        "pitch": 60,
        "velocity": 122,
        "trackId": 1,
        "channel": 5
      },
      {
        "startTick": 53232,
        "endTick": 53298,
        "pitch": 48,
        "velocity": 120,
        "trackId": 7,
        "channel": 6
      },
      {
        "startTick": 53232,
        "endTick": 53298,
        "pitch": 48,
        "velocity": 120,
        "trackId": 8,
        "channel": 7
      },
      {
        "startTick": 53326,
        "endTick": 53376,
        "pitch": 43,
        "velocity": 124,
        "trackId": 12,
        "channel": 9
      },
      {
        "startTick": 53326,
        "endTick": 53384,
        "pitch": 45,
        "velocity": 124,
        "trackId": 12,
        "channel": 9
      },
      {
        "startTick": 53326,
        "endTick": 53386,
        "pitch": 35,
        "velocity": 124,
        "trackId": 12,
        "channel": 9
      },
      {
        "startTick": 53328,
        "endTick": 53354,
        "pitch": 81,
        "velocity": 121,
        "trackId": 12,
        "channel": 9
      },
      {
        "startTick": 53328,
        "endTick": 53354,
        "pitch": 36,
        "velocity": 105,
        "trackId": 13,
        "channel": 10
      },
      {
        "startTick": 53328,
        "endTick": 53356,
        "pitch": 71,
        "velocity": 123,
        "trackId": 3,
        "channel": 0
      },
      {
        "startTick": 53328,
        "endTick": 53364,
        "pitch": 59,
        "velocity": 114,
        "trackId": 5,
        "channel": 2
      },
      {
        "startTick": 53328,
        "endTick": 53370,
        "pitch": 59,
        "velocity": 123,
        "trackId": 3,
        "channel": 0
      },
      {
        "startTick": 53328,
        "endTick": 53376,
        "pitch": 47,
        "velocity": 123,
        "trackId": 3,
        "channel": 0
      },
      {
        "startTick": 53328,
        "endTick": 53376,
        "pitch": 83,
        "velocity": 123,
        "trackId": 3,
        "channel": 0
      },
      {
        "startTick": 53328,
        "endTick": 53376,
        "pitch": 65,
        "velocity": 114,
        "trackId": 5,
        "channel": 2
      },
      {
        "startTick": 53328,
        "endTick": 53376,
        "pitch": 71,
        "velocity": 114,
        "trackId": 5,
        "channel": 2
      },
      {
        "startTick": 53328,
        "endTick": 53376,
        "pitch": 74,
        "velocity": 114,
        "trackId": 5,
        "channel": 2
      },
      {
        "startTick": 53328,
        "endTick": 53388,
        "pitch": 59,
        "velocity": 122,
        "trackId": 1,
        "channel": 5
      },
      {
        "startTick": 53328,
        "endTick": 53388,
        "pitch": 47,
        "velocity": 121,
        "trackId": 7,
        "channel": 6
      },
      {
        "startTick": 53328,
        "endTick": 53388,
        "pitch": 47,
        "velocity": 120,
        "trackId": 8,
        "channel": 7
      },
      {
        "startTick": 53328,
        "endTick": 53388,
        "pitch": 59,
        "velocity": 121,
        "trackId": 11,
        "channel": 12
      },
      {
        "startTick": 53330,
        "endTick": 53408,
        "pitch": 41,
        "velocity": 125,
        "trackId": 4,
        "channel": 1
      },
      {
        "startTick": 53422,
        "endTick": 53476,
        "pitch": 35,
        "velocity": 124,
        "trackId": 12,
        "channel": 9
      },
      {
        "startTick": 53422,
        "endTick": 53478,
        "pitch": 45,
        "velocity": 124,
        "trackId": 12,
        "channel": 9
      },
      {
        "startTick": 53422,
        "endTick": 53482,
        "pitch": 38,
        "velocity": 125,
        "trackId": 4,
        "channel": 1
      },
      {
        "startTick": 53424,
        "endTick": 53456,
        "pitch": 36,
        "velocity": 117,
        "trackId": 13,
        "channel": 10
      },
      {
        "startTick": 53424,
        "endTick": 53470,
        "pitch": 75,
        "velocity": 123,
        "trackId": 3,
        "channel": 0
      },
      {
        "startTick": 53424,
        "endTick": 53470,
        "pitch": 63,
        "velocity": 115,
        "trackId": 5,
        "channel": 2
      },
      {
        "startTick": 53424,
        "endTick": 53470,
        "pitch": 75,
        "velocity": 115,
        "trackId": 5,
        "channel": 2
      },
      {
        "startTick": 53424,
        "endTick": 53472,
        "pitch": 65,
        "velocity": 123,
        "trackId": 1,
        "channel": 5
      },
      {
        "startTick": 53424,
        "endTick": 53472,
        "pitch": 51,
        "velocity": 123,
        "trackId": 3,
        "channel": 0
      },
      {
        "startTick": 53424,
        "endTick": 53472,
        "pitch": 71,
        "velocity": 115,
        "trackId": 5,
        "channel": 2
      },
      {
        "startTick": 53424,
        "endTick": 53472,
        "pitch": 53,
        "velocity": 122,
        "trackId": 7,
        "channel": 6
      },
      {
        "startTick": 53424,
        "endTick": 53472,
        "pitch": 53,
        "velocity": 120,
        "trackId": 8,
        "channel": 7
      },
      {
        "startTick": 53424,
        "endTick": 53474,
        "pitch": 87,
        "velocity": 123,
        "trackId": 3,
        "channel": 0
      },
      {
        "startTick": 53424,
        "endTick": 53478,
        "pitch": 63,
        "velocity": 122,
        "trackId": 11,
        "channel": 12
      },
      {
        "startTick": 53424,
        "endTick": 53488,
        "pitch": 63,
        "velocity": 123,
        "trackId": 3,
        "channel": 0
      },
      {
        "startTick": 53424,
        "endTick": 53496,
        "pitch": 56,
        "velocity": 123,
        "trackId": 1,
        "channel": 5
      },
      {
        "startTick": 53424,
        "endTick": 53496,
        "pitch": 44,
        "velocity": 122,
        "trackId": 7,
        "channel": 6
      },
      {
        "startTick": 53424,
        "endTick": 53496,
        "pitch": 44,
        "velocity": 120,
        "trackId": 8,
        "channel": 7
      },
      {
        "startTick": 53426,
        "endTick": 53452,
        "pitch": 81,
        "velocity": 121,
        "trackId": 12,
        "channel": 9
      },
      {
        "startTick": 53518,
        "endTick": 53546,
        "pitch": 81,
        "velocity": 119,
        "trackId": 12,
        "channel": 9
      },
      {
        "startTick": 53518,
        "endTick": 53566,
        "pitch": 35,
        "velocity": 124,
        "trackId": 12,
        "channel": 9
      },
      {
        "startTick": 53518,
        "endTick": 53568,
        "pitch": 43,
        "velocity": 124,
        "trackId": 12,
        "channel": 9
      },
      {
        "startTick": 53518,
        "endTick": 53590,
        "pitch": 35,
        "velocity": 125,
        "trackId": 4,
        "channel": 1
      },
      {
        "startTick": 53520,
        "endTick": 53544,
        "pitch": 74,
        "velocity": 123,
        "trackId": 3,
        "channel": 0
      },
      {
        "startTick": 53520,
        "endTick": 53550,
        "pitch": 36,
        "velocity": 122,
        "trackId": 13,
        "channel": 10
      },
      {
        "startTick": 53520,
        "endTick": 53558,
        "pitch": 62,
        "velocity": 116,
        "trackId": 5,
        "channel": 2
      },
      {
        "startTick": 53520,
        "endTick": 53562,
        "pitch": 62,
        "velocity": 123,
        "trackId": 3,
        "channel": 0
      },
      {
        "startTick": 53520,
        "endTick": 53562,
        "pitch": 86,
        "velocity": 123,
        "trackId": 3,
        "channel": 0
      },
      {
        "startTick": 53520,
        "endTick": 53568,
        "pitch": 50,
        "velocity": 123,
        "trackId": 3,
        "channel": 0
      },
      {
        "startTick": 53520,
        "endTick": 53568,
        "pitch": 67,
        "velocity": 116,
        "trackId": 5,
        "channel": 2
      },
      {
        "startTick": 53520,
        "endTick": 53568,
        "pitch": 74,
        "velocity": 116,
        "trackId": 5,
        "channel": 2
      },
      {
        "startTick": 53520,
        "endTick": 53568,
        "pitch": 77,
        "velocity": 116,
        "trackId": 5,
        "channel": 2
      },
      {
        "startTick": 53520,
        "endTick": 53570,
        "pitch": 62,
        "velocity": 123,
        "trackId": 11,
        "channel": 12
      },
      {
        "startTick": 53520,
        "endTick": 53582,
        "pitch": 55,
        "velocity": 123,
        "trackId": 1,
        "channel": 5
      },
      {
        "startTick": 53520,
        "endTick": 53582,
        "pitch": 43,
        "velocity": 122,
        "trackId": 7,
        "channel": 6
      },
      {
        "startTick": 53520,
        "endTick": 53582,
        "pitch": 43,
        "velocity": 121,
        "trackId": 8,
        "channel": 7
      },
      {
        "startTick": 53520,
        "endTick": 53616,
        "pitch": 62,
        "velocity": 123,
        "trackId": 1,
        "channel": 5
      },
      {
        "startTick": 53520,
        "endTick": 53616,
        "pitch": 50,
        "velocity": 122,
        "trackId": 7,
        "channel": 6
      },
      {
        "startTick": 53520,
        "endTick": 53616,
        "pitch": 50,
        "velocity": 121,
        "trackId": 8,
        "channel": 7
      },
      {
        "startTick": 53614,
        "endTick": 53644,
        "pitch": 81,
        "velocity": 120,
        "trackId": 12,
        "channel": 9
      },
      {
        "startTick": 53614,
        "endTick": 53662,
        "pitch": 35,
        "velocity": 124,
        "trackId": 12,
        "channel": 9
      },
      {
        "startTick": 53614,
        "endTick": 53664,
        "pitch": 45,
        "velocity": 124,
        "trackId": 12,
        "channel": 9
      },
      {
        "startTick": 53614,
        "endTick": 53680,
        "pitch": 32,
        "velocity": 125,
        "trackId": 4,
        "channel": 1
      },
      {
        "startTick": 53616,
        "endTick": 53644,
        "pitch": 80,
        "velocity": 123,
        "trackId": 3,
        "channel": 0
      },
      {
        "startTick": 53616,
        "endTick": 53646,
        "pitch": 36,
        "velocity": 121,
        "trackId": 13,
        "channel": 10
      },
      {
        "startTick": 53616,
        "endTick": 53648,
        "pitch": 68,
        "velocity": 123,
        "trackId": 3,
        "channel": 0
      },
      {
        "startTick": 53616,
        "endTick": 53658,
        "pitch": 68,
        "velocity": 120,
        "trackId": 5,
        "channel": 2
      },
      {
        "startTick": 53616,
        "endTick": 53658,
        "pitch": 80,
        "velocity": 120,
        "trackId": 5,
        "channel": 2
      },
      {
        "startTick": 53616,
        "endTick": 53662,
        "pitch": 92,
        "velocity": 123,
        "trackId": 3,
        "channel": 0
      },
      {
        "startTick": 53616,
        "endTick": 53664,
        "pitch": 68,
        "velocity": 123,
        "trackId": 1,
        "channel": 5
      },
      {
        "startTick": 53616,
        "endTick": 53664,
        "pitch": 56,
        "velocity": 123,
        "trackId": 3,
        "channel": 0
      },
      {
        "startTick": 53616,
        "endTick": 53664,
        "pitch": 59,
        "velocity": 120,
        "trackId": 5,
        "channel": 2
      },
      {
        "startTick": 53616,
        "endTick": 53664,
        "pitch": 74,
        "velocity": 120,
        "trackId": 5,
        "channel": 2
      },
      {
        "startTick": 53616,
        "endTick": 53664,
        "pitch": 56,
        "velocity": 122,
        "trackId": 7,
        "channel": 6
      },
      {
        "startTick": 53616,
        "endTick": 53664,
        "pitch": 56,
        "velocity": 121,
        "trackId": 8,
        "channel": 7
      },
      {
        "startTick": 53616,
        "endTick": 53666,
        "pitch": 68,
        "velocity": 121,
        "trackId": 11,
        "channel": 12
      },
      {
        "startTick": 53616,
        "endTick": 53676,
        "pitch": 53,
        "velocity": 123,
        "trackId": 1,
        "channel": 5
      },
      {
        "startTick": 53616,
        "endTick": 53676,
        "pitch": 41,
        "velocity": 122,
        "trackId": 7,
        "channel": 6
      },
      {
        "startTick": 53616,
        "endTick": 53676,
        "pitch": 41,
        "velocity": 121,
        "trackId": 8,
        "channel": 7
      },
      {
        "startTick": 53708,
        "endTick": 53770,
        "pitch": 31,
        "velocity": 125,
        "trackId": 4,
        "channel": 1
      },
      {
        "startTick": 53710,
        "endTick": 53750,
        "pitch": 43,
        "velocity": 124,
        "trackId": 12,
        "channel": 9
      },
      {
        "startTick": 53710,
        "endTick": 53766,
        "pitch": 35,
        "velocity": 124,
        "trackId": 12,
        "channel": 9
      },
      {
        "startTick": 53712,
        "endTick": 53738,
        "pitch": 79,
        "velocity": 123,
        "trackId": 3,
        "channel": 0
      },
      {
        "startTick": 53712,
        "endTick": 53742,
        "pitch": 36,
        "velocity": 122,
        "trackId": 13,
        "channel": 10
      },
      {
        "startTick": 53712,
        "endTick": 53752,
        "pitch": 91,
        "velocity": 123,
        "trackId": 3,
        "channel": 0
      },
      {
        "startTick": 53712,
        "endTick": 53754,
        "pitch": 67,
        "velocity": 120,
        "trackId": 5,
        "channel": 2
      },
      {
        "startTick": 53712,
        "endTick": 53756,
        "pitch": 67,
        "velocity": 123,
        "trackId": 3,
        "channel": 0
      },
      {
        "startTick": 53712,
        "endTick": 53760,
        "pitch": 67,
        "velocity": 123,
        "trackId": 1,
        "channel": 5
      },
      {
        "startTick": 53712,
        "endTick": 53760,
        "pitch": 55,
        "velocity": 123,
        "trackId": 3,
        "channel": 0
      },
      {
        "startTick": 53712,
        "endTick": 53760,
        "pitch": 55,
        "velocity": 120,
        "trackId": 5,
        "channel": 2
      },
      {
        "startTick": 53712,
        "endTick": 53760,
        "pitch": 77,
        "velocity": 120,
        "trackId": 5,
        "channel": 2
      },
      {
        "startTick": 53712,
        "endTick": 53760,
        "pitch": 83,
        "velocity": 120,
        "trackId": 5,
        "channel": 2
      },
      {
        "startTick": 53712,
        "endTick": 53760,
        "pitch": 55,
        "velocity": 122,
        "trackId": 7,
        "channel": 6
      },
      {
        "startTick": 53712,
        "endTick": 53760,
        "pitch": 55,
        "velocity": 121,
        "trackId": 8,
        "channel": 7
      },
      {
        "startTick": 53712,
        "endTick": 53764,
        "pitch": 67,
        "velocity": 123,
        "trackId": 11,
        "channel": 12
      },
      {
        "startTick": 53712,
        "endTick": 53774,
        "pitch": 50,
        "velocity": 123,
        "trackId": 1,
        "channel": 5
      },
      {
        "startTick": 53712,
        "endTick": 53774,
        "pitch": 38,
        "velocity": 122,
        "trackId": 7,
        "channel": 6
      },
      {
        "startTick": 53712,
        "endTick": 53774,
        "pitch": 38,
        "velocity": 121,
        "trackId": 8,
        "channel": 7
      },
      {
        "startTick": 53714,
        "endTick": 53744,
        "pitch": 81,
        "velocity": 120,
        "trackId": 12,
        "channel": 9
      },
      {
        "startTick": 53804,
        "endTick": 53840,
        "pitch": 81,
        "velocity": 120,
        "trackId": 12,
        "channel": 9
      },
      {
        "startTick": 53806,
        "endTick": 53866,
        "pitch": 35,
        "velocity": 124,
        "trackId": 12,
        "channel": 9
      },
      {
        "startTick": 53806,
        "endTick": 53868,
        "pitch": 49,
        "velocity": 123,
        "trackId": 12,
        "channel": 9
      },
      {
        "startTick": 53806,
        "endTick": 53898,
        "pitch": 36,
        "velocity": 98,
        "trackId": 4,
        "channel": 1
      },
      {
        "startTick": 53808,
        "endTick": 53834,
        "pitch": 36,
        "velocity": 123,
        "trackId": 13,
        "channel": 10
      },
      {
        "startTick": 53808,
        "endTick": 53856,
        "pitch": 48,
        "velocity": 123,
        "trackId": 3,
        "channel": 0
      },
      {
        "startTick": 53808,
        "endTick": 53856,
        "pitch": 48,
        "velocity": 120,
        "trackId": 5,
        "channel": 2
      },
      {
        "startTick": 53808,
        "endTick": 53858,
        "pitch": 60,
        "velocity": 120,
        "trackId": 5,
        "channel": 2
      },
      {
        "startTick": 53808,
        "endTick": 53862,
        "pitch": 84,
        "velocity": 123,
        "trackId": 3,
        "channel": 0
      },
      {
        "startTick": 53808,
        "endTick": 53862,
        "pitch": 24,
        "velocity": 120,
        "trackId": 5,
        "channel": 2
      },
      {
        "startTick": 53808,
        "endTick": 53862,
        "pitch": 72,
        "velocity": 120,
        "trackId": 5,
        "channel": 2
      },
      {
        "startTick": 53808,
        "endTick": 53864,
        "pitch": 60,
        "velocity": 123,
        "trackId": 3,
        "channel": 0
      },
      {
        "startTick": 53808,
        "endTick": 53864,
        "pitch": 72,
        "velocity": 123,
        "trackId": 11,
        "channel": 12
      },
      {
        "startTick": 53808,
        "endTick": 53868,
        "pitch": 96,
        "velocity": 123,
        "trackId": 3,
        "channel": 0
      },
      {
        "startTick": 53808,
        "endTick": 53870,
        "pitch": 72,
        "velocity": 123,
        "trackId": 3,
        "channel": 0
      },
      {
        "startTick": 53808,
        "endTick": 53904,
        "pitch": 72,
        "velocity": 123,
        "trackId": 1,
        "channel": 5
      },
      {
        "startTick": 53808,
        "endTick": 53904,
        "pitch": 36,
        "velocity": 122,
        "trackId": 7,
        "channel": 6
      },
      {
        "startTick": 53808,
        "endTick": 53904,
        "pitch": 60,
        "velocity": 121,
        "trackId": 8,
        "channel": 7
      },
      {
        "startTick": 53808,
        "endTick": 53906,
        "pitch": 48,
        "velocity": 122,
        "trackId": 1,
        "channel": 5
      },
      {
        "startTick": 53808,
        "endTick": 53906,
        "pitch": 12,
        "velocity": 121,
        "trackId": 7,
        "channel": 6
      },
      {
        "startTick": 53808,
        "endTick": 53906,
        "pitch": 36,
        "velocity": 120,
        "trackId": 8,
        "channel": 7
      },
      {
        "startTick": 53810,
        "endTick": 53854,
        "pitch": 24,
        "velocity": 125,
        "trackId": 4,
        "channel": 1
      },
      {
        "startTick": 53904,
        "endTick": 53932,
        "pitch": 79,
        "velocity": 119,
        "trackId": 8,
        "channel": 7
      },
      {
        "startTick": 53952,
        "endTick": 53990,
        "pitch": 79,
        "velocity": 120,
        "trackId": 8,
        "channel": 7
      },
      {
        "startTick": 54000,
        "endTick": 54042,
        "pitch": 81,
        "velocity": 120,
        "trackId": 8,
        "channel": 7
      },
      {
        "startTick": 54048,
        "endTick": 54270,
        "pitch": 79,
        "velocity": 120,
        "trackId": 8,
        "channel": 7
      },
      {
        "startTick": 54096,
        "endTick": 54112,
        "pitch": 43,
        "velocity": 112,
        "trackId": 7,
        "channel": 6
      },
      {
        "startTick": 54096,
        "endTick": 54116,
        "pitch": 67,
        "velocity": 113,
        "trackId": 5,
        "channel": 2
      },
      {
        "startTick": 54096,
        "endTick": 54116,
        "pitch": 55,
        "velocity": 111,
        "trackId": 7,
        "channel": 6
      },
      {
        "startTick": 54144,
        "endTick": 54164,
        "pitch": 43,
        "velocity": 113,
        "trackId": 7,
        "channel": 6
      },
      {
        "startTick": 54144,
        "endTick": 54164,
        "pitch": 55,
        "velocity": 113,
        "trackId": 7,
        "channel": 6
      },
      {
        "startTick": 54144,
        "endTick": 54190,
        "pitch": 67,
        "velocity": 108,
        "trackId": 5,
        "channel": 2
      },
      {
        "startTick": 54192,
        "endTick": 54234,
        "pitch": 69,
        "velocity": 118,
        "trackId": 5,
        "channel": 2
      },
      {
        "startTick": 54192,
        "endTick": 54238,
        "pitch": 57,
        "velocity": 116,
        "trackId": 7,
        "channel": 6
      },
      {
        "startTick": 54192,
        "endTick": 54242,
        "pitch": 45,
        "velocity": 117,
        "trackId": 7,
        "channel": 6
      },
      {
        "startTick": 54240,
        "endTick": 54286,
        "pitch": 55,
        "velocity": 115,
        "trackId": 7,
        "channel": 6
      },
      {
        "startTick": 54240,
        "endTick": 54312,
        "pitch": 43,
        "velocity": 116,
        "trackId": 7,
        "channel": 6
      },
      {
        "startTick": 54240,
        "endTick": 54342,
        "pitch": 67,
        "velocity": 118,
        "trackId": 5,
        "channel": 2
      },
      {
        "startTick": 54286,
        "endTick": 54308,
        "pitch": 43,
        "velocity": 121,
        "trackId": 4,
        "channel": 1
      },
      {
        "startTick": 54288,
        "endTick": 54302,
        "pitch": 48,
        "velocity": 110,
        "trackId": 13,
        "channel": 10
      },
      {
        "startTick": 54288,
        "endTick": 54306,
        "pitch": 76,
        "velocity": 122,
        "trackId": 11,
        "channel": 12
      },
      {
        "startTick": 54288,
        "endTick": 54306,
        "pitch": 36,
        "velocity": 115,
        "trackId": 13,
        "channel": 10
      },
      {
        "startTick": 54288,
        "endTick": 54308,
        "pitch": 55,
        "velocity": 120,
        "trackId": 5,
        "channel": 2
      },
      {
        "startTick": 54288,
        "endTick": 54310,
        "pitch": 72,
        "velocity": 123,
        "trackId": 3,
        "channel": 0
      },
      {
        "startTick": 54288,
        "endTick": 54310,
        "pitch": 55,
        "velocity": 120,
        "trackId": 7,
        "channel": 6
      },
      {
        "startTick": 54288,
        "endTick": 54312,
        "pitch": 48,
        "velocity": 120,
        "trackId": 5,
        "channel": 2
      },
      {
        "startTick": 54288,
        "endTick": 54312,
        "pitch": 79,
        "velocity": 120,
        "trackId": 8,
        "channel": 7
      },
      {
        "startTick": 54288,
        "endTick": 54316,
        "pitch": 76,
        "velocity": 121,
        "trackId": 3,
        "channel": 0
      },
      {
        "startTick": 54288,
        "endTick": 54318,
        "pitch": 64,
        "velocity": 119,
        "trackId": 5,
        "channel": 2
      },
      {
        "startTick": 54288,
        "endTick": 54318,
        "pitch": 52,
        "velocity": 121,
        "trackId": 7,
        "channel": 6
      },
      {
        "startTick": 54288,
        "endTick": 54318,
        "pitch": 76,
        "velocity": 120,
        "trackId": 8,
        "channel": 7
      },
      {
        "startTick": 54296,
        "endTick": 54320,
        "pitch": 81,
        "velocity": 103,
        "trackId": 12,
        "channel": 9
      },
      {
        "startTick": 54334,
        "endTick": 54360,
        "pitch": 43,
        "velocity": 123,
        "trackId": 4,
        "channel": 1
      },
      {
        "startTick": 54336,
        "endTick": 54340,
        "pitch": 43,
        "velocity": 101,
        "trackId": 7,
        "channel": 6
      },
      {
        "startTick": 54336,
        "endTick": 54350,
        "pitch": 48,
        "velocity": 110,
        "trackId": 13,
        "channel": 10
      },
      {
        "startTick": 54336,
        "endTick": 54352,
        "pitch": 36,
        "velocity": 111,
        "trackId": 13,
        "channel": 10
      },
      {
        "startTick": 54336,
        "endTick": 54354,
        "pitch": 76,
        "velocity": 123,
        "trackId": 11,
        "channel": 12
      },
      {
        "startTick": 54336,
        "endTick": 54356,
        "pitch": 48,
        "velocity": 113,
        "trackId": 5,
        "channel": 2
      },
      {
        "startTick": 54336,
        "endTick": 54356,
        "pitch": 55,
        "velocity": 116,
        "trackId": 5,
        "channel": 2
      },
      {
        "startTick": 54336,
        "endTick": 54356,
        "pitch": 64,
        "velocity": 118,
        "trackId": 5,
        "channel": 2
      },
      {
        "startTick": 54336,
        "endTick": 54364,
        "pitch": 72,
        "velocity": 123,
        "trackId": 3,
        "channel": 0
      },
      {
        "startTick": 54336,
        "endTick": 54366,
        "pitch": 76,
        "velocity": 116,
        "trackId": 3,
        "channel": 0
      },
      {
        "startTick": 54336,
        "endTick": 54374,
        "pitch": 52,
        "velocity": 118,
        "trackId": 7,
        "channel": 6
      },
      {
        "startTick": 54336,
        "endTick": 54374,
        "pitch": 76,
        "velocity": 118,
        "trackId": 8,
        "channel": 7
      },
      {
        "startTick": 54336,
        "endTick": 54420,
        "pitch": 55,
        "velocity": 119,
        "trackId": 7,
        "channel": 6
      },
      {
        "startTick": 54336,
        "endTick": 54420,
        "pitch": 79,
        "velocity": 119,
        "trackId": 8,
        "channel": 7
      },
      {
        "startTick": 54340,
        "endTick": 54362,
        "pitch": 81,
        "velocity": 103,
        "trackId": 12,
        "channel": 9
      },
      {
        "startTick": 54382,
        "endTick": 54408,
        "pitch": 45,
        "velocity": 121,
        "trackId": 4,
        "channel": 1
      },
      {
        "startTick": 54384,
        "endTick": 54402,
        "pitch": 36,
        "velocity": 121,
        "trackId": 13,
        "channel": 10
      },
      {
        "startTick": 54384,
        "endTick": 54402,
        "pitch": 48,
        "velocity": 119,
        "trackId": 13,
        "channel": 10
      },
      {
        "startTick": 54384,
        "endTick": 54404,
        "pitch": 50,
        "velocity": 122,
        "trackId": 5,
        "channel": 2
      },
      {
        "startTick": 54384,
        "endTick": 54404,
        "pitch": 57,
        "velocity": 119,
        "trackId": 5,
        "channel": 2
      },
      {
        "startTick": 54384,
        "endTick": 54404,
        "pitch": 65,
        "velocity": 115,
        "trackId": 5,
        "channel": 2
      },
      {
        "startTick": 54384,
        "endTick": 54406,
        "pitch": 74,
        "velocity": 123,
        "trackId": 3,
        "channel": 0
      },
      {
        "startTick": 54384,
        "endTick": 54410,
        "pitch": 77,
        "velocity": 124,
        "trackId": 11,
        "channel": 12
      },
      {
        "startTick": 54384,
        "endTick": 54420,
        "pitch": 77,
        "velocity": 122,
        "trackId": 3,
        "channel": 0
      },
      {
        "startTick": 54384,
        "endTick": 54422,
        "pitch": 53,
        "velocity": 119,
        "trackId": 7,
        "channel": 6
      },
      {
        "startTick": 54384,
        "endTick": 54422,
        "pitch": 77,
        "velocity": 119,
        "trackId": 8,
        "channel": 7
      },
      {
        "startTick": 54390,
        "endTick": 54412,
        "pitch": 81,
        "velocity": 114,
        "trackId": 12,
        "channel": 9
      },
      {
        "startTick": 54430,
        "endTick": 54452,
        "pitch": 43,
        "velocity": 122,
        "trackId": 4,
        "channel": 1
      },
      {
        "startTick": 54432,
        "endTick": 54442,
        "pitch": 48,
        "velocity": 107,
        "trackId": 13,
        "channel": 10
      },
      {
        "startTick": 54432,
        "endTick": 54444,
        "pitch": 36,
        "velocity": 117,
        "trackId": 13,
        "channel": 10
      },
      {
        "startTick": 54432,
        "endTick": 54452,
        "pitch": 48,
        "velocity": 108,
        "trackId": 5,
        "channel": 2
      },
      {
        "startTick": 54432,
        "endTick": 54452,
        "pitch": 55,
        "velocity": 121,
        "trackId": 5,
        "channel": 2
      },
      {
        "startTick": 54432,
        "endTick": 54452,
        "pitch": 64,
        "velocity": 120,
        "trackId": 5,
        "channel": 2
      },
      {
        "startTick": 54432,
        "endTick": 54454,
        "pitch": 76,
        "velocity": 122,
        "trackId": 11,
        "channel": 12
      },
      {
        "startTick": 54432,
        "endTick": 54460,
        "pitch": 72,
        "velocity": 118,
        "trackId": 3,
        "channel": 0
      },
      {
        "startTick": 54432,
        "endTick": 54464,
        "pitch": 52,
        "velocity": 119,
        "trackId": 7,
        "channel": 6
      },
      {
        "startTick": 54432,
        "endTick": 54464,
        "pitch": 55,
        "velocity": 119,
        "trackId": 7,
        "channel": 6
      },
      {
        "startTick": 54432,
        "endTick": 54464,
        "pitch": 76,
        "velocity": 119,
        "trackId": 8,
        "channel": 7
      },
      {
        "startTick": 54432,
        "endTick": 54464,
        "pitch": 79,
        "velocity": 119,
        "trackId": 8,
        "channel": 7
      },
      {
        "startTick": 54432,
        "endTick": 54466,
        "pitch": 76,
        "velocity": 122,
        "trackId": 3,
        "channel": 0
      },
      {
        "startTick": 54438,
        "endTick": 54460,
        "pitch": 81,
        "velocity": 117,
        "trackId": 12,
        "channel": 9
      },
      {
        "startTick": 54478,
        "endTick": 54500,
        "pitch": 41,
        "velocity": 125,
        "trackId": 4,
        "channel": 1
      },
      {
        "startTick": 54480,
        "endTick": 54498,
        "pitch": 48,
        "velocity": 119,
        "trackId": 13,
        "channel": 10
      },
      {
        "startTick": 54480,
        "endTick": 54500,
        "pitch": 71,
        "velocity": 123,
        "trackId": 3,
        "channel": 0
      },
      {
        "startTick": 54480,
        "endTick": 54500,
        "pitch": 74,
        "velocity": 120,
        "trackId": 3,
        "channel": 0
      },
      {
        "startTick": 54480,
        "endTick": 54500,
        "pitch": 47,
        "velocity": 119,
        "trackId": 5,
        "channel": 2
      },
      {
        "startTick": 54480,
        "endTick": 54500,
        "pitch": 53,
        "velocity": 118,
        "trackId": 5,
        "channel": 2
      },
      {
        "startTick": 54480,
        "endTick": 54500,
        "pitch": 62,
        "velocity": 119,
        "trackId": 5,
        "channel": 2
      },
      {
        "startTick": 54480,
        "endTick": 54502,
        "pitch": 36,
        "velocity": 122,
        "trackId": 13,
        "channel": 10
      },
      {
        "startTick": 54480,
        "endTick": 54506,
        "pitch": 74,
        "velocity": 123,
        "trackId": 11,
        "channel": 12
      },
      {
        "startTick": 54480,
        "endTick": 54510,
        "pitch": 50,
        "velocity": 120,
        "trackId": 7,
        "channel": 6
      },
      {
        "startTick": 54480,
        "endTick": 54510,
        "pitch": 74,
        "velocity": 120,
        "trackId": 8,
        "channel": 7
      },
      {
        "startTick": 54480,
        "endTick": 54512,
        "pitch": 55,
        "velocity": 119,
        "trackId": 7,
        "channel": 6
      },
      {
        "startTick": 54480,
        "endTick": 54512,
        "pitch": 79,
        "velocity": 119,
        "trackId": 8,
        "channel": 7
      },
      {
        "startTick": 54486,
        "endTick": 54506,
        "pitch": 81,
        "velocity": 117,
        "trackId": 12,
        "channel": 9
      },
      {
        "startTick": 54526,
        "endTick": 54552,
        "pitch": 40,
        "velocity": 122,
        "trackId": 4,
        "channel": 1
      },
      {
        "startTick": 54528,
        "endTick": 54546,
        "pitch": 60,
        "velocity": 119,
        "trackId": 5,
        "channel": 2
      },
      {
        "startTick": 54528,
        "endTick": 54546,
        "pitch": 36,
        "velocity": 121,
        "trackId": 13,
        "channel": 10
      },
      {
        "startTick": 54528,
        "endTick": 54546,
        "pitch": 48,
        "velocity": 119,
        "trackId": 13,
        "channel": 10
      },
      {
        "startTick": 54528,
        "endTick": 54548,
        "pitch": 45,
        "velocity": 119,
        "trackId": 5,
        "channel": 2
      },
      {
        "startTick": 54528,
        "endTick": 54548,
        "pitch": 52,
        "velocity": 121,
        "trackId": 5,
        "channel": 2
      },
      {
        "startTick": 54528,
        "endTick": 54550,
        "pitch": 69,
        "velocity": 123,
        "trackId": 3,
        "channel": 0
      },
      {
        "startTick": 54528,
        "endTick": 54550,
        "pitch": 72,
        "velocity": 123,
        "trackId": 3,
        "channel": 0
      },
      {
        "startTick": 54528,
        "endTick": 54550,
        "pitch": 72,
        "velocity": 122,
        "trackId": 11,
        "channel": 12
      },
      {
        "startTick": 54528,
        "endTick": 54554,
        "pitch": 48,
        "velocity": 120,
        "trackId": 7,
        "channel": 6
      },
      {
        "startTick": 54528,
        "endTick": 54554,
        "pitch": 72,
        "velocity": 120,
        "trackId": 8,
        "channel": 7
      },
      {
        "startTick": 54528,
        "endTick": 54558,
        "pitch": 55,
        "velocity": 119,
        "trackId": 7,
        "channel": 6
      },
      {
        "startTick": 54528,
        "endTick": 54558,
        "pitch": 79,
        "velocity": 119,
        "trackId": 8,
        "channel": 7
      },
      {
        "startTick": 54534,
        "endTick": 54558,
        "pitch": 81,
        "velocity": 118,
        "trackId": 12,
        "channel": 9
      },
      {
        "startTick": 54574,
        "endTick": 54650,
        "pitch": 38,
        "velocity": 121,
        "trackId": 4,
        "channel": 1
      },
      {
        "startTick": 54576,
        "endTick": 54596,
        "pitch": 36,
        "velocity": 121,
        "trackId": 13,
        "channel": 10
      },
      {
        "startTick": 54576,
        "endTick": 54598,
        "pitch": 48,
        "velocity": 121,
        "trackId": 13,
        "channel": 10
      },
      {
        "startTick": 54576,
        "endTick": 54610,
        "pitch": 67,
        "velocity": 123,
        "trackId": 3,
        "channel": 0
      },
      {
        "startTick": 54576,
        "endTick": 54610,
        "pitch": 71,
        "velocity": 123,
        "trackId": 3,
        "channel": 0
      },
      {
        "startTick": 54576,
        "endTick": 54626,
        "pitch": 47,
        "velocity": 121,
        "trackId": 7,
        "channel": 6
      },
      {
        "startTick": 54576,
        "endTick": 54626,
        "pitch": 71,
        "velocity": 120,
        "trackId": 8,
        "channel": 7
      },
      {
        "startTick": 54576,
        "endTick": 54628,
        "pitch": 71,
        "velocity": 122,
        "trackId": 11,
        "channel": 12
      },
      {
        "startTick": 54576,
        "endTick": 54630,
        "pitch": 55,
        "velocity": 121,
        "trackId": 7,
        "channel": 6
      },
      {
        "startTick": 54576,
        "endTick": 54630,
        "pitch": 79,
        "velocity": 120,
        "trackId": 8,
        "channel": 7
      },
      {
        "startTick": 54576,
        "endTick": 54632,
        "pitch": 50,
        "velocity": 123,
        "trackId": 5,
        "channel": 2
      },
      {
        "startTick": 54576,
        "endTick": 54636,
        "pitch": 43,
        "velocity": 123,
        "trackId": 5,
        "channel": 2
      },
      {
        "startTick": 54576,
        "endTick": 54636,
        "pitch": 59,
        "velocity": 122,
        "trackId": 5,
        "channel": 2
      },
      {
        "startTick": 54584,
        "endTick": 54608,
        "pitch": 81,
        "velocity": 120,
        "trackId": 12,
        "channel": 9
      },
      {
        "startTick": 54672,
        "endTick": 54708,
        "pitch": 62,
        "velocity": 123,
        "trackId": 3,
        "channel": 0
      },
      {
        "startTick": 54672,
        "endTick": 54742,
        "pitch": 67,
        "velocity": 123,
        "trackId": 3,
        "channel": 0
      },
      {
        "startTick": 54672,
        "endTick": 54744,
        "pitch": 55,
        "velocity": 119,
        "trackId": 7,
        "channel": 6
      },
      {
        "startTick": 54672,
        "endTick": 54756,
        "pitch": 71,
        "velocity": 123,
        "trackId": 3,
        "channel": 0
      },
      {
        "startTick": 54672,
        "endTick": 54766,
        "pitch": 55,
        "velocity": 113,
        "trackId": 6,
        "channel": 3
      },
      {
        "startTick": 54674,
        "endTick": 54746,
        "pitch": 79,
        "velocity": 119,
        "trackId": 8,
        "channel": 7
      },
      {
        "startTick": 54766,
        "endTick": 54788,
        "pitch": 38,
        "velocity": 110,
        "trackId": 4,
        "channel": 1
      },
      {
        "startTick": 54766,
        "endTick": 54884,
        "pitch": 36,
        "velocity": 123,
        "trackId": 4,
        "channel": 1
      },
      {
        "startTick": 54766,
        "endTick": 54902,
        "pitch": 35,
        "velocity": 123,
        "trackId": 12,
        "channel": 9
      },
      {
        "startTick": 54766,
        "endTick": 54902,
        "pitch": 49,
        "velocity": 123,
        "trackId": 12,
        "channel": 9
      },
      {
        "startTick": 54768,
        "endTick": 54772,
        "pitch": 59,
        "velocity": 121,
        "trackId": 7,
        "channel": 6
      },
      {
        "startTick": 54768,
        "endTick": 54872,
        "pitch": 64,
        "velocity": 123,
        "trackId": 3,
        "channel": 0
      },
      {
        "startTick": 54768,
        "endTick": 54880,
        "pitch": 67,
        "velocity": 123,
        "trackId": 3,
        "channel": 0
      },
      {
        "startTick": 54768,
        "endTick": 54880,
        "pitch": 72,
        "velocity": 122,
        "trackId": 3,
        "channel": 0
      },
      {
        "startTick": 54768,
        "endTick": 54880,
        "pitch": 55,
        "velocity": 119,
        "trackId": 5,
        "channel": 2
      },
      {
        "startTick": 54768,
        "endTick": 54880,
        "pitch": 60,
        "velocity": 118,
        "trackId": 7,
        "channel": 6
      },
      {
        "startTick": 54768,
        "endTick": 54882,
        "pitch": 48,
        "velocity": 119,
        "trackId": 3,
        "channel": 0
      },
      {
        "startTick": 54768,
        "endTick": 54882,
        "pitch": 60,
        "velocity": 123,
        "trackId": 3,
        "channel": 0
      },
      {
        "startTick": 54768,
        "endTick": 54882,
        "pitch": 60,
        "velocity": 119,
        "trackId": 5,
        "channel": 2
      },
      {
        "startTick": 54768,
        "endTick": 54888,
        "pitch": 55,
        "velocity": 123,
        "trackId": 3,
        "channel": 0
      },
      {
        "startTick": 54768,
        "endTick": 54940,
        "pitch": 52,
        "velocity": 113,
        "trackId": 6,
        "channel": 3
      },
      {
        "startTick": 54768,
        "endTick": 54958,
        "pitch": 48,
        "velocity": 113,
        "trackId": 6,
        "channel": 3
      },
      {
        "startTick": 54768,
        "endTick": 54958,
        "pitch": 60,
        "velocity": 113,
        "trackId": 6,
        "channel": 3
      },
      {
        "startTick": 54772,
        "endTick": 54884,
        "pitch": 84,
        "velocity": 119,
        "trackId": 8,
        "channel": 7
      },
      {
        "startTick": 54774,
        "endTick": 54778,
        "pitch": 83,
        "velocity": 120,
        "trackId": 8,
        "channel": 7
      },
      {
        "startTick": 54774,
        "endTick": 54798,
        "pitch": 81,
        "velocity": 120,
        "trackId": 12,
        "channel": 9
      },
      {
        "startTick": 54864,
        "endTick": 54892,
        "pitch": 81,
        "velocity": 106,
        "trackId": 12,
        "channel": 9
      },
      {
        "startTick": 54906,
        "endTick": 54936,
        "pitch": 84,
        "velocity": 120,
        "trackId": 8,
        "channel": 7
      },
      {
        "startTick": 54910,
        "endTick": 54954,
        "pitch": 36,
        "velocity": 122,
        "trackId": 4,
        "channel": 1
      },
      {
        "startTick": 54910,
        "endTick": 54958,
        "pitch": 35,
        "velocity": 119,
        "trackId": 12,
        "channel": 9
      },
      {
        "startTick": 54910,
        "endTick": 54958,
        "pitch": 57,
        "velocity": 119,
        "trackId": 12,
        "channel": 9
      },
      {
        "startTick": 54912,
        "endTick": 54932,
        "pitch": 36,
        "velocity": 117,
        "trackId": 13,
        "channel": 10
      },
      {
        "startTick": 54912,
        "endTick": 54932,
        "pitch": 48,
        "velocity": 110,
        "trackId": 13,
        "channel": 10
      },
      {
        "startTick": 54912,
        "endTick": 54934,
        "pitch": 48,
        "velocity": 121,
        "trackId": 3,
        "channel": 0
      },
      {
        "startTick": 54912,
        "endTick": 54934,
        "pitch": 64,
        "velocity": 123,
        "trackId": 3,
        "channel": 0
      },
      {
        "startTick": 54912,
        "endTick": 54936,
        "pitch": 55,
        "velocity": 117,
        "trackId": 5,
        "channel": 2
      },
      {
        "startTick": 54912,
        "endTick": 54940,
        "pitch": 60,
        "velocity": 110,
        "trackId": 5,
        "channel": 2
      },
      {
        "startTick": 54912,
        "endTick": 54940,
        "pitch": 60,
        "velocity": 120,
        "trackId": 7,
        "channel": 6
      },
      {
        "startTick": 54912,
        "endTick": 54948,
        "pitch": 60,
        "velocity": 123,
        "trackId": 3,
        "channel": 0
      },
      {
        "startTick": 54912,
        "endTick": 54950,
        "pitch": 72,
        "velocity": 122,
        "trackId": 3,
        "channel": 0
      },
      {
        "startTick": 54912,
        "endTick": 54952,
        "pitch": 67,
        "velocity": 123,
        "trackId": 3,
        "channel": 0
      },
      {
        "startTick": 54912,
        "endTick": 54958,
        "pitch": 55,
        "velocity": 117,
        "trackId": 3,
        "channel": 0
      },
      {
        "startTick": 54958,
        "endTick": 55006,
        "pitch": 35,
        "velocity": 122,
        "trackId": 12,
        "channel": 9
      },
      {
        "startTick": 54958,
        "endTick": 55052,
        "pitch": 33,
        "velocity": 121,
        "trackId": 4,
        "channel": 1
      },
      {
        "startTick": 54958,
        "endTick": 55102,
        "pitch": 52,
        "velocity": 124,
        "trackId": 12,
        "channel": 9
      },
      {
        "startTick": 54960,
        "endTick": 54978,
        "pitch": 36,
        "velocity": 122,
        "trackId": 13,
        "channel": 10
      },
      {
        "startTick": 54960,
        "endTick": 54980,
        "pitch": 53,
        "velocity": 119,
        "trackId": 5,
        "channel": 2
      },
      {
        "startTick": 54960,
        "endTick": 54982,
        "pitch": 57,
        "velocity": 119,
        "trackId": 5,
        "channel": 2
      },
      {
        "startTick": 54960,
        "endTick": 54982,
        "pitch": 48,
        "velocity": 122,
        "trackId": 13,
        "channel": 10
      },
      {
        "startTick": 54960,
        "endTick": 54984,
        "pitch": 81,
        "velocity": 117,
        "trackId": 12,
        "channel": 9
      },
      {
        "startTick": 54960,
        "endTick": 54992,
        "pitch": 65,
        "velocity": 123,
        "trackId": 3,
        "channel": 0
      },
      {
        "startTick": 54960,
        "endTick": 54992,
        "pitch": 60,
        "velocity": 117,
        "trackId": 5,
        "channel": 2
      },
      {
        "startTick": 54960,
        "endTick": 54996,
        "pitch": 72,
        "velocity": 122,
        "trackId": 3,
        "channel": 0
      },
      {
        "startTick": 54960,
        "endTick": 54996,
        "pitch": 60,
        "velocity": 121,
        "trackId": 7,
        "channel": 6
      },
      {
        "startTick": 54960,
        "endTick": 54996,
        "pitch": 84,
        "velocity": 120,
        "trackId": 8,
        "channel": 7
      },
      {
        "startTick": 54960,
        "endTick": 55000,
        "pitch": 69,
        "velocity": 123,
        "trackId": 3,
        "channel": 0
      },
      {
        "startTick": 54960,
        "endTick": 55002,
        "pitch": 53,
        "velocity": 122,
        "trackId": 3,
        "channel": 0
      },
      {
        "startTick": 54960,
        "endTick": 55004,
        "pitch": 60,
        "velocity": 121,
        "trackId": 3,
        "channel": 0
      },
      {
        "startTick": 54960,
        "endTick": 55148,
        "pitch": 53,
        "velocity": 113,
        "trackId": 6,
        "channel": 3
      },
      {
        "startTick": 54960,
        "endTick": 55150,
        "pitch": 57,
        "velocity": 113,
        "trackId": 6,
        "channel": 3
      },
      {
        "startTick": 55054,
        "endTick": 55076,
        "pitch": 33,
        "velocity": 120,
        "trackId": 4,
        "channel": 1
      },
      {
        "startTick": 55054,
        "endTick": 55082,
        "pitch": 84,
        "velocity": 119,
        "trackId": 8,
        "channel": 7
      },
      {
        "startTick": 55056,
        "endTick": 55074,
        "pitch": 53,
        "velocity": 119,
        "trackId": 5,
        "channel": 2
      },
      {
        "startTick": 55056,
        "endTick": 55076,
        "pitch": 65,
        "velocity": 123,
        "trackId": 3,
        "channel": 0
      },
      {
        "startTick": 55056,
        "endTick": 55078,
        "pitch": 69,
        "velocity": 123,
        "trackId": 3,
        "channel": 0
      },
      {
        "startTick": 55056,
        "endTick": 55078,
        "pitch": 57,
        "velocity": 119,
        "trackId": 5,
        "channel": 2
      },
      {
        "startTick": 55056,
        "endTick": 55082,
        "pitch": 60,
        "velocity": 122,
        "trackId": 3,
        "channel": 0
      },
      {
        "startTick": 55056,
        "endTick": 55082,
        "pitch": 60,
        "velocity": 119,
        "trackId": 5,
        "channel": 2
      },
      {
        "startTick": 55056,
        "endTick": 55084,
        "pitch": 53,
        "velocity": 119,
        "trackId": 3,
        "channel": 0
      },
      {
        "startTick": 55056,
        "endTick": 55084,
        "pitch": 60,
        "velocity": 119,
        "trackId": 7,
        "channel": 6
      },
      {
        "startTick": 55056,
        "endTick": 55086,
        "pitch": 72,
        "velocity": 123,
        "trackId": 3,
        "channel": 0
      },
      {
        "startTick": 55066,
        "endTick": 55086,
        "pitch": 81,
        "velocity": 116,
        "trackId": 12,
        "channel": 9
      },
      {
        "startTick": 55098,
        "endTick": 55136,
        "pitch": 84,
        "velocity": 118,
        "trackId": 8,
        "channel": 7
      },
      {
        "startTick": 55102,
        "endTick": 55128,
        "pitch": 33,
        "velocity": 118,
        "trackId": 4,
        "channel": 1
      },
      {
        "startTick": 55104,
        "endTick": 55120,
        "pitch": 57,
        "velocity": 114,
        "trackId": 5,
        "channel": 2
      },
      {
        "startTick": 55104,
        "endTick": 55124,
        "pitch": 65,
        "velocity": 122,
        "trackId": 3,
        "channel": 0
      },
      {
        "startTick": 55104,
        "endTick": 55124,
        "pitch": 53,
        "velocity": 114,
        "trackId": 5,
        "channel": 2
      },
      {
        "startTick": 55104,
        "endTick": 55132,
        "pitch": 60,
        "velocity": 119,
        "trackId": 3,
        "channel": 0
      },
      {
        "startTick": 55104,
        "endTick": 55132,
        "pitch": 60,
        "velocity": 111,
        "trackId": 5,
        "channel": 2
      },
      {
        "startTick": 55104,
        "endTick": 55134,
        "pitch": 69,
        "velocity": 123,
        "trackId": 3,
        "channel": 0
      },
      {
        "startTick": 55104,
        "endTick": 55140,
        "pitch": 72,
        "velocity": 122,
        "trackId": 3,
        "channel": 0
      },
      {
        "startTick": 55104,
        "endTick": 55140,
        "pitch": 60,
        "velocity": 117,
        "trackId": 7,
        "channel": 6
      },
      {
        "startTick": 55104,
        "endTick": 55144,
        "pitch": 53,
        "velocity": 119,
        "trackId": 3,
        "channel": 0
      },
      {
        "startTick": 55148,
        "endTick": 55180,
        "pitch": 83,
        "velocity": 119,
        "trackId": 8,
        "channel": 7
      },
      {
        "startTick": 55150,
        "endTick": 55224,
        "pitch": 35,
        "velocity": 124,
        "trackId": 12,
        "channel": 9
      },
      {
        "startTick": 55150,
        "endTick": 55224,
        "pitch": 55,
        "velocity": 127,
        "trackId": 12,
        "channel": 9
      },
      {
        "startTick": 55150,
        "endTick": 55262,
        "pitch": 35,
        "velocity": 124,
        "trackId": 4,
        "channel": 1
      },
      {
        "startTick": 55152,
        "endTick": 55168,
        "pitch": 48,
        "velocity": 122,
        "trackId": 13,
        "channel": 10
      },
      {
        "startTick": 55152,
        "endTick": 55170,
        "pitch": 52,
        "velocity": 118,
        "trackId": 5,
        "channel": 2
      },
      {
        "startTick": 55152,
        "endTick": 55174,
        "pitch": 64,
        "velocity": 123,
        "trackId": 3,
        "channel": 0
      },
      {
        "startTick": 55152,
        "endTick": 55174,
        "pitch": 56,
        "velocity": 118,
        "trackId": 5,
        "channel": 2
      },
      {
        "startTick": 55152,
        "endTick": 55176,
        "pitch": 36,
        "velocity": 122,
        "trackId": 13,
        "channel": 10
      },
      {
        "startTick": 55152,
        "endTick": 55180,
        "pitch": 52,
        "velocity": 123,
        "trackId": 3,
        "channel": 0
      },
      {
        "startTick": 55152,
        "endTick": 55180,
        "pitch": 59,
        "velocity": 123,
        "trackId": 3,
        "channel": 0
      },
      {
        "startTick": 55152,
        "endTick": 55180,
        "pitch": 68,
        "velocity": 122,
        "trackId": 3,
        "channel": 0
      },
      {
        "startTick": 55152,
        "endTick": 55180,
        "pitch": 59,
        "velocity": 118,
        "trackId": 5,
        "channel": 2
      },
      {
        "startTick": 55152,
        "endTick": 55184,
        "pitch": 71,
        "velocity": 123,
        "trackId": 3,
        "channel": 0
      },
      {
        "startTick": 55152,
        "endTick": 55184,
        "pitch": 59,
        "velocity": 118,
        "trackId": 7,
        "channel": 6
      },
      {
        "startTick": 55152,
        "endTick": 55342,
        "pitch": 52,
        "velocity": 113,
        "trackId": 6,
        "channel": 3
      },
      {
        "startTick": 55152,
        "endTick": 55342,
        "pitch": 56,
        "velocity": 113,
        "trackId": 6,
        "channel": 3
      },
      {
        "startTick": 55152,
        "endTick": 55342,
        "pitch": 59,
        "velocity": 113,
        "trackId": 6,
        "channel": 3
      },
      {
        "startTick": 55158,
        "endTick": 55182,
        "pitch": 81,
        "velocity": 118,
        "trackId": 12,
        "channel": 9
      },
      {
        "startTick": 55198,
        "endTick": 55228,
        "pitch": 83,
        "velocity": 118,
        "trackId": 8,
        "channel": 7
      },
      {
        "startTick": 55200,
        "endTick": 55216,
        "pitch": 52,
        "velocity": 106,
        "trackId": 5,
        "channel": 2
      },
      {
        "startTick": 55200,
        "endTick": 55224,
        "pitch": 64,
        "velocity": 121,
        "trackId": 3,
        "channel": 0
      },
      {
        "startTick": 55200,
        "endTick": 55224,
        "pitch": 56,
        "velocity": 107,
        "trackId": 5,
        "channel": 2
      },
      {
        "startTick": 55200,
        "endTick": 55224,
        "pitch": 59,
        "velocity": 110,
        "trackId": 5,
        "channel": 2
      },
      {
        "startTick": 55200,
        "endTick": 55226,
        "pitch": 52,
        "velocity": 113,
        "trackId": 3,
        "channel": 0
      },
      {
        "startTick": 55200,
        "endTick": 55226,
        "pitch": 59,
        "velocity": 123,
        "trackId": 3,
        "channel": 0
      },
      {
        "startTick": 55200,
        "endTick": 55228,
        "pitch": 71,
        "velocity": 120,
        "trackId": 3,
        "channel": 0
      },
      {
        "startTick": 55200,
        "endTick": 55230,
        "pitch": 68,
        "velocity": 123,
        "trackId": 3,
        "channel": 0
      },
      {
        "startTick": 55200,
        "endTick": 55230,
        "pitch": 59,
        "velocity": 116,
        "trackId": 7,
        "channel": 6
      },
      {
        "startTick": 55246,
        "endTick": 55302,
        "pitch": 49,
        "velocity": 123,
        "trackId": 12,
        "channel": 9
      },
      {
        "startTick": 55246,
        "endTick": 55310,
        "pitch": 35,
        "velocity": 123,
        "trackId": 12,
        "channel": 9
      },
      {
        "startTick": 55248,
        "endTick": 55268,
        "pitch": 64,
        "velocity": 123,
        "trackId": 3,
        "channel": 0
      },
      {
        "startTick": 55248,
        "endTick": 55268,
        "pitch": 52,
        "velocity": 116,
        "trackId": 5,
        "channel": 2
      },
      {
        "startTick": 55248,
        "endTick": 55270,
        "pitch": 52,
        "velocity": 112,
        "trackId": 3,
        "channel": 0
      },
      {
        "startTick": 55248,
        "endTick": 55270,
        "pitch": 59,
        "velocity": 122,
        "trackId": 3,
        "channel": 0
      },
      {
        "startTick": 55248,
        "endTick": 55272,
        "pitch": 68,
        "velocity": 122,
        "trackId": 3,
        "channel": 0
      },
      {
        "startTick": 55248,
        "endTick": 55272,
        "pitch": 71,
        "velocity": 122,
        "trackId": 3,
        "channel": 0
      },
      {
        "startTick": 55248,
        "endTick": 55272,
        "pitch": 56,
        "velocity": 116,
        "trackId": 5,
        "channel": 2
      },
      {
        "startTick": 55248,
        "endTick": 55274,
        "pitch": 59,
        "velocity": 117,
        "trackId": 5,
        "channel": 2
      },
      {
        "startTick": 55248,
        "endTick": 55278,
        "pitch": 59,
        "velocity": 119,
        "trackId": 7,
        "channel": 6
      },
      {
        "startTick": 55248,
        "endTick": 55278,
        "pitch": 83,
        "velocity": 119,
        "trackId": 8,
        "channel": 7
      },
      {
        "startTick": 55252,
        "endTick": 55276,
        "pitch": 81,
        "velocity": 116,
        "trackId": 12,
        "channel": 9
      },
      {
        "startTick": 55294,
        "endTick": 55328,
        "pitch": 35,
        "velocity": 124,
        "trackId": 4,
        "channel": 1
      },
      {
        "startTick": 55296,
        "endTick": 55314,
        "pitch": 36,
        "velocity": 118,
        "trackId": 13,
        "channel": 10
      },
      {
        "startTick": 55296,
        "endTick": 55314,
        "pitch": 48,
        "velocity": 115,
        "trackId": 13,
        "channel": 10
      },
      {
        "startTick": 55296,
        "endTick": 55316,
        "pitch": 59,
        "velocity": 123,
        "trackId": 3,
        "channel": 0
      },
      {
        "startTick": 55296,
        "endTick": 55316,
        "pitch": 52,
        "velocity": 116,
        "trackId": 5,
        "channel": 2
      },
      {
        "startTick": 55296,
        "endTick": 55320,
        "pitch": 64,
        "velocity": 123,
        "trackId": 3,
        "channel": 0
      },
      {
        "startTick": 55296,
        "endTick": 55324,
        "pitch": 52,
        "velocity": 122,
        "trackId": 3,
        "channel": 0
      },
      {
        "startTick": 55296,
        "endTick": 55326,
        "pitch": 56,
        "velocity": 116,
        "trackId": 5,
        "channel": 2
      },
      {
        "startTick": 55296,
        "endTick": 55328,
        "pitch": 59,
        "velocity": 115,
        "trackId": 5,
        "channel": 2
      },
      {
        "startTick": 55296,
        "endTick": 55330,
        "pitch": 68,
        "velocity": 123,
        "trackId": 3,
        "channel": 0
      },
      {
        "startTick": 55296,
        "endTick": 55330,
        "pitch": 71,
        "velocity": 121,
        "trackId": 3,
        "channel": 0
      },
      {
        "startTick": 55296,
        "endTick": 55334,
        "pitch": 59,
        "velocity": 117,
        "trackId": 7,
        "channel": 6
      },
      {
        "startTick": 55296,
        "endTick": 55334,
        "pitch": 83,
        "velocity": 118,
        "trackId": 8,
        "channel": 7
      },
      {
        "startTick": 55342,
        "endTick": 55456,
        "pitch": 40,
        "velocity": 123,
        "trackId": 4,
        "channel": 1
      },
      {
        "startTick": 55342,
        "endTick": 55498,
        "pitch": 57,
        "velocity": 123,
        "trackId": 12,
        "channel": 9
      },
      {
        "startTick": 55342,
        "endTick": 55506,
        "pitch": 35,
        "velocity": 124,
        "trackId": 12,
        "channel": 9
      },
      {
        "startTick": 55344,
        "endTick": 55362,
        "pitch": 36,
        "velocity": 121,
        "trackId": 13,
        "channel": 10
      },
      {
        "startTick": 55344,
        "endTick": 55362,
        "pitch": 48,
        "velocity": 122,
        "trackId": 13,
        "channel": 10
      },
      {
        "startTick": 55344,
        "endTick": 55378,
        "pitch": 52,
        "velocity": 118,
        "trackId": 5,
        "channel": 2
      },
      {
        "startTick": 55344,
        "endTick": 55382,
        "pitch": 69,
        "velocity": 123,
        "trackId": 3,
        "channel": 0
      },
      {
        "startTick": 55344,
        "endTick": 55382,
        "pitch": 57,
        "velocity": 119,
        "trackId": 5,
        "channel": 2
      },
      {
        "startTick": 55344,
        "endTick": 55384,
        "pitch": 72,
        "velocity": 122,
        "trackId": 3,
        "channel": 0
      },
      {
        "startTick": 55344,
        "endTick": 55386,
        "pitch": 60,
        "velocity": 116,
        "trackId": 5,
        "channel": 2
      },
      {
        "startTick": 55344,
        "endTick": 55388,
        "pitch": 45,
        "velocity": 123,
        "trackId": 3,
        "channel": 0
      },
      {
        "startTick": 55344,
        "endTick": 55388,
        "pitch": 64,
        "velocity": 123,
        "trackId": 3,
        "channel": 0
      },
      {
        "startTick": 55344,
        "endTick": 55392,
        "pitch": 57,
        "velocity": 123,
        "trackId": 3,
        "channel": 0
      },
      {
        "startTick": 55344,
        "endTick": 55398,
        "pitch": 52,
        "velocity": 121,
        "trackId": 7,
        "channel": 6
      },
      {
        "startTick": 55344,
        "endTick": 55500,
        "pitch": 57,
        "velocity": 113,
        "trackId": 6,
        "channel": 3
      },
      {
        "startTick": 55344,
        "endTick": 55534,
        "pitch": 60,
        "velocity": 113,
        "trackId": 6,
        "channel": 3
      },
      {
        "startTick": 55346,
        "endTick": 55400,
        "pitch": 76,
        "velocity": 120,
        "trackId": 8,
        "channel": 7
      },
      {
        "startTick": 55348,
        "endTick": 55372,
        "pitch": 81,
        "velocity": 119,
        "trackId": 12,
        "channel": 9
      },
      {
        "startTick": 55440,
        "endTick": 55462,
        "pitch": 45,
        "velocity": 122,
        "trackId": 3,
        "channel": 0
      },
      {
        "startTick": 55440,
        "endTick": 55470,
        "pitch": 64,
        "velocity": 123,
        "trackId": 3,
        "channel": 0
      },
      {
        "startTick": 55440,
        "endTick": 55470,
        "pitch": 69,
        "velocity": 123,
        "trackId": 3,
        "channel": 0
      },
      {
        "startTick": 55440,
        "endTick": 55472,
        "pitch": 57,
        "velocity": 123,
        "trackId": 3,
        "channel": 0
      },
      {
        "startTick": 55440,
        "endTick": 55476,
        "pitch": 72,
        "velocity": 123,
        "trackId": 3,
        "channel": 0
      },
      {
        "startTick": 55440,
        "endTick": 55478,
        "pitch": 52,
        "velocity": 120,
        "trackId": 5,
        "channel": 2
      },
      {
        "startTick": 55440,
        "endTick": 55482,
        "pitch": 60,
        "velocity": 118,
        "trackId": 5,
        "channel": 2
      },
      {
        "startTick": 55440,
        "endTick": 55484,
        "pitch": 57,
        "velocity": 122,
        "trackId": 5,
        "channel": 2
      },
      {
        "startTick": 55440,
        "endTick": 55512,
        "pitch": 52,
        "velocity": 121,
        "trackId": 7,
        "channel": 6
      },
      {
        "startTick": 55442,
        "endTick": 55514,
        "pitch": 76,
        "velocity": 120,
        "trackId": 8,
        "channel": 7
      },
      {
        "startTick": 55450,
        "endTick": 55478,
        "pitch": 81,
        "velocity": 118,
        "trackId": 12,
        "channel": 9
      },
      {
        "startTick": 55486,
        "endTick": 55530,
        "pitch": 40,
        "velocity": 123,
        "trackId": 4,
        "channel": 1
      },
      {
        "startTick": 55534,
        "endTick": 55604,
        "pitch": 35,
        "velocity": 124,
        "trackId": 12,
        "channel": 9
      },
      {
        "startTick": 55534,
        "endTick": 55788,
        "pitch": 36,
        "velocity": 123,
        "trackId": 4,
        "channel": 1
      },
      {
        "startTick": 55534,
        "endTick": 55878,
        "pitch": 49,
        "velocity": 123,
        "trackId": 12,
        "channel": 9
      },
      {
        "startTick": 55536,
        "endTick": 55542,
        "pitch": 55,
        "velocity": 113,
        "trackId": 6,
        "channel": 3
      },
      {
        "startTick": 55536,
        "endTick": 55560,
        "pitch": 48,
        "velocity": 119,
        "trackId": 13,
        "channel": 10
      },
      {
        "startTick": 55536,
        "endTick": 55564,
        "pitch": 36,
        "velocity": 122,
        "trackId": 13,
        "channel": 10
      },
      {
        "startTick": 55536,
        "endTick": 55728,
        "pitch": 50,
        "velocity": 120,
        "trackId": 7,
        "channel": 6
      },
      {
        "startTick": 55536,
        "endTick": 55822,
        "pitch": 48,
        "velocity": 121,
        "trackId": 3,
        "channel": 0
      },
      {
        "startTick": 55536,
        "endTick": 55840,
        "pitch": 58,
        "velocity": 123,
        "trackId": 3,
        "channel": 0
      },
      {
        "startTick": 55536,
        "endTick": 55888,
        "pitch": 60,
        "velocity": 123,
        "trackId": 3,
        "channel": 0
      },
      {
        "startTick": 55536,
        "endTick": 55892,
        "pitch": 67,
        "velocity": 123,
        "trackId": 3,
        "channel": 0
      },
      {
        "startTick": 55536,
        "endTick": 55898,
        "pitch": 64,
        "velocity": 123,
        "trackId": 3,
        "channel": 0
      },
      {
        "startTick": 55536,
        "endTick": 55908,
        "pitch": 70,
        "velocity": 123,
        "trackId": 3,
        "channel": 0
      },
      {
        "startTick": 55536,
        "endTick": 55910,
        "pitch": 52,
        "velocity": 118,
        "trackId": 5,
        "channel": 2
      },
      {
        "startTick": 55536,
        "endTick": 55914,
        "pitch": 48,
        "velocity": 113,
        "trackId": 6,
        "channel": 3
      },
      {
        "startTick": 55536,
        "endTick": 55918,
        "pitch": 58,
        "velocity": 113,
        "trackId": 6,
        "channel": 3
      },
      {
        "startTick": 55536,
        "endTick": 56590,
        "pitch": 58,
        "velocity": 103,
        "trackId": 5,
        "channel": 2
      },
      {
        "startTick": 55536,
        "endTick": 56602,
        "pitch": 55,
        "velocity": 119,
        "trackId": 5,
        "channel": 2
      },
      {
        "startTick": 55538,
        "endTick": 55870,
        "pitch": 74,
        "velocity": 120,
        "trackId": 8,
        "channel": 7
      },
      {
        "startTick": 55546,
        "endTick": 55570,
        "pitch": 81,
        "velocity": 117,
        "trackId": 12,
        "channel": 9
      },
      {
        "startTick": 55630,
        "endTick": 55688,
        "pitch": 35,
        "velocity": 123,
        "trackId": 12,
        "channel": 9
      },
      {
        "startTick": 55632,
        "endTick": 55648,
        "pitch": 36,
        "velocity": 107,
        "trackId": 13,
        "channel": 10
      },
      {
        "startTick": 55632,
        "endTick": 55650,
        "pitch": 48,
        "velocity": 107,
        "trackId": 13,
        "channel": 10
      },
      {
        "startTick": 55636,
        "endTick": 55664,
        "pitch": 81,
        "velocity": 115,
        "trackId": 12,
        "channel": 9
      },
      {
        "startTick": 55726,
        "endTick": 55798,
        "pitch": 35,
        "velocity": 123,
        "trackId": 12,
        "channel": 9
      },
      {
        "startTick": 55728,
        "endTick": 55740,
        "pitch": 36,
        "velocity": 108,
        "trackId": 13,
        "channel": 10
      },
      {
        "startTick": 55728,
        "endTick": 55756,
        "pitch": 81,
        "velocity": 117,
        "trackId": 12,
        "channel": 9
      },
      {
        "startTick": 55776,
        "endTick": 55784,
        "pitch": 48,
        "velocity": 80,
        "trackId": 13,
        "channel": 10
      },
      {
        "startTick": 55822,
        "endTick": 55848,
        "pitch": 81,
        "velocity": 116,
        "trackId": 12,
        "channel": 9
      },
      {
        "startTick": 55822,
        "endTick": 55884,
        "pitch": 35,
        "velocity": 123,
        "trackId": 12,
        "channel": 9
      },
      {
        "startTick": 55822,
        "endTick": 55886,
        "pitch": 36,
        "velocity": 123,
        "trackId": 4,
        "channel": 1
      },
      {
        "startTick": 55824,
        "endTick": 55840,
        "pitch": 36,
        "velocity": 110,
        "trackId": 13,
        "channel": 10
      },
      {
        "startTick": 55824,
        "endTick": 55842,
        "pitch": 48,
        "velocity": 110,
        "trackId": 13,
        "channel": 10
      },
      {
        "startTick": 55872,
        "endTick": 55896,
        "pitch": 48,
        "velocity": 119,
        "trackId": 7,
        "channel": 6
      },
      {
        "startTick": 55872,
        "endTick": 55896,
        "pitch": 72,
        "velocity": 119,
        "trackId": 8,
        "channel": 7
      },
      {
        "startTick": 55898,
        "endTick": 55920,
        "pitch": 74,
        "velocity": 118,
        "trackId": 8,
        "channel": 7
      },
      {
        "startTick": 55914,
        "endTick": 55942,
        "pitch": 81,
        "velocity": 107,
        "trackId": 12,
        "channel": 9
      },
      {
        "startTick": 55918,
        "endTick": 55980,
        "pitch": 35,
        "velocity": 124,
        "trackId": 12,
        "channel": 9
      },
      {
        "startTick": 55918,
        "endTick": 56230,
        "pitch": 36,
        "velocity": 122,
        "trackId": 4,
        "channel": 1
      },
      {
        "startTick": 55918,
        "endTick": 56264,
        "pitch": 57,
        "velocity": 123,
        "trackId": 12,
        "channel": 9
      },
      {
        "startTick": 55920,
        "endTick": 55938,
        "pitch": 36,
        "velocity": 110,
        "trackId": 13,
        "channel": 10
      },
      {
        "startTick": 55920,
        "endTick": 55938,
        "pitch": 48,
        "velocity": 108,
        "trackId": 13,
        "channel": 10
      },
      {
        "startTick": 55920,
        "endTick": 55940,
        "pitch": 72,
        "velocity": 118,
        "trackId": 8,
        "channel": 7
      },
      {
        "startTick": 55920,
        "endTick": 56208,
        "pitch": 64,
        "velocity": 123,
        "trackId": 3,
        "channel": 0
      },
      {
        "startTick": 55920,
        "endTick": 56212,
        "pitch": 67,
        "velocity": 123,
        "trackId": 3,
        "channel": 0
      },
      {
        "startTick": 55920,
        "endTick": 56216,
        "pitch": 52,
        "velocity": 123,
        "trackId": 3,
        "channel": 0
      },
      {
        "startTick": 55920,
        "endTick": 56222,
        "pitch": 60,
        "velocity": 123,
        "trackId": 3,
        "channel": 0
      },
      {
        "startTick": 55920,
        "endTick": 56222,
        "pitch": 72,
        "velocity": 123,
        "trackId": 3,
        "channel": 0
      },
      {
        "startTick": 55920,
        "endTick": 56224,
        "pitch": 70,
        "velocity": 123,
        "trackId": 3,
        "channel": 0
      },
      {
        "startTick": 55920,
        "endTick": 56226,
        "pitch": 58,
        "velocity": 123,
        "trackId": 3,
        "channel": 0
      },
      {
        "startTick": 55920,
        "endTick": 56268,
        "pitch": 64,
        "velocity": 113,
        "trackId": 6,
        "channel": 3
      },
      {
        "startTick": 55920,
        "endTick": 56292,
        "pitch": 67,
        "velocity": 113,
        "trackId": 6,
        "channel": 3
      },
      {
        "startTick": 55920,
        "endTick": 56302,
        "pitch": 52,
        "velocity": 113,
        "trackId": 6,
        "channel": 3
      },
      {
        "startTick": 55920,
        "endTick": 56308,
        "pitch": 64,
        "velocity": 116,
        "trackId": 5,
        "channel": 2
      },
      {
        "startTick": 55920,
        "endTick": 56612,
        "pitch": 60,
        "velocity": 107,
        "trackId": 5,
        "channel": 2
      },
      {
        "startTick": 55944,
        "endTick": 55962,
        "pitch": 74,
        "velocity": 119,
        "trackId": 8,
        "channel": 7
      },
      {
        "startTick": 55964,
        "endTick": 55988,
        "pitch": 72,
        "velocity": 118,
        "trackId": 8,
        "channel": 7
      },
      {
        "startTick": 55986,
        "endTick": 55988,
        "pitch": 74,
        "velocity": 119,
        "trackId": 8,
        "channel": 7
      },
      {
        "startTick": 56008,
        "endTick": 56032,
        "pitch": 72,
        "velocity": 117,
        "trackId": 8,
        "channel": 7
      },
      {
        "startTick": 56014,
        "endTick": 56038,
        "pitch": 81,
        "velocity": 110,
        "trackId": 12,
        "channel": 9
      },
      {
        "startTick": 56014,
        "endTick": 56072,
        "pitch": 35,
        "velocity": 123,
        "trackId": 12,
        "channel": 9
      },
      {
        "startTick": 56016,
        "endTick": 56034,
        "pitch": 36,
        "velocity": 110,
        "trackId": 13,
        "channel": 10
      },
      {
        "startTick": 56016,
        "endTick": 56034,
        "pitch": 48,
        "velocity": 105,
        "trackId": 13,
        "channel": 10
      },
      {
        "startTick": 56030,
        "endTick": 56046,
        "pitch": 74,
        "velocity": 119,
        "trackId": 8,
        "channel": 7
      },
      {
        "startTick": 56052,
        "endTick": 56074,
        "pitch": 72,
        "velocity": 117,
        "trackId": 8,
        "channel": 7
      },
      {
        "startTick": 56072,
        "endTick": 56092,
        "pitch": 74,
        "velocity": 119,
        "trackId": 8,
        "channel": 7
      },
      {
        "startTick": 56096,
        "endTick": 56118,
        "pitch": 72,
        "velocity": 118,
        "trackId": 8,
        "channel": 7
      },
      {
        "startTick": 56110,
        "endTick": 56134,
        "pitch": 81,
        "velocity": 111,
        "trackId": 12,
        "channel": 9
      },
      {
        "startTick": 56110,
        "endTick": 56178,
        "pitch": 35,
        "velocity": 124,
        "trackId": 12,
        "channel": 9
      },
      {
        "startTick": 56112,
        "endTick": 56130,
        "pitch": 48,
        "velocity": 112,
        "trackId": 13,
        "channel": 10
      },
      {
        "startTick": 56112,
        "endTick": 56132,
        "pitch": 36,
        "velocity": 112,
        "trackId": 13,
        "channel": 10
      },
      {
        "startTick": 56118,
        "endTick": 56138,
        "pitch": 74,
        "velocity": 119,
        "trackId": 8,
        "channel": 7
      },
      {
        "startTick": 56142,
        "endTick": 56164,
        "pitch": 72,
        "velocity": 118,
        "trackId": 8,
        "channel": 7
      },
      {
        "startTick": 56162,
        "endTick": 56182,
        "pitch": 74,
        "velocity": 119,
        "trackId": 8,
        "channel": 7
      },
      {
        "startTick": 56188,
        "endTick": 56210,
        "pitch": 72,
        "velocity": 119,
        "trackId": 8,
        "channel": 7
      },
      {
        "startTick": 56206,
        "endTick": 56230,
        "pitch": 81,
        "velocity": 112,
        "trackId": 12,
        "channel": 9
      },
      {
        "startTick": 56206,
        "endTick": 56272,
        "pitch": 35,
        "velocity": 123,
        "trackId": 12,
        "channel": 9
      },
      {
        "startTick": 56208,
        "endTick": 56222,
        "pitch": 36,
        "velocity": 116,
        "trackId": 13,
        "channel": 10
      },
      {
        "startTick": 56208,
        "endTick": 56224,
        "pitch": 74,
        "velocity": 118,
        "trackId": 8,
        "channel": 7
      },
      {
        "startTick": 56208,
        "endTick": 56224,
        "pitch": 48,
        "velocity": 119,
        "trackId": 13,
        "channel": 10
      },
      {
        "startTick": 56230,
        "endTick": 56252,
        "pitch": 72,
        "velocity": 118,
        "trackId": 8,
        "channel": 7
      },
      {
        "startTick": 56252,
        "endTick": 56272,
        "pitch": 74,
        "velocity": 119,
        "trackId": 8,
        "channel": 7
      },
      {
        "startTick": 56254,
        "endTick": 56280,
        "pitch": 36,
        "velocity": 122,
        "trackId": 4,
        "channel": 1
      },
      {
        "startTick": 56278,
        "endTick": 56302,
        "pitch": 72,
        "velocity": 119,
        "trackId": 8,
        "channel": 7
      },
      {
        "startTick": 56298,
        "endTick": 56322,
        "pitch": 81,
        "velocity": 113,
        "trackId": 12,
        "channel": 9
      },
      {
        "startTick": 56300,
        "endTick": 56318,
        "pitch": 74,
        "velocity": 119,
        "trackId": 8,
        "channel": 7
      },
      {
        "startTick": 56302,
        "endTick": 56350,
        "pitch": 36,
        "velocity": 123,
        "trackId": 4,
        "channel": 1
      },
      {
        "startTick": 56302,
        "endTick": 56370,
        "pitch": 35,
        "velocity": 123,
        "trackId": 12,
        "channel": 9
      },
      {
        "startTick": 56302,
        "endTick": 56662,
        "pitch": 49,
        "velocity": 123,
        "trackId": 12,
        "channel": 9
      },
      {
        "startTick": 56304,
        "endTick": 56596,
        "pitch": 60,
        "velocity": 123,
        "trackId": 3,
        "channel": 0
      },
      {
        "startTick": 56304,
        "endTick": 56596,
        "pitch": 67,
        "velocity": 123,
        "trackId": 3,
        "channel": 0
      },
      {
        "startTick": 56304,
        "endTick": 56598,
        "pitch": 55,
        "velocity": 123,
        "trackId": 3,
        "channel": 0
      },
      {
        "startTick": 56304,
        "endTick": 56600,
        "pitch": 70,
        "velocity": 123,
        "trackId": 3,
        "channel": 0
      },
      {
        "startTick": 56304,
        "endTick": 56606,
        "pitch": 72,
        "velocity": 123,
        "trackId": 3,
        "channel": 0
      },
      {
        "startTick": 56304,
        "endTick": 56610,
        "pitch": 64,
        "velocity": 123,
        "trackId": 3,
        "channel": 0
      },
      {
        "startTick": 56304,
        "endTick": 56612,
        "pitch": 58,
        "velocity": 123,
        "trackId": 3,
        "channel": 0
      },
      {
        "startTick": 56304,
        "endTick": 56612,
        "pitch": 76,
        "velocity": 123,
        "trackId": 3,
        "channel": 0
      },
      {
        "startTick": 56304,
        "endTick": 56686,
        "pitch": 55,
        "velocity": 113,
        "trackId": 6,
        "channel": 3
      },
      {
        "startTick": 56304,
        "endTick": 56686,
        "pitch": 67,
        "velocity": 113,
        "trackId": 6,
        "channel": 3
      },
      {
        "startTick": 56304,
        "endTick": 56698,
        "pitch": 67,
        "velocity": 113,
        "trackId": 5,
        "channel": 2
      },
      {
        "startTick": 56324,
        "endTick": 56344,
        "pitch": 72,
        "velocity": 118,
        "trackId": 8,
        "channel": 7
      },
      {
        "startTick": 56344,
        "endTick": 56360,
        "pitch": 74,
        "velocity": 119,
        "trackId": 8,
        "channel": 7
      },
      {
        "startTick": 56352,
        "endTick": 56356,
        "pitch": 47,
        "velocity": 74,
        "trackId": 13,
        "channel": 10
      },
      {
        "startTick": 56352,
        "endTick": 56366,
        "pitch": 48,
        "velocity": 107,
        "trackId": 13,
        "channel": 10
      },
      {
        "startTick": 56368,
        "endTick": 56388,
        "pitch": 72,
        "velocity": 118,
        "trackId": 8,
        "channel": 7
      },
      {
        "startTick": 56388,
        "endTick": 56408,
        "pitch": 74,
        "velocity": 119,
        "trackId": 8,
        "channel": 7
      },
      {
        "startTick": 56398,
        "endTick": 56422,
        "pitch": 81,
        "velocity": 112,
        "trackId": 12,
        "channel": 9
      },
      {
        "startTick": 56398,
        "endTick": 56466,
        "pitch": 35,
        "velocity": 122,
        "trackId": 12,
        "channel": 9
      },
      {
        "startTick": 56400,
        "endTick": 56402,
        "pitch": 48,
        "velocity": 98,
        "trackId": 13,
        "channel": 10
      },
      {
        "startTick": 56414,
        "endTick": 56434,
        "pitch": 72,
        "velocity": 118,
        "trackId": 8,
        "channel": 7
      },
      {
        "startTick": 56434,
        "endTick": 56454,
        "pitch": 74,
        "velocity": 119,
        "trackId": 8,
        "channel": 7
      },
      {
        "startTick": 56448,
        "endTick": 56460,
        "pitch": 48,
        "velocity": 100,
        "trackId": 13,
        "channel": 10
      },
      {
        "startTick": 56460,
        "endTick": 56462,
        "pitch": 72,
        "velocity": 118,
        "trackId": 8,
        "channel": 7
      },
      {
        "startTick": 56480,
        "endTick": 56500,
        "pitch": 74,
        "velocity": 119,
        "trackId": 8,
        "channel": 7
      },
      {
        "startTick": 56494,
        "endTick": 56518,
        "pitch": 81,
        "velocity": 111,
        "trackId": 12,
        "channel": 9
      },
      {
        "startTick": 56494,
        "endTick": 56562,
        "pitch": 35,
        "velocity": 123,
        "trackId": 12,
        "channel": 9
      },
      {
        "startTick": 56496,
        "endTick": 56510,
        "pitch": 48,
        "velocity": 91,
        "trackId": 13,
        "channel": 10
      },
      {
        "startTick": 56506,
        "endTick": 56526,
        "pitch": 72,
        "velocity": 119,
        "trackId": 8,
        "channel": 7
      },
      {
        "startTick": 56528,
        "endTick": 56546,
        "pitch": 74,
        "velocity": 118,
        "trackId": 8,
        "channel": 7
      },
      {
        "startTick": 56544,
        "endTick": 56558,
        "pitch": 48,
        "velocity": 122,
        "trackId": 13,
        "channel": 10
      },
      {
        "startTick": 56550,
        "endTick": 56574,
        "pitch": 72,
        "velocity": 119,
        "trackId": 8,
        "channel": 7
      },
      {
        "startTick": 56574,
        "endTick": 56590,
        "pitch": 74,
        "velocity": 118,
        "trackId": 8,
        "channel": 7
      },
      {
        "startTick": 56590,
        "endTick": 56612,
        "pitch": 72,
        "velocity": 117,
        "trackId": 8,
        "channel": 7
      },
      {
        "startTick": 56590,
        "endTick": 56614,
        "pitch": 81,
        "velocity": 111,
        "trackId": 12,
        "channel": 9
      },
      {
        "startTick": 56590,
        "endTick": 56662,
        "pitch": 35,
        "velocity": 123,
        "trackId": 12,
        "channel": 9
      },
      {
        "startTick": 56592,
        "endTick": 56606,
        "pitch": 48,
        "velocity": 118,
        "trackId": 13,
        "channel": 10
      },
      {
        "startTick": 56612,
        "endTick": 56630,
        "pitch": 74,
        "velocity": 117,
        "trackId": 8,
        "channel": 7
      },
      {
        "startTick": 56626,
        "endTick": 56650,
        "pitch": 72,
        "velocity": 117,
        "trackId": 8,
        "channel": 7
      },
      {
        "startTick": 56640,
        "endTick": 56654,
        "pitch": 48,
        "velocity": 117,
        "trackId": 13,
        "channel": 10
      },
      {
        "startTick": 56654,
        "endTick": 56676,
        "pitch": 71,
        "velocity": 111,
        "trackId": 8,
        "channel": 7
      },
      {
        "startTick": 56674,
        "endTick": 57096,
        "pitch": 72,
        "velocity": 119,
        "trackId": 8,
        "channel": 7
      },
      {
        "startTick": 56676,
        "endTick": 56700,
        "pitch": 81,
        "velocity": 115,
        "trackId": 12,
        "channel": 9
      },
      {
        "startTick": 56686,
        "endTick": 56750,
        "pitch": 35,
        "velocity": 124,
        "trackId": 12,
        "channel": 9
      },
      {
        "startTick": 56686,
        "endTick": 57092,
        "pitch": 49,
        "velocity": 124,
        "trackId": 12,
        "channel": 9
      },
      {
        "startTick": 56688,
        "endTick": 57002,
        "pitch": 84,
        "velocity": 115,
        "trackId": 5,
        "channel": 2
      },
      {
        "startTick": 56688,
        "endTick": 57012,
        "pitch": 60,
        "velocity": 119,
        "trackId": 5,
        "channel": 2
      },
      {
        "startTick": 56688,
        "endTick": 57012,
        "pitch": 72,
        "velocity": 113,
        "trackId": 5,
        "channel": 2
      },
      {
        "startTick": 56688,
        "endTick": 57072,
        "pitch": 64,
        "velocity": 113,
        "trackId": 6,
        "channel": 3
      },
      {
        "startTick": 56688,
        "endTick": 57072,
        "pitch": 72,
        "velocity": 113,
        "trackId": 6,
        "channel": 3
      },
      {
        "startTick": 56688,
        "endTick": 57076,
        "pitch": 70,
        "velocity": 113,
        "trackId": 6,
        "channel": 3
      },
      {
        "startTick": 56688,
        "endTick": 57186,
        "pitch": 72,
        "velocity": 123,
        "trackId": 3,
        "channel": 0
      },
      {
        "startTick": 56688,
        "endTick": 57188,
        "pitch": 76,
        "velocity": 123,
        "trackId": 3,
        "channel": 0
      },
      {
        "startTick": 56688,
        "endTick": 57188,
        "pitch": 82,
        "velocity": 123,
        "trackId": 3,
        "channel": 0
      },
      {
        "startTick": 56688,
        "endTick": 57190,
        "pitch": 84,
        "velocity": 123,
        "trackId": 3,
        "channel": 0
      },
      {
        "startTick": 56688,
        "endTick": 57192,
        "pitch": 67,
        "velocity": 123,
        "trackId": 3,
        "channel": 0
      },
      {
        "startTick": 56688,
        "endTick": 57194,
        "pitch": 70,
        "velocity": 123,
        "trackId": 3,
        "channel": 0
      },
      {
        "startTick": 56688,
        "endTick": 57196,
        "pitch": 60,
        "velocity": 123,
        "trackId": 3,
        "channel": 0
      },
      {
        "startTick": 56714,
        "endTick": 56716,
        "pitch": 81,
        "velocity": 102,
        "trackId": 12,
        "channel": 9
      },
      {
        "startTick": 56736,
        "endTick": 56738,
        "pitch": 48,
        "velocity": 90,
        "trackId": 13,
        "channel": 10
      },
      {
        "startTick": 56740,
        "endTick": 56756,
        "pitch": 81,
        "velocity": 112,
        "trackId": 12,
        "channel": 9
      },
      {
        "startTick": 56774,
        "endTick": 56776,
        "pitch": 81,
        "velocity": 105,
        "trackId": 12,
        "channel": 9
      },
      {
        "startTick": 56784,
        "endTick": 56786,
        "pitch": 48,
        "velocity": 89,
        "trackId": 13,
        "channel": 10
      },
      {
        "startTick": 56804,
        "endTick": 56812,
        "pitch": 81,
        "velocity": 115,
        "trackId": 12,
        "channel": 9
      },
      {
        "startTick": 56832,
        "endTick": 56846,
        "pitch": 48,
        "velocity": 86,
        "trackId": 13,
        "channel": 10
      },
      {
        "startTick": 56880,
        "endTick": 56906,
        "pitch": 48,
        "velocity": 123,
        "trackId": 13,
        "channel": 10
      },
      {
        "startTick": 56928,
        "endTick": 56954,
        "pitch": 48,
        "velocity": 86,
        "trackId": 13,
        "channel": 10
      },
      {
        "startTick": 56976,
        "endTick": 57000,
        "pitch": 48,
        "velocity": 91,
        "trackId": 13,
        "channel": 10
      },
      {
        "startTick": 57022,
        "endTick": 57046,
        "pitch": 40,
        "velocity": 119,
        "trackId": 12,
        "channel": 9
      },
      {
        "startTick": 57024,
        "endTick": 57052,
        "pitch": 48,
        "velocity": 123,
        "trackId": 13,
        "channel": 10
      },
      {
        "startTick": 57072,
        "endTick": 57092,
        "pitch": 48,
        "velocity": 97,
        "trackId": 13,
        "channel": 10
      },
      {
        "startTick": 57086,
        "endTick": 57110,
        "pitch": 40,
        "velocity": 122,
        "trackId": 12,
        "channel": 9
      },
      {
        "startTick": 57120,
        "endTick": 57144,
        "pitch": 48,
        "velocity": 123,
        "trackId": 13,
        "channel": 10
      },
      {
        "startTick": 57150,
        "endTick": 57174,
        "pitch": 45,
        "velocity": 122,
        "trackId": 12,
        "channel": 9
      },
      {
        "startTick": 57168,
        "endTick": 57194,
        "pitch": 48,
        "velocity": 122,
        "trackId": 13,
        "channel": 10
      },
      {
        "startTick": 57214,
        "endTick": 57294,
        "pitch": 35,
        "velocity": 121,
        "trackId": 12,
        "channel": 9
      },
      {
        "startTick": 57214,
        "endTick": 57340,
        "pitch": 41,
        "velocity": 125,
        "trackId": 4,
        "channel": 1
      },
      {
        "startTick": 57214,
        "endTick": 59160,
        "pitch": 49,
        "velocity": 122,
        "trackId": 12,
        "channel": 9
      },
      {
        "startTick": 57216,
        "endTick": 57348,
        "pitch": 65,
        "velocity": 123,
        "trackId": 3,
        "channel": 0
      },
      {
        "startTick": 57216,
        "endTick": 57354,
        "pitch": 53,
        "velocity": 122,
        "trackId": 9,
        "channel": 8
      },
      {
        "startTick": 57264,
        "endTick": 57290,
        "pitch": 48,
        "velocity": 123,
        "trackId": 13,
        "channel": 10
      },
      {
        "startTick": 57312,
        "endTick": 57450,
        "pitch": 53,
        "velocity": 117,
        "trackId": 10,
        "channel": 11
      },
      {
        "startTick": 57342,
        "endTick": 57456,
        "pitch": 33,
        "velocity": 124,
        "trackId": 4,
        "channel": 1
      },
      {
        "startTick": 57342,
        "endTick": 57540,
        "pitch": 35,
        "velocity": 120,
        "trackId": 12,
        "channel": 9
      },
      {
        "startTick": 57344,
        "endTick": 57472,
        "pitch": 45,
        "velocity": 122,
        "trackId": 9,
        "channel": 8
      },
      {
        "startTick": 57344,
        "endTick": 57478,
        "pitch": 57,
        "velocity": 123,
        "trackId": 3,
        "channel": 0
      },
      {
        "startTick": 57406,
        "endTick": 57504,
        "pitch": 51,
        "velocity": 122,
        "trackId": 12,
        "channel": 9
      },
      {
        "startTick": 57406,
        "endTick": 57636,
        "pitch": 42,
        "velocity": 121,
        "trackId": 12,
        "channel": 9
      },
      {
        "startTick": 57406,
        "endTick": 57732,
        "pitch": 40,
        "velocity": 121,
        "trackId": 12,
        "channel": 9
      },
      {
        "startTick": 57440,
        "endTick": 57568,
        "pitch": 45,
        "velocity": 117,
        "trackId": 10,
        "channel": 11
      },
      {
        "startTick": 57470,
        "endTick": 57590,
        "pitch": 34,
        "velocity": 124,
        "trackId": 4,
        "channel": 1
      },
      {
        "startTick": 57472,
        "endTick": 57584,
        "pitch": 58,
        "velocity": 122,
        "trackId": 3,
        "channel": 0
      },
      {
        "startTick": 57472,
        "endTick": 57594,
        "pitch": 46,
        "velocity": 121,
        "trackId": 9,
        "channel": 8
      },
      {
        "startTick": 57568,
        "endTick": 57690,
        "pitch": 46,
        "velocity": 115,
        "trackId": 10,
        "channel": 11
      },
      {
        "startTick": 57598,
        "endTick": 57688,
        "pitch": 35,
        "velocity": 121,
        "trackId": 12,
        "channel": 9
      },
      {
        "startTick": 57598,
        "endTick": 57692,
        "pitch": 51,
        "velocity": 122,
        "trackId": 12,
        "channel": 9
      },
      {
        "startTick": 57598,
        "endTick": 57730,
        "pitch": 35,
        "velocity": 125,
        "trackId": 4,
        "channel": 1
      },
      {
        "startTick": 57600,
        "endTick": 57704,
        "pitch": 59,
        "velocity": 123,
        "trackId": 3,
        "channel": 0
      },
      {
        "startTick": 57600,
        "endTick": 57724,
        "pitch": 47,
        "velocity": 121,
        "trackId": 9,
        "channel": 8
      },
      {
        "startTick": 57696,
        "endTick": 57820,
        "pitch": 47,
        "velocity": 116,
        "trackId": 10,
        "channel": 11
      },
      {
        "startTick": 57726,
        "endTick": 57800,
        "pitch": 36,
        "velocity": 124,
        "trackId": 4,
        "channel": 1
      },
      {
        "startTick": 57726,
        "endTick": 57934,
        "pitch": 35,
        "velocity": 120,
        "trackId": 12,
        "channel": 9
      },
      {
        "startTick": 57728,
        "endTick": 57780,
        "pitch": 60,
        "velocity": 122,
        "trackId": 3,
        "channel": 0
      },
      {
        "startTick": 57728,
        "endTick": 57804,
        "pitch": 48,
        "velocity": 121,
        "trackId": 9,
        "channel": 8
      },
      {
        "startTick": 57790,
        "endTick": 57848,
        "pitch": 38,
        "velocity": 119,
        "trackId": 4,
        "channel": 1
      },
      {
        "startTick": 57790,
        "endTick": 57888,
        "pitch": 51,
        "velocity": 121,
        "trackId": 12,
        "channel": 9
      },
      {
        "startTick": 57790,
        "endTick": 58050,
        "pitch": 42,
        "velocity": 121,
        "trackId": 12,
        "channel": 9
      },
      {
        "startTick": 57790,
        "endTick": 58128,
        "pitch": 40,
        "velocity": 121,
        "trackId": 12,
        "channel": 9
      },
      {
        "startTick": 57792,
        "endTick": 57844,
        "pitch": 62,
        "velocity": 123,
        "trackId": 3,
        "channel": 0
      },
      {
        "startTick": 57792,
        "endTick": 57858,
        "pitch": 50,
        "velocity": 119,
        "trackId": 9,
        "channel": 8
      },
      {
        "startTick": 57824,
        "endTick": 57900,
        "pitch": 48,
        "velocity": 115,
        "trackId": 10,
        "channel": 11
      },
      {
        "startTick": 57854,
        "endTick": 57904,
        "pitch": 40,
        "velocity": 120,
        "trackId": 4,
        "channel": 1
      },
      {
        "startTick": 57856,
        "endTick": 57916,
        "pitch": 64,
        "velocity": 123,
        "trackId": 3,
        "channel": 0
      },
      {
        "startTick": 57856,
        "endTick": 57944,
        "pitch": 52,
        "velocity": 121,
        "trackId": 9,
        "channel": 8
      },
      {
        "startTick": 57888,
        "endTick": 57954,
        "pitch": 50,
        "velocity": 113,
        "trackId": 10,
        "channel": 11
      },
      {
        "startTick": 57918,
        "endTick": 57952,
        "pitch": 41,
        "velocity": 123,
        "trackId": 4,
        "channel": 1
      },
      {
        "startTick": 57920,
        "endTick": 57962,
        "pitch": 53,
        "velocity": 121,
        "trackId": 9,
        "channel": 8
      },
      {
        "startTick": 57920,
        "endTick": 57968,
        "pitch": 65,
        "velocity": 122,
        "trackId": 3,
        "channel": 0
      },
      {
        "startTick": 57952,
        "endTick": 58040,
        "pitch": 52,
        "velocity": 116,
        "trackId": 10,
        "channel": 11
      },
      {
        "startTick": 57982,
        "endTick": 58070,
        "pitch": 35,
        "velocity": 120,
        "trackId": 12,
        "channel": 9
      },
      {
        "startTick": 57982,
        "endTick": 58094,
        "pitch": 51,
        "velocity": 122,
        "trackId": 12,
        "channel": 9
      },
      {
        "startTick": 57982,
        "endTick": 58122,
        "pitch": 41,
        "velocity": 124,
        "trackId": 4,
        "channel": 1
      },
      {
        "startTick": 57984,
        "endTick": 58116,
        "pitch": 65,
        "velocity": 122,
        "trackId": 3,
        "channel": 0
      },
      {
        "startTick": 57984,
        "endTick": 58120,
        "pitch": 53,
        "velocity": 121,
        "trackId": 9,
        "channel": 8
      },
      {
        "startTick": 58016,
        "endTick": 58058,
        "pitch": 53,
        "velocity": 115,
        "trackId": 10,
        "channel": 11
      },
      {
        "startTick": 58080,
        "endTick": 58216,
        "pitch": 53,
        "velocity": 115,
        "trackId": 10,
        "channel": 11
      },
      {
        "startTick": 58110,
        "endTick": 58260,
        "pitch": 33,
        "velocity": 124,
        "trackId": 4,
        "channel": 1
      },
      {
        "startTick": 58110,
        "endTick": 58320,
        "pitch": 35,
        "velocity": 121,
        "trackId": 12,
        "channel": 9
      },
      {
        "startTick": 58112,
        "endTick": 58248,
        "pitch": 57,
        "velocity": 123,
        "trackId": 3,
        "channel": 0
      },
      {
        "startTick": 58112,
        "endTick": 58262,
        "pitch": 45,
        "velocity": 121,
        "trackId": 9,
        "channel": 8
      },
      {
        "startTick": 58174,
        "endTick": 58284,
        "pitch": 51,
        "velocity": 122,
        "trackId": 12,
        "channel": 9
      },
      {
        "startTick": 58174,
        "endTick": 58454,
        "pitch": 42,
        "velocity": 121,
        "trackId": 12,
        "channel": 9
      },
      {
        "startTick": 58174,
        "endTick": 58504,
        "pitch": 40,
        "velocity": 123,
        "trackId": 12,
        "channel": 9
      },
      {
        "startTick": 58208,
        "endTick": 58358,
        "pitch": 45,
        "velocity": 115,
        "trackId": 10,
        "channel": 11
      },
      {
        "startTick": 58238,
        "endTick": 58336,
        "pitch": 34,
        "velocity": 121,
        "trackId": 4,
        "channel": 1
      },
      {
        "startTick": 58240,
        "endTick": 58362,
        "pitch": 58,
        "velocity": 122,
        "trackId": 3,
        "channel": 0
      },
      {
        "startTick": 58240,
        "endTick": 58362,
        "pitch": 46,
        "velocity": 121,
        "trackId": 9,
        "channel": 8
      },
      {
        "startTick": 58336,
        "endTick": 58458,
        "pitch": 46,
        "velocity": 115,
        "trackId": 10,
        "channel": 11
      },
      {
        "startTick": 58366,
        "endTick": 58426,
        "pitch": 35,
        "velocity": 121,
        "trackId": 4,
        "channel": 1
      },
      {
        "startTick": 58366,
        "endTick": 58444,
        "pitch": 35,
        "velocity": 121,
        "trackId": 12,
        "channel": 9
      },
      {
        "startTick": 58366,
        "endTick": 58470,
        "pitch": 51,
        "velocity": 121,
        "trackId": 12,
        "channel": 9
      },
      {
        "startTick": 58368,
        "endTick": 58450,
        "pitch": 59,
        "velocity": 123,
        "trackId": 3,
        "channel": 0
      },
      {
        "startTick": 58368,
        "endTick": 58450,
        "pitch": 47,
        "velocity": 120,
        "trackId": 9,
        "channel": 8
      },
      {
        "startTick": 58430,
        "endTick": 58482,
        "pitch": 36,
        "velocity": 118,
        "trackId": 4,
        "channel": 1
      },
      {
        "startTick": 58432,
        "endTick": 58478,
        "pitch": 60,
        "velocity": 123,
        "trackId": 3,
        "channel": 0
      },
      {
        "startTick": 58432,
        "endTick": 58484,
        "pitch": 48,
        "velocity": 117,
        "trackId": 9,
        "channel": 8
      },
      {
        "startTick": 58464,
        "endTick": 58546,
        "pitch": 47,
        "velocity": 114,
        "trackId": 10,
        "channel": 11
      },
      {
        "startTick": 58494,
        "endTick": 58556,
        "pitch": 38,
        "velocity": 118,
        "trackId": 4,
        "channel": 1
      },
      {
        "startTick": 58494,
        "endTick": 58586,
        "pitch": 35,
        "velocity": 121,
        "trackId": 12,
        "channel": 9
      },
      {
        "startTick": 58496,
        "endTick": 58564,
        "pitch": 50,
        "velocity": 121,
        "trackId": 9,
        "channel": 8
      },
      {
        "startTick": 58496,
        "endTick": 58580,
        "pitch": 62,
        "velocity": 123,
        "trackId": 3,
        "channel": 0
      },
      {
        "startTick": 58528,
        "endTick": 58580,
        "pitch": 48,
        "velocity": 110,
        "trackId": 10,
        "channel": 11
      },
      {
        "startTick": 58558,
        "endTick": 58678,
        "pitch": 51,
        "velocity": 122,
        "trackId": 12,
        "channel": 9
      },
      {
        "startTick": 58558,
        "endTick": 58760,
        "pitch": 36,
        "velocity": 124,
        "trackId": 4,
        "channel": 1
      },
      {
        "startTick": 58558,
        "endTick": 58826,
        "pitch": 42,
        "velocity": 121,
        "trackId": 12,
        "channel": 9
      },
      {
        "startTick": 58558,
        "endTick": 58888,
        "pitch": 40,
        "velocity": 123,
        "trackId": 12,
        "channel": 9
      },
      {
        "startTick": 58560,
        "endTick": 58724,
        "pitch": 60,
        "velocity": 123,
        "trackId": 3,
        "channel": 0
      },
      {
        "startTick": 58560,
        "endTick": 58724,
        "pitch": 48,
        "velocity": 123,
        "trackId": 9,
        "channel": 8
      },
      {
        "startTick": 58592,
        "endTick": 58660,
        "pitch": 50,
        "velocity": 116,
        "trackId": 10,
        "channel": 11
      },
      {
        "startTick": 58656,
        "endTick": 58820,
        "pitch": 48,
        "velocity": 117,
        "trackId": 10,
        "channel": 11
      },
      {
        "startTick": 58686,
        "endTick": 58720,
        "pitch": 35,
        "velocity": 120,
        "trackId": 12,
        "channel": 9
      },
      {
        "startTick": 58750,
        "endTick": 58852,
        "pitch": 35,
        "velocity": 122,
        "trackId": 12,
        "channel": 9
      },
      {
        "startTick": 58750,
        "endTick": 58858,
        "pitch": 51,
        "velocity": 122,
        "trackId": 12,
        "channel": 9
      },
      {
        "startTick": 58750,
        "endTick": 58880,
        "pitch": 41,
        "velocity": 125,
        "trackId": 4,
        "channel": 1
      },
      {
        "startTick": 58752,
        "endTick": 58890,
        "pitch": 65,
        "velocity": 123,
        "trackId": 3,
        "channel": 0
      },
      {
        "startTick": 58752,
        "endTick": 58890,
        "pitch": 53,
        "velocity": 120,
        "trackId": 9,
        "channel": 8
      },
      {
        "startTick": 58848,
        "endTick": 58986,
        "pitch": 53,
        "velocity": 114,
        "trackId": 10,
        "channel": 11
      },
      {
        "startTick": 58878,
        "endTick": 59010,
        "pitch": 33,
        "velocity": 123,
        "trackId": 4,
        "channel": 1
      },
      {
        "startTick": 58878,
        "endTick": 59088,
        "pitch": 35,
        "velocity": 122,
        "trackId": 12,
        "channel": 9
      },
      {
        "startTick": 58880,
        "endTick": 58998,
        "pitch": 45,
        "velocity": 120,
        "trackId": 9,
        "channel": 8
      },
      {
        "startTick": 58880,
        "endTick": 59010,
        "pitch": 57,
        "velocity": 123,
        "trackId": 3,
        "channel": 0
      },
      {
        "startTick": 58942,
        "endTick": 59050,
        "pitch": 51,
        "velocity": 122,
        "trackId": 12,
        "channel": 9
      },
      {
        "startTick": 58942,
        "endTick": 59248,
        "pitch": 42,
        "velocity": 122,
        "trackId": 12,
        "channel": 9
      },
      {
        "startTick": 58942,
        "endTick": 59278,
        "pitch": 40,
        "velocity": 124,
        "trackId": 12,
        "channel": 9
      },
      {
        "startTick": 58976,
        "endTick": 59094,
        "pitch": 45,
        "velocity": 114,
        "trackId": 10,
        "channel": 11
      },
      {
        "startTick": 59006,
        "endTick": 59130,
        "pitch": 34,
        "velocity": 124,
        "trackId": 4,
        "channel": 1
      },
      {
        "startTick": 59008,
        "endTick": 59118,
        "pitch": 58,
        "velocity": 122,
        "trackId": 3,
        "channel": 0
      },
      {
        "startTick": 59008,
        "endTick": 59140,
        "pitch": 46,
        "velocity": 121,
        "trackId": 9,
        "channel": 8
      },
      {
        "startTick": 59104,
        "endTick": 59236,
        "pitch": 46,
        "velocity": 115,
        "trackId": 10,
        "channel": 11
      },
      {
        "startTick": 59134,
        "endTick": 59206,
        "pitch": 35,
        "velocity": 121,
        "trackId": 12,
        "channel": 9
      },
      {
        "startTick": 59134,
        "endTick": 59252,
        "pitch": 35,
        "velocity": 125,
        "trackId": 4,
        "channel": 1
      },
      {
        "startTick": 59134,
        "endTick": 59254,
        "pitch": 51,
        "velocity": 122,
        "trackId": 12,
        "channel": 9
      },
      {
        "startTick": 59136,
        "endTick": 59252,
        "pitch": 59,
        "velocity": 123,
        "trackId": 3,
        "channel": 0
      },
      {
        "startTick": 59136,
        "endTick": 59274,
        "pitch": 47,
        "velocity": 121,
        "trackId": 9,
        "channel": 8
      },
      {
        "startTick": 59232,
        "endTick": 59370,
        "pitch": 47,
        "velocity": 115,
        "trackId": 10,
        "channel": 11
      },
      {
        "startTick": 59262,
        "endTick": 59332,
        "pitch": 36,
        "velocity": 122,
        "trackId": 4,
        "channel": 1
      },
      {
        "startTick": 59262,
        "endTick": 59468,
        "pitch": 35,
        "velocity": 123,
        "trackId": 12,
        "channel": 9
      },
      {
        "startTick": 59264,
        "endTick": 59318,
        "pitch": 60,
        "velocity": 123,
        "trackId": 3,
        "channel": 0
      },
      {
        "startTick": 59264,
        "endTick": 59350,
        "pitch": 48,
        "velocity": 119,
        "trackId": 9,
        "channel": 8
      },
      {
        "startTick": 59326,
        "endTick": 59380,
        "pitch": 38,
        "velocity": 122,
        "trackId": 4,
        "channel": 1
      },
      {
        "startTick": 59326,
        "endTick": 59440,
        "pitch": 51,
        "velocity": 122,
        "trackId": 12,
        "channel": 9
      },
      {
        "startTick": 59326,
        "endTick": 59604,
        "pitch": 42,
        "velocity": 121,
        "trackId": 12,
        "channel": 9
      },
      {
        "startTick": 59326,
        "endTick": 59664,
        "pitch": 40,
        "velocity": 123,
        "trackId": 12,
        "channel": 9
      },
      {
        "startTick": 59328,
        "endTick": 59386,
        "pitch": 62,
        "velocity": 123,
        "trackId": 3,
        "channel": 0
      },
      {
        "startTick": 59328,
        "endTick": 59394,
        "pitch": 50,
        "velocity": 120,
        "trackId": 9,
        "channel": 8
      },
      {
        "startTick": 59360,
        "endTick": 59446,
        "pitch": 48,
        "velocity": 113,
        "trackId": 10,
        "channel": 11
      },
      {
        "startTick": 59390,
        "endTick": 59436,
        "pitch": 40,
        "velocity": 122,
        "trackId": 4,
        "channel": 1
      },
      {
        "startTick": 59392,
        "endTick": 59476,
        "pitch": 64,
        "velocity": 122,
        "trackId": 3,
        "channel": 0
      },
      {
        "startTick": 59392,
        "endTick": 59482,
        "pitch": 52,
        "velocity": 119,
        "trackId": 9,
        "channel": 8
      },
      {
        "startTick": 59424,
        "endTick": 59490,
        "pitch": 50,
        "velocity": 114,
        "trackId": 10,
        "channel": 11
      },
      {
        "startTick": 59454,
        "endTick": 59492,
        "pitch": 41,
        "velocity": 119,
        "trackId": 4,
        "channel": 1
      },
      {
        "startTick": 59456,
        "endTick": 59502,
        "pitch": 65,
        "velocity": 122,
        "trackId": 3,
        "channel": 0
      },
      {
        "startTick": 59456,
        "endTick": 59504,
        "pitch": 53,
        "velocity": 118,
        "trackId": 9,
        "channel": 8
      },
      {
        "startTick": 59488,
        "endTick": 59578,
        "pitch": 52,
        "velocity": 113,
        "trackId": 10,
        "channel": 11
      },
      {
        "startTick": 59518,
        "endTick": 59592,
        "pitch": 35,
        "velocity": 121,
        "trackId": 12,
        "channel": 9
      },
      {
        "startTick": 59518,
        "endTick": 59638,
        "pitch": 51,
        "velocity": 122,
        "trackId": 12,
        "channel": 9
      },
      {
        "startTick": 59518,
        "endTick": 59646,
        "pitch": 43,
        "velocity": 125,
        "trackId": 4,
        "channel": 1
      },
      {
        "startTick": 59520,
        "endTick": 59646,
        "pitch": 55,
        "velocity": 122,
        "trackId": 9,
        "channel": 8
      },
      {
        "startTick": 59520,
        "endTick": 59648,
        "pitch": 67,
        "velocity": 123,
        "trackId": 3,
        "channel": 0
      },
      {
        "startTick": 59552,
        "endTick": 59600,
        "pitch": 53,
        "velocity": 112,
        "trackId": 10,
        "channel": 11
      },
      {
        "startTick": 59616,
        "endTick": 59742,
        "pitch": 55,
        "velocity": 117,
        "trackId": 10,
        "channel": 11
      },
      {
        "startTick": 59646,
        "endTick": 59810,
        "pitch": 35,
        "velocity": 125,
        "trackId": 4,
        "channel": 1
      },
      {
        "startTick": 59646,
        "endTick": 59828,
        "pitch": 35,
        "velocity": 123,
        "trackId": 12,
        "channel": 9
      },
      {
        "startTick": 59648,
        "endTick": 59784,
        "pitch": 59,
        "velocity": 123,
        "trackId": 3,
        "channel": 0
      },
      {
        "startTick": 59648,
        "endTick": 59806,
        "pitch": 47,
        "velocity": 121,
        "trackId": 9,
        "channel": 8
      },
      {
        "startTick": 59710,
        "endTick": 59826,
        "pitch": 51,
        "velocity": 122,
        "trackId": 12,
        "channel": 9
      },
      {
        "startTick": 59710,
        "endTick": 59914,
        "pitch": 40,
        "velocity": 123,
        "trackId": 12,
        "channel": 9
      },
      {
        "startTick": 59710,
        "endTick": 60012,
        "pitch": 42,
        "velocity": 121,
        "trackId": 12,
        "channel": 9
      },
      {
        "startTick": 59744,
        "endTick": 59902,
        "pitch": 47,
        "velocity": 115,
        "trackId": 10,
        "channel": 11
      },
      {
        "startTick": 59774,
        "endTick": 59868,
        "pitch": 36,
        "velocity": 121,
        "trackId": 4,
        "channel": 1
      },
      {
        "startTick": 59776,
        "endTick": 59884,
        "pitch": 48,
        "velocity": 116,
        "trackId": 9,
        "channel": 8
      },
      {
        "startTick": 59776,
        "endTick": 59886,
        "pitch": 60,
        "velocity": 123,
        "trackId": 3,
        "channel": 0
      },
      {
        "startTick": 59872,
        "endTick": 59980,
        "pitch": 48,
        "velocity": 109,
        "trackId": 10,
        "channel": 11
      },
      {
        "startTick": 59902,
        "endTick": 59944,
        "pitch": 35,
        "velocity": 121,
        "trackId": 12,
        "channel": 9
      },
      {
        "startTick": 59902,
        "endTick": 59960,
        "pitch": 37,
        "velocity": 119,
        "trackId": 4,
        "channel": 1
      },
      {
        "startTick": 59902,
        "endTick": 60014,
        "pitch": 51,
        "velocity": 122,
        "trackId": 12,
        "channel": 9
      },
      {
        "startTick": 59904,
        "endTick": 59954,
        "pitch": 61,
        "velocity": 122,
        "trackId": 3,
        "channel": 0
      },
      {
        "startTick": 59904,
        "endTick": 59980,
        "pitch": 49,
        "velocity": 117,
        "trackId": 9,
        "channel": 8
      },
      {
        "startTick": 59966,
        "endTick": 60010,
        "pitch": 40,
        "velocity": 122,
        "trackId": 12,
        "channel": 9
      },
      {
        "startTick": 59966,
        "endTick": 60016,
        "pitch": 38,
        "velocity": 122,
        "trackId": 4,
        "channel": 1
      },
      {
        "startTick": 59968,
        "endTick": 60026,
        "pitch": 62,
        "velocity": 123,
        "trackId": 3,
        "channel": 0
      },
      {
        "startTick": 60000,
        "endTick": 60076,
        "pitch": 49,
        "velocity": 110,
        "trackId": 10,
        "channel": 11
      },
      {
        "startTick": 60000,
        "endTick": 60084,
        "pitch": 50,
        "velocity": 121,
        "trackId": 9,
        "channel": 8
      },
      {
        "startTick": 60030,
        "endTick": 60058,
        "pitch": 40,
        "velocity": 121,
        "trackId": 12,
        "channel": 9
      },
      {
        "startTick": 60030,
        "endTick": 60096,
        "pitch": 40,
        "velocity": 122,
        "trackId": 4,
        "channel": 1
      },
      {
        "startTick": 60032,
        "endTick": 60084,
        "pitch": 64,
        "velocity": 123,
        "trackId": 3,
        "channel": 0
      },
      {
        "startTick": 60064,
        "endTick": 60112,
        "pitch": 52,
        "velocity": 118,
        "trackId": 9,
        "channel": 8
      },
      {
        "startTick": 60094,
        "endTick": 60132,
        "pitch": 43,
        "velocity": 122,
        "trackId": 12,
        "channel": 9
      },
      {
        "startTick": 60094,
        "endTick": 60268,
        "pitch": 51,
        "velocity": 123,
        "trackId": 12,
        "channel": 9
      },
      {
        "startTick": 60094,
        "endTick": 60272,
        "pitch": 42,
        "velocity": 121,
        "trackId": 12,
        "channel": 9
      },
      {
        "startTick": 60094,
        "endTick": 60274,
        "pitch": 38,
        "velocity": 125,
        "trackId": 4,
        "channel": 1
      },
      {
        "startTick": 60096,
        "endTick": 60176,
        "pitch": 62,
        "velocity": 123,
        "trackId": 3,
        "channel": 0
      },
      {
        "startTick": 60096,
        "endTick": 60180,
        "pitch": 50,
        "velocity": 116,
        "trackId": 10,
        "channel": 11
      },
      {
        "startTick": 60096,
        "endTick": 60276,
        "pitch": 50,
        "velocity": 114,
        "trackId": 9,
        "channel": 8
      },
      {
        "startTick": 60158,
        "endTick": 60182,
        "pitch": 40,
        "velocity": 121,
        "trackId": 12,
        "channel": 9
      },
      {
        "startTick": 60160,
        "endTick": 60208,
        "pitch": 52,
        "velocity": 112,
        "trackId": 10,
        "channel": 11
      },
      {
        "startTick": 60192,
        "endTick": 60372,
        "pitch": 50,
        "velocity": 107,
        "trackId": 10,
        "channel": 11
      },
      {
        "startTick": 60222,
        "endTick": 60290,
        "pitch": 45,
        "velocity": 123,
        "trackId": 12,
        "channel": 9
      },
      {
        "startTick": 60286,
        "endTick": 60368,
        "pitch": 36,
        "velocity": 125,
        "trackId": 4,
        "channel": 1
      },
      {
        "startTick": 60286,
        "endTick": 60374,
        "pitch": 35,
        "velocity": 124,
        "trackId": 12,
        "channel": 9
      },
      {
        "startTick": 60286,
        "endTick": 60488,
        "pitch": 49,
        "velocity": 123,
        "trackId": 12,
        "channel": 9
      },
      {
        "startTick": 60288,
        "endTick": 61230,
        "pitch": 72,
        "velocity": 123,
        "trackId": 3,
        "channel": 0
      },
      {
        "startTick": 60288,
        "endTick": 61276,
        "pitch": 67,
        "velocity": 123,
        "trackId": 3,
        "channel": 0
      },
      {
        "startTick": 60288,
        "endTick": 61376,
        "pitch": 60,
        "velocity": 123,
        "trackId": 3,
        "channel": 0
      },
      {
        "startTick": 60288,
        "endTick": 61454,
        "pitch": 43,
        "velocity": 123,
        "trackId": 9,
        "channel": 8
      },
      {
        "startTick": 60288,
        "endTick": 61822,
        "pitch": 48,
        "velocity": 121,
        "trackId": 9,
        "channel": 8
      },
      {
        "startTick": 60384,
        "endTick": 61550,
        "pitch": 43,
        "velocity": 117,
        "trackId": 10,
        "channel": 11
      },
      {
        "startTick": 60384,
        "endTick": 61918,
        "pitch": 48,
        "velocity": 115,
        "trackId": 10,
        "channel": 11
      },
      {
        "startTick": 60410,
        "endTick": 60522,
        "pitch": 70,
        "velocity": 122,
        "trackId": 2,
        "channel": 4
      },
      {
        "startTick": 60414,
        "endTick": 60448,
        "pitch": 36,
        "velocity": 119,
        "trackId": 4,
        "channel": 1
      },
      {
        "startTick": 60414,
        "endTick": 60586,
        "pitch": 35,
        "velocity": 119,
        "trackId": 12,
        "channel": 9
      },
      {
        "startTick": 60478,
        "endTick": 60578,
        "pitch": 36,
        "velocity": 120,
        "trackId": 4,
        "channel": 1
      },
      {
        "startTick": 60478,
        "endTick": 60584,
        "pitch": 46,
        "velocity": 122,
        "trackId": 12,
        "channel": 9
      },
      {
        "startTick": 60478,
        "endTick": 60694,
        "pitch": 42,
        "velocity": 122,
        "trackId": 12,
        "channel": 9
      },
      {
        "startTick": 60478,
        "endTick": 60810,
        "pitch": 40,
        "velocity": 123,
        "trackId": 12,
        "channel": 9
      },
      {
        "startTick": 60556,
        "endTick": 60642,
        "pitch": 70,
        "velocity": 122,
        "trackId": 2,
        "channel": 4
      },
      {
        "startTick": 60606,
        "endTick": 60630,
        "pitch": 36,
        "velocity": 104,
        "trackId": 4,
        "channel": 1
      },
      {
        "startTick": 60670,
        "endTick": 60740,
        "pitch": 35,
        "velocity": 122,
        "trackId": 12,
        "channel": 9
      },
      {
        "startTick": 60670,
        "endTick": 60766,
        "pitch": 36,
        "velocity": 114,
        "trackId": 4,
        "channel": 1
      },
      {
        "startTick": 60670,
        "endTick": 60834,
        "pitch": 46,
        "velocity": 122,
        "trackId": 12,
        "channel": 9
      },
      {
        "startTick": 60692,
        "endTick": 60822,
        "pitch": 70,
        "velocity": 123,
        "trackId": 2,
        "channel": 4
      },
      {
        "startTick": 60798,
        "endTick": 60822,
        "pitch": 36,
        "velocity": 119,
        "trackId": 4,
        "channel": 1
      },
      {
        "startTick": 60798,
        "endTick": 60986,
        "pitch": 35,
        "velocity": 120,
        "trackId": 12,
        "channel": 9
      },
      {
        "startTick": 60816,
        "endTick": 60908,
        "pitch": 69,
        "velocity": 119,
        "trackId": 2,
        "channel": 4
      },
      {
        "startTick": 60862,
        "endTick": 60964,
        "pitch": 36,
        "velocity": 122,
        "trackId": 4,
        "channel": 1
      },
      {
        "startTick": 60862,
        "endTick": 60966,
        "pitch": 46,
        "velocity": 122,
        "trackId": 12,
        "channel": 9
      },
      {
        "startTick": 60862,
        "endTick": 61050,
        "pitch": 42,
        "velocity": 122,
        "trackId": 12,
        "channel": 9
      },
      {
        "startTick": 60862,
        "endTick": 61192,
        "pitch": 40,
        "velocity": 123,
        "trackId": 12,
        "channel": 9
      },
      {
        "startTick": 60942,
        "endTick": 61022,
        "pitch": 69,
        "velocity": 118,
        "trackId": 2,
        "channel": 4
      },
      {
        "startTick": 60990,
        "endTick": 61018,
        "pitch": 36,
        "velocity": 110,
        "trackId": 4,
        "channel": 1
      },
      {
        "startTick": 61054,
        "endTick": 61122,
        "pitch": 35,
        "velocity": 118,
        "trackId": 12,
        "channel": 9
      },
      {
        "startTick": 61054,
        "endTick": 61144,
        "pitch": 36,
        "velocity": 116,
        "trackId": 4,
        "channel": 1
      },
      {
        "startTick": 61054,
        "endTick": 61156,
        "pitch": 46,
        "velocity": 122,
        "trackId": 12,
        "channel": 9
      },
      {
        "startTick": 61064,
        "endTick": 61188,
        "pitch": 69,
        "velocity": 122,
        "trackId": 2,
        "channel": 4
      },
      {
        "startTick": 61182,
        "endTick": 61216,
        "pitch": 36,
        "velocity": 120,
        "trackId": 4,
        "channel": 1
      },
      {
        "startTick": 61182,
        "endTick": 61368,
        "pitch": 35,
        "velocity": 121,
        "trackId": 12,
        "channel": 9
      },
      {
        "startTick": 61198,
        "endTick": 61284,
        "pitch": 67,
        "velocity": 123,
        "trackId": 2,
        "channel": 4
      },
      {
        "startTick": 61246,
        "endTick": 61316,
        "pitch": 36,
        "velocity": 121,
        "trackId": 4,
        "channel": 1
      },
      {
        "startTick": 61246,
        "endTick": 61380,
        "pitch": 46,
        "velocity": 123,
        "trackId": 12,
        "channel": 9
      },
      {
        "startTick": 61246,
        "endTick": 61562,
        "pitch": 40,
        "velocity": 123,
        "trackId": 12,
        "channel": 9
      },
      {
        "startTick": 61322,
        "endTick": 61390,
        "pitch": 67,
        "velocity": 122,
        "trackId": 2,
        "channel": 4
      },
      {
        "startTick": 61374,
        "endTick": 61434,
        "pitch": 36,
        "velocity": 116,
        "trackId": 4,
        "channel": 1
      },
      {
        "startTick": 61430,
        "endTick": 61616,
        "pitch": 67,
        "velocity": 120,
        "trackId": 2,
        "channel": 4
      },
      {
        "startTick": 61438,
        "endTick": 61488,
        "pitch": 35,
        "velocity": 123,
        "trackId": 12,
        "channel": 9
      },
      {
        "startTick": 61438,
        "endTick": 61574,
        "pitch": 46,
        "velocity": 123,
        "trackId": 12,
        "channel": 9
      },
      {
        "startTick": 61438,
        "endTick": 61604,
        "pitch": 29,
        "velocity": 125,
        "trackId": 4,
        "channel": 1
      },
      {
        "startTick": 61440,
        "endTick": 61756,
        "pitch": 72,
        "velocity": 123,
        "trackId": 3,
        "channel": 0
      },
      {
        "startTick": 61440,
        "endTick": 61778,
        "pitch": 65,
        "velocity": 123,
        "trackId": 3,
        "channel": 0
      },
      {
        "startTick": 61440,
        "endTick": 61790,
        "pitch": 69,
        "velocity": 123,
        "trackId": 3,
        "channel": 0
      },
      {
        "startTick": 61440,
        "endTick": 61802,
        "pitch": 60,
        "velocity": 123,
        "trackId": 3,
        "channel": 0
      },
      {
        "startTick": 61440,
        "endTick": 61810,
        "pitch": 41,
        "velocity": 121,
        "trackId": 9,
        "channel": 8
      },
      {
        "startTick": 61536,
        "endTick": 61906,
        "pitch": 41,
        "velocity": 115,
        "trackId": 10,
        "channel": 11
      },
      {
        "startTick": 61566,
        "endTick": 61760,
        "pitch": 35,
        "velocity": 122,
        "trackId": 12,
        "channel": 9
      },
      {
        "startTick": 61626,
        "endTick": 61810,
        "pitch": 65,
        "velocity": 123,
        "trackId": 2,
        "channel": 4
      },
      {
        "startTick": 61630,
        "endTick": 61770,
        "pitch": 46,
        "velocity": 123,
        "trackId": 12,
        "channel": 9
      },
      {
        "startTick": 61630,
        "endTick": 61810,
        "pitch": 29,
        "velocity": 125,
        "trackId": 4,
        "channel": 1
      },
      {
        "startTick": 61630,
        "endTick": 61938,
        "pitch": 40,
        "velocity": 123,
        "trackId": 12,
        "channel": 9
      },
      {
        "startTick": 61816,
        "endTick": 61956,
        "pitch": 64,
        "velocity": 123,
        "trackId": 2,
        "channel": 4
      },
      {
        "startTick": 61822,
        "endTick": 61888,
        "pitch": 35,
        "velocity": 123,
        "trackId": 12,
        "channel": 9
      },
      {
        "startTick": 61822,
        "endTick": 61902,
        "pitch": 36,
        "velocity": 123,
        "trackId": 4,
        "channel": 1
      },
      {
        "startTick": 61822,
        "endTick": 61964,
        "pitch": 46,
        "velocity": 123,
        "trackId": 12,
        "channel": 9
      },
      {
        "startTick": 61824,
        "endTick": 61834,
        "pitch": 48,
        "velocity": 122,
        "trackId": 9,
        "channel": 8
      },
      {
        "startTick": 61824,
        "endTick": 62508,
        "pitch": 67,
        "velocity": 123,
        "trackId": 3,
        "channel": 0
      },
      {
        "startTick": 61824,
        "endTick": 62524,
        "pitch": 64,
        "velocity": 123,
        "trackId": 3,
        "channel": 0
      },
      {
        "startTick": 61824,
        "endTick": 62552,
        "pitch": 60,
        "velocity": 123,
        "trackId": 3,
        "channel": 0
      },
      {
        "startTick": 61824,
        "endTick": 62564,
        "pitch": 72,
        "velocity": 123,
        "trackId": 3,
        "channel": 0
      },
      {
        "startTick": 61824,
        "endTick": 62570,
        "pitch": 43,
        "velocity": 117,
        "trackId": 9,
        "channel": 8
      },
      {
        "startTick": 61920,
        "endTick": 61930,
        "pitch": 48,
        "velocity": 117,
        "trackId": 10,
        "channel": 11
      },
      {
        "startTick": 61920,
        "endTick": 62666,
        "pitch": 43,
        "velocity": 110,
        "trackId": 10,
        "channel": 11
      },
      {
        "startTick": 61950,
        "endTick": 61986,
        "pitch": 36,
        "velocity": 111,
        "trackId": 4,
        "channel": 1
      },
      {
        "startTick": 61950,
        "endTick": 62134,
        "pitch": 35,
        "velocity": 121,
        "trackId": 12,
        "channel": 9
      },
      {
        "startTick": 61966,
        "endTick": 62016,
        "pitch": 65,
        "velocity": 123,
        "trackId": 2,
        "channel": 4
      },
      {
        "startTick": 62014,
        "endTick": 62078,
        "pitch": 36,
        "velocity": 112,
        "trackId": 4,
        "channel": 1
      },
      {
        "startTick": 62014,
        "endTick": 62166,
        "pitch": 46,
        "velocity": 122,
        "trackId": 12,
        "channel": 9
      },
      {
        "startTick": 62014,
        "endTick": 62358,
        "pitch": 40,
        "velocity": 123,
        "trackId": 12,
        "channel": 9
      },
      {
        "startTick": 62032,
        "endTick": 62568,
        "pitch": 67,
        "velocity": 122,
        "trackId": 2,
        "channel": 4
      },
      {
        "startTick": 62034,
        "endTick": 62048,
        "pitch": 65,
        "velocity": 113,
        "trackId": 2,
        "channel": 4
      },
      {
        "startTick": 62142,
        "endTick": 62184,
        "pitch": 36,
        "velocity": 121,
        "trackId": 4,
        "channel": 1
      },
      {
        "startTick": 62206,
        "endTick": 62268,
        "pitch": 35,
        "velocity": 123,
        "trackId": 12,
        "channel": 9
      },
      {
        "startTick": 62206,
        "endTick": 62298,
        "pitch": 36,
        "velocity": 115,
        "trackId": 4,
        "channel": 1
      },
      {
        "startTick": 62206,
        "endTick": 62360,
        "pitch": 46,
        "velocity": 122,
        "trackId": 12,
        "channel": 9
      },
      {
        "startTick": 62334,
        "endTick": 62368,
        "pitch": 36,
        "velocity": 114,
        "trackId": 4,
        "channel": 1
      },
      {
        "startTick": 62334,
        "endTick": 62466,
        "pitch": 35,
        "velocity": 123,
        "trackId": 12,
        "channel": 9
      },
      {
        "startTick": 62398,
        "endTick": 62490,
        "pitch": 36,
        "velocity": 119,
        "trackId": 4,
        "channel": 1
      },
      {
        "startTick": 62398,
        "endTick": 62562,
        "pitch": 46,
        "velocity": 122,
        "trackId": 12,
        "channel": 9
      },
      {
        "startTick": 62398,
        "endTick": 62594,
        "pitch": 40,
        "velocity": 123,
        "trackId": 12,
        "channel": 9
      },
      {
        "startTick": 62526,
        "endTick": 62558,
        "pitch": 35,
        "velocity": 123,
        "trackId": 12,
        "channel": 9
      },
      {
        "startTick": 62526,
        "endTick": 62596,
        "pitch": 36,
        "velocity": 110,
        "trackId": 4,
        "channel": 1
      },
      {
        "startTick": 62590,
        "endTick": 62630,
        "pitch": 35,
        "velocity": 123,
        "trackId": 12,
        "channel": 9
      },
      {
        "startTick": 62590,
        "endTick": 62638,
        "pitch": 31,
        "velocity": 120,
        "trackId": 4,
        "channel": 1
      },
      {
        "startTick": 62590,
        "endTick": 62740,
        "pitch": 46,
        "velocity": 122,
        "trackId": 12,
        "channel": 9
      },
      {
        "startTick": 62592,
        "endTick": 62664,
        "pitch": 67,
        "velocity": 123,
        "trackId": 3,
        "channel": 0
      },
      {
        "startTick": 62592,
        "endTick": 62670,
        "pitch": 55,
        "velocity": 122,
        "trackId": 3,
        "channel": 0
      },
      {
        "startTick": 62592,
        "endTick": 62674,
        "pitch": 43,
        "velocity": 118,
        "trackId": 9,
        "channel": 8
      },
      {
        "startTick": 62654,
        "endTick": 62686,
        "pitch": 40,
        "velocity": 123,
        "trackId": 12,
        "channel": 9
      },
      {
        "startTick": 62654,
        "endTick": 62702,
        "pitch": 34,
        "velocity": 120,
        "trackId": 4,
        "channel": 1
      },
      {
        "startTick": 62656,
        "endTick": 62710,
        "pitch": 70,
        "velocity": 122,
        "trackId": 3,
        "channel": 0
      },
      {
        "startTick": 62656,
        "endTick": 62712,
        "pitch": 46,
        "velocity": 120,
        "trackId": 9,
        "channel": 8
      },
      {
        "startTick": 62656,
        "endTick": 62728,
        "pitch": 58,
        "velocity": 122,
        "trackId": 3,
        "channel": 0
      },
      {
        "startTick": 62688,
        "endTick": 62770,
        "pitch": 43,
        "velocity": 112,
        "trackId": 10,
        "channel": 11
      },
      {
        "startTick": 62718,
        "endTick": 62750,
        "pitch": 36,
        "velocity": 114,
        "trackId": 4,
        "channel": 1
      },
      {
        "startTick": 62718,
        "endTick": 62754,
        "pitch": 40,
        "velocity": 122,
        "trackId": 12,
        "channel": 9
      },
      {
        "startTick": 62720,
        "endTick": 62756,
        "pitch": 72,
        "velocity": 122,
        "trackId": 3,
        "channel": 0
      },
      {
        "startTick": 62720,
        "endTick": 62762,
        "pitch": 60,
        "velocity": 122,
        "trackId": 3,
        "channel": 0
      },
      {
        "startTick": 62720,
        "endTick": 62768,
        "pitch": 48,
        "velocity": 121,
        "trackId": 9,
        "channel": 8
      },
      {
        "startTick": 62752,
        "endTick": 62808,
        "pitch": 46,
        "velocity": 114,
        "trackId": 10,
        "channel": 11
      },
      {
        "startTick": 62782,
        "endTick": 62832,
        "pitch": 40,
        "velocity": 122,
        "trackId": 12,
        "channel": 9
      },
      {
        "startTick": 62782,
        "endTick": 62844,
        "pitch": 36,
        "velocity": 124,
        "trackId": 4,
        "channel": 1
      },
      {
        "startTick": 62782,
        "endTick": 62886,
        "pitch": 46,
        "velocity": 122,
        "trackId": 12,
        "channel": 9
      },
      {
        "startTick": 62784,
        "endTick": 62854,
        "pitch": 72,
        "velocity": 123,
        "trackId": 3,
        "channel": 0
      },
      {
        "startTick": 62784,
        "endTick": 62856,
        "pitch": 48,
        "velocity": 121,
        "trackId": 9,
        "channel": 8
      },
      {
        "startTick": 62784,
        "endTick": 62864,
        "pitch": 60,
        "velocity": 117,
        "trackId": 3,
        "channel": 0
      },
      {
        "startTick": 62816,
        "endTick": 62864,
        "pitch": 48,
        "velocity": 115,
        "trackId": 10,
        "channel": 11
      },
      {
        "startTick": 62846,
        "endTick": 62888,
        "pitch": 34,
        "velocity": 123,
        "trackId": 4,
        "channel": 1
      },
      {
        "startTick": 62846,
        "endTick": 62942,
        "pitch": 35,
        "velocity": 123,
        "trackId": 12,
        "channel": 9
      },
      {
        "startTick": 62848,
        "endTick": 62894,
        "pitch": 70,
        "velocity": 123,
        "trackId": 3,
        "channel": 0
      },
      {
        "startTick": 62848,
        "endTick": 62900,
        "pitch": 46,
        "velocity": 119,
        "trackId": 9,
        "channel": 8
      },
      {
        "startTick": 62848,
        "endTick": 62916,
        "pitch": 58,
        "velocity": 123,
        "trackId": 3,
        "channel": 0
      },
      {
        "startTick": 62880,
        "endTick": 62952,
        "pitch": 48,
        "velocity": 115,
        "trackId": 10,
        "channel": 11
      },
      {
        "startTick": 62910,
        "endTick": 62974,
        "pitch": 40,
        "velocity": 124,
        "trackId": 12,
        "channel": 9
      },
      {
        "startTick": 62910,
        "endTick": 63240,
        "pitch": 39,
        "velocity": 125,
        "trackId": 4,
        "channel": 1
      },
      {
        "startTick": 62910,
        "endTick": 63328,
        "pitch": 49,
        "velocity": 124,
        "trackId": 12,
        "channel": 9
      },
      {
        "startTick": 62912,
        "endTick": 63288,
        "pitch": 67,
        "velocity": 123,
        "trackId": 3,
        "channel": 0
      },
      {
        "startTick": 62912,
        "endTick": 63320,
        "pitch": 63,
        "velocity": 123,
        "trackId": 3,
        "channel": 0
      },
      {
        "startTick": 62912,
        "endTick": 63320,
        "pitch": 70,
        "velocity": 123,
        "trackId": 3,
        "channel": 0
      },
      {
        "startTick": 62912,
        "endTick": 63324,
        "pitch": 75,
        "velocity": 122,
        "trackId": 3,
        "channel": 0
      },
      {
        "startTick": 62912,
        "endTick": 63370,
        "pitch": 51,
        "velocity": 121,
        "trackId": 9,
        "channel": 8
      },
      {
        "startTick": 62944,
        "endTick": 62996,
        "pitch": 46,
        "velocity": 113,
        "trackId": 10,
        "channel": 11
      },
      {
        "startTick": 63008,
        "endTick": 63466,
        "pitch": 51,
        "velocity": 115,
        "trackId": 10,
        "channel": 11
      },
      {
        "startTick": 63230,
        "endTick": 63270,
        "pitch": 40,
        "velocity": 123,
        "trackId": 12,
        "channel": 9
      },
      {
        "startTick": 63230,
        "endTick": 63274,
        "pitch": 34,
        "velocity": 123,
        "trackId": 4,
        "channel": 1
      },
      {
        "startTick": 63294,
        "endTick": 63336,
        "pitch": 40,
        "velocity": 123,
        "trackId": 12,
        "channel": 9
      },
      {
        "startTick": 63294,
        "endTick": 63338,
        "pitch": 35,
        "velocity": 121,
        "trackId": 4,
        "channel": 1
      },
      {
        "startTick": 63358,
        "endTick": 63452,
        "pitch": 36,
        "velocity": 120,
        "trackId": 4,
        "channel": 1
      },
      {
        "startTick": 63358,
        "endTick": 63462,
        "pitch": 35,
        "velocity": 124,
        "trackId": 12,
        "channel": 9
      },
      {
        "startTick": 63358,
        "endTick": 63558,
        "pitch": 49,
        "velocity": 122,
        "trackId": 12,
        "channel": 9
      },
      {
        "startTick": 63360,
        "endTick": 64456,
        "pitch": 72,
        "velocity": 123,
        "trackId": 3,
        "channel": 0
      },
      {
        "startTick": 63360,
        "endTick": 64464,
        "pitch": 67,
        "velocity": 123,
        "trackId": 3,
        "channel": 0
      },
      {
        "startTick": 63360,
        "endTick": 64476,
        "pitch": 60,
        "velocity": 123,
        "trackId": 3,
        "channel": 0
      },
      {
        "startTick": 63360,
        "endTick": 64480,
        "pitch": 43,
        "velocity": 124,
        "trackId": 9,
        "channel": 8
      },
      {
        "startTick": 63360,
        "endTick": 64930,
        "pitch": 48,
        "velocity": 122,
        "trackId": 9,
        "channel": 8
      },
      {
        "startTick": 63456,
        "endTick": 64576,
        "pitch": 43,
        "velocity": 119,
        "trackId": 10,
        "channel": 11
      },
      {
        "startTick": 63456,
        "endTick": 65026,
        "pitch": 48,
        "velocity": 117,
        "trackId": 10,
        "channel": 11
      },
      {
        "startTick": 63470,
        "endTick": 63558,
        "pitch": 70,
        "velocity": 123,
        "trackId": 2,
        "channel": 4
      },
      {
        "startTick": 63486,
        "endTick": 63508,
        "pitch": 36,
        "velocity": 116,
        "trackId": 4,
        "channel": 1
      },
      {
        "startTick": 63486,
        "endTick": 63646,
        "pitch": 35,
        "velocity": 122,
        "trackId": 12,
        "channel": 9
      },
      {
        "startTick": 63550,
        "endTick": 63642,
        "pitch": 36,
        "velocity": 119,
        "trackId": 4,
        "channel": 1
      },
      {
        "startTick": 63550,
        "endTick": 63706,
        "pitch": 46,
        "velocity": 122,
        "trackId": 12,
        "channel": 9
      },
      {
        "startTick": 63550,
        "endTick": 63896,
        "pitch": 40,
        "velocity": 124,
        "trackId": 12,
        "channel": 9
      },
      {
        "startTick": 63606,
        "endTick": 63688,
        "pitch": 70,
        "velocity": 120,
        "trackId": 2,
        "channel": 4
      },
      {
        "startTick": 63678,
        "endTick": 63708,
        "pitch": 35,
        "velocity": 121,
        "trackId": 12,
        "channel": 9
      },
      {
        "startTick": 63678,
        "endTick": 63718,
        "pitch": 36,
        "velocity": 111,
        "trackId": 4,
        "channel": 1
      },
      {
        "startTick": 63742,
        "endTick": 63832,
        "pitch": 36,
        "velocity": 113,
        "trackId": 4,
        "channel": 1
      },
      {
        "startTick": 63742,
        "endTick": 63842,
        "pitch": 35,
        "velocity": 120,
        "trackId": 12,
        "channel": 9
      },
      {
        "startTick": 63742,
        "endTick": 63904,
        "pitch": 46,
        "velocity": 122,
        "trackId": 12,
        "channel": 9
      },
      {
        "startTick": 63748,
        "endTick": 63888,
        "pitch": 70,
        "velocity": 122,
        "trackId": 2,
        "channel": 4
      },
      {
        "startTick": 63870,
        "endTick": 63906,
        "pitch": 36,
        "velocity": 115,
        "trackId": 4,
        "channel": 1
      },
      {
        "startTick": 63870,
        "endTick": 64008,
        "pitch": 35,
        "velocity": 121,
        "trackId": 12,
        "channel": 9
      },
      {
        "startTick": 63882,
        "endTick": 63978,
        "pitch": 69,
        "velocity": 119,
        "trackId": 2,
        "channel": 4
      },
      {
        "startTick": 63934,
        "endTick": 63984,
        "pitch": 36,
        "velocity": 114,
        "trackId": 4,
        "channel": 1
      },
      {
        "startTick": 63934,
        "endTick": 64100,
        "pitch": 46,
        "velocity": 122,
        "trackId": 12,
        "channel": 9
      },
      {
        "startTick": 63934,
        "endTick": 64262,
        "pitch": 40,
        "velocity": 123,
        "trackId": 12,
        "channel": 9
      },
      {
        "startTick": 63998,
        "endTick": 64034,
        "pitch": 34,
        "velocity": 119,
        "trackId": 4,
        "channel": 1
      },
      {
        "startTick": 64032,
        "endTick": 64106,
        "pitch": 69,
        "velocity": 123,
        "trackId": 2,
        "channel": 4
      },
      {
        "startTick": 64050,
        "endTick": 64070,
        "pitch": 67,
        "velocity": 81,
        "trackId": 2,
        "channel": 4
      },
      {
        "startTick": 64062,
        "endTick": 64090,
        "pitch": 35,
        "velocity": 112,
        "trackId": 4,
        "channel": 1
      },
      {
        "startTick": 64062,
        "endTick": 64100,
        "pitch": 35,
        "velocity": 116,
        "trackId": 12,
        "channel": 9
      },
      {
        "startTick": 64126,
        "endTick": 64218,
        "pitch": 36,
        "velocity": 123,
        "trackId": 4,
        "channel": 1
      },
      {
        "startTick": 64126,
        "endTick": 64226,
        "pitch": 35,
        "velocity": 123,
        "trackId": 12,
        "channel": 9
      },
      {
        "startTick": 64126,
        "endTick": 64290,
        "pitch": 46,
        "velocity": 122,
        "trackId": 12,
        "channel": 9
      },
      {
        "startTick": 64150,
        "endTick": 64286,
        "pitch": 69,
        "velocity": 120,
        "trackId": 2,
        "channel": 4
      },
      {
        "startTick": 64254,
        "endTick": 64292,
        "pitch": 36,
        "velocity": 112,
        "trackId": 4,
        "channel": 1
      },
      {
        "startTick": 64254,
        "endTick": 64400,
        "pitch": 35,
        "velocity": 121,
        "trackId": 12,
        "channel": 9
      },
      {
        "startTick": 64276,
        "endTick": 64358,
        "pitch": 67,
        "velocity": 122,
        "trackId": 2,
        "channel": 4
      },
      {
        "startTick": 64318,
        "endTick": 64410,
        "pitch": 36,
        "velocity": 116,
        "trackId": 4,
        "channel": 1
      },
      {
        "startTick": 64318,
        "endTick": 64480,
        "pitch": 46,
        "velocity": 122,
        "trackId": 12,
        "channel": 9
      },
      {
        "startTick": 64318,
        "endTick": 64650,
        "pitch": 40,
        "velocity": 123,
        "trackId": 12,
        "channel": 9
      },
      {
        "startTick": 64390,
        "endTick": 64486,
        "pitch": 67,
        "velocity": 120,
        "trackId": 2,
        "channel": 4
      },
      {
        "startTick": 64446,
        "endTick": 64482,
        "pitch": 35,
        "velocity": 121,
        "trackId": 12,
        "channel": 9
      },
      {
        "startTick": 64446,
        "endTick": 64502,
        "pitch": 36,
        "velocity": 122,
        "trackId": 4,
        "channel": 1
      },
      {
        "startTick": 64510,
        "endTick": 64588,
        "pitch": 35,
        "velocity": 121,
        "trackId": 12,
        "channel": 9
      },
      {
        "startTick": 64510,
        "endTick": 64608,
        "pitch": 29,
        "velocity": 123,
        "trackId": 4,
        "channel": 1
      },
      {
        "startTick": 64510,
        "endTick": 64670,
        "pitch": 46,
        "velocity": 122,
        "trackId": 12,
        "channel": 9
      },
      {
        "startTick": 64512,
        "endTick": 64782,
        "pitch": 53,
        "velocity": 122,
        "trackId": 3,
        "channel": 0
      },
      {
        "startTick": 64512,
        "endTick": 64814,
        "pitch": 65,
        "velocity": 123,
        "trackId": 3,
        "channel": 0
      },
      {
        "startTick": 64512,
        "endTick": 64840,
        "pitch": 72,
        "velocity": 123,
        "trackId": 3,
        "channel": 0
      },
      {
        "startTick": 64512,
        "endTick": 64844,
        "pitch": 69,
        "velocity": 123,
        "trackId": 3,
        "channel": 0
      },
      {
        "startTick": 64512,
        "endTick": 64848,
        "pitch": 60,
        "velocity": 123,
        "trackId": 3,
        "channel": 0
      },
      {
        "startTick": 64512,
        "endTick": 64872,
        "pitch": 41,
        "velocity": 121,
        "trackId": 9,
        "channel": 8
      },
      {
        "startTick": 64526,
        "endTick": 64704,
        "pitch": 67,
        "velocity": 122,
        "trackId": 2,
        "channel": 4
      },
      {
        "startTick": 64608,
        "endTick": 64968,
        "pitch": 41,
        "velocity": 115,
        "trackId": 10,
        "channel": 11
      },
      {
        "startTick": 64638,
        "endTick": 64686,
        "pitch": 29,
        "velocity": 119,
        "trackId": 4,
        "channel": 1
      },
      {
        "startTick": 64638,
        "endTick": 64700,
        "pitch": 35,
        "velocity": 122,
        "trackId": 12,
        "channel": 9
      },
      {
        "startTick": 64702,
        "endTick": 64750,
        "pitch": 40,
        "velocity": 123,
        "trackId": 12,
        "channel": 9
      },
      {
        "startTick": 64702,
        "endTick": 64790,
        "pitch": 29,
        "velocity": 123,
        "trackId": 4,
        "channel": 1
      },
      {
        "startTick": 64702,
        "endTick": 64878,
        "pitch": 46,
        "velocity": 122,
        "trackId": 12,
        "channel": 9
      },
      {
        "startTick": 64714,
        "endTick": 64878,
        "pitch": 65,
        "velocity": 123,
        "trackId": 2,
        "channel": 4
      },
      {
        "startTick": 64766,
        "endTick": 64812,
        "pitch": 40,
        "velocity": 122,
        "trackId": 12,
        "channel": 9
      },
      {
        "startTick": 64830,
        "endTick": 64876,
        "pitch": 29,
        "velocity": 112,
        "trackId": 4,
        "channel": 1
      },
      {
        "startTick": 64830,
        "endTick": 65038,
        "pitch": 40,
        "velocity": 121,
        "trackId": 12,
        "channel": 9
      },
      {
        "startTick": 64894,
        "endTick": 64968,
        "pitch": 34,
        "velocity": 122,
        "trackId": 4,
        "channel": 1
      },
      {
        "startTick": 64894,
        "endTick": 65000,
        "pitch": 35,
        "velocity": 123,
        "trackId": 12,
        "channel": 9
      },
      {
        "startTick": 64894,
        "endTick": 65058,
        "pitch": 70,
        "velocity": 123,
        "trackId": 2,
        "channel": 4
      },
      {
        "startTick": 64894,
        "endTick": 65066,
        "pitch": 49,
        "velocity": 122,
        "trackId": 12,
        "channel": 9
      },
      {
        "startTick": 64896,
        "endTick": 65580,
        "pitch": 65,
        "velocity": 123,
        "trackId": 3,
        "channel": 0
      },
      {
        "startTick": 64896,
        "endTick": 65598,
        "pitch": 62,
        "velocity": 123,
        "trackId": 3,
        "channel": 0
      },
      {
        "startTick": 64896,
        "endTick": 65604,
        "pitch": 74,
        "velocity": 123,
        "trackId": 3,
        "channel": 0
      },
      {
        "startTick": 64896,
        "endTick": 65634,
        "pitch": 70,
        "velocity": 123,
        "trackId": 3,
        "channel": 0
      },
      {
        "startTick": 64896,
        "endTick": 65654,
        "pitch": 46,
        "velocity": 121,
        "trackId": 9,
        "channel": 8
      },
      {
        "startTick": 64896,
        "endTick": 65660,
        "pitch": 53,
        "velocity": 121,
        "trackId": 9,
        "channel": 8
      },
      {
        "startTick": 64896,
        "endTick": 65674,
        "pitch": 58,
        "velocity": 123,
        "trackId": 3,
        "channel": 0
      },
      {
        "startTick": 64992,
        "endTick": 65750,
        "pitch": 46,
        "velocity": 116,
        "trackId": 10,
        "channel": 11
      },
      {
        "startTick": 64992,
        "endTick": 65756,
        "pitch": 53,
        "velocity": 116,
        "trackId": 10,
        "channel": 11
      },
      {
        "startTick": 65022,
        "endTick": 65072,
        "pitch": 34,
        "velocity": 118,
        "trackId": 4,
        "channel": 1
      },
      {
        "startTick": 65022,
        "endTick": 65160,
        "pitch": 35,
        "velocity": 121,
        "trackId": 12,
        "channel": 9
      },
      {
        "startTick": 65062,
        "endTick": 65110,
        "pitch": 67,
        "velocity": 122,
        "trackId": 2,
        "channel": 4
      },
      {
        "startTick": 65086,
        "endTick": 65168,
        "pitch": 34,
        "velocity": 121,
        "trackId": 4,
        "channel": 1
      },
      {
        "startTick": 65086,
        "endTick": 65250,
        "pitch": 46,
        "velocity": 123,
        "trackId": 12,
        "channel": 9
      },
      {
        "startTick": 65086,
        "endTick": 65424,
        "pitch": 40,
        "velocity": 124,
        "trackId": 12,
        "channel": 9
      },
      {
        "startTick": 65114,
        "endTick": 65662,
        "pitch": 65,
        "velocity": 123,
        "trackId": 2,
        "channel": 4
      },
      {
        "startTick": 65214,
        "endTick": 65248,
        "pitch": 35,
        "velocity": 120,
        "trackId": 12,
        "channel": 9
      },
      {
        "startTick": 65214,
        "endTick": 65264,
        "pitch": 34,
        "velocity": 121,
        "trackId": 4,
        "channel": 1
      },
      {
        "startTick": 65278,
        "endTick": 65340,
        "pitch": 34,
        "velocity": 121,
        "trackId": 4,
        "channel": 1
      },
      {
        "startTick": 65278,
        "endTick": 65356,
        "pitch": 35,
        "velocity": 121,
        "trackId": 12,
        "channel": 9
      },
      {
        "startTick": 65278,
        "endTick": 65438,
        "pitch": 46,
        "velocity": 122,
        "trackId": 12,
        "channel": 9
      },
      {
        "startTick": 65406,
        "endTick": 65448,
        "pitch": 34,
        "velocity": 121,
        "trackId": 4,
        "channel": 1
      },
      {
        "startTick": 65406,
        "endTick": 65508,
        "pitch": 35,
        "velocity": 123,
        "trackId": 12,
        "channel": 9
      },
      {
        "startTick": 65470,
        "endTick": 65516,
        "pitch": 34,
        "velocity": 124,
        "trackId": 4,
        "channel": 1
      },
      {
        "startTick": 65470,
        "endTick": 65540,
        "pitch": 40,
        "velocity": 123,
        "trackId": 12,
        "channel": 9
      },
      {
        "startTick": 65470,
        "endTick": 65636,
        "pitch": 46,
        "velocity": 123,
        "trackId": 12,
        "channel": 9
      },
      {
        "startTick": 65534,
        "endTick": 65578,
        "pitch": 34,
        "velocity": 122,
        "trackId": 4,
        "channel": 1
      },
      {
        "startTick": 65534,
        "endTick": 65608,
        "pitch": 43,
        "velocity": 121,
        "trackId": 12,
        "channel": 9
      },
      {
        "startTick": 65598,
        "endTick": 65660,
        "pitch": 33,
        "velocity": 120,
        "trackId": 4,
        "channel": 1
      },
      {
        "startTick": 65598,
        "endTick": 65738,
        "pitch": 45,
        "velocity": 121,
        "trackId": 12,
        "channel": 9
      },
      {
        "startTick": 65662,
        "endTick": 65754,
        "pitch": 35,
        "velocity": 124,
        "trackId": 12,
        "channel": 9
      },
      {
        "startTick": 65662,
        "endTick": 65764,
        "pitch": 31,
        "velocity": 123,
        "trackId": 4,
        "channel": 1
      },
      {
        "startTick": 65662,
        "endTick": 65846,
        "pitch": 49,
        "velocity": 122,
        "trackId": 12,
        "channel": 9
      },
      {
        "startTick": 65664,
        "endTick": 66312,
        "pitch": 74,
        "velocity": 123,
        "trackId": 3,
        "channel": 0
      },
      {
        "startTick": 65664,
        "endTick": 66364,
        "pitch": 67,
        "velocity": 123,
        "trackId": 3,
        "channel": 0
      },
      {
        "startTick": 65664,
        "endTick": 66370,
        "pitch": 70,
        "velocity": 123,
        "trackId": 3,
        "channel": 0
      },
      {
        "startTick": 65664,
        "endTick": 66382,
        "pitch": 55,
        "velocity": 122,
        "trackId": 3,
        "channel": 0
      },
      {
        "startTick": 65664,
        "endTick": 66388,
        "pitch": 62,
        "velocity": 123,
        "trackId": 3,
        "channel": 0
      },
      {
        "startTick": 65664,
        "endTick": 66402,
        "pitch": 43,
        "velocity": 120,
        "trackId": 9,
        "channel": 8
      },
      {
        "startTick": 65664,
        "endTick": 66452,
        "pitch": 50,
        "velocity": 122,
        "trackId": 9,
        "channel": 8
      },
      {
        "startTick": 65682,
        "endTick": 66456,
        "pitch": 70,
        "velocity": 122,
        "trackId": 2,
        "channel": 4
      },
      {
        "startTick": 65688,
        "endTick": 65718,
        "pitch": 69,
        "velocity": 115,
        "trackId": 2,
        "channel": 4
      },
      {
        "startTick": 65760,
        "endTick": 66498,
        "pitch": 43,
        "velocity": 114,
        "trackId": 10,
        "channel": 11
      },
      {
        "startTick": 65760,
        "endTick": 66548,
        "pitch": 50,
        "velocity": 117,
        "trackId": 10,
        "channel": 11
      },
      {
        "startTick": 65790,
        "endTick": 65822,
        "pitch": 31,
        "velocity": 121,
        "trackId": 4,
        "channel": 1
      },
      {
        "startTick": 65790,
        "endTick": 65884,
        "pitch": 35,
        "velocity": 123,
        "trackId": 12,
        "channel": 9
      },
      {
        "startTick": 65854,
        "endTick": 65942,
        "pitch": 31,
        "velocity": 119,
        "trackId": 4,
        "channel": 1
      },
      {
        "startTick": 65854,
        "endTick": 66018,
        "pitch": 46,
        "velocity": 123,
        "trackId": 12,
        "channel": 9
      },
      {
        "startTick": 65854,
        "endTick": 66208,
        "pitch": 40,
        "velocity": 124,
        "trackId": 12,
        "channel": 9
      },
      {
        "startTick": 65982,
        "endTick": 66020,
        "pitch": 35,
        "velocity": 121,
        "trackId": 12,
        "channel": 9
      },
      {
        "startTick": 65982,
        "endTick": 66024,
        "pitch": 31,
        "velocity": 117,
        "trackId": 4,
        "channel": 1
      },
      {
        "startTick": 66046,
        "endTick": 66130,
        "pitch": 31,
        "velocity": 119,
        "trackId": 4,
        "channel": 1
      },
      {
        "startTick": 66046,
        "endTick": 66138,
        "pitch": 35,
        "velocity": 121,
        "trackId": 12,
        "channel": 9
      },
      {
        "startTick": 66046,
        "endTick": 66180,
        "pitch": 46,
        "velocity": 122,
        "trackId": 12,
        "channel": 9
      },
      {
        "startTick": 66174,
        "endTick": 66216,
        "pitch": 31,
        "velocity": 116,
        "trackId": 4,
        "channel": 1
      },
      {
        "startTick": 66174,
        "endTick": 66262,
        "pitch": 35,
        "velocity": 123,
        "trackId": 12,
        "channel": 9
      },
      {
        "startTick": 66238,
        "endTick": 66288,
        "pitch": 31,
        "velocity": 115,
        "trackId": 4,
        "channel": 1
      },
      {
        "startTick": 66238,
        "endTick": 66396,
        "pitch": 46,
        "velocity": 122,
        "trackId": 12,
        "channel": 9
      },
      {
        "startTick": 66238,
        "endTick": 66560,
        "pitch": 40,
        "velocity": 124,
        "trackId": 12,
        "channel": 9
      },
      {
        "startTick": 66302,
        "endTick": 66352,
        "pitch": 34,
        "velocity": 115,
        "trackId": 4,
        "channel": 1
      },
      {
        "startTick": 66366,
        "endTick": 66406,
        "pitch": 35,
        "velocity": 121,
        "trackId": 12,
        "channel": 9
      },
      {
        "startTick": 66366,
        "endTick": 66418,
        "pitch": 35,
        "velocity": 112,
        "trackId": 4,
        "channel": 1
      },
      {
        "startTick": 66430,
        "endTick": 66528,
        "pitch": 35,
        "velocity": 122,
        "trackId": 12,
        "channel": 9
      },
      {
        "startTick": 66430,
        "endTick": 66532,
        "pitch": 36,
        "velocity": 119,
        "trackId": 4,
        "channel": 1
      },
      {
        "startTick": 66430,
        "endTick": 66608,
        "pitch": 49,
        "velocity": 123,
        "trackId": 12,
        "channel": 9
      },
      {
        "startTick": 66432,
        "endTick": 67108,
        "pitch": 64,
        "velocity": 123,
        "trackId": 3,
        "channel": 0
      },
      {
        "startTick": 66432,
        "endTick": 67138,
        "pitch": 67,
        "velocity": 123,
        "trackId": 3,
        "channel": 0
      },
      {
        "startTick": 66432,
        "endTick": 67168,
        "pitch": 76,
        "velocity": 123,
        "trackId": 3,
        "channel": 0
      },
      {
        "startTick": 66432,
        "endTick": 67174,
        "pitch": 72,
        "velocity": 123,
        "trackId": 3,
        "channel": 0
      },
      {
        "startTick": 66432,
        "endTick": 67200,
        "pitch": 60,
        "velocity": 123,
        "trackId": 3,
        "channel": 0
      },
      {
        "startTick": 66432,
        "endTick": 67222,
        "pitch": 48,
        "velocity": 120,
        "trackId": 9,
        "channel": 8
      },
      {
        "startTick": 66436,
        "endTick": 66614,
        "pitch": 69,
        "velocity": 116,
        "trackId": 2,
        "channel": 4
      },
      {
        "startTick": 66528,
        "endTick": 67318,
        "pitch": 48,
        "velocity": 114,
        "trackId": 10,
        "channel": 11
      },
      {
        "startTick": 66558,
        "endTick": 66586,
        "pitch": 36,
        "velocity": 120,
        "trackId": 4,
        "channel": 1
      },
      {
        "startTick": 66558,
        "endTick": 66650,
        "pitch": 35,
        "velocity": 121,
        "trackId": 12,
        "channel": 9
      },
      {
        "startTick": 66614,
        "endTick": 67136,
        "pitch": 67,
        "velocity": 123,
        "trackId": 2,
        "channel": 4
      },
      {
        "startTick": 66622,
        "endTick": 66712,
        "pitch": 36,
        "velocity": 113,
        "trackId": 4,
        "channel": 1
      },
      {
        "startTick": 66622,
        "endTick": 66754,
        "pitch": 46,
        "velocity": 122,
        "trackId": 12,
        "channel": 9
      },
      {
        "startTick": 66622,
        "endTick": 66970,
        "pitch": 40,
        "velocity": 123,
        "trackId": 12,
        "channel": 9
      },
      {
        "startTick": 66750,
        "endTick": 66786,
        "pitch": 36,
        "velocity": 114,
        "trackId": 4,
        "channel": 1
      },
      {
        "startTick": 66750,
        "endTick": 66790,
        "pitch": 35,
        "velocity": 121,
        "trackId": 12,
        "channel": 9
      },
      {
        "startTick": 66814,
        "endTick": 66898,
        "pitch": 36,
        "velocity": 118,
        "trackId": 4,
        "channel": 1
      },
      {
        "startTick": 66814,
        "endTick": 66898,
        "pitch": 35,
        "velocity": 121,
        "trackId": 12,
        "channel": 9
      },
      {
        "startTick": 66814,
        "endTick": 66950,
        "pitch": 46,
        "velocity": 122,
        "trackId": 12,
        "channel": 9
      },
      {
        "startTick": 66942,
        "endTick": 66970,
        "pitch": 36,
        "velocity": 104,
        "trackId": 4,
        "channel": 1
      },
      {
        "startTick": 66942,
        "endTick": 67080,
        "pitch": 35,
        "velocity": 121,
        "trackId": 12,
        "channel": 9
      },
      {
        "startTick": 67006,
        "endTick": 67110,
        "pitch": 36,
        "velocity": 112,
        "trackId": 4,
        "channel": 1
      },
      {
        "startTick": 67006,
        "endTick": 67162,
        "pitch": 46,
        "velocity": 122,
        "trackId": 12,
        "channel": 9
      },
      {
        "startTick": 67006,
        "endTick": 67342,
        "pitch": 40,
        "velocity": 124,
        "trackId": 12,
        "channel": 9
      },
      {
        "startTick": 67134,
        "endTick": 67172,
        "pitch": 35,
        "velocity": 122,
        "trackId": 12,
        "channel": 9
      },
      {
        "startTick": 67134,
        "endTick": 67198,
        "pitch": 36,
        "velocity": 121,
        "trackId": 4,
        "channel": 1
      },
      {
        "startTick": 67198,
        "endTick": 67274,
        "pitch": 31,
        "velocity": 123,
        "trackId": 4,
        "channel": 1
      },
      {
        "startTick": 67198,
        "endTick": 67294,
        "pitch": 35,
        "velocity": 121,
        "trackId": 12,
        "channel": 9
      },
      {
        "startTick": 67198,
        "endTick": 67328,
        "pitch": 46,
        "velocity": 122,
        "trackId": 12,
        "channel": 9
      },
      {
        "startTick": 67200,
        "endTick": 67876,
        "pitch": 65,
        "velocity": 123,
        "trackId": 3,
        "channel": 0
      },
      {
        "startTick": 67200,
        "endTick": 67928,
        "pitch": 43,
        "velocity": 122,
        "trackId": 9,
        "channel": 8
      },
      {
        "startTick": 67200,
        "endTick": 67930,
        "pitch": 55,
        "velocity": 123,
        "trackId": 3,
        "channel": 0
      },
      {
        "startTick": 67200,
        "endTick": 67932,
        "pitch": 74,
        "velocity": 123,
        "trackId": 3,
        "channel": 0
      },
      {
        "startTick": 67200,
        "endTick": 67940,
        "pitch": 70,
        "velocity": 123,
        "trackId": 3,
        "channel": 0
      },
      {
        "startTick": 67200,
        "endTick": 67948,
        "pitch": 62,
        "velocity": 123,
        "trackId": 3,
        "channel": 0
      },
      {
        "startTick": 67200,
        "endTick": 67952,
        "pitch": 46,
        "velocity": 120,
        "trackId": 9,
        "channel": 8
      },
      {
        "startTick": 67296,
        "endTick": 68024,
        "pitch": 43,
        "velocity": 117,
        "trackId": 10,
        "channel": 11
      },
      {
        "startTick": 67296,
        "endTick": 68048,
        "pitch": 46,
        "velocity": 114,
        "trackId": 10,
        "channel": 11
      },
      {
        "startTick": 67326,
        "endTick": 67360,
        "pitch": 31,
        "velocity": 92,
        "trackId": 4,
        "channel": 1
      },
      {
        "startTick": 67326,
        "endTick": 67430,
        "pitch": 70,
        "velocity": 122,
        "trackId": 2,
        "channel": 4
      },
      {
        "startTick": 67326,
        "endTick": 67462,
        "pitch": 35,
        "velocity": 121,
        "trackId": 12,
        "channel": 9
      },
      {
        "startTick": 67390,
        "endTick": 67468,
        "pitch": 31,
        "velocity": 122,
        "trackId": 4,
        "channel": 1
      },
      {
        "startTick": 67390,
        "endTick": 67530,
        "pitch": 46,
        "velocity": 122,
        "trackId": 12,
        "channel": 9
      },
      {
        "startTick": 67390,
        "endTick": 67730,
        "pitch": 40,
        "velocity": 123,
        "trackId": 12,
        "channel": 9
      },
      {
        "startTick": 67462,
        "endTick": 67568,
        "pitch": 70,
        "velocity": 123,
        "trackId": 2,
        "channel": 4
      },
      {
        "startTick": 67518,
        "endTick": 67558,
        "pitch": 31,
        "velocity": 115,
        "trackId": 4,
        "channel": 1
      },
      {
        "startTick": 67518,
        "endTick": 67558,
        "pitch": 35,
        "velocity": 120,
        "trackId": 12,
        "channel": 9
      },
      {
        "startTick": 67582,
        "endTick": 67660,
        "pitch": 31,
        "velocity": 118,
        "trackId": 4,
        "channel": 1
      },
      {
        "startTick": 67582,
        "endTick": 67664,
        "pitch": 35,
        "velocity": 121,
        "trackId": 12,
        "channel": 9
      },
      {
        "startTick": 67582,
        "endTick": 67720,
        "pitch": 46,
        "velocity": 122,
        "trackId": 12,
        "channel": 9
      },
      {
        "startTick": 67600,
        "endTick": 67686,
        "pitch": 70,
        "velocity": 123,
        "trackId": 2,
        "channel": 4
      },
      {
        "startTick": 67710,
        "endTick": 67746,
        "pitch": 31,
        "velocity": 114,
        "trackId": 4,
        "channel": 1
      },
      {
        "startTick": 67710,
        "endTick": 67852,
        "pitch": 35,
        "velocity": 121,
        "trackId": 12,
        "channel": 9
      },
      {
        "startTick": 67722,
        "endTick": 67814,
        "pitch": 70,
        "velocity": 119,
        "trackId": 2,
        "channel": 4
      },
      {
        "startTick": 67774,
        "endTick": 67826,
        "pitch": 31,
        "velocity": 120,
        "trackId": 4,
        "channel": 1
      },
      {
        "startTick": 67774,
        "endTick": 67922,
        "pitch": 46,
        "velocity": 122,
        "trackId": 12,
        "channel": 9
      },
      {
        "startTick": 67774,
        "endTick": 68108,
        "pitch": 40,
        "velocity": 124,
        "trackId": 12,
        "channel": 9
      },
      {
        "startTick": 67838,
        "endTick": 67886,
        "pitch": 34,
        "velocity": 119,
        "trackId": 4,
        "channel": 1
      },
      {
        "startTick": 67850,
        "endTick": 67984,
        "pitch": 70,
        "velocity": 122,
        "trackId": 2,
        "channel": 4
      },
      {
        "startTick": 67902,
        "endTick": 67942,
        "pitch": 35,
        "velocity": 121,
        "trackId": 12,
        "channel": 9
      },
      {
        "startTick": 67902,
        "endTick": 67950,
        "pitch": 35,
        "velocity": 106,
        "trackId": 4,
        "channel": 1
      },
      {
        "startTick": 67966,
        "endTick": 68052,
        "pitch": 36,
        "velocity": 120,
        "trackId": 4,
        "channel": 1
      },
      {
        "startTick": 67966,
        "endTick": 68052,
        "pitch": 35,
        "velocity": 123,
        "trackId": 12,
        "channel": 9
      },
      {
        "startTick": 67966,
        "endTick": 68104,
        "pitch": 46,
        "velocity": 122,
        "trackId": 12,
        "channel": 9
      },
      {
        "startTick": 67968,
        "endTick": 68674,
        "pitch": 67,
        "velocity": 123,
        "trackId": 3,
        "channel": 0
      },
      {
        "startTick": 67968,
        "endTick": 68692,
        "pitch": 76,
        "velocity": 123,
        "trackId": 3,
        "channel": 0
      },
      {
        "startTick": 67968,
        "endTick": 68696,
        "pitch": 64,
        "velocity": 123,
        "trackId": 3,
        "channel": 0
      },
      {
        "startTick": 67968,
        "endTick": 68702,
        "pitch": 72,
        "velocity": 123,
        "trackId": 3,
        "channel": 0
      },
      {
        "startTick": 67968,
        "endTick": 68716,
        "pitch": 43,
        "velocity": 120,
        "trackId": 9,
        "channel": 8
      },
      {
        "startTick": 67968,
        "endTick": 68726,
        "pitch": 60,
        "velocity": 123,
        "trackId": 3,
        "channel": 0
      },
      {
        "startTick": 67968,
        "endTick": 68742,
        "pitch": 48,
        "velocity": 118,
        "trackId": 9,
        "channel": 8
      },
      {
        "startTick": 67980,
        "endTick": 68168,
        "pitch": 69,
        "velocity": 120,
        "trackId": 2,
        "channel": 4
      },
      {
        "startTick": 68064,
        "endTick": 68812,
        "pitch": 43,
        "velocity": 114,
        "trackId": 10,
        "channel": 11
      },
      {
        "startTick": 68064,
        "endTick": 68838,
        "pitch": 48,
        "velocity": 112,
        "trackId": 10,
        "channel": 11
      },
      {
        "startTick": 68094,
        "endTick": 68128,
        "pitch": 36,
        "velocity": 112,
        "trackId": 4,
        "channel": 1
      },
      {
        "startTick": 68094,
        "endTick": 68226,
        "pitch": 35,
        "velocity": 121,
        "trackId": 12,
        "channel": 9
      },
      {
        "startTick": 68158,
        "endTick": 68240,
        "pitch": 36,
        "velocity": 118,
        "trackId": 4,
        "channel": 1
      },
      {
        "startTick": 68158,
        "endTick": 68300,
        "pitch": 46,
        "velocity": 122,
        "trackId": 12,
        "channel": 9
      },
      {
        "startTick": 68158,
        "endTick": 68500,
        "pitch": 40,
        "velocity": 123,
        "trackId": 12,
        "channel": 9
      },
      {
        "startTick": 68170,
        "endTick": 68510,
        "pitch": 67,
        "velocity": 123,
        "trackId": 2,
        "channel": 4
      },
      {
        "startTick": 68286,
        "endTick": 68320,
        "pitch": 36,
        "velocity": 115,
        "trackId": 4,
        "channel": 1
      },
      {
        "startTick": 68286,
        "endTick": 68326,
        "pitch": 35,
        "velocity": 123,
        "trackId": 12,
        "channel": 9
      },
      {
        "startTick": 68350,
        "endTick": 68428,
        "pitch": 35,
        "velocity": 122,
        "trackId": 12,
        "channel": 9
      },
      {
        "startTick": 68350,
        "endTick": 68430,
        "pitch": 36,
        "velocity": 116,
        "trackId": 4,
        "channel": 1
      },
      {
        "startTick": 68350,
        "endTick": 68482,
        "pitch": 46,
        "velocity": 121,
        "trackId": 12,
        "channel": 9
      },
      {
        "startTick": 68478,
        "endTick": 68526,
        "pitch": 36,
        "velocity": 114,
        "trackId": 4,
        "channel": 1
      },
      {
        "startTick": 68478,
        "endTick": 68572,
        "pitch": 35,
        "velocity": 123,
        "trackId": 12,
        "channel": 9
      },
      {
        "startTick": 68542,
        "endTick": 68608,
        "pitch": 36,
        "velocity": 118,
        "trackId": 4,
        "channel": 1
      },
      {
        "startTick": 68542,
        "endTick": 68712,
        "pitch": 46,
        "velocity": 121,
        "trackId": 12,
        "channel": 9
      },
      {
        "startTick": 68542,
        "endTick": 68892,
        "pitch": 40,
        "velocity": 123,
        "trackId": 12,
        "channel": 9
      },
      {
        "startTick": 68670,
        "endTick": 68710,
        "pitch": 35,
        "velocity": 123,
        "trackId": 12,
        "channel": 9
      },
      {
        "startTick": 68670,
        "endTick": 68726,
        "pitch": 36,
        "velocity": 113,
        "trackId": 4,
        "channel": 1
      },
      {
        "startTick": 68726,
        "endTick": 68840,
        "pitch": 65,
        "velocity": 123,
        "trackId": 2,
        "channel": 4
      },
      {
        "startTick": 68734,
        "endTick": 68848,
        "pitch": 35,
        "velocity": 124,
        "trackId": 12,
        "channel": 9
      },
      {
        "startTick": 68734,
        "endTick": 69074,
        "pitch": 49,
        "velocity": 123,
        "trackId": 12,
        "channel": 9
      },
      {
        "startTick": 68734,
        "endTick": 69118,
        "pitch": 31,
        "velocity": 125,
        "trackId": 4,
        "channel": 1
      },
      {
        "startTick": 68736,
        "endTick": 69010,
        "pitch": 65,
        "velocity": 123,
        "trackId": 3,
        "channel": 0
      },
      {
        "startTick": 68736,
        "endTick": 69088,
        "pitch": 70,
        "velocity": 123,
        "trackId": 3,
        "channel": 0
      },
      {
        "startTick": 68736,
        "endTick": 69096,
        "pitch": 74,
        "velocity": 123,
        "trackId": 3,
        "channel": 0
      },
      {
        "startTick": 68736,
        "endTick": 69098,
        "pitch": 43,
        "velocity": 118,
        "trackId": 9,
        "channel": 8
      },
      {
        "startTick": 68736,
        "endTick": 69108,
        "pitch": 55,
        "velocity": 121,
        "trackId": 3,
        "channel": 0
      },
      {
        "startTick": 68736,
        "endTick": 69114,
        "pitch": 62,
        "velocity": 123,
        "trackId": 3,
        "channel": 0
      },
      {
        "startTick": 68736,
        "endTick": 69120,
        "pitch": 46,
        "velocity": 121,
        "trackId": 9,
        "channel": 8
      },
      {
        "startTick": 68832,
        "endTick": 69194,
        "pitch": 43,
        "velocity": 112,
        "trackId": 10,
        "channel": 11
      },
      {
        "startTick": 68832,
        "endTick": 69216,
        "pitch": 46,
        "velocity": 115,
        "trackId": 10,
        "channel": 11
      },
      {
        "startTick": 68862,
        "endTick": 68938,
        "pitch": 65,
        "velocity": 120,
        "trackId": 2,
        "channel": 4
      },
      {
        "startTick": 68862,
        "endTick": 68946,
        "pitch": 35,
        "velocity": 123,
        "trackId": 12,
        "channel": 9
      },
      {
        "startTick": 68926,
        "endTick": 69068,
        "pitch": 46,
        "velocity": 122,
        "trackId": 12,
        "channel": 9
      },
      {
        "startTick": 68926,
        "endTick": 69280,
        "pitch": 40,
        "velocity": 123,
        "trackId": 12,
        "channel": 9
      },
      {
        "startTick": 68994,
        "endTick": 69034,
        "pitch": 65,
        "velocity": 122,
        "trackId": 2,
        "channel": 4
      },
      {
        "startTick": 69054,
        "endTick": 69244,
        "pitch": 35,
        "velocity": 124,
        "trackId": 12,
        "channel": 9
      },
      {
        "startTick": 69062,
        "endTick": 69102,
        "pitch": 65,
        "velocity": 122,
        "trackId": 2,
        "channel": 4
      },
      {
        "startTick": 69082,
        "endTick": 69086,
        "pitch": 64,
        "velocity": 81,
        "trackId": 2,
        "channel": 4
      },
      {
        "startTick": 69118,
        "endTick": 69432,
        "pitch": 49,
        "velocity": 123,
        "trackId": 12,
        "channel": 9
      },
      {
        "startTick": 69118,
        "endTick": 69502,
        "pitch": 36,
        "velocity": 123,
        "trackId": 4,
        "channel": 1
      },
      {
        "startTick": 69120,
        "endTick": 69444,
        "pitch": 67,
        "velocity": 123,
        "trackId": 3,
        "channel": 0
      },
      {
        "startTick": 69120,
        "endTick": 69464,
        "pitch": 76,
        "velocity": 122,
        "trackId": 3,
        "channel": 0
      },
      {
        "startTick": 69120,
        "endTick": 69470,
        "pitch": 43,
        "velocity": 122,
        "trackId": 9,
        "channel": 8
      },
      {
        "startTick": 69120,
        "endTick": 69478,
        "pitch": 64,
        "velocity": 123,
        "trackId": 3,
        "channel": 0
      },
      {
        "startTick": 69120,
        "endTick": 69488,
        "pitch": 72,
        "velocity": 123,
        "trackId": 3,
        "channel": 0
      },
      {
        "startTick": 69120,
        "endTick": 69504,
        "pitch": 60,
        "velocity": 123,
        "trackId": 3,
        "channel": 0
      },
      {
        "startTick": 69120,
        "endTick": 69514,
        "pitch": 48,
        "velocity": 118,
        "trackId": 9,
        "channel": 8
      },
      {
        "startTick": 69128,
        "endTick": 69516,
        "pitch": 67,
        "velocity": 122,
        "trackId": 2,
        "channel": 4
      },
      {
        "startTick": 69216,
        "endTick": 69566,
        "pitch": 43,
        "velocity": 117,
        "trackId": 10,
        "channel": 11
      },
      {
        "startTick": 69216,
        "endTick": 69610,
        "pitch": 48,
        "velocity": 112,
        "trackId": 10,
        "channel": 11
      },
      {
        "startTick": 69246,
        "endTick": 69402,
        "pitch": 35,
        "velocity": 123,
        "trackId": 12,
        "channel": 9
      },
      {
        "startTick": 69310,
        "endTick": 69426,
        "pitch": 46,
        "velocity": 122,
        "trackId": 12,
        "channel": 9
      },
      {
        "startTick": 69310,
        "endTick": 69674,
        "pitch": 40,
        "velocity": 123,
        "trackId": 12,
        "channel": 9
      },
      {
        "startTick": 69438,
        "endTick": 69478,
        "pitch": 35,
        "velocity": 121,
        "trackId": 12,
        "channel": 9
      },
      {
        "startTick": 69502,
        "endTick": 69618,
        "pitch": 35,
        "velocity": 122,
        "trackId": 12,
        "channel": 9
      },
      {
        "startTick": 69502,
        "endTick": 69826,
        "pitch": 49,
        "velocity": 123,
        "trackId": 12,
        "channel": 9
      },
      {
        "startTick": 69502,
        "endTick": 69886,
        "pitch": 31,
        "velocity": 125,
        "trackId": 4,
        "channel": 1
      },
      {
        "startTick": 69504,
        "endTick": 69804,
        "pitch": 65,
        "velocity": 123,
        "trackId": 3,
        "channel": 0
      },
      {
        "startTick": 69504,
        "endTick": 69852,
        "pitch": 74,
        "velocity": 123,
        "trackId": 3,
        "channel": 0
      },
      {
        "startTick": 69504,
        "endTick": 69858,
        "pitch": 70,
        "velocity": 123,
        "trackId": 3,
        "channel": 0
      },
      {
        "startTick": 69504,
        "endTick": 69866,
        "pitch": 62,
        "velocity": 123,
        "trackId": 3,
        "channel": 0
      },
      {
        "startTick": 69504,
        "endTick": 69868,
        "pitch": 55,
        "velocity": 123,
        "trackId": 3,
        "channel": 0
      },
      {
        "startTick": 69504,
        "endTick": 69890,
        "pitch": 46,
        "velocity": 121,
        "trackId": 9,
        "channel": 8
      },
      {
        "startTick": 69504,
        "endTick": 70270,
        "pitch": 43,
        "velocity": 119,
        "trackId": 9,
        "channel": 8
      },
      {
        "startTick": 69518,
        "endTick": 69614,
        "pitch": 65,
        "velocity": 118,
        "trackId": 2,
        "channel": 4
      },
      {
        "startTick": 69600,
        "endTick": 69986,
        "pitch": 46,
        "velocity": 115,
        "trackId": 10,
        "channel": 11
      },
      {
        "startTick": 69600,
        "endTick": 70366,
        "pitch": 43,
        "velocity": 113,
        "trackId": 10,
        "channel": 11
      },
      {
        "startTick": 69630,
        "endTick": 69694,
        "pitch": 35,
        "velocity": 124,
        "trackId": 12,
        "channel": 9
      },
      {
        "startTick": 69642,
        "endTick": 69696,
        "pitch": 65,
        "velocity": 119,
        "trackId": 2,
        "channel": 4
      },
      {
        "startTick": 69694,
        "endTick": 69790,
        "pitch": 40,
        "velocity": 124,
        "trackId": 12,
        "channel": 9
      },
      {
        "startTick": 69694,
        "endTick": 69810,
        "pitch": 46,
        "velocity": 122,
        "trackId": 12,
        "channel": 9
      },
      {
        "startTick": 69734,
        "endTick": 69778,
        "pitch": 65,
        "velocity": 122,
        "trackId": 2,
        "channel": 4
      },
      {
        "startTick": 69804,
        "endTick": 69882,
        "pitch": 65,
        "velocity": 122,
        "trackId": 2,
        "channel": 4
      },
      {
        "startTick": 69886,
        "endTick": 69950,
        "pitch": 35,
        "velocity": 123,
        "trackId": 12,
        "channel": 9
      },
      {
        "startTick": 69886,
        "endTick": 70082,
        "pitch": 49,
        "velocity": 123,
        "trackId": 12,
        "channel": 9
      },
      {
        "startTick": 69886,
        "endTick": 70142,
        "pitch": 36,
        "velocity": 121,
        "trackId": 4,
        "channel": 1
      },
      {
        "startTick": 69888,
        "endTick": 70194,
        "pitch": 64,
        "velocity": 123,
        "trackId": 3,
        "channel": 0
      },
      {
        "startTick": 69888,
        "endTick": 70214,
        "pitch": 76,
        "velocity": 121,
        "trackId": 3,
        "channel": 0
      },
      {
        "startTick": 69888,
        "endTick": 70220,
        "pitch": 67,
        "velocity": 123,
        "trackId": 3,
        "channel": 0
      },
      {
        "startTick": 69888,
        "endTick": 70246,
        "pitch": 72,
        "velocity": 123,
        "trackId": 3,
        "channel": 0
      },
      {
        "startTick": 69888,
        "endTick": 70268,
        "pitch": 60,
        "velocity": 123,
        "trackId": 3,
        "channel": 0
      },
      {
        "startTick": 69888,
        "endTick": 70282,
        "pitch": 48,
        "velocity": 116,
        "trackId": 9,
        "channel": 8
      },
      {
        "startTick": 69916,
        "endTick": 70054,
        "pitch": 67,
        "velocity": 123,
        "trackId": 2,
        "channel": 4
      },
      {
        "startTick": 69984,
        "endTick": 70378,
        "pitch": 48,
        "velocity": 109,
        "trackId": 10,
        "channel": 11
      },
      {
        "startTick": 70014,
        "endTick": 70058,
        "pitch": 35,
        "velocity": 123,
        "trackId": 12,
        "channel": 9
      },
      {
        "startTick": 70040,
        "endTick": 70152,
        "pitch": 65,
        "velocity": 123,
        "trackId": 2,
        "channel": 4
      },
      {
        "startTick": 70078,
        "endTick": 70132,
        "pitch": 46,
        "velocity": 122,
        "trackId": 12,
        "channel": 9
      },
      {
        "startTick": 70078,
        "endTick": 70174,
        "pitch": 40,
        "velocity": 124,
        "trackId": 12,
        "channel": 9
      },
      {
        "startTick": 70142,
        "endTick": 70202,
        "pitch": 49,
        "velocity": 123,
        "trackId": 12,
        "channel": 9
      },
      {
        "startTick": 70142,
        "endTick": 70206,
        "pitch": 35,
        "velocity": 124,
        "trackId": 12,
        "channel": 9
      },
      {
        "startTick": 70160,
        "endTick": 70262,
        "pitch": 64,
        "velocity": 123,
        "trackId": 2,
        "channel": 4
      },
      {
        "startTick": 70174,
        "endTick": 70230,
        "pitch": 31,
        "velocity": 118,
        "trackId": 4,
        "channel": 1
      },
      {
        "startTick": 70206,
        "endTick": 70332,
        "pitch": 46,
        "velocity": 123,
        "trackId": 12,
        "channel": 9
      },
      {
        "startTick": 70206,
        "endTick": 70412,
        "pitch": 40,
        "velocity": 123,
        "trackId": 12,
        "channel": 9
      },
      {
        "startTick": 70270,
        "endTick": 70366,
        "pitch": 35,
        "velocity": 123,
        "trackId": 12,
        "channel": 9
      },
      {
        "startTick": 70270,
        "endTick": 70394,
        "pitch": 41,
        "velocity": 124,
        "trackId": 4,
        "channel": 1
      },
      {
        "startTick": 70270,
        "endTick": 71422,
        "pitch": 49,
        "velocity": 123,
        "trackId": 12,
        "channel": 9
      },
      {
        "startTick": 70272,
        "endTick": 70396,
        "pitch": 65,
        "velocity": 123,
        "trackId": 3,
        "channel": 0
      },
      {
        "startTick": 70272,
        "endTick": 70396,
        "pitch": 77,
        "velocity": 123,
        "trackId": 3,
        "channel": 0
      },
      {
        "startTick": 70272,
        "endTick": 70396,
        "pitch": 53,
        "velocity": 121,
        "trackId": 9,
        "channel": 8
      },
      {
        "startTick": 70280,
        "endTick": 70412,
        "pitch": 65,
        "velocity": 122,
        "trackId": 2,
        "channel": 4
      },
      {
        "startTick": 70368,
        "endTick": 70492,
        "pitch": 53,
        "velocity": 115,
        "trackId": 10,
        "channel": 11
      },
      {
        "startTick": 70398,
        "endTick": 70524,
        "pitch": 33,
        "velocity": 124,
        "trackId": 4,
        "channel": 1
      },
      {
        "startTick": 70398,
        "endTick": 70582,
        "pitch": 35,
        "velocity": 121,
        "trackId": 12,
        "channel": 9
      },
      {
        "startTick": 70400,
        "endTick": 70524,
        "pitch": 57,
        "velocity": 123,
        "trackId": 3,
        "channel": 0
      },
      {
        "startTick": 70400,
        "endTick": 70524,
        "pitch": 69,
        "velocity": 123,
        "trackId": 3,
        "channel": 0
      },
      {
        "startTick": 70400,
        "endTick": 70524,
        "pitch": 45,
        "velocity": 121,
        "trackId": 9,
        "channel": 8
      },
      {
        "startTick": 70412,
        "endTick": 70478,
        "pitch": 62,
        "velocity": 120,
        "trackId": 2,
        "channel": 4
      },
      {
        "startTick": 70458,
        "endTick": 71092,
        "pitch": 60,
        "velocity": 119,
        "trackId": 2,
        "channel": 4
      },
      {
        "startTick": 70462,
        "endTick": 70628,
        "pitch": 46,
        "velocity": 122,
        "trackId": 12,
        "channel": 9
      },
      {
        "startTick": 70462,
        "endTick": 70786,
        "pitch": 40,
        "velocity": 123,
        "trackId": 12,
        "channel": 9
      },
      {
        "startTick": 70496,
        "endTick": 70620,
        "pitch": 45,
        "velocity": 116,
        "trackId": 10,
        "channel": 11
      },
      {
        "startTick": 70526,
        "endTick": 70642,
        "pitch": 34,
        "velocity": 123,
        "trackId": 4,
        "channel": 1
      },
      {
        "startTick": 70528,
        "endTick": 70652,
        "pitch": 58,
        "velocity": 122,
        "trackId": 3,
        "channel": 0
      },
      {
        "startTick": 70528,
        "endTick": 70652,
        "pitch": 70,
        "velocity": 122,
        "trackId": 3,
        "channel": 0
      },
      {
        "startTick": 70528,
        "endTick": 70652,
        "pitch": 46,
        "velocity": 120,
        "trackId": 9,
        "channel": 8
      },
      {
        "startTick": 70624,
        "endTick": 70748,
        "pitch": 46,
        "velocity": 114,
        "trackId": 10,
        "channel": 11
      },
      {
        "startTick": 70654,
        "endTick": 70728,
        "pitch": 35,
        "velocity": 123,
        "trackId": 12,
        "channel": 9
      },
      {
        "startTick": 70654,
        "endTick": 70772,
        "pitch": 35,
        "velocity": 125,
        "trackId": 4,
        "channel": 1
      },
      {
        "startTick": 70654,
        "endTick": 70790,
        "pitch": 46,
        "velocity": 122,
        "trackId": 12,
        "channel": 9
      },
      {
        "startTick": 70656,
        "endTick": 70800,
        "pitch": 59,
        "velocity": 123,
        "trackId": 3,
        "channel": 0
      },
      {
        "startTick": 70656,
        "endTick": 70800,
        "pitch": 71,
        "velocity": 123,
        "trackId": 3,
        "channel": 0
      },
      {
        "startTick": 70656,
        "endTick": 70800,
        "pitch": 47,
        "velocity": 122,
        "trackId": 9,
        "channel": 8
      },
      {
        "startTick": 70752,
        "endTick": 70896,
        "pitch": 47,
        "velocity": 117,
        "trackId": 10,
        "channel": 11
      },
      {
        "startTick": 70782,
        "endTick": 70852,
        "pitch": 36,
        "velocity": 122,
        "trackId": 4,
        "channel": 1
      },
      {
        "startTick": 70782,
        "endTick": 70980,
        "pitch": 35,
        "velocity": 121,
        "trackId": 12,
        "channel": 9
      },
      {
        "startTick": 70784,
        "endTick": 70864,
        "pitch": 60,
        "velocity": 120,
        "trackId": 3,
        "channel": 0
      },
      {
        "startTick": 70784,
        "endTick": 70864,
        "pitch": 72,
        "velocity": 120,
        "trackId": 3,
        "channel": 0
      },
      {
        "startTick": 70784,
        "endTick": 70864,
        "pitch": 48,
        "velocity": 117,
        "trackId": 9,
        "channel": 8
      },
      {
        "startTick": 70846,
        "endTick": 70906,
        "pitch": 38,
        "velocity": 119,
        "trackId": 4,
        "channel": 1
      },
      {
        "startTick": 70846,
        "endTick": 70986,
        "pitch": 46,
        "velocity": 122,
        "trackId": 12,
        "channel": 9
      },
      {
        "startTick": 70846,
        "endTick": 71174,
        "pitch": 40,
        "velocity": 123,
        "trackId": 12,
        "channel": 9
      },
      {
        "startTick": 70848,
        "endTick": 70914,
        "pitch": 62,
        "velocity": 121,
        "trackId": 3,
        "channel": 0
      },
      {
        "startTick": 70848,
        "endTick": 70914,
        "pitch": 74,
        "velocity": 121,
        "trackId": 3,
        "channel": 0
      },
      {
        "startTick": 70848,
        "endTick": 70914,
        "pitch": 50,
        "velocity": 118,
        "trackId": 9,
        "channel": 8
      },
      {
        "startTick": 70880,
        "endTick": 70960,
        "pitch": 48,
        "velocity": 110,
        "trackId": 10,
        "channel": 11
      },
      {
        "startTick": 70910,
        "endTick": 70986,
        "pitch": 40,
        "velocity": 120,
        "trackId": 4,
        "channel": 1
      },
      {
        "startTick": 70912,
        "endTick": 70998,
        "pitch": 64,
        "velocity": 122,
        "trackId": 3,
        "channel": 0
      },
      {
        "startTick": 70912,
        "endTick": 70998,
        "pitch": 76,
        "velocity": 122,
        "trackId": 3,
        "channel": 0
      },
      {
        "startTick": 70912,
        "endTick": 70998,
        "pitch": 52,
        "velocity": 120,
        "trackId": 9,
        "channel": 8
      },
      {
        "startTick": 70944,
        "endTick": 71010,
        "pitch": 50,
        "velocity": 112,
        "trackId": 10,
        "channel": 11
      },
      {
        "startTick": 70974,
        "endTick": 71012,
        "pitch": 41,
        "velocity": 123,
        "trackId": 4,
        "channel": 1
      },
      {
        "startTick": 70976,
        "endTick": 71022,
        "pitch": 65,
        "velocity": 123,
        "trackId": 3,
        "channel": 0
      },
      {
        "startTick": 70976,
        "endTick": 71022,
        "pitch": 77,
        "velocity": 123,
        "trackId": 3,
        "channel": 0
      },
      {
        "startTick": 70976,
        "endTick": 71022,
        "pitch": 53,
        "velocity": 121,
        "trackId": 9,
        "channel": 8
      },
      {
        "startTick": 71008,
        "endTick": 71094,
        "pitch": 52,
        "velocity": 114,
        "trackId": 10,
        "channel": 11
      },
      {
        "startTick": 71038,
        "endTick": 71118,
        "pitch": 35,
        "velocity": 123,
        "trackId": 12,
        "channel": 9
      },
      {
        "startTick": 71038,
        "endTick": 71176,
        "pitch": 41,
        "velocity": 125,
        "trackId": 4,
        "channel": 1
      },
      {
        "startTick": 71038,
        "endTick": 71178,
        "pitch": 46,
        "velocity": 123,
        "trackId": 12,
        "channel": 9
      },
      {
        "startTick": 71040,
        "endTick": 71164,
        "pitch": 65,
        "velocity": 123,
        "trackId": 3,
        "channel": 0
      },
      {
        "startTick": 71040,
        "endTick": 71164,
        "pitch": 77,
        "velocity": 123,
        "trackId": 3,
        "channel": 0
      },
      {
        "startTick": 71040,
        "endTick": 71164,
        "pitch": 53,
        "velocity": 121,
        "trackId": 9,
        "channel": 8
      },
      {
        "startTick": 71072,
        "endTick": 71118,
        "pitch": 53,
        "velocity": 115,
        "trackId": 10,
        "channel": 11
      },
      {
        "startTick": 71076,
        "endTick": 71104,
        "pitch": 59,
        "velocity": 109,
        "trackId": 2,
        "channel": 4
      },
      {
        "startTick": 71100,
        "endTick": 71116,
        "pitch": 57,
        "velocity": 110,
        "trackId": 2,
        "channel": 4
      },
      {
        "startTick": 71122,
        "endTick": 71134,
        "pitch": 55,
        "velocity": 104,
        "trackId": 2,
        "channel": 4
      },
      {
        "startTick": 71136,
        "endTick": 71260,
        "pitch": 53,
        "velocity": 115,
        "trackId": 10,
        "channel": 11
      },
      {
        "startTick": 71166,
        "endTick": 71308,
        "pitch": 33,
        "velocity": 125,
        "trackId": 4,
        "channel": 1
      },
      {
        "startTick": 71166,
        "endTick": 71344,
        "pitch": 35,
        "velocity": 120,
        "trackId": 12,
        "channel": 9
      },
      {
        "startTick": 71168,
        "endTick": 71302,
        "pitch": 57,
        "velocity": 123,
        "trackId": 3,
        "channel": 0
      },
      {
        "startTick": 71168,
        "endTick": 71302,
        "pitch": 69,
        "velocity": 123,
        "trackId": 3,
        "channel": 0
      },
      {
        "startTick": 71168,
        "endTick": 71302,
        "pitch": 45,
        "velocity": 121,
        "trackId": 9,
        "channel": 8
      },
      {
        "startTick": 71230,
        "endTick": 71376,
        "pitch": 46,
        "velocity": 123,
        "trackId": 12,
        "channel": 9
      },
      {
        "startTick": 71230,
        "endTick": 71568,
        "pitch": 40,
        "velocity": 123,
        "trackId": 12,
        "channel": 9
      },
      {
        "startTick": 71264,
        "endTick": 71398,
        "pitch": 45,
        "velocity": 116,
        "trackId": 10,
        "channel": 11
      },
      {
        "startTick": 71296,
        "endTick": 71414,
        "pitch": 58,
        "velocity": 122,
        "trackId": 3,
        "channel": 0
      },
      {
        "startTick": 71296,
        "endTick": 71414,
        "pitch": 70,
        "velocity": 122,
        "trackId": 3,
        "channel": 0
      },
      {
        "startTick": 71296,
        "endTick": 71414,
        "pitch": 46,
        "velocity": 120,
        "trackId": 9,
        "channel": 8
      },
      {
        "startTick": 71310,
        "endTick": 71422,
        "pitch": 34,
        "velocity": 123,
        "trackId": 4,
        "channel": 1
      },
      {
        "startTick": 71392,
        "endTick": 71510,
        "pitch": 46,
        "velocity": 114,
        "trackId": 10,
        "channel": 11
      },
      {
        "startTick": 71422,
        "endTick": 71478,
        "pitch": 35,
        "velocity": 121,
        "trackId": 12,
        "channel": 9
      },
      {
        "startTick": 71422,
        "endTick": 71492,
        "pitch": 35,
        "velocity": 123,
        "trackId": 4,
        "channel": 1
      },
      {
        "startTick": 71422,
        "endTick": 71558,
        "pitch": 46,
        "velocity": 123,
        "trackId": 12,
        "channel": 9
      },
      {
        "startTick": 71424,
        "endTick": 71494,
        "pitch": 59,
        "velocity": 122,
        "trackId": 3,
        "channel": 0
      },
      {
        "startTick": 71424,
        "endTick": 71494,
        "pitch": 71,
        "velocity": 122,
        "trackId": 3,
        "channel": 0
      },
      {
        "startTick": 71424,
        "endTick": 71494,
        "pitch": 47,
        "velocity": 120,
        "trackId": 9,
        "channel": 8
      },
      {
        "startTick": 71486,
        "endTick": 71540,
        "pitch": 36,
        "velocity": 119,
        "trackId": 4,
        "channel": 1
      },
      {
        "startTick": 71488,
        "endTick": 71542,
        "pitch": 60,
        "velocity": 120,
        "trackId": 3,
        "channel": 0
      },
      {
        "startTick": 71488,
        "endTick": 71542,
        "pitch": 72,
        "velocity": 120,
        "trackId": 3,
        "channel": 0
      },
      {
        "startTick": 71488,
        "endTick": 71542,
        "pitch": 48,
        "velocity": 117,
        "trackId": 9,
        "channel": 8
      },
      {
        "startTick": 71520,
        "endTick": 71590,
        "pitch": 47,
        "velocity": 114,
        "trackId": 10,
        "channel": 11
      },
      {
        "startTick": 71550,
        "endTick": 71630,
        "pitch": 38,
        "velocity": 124,
        "trackId": 4,
        "channel": 1
      },
      {
        "startTick": 71550,
        "endTick": 71726,
        "pitch": 35,
        "velocity": 122,
        "trackId": 12,
        "channel": 9
      },
      {
        "startTick": 71552,
        "endTick": 71620,
        "pitch": 62,
        "velocity": 123,
        "trackId": 3,
        "channel": 0
      },
      {
        "startTick": 71552,
        "endTick": 71620,
        "pitch": 74,
        "velocity": 123,
        "trackId": 3,
        "channel": 0
      },
      {
        "startTick": 71552,
        "endTick": 71620,
        "pitch": 50,
        "velocity": 122,
        "trackId": 9,
        "channel": 8
      },
      {
        "startTick": 71584,
        "endTick": 71638,
        "pitch": 48,
        "velocity": 110,
        "trackId": 10,
        "channel": 11
      },
      {
        "startTick": 71614,
        "endTick": 71754,
        "pitch": 46,
        "velocity": 122,
        "trackId": 12,
        "channel": 9
      },
      {
        "startTick": 71614,
        "endTick": 71794,
        "pitch": 36,
        "velocity": 124,
        "trackId": 4,
        "channel": 1
      },
      {
        "startTick": 71614,
        "endTick": 71942,
        "pitch": 40,
        "velocity": 123,
        "trackId": 12,
        "channel": 9
      },
      {
        "startTick": 71616,
        "endTick": 71794,
        "pitch": 60,
        "velocity": 123,
        "trackId": 3,
        "channel": 0
      },
      {
        "startTick": 71616,
        "endTick": 71794,
        "pitch": 72,
        "velocity": 123,
        "trackId": 3,
        "channel": 0
      },
      {
        "startTick": 71616,
        "endTick": 71794,
        "pitch": 48,
        "velocity": 122,
        "trackId": 9,
        "channel": 8
      },
      {
        "startTick": 71648,
        "endTick": 71716,
        "pitch": 50,
        "velocity": 117,
        "trackId": 10,
        "channel": 11
      },
      {
        "startTick": 71712,
        "endTick": 71890,
        "pitch": 48,
        "velocity": 117,
        "trackId": 10,
        "channel": 11
      },
      {
        "startTick": 71806,
        "endTick": 71862,
        "pitch": 35,
        "velocity": 123,
        "trackId": 12,
        "channel": 9
      },
      {
        "startTick": 71806,
        "endTick": 71942,
        "pitch": 41,
        "velocity": 125,
        "trackId": 4,
        "channel": 1
      },
      {
        "startTick": 71806,
        "endTick": 71944,
        "pitch": 46,
        "velocity": 122,
        "trackId": 12,
        "channel": 9
      },
      {
        "startTick": 71808,
        "endTick": 71944,
        "pitch": 65,
        "velocity": 123,
        "trackId": 3,
        "channel": 0
      },
      {
        "startTick": 71808,
        "endTick": 71944,
        "pitch": 77,
        "velocity": 123,
        "trackId": 3,
        "channel": 0
      },
      {
        "startTick": 71808,
        "endTick": 71944,
        "pitch": 53,
        "velocity": 122,
        "trackId": 9,
        "channel": 8
      },
      {
        "startTick": 71904,
        "endTick": 72040,
        "pitch": 53,
        "velocity": 117,
        "trackId": 10,
        "channel": 11
      },
      {
        "startTick": 71934,
        "endTick": 72076,
        "pitch": 33,
        "velocity": 125,
        "trackId": 4,
        "channel": 1
      },
      {
        "startTick": 71934,
        "endTick": 72104,
        "pitch": 35,
        "velocity": 122,
        "trackId": 12,
        "channel": 9
      },
      {
        "startTick": 71936,
        "endTick": 72068,
        "pitch": 57,
        "velocity": 123,
        "trackId": 3,
        "channel": 0
      },
      {
        "startTick": 71936,
        "endTick": 72068,
        "pitch": 69,
        "velocity": 123,
        "trackId": 3,
        "channel": 0
      },
      {
        "startTick": 71936,
        "endTick": 72068,
        "pitch": 45,
        "velocity": 122,
        "trackId": 9,
        "channel": 8
      },
      {
        "startTick": 71998,
        "endTick": 72138,
        "pitch": 46,
        "velocity": 122,
        "trackId": 12,
        "channel": 9
      },
      {
        "startTick": 71998,
        "endTick": 72344,
        "pitch": 40,
        "velocity": 123,
        "trackId": 12,
        "channel": 9
      },
      {
        "startTick": 72032,
        "endTick": 72164,
        "pitch": 45,
        "velocity": 117,
        "trackId": 10,
        "channel": 11
      },
      {
        "startTick": 72062,
        "endTick": 72178,
        "pitch": 34,
        "velocity": 120,
        "trackId": 4,
        "channel": 1
      },
      {
        "startTick": 72064,
        "endTick": 72186,
        "pitch": 58,
        "velocity": 123,
        "trackId": 3,
        "channel": 0
      },
      {
        "startTick": 72064,
        "endTick": 72186,
        "pitch": 70,
        "velocity": 123,
        "trackId": 3,
        "channel": 0
      },
      {
        "startTick": 72064,
        "endTick": 72186,
        "pitch": 46,
        "velocity": 121,
        "trackId": 9,
        "channel": 8
      },
      {
        "startTick": 72160,
        "endTick": 72282,
        "pitch": 46,
        "velocity": 115,
        "trackId": 10,
        "channel": 11
      },
      {
        "startTick": 72190,
        "endTick": 72250,
        "pitch": 35,
        "velocity": 123,
        "trackId": 12,
        "channel": 9
      },
      {
        "startTick": 72190,
        "endTick": 72314,
        "pitch": 35,
        "velocity": 125,
        "trackId": 4,
        "channel": 1
      },
      {
        "startTick": 72190,
        "endTick": 72334,
        "pitch": 46,
        "velocity": 122,
        "trackId": 12,
        "channel": 9
      },
      {
        "startTick": 72192,
        "endTick": 72326,
        "pitch": 59,
        "velocity": 123,
        "trackId": 3,
        "channel": 0
      },
      {
        "startTick": 72192,
        "endTick": 72326,
        "pitch": 71,
        "velocity": 123,
        "trackId": 3,
        "channel": 0
      },
      {
        "startTick": 72192,
        "endTick": 72326,
        "pitch": 47,
        "velocity": 121,
        "trackId": 9,
        "channel": 8
      },
      {
        "startTick": 72288,
        "endTick": 72422,
        "pitch": 47,
        "velocity": 115,
        "trackId": 10,
        "channel": 11
      },
      {
        "startTick": 72318,
        "endTick": 72388,
        "pitch": 36,
        "velocity": 124,
        "trackId": 4,
        "channel": 1
      },
      {
        "startTick": 72318,
        "endTick": 72494,
        "pitch": 35,
        "velocity": 123,
        "trackId": 12,
        "channel": 9
      },
      {
        "startTick": 72320,
        "endTick": 72386,
        "pitch": 60,
        "velocity": 119,
        "trackId": 3,
        "channel": 0
      },
      {
        "startTick": 72320,
        "endTick": 72386,
        "pitch": 72,
        "velocity": 119,
        "trackId": 3,
        "channel": 0
      },
      {
        "startTick": 72320,
        "endTick": 72386,
        "pitch": 48,
        "velocity": 116,
        "trackId": 9,
        "channel": 8
      },
      {
        "startTick": 72382,
        "endTick": 72438,
        "pitch": 38,
        "velocity": 119,
        "trackId": 4,
        "channel": 1
      },
      {
        "startTick": 72382,
        "endTick": 72538,
        "pitch": 46,
        "velocity": 123,
        "trackId": 12,
        "channel": 9
      },
      {
        "startTick": 72382,
        "endTick": 72708,
        "pitch": 40,
        "velocity": 123,
        "trackId": 12,
        "channel": 9
      },
      {
        "startTick": 72384,
        "endTick": 72440,
        "pitch": 62,
        "velocity": 120,
        "trackId": 3,
        "channel": 0
      },
      {
        "startTick": 72384,
        "endTick": 72440,
        "pitch": 74,
        "velocity": 120,
        "trackId": 3,
        "channel": 0
      },
      {
        "startTick": 72384,
        "endTick": 72440,
        "pitch": 50,
        "velocity": 117,
        "trackId": 9,
        "channel": 8
      },
      {
        "startTick": 72416,
        "endTick": 72482,
        "pitch": 48,
        "velocity": 109,
        "trackId": 10,
        "channel": 11
      },
      {
        "startTick": 72446,
        "endTick": 72502,
        "pitch": 40,
        "velocity": 114,
        "trackId": 4,
        "channel": 1
      },
      {
        "startTick": 72448,
        "endTick": 72546,
        "pitch": 64,
        "velocity": 121,
        "trackId": 3,
        "channel": 0
      },
      {
        "startTick": 72448,
        "endTick": 72546,
        "pitch": 76,
        "velocity": 121,
        "trackId": 3,
        "channel": 0
      },
      {
        "startTick": 72448,
        "endTick": 72546,
        "pitch": 52,
        "velocity": 118,
        "trackId": 9,
        "channel": 8
      },
      {
        "startTick": 72480,
        "endTick": 72536,
        "pitch": 50,
        "velocity": 110,
        "trackId": 10,
        "channel": 11
      },
      {
        "startTick": 72510,
        "endTick": 72544,
        "pitch": 41,
        "velocity": 121,
        "trackId": 4,
        "channel": 1
      },
      {
        "startTick": 72512,
        "endTick": 72556,
        "pitch": 65,
        "velocity": 121,
        "trackId": 3,
        "channel": 0
      },
      {
        "startTick": 72512,
        "endTick": 72556,
        "pitch": 77,
        "velocity": 121,
        "trackId": 3,
        "channel": 0
      },
      {
        "startTick": 72512,
        "endTick": 72556,
        "pitch": 53,
        "velocity": 118,
        "trackId": 9,
        "channel": 8
      },
      {
        "startTick": 72544,
        "endTick": 72642,
        "pitch": 52,
        "velocity": 112,
        "trackId": 10,
        "channel": 11
      },
      {
        "startTick": 72574,
        "endTick": 72642,
        "pitch": 35,
        "velocity": 123,
        "trackId": 12,
        "channel": 9
      },
      {
        "startTick": 72574,
        "endTick": 72688,
        "pitch": 49,
        "velocity": 123,
        "trackId": 12,
        "channel": 9
      },
      {
        "startTick": 72574,
        "endTick": 72694,
        "pitch": 43,
        "velocity": 125,
        "trackId": 4,
        "channel": 1
      },
      {
        "startTick": 72576,
        "endTick": 72700,
        "pitch": 67,
        "velocity": 123,
        "trackId": 3,
        "channel": 0
      },
      {
        "startTick": 72576,
        "endTick": 72700,
        "pitch": 79,
        "velocity": 123,
        "trackId": 3,
        "channel": 0
      },
      {
        "startTick": 72576,
        "endTick": 72700,
        "pitch": 55,
        "velocity": 121,
        "trackId": 9,
        "channel": 8
      },
      {
        "startTick": 72608,
        "endTick": 72652,
        "pitch": 53,
        "velocity": 112,
        "trackId": 10,
        "channel": 11
      },
      {
        "startTick": 72672,
        "endTick": 72796,
        "pitch": 55,
        "velocity": 116,
        "trackId": 10,
        "channel": 11
      },
      {
        "startTick": 72702,
        "endTick": 72866,
        "pitch": 35,
        "velocity": 123,
        "trackId": 12,
        "channel": 9
      },
      {
        "startTick": 72702,
        "endTick": 72872,
        "pitch": 35,
        "velocity": 124,
        "trackId": 4,
        "channel": 1
      },
      {
        "startTick": 72704,
        "endTick": 72866,
        "pitch": 59,
        "velocity": 123,
        "trackId": 3,
        "channel": 0
      },
      {
        "startTick": 72704,
        "endTick": 72866,
        "pitch": 71,
        "velocity": 123,
        "trackId": 3,
        "channel": 0
      },
      {
        "startTick": 72704,
        "endTick": 72866,
        "pitch": 47,
        "velocity": 121,
        "trackId": 9,
        "channel": 8
      },
      {
        "startTick": 72766,
        "endTick": 72902,
        "pitch": 46,
        "velocity": 122,
        "trackId": 12,
        "channel": 9
      },
      {
        "startTick": 72766,
        "endTick": 73108,
        "pitch": 40,
        "velocity": 123,
        "trackId": 12,
        "channel": 9
      },
      {
        "startTick": 72800,
        "endTick": 72962,
        "pitch": 47,
        "velocity": 116,
        "trackId": 10,
        "channel": 11
      },
      {
        "startTick": 72830,
        "endTick": 72938,
        "pitch": 36,
        "velocity": 123,
        "trackId": 4,
        "channel": 1
      },
      {
        "startTick": 72832,
        "endTick": 72956,
        "pitch": 60,
        "velocity": 122,
        "trackId": 3,
        "channel": 0
      },
      {
        "startTick": 72832,
        "endTick": 72956,
        "pitch": 72,
        "velocity": 122,
        "trackId": 3,
        "channel": 0
      },
      {
        "startTick": 72832,
        "endTick": 72956,
        "pitch": 48,
        "velocity": 119,
        "trackId": 9,
        "channel": 8
      },
      {
        "startTick": 72928,
        "endTick": 73052,
        "pitch": 48,
        "velocity": 113,
        "trackId": 10,
        "channel": 11
      },
      {
        "startTick": 72958,
        "endTick": 73030,
        "pitch": 35,
        "velocity": 122,
        "trackId": 12,
        "channel": 9
      },
      {
        "startTick": 72958,
        "endTick": 73066,
        "pitch": 38,
        "velocity": 123,
        "trackId": 4,
        "channel": 1
      },
      {
        "startTick": 72958,
        "endTick": 73106,
        "pitch": 46,
        "velocity": 122,
        "trackId": 12,
        "channel": 9
      },
      {
        "startTick": 72960,
        "endTick": 73074,
        "pitch": 62,
        "velocity": 122,
        "trackId": 3,
        "channel": 0
      },
      {
        "startTick": 72960,
        "endTick": 73074,
        "pitch": 74,
        "velocity": 122,
        "trackId": 3,
        "channel": 0
      },
      {
        "startTick": 72960,
        "endTick": 73074,
        "pitch": 50,
        "velocity": 120,
        "trackId": 9,
        "channel": 8
      },
      {
        "startTick": 73056,
        "endTick": 73170,
        "pitch": 50,
        "velocity": 114,
        "trackId": 10,
        "channel": 11
      },
      {
        "startTick": 73086,
        "endTick": 73154,
        "pitch": 35,
        "velocity": 123,
        "trackId": 12,
        "channel": 9
      },
      {
        "startTick": 73086,
        "endTick": 73164,
        "pitch": 39,
        "velocity": 123,
        "trackId": 4,
        "channel": 1
      },
      {
        "startTick": 73088,
        "endTick": 73148,
        "pitch": 63,
        "velocity": 120,
        "trackId": 3,
        "channel": 0
      },
      {
        "startTick": 73088,
        "endTick": 73148,
        "pitch": 75,
        "velocity": 120,
        "trackId": 3,
        "channel": 0
      },
      {
        "startTick": 73088,
        "endTick": 73148,
        "pitch": 51,
        "velocity": 117,
        "trackId": 9,
        "channel": 8
      },
      {
        "startTick": 73150,
        "endTick": 73210,
        "pitch": 40,
        "velocity": 120,
        "trackId": 4,
        "channel": 1
      },
      {
        "startTick": 73150,
        "endTick": 73224,
        "pitch": 40,
        "velocity": 123,
        "trackId": 12,
        "channel": 9
      },
      {
        "startTick": 73150,
        "endTick": 73348,
        "pitch": 46,
        "velocity": 123,
        "trackId": 12,
        "channel": 9
      },
      {
        "startTick": 73152,
        "endTick": 73216,
        "pitch": 64,
        "velocity": 123,
        "trackId": 3,
        "channel": 0
      },
      {
        "startTick": 73152,
        "endTick": 73216,
        "pitch": 76,
        "velocity": 123,
        "trackId": 3,
        "channel": 0
      },
      {
        "startTick": 73152,
        "endTick": 73216,
        "pitch": 52,
        "velocity": 121,
        "trackId": 9,
        "channel": 8
      },
      {
        "startTick": 73184,
        "endTick": 73244,
        "pitch": 51,
        "velocity": 110,
        "trackId": 10,
        "channel": 11
      },
      {
        "startTick": 73214,
        "endTick": 73288,
        "pitch": 41,
        "velocity": 125,
        "trackId": 4,
        "channel": 1
      },
      {
        "startTick": 73214,
        "endTick": 73290,
        "pitch": 43,
        "velocity": 121,
        "trackId": 12,
        "channel": 9
      },
      {
        "startTick": 73216,
        "endTick": 73262,
        "pitch": 65,
        "velocity": 119,
        "trackId": 3,
        "channel": 0
      },
      {
        "startTick": 73216,
        "endTick": 73262,
        "pitch": 77,
        "velocity": 119,
        "trackId": 3,
        "channel": 0
      },
      {
        "startTick": 73216,
        "endTick": 73262,
        "pitch": 53,
        "velocity": 116,
        "trackId": 9,
        "channel": 8
      },
      {
        "startTick": 73248,
        "endTick": 73312,
        "pitch": 52,
        "velocity": 115,
        "trackId": 10,
        "channel": 11
      },
      {
        "startTick": 73278,
        "endTick": 73336,
        "pitch": 43,
        "velocity": 120,
        "trackId": 4,
        "channel": 1
      },
      {
        "startTick": 73278,
        "endTick": 73340,
        "pitch": 45,
        "velocity": 122,
        "trackId": 12,
        "channel": 9
      },
      {
        "startTick": 73280,
        "endTick": 73340,
        "pitch": 67,
        "velocity": 122,
        "trackId": 3,
        "channel": 0
      },
      {
        "startTick": 73280,
        "endTick": 73340,
        "pitch": 79,
        "velocity": 122,
        "trackId": 3,
        "channel": 0
      },
      {
        "startTick": 73280,
        "endTick": 73340,
        "pitch": 55,
        "velocity": 120,
        "trackId": 9,
        "channel": 8
      },
      {
        "startTick": 73312,
        "endTick": 73358,
        "pitch": 53,
        "velocity": 109,
        "trackId": 10,
        "channel": 11
      },
      {
        "startTick": 73342,
        "endTick": 73406,
        "pitch": 66,
        "velocity": 122,
        "trackId": 2,
        "channel": 4
      },
      {
        "startTick": 73342,
        "endTick": 73408,
        "pitch": 42,
        "velocity": 125,
        "trackId": 4,
        "channel": 1
      },
      {
        "startTick": 73342,
        "endTick": 73552,
        "pitch": 49,
        "velocity": 122,
        "trackId": 12,
        "channel": 9
      },
      {
        "startTick": 73342,
        "endTick": 73588,
        "pitch": 35,
        "velocity": 122,
        "trackId": 12,
        "channel": 9
      },
      {
        "startTick": 73344,
        "endTick": 73428,
        "pitch": 66,
        "velocity": 122,
        "trackId": 3,
        "channel": 0
      },
      {
        "startTick": 73344,
        "endTick": 73428,
        "pitch": 78,
        "velocity": 122,
        "trackId": 3,
        "channel": 0
      },
      {
        "startTick": 73344,
        "endTick": 73428,
        "pitch": 54,
        "velocity": 120,
        "trackId": 9,
        "channel": 8
      },
      {
        "startTick": 73376,
        "endTick": 73436,
        "pitch": 55,
        "velocity": 114,
        "trackId": 10,
        "channel": 11
      },
      {
        "startTick": 73406,
        "endTick": 73480,
        "pitch": 44,
        "velocity": 125,
        "trackId": 4,
        "channel": 1
      },
      {
        "startTick": 73408,
        "endTick": 73474,
        "pitch": 68,
        "velocity": 122,
        "trackId": 3,
        "channel": 0
      },
      {
        "startTick": 73408,
        "endTick": 73474,
        "pitch": 80,
        "velocity": 122,
        "trackId": 3,
        "channel": 0
      },
      {
        "startTick": 73408,
        "endTick": 73474,
        "pitch": 56,
        "velocity": 119,
        "trackId": 9,
        "channel": 8
      },
      {
        "startTick": 73440,
        "endTick": 73524,
        "pitch": 54,
        "velocity": 114,
        "trackId": 10,
        "channel": 11
      },
      {
        "startTick": 73470,
        "endTick": 73528,
        "pitch": 46,
        "velocity": 125,
        "trackId": 4,
        "channel": 1
      },
      {
        "startTick": 73472,
        "endTick": 73526,
        "pitch": 70,
        "velocity": 123,
        "trackId": 3,
        "channel": 0
      },
      {
        "startTick": 73472,
        "endTick": 73526,
        "pitch": 82,
        "velocity": 123,
        "trackId": 3,
        "channel": 0
      },
      {
        "startTick": 73472,
        "endTick": 73526,
        "pitch": 58,
        "velocity": 121,
        "trackId": 9,
        "channel": 8
      },
      {
        "startTick": 73504,
        "endTick": 73570,
        "pitch": 56,
        "velocity": 113,
        "trackId": 10,
        "channel": 11
      },
      {
        "startTick": 73534,
        "endTick": 73596,
        "pitch": 40,
        "velocity": 124,
        "trackId": 12,
        "channel": 9
      },
      {
        "startTick": 73568,
        "endTick": 73622,
        "pitch": 58,
        "velocity": 115,
        "trackId": 10,
        "channel": 11
      },
      {
        "startTick": 73598,
        "endTick": 73652,
        "pitch": 40,
        "velocity": 123,
        "trackId": 12,
        "channel": 9
      },
      {
        "startTick": 73598,
        "endTick": 73658,
        "pitch": 44,
        "velocity": 125,
        "trackId": 4,
        "channel": 1
      },
      {
        "startTick": 73600,
        "endTick": 73668,
        "pitch": 68,
        "velocity": 122,
        "trackId": 3,
        "channel": 0
      },
      {
        "startTick": 73600,
        "endTick": 73668,
        "pitch": 80,
        "velocity": 122,
        "trackId": 3,
        "channel": 0
      },
      {
        "startTick": 73600,
        "endTick": 73668,
        "pitch": 56,
        "velocity": 120,
        "trackId": 9,
        "channel": 8
      },
      {
        "startTick": 73662,
        "endTick": 73722,
        "pitch": 46,
        "velocity": 125,
        "trackId": 4,
        "channel": 1
      },
      {
        "startTick": 73662,
        "endTick": 73752,
        "pitch": 43,
        "velocity": 121,
        "trackId": 12,
        "channel": 9
      },
      {
        "startTick": 73664,
        "endTick": 73734,
        "pitch": 70,
        "velocity": 121,
        "trackId": 3,
        "channel": 0
      },
      {
        "startTick": 73664,
        "endTick": 73734,
        "pitch": 82,
        "velocity": 121,
        "trackId": 3,
        "channel": 0
      },
      {
        "startTick": 73664,
        "endTick": 73734,
        "pitch": 58,
        "velocity": 118,
        "trackId": 9,
        "channel": 8
      },
      {
        "startTick": 73696,
        "endTick": 73764,
        "pitch": 56,
        "velocity": 114,
        "trackId": 10,
        "channel": 11
      },
      {
        "startTick": 73726,
        "endTick": 73802,
        "pitch": 48,
        "velocity": 123,
        "trackId": 4,
        "channel": 1
      },
      {
        "startTick": 73726,
        "endTick": 73866,
        "pitch": 35,
        "velocity": 121,
        "trackId": 12,
        "channel": 9
      },
      {
        "startTick": 73726,
        "endTick": 73918,
        "pitch": 49,
        "velocity": 121,
        "trackId": 12,
        "channel": 9
      },
      {
        "startTick": 73728,
        "endTick": 73804,
        "pitch": 72,
        "velocity": 123,
        "trackId": 3,
        "channel": 0
      },
      {
        "startTick": 73728,
        "endTick": 73804,
        "pitch": 84,
        "velocity": 123,
        "trackId": 3,
        "channel": 0
      },
      {
        "startTick": 73728,
        "endTick": 73804,
        "pitch": 60,
        "velocity": 121,
        "trackId": 9,
        "channel": 8
      },
      {
        "startTick": 73760,
        "endTick": 73830,
        "pitch": 58,
        "velocity": 112,
        "trackId": 10,
        "channel": 11
      },
      {
        "startTick": 73824,
        "endTick": 73900,
        "pitch": 60,
        "velocity": 116,
        "trackId": 10,
        "channel": 11
      },
      {
        "startTick": 73918,
        "endTick": 73974,
        "pitch": 40,
        "velocity": 122,
        "trackId": 12,
        "channel": 9
      },
      {
        "startTick": 73918,
        "endTick": 73976,
        "pitch": 46,
        "velocity": 125,
        "trackId": 4,
        "channel": 1
      },
      {
        "startTick": 73920,
        "endTick": 73978,
        "pitch": 70,
        "velocity": 122,
        "trackId": 3,
        "channel": 0
      },
      {
        "startTick": 73920,
        "endTick": 73978,
        "pitch": 82,
        "velocity": 122,
        "trackId": 3,
        "channel": 0
      },
      {
        "startTick": 73920,
        "endTick": 73978,
        "pitch": 58,
        "velocity": 120,
        "trackId": 9,
        "channel": 8
      },
      {
        "startTick": 73982,
        "endTick": 74048,
        "pitch": 43,
        "velocity": 121,
        "trackId": 12,
        "channel": 9
      },
      {
        "startTick": 73982,
        "endTick": 74052,
        "pitch": 48,
        "velocity": 121,
        "trackId": 4,
        "channel": 1
      },
      {
        "startTick": 73984,
        "endTick": 74066,
        "pitch": 72,
        "velocity": 122,
        "trackId": 3,
        "channel": 0
      },
      {
        "startTick": 73984,
        "endTick": 74066,
        "pitch": 84,
        "velocity": 122,
        "trackId": 3,
        "channel": 0
      },
      {
        "startTick": 73984,
        "endTick": 74066,
        "pitch": 60,
        "velocity": 119,
        "trackId": 9,
        "channel": 8
      },
      {
        "startTick": 74016,
        "endTick": 74074,
        "pitch": 58,
        "velocity": 114,
        "trackId": 10,
        "channel": 11
      },
      {
        "startTick": 74046,
        "endTick": 74078,
        "pitch": 35,
        "velocity": 122,
        "trackId": 12,
        "channel": 9
      },
      {
        "startTick": 74046,
        "endTick": 74080,
        "pitch": 50,
        "velocity": 125,
        "trackId": 4,
        "channel": 1
      },
      {
        "startTick": 74046,
        "endTick": 74086,
        "pitch": 57,
        "velocity": 122,
        "trackId": 12,
        "channel": 9
      },
      {
        "startTick": 74048,
        "endTick": 74086,
        "pitch": 74,
        "velocity": 121,
        "trackId": 3,
        "channel": 0
      },
      {
        "startTick": 74048,
        "endTick": 74086,
        "pitch": 86,
        "velocity": 121,
        "trackId": 3,
        "channel": 0
      },
      {
        "startTick": 74048,
        "endTick": 74086,
        "pitch": 62,
        "velocity": 118,
        "trackId": 9,
        "channel": 8
      },
      {
        "startTick": 74080,
        "endTick": 74162,
        "pitch": 60,
        "velocity": 113,
        "trackId": 10,
        "channel": 11
      },
      {
        "startTick": 74110,
        "endTick": 74738,
        "pitch": 35,
        "velocity": 122,
        "trackId": 12,
        "channel": 9
      },
      {
        "startTick": 74110,
        "endTick": 74782,
        "pitch": 49,
        "velocity": 122,
        "trackId": 12,
        "channel": 9
      },
      {
        "startTick": 74110,
        "endTick": 74866,
        "pitch": 35,
        "velocity": 125,
        "trackId": 4,
        "channel": 1
      },
      {
        "startTick": 74112,
        "endTick": 74144,
        "pitch": 47,
        "velocity": 121,
        "trackId": 9,
        "channel": 8
      },
      {
        "startTick": 74112,
        "endTick": 74654,
        "pitch": 75,
        "velocity": 123,
        "trackId": 3,
        "channel": 0
      },
      {
        "startTick": 74112,
        "endTick": 74664,
        "pitch": 71,
        "velocity": 123,
        "trackId": 3,
        "channel": 0
      },
      {
        "startTick": 74112,
        "endTick": 74672,
        "pitch": 78,
        "velocity": 123,
        "trackId": 3,
        "channel": 0
      },
      {
        "startTick": 74112,
        "endTick": 74698,
        "pitch": 66,
        "velocity": 123,
        "trackId": 3,
        "channel": 0
      },
      {
        "startTick": 74112,
        "endTick": 74708,
        "pitch": 47,
        "velocity": 123,
        "trackId": 3,
        "channel": 0
      },
      {
        "startTick": 74112,
        "endTick": 74714,
        "pitch": 59,
        "velocity": 123,
        "trackId": 3,
        "channel": 0
      },
      {
        "startTick": 74144,
        "endTick": 74176,
        "pitch": 49,
        "velocity": 116,
        "trackId": 9,
        "channel": 8
      },
      {
        "startTick": 74144,
        "endTick": 74182,
        "pitch": 62,
        "velocity": 112,
        "trackId": 10,
        "channel": 11
      },
      {
        "startTick": 74176,
        "endTick": 74208,
        "pitch": 51,
        "velocity": 116,
        "trackId": 9,
        "channel": 8
      },
      {
        "startTick": 74208,
        "endTick": 74240,
        "pitch": 49,
        "velocity": 117,
        "trackId": 9,
        "channel": 8
      },
      {
        "startTick": 74208,
        "endTick": 74240,
        "pitch": 47,
        "velocity": 115,
        "trackId": 10,
        "channel": 11
      },
      {
        "startTick": 74240,
        "endTick": 74272,
        "pitch": 51,
        "velocity": 117,
        "trackId": 9,
        "channel": 8
      },
      {
        "startTick": 74240,
        "endTick": 74272,
        "pitch": 49,
        "velocity": 109,
        "trackId": 10,
        "channel": 11
      },
      {
        "startTick": 74272,
        "endTick": 74304,
        "pitch": 54,
        "velocity": 118,
        "trackId": 9,
        "channel": 8
      },
      {
        "startTick": 74272,
        "endTick": 74304,
        "pitch": 51,
        "velocity": 109,
        "trackId": 10,
        "channel": 11
      },
      {
        "startTick": 74302,
        "endTick": 74650,
        "pitch": 46,
        "velocity": 122,
        "trackId": 12,
        "channel": 9
      },
      {
        "startTick": 74304,
        "endTick": 74336,
        "pitch": 51,
        "velocity": 118,
        "trackId": 9,
        "channel": 8
      },
      {
        "startTick": 74304,
        "endTick": 74336,
        "pitch": 49,
        "velocity": 110,
        "trackId": 10,
        "channel": 11
      },
      {
        "startTick": 74336,
        "endTick": 74368,
        "pitch": 54,
        "velocity": 118,
        "trackId": 9,
        "channel": 8
      },
      {
        "startTick": 74336,
        "endTick": 74368,
        "pitch": 51,
        "velocity": 111,
        "trackId": 10,
        "channel": 11
      },
      {
        "startTick": 74368,
        "endTick": 74400,
        "pitch": 52,
        "velocity": 121,
        "trackId": 9,
        "channel": 8
      },
      {
        "startTick": 74368,
        "endTick": 74400,
        "pitch": 54,
        "velocity": 112,
        "trackId": 10,
        "channel": 11
      },
      {
        "startTick": 74400,
        "endTick": 74432,
        "pitch": 54,
        "velocity": 118,
        "trackId": 9,
        "channel": 8
      },
      {
        "startTick": 74400,
        "endTick": 74432,
        "pitch": 51,
        "velocity": 112,
        "trackId": 10,
        "channel": 11
      },
      {
        "startTick": 74432,
        "endTick": 74464,
        "pitch": 54,
        "velocity": 119,
        "trackId": 9,
        "channel": 8
      },
      {
        "startTick": 74432,
        "endTick": 74464,
        "pitch": 54,
        "velocity": 112,
        "trackId": 10,
        "channel": 11
      },
      {
        "startTick": 74464,
        "endTick": 74496,
        "pitch": 52,
        "velocity": 115,
        "trackId": 10,
        "channel": 11
      },
      {
        "startTick": 74464,
        "endTick": 74512,
        "pitch": 56,
        "velocity": 121,
        "trackId": 9,
        "channel": 8
      },
      {
        "startTick": 74496,
        "endTick": 74528,
        "pitch": 58,
        "velocity": 120,
        "trackId": 9,
        "channel": 8
      },
      {
        "startTick": 74496,
        "endTick": 74528,
        "pitch": 54,
        "velocity": 112,
        "trackId": 10,
        "channel": 11
      },
      {
        "startTick": 74528,
        "endTick": 74560,
        "pitch": 58,
        "velocity": 119,
        "trackId": 9,
        "channel": 8
      },
      {
        "startTick": 74528,
        "endTick": 74560,
        "pitch": 54,
        "velocity": 113,
        "trackId": 10,
        "channel": 11
      },
      {
        "startTick": 74560,
        "endTick": 74602,
        "pitch": 56,
        "velocity": 119,
        "trackId": 9,
        "channel": 8
      },
      {
        "startTick": 74560,
        "endTick": 74608,
        "pitch": 56,
        "velocity": 115,
        "trackId": 10,
        "channel": 11
      },
      {
        "startTick": 74592,
        "endTick": 74624,
        "pitch": 54,
        "velocity": 119,
        "trackId": 9,
        "channel": 8
      },
      {
        "startTick": 74592,
        "endTick": 74624,
        "pitch": 58,
        "velocity": 114,
        "trackId": 10,
        "channel": 11
      },
      {
        "startTick": 74624,
        "endTick": 74656,
        "pitch": 53,
        "velocity": 119,
        "trackId": 9,
        "channel": 8
      },
      {
        "startTick": 74624,
        "endTick": 74656,
        "pitch": 58,
        "velocity": 113,
        "trackId": 10,
        "channel": 11
      },
      {
        "startTick": 74656,
        "endTick": 74698,
        "pitch": 56,
        "velocity": 113,
        "trackId": 10,
        "channel": 11
      },
      {
        "startTick": 74656,
        "endTick": 74702,
        "pitch": 56,
        "velocity": 119,
        "trackId": 9,
        "channel": 8
      },
      {
        "startTick": 74686,
        "endTick": 74920,
        "pitch": 46,
        "velocity": 123,
        "trackId": 12,
        "channel": 9
      },
      {
        "startTick": 74688,
        "endTick": 74720,
        "pitch": 58,
        "velocity": 120,
        "trackId": 9,
        "channel": 8
      },
      {
        "startTick": 74688,
        "endTick": 74720,
        "pitch": 54,
        "velocity": 113,
        "trackId": 10,
        "channel": 11
      },
      {
        "startTick": 74720,
        "endTick": 74752,
        "pitch": 53,
        "velocity": 113,
        "trackId": 10,
        "channel": 11
      },
      {
        "startTick": 74720,
        "endTick": 74756,
        "pitch": 59,
        "velocity": 121,
        "trackId": 9,
        "channel": 8
      },
      {
        "startTick": 74752,
        "endTick": 74790,
        "pitch": 61,
        "velocity": 121,
        "trackId": 9,
        "channel": 8
      },
      {
        "startTick": 74752,
        "endTick": 74798,
        "pitch": 56,
        "velocity": 113,
        "trackId": 10,
        "channel": 11
      },
      {
        "startTick": 74784,
        "endTick": 74816,
        "pitch": 62,
        "velocity": 120,
        "trackId": 9,
        "channel": 8
      },
      {
        "startTick": 74784,
        "endTick": 74816,
        "pitch": 58,
        "velocity": 114,
        "trackId": 10,
        "channel": 11
      },
      {
        "startTick": 74816,
        "endTick": 74852,
        "pitch": 59,
        "velocity": 115,
        "trackId": 10,
        "channel": 11
      },
      {
        "startTick": 74816,
        "endTick": 74880,
        "pitch": 63,
        "velocity": 118,
        "trackId": 9,
        "channel": 8
      },
      {
        "startTick": 74848,
        "endTick": 74886,
        "pitch": 61,
        "velocity": 115,
        "trackId": 10,
        "channel": 11
      },
      {
        "startTick": 74878,
        "endTick": 75540,
        "pitch": 35,
        "velocity": 124,
        "trackId": 12,
        "channel": 9
      },
      {
        "startTick": 74878,
        "endTick": 75630,
        "pitch": 43,
        "velocity": 123,
        "trackId": 12,
        "channel": 9
      },
      {
        "startTick": 74878,
        "endTick": 75634,
        "pitch": 32,
        "velocity": 125,
        "trackId": 4,
        "channel": 1
      },
      {
        "startTick": 74880,
        "endTick": 74912,
        "pitch": 44,
        "velocity": 120,
        "trackId": 9,
        "channel": 8
      },
      {
        "startTick": 74880,
        "endTick": 74912,
        "pitch": 62,
        "velocity": 114,
        "trackId": 10,
        "channel": 11
      },
      {
        "startTick": 74880,
        "endTick": 75422,
        "pitch": 72,
        "velocity": 123,
        "trackId": 3,
        "channel": 0
      },
      {
        "startTick": 74880,
        "endTick": 75428,
        "pitch": 63,
        "velocity": 123,
        "trackId": 3,
        "channel": 0
      },
      {
        "startTick": 74880,
        "endTick": 75434,
        "pitch": 68,
        "velocity": 123,
        "trackId": 3,
        "channel": 0
      },
      {
        "startTick": 74880,
        "endTick": 75464,
        "pitch": 75,
        "velocity": 123,
        "trackId": 3,
        "channel": 0
      },
      {
        "startTick": 74880,
        "endTick": 75490,
        "pitch": 56,
        "velocity": 123,
        "trackId": 3,
        "channel": 0
      },
      {
        "startTick": 74880,
        "endTick": 75492,
        "pitch": 44,
        "velocity": 123,
        "trackId": 3,
        "channel": 0
      },
      {
        "startTick": 74912,
        "endTick": 74944,
        "pitch": 46,
        "velocity": 124,
        "trackId": 9,
        "channel": 8
      },
      {
        "startTick": 74912,
        "endTick": 74976,
        "pitch": 63,
        "velocity": 112,
        "trackId": 10,
        "channel": 11
      },
      {
        "startTick": 74944,
        "endTick": 74976,
        "pitch": 48,
        "velocity": 125,
        "trackId": 9,
        "channel": 8
      },
      {
        "startTick": 74976,
        "endTick": 75008,
        "pitch": 46,
        "velocity": 125,
        "trackId": 9,
        "channel": 8
      },
      {
        "startTick": 74976,
        "endTick": 75008,
        "pitch": 44,
        "velocity": 114,
        "trackId": 10,
        "channel": 11
      },
      {
        "startTick": 75008,
        "endTick": 75040,
        "pitch": 44,
        "velocity": 125,
        "trackId": 9,
        "channel": 8
      },
      {
        "startTick": 75008,
        "endTick": 75040,
        "pitch": 46,
        "velocity": 119,
        "trackId": 10,
        "channel": 11
      },
      {
        "startTick": 75040,
        "endTick": 75072,
        "pitch": 46,
        "velocity": 125,
        "trackId": 9,
        "channel": 8
      },
      {
        "startTick": 75040,
        "endTick": 75072,
        "pitch": 48,
        "velocity": 120,
        "trackId": 10,
        "channel": 11
      },
      {
        "startTick": 75070,
        "endTick": 75392,
        "pitch": 46,
        "velocity": 122,
        "trackId": 12,
        "channel": 9
      },
      {
        "startTick": 75072,
        "endTick": 75104,
        "pitch": 48,
        "velocity": 125,
        "trackId": 9,
        "channel": 8
      },
      {
        "startTick": 75072,
        "endTick": 75104,
        "pitch": 46,
        "velocity": 120,
        "trackId": 10,
        "channel": 11
      },
      {
        "startTick": 75104,
        "endTick": 75136,
        "pitch": 50,
        "velocity": 125,
        "trackId": 9,
        "channel": 8
      },
      {
        "startTick": 75104,
        "endTick": 75136,
        "pitch": 44,
        "velocity": 120,
        "trackId": 10,
        "channel": 11
      },
      {
        "startTick": 75136,
        "endTick": 75168,
        "pitch": 51,
        "velocity": 125,
        "trackId": 9,
        "channel": 8
      },
      {
        "startTick": 75136,
        "endTick": 75168,
        "pitch": 46,
        "velocity": 120,
        "trackId": 10,
        "channel": 11
      },
      {
        "startTick": 75168,
        "endTick": 75200,
        "pitch": 53,
        "velocity": 125,
        "trackId": 9,
        "channel": 8
      },
      {
        "startTick": 75168,
        "endTick": 75200,
        "pitch": 48,
        "velocity": 120,
        "trackId": 10,
        "channel": 11
      },
      {
        "startTick": 75200,
        "endTick": 75232,
        "pitch": 56,
        "velocity": 125,
        "trackId": 9,
        "channel": 8
      },
      {
        "startTick": 75200,
        "endTick": 75232,
        "pitch": 50,
        "velocity": 120,
        "trackId": 10,
        "channel": 11
      },
      {
        "startTick": 75232,
        "endTick": 75264,
        "pitch": 55,
        "velocity": 125,
        "trackId": 9,
        "channel": 8
      },
      {
        "startTick": 75232,
        "endTick": 75264,
        "pitch": 51,
        "velocity": 120,
        "trackId": 10,
        "channel": 11
      },
      {
        "startTick": 75264,
        "endTick": 75296,
        "pitch": 56,
        "velocity": 125,
        "trackId": 9,
        "channel": 8
      },
      {
        "startTick": 75264,
        "endTick": 75296,
        "pitch": 53,
        "velocity": 120,
        "trackId": 10,
        "channel": 11
      },
      {
        "startTick": 75296,
        "endTick": 75328,
        "pitch": 58,
        "velocity": 125,
        "trackId": 9,
        "channel": 8
      },
      {
        "startTick": 75296,
        "endTick": 75328,
        "pitch": 56,
        "velocity": 120,
        "trackId": 10,
        "channel": 11
      },
      {
        "startTick": 75328,
        "endTick": 75360,
        "pitch": 60,
        "velocity": 125,
        "trackId": 9,
        "channel": 8
      },
      {
        "startTick": 75328,
        "endTick": 75360,
        "pitch": 55,
        "velocity": 120,
        "trackId": 10,
        "channel": 11
      },
      {
        "startTick": 75360,
        "endTick": 75392,
        "pitch": 62,
        "velocity": 125,
        "trackId": 9,
        "channel": 8
      },
      {
        "startTick": 75360,
        "endTick": 75392,
        "pitch": 56,
        "velocity": 120,
        "trackId": 10,
        "channel": 11
      },
      {
        "startTick": 75392,
        "endTick": 75424,
        "pitch": 63,
        "velocity": 125,
        "trackId": 9,
        "channel": 8
      },
      {
        "startTick": 75392,
        "endTick": 75424,
        "pitch": 58,
        "velocity": 120,
        "trackId": 10,
        "channel": 11
      },
      {
        "startTick": 75424,
        "endTick": 75456,
        "pitch": 60,
        "velocity": 122,
        "trackId": 9,
        "channel": 8
      },
      {
        "startTick": 75424,
        "endTick": 75456,
        "pitch": 60,
        "velocity": 120,
        "trackId": 10,
        "channel": 11
      },
      {
        "startTick": 75454,
        "endTick": 75642,
        "pitch": 46,
        "velocity": 122,
        "trackId": 12,
        "channel": 9
      },
      {
        "startTick": 75456,
        "endTick": 75488,
        "pitch": 62,
        "velocity": 120,
        "trackId": 10,
        "channel": 11
      },
      {
        "startTick": 75456,
        "endTick": 75648,
        "pitch": 63,
        "velocity": 125,
        "trackId": 9,
        "channel": 8
      },
      {
        "startTick": 75488,
        "endTick": 75520,
        "pitch": 63,
        "velocity": 120,
        "trackId": 10,
        "channel": 11
      },
      {
        "startTick": 75520,
        "endTick": 75552,
        "pitch": 60,
        "velocity": 116,
        "trackId": 10,
        "channel": 11
      },
      {
        "startTick": 75552,
        "endTick": 75744,
        "pitch": 63,
        "velocity": 120,
        "trackId": 10,
        "channel": 11
      },
      {
        "startTick": 75646,
        "endTick": 76912,
        "pitch": 49,
        "velocity": 123,
        "trackId": 12,
        "channel": 9
      },
      {
        "startTick": 75646,
        "endTick": 77098,
        "pitch": 34,
        "velocity": 125,
        "trackId": 4,
        "channel": 1
      },
      {
        "startTick": 75646,
        "endTick": 77166,
        "pitch": 35,
        "velocity": 124,
        "trackId": 12,
        "channel": 9
      },
      {
        "startTick": 75648,
        "endTick": 75686,
        "pitch": 46,
        "velocity": 118,
        "trackId": 9,
        "channel": 8
      },
      {
        "startTick": 75648,
        "endTick": 77568,
        "pitch": 46,
        "velocity": 123,
        "trackId": 3,
        "channel": 0
      },
      {
        "startTick": 75648,
        "endTick": 77568,
        "pitch": 58,
        "velocity": 123,
        "trackId": 3,
        "channel": 0
      },
      {
        "startTick": 75648,
        "endTick": 77568,
        "pitch": 65,
        "velocity": 123,
        "trackId": 3,
        "channel": 0
      },
      {
        "startTick": 75648,
        "endTick": 77568,
        "pitch": 70,
        "velocity": 123,
        "trackId": 3,
        "channel": 0
      },
      {
        "startTick": 75648,
        "endTick": 77568,
        "pitch": 74,
        "velocity": 123,
        "trackId": 3,
        "channel": 0
      },
      {
        "startTick": 75648,
        "endTick": 77568,
        "pitch": 77,
        "velocity": 123,
        "trackId": 3,
        "channel": 0
      },
      {
        "startTick": 75680,
        "endTick": 75712,
        "pitch": 48,
        "velocity": 119,
        "trackId": 9,
        "channel": 8
      },
      {
        "startTick": 75712,
        "endTick": 75756,
        "pitch": 50,
        "velocity": 119,
        "trackId": 9,
        "channel": 8
      },
      {
        "startTick": 75744,
        "endTick": 75782,
        "pitch": 46,
        "velocity": 112,
        "trackId": 10,
        "channel": 11
      },
      {
        "startTick": 75744,
        "endTick": 75792,
        "pitch": 48,
        "velocity": 119,
        "trackId": 9,
        "channel": 8
      },
      {
        "startTick": 75776,
        "endTick": 75808,
        "pitch": 48,
        "velocity": 112,
        "trackId": 10,
        "channel": 11
      },
      {
        "startTick": 75776,
        "endTick": 75812,
        "pitch": 50,
        "velocity": 119,
        "trackId": 9,
        "channel": 8
      },
      {
        "startTick": 75808,
        "endTick": 75840,
        "pitch": 51,
        "velocity": 119,
        "trackId": 9,
        "channel": 8
      },
      {
        "startTick": 75808,
        "endTick": 75852,
        "pitch": 50,
        "velocity": 112,
        "trackId": 10,
        "channel": 11
      },
      {
        "startTick": 75840,
        "endTick": 75872,
        "pitch": 50,
        "velocity": 119,
        "trackId": 9,
        "channel": 8
      },
      {
        "startTick": 75840,
        "endTick": 75888,
        "pitch": 48,
        "velocity": 113,
        "trackId": 10,
        "channel": 11
      },
      {
        "startTick": 75872,
        "endTick": 75904,
        "pitch": 51,
        "velocity": 119,
        "trackId": 9,
        "channel": 8
      },
      {
        "startTick": 75872,
        "endTick": 75908,
        "pitch": 50,
        "velocity": 113,
        "trackId": 10,
        "channel": 11
      },
      {
        "startTick": 75904,
        "endTick": 75936,
        "pitch": 53,
        "velocity": 120,
        "trackId": 9,
        "channel": 8
      },
      {
        "startTick": 75904,
        "endTick": 75936,
        "pitch": 51,
        "velocity": 113,
        "trackId": 10,
        "channel": 11
      },
      {
        "startTick": 75936,
        "endTick": 75968,
        "pitch": 52,
        "velocity": 120,
        "trackId": 9,
        "channel": 8
      },
      {
        "startTick": 75936,
        "endTick": 75968,
        "pitch": 50,
        "velocity": 113,
        "trackId": 10,
        "channel": 11
      },
      {
        "startTick": 75968,
        "endTick": 76000,
        "pitch": 51,
        "velocity": 113,
        "trackId": 10,
        "channel": 11
      },
      {
        "startTick": 75968,
        "endTick": 76006,
        "pitch": 53,
        "velocity": 120,
        "trackId": 9,
        "channel": 8
      },
      {
        "startTick": 76000,
        "endTick": 76032,
        "pitch": 55,
        "velocity": 120,
        "trackId": 9,
        "channel": 8
      },
      {
        "startTick": 76000,
        "endTick": 76032,
        "pitch": 53,
        "velocity": 114,
        "trackId": 10,
        "channel": 11
      },
      {
        "startTick": 76032,
        "endTick": 76064,
        "pitch": 53,
        "velocity": 120,
        "trackId": 9,
        "channel": 8
      },
      {
        "startTick": 76032,
        "endTick": 76064,
        "pitch": 52,
        "velocity": 114,
        "trackId": 10,
        "channel": 11
      },
      {
        "startTick": 76064,
        "endTick": 76102,
        "pitch": 53,
        "velocity": 114,
        "trackId": 10,
        "channel": 11
      },
      {
        "startTick": 76064,
        "endTick": 76104,
        "pitch": 56,
        "velocity": 121,
        "trackId": 9,
        "channel": 8
      },
      {
        "startTick": 76096,
        "endTick": 76128,
        "pitch": 55,
        "velocity": 114,
        "trackId": 10,
        "channel": 11
      },
      {
        "startTick": 76096,
        "endTick": 76130,
        "pitch": 55,
        "velocity": 121,
        "trackId": 9,
        "channel": 8
      },
      {
        "startTick": 76128,
        "endTick": 76160,
        "pitch": 53,
        "velocity": 114,
        "trackId": 10,
        "channel": 11
      },
      {
        "startTick": 76128,
        "endTick": 76162,
        "pitch": 53,
        "velocity": 121,
        "trackId": 9,
        "channel": 8
      },
      {
        "startTick": 76160,
        "endTick": 76190,
        "pitch": 55,
        "velocity": 121,
        "trackId": 9,
        "channel": 8
      },
      {
        "startTick": 76160,
        "endTick": 76200,
        "pitch": 56,
        "velocity": 115,
        "trackId": 10,
        "channel": 11
      },
      {
        "startTick": 76192,
        "endTick": 76226,
        "pitch": 55,
        "velocity": 115,
        "trackId": 10,
        "channel": 11
      },
      {
        "startTick": 76192,
        "endTick": 76232,
        "pitch": 56,
        "velocity": 121,
        "trackId": 9,
        "channel": 8
      },
      {
        "startTick": 76224,
        "endTick": 76244,
        "pitch": 58,
        "velocity": 121,
        "trackId": 9,
        "channel": 8
      },
      {
        "startTick": 76224,
        "endTick": 76258,
        "pitch": 53,
        "velocity": 115,
        "trackId": 10,
        "channel": 11
      },
      {
        "startTick": 76256,
        "endTick": 76282,
        "pitch": 60,
        "velocity": 121,
        "trackId": 9,
        "channel": 8
      },
      {
        "startTick": 76256,
        "endTick": 76286,
        "pitch": 55,
        "velocity": 115,
        "trackId": 10,
        "channel": 11
      },
      {
        "startTick": 76288,
        "endTick": 76322,
        "pitch": 62,
        "velocity": 122,
        "trackId": 9,
        "channel": 8
      },
      {
        "startTick": 76288,
        "endTick": 76328,
        "pitch": 56,
        "velocity": 115,
        "trackId": 10,
        "channel": 11
      },
      {
        "startTick": 76320,
        "endTick": 76340,
        "pitch": 58,
        "velocity": 115,
        "trackId": 10,
        "channel": 11
      },
      {
        "startTick": 76320,
        "endTick": 76354,
        "pitch": 63,
        "velocity": 122,
        "trackId": 9,
        "channel": 8
      },
      {
        "startTick": 76352,
        "endTick": 76374,
        "pitch": 62,
        "velocity": 122,
        "trackId": 9,
        "channel": 8
      },
      {
        "startTick": 76352,
        "endTick": 76378,
        "pitch": 60,
        "velocity": 116,
        "trackId": 10,
        "channel": 11
      },
      {
        "startTick": 76384,
        "endTick": 76416,
        "pitch": 60,
        "velocity": 122,
        "trackId": 9,
        "channel": 8
      },
      {
        "startTick": 76384,
        "endTick": 76418,
        "pitch": 62,
        "velocity": 116,
        "trackId": 10,
        "channel": 11
      },
      {
        "startTick": 76416,
        "endTick": 76448,
        "pitch": 62,
        "velocity": 122,
        "trackId": 9,
        "channel": 8
      },
      {
        "startTick": 76416,
        "endTick": 76450,
        "pitch": 63,
        "velocity": 116,
        "trackId": 10,
        "channel": 11
      },
      {
        "startTick": 76448,
        "endTick": 76470,
        "pitch": 62,
        "velocity": 116,
        "trackId": 10,
        "channel": 11
      },
      {
        "startTick": 76448,
        "endTick": 76478,
        "pitch": 63,
        "velocity": 122,
        "trackId": 9,
        "channel": 8
      },
      {
        "startTick": 76480,
        "endTick": 76508,
        "pitch": 65,
        "velocity": 122,
        "trackId": 9,
        "channel": 8
      },
      {
        "startTick": 76480,
        "endTick": 76512,
        "pitch": 60,
        "velocity": 116,
        "trackId": 10,
        "channel": 11
      },
      {
        "startTick": 76512,
        "endTick": 76544,
        "pitch": 62,
        "velocity": 117,
        "trackId": 10,
        "channel": 11
      },
      {
        "startTick": 76512,
        "endTick": 76550,
        "pitch": 67,
        "velocity": 123,
        "trackId": 9,
        "channel": 8
      },
      {
        "startTick": 76544,
        "endTick": 76574,
        "pitch": 63,
        "velocity": 117,
        "trackId": 10,
        "channel": 11
      },
      {
        "startTick": 76544,
        "endTick": 76580,
        "pitch": 68,
        "velocity": 123,
        "trackId": 9,
        "channel": 8
      },
      {
        "startTick": 76576,
        "endTick": 76604,
        "pitch": 65,
        "velocity": 117,
        "trackId": 10,
        "channel": 11
      },
      {
        "startTick": 76576,
        "endTick": 76618,
        "pitch": 70,
        "velocity": 123,
        "trackId": 9,
        "channel": 8
      },
      {
        "startTick": 76608,
        "endTick": 76632,
        "pitch": 68,
        "velocity": 123,
        "trackId": 9,
        "channel": 8
      },
      {
        "startTick": 76608,
        "endTick": 76646,
        "pitch": 67,
        "velocity": 117,
        "trackId": 10,
        "channel": 11
      },
      {
        "startTick": 76640,
        "endTick": 76668,
        "pitch": 65,
        "velocity": 123,
        "trackId": 9,
        "channel": 8
      },
      {
        "startTick": 76640,
        "endTick": 76676,
        "pitch": 68,
        "velocity": 117,
        "trackId": 10,
        "channel": 11
      },
      {
        "startTick": 76672,
        "endTick": 76700,
        "pitch": 67,
        "velocity": 123,
        "trackId": 9,
        "channel": 8
      },
      {
        "startTick": 76672,
        "endTick": 76714,
        "pitch": 70,
        "velocity": 117,
        "trackId": 10,
        "channel": 11
      },
      {
        "startTick": 76704,
        "endTick": 76722,
        "pitch": 70,
        "velocity": 123,
        "trackId": 9,
        "channel": 8
      },
      {
        "startTick": 76704,
        "endTick": 76728,
        "pitch": 68,
        "velocity": 117,
        "trackId": 10,
        "channel": 11
      },
      {
        "startTick": 76736,
        "endTick": 76764,
        "pitch": 65,
        "velocity": 118,
        "trackId": 10,
        "channel": 11
      },
      {
        "startTick": 76736,
        "endTick": 76768,
        "pitch": 72,
        "velocity": 124,
        "trackId": 9,
        "channel": 8
      },
      {
        "startTick": 76768,
        "endTick": 76796,
        "pitch": 67,
        "velocity": 118,
        "trackId": 10,
        "channel": 11
      },
      {
        "startTick": 76768,
        "endTick": 76804,
        "pitch": 74,
        "velocity": 124,
        "trackId": 9,
        "channel": 8
      },
      {
        "startTick": 76800,
        "endTick": 76818,
        "pitch": 70,
        "velocity": 118,
        "trackId": 10,
        "channel": 11
      },
      {
        "startTick": 76800,
        "endTick": 78334,
        "pitch": 75,
        "velocity": 124,
        "trackId": 9,
        "channel": 8
      },
      {
        "startTick": 76832,
        "endTick": 76864,
        "pitch": 72,
        "velocity": 118,
        "trackId": 10,
        "channel": 11
      },
      {
        "startTick": 76864,
        "endTick": 76900,
        "pitch": 74,
        "velocity": 118,
        "trackId": 10,
        "channel": 11
      },
      {
        "startTick": 76896,
        "endTick": 78430,
        "pitch": 75,
        "velocity": 119,
        "trackId": 10,
        "channel": 11
      },
      {
        "startTick": 77664,
        "endTick": 77760,
        "pitch": 46,
        "velocity": 115,
        "trackId": 3,
        "channel": 0
      },
      {
        "startTick": 77664,
        "endTick": 77760,
        "pitch": 58,
        "velocity": 115,
        "trackId": 3,
        "channel": 0
      },
      {
        "startTick": 77760,
        "endTick": 77856,
        "pitch": 45,
        "velocity": 117,
        "trackId": 3,
        "channel": 0
      },
      {
        "startTick": 77760,
        "endTick": 77856,
        "pitch": 57,
        "velocity": 117,
        "trackId": 3,
        "channel": 0
      },
      {
        "startTick": 77856,
        "endTick": 77952,
        "pitch": 46,
        "velocity": 118,
        "trackId": 3,
        "channel": 0
      },
      {
        "startTick": 77856,
        "endTick": 77952,
        "pitch": 58,
        "velocity": 118,
        "trackId": 3,
        "channel": 0
      },
      {
        "startTick": 77952,
        "endTick": 78048,
        "pitch": 48,
        "velocity": 119,
        "trackId": 3,
        "channel": 0
      },
      {
        "startTick": 77952,
        "endTick": 78048,
        "pitch": 60,
        "velocity": 119,
        "trackId": 3,
        "channel": 0
      },
      {
        "startTick": 78048,
        "endTick": 78144,
        "pitch": 46,
        "velocity": 120,
        "trackId": 3,
        "channel": 0
      },
      {
        "startTick": 78048,
        "endTick": 78144,
        "pitch": 58,
        "velocity": 120,
        "trackId": 3,
        "channel": 0
      },
      {
        "startTick": 78144,
        "endTick": 78240,
        "pitch": 50,
        "velocity": 122,
        "trackId": 3,
        "channel": 0
      },
      {
        "startTick": 78144,
        "endTick": 78240,
        "pitch": 62,
        "velocity": 122,
        "trackId": 3,
        "channel": 0
      },
      {
        "startTick": 78240,
        "endTick": 78336,
        "pitch": 46,
        "velocity": 123,
        "trackId": 3,
        "channel": 0
      },
      {
        "startTick": 78240,
        "endTick": 78336,
        "pitch": 58,
        "velocity": 123,
        "trackId": 3,
        "channel": 0
      },
      {
        "startTick": 78336,
        "endTick": 78432,
        "pitch": 51,
        "velocity": 123,
        "trackId": 3,
        "channel": 0
      },
      {
        "startTick": 78336,
        "endTick": 78432,
        "pitch": 63,
        "velocity": 123,
        "trackId": 3,
        "channel": 0
      },
      {
        "startTick": 78432,
        "endTick": 78528,
        "pitch": 46,
        "velocity": 123,
        "trackId": 3,
        "channel": 0
      },
      {
        "startTick": 78432,
        "endTick": 78528,
        "pitch": 58,
        "velocity": 123,
        "trackId": 3,
        "channel": 0
      },
      {
        "startTick": 78528,
        "endTick": 78624,
        "pitch": 53,
        "velocity": 123,
        "trackId": 3,
        "channel": 0
      },
      {
        "startTick": 78528,
        "endTick": 78624,
        "pitch": 65,
        "velocity": 123,
        "trackId": 3,
        "channel": 0
      },
      {
        "startTick": 78624,
        "endTick": 78720,
        "pitch": 46,
        "velocity": 123,
        "trackId": 3,
        "channel": 0
      },
      {
        "startTick": 78624,
        "endTick": 78720,
        "pitch": 58,
        "velocity": 123,
        "trackId": 3,
        "channel": 0
      },
      {
        "startTick": 78718,
        "endTick": 78944,
        "pitch": 39,
        "velocity": 125,
        "trackId": 4,
        "channel": 1
      },
      {
        "startTick": 78718,
        "endTick": 78972,
        "pitch": 35,
        "velocity": 124,
        "trackId": 12,
        "channel": 9
      },
      {
        "startTick": 78718,
        "endTick": 79060,
        "pitch": 52,
        "velocity": 123,
        "trackId": 12,
        "channel": 9
      },
      {
        "startTick": 78720,
        "endTick": 78726,
        "pitch": 63,
        "velocity": 123,
        "trackId": 3,
        "channel": 0
      },
      {
        "startTick": 78720,
        "endTick": 78726,
        "pitch": 67,
        "velocity": 123,
        "trackId": 3,
        "channel": 0
      },
      {
        "startTick": 78720,
        "endTick": 78728,
        "pitch": 51,
        "velocity": 123,
        "trackId": 3,
        "channel": 0
      },
      {
        "startTick": 78720,
        "endTick": 78876,
        "pitch": 58,
        "velocity": 123,
        "trackId": 3,
        "channel": 0
      },
      {
        "startTick": 78720,
        "endTick": 78906,
        "pitch": 55,
        "velocity": 123,
        "trackId": 3,
        "channel": 0
      },
      {
        "startTick": 78726,
        "endTick": 78944,
        "pitch": 75,
        "velocity": 122,
        "trackId": 3,
        "channel": 0
      },
      {
        "startTick": 78728,
        "endTick": 78946,
        "pitch": 63,
        "velocity": 123,
        "trackId": 3,
        "channel": 0
      },
      {
        "startTick": 78728,
        "endTick": 78948,
        "pitch": 67,
        "velocity": 123,
        "trackId": 3,
        "channel": 0
      },
      {
        "startTick": 78730,
        "endTick": 78816,
        "pitch": 58,
        "velocity": 123,
        "trackId": 3,
        "channel": 0
      },
      {
        "startTick": 78730,
        "endTick": 78950,
        "pitch": 70,
        "velocity": 123,
        "trackId": 3,
        "channel": 0
      },
      {
        "startTick": 78730,
        "endTick": 78958,
        "pitch": 51,
        "velocity": 123,
        "trackId": 3,
        "channel": 0
      },
      {
        "startTick": 78768,
        "endTick": 78814,
        "pitch": 58,
        "velocity": 115,
        "trackId": 9,
        "channel": 8
      },
      {
        "startTick": 78768,
        "endTick": 78842,
        "pitch": 51,
        "velocity": 115,
        "trackId": 2,
        "channel": 4
      },
      {
        "startTick": 78768,
        "endTick": 78844,
        "pitch": 55,
        "velocity": 111,
        "trackId": 9,
        "channel": 8
      },
      {
        "startTick": 78814,
        "endTick": 78842,
        "pitch": 46,
        "velocity": 120,
        "trackId": 12,
        "channel": 9
      },
      {
        "startTick": 78816,
        "endTick": 78846,
        "pitch": 58,
        "velocity": 108,
        "trackId": 9,
        "channel": 8
      },
      {
        "startTick": 78816,
        "endTick": 78868,
        "pitch": 55,
        "velocity": 116,
        "trackId": 2,
        "channel": 4
      },
      {
        "startTick": 78822,
        "endTick": 78862,
        "pitch": 63,
        "velocity": 110,
        "trackId": 9,
        "channel": 8
      },
      {
        "startTick": 78864,
        "endTick": 78874,
        "pitch": 63,
        "velocity": 105,
        "trackId": 9,
        "channel": 8
      },
      {
        "startTick": 78864,
        "endTick": 78910,
        "pitch": 58,
        "velocity": 108,
        "trackId": 10,
        "channel": 11
      },
      {
        "startTick": 78864,
        "endTick": 78916,
        "pitch": 58,
        "velocity": 115,
        "trackId": 2,
        "channel": 4
      },
      {
        "startTick": 78864,
        "endTick": 78940,
        "pitch": 55,
        "velocity": 102,
        "trackId": 10,
        "channel": 11
      },
      {
        "startTick": 78866,
        "endTick": 78910,
        "pitch": 67,
        "velocity": 113,
        "trackId": 9,
        "channel": 8
      },
      {
        "startTick": 78910,
        "endTick": 78986,
        "pitch": 46,
        "velocity": 122,
        "trackId": 12,
        "channel": 9
      },
      {
        "startTick": 78910,
        "endTick": 79222,
        "pitch": 40,
        "velocity": 124,
        "trackId": 12,
        "channel": 9
      },
      {
        "startTick": 78912,
        "endTick": 78926,
        "pitch": 67,
        "velocity": 112,
        "trackId": 9,
        "channel": 8
      },
      {
        "startTick": 78912,
        "endTick": 78942,
        "pitch": 58,
        "velocity": 98,
        "trackId": 10,
        "channel": 11
      },
      {
        "startTick": 78912,
        "endTick": 78954,
        "pitch": 58,
        "velocity": 123,
        "trackId": 3,
        "channel": 0
      },
      {
        "startTick": 78912,
        "endTick": 79134,
        "pitch": 63,
        "velocity": 114,
        "trackId": 2,
        "channel": 4
      },
      {
        "startTick": 78916,
        "endTick": 79190,
        "pitch": 70,
        "velocity": 114,
        "trackId": 9,
        "channel": 8
      },
      {
        "startTick": 78918,
        "endTick": 78958,
        "pitch": 63,
        "velocity": 100,
        "trackId": 10,
        "channel": 11
      },
      {
        "startTick": 78960,
        "endTick": 78970,
        "pitch": 63,
        "velocity": 94,
        "trackId": 10,
        "channel": 11
      },
      {
        "startTick": 78960,
        "endTick": 79008,
        "pitch": 63,
        "velocity": 123,
        "trackId": 3,
        "channel": 0
      },
      {
        "startTick": 78960,
        "endTick": 79010,
        "pitch": 67,
        "velocity": 123,
        "trackId": 3,
        "channel": 0
      },
      {
        "startTick": 78960,
        "endTick": 79028,
        "pitch": 75,
        "velocity": 122,
        "trackId": 3,
        "channel": 0
      },
      {
        "startTick": 78960,
        "endTick": 79038,
        "pitch": 70,
        "velocity": 121,
        "trackId": 3,
        "channel": 0
      },
      {
        "startTick": 78962,
        "endTick": 79006,
        "pitch": 67,
        "velocity": 105,
        "trackId": 10,
        "channel": 11
      },
      {
        "startTick": 79006,
        "endTick": 79050,
        "pitch": 35,
        "velocity": 121,
        "trackId": 12,
        "channel": 9
      },
      {
        "startTick": 79006,
        "endTick": 79104,
        "pitch": 39,
        "velocity": 125,
        "trackId": 4,
        "channel": 1
      },
      {
        "startTick": 79006,
        "endTick": 79124,
        "pitch": 46,
        "velocity": 119,
        "trackId": 12,
        "channel": 9
      },
      {
        "startTick": 79008,
        "endTick": 79022,
        "pitch": 67,
        "velocity": 104,
        "trackId": 10,
        "channel": 11
      },
      {
        "startTick": 79008,
        "endTick": 79096,
        "pitch": 51,
        "velocity": 122,
        "trackId": 3,
        "channel": 0
      },
      {
        "startTick": 79012,
        "endTick": 79286,
        "pitch": 70,
        "velocity": 106,
        "trackId": 10,
        "channel": 11
      },
      {
        "startTick": 79102,
        "endTick": 79332,
        "pitch": 38,
        "velocity": 125,
        "trackId": 4,
        "channel": 1
      },
      {
        "startTick": 79102,
        "endTick": 79336,
        "pitch": 35,
        "velocity": 124,
        "trackId": 12,
        "channel": 9
      },
      {
        "startTick": 79102,
        "endTick": 79436,
        "pitch": 49,
        "velocity": 123,
        "trackId": 12,
        "channel": 9
      },
      {
        "startTick": 79104,
        "endTick": 79220,
        "pitch": 58,
        "velocity": 123,
        "trackId": 3,
        "channel": 0
      },
      {
        "startTick": 79104,
        "endTick": 79304,
        "pitch": 62,
        "velocity": 123,
        "trackId": 3,
        "channel": 0
      },
      {
        "startTick": 79104,
        "endTick": 79310,
        "pitch": 74,
        "velocity": 122,
        "trackId": 3,
        "channel": 0
      },
      {
        "startTick": 79104,
        "endTick": 79314,
        "pitch": 65,
        "velocity": 123,
        "trackId": 3,
        "channel": 0
      },
      {
        "startTick": 79104,
        "endTick": 79320,
        "pitch": 70,
        "velocity": 123,
        "trackId": 3,
        "channel": 0
      },
      {
        "startTick": 79104,
        "endTick": 79342,
        "pitch": 50,
        "velocity": 123,
        "trackId": 3,
        "channel": 0
      },
      {
        "startTick": 79152,
        "endTick": 79216,
        "pitch": 50,
        "velocity": 112,
        "trackId": 2,
        "channel": 4
      },
      {
        "startTick": 79152,
        "endTick": 79216,
        "pitch": 53,
        "velocity": 111,
        "trackId": 9,
        "channel": 8
      },
      {
        "startTick": 79156,
        "endTick": 79198,
        "pitch": 58,
        "velocity": 114,
        "trackId": 9,
        "channel": 8
      },
      {
        "startTick": 79198,
        "endTick": 79248,
        "pitch": 46,
        "velocity": 119,
        "trackId": 12,
        "channel": 9
      },
      {
        "startTick": 79200,
        "endTick": 79230,
        "pitch": 58,
        "velocity": 110,
        "trackId": 9,
        "channel": 8
      },
      {
        "startTick": 79200,
        "endTick": 79262,
        "pitch": 53,
        "velocity": 115,
        "trackId": 2,
        "channel": 4
      },
      {
        "startTick": 79208,
        "endTick": 79246,
        "pitch": 62,
        "velocity": 113,
        "trackId": 9,
        "channel": 8
      },
      {
        "startTick": 79248,
        "endTick": 79260,
        "pitch": 62,
        "velocity": 110,
        "trackId": 9,
        "channel": 8
      },
      {
        "startTick": 79248,
        "endTick": 79304,
        "pitch": 58,
        "velocity": 113,
        "trackId": 2,
        "channel": 4
      },
      {
        "startTick": 79248,
        "endTick": 79312,
        "pitch": 53,
        "velocity": 102,
        "trackId": 10,
        "channel": 11
      },
      {
        "startTick": 79252,
        "endTick": 79294,
        "pitch": 65,
        "velocity": 112,
        "trackId": 9,
        "channel": 8
      },
      {
        "startTick": 79252,
        "endTick": 79294,
        "pitch": 58,
        "velocity": 107,
        "trackId": 10,
        "channel": 11
      },
      {
        "startTick": 79294,
        "endTick": 79362,
        "pitch": 46,
        "velocity": 122,
        "trackId": 12,
        "channel": 9
      },
      {
        "startTick": 79294,
        "endTick": 79578,
        "pitch": 40,
        "velocity": 124,
        "trackId": 12,
        "channel": 9
      },
      {
        "startTick": 79296,
        "endTick": 79306,
        "pitch": 65,
        "velocity": 113,
        "trackId": 9,
        "channel": 8
      },
      {
        "startTick": 79296,
        "endTick": 79326,
        "pitch": 58,
        "velocity": 101,
        "trackId": 10,
        "channel": 11
      },
      {
        "startTick": 79296,
        "endTick": 79448,
        "pitch": 58,
        "velocity": 122,
        "trackId": 3,
        "channel": 0
      },
      {
        "startTick": 79296,
        "endTick": 79516,
        "pitch": 62,
        "velocity": 114,
        "trackId": 2,
        "channel": 4
      },
      {
        "startTick": 79296,
        "endTick": 79532,
        "pitch": 70,
        "velocity": 112,
        "trackId": 9,
        "channel": 8
      },
      {
        "startTick": 79304,
        "endTick": 79342,
        "pitch": 62,
        "velocity": 105,
        "trackId": 10,
        "channel": 11
      },
      {
        "startTick": 79344,
        "endTick": 79356,
        "pitch": 62,
        "velocity": 101,
        "trackId": 10,
        "channel": 11
      },
      {
        "startTick": 79344,
        "endTick": 79398,
        "pitch": 65,
        "velocity": 123,
        "trackId": 3,
        "channel": 0
      },
      {
        "startTick": 79344,
        "endTick": 79398,
        "pitch": 74,
        "velocity": 120,
        "trackId": 3,
        "channel": 0
      },
      {
        "startTick": 79344,
        "endTick": 79402,
        "pitch": 70,
        "velocity": 122,
        "trackId": 3,
        "channel": 0
      },
      {
        "startTick": 79344,
        "endTick": 79424,
        "pitch": 62,
        "velocity": 123,
        "trackId": 3,
        "channel": 0
      },
      {
        "startTick": 79348,
        "endTick": 79390,
        "pitch": 65,
        "velocity": 104,
        "trackId": 10,
        "channel": 11
      },
      {
        "startTick": 79390,
        "endTick": 79426,
        "pitch": 35,
        "velocity": 120,
        "trackId": 12,
        "channel": 9
      },
      {
        "startTick": 79390,
        "endTick": 79486,
        "pitch": 38,
        "velocity": 125,
        "trackId": 4,
        "channel": 1
      },
      {
        "startTick": 79390,
        "endTick": 79532,
        "pitch": 46,
        "velocity": 120,
        "trackId": 12,
        "channel": 9
      },
      {
        "startTick": 79392,
        "endTick": 79402,
        "pitch": 65,
        "velocity": 105,
        "trackId": 10,
        "channel": 11
      },
      {
        "startTick": 79392,
        "endTick": 79452,
        "pitch": 50,
        "velocity": 117,
        "trackId": 3,
        "channel": 0
      },
      {
        "startTick": 79392,
        "endTick": 79628,
        "pitch": 70,
        "velocity": 104,
        "trackId": 10,
        "channel": 11
      },
      {
        "startTick": 79486,
        "endTick": 79726,
        "pitch": 35,
        "velocity": 124,
        "trackId": 12,
        "channel": 9
      },
      {
        "startTick": 79486,
        "endTick": 79732,
        "pitch": 36,
        "velocity": 125,
        "trackId": 4,
        "channel": 1
      },
      {
        "startTick": 79486,
        "endTick": 79800,
        "pitch": 57,
        "velocity": 123,
        "trackId": 12,
        "channel": 9
      },
      {
        "startTick": 79488,
        "endTick": 79616,
        "pitch": 55,
        "velocity": 123,
        "trackId": 3,
        "channel": 0
      },
      {
        "startTick": 79488,
        "endTick": 79684,
        "pitch": 60,
        "velocity": 123,
        "trackId": 3,
        "channel": 0
      },
      {
        "startTick": 79488,
        "endTick": 79690,
        "pitch": 48,
        "velocity": 122,
        "trackId": 3,
        "channel": 0
      },
      {
        "startTick": 79488,
        "endTick": 79788,
        "pitch": 72,
        "velocity": 122,
        "trackId": 3,
        "channel": 0
      },
      {
        "startTick": 79488,
        "endTick": 79794,
        "pitch": 67,
        "velocity": 123,
        "trackId": 3,
        "channel": 0
      },
      {
        "startTick": 79488,
        "endTick": 79802,
        "pitch": 63,
        "velocity": 123,
        "trackId": 3,
        "channel": 0
      },
      {
        "startTick": 79530,
        "endTick": 79582,
        "pitch": 60,
        "velocity": 112,
        "trackId": 9,
        "channel": 8
      },
      {
        "startTick": 79536,
        "endTick": 79592,
        "pitch": 48,
        "velocity": 113,
        "trackId": 2,
        "channel": 4
      },
      {
        "startTick": 79536,
        "endTick": 79612,
        "pitch": 55,
        "velocity": 111,
        "trackId": 9,
        "channel": 8
      },
      {
        "startTick": 79580,
        "endTick": 79630,
        "pitch": 63,
        "velocity": 109,
        "trackId": 9,
        "channel": 8
      },
      {
        "startTick": 79582,
        "endTick": 79614,
        "pitch": 46,
        "velocity": 119,
        "trackId": 12,
        "channel": 9
      },
      {
        "startTick": 79584,
        "endTick": 79602,
        "pitch": 60,
        "velocity": 114,
        "trackId": 9,
        "channel": 8
      },
      {
        "startTick": 79584,
        "endTick": 79632,
        "pitch": 51,
        "velocity": 113,
        "trackId": 2,
        "channel": 4
      },
      {
        "startTick": 79626,
        "endTick": 79678,
        "pitch": 60,
        "velocity": 104,
        "trackId": 10,
        "channel": 11
      },
      {
        "startTick": 79632,
        "endTick": 79638,
        "pitch": 63,
        "velocity": 108,
        "trackId": 9,
        "channel": 8
      },
      {
        "startTick": 79632,
        "endTick": 79678,
        "pitch": 67,
        "velocity": 111,
        "trackId": 9,
        "channel": 8
      },
      {
        "startTick": 79632,
        "endTick": 79686,
        "pitch": 55,
        "velocity": 114,
        "trackId": 2,
        "channel": 4
      },
      {
        "startTick": 79632,
        "endTick": 79708,
        "pitch": 55,
        "velocity": 102,
        "trackId": 10,
        "channel": 11
      },
      {
        "startTick": 79676,
        "endTick": 79726,
        "pitch": 63,
        "velocity": 99,
        "trackId": 10,
        "channel": 11
      },
      {
        "startTick": 79678,
        "endTick": 79750,
        "pitch": 46,
        "velocity": 122,
        "trackId": 12,
        "channel": 9
      },
      {
        "startTick": 79678,
        "endTick": 79824,
        "pitch": 40,
        "velocity": 124,
        "trackId": 12,
        "channel": 9
      },
      {
        "startTick": 79678,
        "endTick": 79980,
        "pitch": 70,
        "velocity": 114,
        "trackId": 9,
        "channel": 8
      },
      {
        "startTick": 79680,
        "endTick": 79698,
        "pitch": 60,
        "velocity": 106,
        "trackId": 10,
        "channel": 11
      },
      {
        "startTick": 79680,
        "endTick": 79822,
        "pitch": 55,
        "velocity": 123,
        "trackId": 3,
        "channel": 0
      },
      {
        "startTick": 79680,
        "endTick": 79862,
        "pitch": 58,
        "velocity": 113,
        "trackId": 2,
        "channel": 4
      },
      {
        "startTick": 79680,
        "endTick": 80016,
        "pitch": 65,
        "velocity": 117,
        "trackId": 9,
        "channel": 8
      },
      {
        "startTick": 79728,
        "endTick": 79734,
        "pitch": 63,
        "velocity": 97,
        "trackId": 10,
        "channel": 11
      },
      {
        "startTick": 79728,
        "endTick": 79774,
        "pitch": 67,
        "velocity": 102,
        "trackId": 10,
        "channel": 11
      },
      {
        "startTick": 79728,
        "endTick": 79812,
        "pitch": 60,
        "velocity": 120,
        "trackId": 3,
        "channel": 0
      },
      {
        "startTick": 79774,
        "endTick": 79806,
        "pitch": 35,
        "velocity": 120,
        "trackId": 12,
        "channel": 9
      },
      {
        "startTick": 79774,
        "endTick": 79864,
        "pitch": 36,
        "velocity": 125,
        "trackId": 4,
        "channel": 1
      },
      {
        "startTick": 79774,
        "endTick": 79872,
        "pitch": 46,
        "velocity": 122,
        "trackId": 12,
        "channel": 9
      },
      {
        "startTick": 79774,
        "endTick": 80076,
        "pitch": 70,
        "velocity": 107,
        "trackId": 10,
        "channel": 11
      },
      {
        "startTick": 79776,
        "endTick": 79818,
        "pitch": 48,
        "velocity": 118,
        "trackId": 3,
        "channel": 0
      },
      {
        "startTick": 79776,
        "endTick": 80112,
        "pitch": 65,
        "velocity": 110,
        "trackId": 10,
        "channel": 11
      },
      {
        "startTick": 79870,
        "endTick": 80002,
        "pitch": 35,
        "velocity": 123,
        "trackId": 12,
        "channel": 9
      },
      {
        "startTick": 79870,
        "endTick": 80036,
        "pitch": 49,
        "velocity": 122,
        "trackId": 12,
        "channel": 9
      },
      {
        "startTick": 79870,
        "endTick": 80052,
        "pitch": 31,
        "velocity": 125,
        "trackId": 4,
        "channel": 1
      },
      {
        "startTick": 79872,
        "endTick": 80044,
        "pitch": 59,
        "velocity": 123,
        "trackId": 3,
        "channel": 0
      },
      {
        "startTick": 79872,
        "endTick": 80046,
        "pitch": 71,
        "velocity": 103,
        "trackId": 5,
        "channel": 2
      },
      {
        "startTick": 79872,
        "endTick": 80052,
        "pitch": 55,
        "velocity": 123,
        "trackId": 3,
        "channel": 0
      },
      {
        "startTick": 79872,
        "endTick": 80054,
        "pitch": 67,
        "velocity": 123,
        "trackId": 3,
        "channel": 0
      },
      {
        "startTick": 79872,
        "endTick": 80060,
        "pitch": 43,
        "velocity": 123,
        "trackId": 3,
        "channel": 0
      },
      {
        "startTick": 79872,
        "endTick": 80064,
        "pitch": 43,
        "velocity": 116,
        "trackId": 5,
        "channel": 2
      },
      {
        "startTick": 79872,
        "endTick": 80066,
        "pitch": 74,
        "velocity": 101,
        "trackId": 5,
        "channel": 2
      },
      {
        "startTick": 79872,
        "endTick": 80070,
        "pitch": 55,
        "velocity": 115,
        "trackId": 5,
        "channel": 2
      },
      {
        "startTick": 79872,
        "endTick": 80076,
        "pitch": 62,
        "velocity": 123,
        "trackId": 3,
        "channel": 0
      },
      {
        "startTick": 79872,
        "endTick": 80144,
        "pitch": 79,
        "velocity": 113,
        "trackId": 5,
        "channel": 2
      },
      {
        "startTick": 79872,
        "endTick": 80150,
        "pitch": 67,
        "velocity": 104,
        "trackId": 5,
        "channel": 2
      },
      {
        "startTick": 80062,
        "endTick": 80144,
        "pitch": 35,
        "velocity": 124,
        "trackId": 12,
        "channel": 9
      },
      {
        "startTick": 80062,
        "endTick": 80168,
        "pitch": 36,
        "velocity": 125,
        "trackId": 4,
        "channel": 1
      },
      {
        "startTick": 80062,
        "endTick": 80174,
        "pitch": 52,
        "velocity": 123,
        "trackId": 12,
        "channel": 9
      },
      {
        "startTick": 80064,
        "endTick": 80138,
        "pitch": 67,
        "velocity": 123,
        "trackId": 3,
        "channel": 0
      },
      {
        "startTick": 80064,
        "endTick": 80142,
        "pitch": 48,
        "velocity": 117,
        "trackId": 5,
        "channel": 2
      },
      {
        "startTick": 80064,
        "endTick": 80148,
        "pitch": 55,
        "velocity": 123,
        "trackId": 3,
        "channel": 0
      },
      {
        "startTick": 80064,
        "endTick": 80150,
        "pitch": 48,
        "velocity": 123,
        "trackId": 3,
        "channel": 0
      },
      {
        "startTick": 80064,
        "endTick": 80152,
        "pitch": 60,
        "velocity": 123,
        "trackId": 3,
        "channel": 0
      },
      {
        "startTick": 80064,
        "endTick": 80152,
        "pitch": 63,
        "velocity": 123,
        "trackId": 3,
        "channel": 0
      },
      {
        "startTick": 80064,
        "endTick": 80152,
        "pitch": 75,
        "velocity": 101,
        "trackId": 5,
        "channel": 2
      },
      {
        "startTick": 80064,
        "endTick": 80154,
        "pitch": 72,
        "velocity": 116,
        "trackId": 5,
        "channel": 2
      },
      {
        "startTick": 80254,
        "endTick": 80394,
        "pitch": 35,
        "velocity": 124,
        "trackId": 12,
        "channel": 9
      },
      {
        "startTick": 80254,
        "endTick": 80422,
        "pitch": 55,
        "velocity": 127,
        "trackId": 12,
        "channel": 9
      },
      {
        "startTick": 80254,
        "endTick": 80442,
        "pitch": 35,
        "velocity": 125,
        "trackId": 4,
        "channel": 1
      },
      {
        "startTick": 80256,
        "endTick": 80406,
        "pitch": 59,
        "velocity": 123,
        "trackId": 3,
        "channel": 0
      },
      {
        "startTick": 80256,
        "endTick": 80414,
        "pitch": 71,
        "velocity": 111,
        "trackId": 5,
        "channel": 2
      },
      {
        "startTick": 80256,
        "endTick": 80438,
        "pitch": 43,
        "velocity": 116,
        "trackId": 5,
        "channel": 2
      },
      {
        "startTick": 80256,
        "endTick": 80440,
        "pitch": 55,
        "velocity": 123,
        "trackId": 3,
        "channel": 0
      },
      {
        "startTick": 80256,
        "endTick": 80442,
        "pitch": 67,
        "velocity": 122,
        "trackId": 3,
        "channel": 0
      },
      {
        "startTick": 80256,
        "endTick": 80444,
        "pitch": 74,
        "velocity": 112,
        "trackId": 5,
        "channel": 2
      },
      {
        "startTick": 80256,
        "endTick": 80446,
        "pitch": 55,
        "velocity": 118,
        "trackId": 5,
        "channel": 2
      },
      {
        "startTick": 80256,
        "endTick": 80454,
        "pitch": 62,
        "velocity": 123,
        "trackId": 3,
        "channel": 0
      },
      {
        "startTick": 80256,
        "endTick": 80456,
        "pitch": 43,
        "velocity": 123,
        "trackId": 3,
        "channel": 0
      },
      {
        "startTick": 80256,
        "endTick": 80510,
        "pitch": 79,
        "velocity": 115,
        "trackId": 5,
        "channel": 2
      },
      {
        "startTick": 80256,
        "endTick": 80548,
        "pitch": 67,
        "velocity": 111,
        "trackId": 5,
        "channel": 2
      },
      {
        "startTick": 80446,
        "endTick": 80510,
        "pitch": 57,
        "velocity": 123,
        "trackId": 12,
        "channel": 9
      },
      {
        "startTick": 80446,
        "endTick": 80522,
        "pitch": 35,
        "velocity": 124,
        "trackId": 12,
        "channel": 9
      },
      {
        "startTick": 80446,
        "endTick": 80636,
        "pitch": 36,
        "velocity": 125,
        "trackId": 4,
        "channel": 1
      },
      {
        "startTick": 80448,
        "endTick": 80520,
        "pitch": 48,
        "velocity": 123,
        "trackId": 3,
        "channel": 0
      },
      {
        "startTick": 80448,
        "endTick": 80524,
        "pitch": 48,
        "velocity": 119,
        "trackId": 5,
        "channel": 2
      },
      {
        "startTick": 80448,
        "endTick": 80526,
        "pitch": 55,
        "velocity": 123,
        "trackId": 3,
        "channel": 0
      },
      {
        "startTick": 80448,
        "endTick": 80532,
        "pitch": 60,
        "velocity": 123,
        "trackId": 3,
        "channel": 0
      },
      {
        "startTick": 80448,
        "endTick": 80542,
        "pitch": 63,
        "velocity": 123,
        "trackId": 3,
        "channel": 0
      },
      {
        "startTick": 80448,
        "endTick": 80550,
        "pitch": 67,
        "velocity": 123,
        "trackId": 3,
        "channel": 0
      },
      {
        "startTick": 80448,
        "endTick": 80552,
        "pitch": 72,
        "velocity": 115,
        "trackId": 5,
        "channel": 2
      },
      {
        "startTick": 80448,
        "endTick": 80570,
        "pitch": 75,
        "velocity": 114,
        "trackId": 5,
        "channel": 2
      },
      {
        "startTick": 80638,
        "endTick": 80752,
        "pitch": 35,
        "velocity": 124,
        "trackId": 12,
        "channel": 9
      },
      {
        "startTick": 80638,
        "endTick": 80776,
        "pitch": 52,
        "velocity": 123,
        "trackId": 12,
        "channel": 9
      },
      {
        "startTick": 80638,
        "endTick": 80814,
        "pitch": 34,
        "velocity": 125,
        "trackId": 4,
        "channel": 1
      },
      {
        "startTick": 80640,
        "endTick": 80748,
        "pitch": 46,
        "velocity": 110,
        "trackId": 5,
        "channel": 2
      },
      {
        "startTick": 80640,
        "endTick": 80768,
        "pitch": 58,
        "velocity": 118,
        "trackId": 5,
        "channel": 2
      },
      {
        "startTick": 80640,
        "endTick": 80790,
        "pitch": 58,
        "velocity": 123,
        "trackId": 3,
        "channel": 0
      },
      {
        "startTick": 80640,
        "endTick": 80804,
        "pitch": 65,
        "velocity": 118,
        "trackId": 5,
        "channel": 2
      },
      {
        "startTick": 80640,
        "endTick": 80810,
        "pitch": 56,
        "velocity": 123,
        "trackId": 3,
        "channel": 0
      },
      {
        "startTick": 80640,
        "endTick": 80820,
        "pitch": 65,
        "velocity": 123,
        "trackId": 3,
        "channel": 0
      },
      {
        "startTick": 80640,
        "endTick": 80824,
        "pitch": 62,
        "velocity": 123,
        "trackId": 3,
        "channel": 0
      },
      {
        "startTick": 80640,
        "endTick": 80826,
        "pitch": 62,
        "velocity": 122,
        "trackId": 2,
        "channel": 4
      },
      {
        "startTick": 80640,
        "endTick": 80826,
        "pitch": 53,
        "velocity": 123,
        "trackId": 3,
        "channel": 0
      },
      {
        "startTick": 80640,
        "endTick": 80830,
        "pitch": 46,
        "velocity": 120,
        "trackId": 3,
        "channel": 0
      },
      {
        "startTick": 80640,
        "endTick": 80832,
        "pitch": 74,
        "velocity": 116,
        "trackId": 5,
        "channel": 2
      },
      {
        "startTick": 80640,
        "endTick": 80844,
        "pitch": 77,
        "velocity": 119,
        "trackId": 5,
        "channel": 2
      },
      {
        "startTick": 80640,
        "endTick": 80990,
        "pitch": 70,
        "velocity": 115,
        "trackId": 5,
        "channel": 2
      },
      {
        "startTick": 80830,
        "endTick": 80940,
        "pitch": 49,
        "velocity": 123,
        "trackId": 12,
        "channel": 9
      },
      {
        "startTick": 80830,
        "endTick": 80950,
        "pitch": 35,
        "velocity": 123,
        "trackId": 12,
        "channel": 9
      },
      {
        "startTick": 80830,
        "endTick": 81020,
        "pitch": 39,
        "velocity": 125,
        "trackId": 4,
        "channel": 1
      },
      {
        "startTick": 80832,
        "endTick": 80922,
        "pitch": 63,
        "velocity": 115,
        "trackId": 2,
        "channel": 4
      },
      {
        "startTick": 80832,
        "endTick": 80974,
        "pitch": 58,
        "velocity": 115,
        "trackId": 5,
        "channel": 2
      },
      {
        "startTick": 80832,
        "endTick": 80978,
        "pitch": 67,
        "velocity": 114,
        "trackId": 5,
        "channel": 2
      },
      {
        "startTick": 80832,
        "endTick": 81006,
        "pitch": 58,
        "velocity": 123,
        "trackId": 3,
        "channel": 0
      },
      {
        "startTick": 80832,
        "endTick": 81012,
        "pitch": 67,
        "velocity": 123,
        "trackId": 3,
        "channel": 0
      },
      {
        "startTick": 80832,
        "endTick": 81018,
        "pitch": 63,
        "velocity": 117,
        "trackId": 5,
        "channel": 2
      },
      {
        "startTick": 80832,
        "endTick": 81020,
        "pitch": 51,
        "velocity": 123,
        "trackId": 3,
        "channel": 0
      },
      {
        "startTick": 80832,
        "endTick": 81020,
        "pitch": 55,
        "velocity": 123,
        "trackId": 3,
        "channel": 0
      },
      {
        "startTick": 80832,
        "endTick": 81020,
        "pitch": 63,
        "velocity": 122,
        "trackId": 3,
        "channel": 0
      },
      {
        "startTick": 80832,
        "endTick": 81026,
        "pitch": 75,
        "velocity": 112,
        "trackId": 5,
        "channel": 2
      },
      {
        "startTick": 80832,
        "endTick": 81028,
        "pitch": 51,
        "velocity": 116,
        "trackId": 5,
        "channel": 2
      },
      {
        "startTick": 80928,
        "endTick": 81024,
        "pitch": 67,
        "velocity": 115,
        "trackId": 2,
        "channel": 4
      },
      {
        "startTick": 80928,
        "endTick": 81042,
        "pitch": 79,
        "velocity": 112,
        "trackId": 5,
        "channel": 2
      },
      {
        "startTick": 81022,
        "endTick": 81234,
        "pitch": 38,
        "velocity": 125,
        "trackId": 4,
        "channel": 1
      },
      {
        "startTick": 81022,
        "endTick": 81240,
        "pitch": 35,
        "velocity": 124,
        "trackId": 12,
        "channel": 9
      },
      {
        "startTick": 81022,
        "endTick": 81722,
        "pitch": 57,
        "velocity": 123,
        "trackId": 12,
        "channel": 9
      },
      {
        "startTick": 81024,
        "endTick": 81224,
        "pitch": 78,
        "velocity": 110,
        "trackId": 5,
        "channel": 2
      },
      {
        "startTick": 81024,
        "endTick": 81226,
        "pitch": 66,
        "velocity": 123,
        "trackId": 2,
        "channel": 4
      },
      {
        "startTick": 81024,
        "endTick": 81238,
        "pitch": 66,
        "velocity": 122,
        "trackId": 3,
        "channel": 0
      },
      {
        "startTick": 81024,
        "endTick": 81322,
        "pitch": 72,
        "velocity": 114,
        "trackId": 5,
        "channel": 2
      },
      {
        "startTick": 81024,
        "endTick": 81366,
        "pitch": 60,
        "velocity": 123,
        "trackId": 3,
        "channel": 0
      },
      {
        "startTick": 81024,
        "endTick": 81426,
        "pitch": 50,
        "velocity": 122,
        "trackId": 3,
        "channel": 0
      },
      {
        "startTick": 81024,
        "endTick": 81792,
        "pitch": 62,
        "velocity": 114,
        "trackId": 5,
        "channel": 2
      },
      {
        "startTick": 81024,
        "endTick": 81792,
        "pitch": 74,
        "velocity": 114,
        "trackId": 5,
        "channel": 2
      },
      {
        "startTick": 81024,
        "endTick": 81798,
        "pitch": 62,
        "velocity": 123,
        "trackId": 3,
        "channel": 0
      },
      {
        "startTick": 81214,
        "endTick": 81276,
        "pitch": 46,
        "velocity": 122,
        "trackId": 12,
        "channel": 9
      },
      {
        "startTick": 81214,
        "endTick": 81316,
        "pitch": 34,
        "velocity": 125,
        "trackId": 4,
        "channel": 1
      },
      {
        "startTick": 81214,
        "endTick": 81542,
        "pitch": 40,
        "velocity": 124,
        "trackId": 12,
        "channel": 9
      },
      {
        "startTick": 81216,
        "endTick": 81290,
        "pitch": 67,
        "velocity": 122,
        "trackId": 3,
        "channel": 0
      },
      {
        "startTick": 81216,
        "endTick": 81316,
        "pitch": 67,
        "velocity": 123,
        "trackId": 2,
        "channel": 4
      },
      {
        "startTick": 81216,
        "endTick": 81792,
        "pitch": 79,
        "velocity": 111,
        "trackId": 5,
        "channel": 2
      },
      {
        "startTick": 81310,
        "endTick": 81344,
        "pitch": 46,
        "velocity": 112,
        "trackId": 12,
        "channel": 9
      },
      {
        "startTick": 81310,
        "endTick": 81354,
        "pitch": 35,
        "velocity": 123,
        "trackId": 12,
        "channel": 9
      },
      {
        "startTick": 81310,
        "endTick": 81410,
        "pitch": 33,
        "velocity": 125,
        "trackId": 4,
        "channel": 1
      },
      {
        "startTick": 81312,
        "endTick": 81360,
        "pitch": 81,
        "velocity": 112,
        "trackId": 5,
        "channel": 2
      },
      {
        "startTick": 81312,
        "endTick": 81376,
        "pitch": 69,
        "velocity": 123,
        "trackId": 3,
        "channel": 0
      },
      {
        "startTick": 81312,
        "endTick": 81420,
        "pitch": 69,
        "velocity": 122,
        "trackId": 2,
        "channel": 4
      },
      {
        "startTick": 81406,
        "endTick": 81458,
        "pitch": 46,
        "velocity": 122,
        "trackId": 12,
        "channel": 9
      },
      {
        "startTick": 81406,
        "endTick": 81516,
        "pitch": 31,
        "velocity": 125,
        "trackId": 4,
        "channel": 1
      },
      {
        "startTick": 81406,
        "endTick": 81610,
        "pitch": 35,
        "velocity": 124,
        "trackId": 12,
        "channel": 9
      },
      {
        "startTick": 81408,
        "endTick": 81622,
        "pitch": 58,
        "velocity": 122,
        "trackId": 3,
        "channel": 0
      },
      {
        "startTick": 81408,
        "endTick": 81708,
        "pitch": 43,
        "velocity": 122,
        "trackId": 3,
        "channel": 0
      },
      {
        "startTick": 81408,
        "endTick": 81792,
        "pitch": 82,
        "velocity": 116,
        "trackId": 5,
        "channel": 2
      },
      {
        "startTick": 81408,
        "endTick": 81794,
        "pitch": 70,
        "velocity": 122,
        "trackId": 2,
        "channel": 4
      },
      {
        "startTick": 81408,
        "endTick": 81794,
        "pitch": 67,
        "velocity": 121,
        "trackId": 3,
        "channel": 0
      },
      {
        "startTick": 81408,
        "endTick": 81800,
        "pitch": 70,
        "velocity": 121,
        "trackId": 3,
        "channel": 0
      },
      {
        "startTick": 81502,
        "endTick": 81528,
        "pitch": 46,
        "velocity": 112,
        "trackId": 12,
        "channel": 9
      },
      {
        "startTick": 81502,
        "endTick": 81606,
        "pitch": 38,
        "velocity": 122,
        "trackId": 4,
        "channel": 1
      },
      {
        "startTick": 81504,
        "endTick": 81792,
        "pitch": 50,
        "velocity": 122,
        "trackId": 3,
        "channel": 0
      },
      {
        "startTick": 81598,
        "endTick": 81652,
        "pitch": 46,
        "velocity": 122,
        "trackId": 12,
        "channel": 9
      },
      {
        "startTick": 81598,
        "endTick": 81654,
        "pitch": 40,
        "velocity": 123,
        "trackId": 12,
        "channel": 9
      },
      {
        "startTick": 81598,
        "endTick": 81686,
        "pitch": 43,
        "velocity": 125,
        "trackId": 4,
        "channel": 1
      },
      {
        "startTick": 81600,
        "endTick": 81796,
        "pitch": 55,
        "velocity": 123,
        "trackId": 3,
        "channel": 0
      },
      {
        "startTick": 81646,
        "endTick": 81698,
        "pitch": 43,
        "velocity": 122,
        "trackId": 12,
        "channel": 9
      },
      {
        "startTick": 81694,
        "endTick": 81734,
        "pitch": 35,
        "velocity": 124,
        "trackId": 12,
        "channel": 9
      },
      {
        "startTick": 81694,
        "endTick": 81780,
        "pitch": 45,
        "velocity": 122,
        "trackId": 12,
        "channel": 9
      },
      {
        "startTick": 81694,
        "endTick": 81786,
        "pitch": 31,
        "velocity": 125,
        "trackId": 4,
        "channel": 1
      },
      {
        "startTick": 81696,
        "endTick": 81782,
        "pitch": 58,
        "velocity": 110,
        "trackId": 3,
        "channel": 0
      },
      {
        "startTick": 81790,
        "endTick": 82004,
        "pitch": 35,
        "velocity": 124,
        "trackId": 12,
        "channel": 9
      },
      {
        "startTick": 81790,
        "endTick": 82062,
        "pitch": 32,
        "velocity": 125,
        "trackId": 4,
        "channel": 1
      },
      {
        "startTick": 81790,
        "endTick": 82494,
        "pitch": 49,
        "velocity": 123,
        "trackId": 12,
        "channel": 9
      },
      {
        "startTick": 81792,
        "endTick": 81984,
        "pitch": 72,
        "velocity": 112,
        "trackId": 5,
        "channel": 2
      },
      {
        "startTick": 81792,
        "endTick": 82066,
        "pitch": 60,
        "velocity": 122,
        "trackId": 2,
        "channel": 4
      },
      {
        "startTick": 81792,
        "endTick": 82096,
        "pitch": 63,
        "velocity": 112,
        "trackId": 5,
        "channel": 2
      },
      {
        "startTick": 81792,
        "endTick": 82114,
        "pitch": 60,
        "velocity": 112,
        "trackId": 5,
        "channel": 2
      },
      {
        "startTick": 81792,
        "endTick": 82182,
        "pitch": 68,
        "velocity": 112,
        "trackId": 5,
        "channel": 2
      },
      {
        "startTick": 81792,
        "endTick": 82190,
        "pitch": 44,
        "velocity": 123,
        "trackId": 3,
        "channel": 0
      },
      {
        "startTick": 81886,
        "endTick": 81934,
        "pitch": 46,
        "velocity": 111,
        "trackId": 12,
        "channel": 9
      },
      {
        "startTick": 81888,
        "endTick": 82154,
        "pitch": 51,
        "velocity": 121,
        "trackId": 3,
        "channel": 0
      },
      {
        "startTick": 81982,
        "endTick": 82032,
        "pitch": 46,
        "velocity": 122,
        "trackId": 12,
        "channel": 9
      },
      {
        "startTick": 81982,
        "endTick": 82300,
        "pitch": 40,
        "velocity": 122,
        "trackId": 12,
        "channel": 9
      },
      {
        "startTick": 81984,
        "endTick": 82136,
        "pitch": 60,
        "velocity": 123,
        "trackId": 3,
        "channel": 0
      },
      {
        "startTick": 81984,
        "endTick": 82170,
        "pitch": 63,
        "velocity": 123,
        "trackId": 3,
        "channel": 0
      },
      {
        "startTick": 81984,
        "endTick": 82176,
        "pitch": 72,
        "velocity": 113,
        "trackId": 5,
        "channel": 2
      },
      {
        "startTick": 81984,
        "endTick": 82178,
        "pitch": 56,
        "velocity": 123,
        "trackId": 3,
        "channel": 0
      },
      {
        "startTick": 81984,
        "endTick": 82190,
        "pitch": 68,
        "velocity": 120,
        "trackId": 3,
        "channel": 0
      },
      {
        "startTick": 82078,
        "endTick": 82100,
        "pitch": 46,
        "velocity": 114,
        "trackId": 12,
        "channel": 9
      },
      {
        "startTick": 82078,
        "endTick": 82122,
        "pitch": 35,
        "velocity": 123,
        "trackId": 12,
        "channel": 9
      },
      {
        "startTick": 82078,
        "endTick": 82162,
        "pitch": 32,
        "velocity": 125,
        "trackId": 4,
        "channel": 1
      },
      {
        "startTick": 82080,
        "endTick": 82136,
        "pitch": 60,
        "velocity": 117,
        "trackId": 2,
        "channel": 4
      },
      {
        "startTick": 82080,
        "endTick": 82172,
        "pitch": 74,
        "velocity": 110,
        "trackId": 5,
        "channel": 2
      },
      {
        "startTick": 82128,
        "endTick": 82188,
        "pitch": 62,
        "velocity": 114,
        "trackId": 2,
        "channel": 4
      },
      {
        "startTick": 82174,
        "endTick": 82202,
        "pitch": 46,
        "velocity": 122,
        "trackId": 12,
        "channel": 9
      },
      {
        "startTick": 82174,
        "endTick": 82424,
        "pitch": 35,
        "velocity": 123,
        "trackId": 12,
        "channel": 9
      },
      {
        "startTick": 82174,
        "endTick": 82512,
        "pitch": 39,
        "velocity": 125,
        "trackId": 4,
        "channel": 1
      },
      {
        "startTick": 82176,
        "endTick": 82266,
        "pitch": 51,
        "velocity": 122,
        "trackId": 3,
        "channel": 0
      },
      {
        "startTick": 82176,
        "endTick": 82362,
        "pitch": 67,
        "velocity": 119,
        "trackId": 3,
        "channel": 0
      },
      {
        "startTick": 82176,
        "endTick": 82364,
        "pitch": 58,
        "velocity": 117,
        "trackId": 3,
        "channel": 0
      },
      {
        "startTick": 82176,
        "endTick": 82452,
        "pitch": 63,
        "velocity": 115,
        "trackId": 3,
        "channel": 0
      },
      {
        "startTick": 82176,
        "endTick": 82496,
        "pitch": 58,
        "velocity": 116,
        "trackId": 2,
        "channel": 4
      },
      {
        "startTick": 82176,
        "endTick": 82560,
        "pitch": 63,
        "velocity": 114,
        "trackId": 5,
        "channel": 2
      },
      {
        "startTick": 82176,
        "endTick": 82560,
        "pitch": 67,
        "velocity": 114,
        "trackId": 5,
        "channel": 2
      },
      {
        "startTick": 82176,
        "endTick": 82560,
        "pitch": 70,
        "velocity": 114,
        "trackId": 5,
        "channel": 2
      },
      {
        "startTick": 82270,
        "endTick": 82318,
        "pitch": 46,
        "velocity": 111,
        "trackId": 12,
        "channel": 9
      },
      {
        "startTick": 82272,
        "endTick": 82460,
        "pitch": 51,
        "velocity": 109,
        "trackId": 3,
        "channel": 0
      },
      {
        "startTick": 82366,
        "endTick": 82400,
        "pitch": 46,
        "velocity": 123,
        "trackId": 12,
        "channel": 9
      },
      {
        "startTick": 82366,
        "endTick": 82480,
        "pitch": 40,
        "velocity": 124,
        "trackId": 12,
        "channel": 9
      },
      {
        "startTick": 82368,
        "endTick": 82438,
        "pitch": 58,
        "velocity": 115,
        "trackId": 3,
        "channel": 0
      },
      {
        "startTick": 82462,
        "endTick": 82488,
        "pitch": 46,
        "velocity": 120,
        "trackId": 12,
        "channel": 9
      },
      {
        "startTick": 82462,
        "endTick": 82550,
        "pitch": 35,
        "velocity": 123,
        "trackId": 12,
        "channel": 9
      },
      {
        "startTick": 82558,
        "endTick": 82738,
        "pitch": 49,
        "velocity": 122,
        "trackId": 12,
        "channel": 9
      },
      {
        "startTick": 82558,
        "endTick": 82786,
        "pitch": 35,
        "velocity": 123,
        "trackId": 12,
        "channel": 9
      },
      {
        "startTick": 82558,
        "endTick": 82806,
        "pitch": 36,
        "velocity": 123,
        "trackId": 4,
        "channel": 1
      },
      {
        "startTick": 82560,
        "endTick": 82648,
        "pitch": 80,
        "velocity": 121,
        "trackId": 1,
        "channel": 5
      },
      {
        "startTick": 82560,
        "endTick": 82666,
        "pitch": 72,
        "velocity": 122,
        "trackId": 3,
        "channel": 0
      },
      {
        "startTick": 82560,
        "endTick": 82682,
        "pitch": 67,
        "velocity": 123,
        "trackId": 3,
        "channel": 0
      },
      {
        "startTick": 82560,
        "endTick": 82850,
        "pitch": 48,
        "velocity": 122,
        "trackId": 3,
        "channel": 0
      },
      {
        "startTick": 82656,
        "endTick": 82754,
        "pitch": 55,
        "velocity": 117,
        "trackId": 3,
        "channel": 0
      },
      {
        "startTick": 82656,
        "endTick": 82762,
        "pitch": 79,
        "velocity": 122,
        "trackId": 1,
        "channel": 5
      },
      {
        "startTick": 82656,
        "endTick": 82764,
        "pitch": 63,
        "velocity": 120,
        "trackId": 3,
        "channel": 0
      },
      {
        "startTick": 82750,
        "endTick": 82824,
        "pitch": 42,
        "velocity": 122,
        "trackId": 12,
        "channel": 9
      },
      {
        "startTick": 82750,
        "endTick": 83064,
        "pitch": 40,
        "velocity": 123,
        "trackId": 12,
        "channel": 9
      },
      {
        "startTick": 82752,
        "endTick": 82846,
        "pitch": 75,
        "velocity": 120,
        "trackId": 1,
        "channel": 5
      },
      {
        "startTick": 82752,
        "endTick": 82846,
        "pitch": 60,
        "velocity": 123,
        "trackId": 3,
        "channel": 0
      },
      {
        "startTick": 82752,
        "endTick": 82856,
        "pitch": 67,
        "velocity": 123,
        "trackId": 3,
        "channel": 0
      },
      {
        "startTick": 82752,
        "endTick": 82956,
        "pitch": 72,
        "velocity": 122,
        "trackId": 3,
        "channel": 0
      },
      {
        "startTick": 82846,
        "endTick": 82886,
        "pitch": 42,
        "velocity": 117,
        "trackId": 12,
        "channel": 9
      },
      {
        "startTick": 82846,
        "endTick": 82894,
        "pitch": 35,
        "velocity": 118,
        "trackId": 12,
        "channel": 9
      },
      {
        "startTick": 82846,
        "endTick": 82936,
        "pitch": 36,
        "velocity": 119,
        "trackId": 4,
        "channel": 1
      },
      {
        "startTick": 82848,
        "endTick": 82908,
        "pitch": 67,
        "velocity": 121,
        "trackId": 1,
        "channel": 5
      },
      {
        "startTick": 82848,
        "endTick": 82938,
        "pitch": 55,
        "velocity": 122,
        "trackId": 3,
        "channel": 0
      },
      {
        "startTick": 82848,
        "endTick": 82940,
        "pitch": 63,
        "velocity": 121,
        "trackId": 3,
        "channel": 0
      },
      {
        "startTick": 82896,
        "endTick": 83314,
        "pitch": 70,
        "velocity": 119,
        "trackId": 1,
        "channel": 5
      },
      {
        "startTick": 82942,
        "endTick": 82996,
        "pitch": 42,
        "velocity": 121,
        "trackId": 12,
        "channel": 9
      },
      {
        "startTick": 82942,
        "endTick": 83236,
        "pitch": 31,
        "velocity": 123,
        "trackId": 4,
        "channel": 1
      },
      {
        "startTick": 82942,
        "endTick": 83258,
        "pitch": 35,
        "velocity": 122,
        "trackId": 12,
        "channel": 9
      },
      {
        "startTick": 82944,
        "endTick": 83058,
        "pitch": 67,
        "velocity": 121,
        "trackId": 3,
        "channel": 0
      },
      {
        "startTick": 82944,
        "endTick": 83092,
        "pitch": 70,
        "velocity": 122,
        "trackId": 3,
        "channel": 0
      },
      {
        "startTick": 82944,
        "endTick": 83236,
        "pitch": 43,
        "velocity": 121,
        "trackId": 3,
        "channel": 0
      },
      {
        "startTick": 83038,
        "endTick": 83068,
        "pitch": 42,
        "velocity": 111,
        "trackId": 12,
        "channel": 9
      },
      {
        "startTick": 83040,
        "endTick": 83148,
        "pitch": 50,
        "velocity": 114,
        "trackId": 3,
        "channel": 0
      },
      {
        "startTick": 83040,
        "endTick": 83214,
        "pitch": 62,
        "velocity": 116,
        "trackId": 3,
        "channel": 0
      },
      {
        "startTick": 83134,
        "endTick": 83198,
        "pitch": 42,
        "velocity": 123,
        "trackId": 12,
        "channel": 9
      },
      {
        "startTick": 83134,
        "endTick": 83436,
        "pitch": 40,
        "velocity": 124,
        "trackId": 12,
        "channel": 9
      },
      {
        "startTick": 83136,
        "endTick": 83322,
        "pitch": 55,
        "velocity": 122,
        "trackId": 3,
        "channel": 0
      },
      {
        "startTick": 83136,
        "endTick": 83334,
        "pitch": 70,
        "velocity": 122,
        "trackId": 3,
        "channel": 0
      },
      {
        "startTick": 83136,
        "endTick": 83476,
        "pitch": 67,
        "velocity": 123,
        "trackId": 3,
        "channel": 0
      },
      {
        "startTick": 83230,
        "endTick": 83268,
        "pitch": 42,
        "velocity": 113,
        "trackId": 12,
        "channel": 9
      },
      {
        "startTick": 83230,
        "endTick": 83330,
        "pitch": 34,
        "velocity": 120,
        "trackId": 4,
        "channel": 1
      },
      {
        "startTick": 83232,
        "endTick": 83270,
        "pitch": 50,
        "velocity": 114,
        "trackId": 3,
        "channel": 0
      },
      {
        "startTick": 83232,
        "endTick": 83294,
        "pitch": 62,
        "velocity": 122,
        "trackId": 3,
        "channel": 0
      },
      {
        "startTick": 83326,
        "endTick": 83380,
        "pitch": 42,
        "velocity": 122,
        "trackId": 12,
        "channel": 9
      },
      {
        "startTick": 83326,
        "endTick": 83554,
        "pitch": 35,
        "velocity": 123,
        "trackId": 12,
        "channel": 9
      },
      {
        "startTick": 83326,
        "endTick": 83602,
        "pitch": 36,
        "velocity": 125,
        "trackId": 4,
        "channel": 1
      },
      {
        "startTick": 83328,
        "endTick": 83434,
        "pitch": 79,
        "velocity": 121,
        "trackId": 1,
        "channel": 5
      },
      {
        "startTick": 83328,
        "endTick": 83458,
        "pitch": 72,
        "velocity": 122,
        "trackId": 3,
        "channel": 0
      },
      {
        "startTick": 83328,
        "endTick": 83526,
        "pitch": 63,
        "velocity": 123,
        "trackId": 3,
        "channel": 0
      },
      {
        "startTick": 83328,
        "endTick": 83620,
        "pitch": 48,
        "velocity": 121,
        "trackId": 3,
        "channel": 0
      },
      {
        "startTick": 83422,
        "endTick": 83458,
        "pitch": 42,
        "velocity": 114,
        "trackId": 12,
        "channel": 9
      },
      {
        "startTick": 83424,
        "endTick": 83526,
        "pitch": 55,
        "velocity": 119,
        "trackId": 3,
        "channel": 0
      },
      {
        "startTick": 83424,
        "endTick": 83530,
        "pitch": 77,
        "velocity": 120,
        "trackId": 1,
        "channel": 5
      },
      {
        "startTick": 83518,
        "endTick": 83580,
        "pitch": 42,
        "velocity": 122,
        "trackId": 12,
        "channel": 9
      },
      {
        "startTick": 83518,
        "endTick": 83826,
        "pitch": 40,
        "velocity": 124,
        "trackId": 12,
        "channel": 9
      },
      {
        "startTick": 83520,
        "endTick": 83614,
        "pitch": 60,
        "velocity": 123,
        "trackId": 3,
        "channel": 0
      },
      {
        "startTick": 83520,
        "endTick": 83630,
        "pitch": 67,
        "velocity": 123,
        "trackId": 3,
        "channel": 0
      },
      {
        "startTick": 83520,
        "endTick": 83632,
        "pitch": 75,
        "velocity": 119,
        "trackId": 1,
        "channel": 5
      },
      {
        "startTick": 83520,
        "endTick": 83730,
        "pitch": 72,
        "velocity": 122,
        "trackId": 3,
        "channel": 0
      },
      {
        "startTick": 83614,
        "endTick": 83648,
        "pitch": 42,
        "velocity": 117,
        "trackId": 12,
        "channel": 9
      },
      {
        "startTick": 83614,
        "endTick": 83662,
        "pitch": 35,
        "velocity": 123,
        "trackId": 12,
        "channel": 9
      },
      {
        "startTick": 83614,
        "endTick": 83698,
        "pitch": 36,
        "velocity": 123,
        "trackId": 4,
        "channel": 1
      },
      {
        "startTick": 83616,
        "endTick": 83650,
        "pitch": 55,
        "velocity": 121,
        "trackId": 3,
        "channel": 0
      },
      {
        "startTick": 83616,
        "endTick": 83674,
        "pitch": 74,
        "velocity": 119,
        "trackId": 1,
        "channel": 5
      },
      {
        "startTick": 83616,
        "endTick": 83696,
        "pitch": 63,
        "velocity": 121,
        "trackId": 3,
        "channel": 0
      },
      {
        "startTick": 83664,
        "endTick": 84092,
        "pitch": 70,
        "velocity": 120,
        "trackId": 1,
        "channel": 5
      },
      {
        "startTick": 83710,
        "endTick": 83792,
        "pitch": 42,
        "velocity": 122,
        "trackId": 12,
        "channel": 9
      },
      {
        "startTick": 83710,
        "endTick": 83946,
        "pitch": 35,
        "velocity": 123,
        "trackId": 12,
        "channel": 9
      },
      {
        "startTick": 83710,
        "endTick": 84016,
        "pitch": 31,
        "velocity": 125,
        "trackId": 4,
        "channel": 1
      },
      {
        "startTick": 83712,
        "endTick": 83994,
        "pitch": 43,
        "velocity": 123,
        "trackId": 3,
        "channel": 0
      },
      {
        "startTick": 83712,
        "endTick": 84040,
        "pitch": 62,
        "velocity": 118,
        "trackId": 3,
        "channel": 0
      },
      {
        "startTick": 83712,
        "endTick": 84070,
        "pitch": 67,
        "velocity": 122,
        "trackId": 3,
        "channel": 0
      },
      {
        "startTick": 83712,
        "endTick": 84106,
        "pitch": 70,
        "velocity": 122,
        "trackId": 3,
        "channel": 0
      },
      {
        "startTick": 83806,
        "endTick": 83904,
        "pitch": 46,
        "velocity": 121,
        "trackId": 12,
        "channel": 9
      },
      {
        "startTick": 83902,
        "endTick": 83986,
        "pitch": 42,
        "velocity": 122,
        "trackId": 12,
        "channel": 9
      },
      {
        "startTick": 83902,
        "endTick": 89662,
        "pitch": 40,
        "velocity": 124,
        "trackId": 12,
        "channel": 9
      },
      {
        "startTick": 83998,
        "endTick": 84040,
        "pitch": 35,
        "velocity": 123,
        "trackId": 12,
        "channel": 9
      },
      {
        "startTick": 83998,
        "endTick": 84094,
        "pitch": 46,
        "velocity": 122,
        "trackId": 12,
        "channel": 9
      },
      {
        "startTick": 83998,
        "endTick": 84098,
        "pitch": 34,
        "velocity": 117,
        "trackId": 4,
        "channel": 1
      },
      {
        "startTick": 84094,
        "endTick": 84358,
        "pitch": 49,
        "velocity": 122,
        "trackId": 12,
        "channel": 9
      },
      {
        "startTick": 84094,
        "endTick": 84396,
        "pitch": 35,
        "velocity": 124,
        "trackId": 12,
        "channel": 9
      },
      {
        "startTick": 84094,
        "endTick": 84464,
        "pitch": 36,
        "velocity": 125,
        "trackId": 4,
        "channel": 1
      },
      {
        "startTick": 84096,
        "endTick": 84188,
        "pitch": 79,
        "velocity": 120,
        "trackId": 1,
        "channel": 5
      },
      {
        "startTick": 84096,
        "endTick": 84246,
        "pitch": 67,
        "velocity": 120,
        "trackId": 3,
        "channel": 0
      },
      {
        "startTick": 84096,
        "endTick": 84332,
        "pitch": 72,
        "velocity": 123,
        "trackId": 3,
        "channel": 0
      },
      {
        "startTick": 84096,
        "endTick": 84450,
        "pitch": 63,
        "velocity": 123,
        "trackId": 3,
        "channel": 0
      },
      {
        "startTick": 84096,
        "endTick": 84504,
        "pitch": 48,
        "velocity": 121,
        "trackId": 3,
        "channel": 0
      },
      {
        "startTick": 84192,
        "endTick": 84290,
        "pitch": 75,
        "velocity": 118,
        "trackId": 1,
        "channel": 5
      },
      {
        "startTick": 84288,
        "endTick": 84400,
        "pitch": 77,
        "velocity": 119,
        "trackId": 1,
        "channel": 5
      },
      {
        "startTick": 84288,
        "endTick": 84458,
        "pitch": 67,
        "velocity": 18,
        "trackId": 3,
        "channel": 0
      },
      {
        "startTick": 84384,
        "endTick": 84416,
        "pitch": 72,
        "velocity": 18,
        "trackId": 3,
        "channel": 0
      },
      {
        "startTick": 84384,
        "endTick": 84438,
        "pitch": 79,
        "velocity": 119,
        "trackId": 1,
        "channel": 5
      },
      {
        "startTick": 84432,
        "endTick": 84528,
        "pitch": 75,
        "velocity": 118,
        "trackId": 1,
        "channel": 5
      },
      {
        "startTick": 84478,
        "endTick": 85180,
        "pitch": 57,
        "velocity": 123,
        "trackId": 12,
        "channel": 9
      },
      {
        "startTick": 84478,
        "endTick": 85186,
        "pitch": 35,
        "velocity": 124,
        "trackId": 12,
        "channel": 9
      },
      {
        "startTick": 84478,
        "endTick": 85264,
        "pitch": 32,
        "velocity": 123,
        "trackId": 4,
        "channel": 1
      },
      {
        "startTick": 84480,
        "endTick": 85156,
        "pitch": 59,
        "velocity": 123,
        "trackId": 3,
        "channel": 0
      },
      {
        "startTick": 84480,
        "endTick": 85202,
        "pitch": 63,
        "velocity": 122,
        "trackId": 3,
        "channel": 0
      },
      {
        "startTick": 84480,
        "endTick": 85208,
        "pitch": 68,
        "velocity": 122,
        "trackId": 3,
        "channel": 0
      },
      {
        "startTick": 84480,
        "endTick": 85244,
        "pitch": 56,
        "velocity": 120,
        "trackId": 3,
        "channel": 0
      },
      {
        "startTick": 84480,
        "endTick": 85262,
        "pitch": 44,
        "velocity": 122,
        "trackId": 3,
        "channel": 0
      },
      {
        "startTick": 84528,
        "endTick": 85224,
        "pitch": 71,
        "velocity": 117,
        "trackId": 1,
        "channel": 5
      },
      {
        "startTick": 84862,
        "endTick": 84914,
        "pitch": 51,
        "velocity": 120,
        "trackId": 12,
        "channel": 9
      },
      {
        "startTick": 84958,
        "endTick": 85070,
        "pitch": 51,
        "velocity": 119,
        "trackId": 12,
        "channel": 9
      },
      {
        "startTick": 85102,
        "endTick": 86048,
        "pitch": 51,
        "velocity": 120,
        "trackId": 12,
        "channel": 9
      },
      {
        "startTick": 85246,
        "endTick": 85980,
        "pitch": 35,
        "velocity": 124,
        "trackId": 12,
        "channel": 9
      },
      {
        "startTick": 85246,
        "endTick": 86006,
        "pitch": 49,
        "velocity": 123,
        "trackId": 12,
        "channel": 9
      },
      {
        "startTick": 85246,
        "endTick": 86014,
        "pitch": 34,
        "velocity": 125,
        "trackId": 4,
        "channel": 1
      },
      {
        "startTick": 85248,
        "endTick": 85274,
        "pitch": 78,
        "velocity": 117,
        "trackId": 1,
        "channel": 5
      },
      {
        "startTick": 85248,
        "endTick": 85274,
        "pitch": 66,
        "velocity": 115,
        "trackId": 7,
        "channel": 6
      },
      {
        "startTick": 85248,
        "endTick": 85344,
        "pitch": 79,
        "velocity": 121,
        "trackId": 1,
        "channel": 5
      },
      {
        "startTick": 85248,
        "endTick": 85344,
        "pitch": 67,
        "velocity": 120,
        "trackId": 7,
        "channel": 6
      },
      {
        "startTick": 85248,
        "endTick": 85356,
        "pitch": 79,
        "velocity": 104,
        "trackId": 5,
        "channel": 2
      },
      {
        "startTick": 85248,
        "endTick": 85420,
        "pitch": 68,
        "velocity": 123,
        "trackId": 3,
        "channel": 0
      },
      {
        "startTick": 85248,
        "endTick": 85434,
        "pitch": 63,
        "velocity": 122,
        "trackId": 3,
        "channel": 0
      },
      {
        "startTick": 85248,
        "endTick": 85478,
        "pitch": 60,
        "velocity": 123,
        "trackId": 3,
        "channel": 0
      },
      {
        "startTick": 85248,
        "endTick": 86010,
        "pitch": 46,
        "velocity": 123,
        "trackId": 3,
        "channel": 0
      },
      {
        "startTick": 85344,
        "endTick": 85426,
        "pitch": 77,
        "velocity": 110,
        "trackId": 5,
        "channel": 2
      },
      {
        "startTick": 85344,
        "endTick": 85430,
        "pitch": 77,
        "velocity": 120,
        "trackId": 1,
        "channel": 5
      },
      {
        "startTick": 85344,
        "endTick": 85430,
        "pitch": 65,
        "velocity": 119,
        "trackId": 7,
        "channel": 6
      },
      {
        "startTick": 85440,
        "endTick": 85540,
        "pitch": 63,
        "velocity": 117,
        "trackId": 3,
        "channel": 0
      },
      {
        "startTick": 85440,
        "endTick": 85552,
        "pitch": 77,
        "velocity": 121,
        "trackId": 1,
        "channel": 5
      },
      {
        "startTick": 85440,
        "endTick": 85552,
        "pitch": 77,
        "velocity": 116,
        "trackId": 5,
        "channel": 2
      },
      {
        "startTick": 85440,
        "endTick": 85552,
        "pitch": 65,
        "velocity": 120,
        "trackId": 7,
        "channel": 6
      },
      {
        "startTick": 85440,
        "endTick": 85562,
        "pitch": 68,
        "velocity": 120,
        "trackId": 3,
        "channel": 0
      },
      {
        "startTick": 85536,
        "endTick": 85618,
        "pitch": 75,
        "velocity": 118,
        "trackId": 1,
        "channel": 5
      },
      {
        "startTick": 85536,
        "endTick": 85618,
        "pitch": 63,
        "velocity": 117,
        "trackId": 7,
        "channel": 6
      },
      {
        "startTick": 85536,
        "endTick": 85630,
        "pitch": 75,
        "velocity": 112,
        "trackId": 5,
        "channel": 2
      },
      {
        "startTick": 85536,
        "endTick": 85650,
        "pitch": 58,
        "velocity": 118,
        "trackId": 3,
        "channel": 0
      },
      {
        "startTick": 85632,
        "endTick": 85728,
        "pitch": 75,
        "velocity": 119,
        "trackId": 1,
        "channel": 5
      },
      {
        "startTick": 85632,
        "endTick": 85728,
        "pitch": 63,
        "velocity": 118,
        "trackId": 7,
        "channel": 6
      },
      {
        "startTick": 85632,
        "endTick": 85732,
        "pitch": 75,
        "velocity": 111,
        "trackId": 5,
        "channel": 2
      },
      {
        "startTick": 85632,
        "endTick": 85940,
        "pitch": 68,
        "velocity": 118,
        "trackId": 3,
        "channel": 0
      },
      {
        "startTick": 85632,
        "endTick": 85964,
        "pitch": 63,
        "velocity": 118,
        "trackId": 3,
        "channel": 0
      },
      {
        "startTick": 85632,
        "endTick": 85988,
        "pitch": 60,
        "velocity": 119,
        "trackId": 3,
        "channel": 0
      },
      {
        "startTick": 85728,
        "endTick": 85924,
        "pitch": 72,
        "velocity": 114,
        "trackId": 5,
        "channel": 2
      },
      {
        "startTick": 85728,
        "endTick": 85934,
        "pitch": 72,
        "velocity": 118,
        "trackId": 1,
        "channel": 5
      },
      {
        "startTick": 85728,
        "endTick": 85934,
        "pitch": 60,
        "velocity": 116,
        "trackId": 7,
        "channel": 6
      },
      {
        "startTick": 85776,
        "endTick": 85938,
        "pitch": 58,
        "velocity": 18,
        "trackId": 3,
        "channel": 0
      },
      {
        "startTick": 85920,
        "endTick": 86014,
        "pitch": 74,
        "velocity": 120,
        "trackId": 1,
        "channel": 5
      },
      {
        "startTick": 85920,
        "endTick": 86014,
        "pitch": 74,
        "velocity": 112,
        "trackId": 5,
        "channel": 2
      },
      {
        "startTick": 85920,
        "endTick": 86014,
        "pitch": 62,
        "velocity": 119,
        "trackId": 7,
        "channel": 6
      },
      {
        "startTick": 86014,
        "endTick": 86286,
        "pitch": 35,
        "velocity": 122,
        "trackId": 12,
        "channel": 9
      },
      {
        "startTick": 86014,
        "endTick": 87366,
        "pitch": 39,
        "velocity": 124,
        "trackId": 4,
        "channel": 1
      },
      {
        "startTick": 86014,
        "endTick": 88904,
        "pitch": 52,
        "velocity": 119,
        "trackId": 12,
        "channel": 9
      },
      {
        "startTick": 86016,
        "endTick": 86112,
        "pitch": 58,
        "velocity": 119,
        "trackId": 3,
        "channel": 0
      },
      {
        "startTick": 86016,
        "endTick": 86168,
        "pitch": 63,
        "velocity": 121,
        "trackId": 3,
        "channel": 0
      },
      {
        "startTick": 86016,
        "endTick": 86176,
        "pitch": 67,
        "velocity": 122,
        "trackId": 3,
        "channel": 0
      },
      {
        "startTick": 86016,
        "endTick": 86216,
        "pitch": 39,
        "velocity": 117,
        "trackId": 3,
        "channel": 0
      },
      {
        "startTick": 86016,
        "endTick": 86350,
        "pitch": 67,
        "velocity": 65,
        "trackId": 5,
        "channel": 2
      },
      {
        "startTick": 86016,
        "endTick": 86394,
        "pitch": 75,
        "velocity": 103,
        "trackId": 5,
        "channel": 2
      },
      {
        "startTick": 86016,
        "endTick": 87186,
        "pitch": 75,
        "velocity": 120,
        "trackId": 1,
        "channel": 5
      },
      {
        "startTick": 86016,
        "endTick": 87186,
        "pitch": 63,
        "velocity": 119,
        "trackId": 7,
        "channel": 6
      },
      {
        "startTick": 86016,
        "endTick": 87550,
        "pitch": 63,
        "velocity": 96,
        "trackId": 5,
        "channel": 2
      },
      {
        "startTick": 86112,
        "endTick": 86214,
        "pitch": 46,
        "velocity": 119,
        "trackId": 3,
        "channel": 0
      },
      {
        "startTick": 86206,
        "endTick": 86302,
        "pitch": 51,
        "velocity": 119,
        "trackId": 12,
        "channel": 9
      },
      {
        "startTick": 86208,
        "endTick": 86308,
        "pitch": 67,
        "velocity": 123,
        "trackId": 3,
        "channel": 0
      },
      {
        "startTick": 86208,
        "endTick": 86362,
        "pitch": 51,
        "velocity": 122,
        "trackId": 3,
        "channel": 0
      },
      {
        "startTick": 86302,
        "endTick": 86372,
        "pitch": 35,
        "velocity": 121,
        "trackId": 12,
        "channel": 9
      },
      {
        "startTick": 86304,
        "endTick": 86412,
        "pitch": 70,
        "velocity": 122,
        "trackId": 3,
        "channel": 0
      },
      {
        "startTick": 86398,
        "endTick": 86494,
        "pitch": 51,
        "velocity": 119,
        "trackId": 12,
        "channel": 9
      },
      {
        "startTick": 86398,
        "endTick": 86760,
        "pitch": 35,
        "velocity": 123,
        "trackId": 12,
        "channel": 9
      },
      {
        "startTick": 86400,
        "endTick": 86510,
        "pitch": 72,
        "velocity": 120,
        "trackId": 3,
        "channel": 0
      },
      {
        "startTick": 86400,
        "endTick": 86516,
        "pitch": 72,
        "velocity": 111,
        "trackId": 5,
        "channel": 2
      },
      {
        "startTick": 86400,
        "endTick": 86520,
        "pitch": 68,
        "velocity": 122,
        "trackId": 3,
        "channel": 0
      },
      {
        "startTick": 86400,
        "endTick": 86768,
        "pitch": 68,
        "velocity": 111,
        "trackId": 5,
        "channel": 2
      },
      {
        "startTick": 86400,
        "endTick": 86806,
        "pitch": 63,
        "velocity": 117,
        "trackId": 3,
        "channel": 0
      },
      {
        "startTick": 86400,
        "endTick": 86816,
        "pitch": 56,
        "velocity": 122,
        "trackId": 3,
        "channel": 0
      },
      {
        "startTick": 86496,
        "endTick": 86594,
        "pitch": 74,
        "velocity": 118,
        "trackId": 3,
        "channel": 0
      },
      {
        "startTick": 86496,
        "endTick": 86606,
        "pitch": 70,
        "velocity": 123,
        "trackId": 3,
        "channel": 0
      },
      {
        "startTick": 86496,
        "endTick": 86642,
        "pitch": 74,
        "velocity": 110,
        "trackId": 5,
        "channel": 2
      },
      {
        "startTick": 86590,
        "endTick": 86686,
        "pitch": 51,
        "velocity": 119,
        "trackId": 12,
        "channel": 9
      },
      {
        "startTick": 86592,
        "endTick": 86694,
        "pitch": 72,
        "velocity": 110,
        "trackId": 5,
        "channel": 2
      },
      {
        "startTick": 86592,
        "endTick": 86752,
        "pitch": 68,
        "velocity": 120,
        "trackId": 3,
        "channel": 0
      },
      {
        "startTick": 86592,
        "endTick": 86782,
        "pitch": 72,
        "velocity": 121,
        "trackId": 3,
        "channel": 0
      },
      {
        "startTick": 86688,
        "endTick": 86782,
        "pitch": 74,
        "velocity": 89,
        "trackId": 5,
        "channel": 2
      },
      {
        "startTick": 86688,
        "endTick": 86792,
        "pitch": 74,
        "velocity": 118,
        "trackId": 3,
        "channel": 0
      },
      {
        "startTick": 86782,
        "endTick": 86878,
        "pitch": 51,
        "velocity": 119,
        "trackId": 12,
        "channel": 9
      },
      {
        "startTick": 86782,
        "endTick": 87064,
        "pitch": 35,
        "velocity": 122,
        "trackId": 12,
        "channel": 9
      },
      {
        "startTick": 86784,
        "endTick": 86908,
        "pitch": 67,
        "velocity": 122,
        "trackId": 3,
        "channel": 0
      },
      {
        "startTick": 86784,
        "endTick": 86914,
        "pitch": 70,
        "velocity": 121,
        "trackId": 3,
        "channel": 0
      },
      {
        "startTick": 86784,
        "endTick": 87168,
        "pitch": 55,
        "velocity": 117,
        "trackId": 3,
        "channel": 0
      },
      {
        "startTick": 86784,
        "endTick": 87168,
        "pitch": 70,
        "velocity": 101,
        "trackId": 5,
        "channel": 2
      },
      {
        "startTick": 86784,
        "endTick": 87180,
        "pitch": 67,
        "velocity": 96,
        "trackId": 5,
        "channel": 2
      },
      {
        "startTick": 86880,
        "endTick": 87132,
        "pitch": 63,
        "velocity": 121,
        "trackId": 3,
        "channel": 0
      },
      {
        "startTick": 86974,
        "endTick": 87086,
        "pitch": 51,
        "velocity": 119,
        "trackId": 12,
        "channel": 9
      },
      {
        "startTick": 86976,
        "endTick": 87068,
        "pitch": 67,
        "velocity": 121,
        "trackId": 3,
        "channel": 0
      },
      {
        "startTick": 87070,
        "endTick": 87140,
        "pitch": 35,
        "velocity": 117,
        "trackId": 12,
        "channel": 9
      },
      {
        "startTick": 87072,
        "endTick": 87168,
        "pitch": 70,
        "velocity": 120,
        "trackId": 3,
        "channel": 0
      },
      {
        "startTick": 87166,
        "endTick": 87288,
        "pitch": 51,
        "velocity": 120,
        "trackId": 12,
        "channel": 9
      },
      {
        "startTick": 87166,
        "endTick": 87518,
        "pitch": 35,
        "velocity": 122,
        "trackId": 12,
        "channel": 9
      },
      {
        "startTick": 87168,
        "endTick": 87278,
        "pitch": 72,
        "velocity": 119,
        "trackId": 3,
        "channel": 0
      },
      {
        "startTick": 87168,
        "endTick": 87286,
        "pitch": 72,
        "velocity": 103,
        "trackId": 5,
        "channel": 2
      },
      {
        "startTick": 87168,
        "endTick": 87466,
        "pitch": 69,
        "velocity": 122,
        "trackId": 3,
        "channel": 0
      },
      {
        "startTick": 87168,
        "endTick": 87476,
        "pitch": 66,
        "velocity": 122,
        "trackId": 3,
        "channel": 0
      },
      {
        "startTick": 87168,
        "endTick": 87566,
        "pitch": 54,
        "velocity": 121,
        "trackId": 3,
        "channel": 0
      },
      {
        "startTick": 87168,
        "endTick": 87574,
        "pitch": 66,
        "velocity": 110,
        "trackId": 5,
        "channel": 2
      },
      {
        "startTick": 87264,
        "endTick": 87352,
        "pitch": 74,
        "velocity": 112,
        "trackId": 5,
        "channel": 2
      },
      {
        "startTick": 87264,
        "endTick": 87358,
        "pitch": 74,
        "velocity": 117,
        "trackId": 3,
        "channel": 0
      },
      {
        "startTick": 87358,
        "endTick": 87508,
        "pitch": 51,
        "velocity": 119,
        "trackId": 12,
        "channel": 9
      },
      {
        "startTick": 87360,
        "endTick": 87468,
        "pitch": 72,
        "velocity": 117,
        "trackId": 3,
        "channel": 0
      },
      {
        "startTick": 87360,
        "endTick": 87490,
        "pitch": 72,
        "velocity": 108,
        "trackId": 5,
        "channel": 2
      },
      {
        "startTick": 87456,
        "endTick": 87556,
        "pitch": 74,
        "velocity": 118,
        "trackId": 3,
        "channel": 0
      },
      {
        "startTick": 87456,
        "endTick": 87946,
        "pitch": 74,
        "velocity": 100,
        "trackId": 5,
        "channel": 2
      },
      {
        "startTick": 87550,
        "endTick": 87682,
        "pitch": 51,
        "velocity": 119,
        "trackId": 12,
        "channel": 9
      },
      {
        "startTick": 87550,
        "endTick": 87924,
        "pitch": 35,
        "velocity": 121,
        "trackId": 12,
        "channel": 9
      },
      {
        "startTick": 87552,
        "endTick": 87562,
        "pitch": 62,
        "velocity": 113,
        "trackId": 5,
        "channel": 2
      },
      {
        "startTick": 87552,
        "endTick": 87658,
        "pitch": 65,
        "velocity": 121,
        "trackId": 3,
        "channel": 0
      },
      {
        "startTick": 87552,
        "endTick": 87766,
        "pitch": 70,
        "velocity": 122,
        "trackId": 3,
        "channel": 0
      },
      {
        "startTick": 87552,
        "endTick": 87918,
        "pitch": 70,
        "velocity": 106,
        "trackId": 5,
        "channel": 2
      },
      {
        "startTick": 87552,
        "endTick": 88274,
        "pitch": 65,
        "velocity": 71,
        "trackId": 5,
        "channel": 2
      },
      {
        "startTick": 87552,
        "endTick": 88336,
        "pitch": 53,
        "velocity": 120,
        "trackId": 3,
        "channel": 0
      },
      {
        "startTick": 87648,
        "endTick": 87824,
        "pitch": 62,
        "velocity": 122,
        "trackId": 3,
        "channel": 0
      },
      {
        "startTick": 87742,
        "endTick": 87866,
        "pitch": 51,
        "velocity": 119,
        "trackId": 12,
        "channel": 9
      },
      {
        "startTick": 87744,
        "endTick": 87898,
        "pitch": 65,
        "velocity": 116,
        "trackId": 3,
        "channel": 0
      },
      {
        "startTick": 87840,
        "endTick": 87910,
        "pitch": 70,
        "velocity": 120,
        "trackId": 3,
        "channel": 0
      },
      {
        "startTick": 87934,
        "endTick": 88060,
        "pitch": 51,
        "velocity": 120,
        "trackId": 12,
        "channel": 9
      },
      {
        "startTick": 87934,
        "endTick": 88178,
        "pitch": 35,
        "velocity": 120,
        "trackId": 12,
        "channel": 9
      },
      {
        "startTick": 87936,
        "endTick": 88046,
        "pitch": 70,
        "velocity": 110,
        "trackId": 5,
        "channel": 2
      },
      {
        "startTick": 87936,
        "endTick": 88054,
        "pitch": 70,
        "velocity": 123,
        "trackId": 3,
        "channel": 0
      },
      {
        "startTick": 87936,
        "endTick": 88224,
        "pitch": 65,
        "velocity": 122,
        "trackId": 3,
        "channel": 0
      },
      {
        "startTick": 87936,
        "endTick": 88254,
        "pitch": 61,
        "velocity": 121,
        "trackId": 3,
        "channel": 0
      },
      {
        "startTick": 87936,
        "endTick": 88334,
        "pitch": 61,
        "velocity": 116,
        "trackId": 5,
        "channel": 2
      },
      {
        "startTick": 88032,
        "endTick": 88100,
        "pitch": 68,
        "velocity": 118,
        "trackId": 3,
        "channel": 0
      },
      {
        "startTick": 88032,
        "endTick": 88120,
        "pitch": 68,
        "velocity": 112,
        "trackId": 5,
        "channel": 2
      },
      {
        "startTick": 88126,
        "endTick": 88238,
        "pitch": 51,
        "velocity": 118,
        "trackId": 12,
        "channel": 9
      },
      {
        "startTick": 88128,
        "endTick": 88206,
        "pitch": 68,
        "velocity": 116,
        "trackId": 5,
        "channel": 2
      },
      {
        "startTick": 88128,
        "endTick": 88226,
        "pitch": 68,
        "velocity": 121,
        "trackId": 3,
        "channel": 0
      },
      {
        "startTick": 88222,
        "endTick": 88294,
        "pitch": 35,
        "velocity": 118,
        "trackId": 12,
        "channel": 9
      },
      {
        "startTick": 88224,
        "endTick": 88276,
        "pitch": 67,
        "velocity": 117,
        "trackId": 3,
        "channel": 0
      },
      {
        "startTick": 88224,
        "endTick": 88804,
        "pitch": 67,
        "velocity": 114,
        "trackId": 5,
        "channel": 2
      },
      {
        "startTick": 88318,
        "endTick": 88442,
        "pitch": 51,
        "velocity": 118,
        "trackId": 12,
        "channel": 9
      },
      {
        "startTick": 88318,
        "endTick": 89784,
        "pitch": 35,
        "velocity": 121,
        "trackId": 12,
        "channel": 9
      },
      {
        "startTick": 88320,
        "endTick": 88394,
        "pitch": 60,
        "velocity": 117,
        "trackId": 3,
        "channel": 0
      },
      {
        "startTick": 88320,
        "endTick": 88446,
        "pitch": 64,
        "velocity": 115,
        "trackId": 3,
        "channel": 0
      },
      {
        "startTick": 88320,
        "endTick": 88530,
        "pitch": 67,
        "velocity": 121,
        "trackId": 3,
        "channel": 0
      },
      {
        "startTick": 88320,
        "endTick": 88718,
        "pitch": 64,
        "velocity": 106,
        "trackId": 5,
        "channel": 2
      },
      {
        "startTick": 88320,
        "endTick": 88970,
        "pitch": 52,
        "velocity": 115,
        "trackId": 3,
        "channel": 0
      },
      {
        "startTick": 88320,
        "endTick": 89194,
        "pitch": 60,
        "velocity": 111,
        "trackId": 5,
        "channel": 2
      },
      {
        "startTick": 88416,
        "endTick": 89032,
        "pitch": 60,
        "velocity": 114,
        "trackId": 3,
        "channel": 0
      },
      {
        "startTick": 88510,
        "endTick": 88630,
        "pitch": 51,
        "velocity": 118,
        "trackId": 12,
        "channel": 9
      },
      {
        "startTick": 88512,
        "endTick": 89096,
        "pitch": 64,
        "velocity": 122,
        "trackId": 3,
        "channel": 0
      },
      {
        "startTick": 88606,
        "endTick": 88670,
        "pitch": 46,
        "velocity": 112,
        "trackId": 4,
        "channel": 1
      },
      {
        "startTick": 88608,
        "endTick": 88662,
        "pitch": 70,
        "velocity": 117,
        "trackId": 3,
        "channel": 0
      },
      {
        "startTick": 88702,
        "endTick": 88810,
        "pitch": 51,
        "velocity": 118,
        "trackId": 12,
        "channel": 9
      },
      {
        "startTick": 88702,
        "endTick": 88812,
        "pitch": 46,
        "velocity": 114,
        "trackId": 4,
        "channel": 1
      },
      {
        "startTick": 88704,
        "endTick": 88812,
        "pitch": 70,
        "velocity": 101,
        "trackId": 5,
        "channel": 2
      },
      {
        "startTick": 88704,
        "endTick": 88820,
        "pitch": 70,
        "velocity": 120,
        "trackId": 3,
        "channel": 0
      },
      {
        "startTick": 88798,
        "endTick": 89008,
        "pitch": 44,
        "velocity": 118,
        "trackId": 4,
        "channel": 1
      },
      {
        "startTick": 88800,
        "endTick": 88864,
        "pitch": 68,
        "velocity": 118,
        "trackId": 3,
        "channel": 0
      },
      {
        "startTick": 88800,
        "endTick": 88892,
        "pitch": 68,
        "velocity": 113,
        "trackId": 5,
        "channel": 2
      },
      {
        "startTick": 88894,
        "endTick": 89036,
        "pitch": 51,
        "velocity": 119,
        "trackId": 12,
        "channel": 9
      },
      {
        "startTick": 88896,
        "endTick": 88966,
        "pitch": 68,
        "velocity": 115,
        "trackId": 3,
        "channel": 0
      },
      {
        "startTick": 88896,
        "endTick": 88990,
        "pitch": 68,
        "velocity": 117,
        "trackId": 5,
        "channel": 2
      },
      {
        "startTick": 88990,
        "endTick": 89058,
        "pitch": 43,
        "velocity": 119,
        "trackId": 4,
        "channel": 1
      },
      {
        "startTick": 88992,
        "endTick": 89060,
        "pitch": 67,
        "velocity": 115,
        "trackId": 3,
        "channel": 0
      },
      {
        "startTick": 88992,
        "endTick": 89072,
        "pitch": 67,
        "velocity": 117,
        "trackId": 5,
        "channel": 2
      },
      {
        "startTick": 89086,
        "endTick": 89182,
        "pitch": 43,
        "velocity": 120,
        "trackId": 4,
        "channel": 1
      },
      {
        "startTick": 89086,
        "endTick": 89242,
        "pitch": 51,
        "velocity": 118,
        "trackId": 12,
        "channel": 9
      },
      {
        "startTick": 89088,
        "endTick": 89184,
        "pitch": 60,
        "velocity": 121,
        "trackId": 3,
        "channel": 0
      },
      {
        "startTick": 89088,
        "endTick": 89188,
        "pitch": 36,
        "velocity": 123,
        "trackId": 3,
        "channel": 0
      },
      {
        "startTick": 89088,
        "endTick": 89472,
        "pitch": 48,
        "velocity": 120,
        "trackId": 3,
        "channel": 0
      },
      {
        "startTick": 89088,
        "endTick": 89484,
        "pitch": 67,
        "velocity": 116,
        "trackId": 5,
        "channel": 2
      },
      {
        "startTick": 89088,
        "endTick": 89662,
        "pitch": 67,
        "velocity": 123,
        "trackId": 3,
        "channel": 0
      },
      {
        "startTick": 89182,
        "endTick": 89260,
        "pitch": 40,
        "velocity": 119,
        "trackId": 4,
        "channel": 1
      },
      {
        "startTick": 89184,
        "endTick": 89288,
        "pitch": 64,
        "velocity": 122,
        "trackId": 3,
        "channel": 0
      },
      {
        "startTick": 89184,
        "endTick": 89300,
        "pitch": 64,
        "velocity": 114,
        "trackId": 5,
        "channel": 2
      },
      {
        "startTick": 89278,
        "endTick": 89378,
        "pitch": 36,
        "velocity": 120,
        "trackId": 4,
        "channel": 1
      },
      {
        "startTick": 89278,
        "endTick": 89488,
        "pitch": 51,
        "velocity": 108,
        "trackId": 12,
        "channel": 9
      },
      {
        "startTick": 89280,
        "endTick": 89450,
        "pitch": 60,
        "velocity": 101,
        "trackId": 3,
        "channel": 0
      },
      {
        "startTick": 89280,
        "endTick": 89854,
        "pitch": 60,
        "velocity": 108,
        "trackId": 5,
        "channel": 2
      },
      {
        "startTick": 89374,
        "endTick": 89478,
        "pitch": 34,
        "velocity": 120,
        "trackId": 4,
        "channel": 1
      },
      {
        "startTick": 89376,
        "endTick": 89462,
        "pitch": 58,
        "velocity": 122,
        "trackId": 3,
        "channel": 0
      },
      {
        "startTick": 89376,
        "endTick": 89480,
        "pitch": 58,
        "velocity": 108,
        "trackId": 5,
        "channel": 2
      },
      {
        "startTick": 89470,
        "endTick": 89838,
        "pitch": 33,
        "velocity": 120,
        "trackId": 4,
        "channel": 1
      },
      {
        "startTick": 89470,
        "endTick": 89872,
        "pitch": 49,
        "velocity": 117,
        "trackId": 12,
        "channel": 9
      },
      {
        "startTick": 89472,
        "endTick": 89568,
        "pitch": 53,
        "velocity": 123,
        "trackId": 3,
        "channel": 0
      },
      {
        "startTick": 89472,
        "endTick": 89568,
        "pitch": 57,
        "velocity": 123,
        "trackId": 3,
        "channel": 0
      },
      {
        "startTick": 89472,
        "endTick": 89568,
        "pitch": 60,
        "velocity": 123,
        "trackId": 3,
        "channel": 0
      },
      {
        "startTick": 89472,
        "endTick": 89568,
        "pitch": 65,
        "velocity": 123,
        "trackId": 3,
        "channel": 0
      },
      {
        "startTick": 89472,
        "endTick": 89880,
        "pitch": 57,
        "velocity": 111,
        "trackId": 5,
        "channel": 2
      },
      {
        "startTick": 89472,
        "endTick": 92300,
        "pitch": 65,
        "velocity": 106,
        "trackId": 5,
        "channel": 2
      },
      {
        "startTick": 89560,
        "endTick": 89660,
        "pitch": 48,
        "velocity": 115,
        "trackId": 3,
        "channel": 0
      },
      {
        "startTick": 89660,
        "endTick": 89790,
        "pitch": 53,
        "velocity": 120,
        "trackId": 3,
        "channel": 0
      },
      {
        "startTick": 89664,
        "endTick": 89866,
        "pitch": 65,
        "velocity": 120,
        "trackId": 3,
        "channel": 0
      },
      {
        "startTick": 89770,
        "endTick": 89876,
        "pitch": 48,
        "velocity": 102,
        "trackId": 3,
        "channel": 0
      },
      {
        "startTick": 89856,
        "endTick": 89882,
        "pitch": 60,
        "velocity": 18,
        "trackId": 5,
        "channel": 2
      },
      {
        "startTick": 89856,
        "endTick": 90028,
        "pitch": 58,
        "velocity": 107,
        "trackId": 5,
        "channel": 2
      },
      {
        "startTick": 89862,
        "endTick": 89982,
        "pitch": 62,
        "velocity": 118,
        "trackId": 3,
        "channel": 0
      },
      {
        "startTick": 89864,
        "endTick": 90090,
        "pitch": 58,
        "velocity": 122,
        "trackId": 3,
        "channel": 0
      },
      {
        "startTick": 89864,
        "endTick": 90092,
        "pitch": 46,
        "velocity": 119,
        "trackId": 3,
        "channel": 0
      },
      {
        "startTick": 89864,
        "endTick": 91342,
        "pitch": 53,
        "velocity": 117,
        "trackId": 3,
        "channel": 0
      },
      {
        "startTick": 89992,
        "endTick": 90086,
        "pitch": 62,
        "velocity": 105,
        "trackId": 3,
        "channel": 0
      },
      {
        "startTick": 90048,
        "endTick": 90298,
        "pitch": 57,
        "velocity": 110,
        "trackId": 5,
        "channel": 2
      },
      {
        "startTick": 90078,
        "endTick": 90168,
        "pitch": 57,
        "velocity": 109,
        "trackId": 3,
        "channel": 0
      },
      {
        "startTick": 90080,
        "endTick": 90186,
        "pitch": 60,
        "velocity": 121,
        "trackId": 3,
        "channel": 0
      },
      {
        "startTick": 90082,
        "endTick": 90342,
        "pitch": 45,
        "velocity": 120,
        "trackId": 3,
        "channel": 0
      },
      {
        "startTick": 90206,
        "endTick": 90320,
        "pitch": 60,
        "velocity": 119,
        "trackId": 3,
        "channel": 0
      },
      {
        "startTick": 90208,
        "endTick": 90296,
        "pitch": 57,
        "velocity": 119,
        "trackId": 3,
        "channel": 0
      },
      {
        "startTick": 90288,
        "endTick": 90628,
        "pitch": 56,
        "velocity": 106,
        "trackId": 5,
        "channel": 2
      },
      {
        "startTick": 90328,
        "endTick": 90654,
        "pitch": 59,
        "velocity": 114,
        "trackId": 3,
        "channel": 0
      },
      {
        "startTick": 90330,
        "endTick": 90706,
        "pitch": 44,
        "velocity": 117,
        "trackId": 3,
        "channel": 0
      },
      {
        "startTick": 90332,
        "endTick": 90676,
        "pitch": 56,
        "velocity": 122,
        "trackId": 3,
        "channel": 0
      },
      {
        "startTick": 90494,
        "endTick": 90728,
        "pitch": 65,
        "velocity": 119,
        "trackId": 3,
        "channel": 0
      },
      {
        "startTick": 90624,
        "endTick": 91180,
        "pitch": 55,
        "velocity": 89,
        "trackId": 5,
        "channel": 2
      },
      {
        "startTick": 90624,
        "endTick": 91342,
        "pitch": 62,
        "velocity": 76,
        "trackId": 5,
        "channel": 2
      },
      {
        "startTick": 90680,
        "endTick": 91344,
        "pitch": 55,
        "velocity": 115,
        "trackId": 3,
        "channel": 0
      },
      {
        "startTick": 90682,
        "endTick": 91348,
        "pitch": 58,
        "velocity": 122,
        "trackId": 3,
        "channel": 0
      },
      {
        "startTick": 90682,
        "endTick": 91354,
        "pitch": 43,
        "velocity": 122,
        "trackId": 3,
        "channel": 0
      },
      {
        "startTick": 90906,
        "endTick": 91342,
        "pitch": 65,
        "velocity": 119,
        "trackId": 3,
        "channel": 0
      },
      {
        "startTick": 91248,
        "endTick": 92282,
        "pitch": 41,
        "velocity": 18,
        "trackId": 5,
        "channel": 2
      },
      {
        "startTick": 91248,
        "endTick": 92298,
        "pitch": 53,
        "velocity": 18,
        "trackId": 5,
        "channel": 2
      },
      {
        "startTick": 91248,
        "endTick": 92308,
        "pitch": 57,
        "velocity": 18,
        "trackId": 5,
        "channel": 2
      },
      {
        "startTick": 91344,
        "endTick": 92496,
        "pitch": 41,
        "velocity": 122,
        "trackId": 3,
        "channel": 0
      },
      {
        "startTick": 91356,
        "endTick": 92556,
        "pitch": 53,
        "velocity": 122,
        "trackId": 3,
        "channel": 0
      },
      {
        "startTick": 91368,
        "endTick": 92568,
        "pitch": 57,
        "velocity": 122,
        "trackId": 3,
        "channel": 0
      },
      {
        "startTick": 91380,
        "endTick": 92532,
        "pitch": 60,
        "velocity": 122,
        "trackId": 3,
        "channel": 0
      },
      {
        "startTick": 91392,
        "endTick": 92640,
        "pitch": 65,
        "velocity": 123,
        "trackId": 3,
        "channel": 0
      }
    ],
    "x0": 150,
    "x1": 21995.25
  },
  "tempoMap": [
    {
      "startColumn": 0,
      "bpm": 78
    },
    {
      "startColumn": 297,
      "bpm": 154
    },
    {
      "startColumn": 356,
      "bpm": 78
    }
  ],
  "audioQualityMode": "balanced",
  "gridColumns": 1317,
  "notes": [
    554.3652619537442,
    349.2282314330039,
    415.3046975799451,
    466.1637615180899,
    415.3046975799451,
    466.1637615180899,
    554.3652619537442,
    349.2282314330039,
    554.3652619537442,
    415.3046975799451,
    391.99543598174927,
    466.1637615180899,
    523.2511306011972,
    311.1269837220809,
    415.3046975799451,
    466.1637615180899,
    415.3046975799451,
    349.2282314330039,
    349.2282314330039,
    349.2282314330039,
    391.99543598174927,
    174.61411571650194,
    174.61411571650194,
    174.61411571650194,
    116.54094037952248,
    138.59131548843604,
    138.59131548843604,
    138.59131548843604,
    138.59131548843604,
    138.59131548843604,
    138.59131548843604,
    138.59131548843604,
    138.59131548843604,
    155.56349186104046,
    155.56349186104046,
    155.56349186104046,
    155.56349186104046,
    155.56349186104046,
    415.3046975799451,
    155.56349186104046,
    369.9944227116344,
    311.1269837220809,
    369.9944227116344,
    277.1826309768721,
    415.3046975799451,
    493.8833012561241,
    369.9944227116344,
    164.81377845643496,
    174.61411571650194,
    155.56349186104046,
    391.99543598174927,
    233.08188075904496,
    466.1637615180899,
    233.08188075904496,
    138.59131548843604,
    220,
    440,
    311.1269837220809,
    311.1269837220809,
    523.2511306011972,
    220,
    116.54094037952248,
    116.54094037952248,
    116.54094037952248,
    116.54094037952248,
    116.54094037952248,
    116.54094037952248,
    116.54094037952248,
    116.54094037952248,
    116.54094037952248,
    116.54094037952248,
    116.54094037952248,
    116.54094037952248,
    293.6647679174076,
    97.99885899543733,
    97.99885899543733,
    587.3295358348151,
    311.1269837220809,
    130.8127826502993,
    130.8127826502993,
    130.8127826502993,
    65.40639132514966,
    130.8127826502993,
    440,
    174.61411571650194,
    293.6647679174076,
    587.3295358348151,
    116.54094037952248,
    698.4564628660078,
    293.6647679174076,
    233.08188075904496,
    233.08188075904496,
    739.9888454232688,
    261.6255653005986,
    130.8127826502993,
    116.54094037952248,
    587.3295358348151,
    523.2511306011972,
    523.2511306011972,
    233.08188075904496,
    207.65234878997256,
    77.78174593052023,
    138.59131548843604,
    77.78174593052023,
    58.27047018976124,
    65.40639132514966,
    138.59131548843604,
    65.40639132514966,
    48.999429497718666,
    43.653528929125486,
    43.653528929125486,
    77.78174593052023,
    73.41619197935188,
    58.27047018976124,
    82.4068892282175,
    61.7354126570155,
    65.40639132514966,
    77.78174593052023,
    138.59131548843604,
    138.59131548843604,
    82.4068892282175,
    65.40639132514966,
    65.40639132514966,
    51.91308719749314,
    51.91308719749314,
    77.78174593052023,
    77.78174593052023,
    77.78174593052023,
    77.78174593052023,
    77.78174593052023,
    77.78174593052023,
    58.27047018976124,
    138.59131548843604,
    138.59131548843604,
    138.59131548843604,
    58.27047018976124,
    82.4068892282175,
    58.27047018976124,
    82.4068892282175,
    58.27047018976124,
    82.4068892282175,
    58.27047018976124,
    58.27047018976124,
    48.999429497718666,
    82.4068892282175,
    82.4068892282175,
    48.999429497718666,
    82.4068892282175,
    82.4068892282175,
    65.40639132514966,
    65.40639132514966,
    65.40639132514966,
    65.40639132514966,
    43.653528929125486,
    43.653528929125486,
    58.27047018976124,
    58.27047018976124,
    58.27047018976124,
    58.27047018976124,
    48.999429497718666,
    58.27047018976124,
    97.99885899543733,
    97.99885899543733,
    82.4068892282175,
    65.40639132514966,
    58.27047018976124,
    55,
    51.91308719749314,
    51.91308719749314,
    138.59131548843604,
    138.59131548843604,
    77.78174593052023,
    138.59131548843604,
    138.59131548843604,
    138.59131548843604,
    138.59131548843604,
    138.59131548843604,
    138.59131548843604,
    138.59131548843604,
    138.59131548843604,
    138.59131548843604,
    77.78174593052023,
    73.41619197935188,
    58.27047018976124,
    138.59131548843604,
    58.27047018976124,
    138.59131548843604,
    138.59131548843604,
    138.59131548843604,
    138.59131548843604,
    138.59131548843604,
    138.59131548843604,
    138.59131548843604,
    138.59131548843604,
    138.59131548843604,
    138.59131548843604,
    138.59131548843604,
    138.59131548843604,
    138.59131548843604,
    73.41619197935188,
    58.27047018976124,
    138.59131548843604,
    138.59131548843604,
    138.59131548843604,
    138.59131548843604,
    138.59131548843604,
    73.41619197935188,
    73.41619197935188,
    65.40639132514966,
    138.59131548843604,
    138.59131548843604,
    138.59131548843604,
    138.59131548843604,
    138.59131548843604,
    77.78174593052023,
    73.41619197935188,
    69.29565774421802,
    65.40639132514966,
    61.7354126570155,
    58.27047018976124,
    138.59131548843604,
    138.59131548843604,
    138.59131548843604,
    138.59131548843604,
    138.59131548843604,
    138.59131548843604,
    138.59131548843604,
    138.59131548843604,
    69.29565774421802,
    69.29565774421802,
    138.59131548843604,
    138.59131548843604,
    48.999429497718666,
    138.59131548843604,
    48.999429497718666,
    36.70809598967594,
    138.59131548843604,
    138.59131548843604,
    138.59131548843604,
    138.59131548843604,
    138.59131548843604,
    138.59131548843604,
    138.59131548843604,
    138.59131548843604,
    138.59131548843604,
    138.59131548843604,
    138.59131548843604,
    138.59131548843604,
    138.59131548843604,
    43.653528929125486,
    43.653528929125486,
    138.59131548843604,
    138.59131548843604,
    58.27047018976124,
    55,
    48.999429497718666,
    65.40639132514966,
    138.59131548843604,
    138.59131548843604,
    138.59131548843604,
    138.59131548843604,
    138.59131548843604,
    138.59131548843604,
    43.653528929125486,
    87.30705785825097,
    138.59131548843604,
    138.59131548843604,
    87.30705785825097,
    43.653528929125486,
    87.30705785825097,
    138.59131548843604,
    138.59131548843604,
    43.653528929125486,
    138.59131548843604,
    87.30705785825097,
    138.59131548843604,
    138.59131548843604,
    138.59131548843604,
    138.59131548843604,
    97.99885899543733,
    73.41619197935188,
    51.91308719749314,
    138.59131548843604,
    138.59131548843604,
    138.59131548843604,
    138.59131548843604,
    138.59131548843604,
    138.59131548843604,
    138.59131548843604,
    195.99771799087463,
    138.59131548843604,
    138.59131548843604,
    138.59131548843604,
    138.59131548843604,
    138.59131548843604,
    138.59131548843604,
    138.59131548843604,
    138.59131548843604,
    138.59131548843604,
    138.59131548843604,
    138.59131548843604,
    138.59131548843604,
    138.59131548843604,
    138.59131548843604,
    138.59131548843604,
    97.99885899543733,
    138.59131548843604,
    138.59131548843604,
    138.59131548843604,
    138.59131548843604,
    43.653528929125486,
    138.59131548843604,
    138.59131548843604,
    138.59131548843604,
    77.78174593052023,
    138.59131548843604,
    138.59131548843604,
    138.59131548843604,
    138.59131548843604,
    138.59131548843604,
    138.59131548843604,
    138.59131548843604,
    138.59131548843604,
    138.59131548843604,
    138.59131548843604,
    138.59131548843604,
    138.59131548843604,
    138.59131548843604,
    138.59131548843604,
    138.59131548843604,
    48.999429497718666,
    138.59131548843604,
    48.999429497718666,
    138.59131548843604,
    138.59131548843604,
    138.59131548843604,
    138.59131548843604,
    138.59131548843604,
    138.59131548843604,
    138.59131548843604,
    138.59131548843604,
    138.59131548843604,
    138.59131548843604,
    116.54094037952248,
    61.7354126570155,
    61.7354126570155,
    51.91308719749314,
    51.91308719749314,
    58.27047018976124,
    58.27047018976124,
    58.27047018976124,
    58.27047018976124,
    138.59131548843604,
    138.59131548843604,
    138.59131548843604,
    138.59131548843604,
    77.78174593052023,
    138.59131548843604,
    73.41619197935188,
    138.59131548843604,
    65.40639132514966,
    138.59131548843604,
    48.999429497718666,
    65.40639132514966,
    195.99771799087463,
    65.40639132514966,
    58.27047018976124,
    77.78174593052023,
    73.41619197935188,
    58.27047018976124,
    48.999429497718666,
    97.99885899543733,
    51.91308719749314,
    51.91308719749314,
    77.78174593052023,
    77.78174593052023,
    138.59131548843604,
    138.59131548843604,
    138.59131548843604,
    138.59131548843604,
    65.40639132514966,
    65.40639132514966,
    48.999429497718666,
    48.999429497718666,
    65.40639132514966,
    65.40639132514966,
    138.59131548843604,
    138.59131548843604,
    138.59131548843604,
    138.59131548843604,
    58.27047018976124,
    58.27047018976124,
    58.27047018976124,
    58.27047018976124,
    138.59131548843604,
    138.59131548843604,
    138.59131548843604,
    138.59131548843604,
    138.59131548843604,
    138.59131548843604,
    138.59131548843604,
    138.59131548843604,
    138.59131548843604,
    138.59131548843604,
    138.59131548843604,
    138.59131548843604,
    138.59131548843604,
    138.59131548843604,
    138.59131548843604,
    138.59131548843604,
    138.59131548843604,
    138.59131548843604,
    138.59131548843604,
    138.59131548843604,
    138.59131548843604,
    138.59131548843604,
    138.59131548843604,
    138.59131548843604,
    138.59131548843604,
    138.59131548843604,
    138.59131548843604,
    138.59131548843604,
    138.59131548843604,
    138.59131548843604,
    138.59131548843604,
    138.59131548843604,
    138.59131548843604,
    138.59131548843604,
    138.59131548843604,
    138.59131548843604,
    138.59131548843604,
    174.61411571650194,
    116.54094037952248,
    58.27047018976124,
    233.08188075904496,
    293.6647679174076,
    523.2511306011972,
    587.3295358348151,
    174.61411571650194,
    233.08188075904496,
    293.6647679174076,
    391.99543598174927,
    783.9908719634985,
    174.61411571650194,
    349.2282314330039,
    698.4564628660078,
    466.1637615180899,
    174.61411571650194,
    293.6647679174076,
    523.2511306011972,
    97.99885899543733,
    233.08188075904496,
    587.3295358348151,
    195.99771799087463,
    554.3652619537442,
    233.08188075904496,
    293.6647679174076,
    440,
    880,
    195.99771799087463,
    391.99543598174927,
    783.9908719634985,
    587.3295358348151,
    293.6647679174076,
    261.6255653005986,
    622.2539674441618,
    311.1269837220809,
    130.8127826502993,
    65.40639132514966,
    698.4564628660078,
    261.6255653005986,
    622.2539674441618,
    311.1269837220809,
    587.3295358348151,
    391.99543598174927,
    523.2511306011972,
    587.3295358348151,
    1174.6590716696303,
    261.6255653005986,
    523.2511306011972,
    1046.5022612023945,
    311.1269837220809,
    523.2511306011972,
    587.3295358348151,
    65.40639132514966,
    391.99543598174927,
    130.8127826502993,
    622.2539674441618,
    698.4564628660078,
    261.6255653005986,
    622.2539674441618,
    65.40639132514966,
    311.1269837220809,
    587.3295358348151,
    523.2511306011972,
    391.99543598174927,
    440,
    174.61411571650194,
    87.30705785825097,
    311.1269837220809,
    349.2282314330039,
    523.2511306011972,
    587.3295358348151,
    554.3652619537442,
    293.6647679174076,
    116.54094037952248,
    233.08188075904496,
    587.3295358348151,
    174.61411571650194,
    233.08188075904496,
    523.2511306011972,
    293.6647679174076,
    466.1637615180899,
    391.99543598174927,
    523.2511306011972,
    783.9908719634985,
    587.3295358348151,
    174.61411571650194,
    349.2282314330039,
    698.4564628660078,
    698.4564628660078,
    174.61411571650194,
    293.6647679174076,
    830.6093951598903,
    233.08188075904496,
    880,
    97.99885899543733,
    195.99771799087463,
    783.9908719634985,
    233.08188075904496,
    293.6647679174076,
    440,
    880,
    195.99771799087463,
    391.99543598174927,
    783.9908719634985,
    739.9888454232688,
    195.99771799087463,
    783.9908719634985,
    932.3275230361799,
    261.6255653005986,
    130.8127826502993,
    311.1269837220809,
    932.3275230361799,
    195.99771799087463,
    932.3275230361799,
    261.6255653005986,
    123.47082531403103,
    311.1269837220809,
    195.99771799087463,
    880,
    932.3275230361799,
    233.08188075904496,
    116.54094037952248,
    311.1269837220809,
    391.99543598174927,
    783.9908719634985,
    195.99771799087463,
    622.2539674441618,
    220,
    587.3295358348151,
    311.1269837220809,
    110,
    523.2511306011972,
    195.99771799087463,
    233.08188075904496,
    311.1269837220809,
    103.82617439498628,
    207.65234878997256,
    61.7354126570155,
    110,
    261.6255653005986,
    311.1269837220809,
    61.7354126570155,
    110,
    61.7354126570155,
    110,
    207.65234878997256,
    110,
    61.7354126570155,
    110,
    61.7354126570155,
    233.08188075904496,
    311.1269837220809,
    97.99885899543733,
    61.7354126570155,
    110,
    61.7354126570155,
    110,
    195.99771799087463,
    61.7354126570155,
    110,
    61.7354126570155,
    97.99885899543733,
    207.65234878997256,
    311.1269837220809,
    87.30705785825097,
    61.7354126570155,
    97.99885899543733,
    97.99885899543733,
    61.7354126570155,
    174.61411571650194,
    61.7354126570155,
    97.99885899543733,
    61.7354126570155,
    138.59131548843604,
    739.9888454232688,
    391.99543598174927,
    233.08188075904496,
    311.1269837220809,
    783.9908719634985,
    77.78174593052023,
    155.56349186104046,
    932.3275230361799,
    622.2539674441618,
    77.78174593052023,
    155.56349186104046,
    195.99771799087463,
    82.4068892282175,
    155.56349186104046,
    92.4986056779086,
    391.99543598174927,
    233.08188075904496,
    311.1269837220809,
    155.56349186104046,
    61.7354126570155,
    195.99771799087463,
    77.78174593052023,
    61.7354126570155,
    155.56349186104046,
    391.99543598174927,
    233.08188075904496,
    311.1269837220809,
    77.78174593052023,
    155.56349186104046,
    195.99771799087463,
    82.4068892282175,
    155.56349186104046,
    92.4986056779086,
    293.6647679174076,
    233.08188075904496,
    698.4564628660078,
    146.8323839587038,
    349.2282314330039,
    73.41619197935188,
    587.3295358348151,
    58.27047018976124,
    155.56349186104046,
    783.9908719634985,
    174.61411571650194,
    830.6093951598903,
    61.7354126570155,
    155.56349186104046,
    261.6255653005986,
    311.1269837220809,
    65.40639132514966,
    130.8127826502993,
    783.9908719634985,
    523.2511306011972,
    1046.5022612023945,
    622.2539674441618,
    783.9908719634985,
    65.40639132514966,
    155.56349186104046,
    261.6255653005986,
    82.4068892282175,
    155.56349186104046,
    92.4986056779086,
    311.1269837220809,
    61.7354126570155,
    155.56349186104046,
    391.99543598174927,
    65.40639132514966,
    61.7354126570155,
    155.56349186104046,
    293.6647679174076,
    587.3295358348151,
    698.4564628660078,
    65.40639132514966,
    155.56349186104046,
    311.1269837220809,
    92.4986056779086,
    82.4068892282175,
    155.56349186104046,
    523.2511306011972,
    261.6255653005986,
    932.3275230361799,
    48.999429497718666,
    61.7354126570155,
    155.56349186104046,
    783.9908719634985,
    391.99543598174927,
    46.2493028389543,
    61.7354126570155,
    138.59131548843604,
    783.9908719634985,
    415.3046975799451,
    174.61411571650194,
    349.2282314330039,
    87.30705785825097,
    830.6093951598903,
    698.4564628660078,
    830.6093951598903,
    43.653528929125486,
    155.56349186104046,
    261.6255653005986,
    783.9908719634985,
    82.4068892282175,
    155.56349186104046,
    92.4986056779086,
    349.2282314330039,
    415.3046975799451,
    523.2511306011972,
    659.2551138257398,
    783.9908719634985,
    138.59131548843604,
    61.7354126570155,
    698.4564628660078,
    329.6275569128699,
    82.4068892282175,
    164.81377845643496,
    261.6255653005986,
    82.4068892282175,
    138.59131548843604,
    61.7354126570155,
    311.1269837220809,
    415.3046975799451,
    155.56349186104046,
    698.4564628660078,
    77.78174593052023,
    622.2539674441618,
    77.78174593052023,
    155.56349186104046,
    261.6255653005986,
    82.4068892282175,
    155.56349186104046,
    92.4986056779086,
    146.8323839587038,
    415.3046975799451,
    523.2511306011972,
    293.6647679174076,
    73.41619197935188,
    587.3295358348151,
    73.41619197935188,
    155.56349186104046,
    61.7354126570155,
    261.6255653005986,
    466.1637615180899,
    65.40639132514966,
    155.56349186104046,
    61.7354126570155,
    466.1637615180899,
    293.6647679174076,
    116.54094037952248,
    466.1637615180899,
    58.27047018976124,
    466.1637615180899,
    932.3275230361799,
    587.3295358348151,
    698.4564628660078,
    369.9944227116344,
    58.27047018976124,
    155.56349186104046,
    698.4564628660078,
    233.08188075904496,
    155.56349186104046,
    82.4068892282175,
    92.4986056779086,
    698.4564628660078,
    349.2282314330039,
    293.6647679174076,
    61.7354126570155,
    155.56349186104046,
    783.9908719634985,
    233.08188075904496,
    58.27047018976124,
    61.7354126570155,
    155.56349186104046,
    783.9908719634985,
    293.6647679174076,
    349.2282314330039,
    466.1637615180899,
    58.27047018976124,
    82.4068892282175,
    155.56349186104046,
    830.6093951598903,
    233.08188075904496,
    58.27047018976124,
    82.4068892282175,
    92.4986056779086,
    293.6647679174076,
    349.2282314330039,
    830.6093951598903,
    466.1637615180899,
    830.6093951598903,
    58.27047018976124,
    97.99885899543733,
    65.40639132514966,
    61.7354126570155,
    110,
    932.3275230361799,
    73.41619197935188,
    138.59131548843604,
    61.7354126570155,
    391.99543598174927,
    311.1269837220809,
    155.56349186104046,
    77.78174593052023,
    830.6093951598903,
    783.9908719634985,
    622.2539674441618,
    77.78174593052023,
    155.56349186104046,
    783.9908719634985,
    233.08188075904496,
    622.2539674441618,
    77.78174593052023,
    82.4068892282175,
    155.56349186104046,
    92.4986056779086,
    391.99543598174927,
    77.78174593052023,
    61.7354126570155,
    155.56349186104046,
    698.4564628660078,
    349.2282314330039,
    77.78174593052023,
    622.2539674441618,
    311.1269837220809,
    61.7354126570155,
    155.56349186104046,
    233.08188075904496,
    349.2282314330039,
    293.6647679174076,
    698.4564628660078,
    146.8323839587038,
    73.41619197935188,
    587.3295358348151,
    698.4564628660078,
    73.41619197935188,
    155.56349186104046,
    233.08188075904496,
    73.41619197935188,
    82.4068892282175,
    155.56349186104046,
    92.4986056779086,
    293.6647679174076,
    349.2282314330039,
    73.41619197935188,
    61.7354126570155,
    155.56349186104046,
    622.2539674441618,
    311.1269837220809,
    73.41619197935188,
    587.3295358348151,
    293.6647679174076,
    61.7354126570155,
    155.56349186104046,
    261.6255653005986,
    130.8127826502993,
    622.2539674441618,
    65.40639132514966,
    311.1269837220809,
    523.2511306011972,
    622.2539674441618,
    65.40639132514966,
    155.56349186104046,
    195.99771799087463,
    65.40639132514966,
    155.56349186104046,
    82.4068892282175,
    92.4986056779086,
    261.6255653005986,
    311.1269837220809,
    65.40639132514966,
    61.7354126570155,
    92.4986056779086,
    466.1637615180899,
    195.99771799087463,
    48.999429497718666,
    466.1637615180899,
    61.7354126570155,
    138.59131548843604,
    493.8833012561241,
    246.94165062806206,
    103.82617439498628,
    311.1269837220809,
    493.8833012561241,
    415.3046975799451,
    51.91308719749314,
    554.3652619537442,
    207.65234878997256,
    493.8833012561241,
    246.94165062806206,
    554.3652619537442,
    311.1269837220809,
    493.8833012561241,
    554.3652619537442,
    207.65234878997256,
    493.8833012561241,
    61.7354126570155,
    138.59131548843604,
    77.78174593052023,
    466.1637615180899,
    155.56349186104046,
    466.1637615180899,
    311.1269837220809,
    77.78174593052023,
    38.890872965260115,
    311.1269837220809,
    391.99543598174927,
    466.1637615180899,
    415.3046975799451,
    523.2511306011972,
    415.3046975799451,
    523.2511306011972,
    830.6093951598903,
    622.2539674441618,
    622.2539674441618,
    466.1637615180899,
    391.99543598174927,
    391.99543598174927,
    466.1637615180899,
    622.2539674441618,
    440,
    369.9944227116344,
    440,
    369.9944227116344,
    92.4986056779086,
    622.2539674441618,
    82.4068892282175,
    415.3046975799451,
    349.2282314330039,
    349.2282314330039,
    415.3046975799451,
    97.99885899543733,
    110,
    622.2539674441618,
    61.7354126570155,
    138.59131548843604,
    58.27047018976124,
    116.54094037952248,
    58.27047018976124,
    233.08188075904496,
    174.61411571650194,
    92.4986056779086,
    82.4068892282175,
    233.08188075904496,
    61.7354126570155,
    92.4986056779086,
    293.6647679174076,
    58.27047018976124,
    61.7354126570155,
    58.27047018976124,
    92.4986056779086,
    783.9908719634985,
    391.99543598174927,
    92.4986056779086,
    174.61411571650194,
    82.4068892282175,
    92.4986056779086,
    698.4564628660078,
    349.2282314330039,
    92.4986056779086,
    174.61411571650194,
    58.27047018976124,
    61.7354126570155,
    92.4986056779086,
    293.6647679174076,
    58.27047018976124,
    233.08188075904496,
    92.4986056779086,
    174.61411571650194,
    82.4068892282175,
    92.4986056779086,
    233.08188075904496,
    58.27047018976124,
    61.7354126570155,
    92.4986056779086,
    293.6647679174076,
    58.27047018976124,
    61.7354126570155,
    92.4986056779086,
    391.99543598174927,
    783.9908719634985,
    92.4986056779086,
    174.61411571650194,
    82.4068892282175,
    43.653528929125486,
    92.4986056779086,
    349.2282314330039,
    698.4564628660078,
    92.4986056779086,
    116.54094037952248,
    174.61411571650194,
    58.27047018976124,
    61.7354126570155,
    138.59131548843604,
    293.6647679174076,
    116.54094037952248,
    58.27047018976124,
    233.08188075904496,
    293.6647679174076,
    92.4986056779086,
    174.61411571650194,
    82.4068892282175,
    92.4986056779086,
    233.08188075904496,
    58.27047018976124,
    61.7354126570155,
    92.4986056779086,
    293.6647679174076,
    58.27047018976124,
    61.7354126570155,
    92.4986056779086,
    391.99543598174927,
    783.9908719634985,
    92.4986056779086,
    174.61411571650194,
    82.4068892282175,
    92.4986056779086,
    349.2282314330039,
    698.4564628660078,
    92.4986056779086,
    174.61411571650194,
    233.08188075904496,
    261.6255653005986,
    48.999429497718666,
    61.7354126570155,
    92.4986056779086,
    293.6647679174076,
    97.99885899543733,
    233.08188075904496,
    293.6647679174076,
    92.4986056779086,
    195.99771799087463,
    82.4068892282175,
    92.4986056779086,
    233.08188075904496,
    48.999429497718666,
    61.7354126570155,
    92.4986056779086,
    293.6647679174076,
    48.999429497718666,
    61.7354126570155,
    92.4986056779086,
    440,
    880,
    92.4986056779086,
    195.99771799087463,
    82.4068892282175,
    92.4986056779086,
    391.99543598174927,
    783.9908719634985,
    92.4986056779086,
    293.6647679174076,
    293.6647679174076,
    65.40639132514966,
    61.7354126570155,
    92.4986056779086,
    261.6255653005986,
    311.1269837220809,
    130.8127826502993,
    65.40639132514966,
    311.1269837220809,
    92.4986056779086,
    261.6255653005986,
    349.2282314330039,
    311.1269837220809,
    82.4068892282175,
    92.4986056779086,
    311.1269837220809,
    293.6647679174076,
    65.40639132514966,
    61.7354126570155,
    92.4986056779086,
    391.99543598174927,
    261.6255653005986,
    65.40639132514966,
    61.7354126570155,
    92.4986056779086,
    587.3295358348151,
    1174.6590716696303,
    92.4986056779086,
    261.6255653005986,
    82.4068892282175,
    92.4986056779086,
    523.2511306011972,
    1046.5022612023945,
    261.6255653005986,
    48.999429497718666,
    92.4986056779086,
    311.1269837220809,
    293.6647679174076,
    65.40639132514966,
    61.7354126570155,
    92.4986056779086,
    65.40639132514966,
    391.99543598174927,
    130.8127826502993,
    311.1269837220809,
    349.2282314330039,
    92.4986056779086,
    261.6255653005986,
    65.40639132514966,
    311.1269837220809,
    82.4068892282175,
    92.4986056779086,
    311.1269837220809,
    293.6647679174076,
    48.999429497718666,
    61.7354126570155,
    116.54094037952248,
    391.99543598174927,
    293.6647679174076,
    46.2493028389543,
    261.6255653005986,
    43.653528929125486,
    61.7354126570155,
    92.4986056779086,
    440,
    174.61411571650194,
    87.30705785825097,
    82.4068892282175,
    311.1269837220809,
    43.653528929125486,
    97.99885899543733,
    92.4986056779086,
    349.2282314330039,
    110,
    61.7354126570155,
    523.2511306011972,
    58.27047018976124,
    61.7354126570155,
    138.59131548843604,
    293.6647679174076,
    116.54094037952248,
    233.08188075904496,
    293.6647679174076,
    92.4986056779086,
    174.61411571650194,
    82.4068892282175,
    92.4986056779086,
    233.08188075904496,
    61.7354126570155,
    58.27047018976124,
    92.4986056779086,
    261.6255653005986,
    293.6647679174076,
    233.08188075904496,
    261.6255653005986,
    58.27047018976124,
    61.7354126570155,
    92.4986056779086,
    391.99543598174927,
    783.9908719634985,
    293.6647679174076,
    92.4986056779086,
    174.61411571650194,
    82.4068892282175,
    92.4986056779086,
    349.2282314330039,
    698.4564628660078,
    349.2282314330039,
    92.4986056779086,
    174.61411571650194,
    391.99543598174927,
    48.999429497718666,
    61.7354126570155,
    92.4986056779086,
    293.6647679174076,
    233.08188075904496,
    97.99885899543733,
    261.6255653005986,
    92.4986056779086,
    195.99771799087463,
    349.2282314330039,
    391.99543598174927,
    58.27047018976124,
    82.4068892282175,
    92.4986056779086,
    233.08188075904496,
    73.41619197935188,
    61.7354126570155,
    92.4986056779086,
    293.6647679174076,
    97.99885899543733,
    61.7354126570155,
    92.4986056779086,
    440,
    880,
    92.4986056779086,
    195.99771799087463,
    82.4068892282175,
    92.4986056779086,
    391.99543598174927,
    783.9908719634985,
    349.2282314330039,
    73.41619197935188,
    97.99885899543733,
    61.7354126570155,
    195.99771799087463,
    391.99543598174927,
    65.40639132514966,
    61.7354126570155,
    138.59131548843604,
    261.6255653005986,
    130.8127826502993,
    311.1269837220809,
    466.1637615180899,
    116.54094037952248,
    195.99771799087463,
    466.1637615180899,
    82.4068892282175,
    116.54094037952248,
    261.6255653005986,
    466.1637615180899,
    466.1637615180899,
    61.7354126570155,
    138.59131548843604,
    61.7354126570155,
    123.47082531403103,
    311.1269837220809,
    195.99771799087463,
    466.1637615180899,
    58.27047018976124,
    61.7354126570155,
    138.59131548843604,
    233.08188075904496,
    116.54094037952248,
    311.1269837220809,
    391.99543598174927,
    116.54094037952248,
    195.99771799087463,
    391.99543598174927,
    61.7354126570155,
    55,
    82.4068892282175,
    138.59131548843604,
    220,
    311.1269837220809,
    110,
    293.6647679174076,
    61.7354126570155,
    116.54094037952248,
    195.99771799087463,
    261.6255653005986,
    51.91308719749314,
    61.7354126570155,
    138.59131548843604,
    233.08188075904496,
    311.1269837220809,
    103.82617439498628,
    116.54094037952248,
    207.65234878997256,
    82.4068892282175,
    116.54094037952248,
    261.6255653005986,
    311.1269837220809,
    61.7354126570155,
    116.54094037952248,
    207.65234878997256,
    82.4068892282175,
    48.999429497718666,
    116.54094037952248,
    233.08188075904496,
    311.1269837220809,
    97.99885899543733,
    61.7354126570155,
    195.99771799087463,
    82.4068892282175,
    58.27047018976124,
    92.4986056779086,
    207.65234878997256,
    311.1269837220809,
    87.30705785825097,
    97.99885899543733,
    110,
    61.7354126570155,
    174.61411571650194,
    77.78174593052023,
    61.7354126570155,
    138.59131548843604,
    391.99543598174927,
    233.08188075904496,
    311.1269837220809,
    77.78174593052023,
    155.56349186104046,
    466.1637615180899,
    622.2539674441618,
    391.99543598174927,
    155.56349186104046,
    195.99771799087463,
    82.4068892282175,
    77.78174593052023,
    155.56349186104046,
    92.4986056779086,
    391.99543598174927,
    233.08188075904496,
    311.1269837220809,
    77.78174593052023,
    155.56349186104046,
    61.7354126570155,
    195.99771799087463,
    77.78174593052023,
    61.7354126570155,
    155.56349186104046,
    391.99543598174927,
    233.08188075904496,
    311.1269837220809,
    77.78174593052023,
    155.56349186104046,
    195.99771799087463,
    73.41619197935188,
    82.4068892282175,
    155.56349186104046,
    92.4986056779086
  ],
  "platforms": [
    {
      "kind": "segment",
      "x": 182,
      "y": 416,
      "width": 64,
      "height": 18
    },
    {
      "kind": "segment",
      "x": 246,
      "y": 320,
      "width": 64,
      "height": 18
    },
    {
      "kind": "segment",
      "x": 310,
      "y": 320,
      "width": 64,
      "height": 18
    },
    {
      "kind": "elevator",
      "x": 374,
      "y": 384,
      "width": 64,
      "height": 18
    },
    {
      "kind": "segment",
      "x": 438,
      "y": 384,
      "width": 64,
      "height": 18
    },
    {
      "kind": "segment",
      "x": 502,
      "y": 320,
      "width": 64,
      "height": 18
    },
    {
      "kind": "segment",
      "x": 566,
      "y": 320,
      "width": 64,
      "height": 18
    },
    {
      "kind": "elevator",
      "x": 630,
      "y": 384,
      "width": 64,
      "height": 18
    },
    {
      "kind": "segment",
      "x": 694,
      "y": 352,
      "width": 64,
      "height": 18
    },
    {
      "kind": "alternateBeat",
      "x": 758,
      "y": 384,
      "width": 64,
      "height": 18
    },
    {
      "kind": "segment",
      "x": 822,
      "y": 384,
      "width": 64,
      "height": 18
    },
    {
      "kind": "segment",
      "x": 886,
      "y": 352,
      "width": 64,
      "height": 18
    },
    {
      "kind": "segment",
      "x": 950,
      "y": 384,
      "width": 64,
      "height": 18
    },
    {
      "kind": "beat",
      "x": 1014,
      "y": 320,
      "width": 64,
      "height": 18
    },
    {
      "kind": "segment",
      "x": 1078,
      "y": 320,
      "width": 64,
      "height": 18
    },
    {
      "kind": "segment",
      "x": 1142,
      "y": 320,
      "width": 64,
      "height": 18
    },
    {
      "kind": "beat",
      "x": 1206,
      "y": 288,
      "width": 64,
      "height": 18
    },
    {
      "kind": "segment",
      "x": 1270,
      "y": 288,
      "width": 64,
      "height": 18
    },
    {
      "kind": "segment",
      "x": 1334,
      "y": 384,
      "width": 64,
      "height": 18
    },
    {
      "kind": "segment",
      "x": 1398,
      "y": 352,
      "width": 64,
      "height": 18
    },
    {
      "kind": "beat",
      "x": 1462,
      "y": 320,
      "width": 64,
      "height": 18
    },
    {
      "kind": "segment",
      "x": 1526,
      "y": 384,
      "width": 64,
      "height": 18
    },
    {
      "kind": "segment",
      "x": 1590,
      "y": 320,
      "width": 64,
      "height": 18
    },
    {
      "kind": "segment",
      "x": 1654,
      "y": 384,
      "width": 64,
      "height": 18
    },
    {
      "kind": "beat",
      "x": 1718,
      "y": 416,
      "width": 64,
      "height": 18
    },
    {
      "kind": "segment",
      "x": 1782,
      "y": 352,
      "width": 64,
      "height": 18
    },
    {
      "kind": "segment",
      "x": 1846,
      "y": 416,
      "width": 64,
      "height": 18
    },
    {
      "kind": "segment",
      "x": 1910,
      "y": 320,
      "width": 64,
      "height": 18
    },
    {
      "kind": "elevator",
      "x": 1974,
      "y": 384,
      "width": 64,
      "height": 18
    },
    {
      "kind": "segment",
      "x": 2038,
      "y": 416,
      "width": 64,
      "height": 18
    },
    {
      "kind": "segment",
      "x": 2102,
      "y": 416,
      "width": 64,
      "height": 18
    },
    {
      "kind": "segment",
      "x": 2166,
      "y": 320,
      "width": 64,
      "height": 18
    },
    {
      "kind": "alternateBeat",
      "x": 2230,
      "y": 320,
      "width": 64,
      "height": 18
    },
    {
      "kind": "segment",
      "x": 2294,
      "y": 352,
      "width": 64,
      "height": 18
    },
    {
      "kind": "segment",
      "x": 2358,
      "y": 384,
      "width": 64,
      "height": 18
    },
    {
      "kind": "elevator",
      "x": 2422,
      "y": 384,
      "width": 64,
      "height": 18
    },
    {
      "kind": "segment",
      "x": 2486,
      "y": 320,
      "width": 64,
      "height": 18
    },
    {
      "kind": "segment",
      "x": 2550,
      "y": 288,
      "width": 64,
      "height": 18
    },
    {
      "kind": "segment",
      "x": 2614,
      "y": 384,
      "width": 64,
      "height": 18
    },
    {
      "kind": "elevator",
      "x": 2678,
      "y": 320,
      "width": 64,
      "height": 18
    },
    {
      "kind": "segment",
      "x": 2742,
      "y": 384,
      "width": 64,
      "height": 18
    },
    {
      "kind": "segment",
      "x": 2806,
      "y": 416,
      "width": 64,
      "height": 18
    },
    {
      "kind": "segment",
      "x": 2870,
      "y": 320,
      "width": 64,
      "height": 18
    },
    {
      "kind": "elevator",
      "x": 2934,
      "y": 320,
      "width": 64,
      "height": 18
    },
    {
      "kind": "elevator",
      "x": 2998,
      "y": 352,
      "width": 64,
      "height": 18
    },
    {
      "kind": "segment",
      "x": 3062,
      "y": 288,
      "width": 64,
      "height": 18
    },
    {
      "kind": "elevator",
      "x": 3126,
      "y": 416,
      "width": 64,
      "height": 18
    },
    {
      "kind": "segment",
      "x": 3190,
      "y": 384,
      "width": 64,
      "height": 18
    },
    {
      "kind": "segment",
      "x": 3254,
      "y": 352,
      "width": 64,
      "height": 18
    },
    {
      "kind": "segment",
      "x": 3318,
      "y": 384,
      "width": 64,
      "height": 18
    },
    {
      "kind": "alternateBeat",
      "x": 3382,
      "y": 416,
      "width": 64,
      "height": 18
    },
    {
      "kind": "elevator",
      "x": 3446,
      "y": 384,
      "width": 64,
      "height": 18
    },
    {
      "kind": "segment",
      "x": 3510,
      "y": 384,
      "width": 64,
      "height": 18
    },
    {
      "kind": "segment",
      "x": 3574,
      "y": 352,
      "width": 64,
      "height": 18
    },
    {
      "kind": "segment",
      "x": 3638,
      "y": 384,
      "width": 64,
      "height": 18
    },
    {
      "kind": "elevator",
      "x": 3702,
      "y": 352,
      "width": 64,
      "height": 18
    },
    {
      "kind": "segment",
      "x": 3766,
      "y": 288,
      "width": 64,
      "height": 18
    },
    {
      "kind": "segment",
      "x": 3830,
      "y": 288,
      "width": 64,
      "height": 18
    },
    {
      "kind": "segment",
      "x": 3894,
      "y": 352,
      "width": 64,
      "height": 18
    },
    {
      "kind": "elevator",
      "x": 3958,
      "y": 416,
      "width": 64,
      "height": 18
    },
    {
      "kind": "segment",
      "x": 4022,
      "y": 320,
      "width": 64,
      "height": 18
    },
    {
      "kind": "segment",
      "x": 4086,
      "y": 416,
      "width": 64,
      "height": 18
    },
    {
      "kind": "segment",
      "x": 4150,
      "y": 288,
      "width": 64,
      "height": 18
    },
    {
      "kind": "elevator",
      "x": 4214,
      "y": 320,
      "width": 64,
      "height": 18
    },
    {
      "kind": "segment",
      "x": 4278,
      "y": 352,
      "width": 64,
      "height": 18
    },
    {
      "kind": "segment",
      "x": 4342,
      "y": 416,
      "width": 64,
      "height": 18
    },
    {
      "kind": "segment",
      "x": 4406,
      "y": 416,
      "width": 64,
      "height": 18
    },
    {
      "kind": "elevator",
      "x": 4470,
      "y": 416,
      "width": 64,
      "height": 18
    },
    {
      "kind": "segment",
      "x": 4534,
      "y": 320,
      "width": 64,
      "height": 18
    },
    {
      "kind": "segment",
      "x": 4598,
      "y": 288,
      "width": 64,
      "height": 18
    },
    {
      "kind": "segment",
      "x": 4662,
      "y": 352,
      "width": 64,
      "height": 18
    },
    {
      "kind": "elevator",
      "x": 4726,
      "y": 416,
      "width": 64,
      "height": 18
    },
    {
      "kind": "segment",
      "x": 4790,
      "y": 352,
      "width": 64,
      "height": 18
    },
    {
      "kind": "segment",
      "x": 4854,
      "y": 320,
      "width": 64,
      "height": 18
    },
    {
      "kind": "segment",
      "x": 4918,
      "y": 320,
      "width": 64,
      "height": 18
    },
    {
      "kind": "beat",
      "x": 4982,
      "y": 320,
      "width": 64,
      "height": 18
    },
    {
      "kind": "segment",
      "x": 5046,
      "y": 320,
      "width": 64,
      "height": 18
    },
    {
      "kind": "segment",
      "x": 5110,
      "y": 384,
      "width": 64,
      "height": 18
    },
    {
      "kind": "segment",
      "x": 5174,
      "y": 416,
      "width": 64,
      "height": 18
    },
    {
      "kind": "segment",
      "x": 5238,
      "y": 352,
      "width": 64,
      "height": 18
    },
    {
      "kind": "alternateBeat",
      "x": 5302,
      "y": 384,
      "width": 64,
      "height": 18
    },
    {
      "kind": "segment",
      "x": 5366,
      "y": 384,
      "width": 64,
      "height": 18
    },
    {
      "kind": "segment",
      "x": 5430,
      "y": 384,
      "width": 64,
      "height": 18
    },
    {
      "kind": "elevator",
      "x": 5494,
      "y": 416,
      "width": 64,
      "height": 18
    },
    {
      "kind": "segment",
      "x": 5558,
      "y": 320,
      "width": 64,
      "height": 18
    },
    {
      "kind": "segment",
      "x": 5622,
      "y": 416,
      "width": 64,
      "height": 18
    },
    {
      "kind": "segment",
      "x": 5686,
      "y": 320,
      "width": 64,
      "height": 18
    },
    {
      "kind": "elevator",
      "x": 5750,
      "y": 288,
      "width": 64,
      "height": 18
    },
    {
      "kind": "segment",
      "x": 5814,
      "y": 416,
      "width": 64,
      "height": 18
    },
    {
      "kind": "segment",
      "x": 5878,
      "y": 320,
      "width": 64,
      "height": 18
    },
    {
      "kind": "segment",
      "x": 5942,
      "y": 320,
      "width": 64,
      "height": 18
    },
    {
      "kind": "beat",
      "x": 6006,
      "y": 320,
      "width": 64,
      "height": 18
    },
    {
      "kind": "segment",
      "x": 6070,
      "y": 384,
      "width": 64,
      "height": 18
    },
    {
      "kind": "segment",
      "x": 6134,
      "y": 416,
      "width": 64,
      "height": 18
    },
    {
      "kind": "segment",
      "x": 6198,
      "y": 320,
      "width": 64,
      "height": 18
    },
    {
      "kind": "beat",
      "x": 6262,
      "y": 320,
      "width": 64,
      "height": 18
    },
    {
      "kind": "segment",
      "x": 6326,
      "y": 416,
      "width": 64,
      "height": 18
    },
    {
      "kind": "segment",
      "x": 6390,
      "y": 416,
      "width": 64,
      "height": 18
    },
    {
      "kind": "segment",
      "x": 6454,
      "y": 320,
      "width": 64,
      "height": 18
    },
    {
      "kind": "segment",
      "x": 6582,
      "y": 384,
      "width": 64,
      "height": 18
    },
    {
      "kind": "segment",
      "x": 6774,
      "y": 352,
      "width": 64,
      "height": 18
    },
    {
      "kind": "segment",
      "x": 6838,
      "y": 288,
      "width": 64,
      "height": 18
    },
    {
      "kind": "segment",
      "x": 6902,
      "y": 384,
      "width": 64,
      "height": 18
    },
    {
      "kind": "elevator",
      "x": 6966,
      "y": 288,
      "width": 64,
      "height": 18
    },
    {
      "kind": "beat",
      "x": 7030,
      "y": 288,
      "width": 64,
      "height": 18
    },
    {
      "kind": "segment",
      "x": 7094,
      "y": 320,
      "width": 64,
      "height": 18
    },
    {
      "kind": "segment",
      "x": 7158,
      "y": 352,
      "width": 64,
      "height": 18
    },
    {
      "kind": "beat",
      "x": 7222,
      "y": 320,
      "width": 64,
      "height": 18
    },
    {
      "kind": "segment",
      "x": 7286,
      "y": 352,
      "width": 64,
      "height": 18
    },
    {
      "kind": "segment",
      "x": 7350,
      "y": 416,
      "width": 64,
      "height": 18
    },
    {
      "kind": "segment",
      "x": 7542,
      "y": 384,
      "width": 64,
      "height": 18
    },
    {
      "kind": "segment",
      "x": 7670,
      "y": 416,
      "width": 64,
      "height": 18
    },
    {
      "kind": "segment",
      "x": 7734,
      "y": 320,
      "width": 64,
      "height": 18
    },
    {
      "kind": "segment",
      "x": 7862,
      "y": 320,
      "width": 64,
      "height": 18
    },
    {
      "kind": "segment",
      "x": 7926,
      "y": 320,
      "width": 64,
      "height": 18
    },
    {
      "kind": "segment",
      "x": 7990,
      "y": 352,
      "width": 64,
      "height": 18
    },
    {
      "kind": "alternateBeat",
      "x": 8054,
      "y": 288,
      "width": 64,
      "height": 18
    },
    {
      "kind": "segment",
      "x": 8182,
      "y": 288,
      "width": 64,
      "height": 18
    },
    {
      "kind": "reverseGhost",
      "x": 8246,
      "y": 384,
      "width": 64,
      "height": 18
    },
    {
      "kind": "segment",
      "x": 8310,
      "y": 320,
      "width": 64,
      "height": 18
    },
    {
      "kind": "segment",
      "x": 8374,
      "y": 320,
      "width": 64,
      "height": 18
    },
    {
      "kind": "segment",
      "x": 8438,
      "y": 352,
      "width": 64,
      "height": 18
    },
    {
      "kind": "ghost",
      "x": 8502,
      "y": 352,
      "width": 64,
      "height": 18
    },
    {
      "kind": "elevator",
      "x": 8694,
      "y": 352,
      "width": 64,
      "height": 18
    },
    {
      "kind": "launch60",
      "x": 8822,
      "y": 320,
      "width": 64,
      "height": 18
    },
    {
      "kind": "segment",
      "x": 8886,
      "y": 320,
      "width": 64,
      "height": 18
    },
    {
      "kind": "segment",
      "x": 8950,
      "y": 352,
      "width": 64,
      "height": 18
    },
    {
      "kind": "segment",
      "x": 9142,
      "y": 384,
      "width": 64,
      "height": 18
    },
    {
      "kind": "segment",
      "x": 9206,
      "y": 384,
      "width": 64,
      "height": 18
    },
    {
      "kind": "segment",
      "x": 9334,
      "y": 416,
      "width": 64,
      "height": 18
    },
    {
      "kind": "segment",
      "x": 9462,
      "y": 352,
      "width": 64,
      "height": 18
    },
    {
      "kind": "segment",
      "x": 9526,
      "y": 352,
      "width": 64,
      "height": 18
    },
    {
      "kind": "segment",
      "x": 9590,
      "y": 384,
      "width": 64,
      "height": 18
    },
    {
      "kind": "elevator",
      "x": 9654,
      "y": 384,
      "width": 64,
      "height": 18
    },
    {
      "kind": "alternateBeat",
      "x": 9718,
      "y": 384,
      "width": 64,
      "height": 18
    },
    {
      "kind": "segment",
      "x": 9782,
      "y": 384,
      "width": 64,
      "height": 18
    },
    {
      "kind": "segment",
      "x": 9846,
      "y": 352,
      "width": 64,
      "height": 18
    },
    {
      "kind": "segment",
      "x": 9974,
      "y": 384,
      "width": 64,
      "height": 18
    },
    {
      "kind": "segment",
      "x": 10038,
      "y": 384,
      "width": 64,
      "height": 18
    },
    {
      "kind": "beat",
      "x": 10102,
      "y": 320,
      "width": 64,
      "height": 18
    },
    {
      "kind": "segment",
      "x": 10166,
      "y": 416,
      "width": 64,
      "height": 18
    },
    {
      "kind": "segment",
      "x": 10230,
      "y": 320,
      "width": 64,
      "height": 18
    },
    {
      "kind": "segment",
      "x": 10358,
      "y": 352,
      "width": 64,
      "height": 18
    },
    {
      "kind": "beat",
      "x": 10422,
      "y": 352,
      "width": 64,
      "height": 18
    },
    {
      "kind": "segment",
      "x": 10486,
      "y": 352,
      "width": 64,
      "height": 18
    },
    {
      "kind": "segment",
      "x": 10550,
      "y": 384,
      "width": 64,
      "height": 18
    },
    {
      "kind": "segment",
      "x": 10614,
      "y": 352,
      "width": 64,
      "height": 18
    },
    {
      "kind": "elevator",
      "x": 10678,
      "y": 320,
      "width": 64,
      "height": 18
    },
    {
      "kind": "segment",
      "x": 10806,
      "y": 352,
      "width": 64,
      "height": 18
    },
    {
      "kind": "segment",
      "x": 10870,
      "y": 384,
      "width": 64,
      "height": 18
    },
    {
      "kind": "elevator",
      "x": 10934,
      "y": 320,
      "width": 64,
      "height": 18
    },
    {
      "kind": "segment",
      "x": 11126,
      "y": 320,
      "width": 64,
      "height": 18
    },
    {
      "kind": "segment",
      "x": 11190,
      "y": 352,
      "width": 64,
      "height": 18
    },
    {
      "kind": "elevator",
      "x": 11318,
      "y": 352,
      "width": 64,
      "height": 18
    },
    {
      "kind": "segment",
      "x": 11382,
      "y": 384,
      "width": 64,
      "height": 18
    },
    {
      "kind": "segment",
      "x": 11446,
      "y": 416,
      "width": 64,
      "height": 18
    },
    {
      "kind": "segment",
      "x": 11638,
      "y": 352,
      "width": 64,
      "height": 18
    },
    {
      "kind": "segment",
      "x": 11702,
      "y": 320,
      "width": 64,
      "height": 18
    },
    {
      "kind": "segment",
      "x": 11766,
      "y": 384,
      "width": 64,
      "height": 18
    },
    {
      "kind": "alternateBeat",
      "x": 11830,
      "y": 384,
      "width": 64,
      "height": 18
    },
    {
      "kind": "segment",
      "x": 11894,
      "y": 320,
      "width": 64,
      "height": 18
    },
    {
      "kind": "alternateBeat",
      "x": 11958,
      "y": 384,
      "width": 64,
      "height": 18
    },
    {
      "kind": "segment",
      "x": 12022,
      "y": 416,
      "width": 64,
      "height": 18
    },
    {
      "kind": "segment",
      "x": 12086,
      "y": 320,
      "width": 64,
      "height": 18
    },
    {
      "kind": "segment",
      "x": 12150,
      "y": 320,
      "width": 64,
      "height": 18
    },
    {
      "kind": "alternateBeat",
      "x": 12214,
      "y": 288,
      "width": 64,
      "height": 18
    },
    {
      "kind": "segment",
      "x": 12278,
      "y": 416,
      "width": 64,
      "height": 18
    },
    {
      "kind": "beat",
      "x": 12342,
      "y": 416,
      "width": 64,
      "height": 18
    },
    {
      "kind": "segment",
      "x": 12406,
      "y": 384,
      "width": 64,
      "height": 18
    },
    {
      "kind": "alternateBeat",
      "x": 12470,
      "y": 384,
      "width": 64,
      "height": 18
    },
    {
      "kind": "segment",
      "x": 12534,
      "y": 416,
      "width": 64,
      "height": 18
    },
    {
      "kind": "segment",
      "x": 12598,
      "y": 384,
      "width": 64,
      "height": 18
    },
    {
      "kind": "segment",
      "x": 12662,
      "y": 416,
      "width": 64,
      "height": 18
    },
    {
      "kind": "elevator",
      "x": 12726,
      "y": 352,
      "width": 64,
      "height": 18
    },
    {
      "kind": "segment",
      "x": 12790,
      "y": 320,
      "width": 64,
      "height": 18
    },
    {
      "kind": "segment",
      "x": 12854,
      "y": 352,
      "width": 64,
      "height": 18
    },
    {
      "kind": "segment",
      "x": 12918,
      "y": 384,
      "width": 64,
      "height": 18
    },
    {
      "kind": "beat",
      "x": 12982,
      "y": 384,
      "width": 64,
      "height": 18
    },
    {
      "kind": "segment",
      "x": 13046,
      "y": 352,
      "width": 64,
      "height": 18
    },
    {
      "kind": "segment",
      "x": 13110,
      "y": 416,
      "width": 64,
      "height": 18
    },
    {
      "kind": "segment",
      "x": 13174,
      "y": 352,
      "width": 64,
      "height": 18
    },
    {
      "kind": "beat",
      "x": 13238,
      "y": 416,
      "width": 64,
      "height": 18
    },
    {
      "kind": "segment",
      "x": 13302,
      "y": 384,
      "width": 64,
      "height": 18
    },
    {
      "kind": "segment",
      "x": 13366,
      "y": 416,
      "width": 64,
      "height": 18
    },
    {
      "kind": "segment",
      "x": 13430,
      "y": 384,
      "width": 64,
      "height": 18
    },
    {
      "kind": "elevator",
      "x": 13494,
      "y": 416,
      "width": 64,
      "height": 18
    },
    {
      "kind": "segment",
      "x": 13558,
      "y": 384,
      "width": 64,
      "height": 18
    },
    {
      "kind": "segment",
      "x": 13622,
      "y": 416,
      "width": 64,
      "height": 18
    },
    {
      "kind": "segment",
      "x": 13686,
      "y": 416,
      "width": 64,
      "height": 18
    },
    {
      "kind": "alternateBeat",
      "x": 13750,
      "y": 384,
      "width": 64,
      "height": 18
    },
    {
      "kind": "segment",
      "x": 13814,
      "y": 416,
      "width": 64,
      "height": 18
    },
    {
      "kind": "segment",
      "x": 13878,
      "y": 416,
      "width": 64,
      "height": 18
    },
    {
      "kind": "segment",
      "x": 13942,
      "y": 416,
      "width": 64,
      "height": 18
    },
    {
      "kind": "alternateBeat",
      "x": 14006,
      "y": 384,
      "width": 64,
      "height": 18
    },
    {
      "kind": "segment",
      "x": 14070,
      "y": 384,
      "width": 64,
      "height": 18
    },
    {
      "kind": "segment",
      "x": 14134,
      "y": 416,
      "width": 64,
      "height": 18
    },
    {
      "kind": "segment",
      "x": 14198,
      "y": 384,
      "width": 64,
      "height": 18
    },
    {
      "kind": "alternateBeat",
      "x": 14262,
      "y": 384,
      "width": 64,
      "height": 18
    },
    {
      "kind": "segment",
      "x": 14326,
      "y": 384,
      "width": 64,
      "height": 18
    },
    {
      "kind": "segment",
      "x": 14390,
      "y": 384,
      "width": 64,
      "height": 18
    },
    {
      "kind": "segment",
      "x": 14454,
      "y": 384,
      "width": 64,
      "height": 18
    },
    {
      "kind": "elevator",
      "x": 14518,
      "y": 416,
      "width": 64,
      "height": 18
    },
    {
      "kind": "segment",
      "x": 14582,
      "y": 384,
      "width": 64,
      "height": 18
    },
    {
      "kind": "segment",
      "x": 14646,
      "y": 384,
      "width": 64,
      "height": 18
    },
    {
      "kind": "segment",
      "x": 14710,
      "y": 384,
      "width": 64,
      "height": 18
    },
    {
      "kind": "alternateBeat",
      "x": 14774,
      "y": 416,
      "width": 64,
      "height": 18
    },
    {
      "kind": "segment",
      "x": 14838,
      "y": 416,
      "width": 64,
      "height": 18
    },
    {
      "kind": "segment",
      "x": 14902,
      "y": 384,
      "width": 64,
      "height": 18
    },
    {
      "kind": "segment",
      "x": 14966,
      "y": 384,
      "width": 64,
      "height": 18
    },
    {
      "kind": "elevator",
      "x": 15030,
      "y": 384,
      "width": 64,
      "height": 18
    },
    {
      "kind": "segment",
      "x": 15094,
      "y": 384,
      "width": 64,
      "height": 18
    },
    {
      "kind": "segment",
      "x": 15158,
      "y": 384,
      "width": 64,
      "height": 18
    },
    {
      "kind": "segment",
      "x": 15222,
      "y": 384,
      "width": 64,
      "height": 18
    },
    {
      "kind": "alternateBeat",
      "x": 15286,
      "y": 384,
      "width": 64,
      "height": 18
    },
    {
      "kind": "segment",
      "x": 15350,
      "y": 384,
      "width": 64,
      "height": 18
    },
    {
      "kind": "segment",
      "x": 15414,
      "y": 416,
      "width": 64,
      "height": 18
    },
    {
      "kind": "segment",
      "x": 15478,
      "y": 384,
      "width": 64,
      "height": 18
    },
    {
      "kind": "elevator",
      "x": 15542,
      "y": 384,
      "width": 64,
      "height": 18
    },
    {
      "kind": "segment",
      "x": 15606,
      "y": 384,
      "width": 64,
      "height": 18
    },
    {
      "kind": "segment",
      "x": 15670,
      "y": 416,
      "width": 64,
      "height": 18
    },
    {
      "kind": "segment",
      "x": 15734,
      "y": 384,
      "width": 64,
      "height": 18
    },
    {
      "kind": "alternateBeat",
      "x": 15798,
      "y": 416,
      "width": 64,
      "height": 18
    },
    {
      "kind": "segment",
      "x": 15862,
      "y": 384,
      "width": 64,
      "height": 18
    },
    {
      "kind": "segment",
      "x": 15926,
      "y": 416,
      "width": 64,
      "height": 18
    },
    {
      "kind": "segment",
      "x": 15990,
      "y": 416,
      "width": 64,
      "height": 18
    },
    {
      "kind": "beat",
      "x": 16054,
      "y": 416,
      "width": 64,
      "height": 18
    },
    {
      "kind": "segment",
      "x": 16118,
      "y": 416,
      "width": 64,
      "height": 18
    },
    {
      "kind": "segment",
      "x": 16182,
      "y": 416,
      "width": 64,
      "height": 18
    },
    {
      "kind": "segment",
      "x": 16246,
      "y": 384,
      "width": 64,
      "height": 18
    },
    {
      "kind": "elevator",
      "x": 16310,
      "y": 384,
      "width": 64,
      "height": 18
    },
    {
      "kind": "segment",
      "x": 16374,
      "y": 416,
      "width": 64,
      "height": 18
    },
    {
      "kind": "segment",
      "x": 16438,
      "y": 416,
      "width": 64,
      "height": 18
    },
    {
      "kind": "segment",
      "x": 16502,
      "y": 384,
      "width": 64,
      "height": 18
    },
    {
      "kind": "elevator",
      "x": 16566,
      "y": 416,
      "width": 64,
      "height": 18
    },
    {
      "kind": "segment",
      "x": 16630,
      "y": 416,
      "width": 64,
      "height": 18
    },
    {
      "kind": "segment",
      "x": 16694,
      "y": 416,
      "width": 64,
      "height": 18
    },
    {
      "kind": "segment",
      "x": 16758,
      "y": 384,
      "width": 64,
      "height": 18
    },
    {
      "kind": "alternateBeat",
      "x": 16822,
      "y": 416,
      "width": 64,
      "height": 18
    },
    {
      "kind": "segment",
      "x": 16886,
      "y": 416,
      "width": 64,
      "height": 18
    },
    {
      "kind": "segment",
      "x": 16950,
      "y": 416,
      "width": 64,
      "height": 18
    },
    {
      "kind": "segment",
      "x": 17014,
      "y": 384,
      "width": 64,
      "height": 18
    },
    {
      "kind": "beat",
      "x": 17078,
      "y": 384,
      "width": 64,
      "height": 18
    },
    {
      "kind": "segment",
      "x": 17142,
      "y": 384,
      "width": 64,
      "height": 18
    },
    {
      "kind": "segment",
      "x": 17206,
      "y": 416,
      "width": 64,
      "height": 18
    },
    {
      "kind": "segment",
      "x": 17270,
      "y": 416,
      "width": 64,
      "height": 18
    },
    {
      "kind": "beat",
      "x": 17334,
      "y": 384,
      "width": 64,
      "height": 18
    },
    {
      "kind": "segment",
      "x": 17398,
      "y": 384,
      "width": 64,
      "height": 18
    },
    {
      "kind": "segment",
      "x": 17462,
      "y": 384,
      "width": 64,
      "height": 18
    },
    {
      "kind": "segment",
      "x": 17526,
      "y": 416,
      "width": 64,
      "height": 18
    },
    {
      "kind": "alternateBeat",
      "x": 17590,
      "y": 416,
      "width": 64,
      "height": 18
    },
    {
      "kind": "segment",
      "x": 17654,
      "y": 384,
      "width": 64,
      "height": 18
    },
    {
      "kind": "segment",
      "x": 17718,
      "y": 384,
      "width": 64,
      "height": 18
    },
    {
      "kind": "segment",
      "x": 17782,
      "y": 384,
      "width": 64,
      "height": 18
    },
    {
      "kind": "beat",
      "x": 17846,
      "y": 416,
      "width": 64,
      "height": 18
    },
    {
      "kind": "segment",
      "x": 17910,
      "y": 384,
      "width": 64,
      "height": 18
    },
    {
      "kind": "segment",
      "x": 17974,
      "y": 384,
      "width": 64,
      "height": 18
    },
    {
      "kind": "segment",
      "x": 18038,
      "y": 384,
      "width": 64,
      "height": 18
    },
    {
      "kind": "elevator",
      "x": 18102,
      "y": 384,
      "width": 64,
      "height": 18
    },
    {
      "kind": "segment",
      "x": 18166,
      "y": 384,
      "width": 64,
      "height": 18
    },
    {
      "kind": "segment",
      "x": 18230,
      "y": 384,
      "width": 64,
      "height": 18
    },
    {
      "kind": "segment",
      "x": 18294,
      "y": 416,
      "width": 64,
      "height": 18
    },
    {
      "kind": "elevator",
      "x": 18358,
      "y": 416,
      "width": 64,
      "height": 18
    },
    {
      "kind": "segment",
      "x": 18422,
      "y": 416,
      "width": 64,
      "height": 18
    },
    {
      "kind": "segment",
      "x": 18486,
      "y": 416,
      "width": 64,
      "height": 18
    },
    {
      "kind": "segment",
      "x": 18550,
      "y": 416,
      "width": 64,
      "height": 18
    },
    {
      "kind": "elevator",
      "x": 18614,
      "y": 384,
      "width": 64,
      "height": 18
    },
    {
      "kind": "segment",
      "x": 18678,
      "y": 384,
      "width": 64,
      "height": 18
    },
    {
      "kind": "segment",
      "x": 18742,
      "y": 416,
      "width": 64,
      "height": 18
    },
    {
      "kind": "segment",
      "x": 18806,
      "y": 384,
      "width": 64,
      "height": 18
    },
    {
      "kind": "elevator",
      "x": 18870,
      "y": 416,
      "width": 64,
      "height": 18
    },
    {
      "kind": "segment",
      "x": 18934,
      "y": 384,
      "width": 64,
      "height": 18
    },
    {
      "kind": "segment",
      "x": 18998,
      "y": 384,
      "width": 64,
      "height": 18
    },
    {
      "kind": "segment",
      "x": 19062,
      "y": 416,
      "width": 64,
      "height": 18
    },
    {
      "kind": "beat",
      "x": 19126,
      "y": 416,
      "width": 64,
      "height": 18
    },
    {
      "kind": "segment",
      "x": 19190,
      "y": 384,
      "width": 64,
      "height": 18
    },
    {
      "kind": "segment",
      "x": 19254,
      "y": 384,
      "width": 64,
      "height": 18
    },
    {
      "kind": "segment",
      "x": 19318,
      "y": 384,
      "width": 64,
      "height": 18
    },
    {
      "kind": "alternateBeat",
      "x": 19382,
      "y": 416,
      "width": 64,
      "height": 18
    },
    {
      "kind": "segment",
      "x": 19446,
      "y": 416,
      "width": 64,
      "height": 18
    },
    {
      "kind": "segment",
      "x": 19510,
      "y": 416,
      "width": 64,
      "height": 18
    },
    {
      "kind": "segment",
      "x": 19574,
      "y": 416,
      "width": 64,
      "height": 18
    },
    {
      "kind": "beat",
      "x": 19638,
      "y": 416,
      "width": 64,
      "height": 18
    },
    {
      "kind": "segment",
      "x": 19702,
      "y": 384,
      "width": 64,
      "height": 18
    },
    {
      "kind": "segment",
      "x": 19766,
      "y": 384,
      "width": 64,
      "height": 18
    },
    {
      "kind": "segment",
      "x": 19830,
      "y": 416,
      "width": 64,
      "height": 18
    },
    {
      "kind": "alternateBeat",
      "x": 19894,
      "y": 384,
      "width": 64,
      "height": 18
    },
    {
      "kind": "segment",
      "x": 19958,
      "y": 416,
      "width": 64,
      "height": 18
    },
    {
      "kind": "segment",
      "x": 20022,
      "y": 416,
      "width": 64,
      "height": 18
    },
    {
      "kind": "segment",
      "x": 20086,
      "y": 416,
      "width": 64,
      "height": 18
    },
    {
      "kind": "elevator",
      "x": 20150,
      "y": 416,
      "width": 64,
      "height": 18
    },
    {
      "kind": "segment",
      "x": 20214,
      "y": 416,
      "width": 64,
      "height": 18
    },
    {
      "kind": "segment",
      "x": 20278,
      "y": 384,
      "width": 64,
      "height": 18
    },
    {
      "kind": "segment",
      "x": 20342,
      "y": 416,
      "width": 64,
      "height": 18
    },
    {
      "kind": "alternateBeat",
      "x": 20406,
      "y": 384,
      "width": 64,
      "height": 18
    },
    {
      "kind": "segment",
      "x": 20470,
      "y": 416,
      "width": 64,
      "height": 18
    },
    {
      "kind": "segment",
      "x": 20534,
      "y": 416,
      "width": 64,
      "height": 18
    },
    {
      "kind": "segment",
      "x": 20598,
      "y": 416,
      "width": 64,
      "height": 18
    },
    {
      "kind": "elevator",
      "x": 20662,
      "y": 384,
      "width": 64,
      "height": 18
    },
    {
      "kind": "segment",
      "x": 20726,
      "y": 384,
      "width": 64,
      "height": 18
    },
    {
      "kind": "segment",
      "x": 20790,
      "y": 384,
      "width": 64,
      "height": 18
    },
    {
      "kind": "segment",
      "x": 20854,
      "y": 384,
      "width": 64,
      "height": 18
    },
    {
      "kind": "beat",
      "x": 20918,
      "y": 384,
      "width": 64,
      "height": 18
    },
    {
      "kind": "segment",
      "x": 20982,
      "y": 384,
      "width": 64,
      "height": 18
    },
    {
      "kind": "segment",
      "x": 21046,
      "y": 384,
      "width": 64,
      "height": 18
    },
    {
      "kind": "alternateBeat",
      "x": 21110,
      "y": 384,
      "width": 64,
      "height": 18
    },
    {
      "kind": "segment",
      "x": 21174,
      "y": 384,
      "width": 64,
      "height": 18
    },
    {
      "kind": "segment",
      "x": 21238,
      "y": 416,
      "width": 64,
      "height": 18
    },
    {
      "kind": "segment",
      "x": 21302,
      "y": 384,
      "width": 64,
      "height": 18
    },
    {
      "kind": "elevator",
      "x": 21366,
      "y": 416,
      "width": 64,
      "height": 18
    },
    {
      "kind": "segment",
      "x": 21430,
      "y": 416,
      "width": 64,
      "height": 18
    },
    {
      "kind": "segment",
      "x": 21494,
      "y": 384,
      "width": 64,
      "height": 18
    },
    {
      "kind": "segment",
      "x": 21558,
      "y": 384,
      "width": 64,
      "height": 18
    },
    {
      "kind": "elevator",
      "x": 21622,
      "y": 416,
      "width": 64,
      "height": 18
    },
    {
      "kind": "segment",
      "x": 21686,
      "y": 416,
      "width": 64,
      "height": 18
    },
    {
      "kind": "segment",
      "x": 21750,
      "y": 384,
      "width": 64,
      "height": 18
    },
    {
      "kind": "segment",
      "x": 21814,
      "y": 384,
      "width": 64,
      "height": 18
    },
    {
      "kind": "alternateBeat",
      "x": 21878,
      "y": 416,
      "width": 64,
      "height": 18
    },
    {
      "kind": "segment",
      "x": 21942,
      "y": 416,
      "width": 64,
      "height": 18
    },
    {
      "kind": "alternateBeat",
      "x": 22006,
      "y": 384,
      "width": 64,
      "height": 18
    },
    {
      "kind": "segment",
      "x": 22070,
      "y": 384,
      "width": 64,
      "height": 18
    },
    {
      "kind": "segment",
      "x": 22134,
      "y": 416,
      "width": 64,
      "height": 18
    },
    {
      "kind": "segment",
      "x": 22198,
      "y": 384,
      "width": 64,
      "height": 18
    },
    {
      "kind": "alternateBeat",
      "x": 22262,
      "y": 416,
      "width": 64,
      "height": 18
    },
    {
      "kind": "segment",
      "x": 22326,
      "y": 384,
      "width": 64,
      "height": 18
    },
    {
      "kind": "segment",
      "x": 22390,
      "y": 416,
      "width": 64,
      "height": 18
    },
    {
      "kind": "segment",
      "x": 22454,
      "y": 416,
      "width": 64,
      "height": 18
    },
    {
      "kind": "elevator",
      "x": 22518,
      "y": 384,
      "width": 64,
      "height": 18
    },
    {
      "kind": "segment",
      "x": 22582,
      "y": 384,
      "width": 64,
      "height": 18
    },
    {
      "kind": "segment",
      "x": 22646,
      "y": 384,
      "width": 64,
      "height": 18
    },
    {
      "kind": "segment",
      "x": 22710,
      "y": 384,
      "width": 64,
      "height": 18
    },
    {
      "kind": "alternateBeat",
      "x": 22774,
      "y": 416,
      "width": 64,
      "height": 18
    },
    {
      "kind": "segment",
      "x": 22838,
      "y": 416,
      "width": 64,
      "height": 18
    },
    {
      "kind": "segment",
      "x": 22902,
      "y": 384,
      "width": 64,
      "height": 18
    },
    {
      "kind": "segment",
      "x": 22966,
      "y": 384,
      "width": 64,
      "height": 18
    },
    {
      "kind": "beat",
      "x": 23030,
      "y": 416,
      "width": 64,
      "height": 18
    },
    {
      "kind": "segment",
      "x": 23094,
      "y": 384,
      "width": 64,
      "height": 18
    },
    {
      "kind": "segment",
      "x": 23158,
      "y": 384,
      "width": 64,
      "height": 18
    },
    {
      "kind": "segment",
      "x": 23222,
      "y": 416,
      "width": 64,
      "height": 18
    },
    {
      "kind": "beat",
      "x": 23286,
      "y": 416,
      "width": 64,
      "height": 18
    },
    {
      "kind": "segment",
      "x": 23350,
      "y": 384,
      "width": 64,
      "height": 18
    },
    {
      "kind": "segment",
      "x": 23414,
      "y": 416,
      "width": 64,
      "height": 18
    },
    {
      "kind": "segment",
      "x": 23478,
      "y": 384,
      "width": 64,
      "height": 18
    },
    {
      "kind": "elevator",
      "x": 23542,
      "y": 384,
      "width": 64,
      "height": 18
    },
    {
      "kind": "segment",
      "x": 23606,
      "y": 416,
      "width": 64,
      "height": 18
    },
    {
      "kind": "segment",
      "x": 23670,
      "y": 384,
      "width": 64,
      "height": 18
    },
    {
      "kind": "segment",
      "x": 23734,
      "y": 416,
      "width": 64,
      "height": 18
    },
    {
      "kind": "beat",
      "x": 23798,
      "y": 384,
      "width": 64,
      "height": 18
    },
    {
      "kind": "segment",
      "x": 23862,
      "y": 416,
      "width": 64,
      "height": 18
    },
    {
      "kind": "segment",
      "x": 23926,
      "y": 416,
      "width": 64,
      "height": 18
    },
    {
      "kind": "segment",
      "x": 23990,
      "y": 416,
      "width": 64,
      "height": 18
    },
    {
      "kind": "alternateBeat",
      "x": 24054,
      "y": 416,
      "width": 64,
      "height": 18
    },
    {
      "kind": "segment",
      "x": 24118,
      "y": 416,
      "width": 64,
      "height": 18
    },
    {
      "kind": "segment",
      "x": 24182,
      "y": 416,
      "width": 64,
      "height": 18
    },
    {
      "kind": "segment",
      "x": 24246,
      "y": 384,
      "width": 64,
      "height": 18
    },
    {
      "kind": "beat",
      "x": 24310,
      "y": 416,
      "width": 64,
      "height": 18
    },
    {
      "kind": "segment",
      "x": 24374,
      "y": 416,
      "width": 64,
      "height": 18
    },
    {
      "kind": "segment",
      "x": 24438,
      "y": 416,
      "width": 64,
      "height": 18
    },
    {
      "kind": "segment",
      "x": 24502,
      "y": 416,
      "width": 64,
      "height": 18
    },
    {
      "kind": "elevator",
      "x": 24566,
      "y": 384,
      "width": 64,
      "height": 18
    },
    {
      "kind": "segment",
      "x": 24630,
      "y": 416,
      "width": 64,
      "height": 18
    },
    {
      "kind": "segment",
      "x": 24694,
      "y": 416,
      "width": 64,
      "height": 18
    },
    {
      "kind": "segment",
      "x": 24758,
      "y": 384,
      "width": 64,
      "height": 18
    },
    {
      "kind": "beat",
      "x": 24822,
      "y": 384,
      "width": 64,
      "height": 18
    },
    {
      "kind": "segment",
      "x": 24886,
      "y": 416,
      "width": 64,
      "height": 18
    },
    {
      "kind": "segment",
      "x": 24950,
      "y": 384,
      "width": 64,
      "height": 18
    },
    {
      "kind": "segment",
      "x": 25014,
      "y": 416,
      "width": 64,
      "height": 18
    },
    {
      "kind": "beat",
      "x": 25078,
      "y": 384,
      "width": 64,
      "height": 18
    },
    {
      "kind": "segment",
      "x": 25142,
      "y": 384,
      "width": 64,
      "height": 18
    },
    {
      "kind": "segment",
      "x": 25206,
      "y": 416,
      "width": 64,
      "height": 18
    },
    {
      "kind": "segment",
      "x": 25270,
      "y": 416,
      "width": 64,
      "height": 18
    },
    {
      "kind": "elevator",
      "x": 25334,
      "y": 384,
      "width": 64,
      "height": 18
    },
    {
      "kind": "segment",
      "x": 25398,
      "y": 416,
      "width": 64,
      "height": 18
    },
    {
      "kind": "segment",
      "x": 25462,
      "y": 416,
      "width": 64,
      "height": 18
    },
    {
      "kind": "segment",
      "x": 25526,
      "y": 416,
      "width": 64,
      "height": 18
    },
    {
      "kind": "alternateBeat",
      "x": 25590,
      "y": 416,
      "width": 64,
      "height": 18
    },
    {
      "kind": "segment",
      "x": 25654,
      "y": 416,
      "width": 64,
      "height": 18
    },
    {
      "kind": "segment",
      "x": 25718,
      "y": 416,
      "width": 64,
      "height": 18
    },
    {
      "kind": "segment",
      "x": 25782,
      "y": 384,
      "width": 64,
      "height": 18
    },
    {
      "kind": "elevator",
      "x": 25846,
      "y": 416,
      "width": 64,
      "height": 18
    },
    {
      "kind": "segment",
      "x": 25910,
      "y": 384,
      "width": 64,
      "height": 18
    },
    {
      "kind": "segment",
      "x": 25974,
      "y": 416,
      "width": 64,
      "height": 18
    },
    {
      "kind": "segment",
      "x": 26038,
      "y": 384,
      "width": 64,
      "height": 18
    },
    {
      "kind": "beat",
      "x": 26102,
      "y": 416,
      "width": 64,
      "height": 18
    },
    {
      "kind": "segment",
      "x": 26166,
      "y": 416,
      "width": 64,
      "height": 18
    },
    {
      "kind": "segment",
      "x": 26230,
      "y": 384,
      "width": 64,
      "height": 18
    },
    {
      "kind": "segment",
      "x": 26294,
      "y": 384,
      "width": 64,
      "height": 18
    },
    {
      "kind": "elevator",
      "x": 26358,
      "y": 384,
      "width": 64,
      "height": 18
    },
    {
      "kind": "segment",
      "x": 26422,
      "y": 384,
      "width": 64,
      "height": 18
    },
    {
      "kind": "segment",
      "x": 26486,
      "y": 416,
      "width": 64,
      "height": 18
    },
    {
      "kind": "segment",
      "x": 26550,
      "y": 384,
      "width": 64,
      "height": 18
    },
    {
      "kind": "beat",
      "x": 26614,
      "y": 384,
      "width": 64,
      "height": 18
    },
    {
      "kind": "segment",
      "x": 26678,
      "y": 416,
      "width": 64,
      "height": 18
    },
    {
      "kind": "segment",
      "x": 26742,
      "y": 384,
      "width": 64,
      "height": 18
    },
    {
      "kind": "segment",
      "x": 26806,
      "y": 384,
      "width": 64,
      "height": 18
    },
    {
      "kind": "beat",
      "x": 26870,
      "y": 384,
      "width": 64,
      "height": 18
    },
    {
      "kind": "segment",
      "x": 26934,
      "y": 416,
      "width": 64,
      "height": 18
    },
    {
      "kind": "segment",
      "x": 26998,
      "y": 416,
      "width": 64,
      "height": 18
    },
    {
      "kind": "segment",
      "x": 27062,
      "y": 384,
      "width": 64,
      "height": 18
    },
    {
      "kind": "elevator",
      "x": 27126,
      "y": 416,
      "width": 64,
      "height": 18
    },
    {
      "kind": "segment",
      "x": 27190,
      "y": 384,
      "width": 64,
      "height": 18
    },
    {
      "kind": "alternateBeat",
      "x": 27254,
      "y": 384,
      "width": 64,
      "height": 18
    },
    {
      "kind": "segment",
      "x": 27318,
      "y": 384,
      "width": 64,
      "height": 18
    },
    {
      "kind": "segment",
      "x": 27382,
      "y": 416,
      "width": 64,
      "height": 18
    },
    {
      "kind": "segment",
      "x": 27446,
      "y": 384,
      "width": 64,
      "height": 18
    },
    {
      "kind": "alternateBeat",
      "x": 27510,
      "y": 384,
      "width": 64,
      "height": 18
    },
    {
      "kind": "segment",
      "x": 27574,
      "y": 384,
      "width": 64,
      "height": 18
    },
    {
      "kind": "alternateBeat",
      "x": 27638,
      "y": 384,
      "width": 64,
      "height": 18
    },
    {
      "kind": "segment",
      "x": 27702,
      "y": 416,
      "width": 64,
      "height": 18
    },
    {
      "kind": "segment",
      "x": 27766,
      "y": 416,
      "width": 64,
      "height": 18
    },
    {
      "kind": "segment",
      "x": 27830,
      "y": 384,
      "width": 64,
      "height": 18
    },
    {
      "kind": "elevator",
      "x": 27894,
      "y": 416,
      "width": 64,
      "height": 18
    },
    {
      "kind": "segment",
      "x": 27958,
      "y": 416,
      "width": 64,
      "height": 18
    },
    {
      "kind": "segment",
      "x": 28022,
      "y": 416,
      "width": 64,
      "height": 18
    },
    {
      "kind": "segment",
      "x": 28086,
      "y": 384,
      "width": 64,
      "height": 18
    },
    {
      "kind": "alternateBeat",
      "x": 28150,
      "y": 384,
      "width": 64,
      "height": 18
    },
    {
      "kind": "segment",
      "x": 28214,
      "y": 384,
      "width": 64,
      "height": 18
    },
    {
      "kind": "segment",
      "x": 28278,
      "y": 416,
      "width": 64,
      "height": 18
    },
    {
      "kind": "segment",
      "x": 28342,
      "y": 416,
      "width": 64,
      "height": 18
    },
    {
      "kind": "beat",
      "x": 28406,
      "y": 384,
      "width": 64,
      "height": 18
    },
    {
      "kind": "segment",
      "x": 28470,
      "y": 416,
      "width": 64,
      "height": 18
    },
    {
      "kind": "segment",
      "x": 28534,
      "y": 384,
      "width": 64,
      "height": 18
    },
    {
      "kind": "segment",
      "x": 28598,
      "y": 416,
      "width": 64,
      "height": 18
    },
    {
      "kind": "beat",
      "x": 28662,
      "y": 416,
      "width": 64,
      "height": 18
    },
    {
      "kind": "segment",
      "x": 28726,
      "y": 384,
      "width": 64,
      "height": 18
    },
    {
      "kind": "segment",
      "x": 28790,
      "y": 384,
      "width": 64,
      "height": 18
    },
    {
      "kind": "beat",
      "x": 28854,
      "y": 384,
      "width": 64,
      "height": 18
    },
    {
      "kind": "segment",
      "x": 28918,
      "y": 384,
      "width": 64,
      "height": 18
    },
    {
      "kind": "segment",
      "x": 28982,
      "y": 384,
      "width": 64,
      "height": 18
    },
    {
      "kind": "segment",
      "x": 29046,
      "y": 416,
      "width": 64,
      "height": 18
    },
    {
      "kind": "alternateBeat",
      "x": 29110,
      "y": 384,
      "width": 64,
      "height": 18
    },
    {
      "kind": "segment",
      "x": 29174,
      "y": 416,
      "width": 64,
      "height": 18
    },
    {
      "kind": "segment",
      "x": 29238,
      "y": 384,
      "width": 64,
      "height": 18
    },
    {
      "kind": "segment",
      "x": 29302,
      "y": 384,
      "width": 64,
      "height": 18
    },
    {
      "kind": "elevator",
      "x": 29366,
      "y": 416,
      "width": 64,
      "height": 18
    },
    {
      "kind": "segment",
      "x": 29430,
      "y": 384,
      "width": 64,
      "height": 18
    },
    {
      "kind": "segment",
      "x": 29494,
      "y": 416,
      "width": 64,
      "height": 18
    },
    {
      "kind": "segment",
      "x": 29558,
      "y": 416,
      "width": 64,
      "height": 18
    },
    {
      "kind": "beat",
      "x": 29622,
      "y": 384,
      "width": 64,
      "height": 18
    },
    {
      "kind": "segment",
      "x": 29686,
      "y": 416,
      "width": 64,
      "height": 18
    },
    {
      "kind": "segment",
      "x": 29750,
      "y": 416,
      "width": 64,
      "height": 18
    },
    {
      "kind": "segment",
      "x": 29814,
      "y": 384,
      "width": 64,
      "height": 18
    },
    {
      "kind": "elevator",
      "x": 29878,
      "y": 384,
      "width": 64,
      "height": 18
    },
    {
      "kind": "segment",
      "x": 29942,
      "y": 384,
      "width": 64,
      "height": 18
    },
    {
      "kind": "segment",
      "x": 30006,
      "y": 416,
      "width": 64,
      "height": 18
    },
    {
      "kind": "segment",
      "x": 30070,
      "y": 384,
      "width": 64,
      "height": 18
    },
    {
      "kind": "elevator",
      "x": 30134,
      "y": 384,
      "width": 64,
      "height": 18
    },
    {
      "kind": "segment",
      "x": 30198,
      "y": 384,
      "width": 64,
      "height": 18
    },
    {
      "kind": "segment",
      "x": 30262,
      "y": 384,
      "width": 64,
      "height": 18
    },
    {
      "kind": "segment",
      "x": 30326,
      "y": 416,
      "width": 64,
      "height": 18
    },
    {
      "kind": "beat",
      "x": 30390,
      "y": 384,
      "width": 64,
      "height": 18
    },
    {
      "kind": "segment",
      "x": 30454,
      "y": 416,
      "width": 64,
      "height": 18
    },
    {
      "kind": "segment",
      "x": 30518,
      "y": 384,
      "width": 64,
      "height": 18
    },
    {
      "kind": "segment",
      "x": 30582,
      "y": 384,
      "width": 64,
      "height": 18
    },
    {
      "kind": "beat",
      "x": 30646,
      "y": 384,
      "width": 64,
      "height": 18
    },
    {
      "kind": "segment",
      "x": 30710,
      "y": 384,
      "width": 64,
      "height": 18
    },
    {
      "kind": "segment",
      "x": 30774,
      "y": 384,
      "width": 64,
      "height": 18
    },
    {
      "kind": "segment",
      "x": 30838,
      "y": 416,
      "width": 64,
      "height": 18
    },
    {
      "kind": "beat",
      "x": 30902,
      "y": 384,
      "width": 64,
      "height": 18
    },
    {
      "kind": "segment",
      "x": 30966,
      "y": 384,
      "width": 64,
      "height": 18
    },
    {
      "kind": "segment",
      "x": 31030,
      "y": 416,
      "width": 64,
      "height": 18
    },
    {
      "kind": "segment",
      "x": 31094,
      "y": 416,
      "width": 64,
      "height": 18
    },
    {
      "kind": "beat",
      "x": 31158,
      "y": 416,
      "width": 64,
      "height": 18
    },
    {
      "kind": "segment",
      "x": 31222,
      "y": 384,
      "width": 64,
      "height": 18
    },
    {
      "kind": "segment",
      "x": 31286,
      "y": 384,
      "width": 64,
      "height": 18
    },
    {
      "kind": "segment",
      "x": 31350,
      "y": 384,
      "width": 64,
      "height": 18
    },
    {
      "kind": "elevator",
      "x": 31414,
      "y": 384,
      "width": 64,
      "height": 18
    },
    {
      "kind": "segment",
      "x": 31478,
      "y": 384,
      "width": 64,
      "height": 18
    },
    {
      "kind": "segment",
      "x": 31542,
      "y": 384,
      "width": 64,
      "height": 18
    },
    {
      "kind": "segment",
      "x": 31606,
      "y": 384,
      "width": 64,
      "height": 18
    },
    {
      "kind": "alternateBeat",
      "x": 31670,
      "y": 416,
      "width": 64,
      "height": 18
    },
    {
      "kind": "segment",
      "x": 31734,
      "y": 384,
      "width": 64,
      "height": 18
    },
    {
      "kind": "segment",
      "x": 31798,
      "y": 384,
      "width": 64,
      "height": 18
    },
    {
      "kind": "segment",
      "x": 31862,
      "y": 416,
      "width": 64,
      "height": 18
    },
    {
      "kind": "elevator",
      "x": 31926,
      "y": 416,
      "width": 64,
      "height": 18
    },
    {
      "kind": "segment",
      "x": 31990,
      "y": 384,
      "width": 64,
      "height": 18
    },
    {
      "kind": "segment",
      "x": 32054,
      "y": 384,
      "width": 64,
      "height": 18
    },
    {
      "kind": "segment",
      "x": 32118,
      "y": 384,
      "width": 64,
      "height": 18
    },
    {
      "kind": "elevator",
      "x": 32182,
      "y": 384,
      "width": 64,
      "height": 18
    },
    {
      "kind": "segment",
      "x": 32246,
      "y": 416,
      "width": 64,
      "height": 18
    },
    {
      "kind": "segment",
      "x": 32310,
      "y": 384,
      "width": 64,
      "height": 18
    },
    {
      "kind": "segment",
      "x": 32374,
      "y": 384,
      "width": 64,
      "height": 18
    },
    {
      "kind": "alternateBeat",
      "x": 32438,
      "y": 384,
      "width": 64,
      "height": 18
    },
    {
      "kind": "segment",
      "x": 32502,
      "y": 384,
      "width": 64,
      "height": 18
    },
    {
      "kind": "segment",
      "x": 32566,
      "y": 384,
      "width": 64,
      "height": 18
    },
    {
      "kind": "segment",
      "x": 32630,
      "y": 416,
      "width": 64,
      "height": 18
    },
    {
      "kind": "alternateBeat",
      "x": 32694,
      "y": 384,
      "width": 64,
      "height": 18
    },
    {
      "kind": "segment",
      "x": 32758,
      "y": 416,
      "width": 64,
      "height": 18
    },
    {
      "kind": "segment",
      "x": 32822,
      "y": 384,
      "width": 64,
      "height": 18
    },
    {
      "kind": "segment",
      "x": 32886,
      "y": 384,
      "width": 64,
      "height": 18
    },
    {
      "kind": "beat",
      "x": 32950,
      "y": 384,
      "width": 64,
      "height": 18
    },
    {
      "kind": "segment",
      "x": 33014,
      "y": 384,
      "width": 64,
      "height": 18
    },
    {
      "kind": "segment",
      "x": 33078,
      "y": 416,
      "width": 64,
      "height": 18
    },
    {
      "kind": "segment",
      "x": 33142,
      "y": 384,
      "width": 64,
      "height": 18
    },
    {
      "kind": "alternateBeat",
      "x": 33206,
      "y": 416,
      "width": 64,
      "height": 18
    },
    {
      "kind": "segment",
      "x": 33270,
      "y": 384,
      "width": 64,
      "height": 18
    },
    {
      "kind": "segment",
      "x": 33334,
      "y": 416,
      "width": 64,
      "height": 18
    },
    {
      "kind": "segment",
      "x": 33398,
      "y": 416,
      "width": 64,
      "height": 18
    },
    {
      "kind": "beat",
      "x": 33462,
      "y": 384,
      "width": 64,
      "height": 18
    },
    {
      "kind": "segment",
      "x": 33526,
      "y": 416,
      "width": 64,
      "height": 18
    },
    {
      "kind": "segment",
      "x": 33590,
      "y": 384,
      "width": 64,
      "height": 18
    },
    {
      "kind": "segment",
      "x": 33654,
      "y": 384,
      "width": 64,
      "height": 18
    },
    {
      "kind": "elevator",
      "x": 33718,
      "y": 416,
      "width": 64,
      "height": 18
    },
    {
      "kind": "segment",
      "x": 33782,
      "y": 416,
      "width": 64,
      "height": 18
    },
    {
      "kind": "segment",
      "x": 33846,
      "y": 416,
      "width": 64,
      "height": 18
    },
    {
      "kind": "segment",
      "x": 33910,
      "y": 416,
      "width": 64,
      "height": 18
    },
    {
      "kind": "alternateBeat",
      "x": 33974,
      "y": 416,
      "width": 64,
      "height": 18
    },
    {
      "kind": "segment",
      "x": 34038,
      "y": 416,
      "width": 64,
      "height": 18
    },
    {
      "kind": "segment",
      "x": 34102,
      "y": 416,
      "width": 64,
      "height": 18
    },
    {
      "kind": "segment",
      "x": 34166,
      "y": 416,
      "width": 64,
      "height": 18
    },
    {
      "kind": "alternateBeat",
      "x": 34230,
      "y": 416,
      "width": 64,
      "height": 18
    },
    {
      "kind": "segment",
      "x": 34294,
      "y": 416,
      "width": 64,
      "height": 18
    },
    {
      "kind": "segment",
      "x": 34358,
      "y": 384,
      "width": 64,
      "height": 18
    },
    {
      "kind": "segment",
      "x": 34422,
      "y": 416,
      "width": 64,
      "height": 18
    },
    {
      "kind": "alternateBeat",
      "x": 34486,
      "y": 384,
      "width": 64,
      "height": 18
    },
    {
      "kind": "segment",
      "x": 34550,
      "y": 384,
      "width": 64,
      "height": 18
    },
    {
      "kind": "segment",
      "x": 34614,
      "y": 384,
      "width": 64,
      "height": 18
    },
    {
      "kind": "segment",
      "x": 34678,
      "y": 416,
      "width": 64,
      "height": 18
    },
    {
      "kind": "alternateBeat",
      "x": 34742,
      "y": 416,
      "width": 64,
      "height": 18
    },
    {
      "kind": "segment",
      "x": 34806,
      "y": 384,
      "width": 64,
      "height": 18
    },
    {
      "kind": "segment",
      "x": 34870,
      "y": 416,
      "width": 64,
      "height": 18
    },
    {
      "kind": "segment",
      "x": 34934,
      "y": 384,
      "width": 64,
      "height": 18
    },
    {
      "kind": "alternateBeat",
      "x": 34998,
      "y": 416,
      "width": 64,
      "height": 18
    },
    {
      "kind": "segment",
      "x": 35062,
      "y": 384,
      "width": 64,
      "height": 18
    },
    {
      "kind": "segment",
      "x": 35126,
      "y": 416,
      "width": 64,
      "height": 18
    },
    {
      "kind": "segment",
      "x": 35190,
      "y": 384,
      "width": 64,
      "height": 18
    },
    {
      "kind": "beat",
      "x": 35254,
      "y": 416,
      "width": 64,
      "height": 18
    },
    {
      "kind": "segment",
      "x": 35318,
      "y": 384,
      "width": 64,
      "height": 18
    },
    {
      "kind": "segment",
      "x": 35382,
      "y": 384,
      "width": 64,
      "height": 18
    },
    {
      "kind": "segment",
      "x": 35446,
      "y": 384,
      "width": 64,
      "height": 18
    },
    {
      "kind": "alternateBeat",
      "x": 35510,
      "y": 384,
      "width": 64,
      "height": 18
    },
    {
      "kind": "segment",
      "x": 35574,
      "y": 384,
      "width": 64,
      "height": 18
    },
    {
      "kind": "segment",
      "x": 35638,
      "y": 384,
      "width": 64,
      "height": 18
    },
    {
      "kind": "segment",
      "x": 35702,
      "y": 384,
      "width": 64,
      "height": 18
    },
    {
      "kind": "beat",
      "x": 35766,
      "y": 384,
      "width": 64,
      "height": 18
    },
    {
      "kind": "segment",
      "x": 35830,
      "y": 384,
      "width": 64,
      "height": 18
    },
    {
      "kind": "segment",
      "x": 35894,
      "y": 384,
      "width": 64,
      "height": 18
    },
    {
      "kind": "segment",
      "x": 35958,
      "y": 416,
      "width": 64,
      "height": 18
    },
    {
      "kind": "alternateBeat",
      "x": 36022,
      "y": 384,
      "width": 64,
      "height": 18
    },
    {
      "kind": "segment",
      "x": 36086,
      "y": 416,
      "width": 64,
      "height": 18
    },
    {
      "kind": "segment",
      "x": 36150,
      "y": 384,
      "width": 64,
      "height": 18
    },
    {
      "kind": "segment",
      "x": 36214,
      "y": 416,
      "width": 64,
      "height": 18
    },
    {
      "kind": "alternateBeat",
      "x": 36278,
      "y": 416,
      "width": 64,
      "height": 18
    },
    {
      "kind": "segment",
      "x": 36342,
      "y": 416,
      "width": 64,
      "height": 18
    },
    {
      "kind": "segment",
      "x": 36406,
      "y": 416,
      "width": 64,
      "height": 18
    },
    {
      "kind": "segment",
      "x": 36470,
      "y": 416,
      "width": 64,
      "height": 18
    },
    {
      "kind": "alternateBeat",
      "x": 36534,
      "y": 416,
      "width": 64,
      "height": 18
    },
    {
      "kind": "segment",
      "x": 36598,
      "y": 416,
      "width": 64,
      "height": 18
    },
    {
      "kind": "segment",
      "x": 36662,
      "y": 384,
      "width": 64,
      "height": 18
    },
    {
      "kind": "segment",
      "x": 36726,
      "y": 384,
      "width": 64,
      "height": 18
    },
    {
      "kind": "elevator",
      "x": 36790,
      "y": 416,
      "width": 64,
      "height": 18
    },
    {
      "kind": "segment",
      "x": 36854,
      "y": 416,
      "width": 64,
      "height": 18
    },
    {
      "kind": "segment",
      "x": 36918,
      "y": 384,
      "width": 64,
      "height": 18
    },
    {
      "kind": "segment",
      "x": 36982,
      "y": 384,
      "width": 64,
      "height": 18
    },
    {
      "kind": "beat",
      "x": 37046,
      "y": 384,
      "width": 64,
      "height": 18
    },
    {
      "kind": "segment",
      "x": 37110,
      "y": 416,
      "width": 64,
      "height": 18
    },
    {
      "kind": "segment",
      "x": 37174,
      "y": 416,
      "width": 64,
      "height": 18
    },
    {
      "kind": "segment",
      "x": 37238,
      "y": 416,
      "width": 64,
      "height": 18
    },
    {
      "kind": "alternateBeat",
      "x": 37302,
      "y": 384,
      "width": 64,
      "height": 18
    },
    {
      "kind": "segment",
      "x": 37366,
      "y": 416,
      "width": 64,
      "height": 18
    },
    {
      "kind": "segment",
      "x": 37430,
      "y": 416,
      "width": 64,
      "height": 18
    },
    {
      "kind": "segment",
      "x": 37494,
      "y": 384,
      "width": 64,
      "height": 18
    },
    {
      "kind": "beat",
      "x": 37558,
      "y": 384,
      "width": 64,
      "height": 18
    },
    {
      "kind": "segment",
      "x": 37622,
      "y": 416,
      "width": 64,
      "height": 18
    },
    {
      "kind": "segment",
      "x": 37686,
      "y": 384,
      "width": 64,
      "height": 18
    },
    {
      "kind": "segment",
      "x": 37750,
      "y": 384,
      "width": 64,
      "height": 18
    },
    {
      "kind": "elevator",
      "x": 37814,
      "y": 384,
      "width": 64,
      "height": 18
    },
    {
      "kind": "segment",
      "x": 37878,
      "y": 416,
      "width": 64,
      "height": 18
    },
    {
      "kind": "segment",
      "x": 37942,
      "y": 384,
      "width": 64,
      "height": 18
    },
    {
      "kind": "segment",
      "x": 38006,
      "y": 416,
      "width": 64,
      "height": 18
    },
    {
      "kind": "elevator",
      "x": 38070,
      "y": 416,
      "width": 64,
      "height": 18
    },
    {
      "kind": "segment",
      "x": 38134,
      "y": 384,
      "width": 64,
      "height": 18
    },
    {
      "kind": "segment",
      "x": 38198,
      "y": 416,
      "width": 64,
      "height": 18
    },
    {
      "kind": "segment",
      "x": 38262,
      "y": 384,
      "width": 64,
      "height": 18
    },
    {
      "kind": "elevator",
      "x": 38326,
      "y": 384,
      "width": 64,
      "height": 18
    },
    {
      "kind": "segment",
      "x": 38390,
      "y": 384,
      "width": 64,
      "height": 18
    },
    {
      "kind": "segment",
      "x": 38454,
      "y": 416,
      "width": 64,
      "height": 18
    },
    {
      "kind": "segment",
      "x": 38518,
      "y": 416,
      "width": 64,
      "height": 18
    },
    {
      "kind": "beat",
      "x": 38582,
      "y": 384,
      "width": 64,
      "height": 18
    },
    {
      "kind": "segment",
      "x": 38646,
      "y": 384,
      "width": 64,
      "height": 18
    },
    {
      "kind": "segment",
      "x": 38710,
      "y": 416,
      "width": 64,
      "height": 18
    },
    {
      "kind": "segment",
      "x": 38774,
      "y": 416,
      "width": 64,
      "height": 18
    },
    {
      "kind": "elevator",
      "x": 38838,
      "y": 416,
      "width": 64,
      "height": 18
    },
    {
      "kind": "segment",
      "x": 38902,
      "y": 384,
      "width": 64,
      "height": 18
    },
    {
      "kind": "segment",
      "x": 38966,
      "y": 416,
      "width": 64,
      "height": 18
    },
    {
      "kind": "segment",
      "x": 39030,
      "y": 416,
      "width": 64,
      "height": 18
    },
    {
      "kind": "alternateBeat",
      "x": 39094,
      "y": 416,
      "width": 64,
      "height": 18
    },
    {
      "kind": "segment",
      "x": 39158,
      "y": 384,
      "width": 64,
      "height": 18
    },
    {
      "kind": "segment",
      "x": 39222,
      "y": 384,
      "width": 64,
      "height": 18
    },
    {
      "kind": "segment",
      "x": 39286,
      "y": 416,
      "width": 64,
      "height": 18
    },
    {
      "kind": "beat",
      "x": 39350,
      "y": 384,
      "width": 64,
      "height": 18
    },
    {
      "kind": "segment",
      "x": 39414,
      "y": 416,
      "width": 64,
      "height": 18
    },
    {
      "kind": "segment",
      "x": 39478,
      "y": 416,
      "width": 64,
      "height": 18
    },
    {
      "kind": "segment",
      "x": 39542,
      "y": 384,
      "width": 64,
      "height": 18
    },
    {
      "kind": "alternateBeat",
      "x": 39606,
      "y": 384,
      "width": 64,
      "height": 18
    },
    {
      "kind": "segment",
      "x": 39670,
      "y": 416,
      "width": 64,
      "height": 18
    },
    {
      "kind": "segment",
      "x": 39734,
      "y": 384,
      "width": 64,
      "height": 18
    },
    {
      "kind": "segment",
      "x": 39798,
      "y": 416,
      "width": 64,
      "height": 18
    },
    {
      "kind": "beat",
      "x": 39862,
      "y": 384,
      "width": 64,
      "height": 18
    },
    {
      "kind": "segment",
      "x": 39926,
      "y": 384,
      "width": 64,
      "height": 18
    },
    {
      "kind": "segment",
      "x": 39990,
      "y": 416,
      "width": 64,
      "height": 18
    },
    {
      "kind": "segment",
      "x": 40054,
      "y": 384,
      "width": 64,
      "height": 18
    },
    {
      "kind": "beat",
      "x": 40118,
      "y": 384,
      "width": 64,
      "height": 18
    },
    {
      "kind": "segment",
      "x": 40182,
      "y": 384,
      "width": 64,
      "height": 18
    },
    {
      "kind": "segment",
      "x": 40246,
      "y": 416,
      "width": 64,
      "height": 18
    },
    {
      "kind": "segment",
      "x": 40310,
      "y": 384,
      "width": 64,
      "height": 18
    },
    {
      "kind": "alternateBeat",
      "x": 40374,
      "y": 384,
      "width": 64,
      "height": 18
    },
    {
      "kind": "segment",
      "x": 40438,
      "y": 384,
      "width": 64,
      "height": 18
    },
    {
      "kind": "segment",
      "x": 40502,
      "y": 384,
      "width": 64,
      "height": 18
    },
    {
      "kind": "segment",
      "x": 40566,
      "y": 416,
      "width": 64,
      "height": 18
    },
    {
      "kind": "beat",
      "x": 40630,
      "y": 416,
      "width": 64,
      "height": 18
    },
    {
      "kind": "segment",
      "x": 40694,
      "y": 416,
      "width": 64,
      "height": 18
    },
    {
      "kind": "segment",
      "x": 40758,
      "y": 416,
      "width": 64,
      "height": 18
    },
    {
      "kind": "segment",
      "x": 40822,
      "y": 416,
      "width": 64,
      "height": 18
    },
    {
      "kind": "elevator",
      "x": 40886,
      "y": 416,
      "width": 64,
      "height": 18
    },
    {
      "kind": "segment",
      "x": 40950,
      "y": 416,
      "width": 64,
      "height": 18
    },
    {
      "kind": "segment",
      "x": 41014,
      "y": 416,
      "width": 64,
      "height": 18
    },
    {
      "kind": "segment",
      "x": 41078,
      "y": 416,
      "width": 64,
      "height": 18
    },
    {
      "kind": "elevator",
      "x": 41142,
      "y": 384,
      "width": 64,
      "height": 18
    },
    {
      "kind": "segment",
      "x": 41206,
      "y": 416,
      "width": 64,
      "height": 18
    },
    {
      "kind": "segment",
      "x": 41270,
      "y": 384,
      "width": 64,
      "height": 18
    },
    {
      "kind": "segment",
      "x": 41334,
      "y": 416,
      "width": 64,
      "height": 18
    },
    {
      "kind": "alternateBeat",
      "x": 41398,
      "y": 416,
      "width": 64,
      "height": 18
    },
    {
      "kind": "segment",
      "x": 41462,
      "y": 384,
      "width": 64,
      "height": 18
    },
    {
      "kind": "segment",
      "x": 41526,
      "y": 384,
      "width": 64,
      "height": 18
    },
    {
      "kind": "segment",
      "x": 41590,
      "y": 416,
      "width": 64,
      "height": 18
    },
    {
      "kind": "alternateBeat",
      "x": 41654,
      "y": 416,
      "width": 64,
      "height": 18
    },
    {
      "kind": "segment",
      "x": 41718,
      "y": 416,
      "width": 64,
      "height": 18
    },
    {
      "kind": "segment",
      "x": 41782,
      "y": 416,
      "width": 64,
      "height": 18
    },
    {
      "kind": "segment",
      "x": 41846,
      "y": 384,
      "width": 64,
      "height": 18
    },
    {
      "kind": "alternateBeat",
      "x": 41910,
      "y": 416,
      "width": 64,
      "height": 18
    },
    {
      "kind": "segment",
      "x": 41974,
      "y": 384,
      "width": 64,
      "height": 18
    },
    {
      "kind": "segment",
      "x": 42038,
      "y": 384,
      "width": 64,
      "height": 18
    },
    {
      "kind": "segment",
      "x": 42102,
      "y": 320,
      "width": 64,
      "height": 18
    },
    {
      "kind": "segment",
      "x": 42166,
      "y": 256,
      "width": 64,
      "height": 18
    },
    {
      "kind": "segment",
      "x": 42230,
      "y": 192,
      "width": 64,
      "height": 18
    }
  ],
  "segmentEnemies": [
    {
      "segmentIndex": 4,
      "patrolCount": 0,
      "flyingSpawnIntervalMs": 3400,
      "fallingRockSpawnIntervalMs": 0
    },
    {
      "segmentIndex": 9,
      "patrolCount": 0,
      "flyingSpawnIntervalMs": 3400,
      "fallingRockSpawnIntervalMs": 0
    },
    {
      "segmentIndex": 14,
      "patrolCount": 0,
      "flyingSpawnIntervalMs": 3400,
      "fallingRockSpawnIntervalMs": 0
    },
    {
      "segmentIndex": 19,
      "patrolCount": 0,
      "flyingSpawnIntervalMs": 3400,
      "fallingRockSpawnIntervalMs": 0
    },
    {
      "segmentIndex": 24,
      "patrolCount": 0,
      "flyingSpawnIntervalMs": 3400,
      "fallingRockSpawnIntervalMs": 0
    },
    {
      "segmentIndex": 29,
      "patrolCount": 0,
      "flyingSpawnIntervalMs": 3400,
      "fallingRockSpawnIntervalMs": 0
    },
    {
      "segmentIndex": 34,
      "patrolCount": 0,
      "flyingSpawnIntervalMs": 3400,
      "fallingRockSpawnIntervalMs": 0
    },
    {
      "segmentIndex": 39,
      "patrolCount": 0,
      "flyingSpawnIntervalMs": 3400,
      "fallingRockSpawnIntervalMs": 0
    },
    {
      "segmentIndex": 44,
      "patrolCount": 0,
      "flyingSpawnIntervalMs": 3400,
      "fallingRockSpawnIntervalMs": 0
    },
    {
      "segmentIndex": 49,
      "patrolCount": 0,
      "flyingSpawnIntervalMs": 3400,
      "fallingRockSpawnIntervalMs": 0
    },
    {
      "segmentIndex": 54,
      "patrolCount": 0,
      "flyingSpawnIntervalMs": 3400,
      "fallingRockSpawnIntervalMs": 0
    },
    {
      "segmentIndex": 59,
      "patrolCount": 0,
      "flyingSpawnIntervalMs": 3400,
      "fallingRockSpawnIntervalMs": 0
    },
    {
      "segmentIndex": 64,
      "patrolCount": 0,
      "flyingSpawnIntervalMs": 3400,
      "fallingRockSpawnIntervalMs": 0
    },
    {
      "segmentIndex": 69,
      "patrolCount": 0,
      "flyingSpawnIntervalMs": 3400,
      "fallingRockSpawnIntervalMs": 0
    },
    {
      "segmentIndex": 74,
      "patrolCount": 0,
      "flyingSpawnIntervalMs": 3400,
      "fallingRockSpawnIntervalMs": 0
    },
    {
      "segmentIndex": 79,
      "patrolCount": 0,
      "flyingSpawnIntervalMs": 3400,
      "fallingRockSpawnIntervalMs": 0
    },
    {
      "segmentIndex": 84,
      "patrolCount": 0,
      "flyingSpawnIntervalMs": 3400,
      "fallingRockSpawnIntervalMs": 0
    },
    {
      "segmentIndex": 89,
      "patrolCount": 0,
      "flyingSpawnIntervalMs": 3400,
      "fallingRockSpawnIntervalMs": 0
    },
    {
      "segmentIndex": 94,
      "patrolCount": 0,
      "flyingSpawnIntervalMs": 3400,
      "fallingRockSpawnIntervalMs": 0
    },
    {
      "segmentIndex": 99,
      "patrolCount": 0,
      "flyingSpawnIntervalMs": 2600,
      "fallingRockSpawnIntervalMs": 0
    },
    {
      "segmentIndex": 101,
      "patrolCount": 1,
      "flyingSpawnIntervalMs": 0,
      "fallingRockSpawnIntervalMs": 0
    },
    {
      "segmentIndex": 104,
      "patrolCount": 0,
      "flyingSpawnIntervalMs": 2600,
      "fallingRockSpawnIntervalMs": 0
    },
    {
      "segmentIndex": 109,
      "patrolCount": 0,
      "flyingSpawnIntervalMs": 3400,
      "fallingRockSpawnIntervalMs": 0
    },
    {
      "segmentIndex": 114,
      "patrolCount": 0,
      "flyingSpawnIntervalMs": 2600,
      "fallingRockSpawnIntervalMs": 0
    },
    {
      "segmentIndex": 115,
      "patrolCount": 1,
      "flyingSpawnIntervalMs": 0,
      "fallingRockSpawnIntervalMs": 0
    },
    {
      "segmentIndex": 116,
      "patrolCount": 1,
      "flyingSpawnIntervalMs": 0,
      "fallingRockSpawnIntervalMs": 0
    },
    {
      "segmentIndex": 119,
      "patrolCount": 0,
      "flyingSpawnIntervalMs": 2600,
      "fallingRockSpawnIntervalMs": 0
    },
    {
      "segmentIndex": 123,
      "patrolCount": 1,
      "flyingSpawnIntervalMs": 0,
      "fallingRockSpawnIntervalMs": 0
    },
    {
      "segmentIndex": 124,
      "patrolCount": 1,
      "flyingSpawnIntervalMs": 1800,
      "fallingRockSpawnIntervalMs": 0
    },
    {
      "segmentIndex": 125,
      "patrolCount": 1,
      "flyingSpawnIntervalMs": 0,
      "fallingRockSpawnIntervalMs": 0
    },
    {
      "segmentIndex": 129,
      "patrolCount": 0,
      "flyingSpawnIntervalMs": 2600,
      "fallingRockSpawnIntervalMs": 0
    },
    {
      "segmentIndex": 131,
      "patrolCount": 1,
      "flyingSpawnIntervalMs": 0,
      "fallingRockSpawnIntervalMs": 0
    },
    {
      "segmentIndex": 134,
      "patrolCount": 0,
      "flyingSpawnIntervalMs": 1800,
      "fallingRockSpawnIntervalMs": 0
    },
    {
      "segmentIndex": 139,
      "patrolCount": 1,
      "flyingSpawnIntervalMs": 1800,
      "fallingRockSpawnIntervalMs": 0
    },
    {
      "segmentIndex": 141,
      "patrolCount": 1,
      "flyingSpawnIntervalMs": 0,
      "fallingRockSpawnIntervalMs": 0
    },
    {
      "segmentIndex": 142,
      "patrolCount": 1,
      "flyingSpawnIntervalMs": 0,
      "fallingRockSpawnIntervalMs": 0
    },
    {
      "segmentIndex": 144,
      "patrolCount": 0,
      "flyingSpawnIntervalMs": 2600,
      "fallingRockSpawnIntervalMs": 0
    },
    {
      "segmentIndex": 146,
      "patrolCount": 1,
      "flyingSpawnIntervalMs": 0,
      "fallingRockSpawnIntervalMs": 0
    },
    {
      "segmentIndex": 147,
      "patrolCount": 1,
      "flyingSpawnIntervalMs": 0,
      "fallingRockSpawnIntervalMs": 0
    },
    {
      "segmentIndex": 149,
      "patrolCount": 1,
      "flyingSpawnIntervalMs": 2600,
      "fallingRockSpawnIntervalMs": 0
    },
    {
      "segmentIndex": 154,
      "patrolCount": 0,
      "flyingSpawnIntervalMs": 3400,
      "fallingRockSpawnIntervalMs": 0
    },
    {
      "segmentIndex": 155,
      "patrolCount": 1,
      "flyingSpawnIntervalMs": 0,
      "fallingRockSpawnIntervalMs": 0
    },
    {
      "segmentIndex": 159,
      "patrolCount": 0,
      "flyingSpawnIntervalMs": 3400,
      "fallingRockSpawnIntervalMs": 0
    },
    {
      "segmentIndex": 164,
      "patrolCount": 1,
      "flyingSpawnIntervalMs": 2600,
      "fallingRockSpawnIntervalMs": 0
    },
    {
      "segmentIndex": 165,
      "patrolCount": 1,
      "flyingSpawnIntervalMs": 0,
      "fallingRockSpawnIntervalMs": 0
    },
    {
      "segmentIndex": 167,
      "patrolCount": 1,
      "flyingSpawnIntervalMs": 0,
      "fallingRockSpawnIntervalMs": 0
    },
    {
      "segmentIndex": 168,
      "patrolCount": 1,
      "flyingSpawnIntervalMs": 0,
      "fallingRockSpawnIntervalMs": 0
    },
    {
      "segmentIndex": 169,
      "patrolCount": 1,
      "flyingSpawnIntervalMs": 2600,
      "fallingRockSpawnIntervalMs": 0
    },
    {
      "segmentIndex": 170,
      "patrolCount": 1,
      "flyingSpawnIntervalMs": 0,
      "fallingRockSpawnIntervalMs": 0
    },
    {
      "segmentIndex": 171,
      "patrolCount": 1,
      "flyingSpawnIntervalMs": 0,
      "fallingRockSpawnIntervalMs": 0
    },
    {
      "segmentIndex": 172,
      "patrolCount": 1,
      "flyingSpawnIntervalMs": 0,
      "fallingRockSpawnIntervalMs": 0
    },
    {
      "segmentIndex": 173,
      "patrolCount": 1,
      "flyingSpawnIntervalMs": 0,
      "fallingRockSpawnIntervalMs": 0
    },
    {
      "segmentIndex": 174,
      "patrolCount": 0,
      "flyingSpawnIntervalMs": 3400,
      "fallingRockSpawnIntervalMs": 0
    },
    {
      "segmentIndex": 177,
      "patrolCount": 1,
      "flyingSpawnIntervalMs": 0,
      "fallingRockSpawnIntervalMs": 0
    },
    {
      "segmentIndex": 179,
      "patrolCount": 0,
      "flyingSpawnIntervalMs": 2600,
      "fallingRockSpawnIntervalMs": 0
    },
    {
      "segmentIndex": 184,
      "patrolCount": 0,
      "flyingSpawnIntervalMs": 3400,
      "fallingRockSpawnIntervalMs": 0
    },
    {
      "segmentIndex": 189,
      "patrolCount": 0,
      "flyingSpawnIntervalMs": 3400,
      "fallingRockSpawnIntervalMs": 0
    },
    {
      "segmentIndex": 194,
      "patrolCount": 0,
      "flyingSpawnIntervalMs": 3400,
      "fallingRockSpawnIntervalMs": 0
    },
    {
      "segmentIndex": 199,
      "patrolCount": 0,
      "flyingSpawnIntervalMs": 3400,
      "fallingRockSpawnIntervalMs": 0
    },
    {
      "segmentIndex": 204,
      "patrolCount": 0,
      "flyingSpawnIntervalMs": 3400,
      "fallingRockSpawnIntervalMs": 0
    },
    {
      "segmentIndex": 209,
      "patrolCount": 0,
      "flyingSpawnIntervalMs": 3400,
      "fallingRockSpawnIntervalMs": 0
    },
    {
      "segmentIndex": 214,
      "patrolCount": 0,
      "flyingSpawnIntervalMs": 3400,
      "fallingRockSpawnIntervalMs": 0
    },
    {
      "segmentIndex": 219,
      "patrolCount": 0,
      "flyingSpawnIntervalMs": 3400,
      "fallingRockSpawnIntervalMs": 0
    },
    {
      "segmentIndex": 224,
      "patrolCount": 0,
      "flyingSpawnIntervalMs": 3400,
      "fallingRockSpawnIntervalMs": 0
    },
    {
      "segmentIndex": 229,
      "patrolCount": 0,
      "flyingSpawnIntervalMs": 3400,
      "fallingRockSpawnIntervalMs": 0
    },
    {
      "segmentIndex": 234,
      "patrolCount": 0,
      "flyingSpawnIntervalMs": 3400,
      "fallingRockSpawnIntervalMs": 0
    },
    {
      "segmentIndex": 239,
      "patrolCount": 0,
      "flyingSpawnIntervalMs": 3400,
      "fallingRockSpawnIntervalMs": 0
    },
    {
      "segmentIndex": 244,
      "patrolCount": 0,
      "flyingSpawnIntervalMs": 3400,
      "fallingRockSpawnIntervalMs": 0
    },
    {
      "segmentIndex": 249,
      "patrolCount": 0,
      "flyingSpawnIntervalMs": 3400,
      "fallingRockSpawnIntervalMs": 0
    },
    {
      "segmentIndex": 254,
      "patrolCount": 0,
      "flyingSpawnIntervalMs": 3400,
      "fallingRockSpawnIntervalMs": 0
    },
    {
      "segmentIndex": 259,
      "patrolCount": 0,
      "flyingSpawnIntervalMs": 3400,
      "fallingRockSpawnIntervalMs": 0
    },
    {
      "segmentIndex": 264,
      "patrolCount": 0,
      "flyingSpawnIntervalMs": 3400,
      "fallingRockSpawnIntervalMs": 0
    },
    {
      "segmentIndex": 269,
      "patrolCount": 0,
      "flyingSpawnIntervalMs": 3400,
      "fallingRockSpawnIntervalMs": 0
    },
    {
      "segmentIndex": 274,
      "patrolCount": 0,
      "flyingSpawnIntervalMs": 3400,
      "fallingRockSpawnIntervalMs": 0
    },
    {
      "segmentIndex": 279,
      "patrolCount": 0,
      "flyingSpawnIntervalMs": 3400,
      "fallingRockSpawnIntervalMs": 0
    },
    {
      "segmentIndex": 284,
      "patrolCount": 0,
      "flyingSpawnIntervalMs": 3400,
      "fallingRockSpawnIntervalMs": 0
    },
    {
      "segmentIndex": 289,
      "patrolCount": 0,
      "flyingSpawnIntervalMs": 3400,
      "fallingRockSpawnIntervalMs": 0
    },
    {
      "segmentIndex": 294,
      "patrolCount": 0,
      "flyingSpawnIntervalMs": 3400,
      "fallingRockSpawnIntervalMs": 0
    },
    {
      "segmentIndex": 299,
      "patrolCount": 0,
      "flyingSpawnIntervalMs": 3400,
      "fallingRockSpawnIntervalMs": 0
    },
    {
      "segmentIndex": 304,
      "patrolCount": 0,
      "flyingSpawnIntervalMs": 3400,
      "fallingRockSpawnIntervalMs": 0
    },
    {
      "segmentIndex": 309,
      "patrolCount": 0,
      "flyingSpawnIntervalMs": 3400,
      "fallingRockSpawnIntervalMs": 0
    },
    {
      "segmentIndex": 314,
      "patrolCount": 0,
      "flyingSpawnIntervalMs": 3400,
      "fallingRockSpawnIntervalMs": 0
    },
    {
      "segmentIndex": 319,
      "patrolCount": 0,
      "flyingSpawnIntervalMs": 3400,
      "fallingRockSpawnIntervalMs": 0
    },
    {
      "segmentIndex": 324,
      "patrolCount": 0,
      "flyingSpawnIntervalMs": 3400,
      "fallingRockSpawnIntervalMs": 0
    },
    {
      "segmentIndex": 329,
      "patrolCount": 0,
      "flyingSpawnIntervalMs": 3400,
      "fallingRockSpawnIntervalMs": 0
    },
    {
      "segmentIndex": 334,
      "patrolCount": 0,
      "flyingSpawnIntervalMs": 3400,
      "fallingRockSpawnIntervalMs": 0
    },
    {
      "segmentIndex": 339,
      "patrolCount": 0,
      "flyingSpawnIntervalMs": 3400,
      "fallingRockSpawnIntervalMs": 0
    },
    {
      "segmentIndex": 344,
      "patrolCount": 0,
      "flyingSpawnIntervalMs": 3400,
      "fallingRockSpawnIntervalMs": 0
    },
    {
      "segmentIndex": 349,
      "patrolCount": 0,
      "flyingSpawnIntervalMs": 3400,
      "fallingRockSpawnIntervalMs": 0
    },
    {
      "segmentIndex": 354,
      "patrolCount": 0,
      "flyingSpawnIntervalMs": 3400,
      "fallingRockSpawnIntervalMs": 0
    },
    {
      "segmentIndex": 359,
      "patrolCount": 0,
      "flyingSpawnIntervalMs": 3400,
      "fallingRockSpawnIntervalMs": 0
    },
    {
      "segmentIndex": 364,
      "patrolCount": 0,
      "flyingSpawnIntervalMs": 3400,
      "fallingRockSpawnIntervalMs": 0
    },
    {
      "segmentIndex": 369,
      "patrolCount": 0,
      "flyingSpawnIntervalMs": 3400,
      "fallingRockSpawnIntervalMs": 0
    },
    {
      "segmentIndex": 374,
      "patrolCount": 0,
      "flyingSpawnIntervalMs": 3400,
      "fallingRockSpawnIntervalMs": 0
    },
    {
      "segmentIndex": 379,
      "patrolCount": 0,
      "flyingSpawnIntervalMs": 3400,
      "fallingRockSpawnIntervalMs": 0
    },
    {
      "segmentIndex": 384,
      "patrolCount": 0,
      "flyingSpawnIntervalMs": 3400,
      "fallingRockSpawnIntervalMs": 0
    },
    {
      "segmentIndex": 389,
      "patrolCount": 0,
      "flyingSpawnIntervalMs": 3400,
      "fallingRockSpawnIntervalMs": 0
    },
    {
      "segmentIndex": 394,
      "patrolCount": 0,
      "flyingSpawnIntervalMs": 3400,
      "fallingRockSpawnIntervalMs": 0
    },
    {
      "segmentIndex": 399,
      "patrolCount": 0,
      "flyingSpawnIntervalMs": 3400,
      "fallingRockSpawnIntervalMs": 0
    },
    {
      "segmentIndex": 404,
      "patrolCount": 0,
      "flyingSpawnIntervalMs": 3400,
      "fallingRockSpawnIntervalMs": 0
    },
    {
      "segmentIndex": 409,
      "patrolCount": 0,
      "flyingSpawnIntervalMs": 3400,
      "fallingRockSpawnIntervalMs": 0
    },
    {
      "segmentIndex": 414,
      "patrolCount": 0,
      "flyingSpawnIntervalMs": 3400,
      "fallingRockSpawnIntervalMs": 0
    },
    {
      "segmentIndex": 419,
      "patrolCount": 0,
      "flyingSpawnIntervalMs": 3400,
      "fallingRockSpawnIntervalMs": 0
    },
    {
      "segmentIndex": 424,
      "patrolCount": 0,
      "flyingSpawnIntervalMs": 3400,
      "fallingRockSpawnIntervalMs": 0
    },
    {
      "segmentIndex": 429,
      "patrolCount": 0,
      "flyingSpawnIntervalMs": 3400,
      "fallingRockSpawnIntervalMs": 0
    },
    {
      "segmentIndex": 434,
      "patrolCount": 0,
      "flyingSpawnIntervalMs": 3400,
      "fallingRockSpawnIntervalMs": 0
    },
    {
      "segmentIndex": 439,
      "patrolCount": 0,
      "flyingSpawnIntervalMs": 3400,
      "fallingRockSpawnIntervalMs": 0
    },
    {
      "segmentIndex": 444,
      "patrolCount": 0,
      "flyingSpawnIntervalMs": 3400,
      "fallingRockSpawnIntervalMs": 0
    },
    {
      "segmentIndex": 449,
      "patrolCount": 0,
      "flyingSpawnIntervalMs": 3400,
      "fallingRockSpawnIntervalMs": 0
    },
    {
      "segmentIndex": 454,
      "patrolCount": 0,
      "flyingSpawnIntervalMs": 3400,
      "fallingRockSpawnIntervalMs": 0
    },
    {
      "segmentIndex": 459,
      "patrolCount": 0,
      "flyingSpawnIntervalMs": 3400,
      "fallingRockSpawnIntervalMs": 0
    },
    {
      "segmentIndex": 464,
      "patrolCount": 0,
      "flyingSpawnIntervalMs": 3400,
      "fallingRockSpawnIntervalMs": 0
    },
    {
      "segmentIndex": 469,
      "patrolCount": 0,
      "flyingSpawnIntervalMs": 3400,
      "fallingRockSpawnIntervalMs": 0
    },
    {
      "segmentIndex": 474,
      "patrolCount": 0,
      "flyingSpawnIntervalMs": 3400,
      "fallingRockSpawnIntervalMs": 0
    },
    {
      "segmentIndex": 479,
      "patrolCount": 0,
      "flyingSpawnIntervalMs": 3400,
      "fallingRockSpawnIntervalMs": 0
    },
    {
      "segmentIndex": 484,
      "patrolCount": 0,
      "flyingSpawnIntervalMs": 3400,
      "fallingRockSpawnIntervalMs": 0
    },
    {
      "segmentIndex": 489,
      "patrolCount": 0,
      "flyingSpawnIntervalMs": 3400,
      "fallingRockSpawnIntervalMs": 0
    },
    {
      "segmentIndex": 494,
      "patrolCount": 0,
      "flyingSpawnIntervalMs": 3400,
      "fallingRockSpawnIntervalMs": 0
    },
    {
      "segmentIndex": 499,
      "patrolCount": 0,
      "flyingSpawnIntervalMs": 3400,
      "fallingRockSpawnIntervalMs": 0
    },
    {
      "segmentIndex": 504,
      "patrolCount": 0,
      "flyingSpawnIntervalMs": 3400,
      "fallingRockSpawnIntervalMs": 0
    },
    {
      "segmentIndex": 509,
      "patrolCount": 0,
      "flyingSpawnIntervalMs": 3400,
      "fallingRockSpawnIntervalMs": 0
    },
    {
      "segmentIndex": 514,
      "patrolCount": 0,
      "flyingSpawnIntervalMs": 3400,
      "fallingRockSpawnIntervalMs": 0
    },
    {
      "segmentIndex": 519,
      "patrolCount": 0,
      "flyingSpawnIntervalMs": 3400,
      "fallingRockSpawnIntervalMs": 0
    },
    {
      "segmentIndex": 524,
      "patrolCount": 0,
      "flyingSpawnIntervalMs": 3400,
      "fallingRockSpawnIntervalMs": 0
    },
    {
      "segmentIndex": 529,
      "patrolCount": 0,
      "flyingSpawnIntervalMs": 3400,
      "fallingRockSpawnIntervalMs": 0
    },
    {
      "segmentIndex": 534,
      "patrolCount": 0,
      "flyingSpawnIntervalMs": 3400,
      "fallingRockSpawnIntervalMs": 0
    },
    {
      "segmentIndex": 539,
      "patrolCount": 0,
      "flyingSpawnIntervalMs": 3400,
      "fallingRockSpawnIntervalMs": 0
    },
    {
      "segmentIndex": 544,
      "patrolCount": 0,
      "flyingSpawnIntervalMs": 3400,
      "fallingRockSpawnIntervalMs": 0
    },
    {
      "segmentIndex": 549,
      "patrolCount": 0,
      "flyingSpawnIntervalMs": 3400,
      "fallingRockSpawnIntervalMs": 0
    },
    {
      "segmentIndex": 554,
      "patrolCount": 0,
      "flyingSpawnIntervalMs": 3400,
      "fallingRockSpawnIntervalMs": 0
    },
    {
      "segmentIndex": 559,
      "patrolCount": 0,
      "flyingSpawnIntervalMs": 3400,
      "fallingRockSpawnIntervalMs": 0
    },
    {
      "segmentIndex": 564,
      "patrolCount": 0,
      "flyingSpawnIntervalMs": 3400,
      "fallingRockSpawnIntervalMs": 0
    },
    {
      "segmentIndex": 569,
      "patrolCount": 0,
      "flyingSpawnIntervalMs": 3400,
      "fallingRockSpawnIntervalMs": 0
    },
    {
      "segmentIndex": 574,
      "patrolCount": 0,
      "flyingSpawnIntervalMs": 3400,
      "fallingRockSpawnIntervalMs": 0
    },
    {
      "segmentIndex": 579,
      "patrolCount": 0,
      "flyingSpawnIntervalMs": 3400,
      "fallingRockSpawnIntervalMs": 0
    },
    {
      "segmentIndex": 584,
      "patrolCount": 0,
      "flyingSpawnIntervalMs": 3400,
      "fallingRockSpawnIntervalMs": 0
    },
    {
      "segmentIndex": 589,
      "patrolCount": 0,
      "flyingSpawnIntervalMs": 3400,
      "fallingRockSpawnIntervalMs": 0
    },
    {
      "segmentIndex": 594,
      "patrolCount": 0,
      "flyingSpawnIntervalMs": 3400,
      "fallingRockSpawnIntervalMs": 0
    },
    {
      "segmentIndex": 599,
      "patrolCount": 0,
      "flyingSpawnIntervalMs": 3400,
      "fallingRockSpawnIntervalMs": 0
    },
    {
      "segmentIndex": 604,
      "patrolCount": 0,
      "flyingSpawnIntervalMs": 3400,
      "fallingRockSpawnIntervalMs": 0
    },
    {
      "segmentIndex": 609,
      "patrolCount": 0,
      "flyingSpawnIntervalMs": 3400,
      "fallingRockSpawnIntervalMs": 0
    },
    {
      "segmentIndex": 614,
      "patrolCount": 0,
      "flyingSpawnIntervalMs": 3400,
      "fallingRockSpawnIntervalMs": 0
    },
    {
      "segmentIndex": 619,
      "patrolCount": 0,
      "flyingSpawnIntervalMs": 3400,
      "fallingRockSpawnIntervalMs": 0
    },
    {
      "segmentIndex": 624,
      "patrolCount": 0,
      "flyingSpawnIntervalMs": 3400,
      "fallingRockSpawnIntervalMs": 0
    },
    {
      "segmentIndex": 629,
      "patrolCount": 0,
      "flyingSpawnIntervalMs": 3400,
      "fallingRockSpawnIntervalMs": 0
    },
    {
      "segmentIndex": 634,
      "patrolCount": 0,
      "flyingSpawnIntervalMs": 3400,
      "fallingRockSpawnIntervalMs": 0
    },
    {
      "segmentIndex": 639,
      "patrolCount": 0,
      "flyingSpawnIntervalMs": 3400,
      "fallingRockSpawnIntervalMs": 0
    },
    {
      "segmentIndex": 644,
      "patrolCount": 0,
      "flyingSpawnIntervalMs": 3400,
      "fallingRockSpawnIntervalMs": 0
    },
    {
      "segmentIndex": 649,
      "patrolCount": 0,
      "flyingSpawnIntervalMs": 3400,
      "fallingRockSpawnIntervalMs": 0
    },
    {
      "segmentIndex": 654,
      "patrolCount": 0,
      "flyingSpawnIntervalMs": 3400,
      "fallingRockSpawnIntervalMs": 0
    }
  ],
  "segments": [
    {
      "index": 0,
      "duration_beats": 2,
      "bpm": 78,
      "energy_state": "low",
      "platform_types": [
        "static",
        "beat",
        "alternateBeat",
        "elevator"
      ],
      "vertical_range": [
        0,
        1
      ],
      "rhythm_density": 0,
      "patrol_enemies": 0,
      "flying_spawn_interval_ms": 0,
      "falling_rock_spawn_interval_ms": 0
    },
    {
      "index": 1,
      "duration_beats": 2,
      "bpm": 78,
      "energy_state": "low",
      "platform_types": [
        "static",
        "beat",
        "alternateBeat",
        "elevator"
      ],
      "vertical_range": [
        1,
        3
      ],
      "rhythm_density": 0.8897637795275591,
      "patrol_enemies": 0,
      "flying_spawn_interval_ms": 0,
      "falling_rock_spawn_interval_ms": 0
    },
    {
      "index": 2,
      "duration_beats": 2,
      "bpm": 78,
      "energy_state": "low",
      "platform_types": [
        "static",
        "beat",
        "alternateBeat",
        "elevator"
      ],
      "vertical_range": [
        1,
        3
      ],
      "rhythm_density": 0.8897637795275591,
      "patrol_enemies": 0,
      "flying_spawn_interval_ms": 0,
      "falling_rock_spawn_interval_ms": 0
    },
    {
      "index": 3,
      "duration_beats": 2,
      "bpm": 78,
      "energy_state": "low",
      "platform_types": [
        "static",
        "beat",
        "alternateBeat",
        "elevator"
      ],
      "vertical_range": [
        1,
        3
      ],
      "rhythm_density": 0.8897637795275591,
      "patrol_enemies": 0,
      "flying_spawn_interval_ms": 0,
      "falling_rock_spawn_interval_ms": 0
    },
    {
      "index": 4,
      "duration_beats": 2,
      "bpm": 78,
      "energy_state": "low",
      "platform_types": [
        "static",
        "beat",
        "alternateBeat",
        "elevator"
      ],
      "vertical_range": [
        1,
        3
      ],
      "rhythm_density": 0.889763779527559,
      "patrol_enemies": 0,
      "flying_spawn_interval_ms": 3400,
      "falling_rock_spawn_interval_ms": 0
    },
    {
      "index": 5,
      "duration_beats": 2,
      "bpm": 78,
      "energy_state": "low",
      "platform_types": [
        "static",
        "beat",
        "alternateBeat",
        "elevator"
      ],
      "vertical_range": [
        1,
        3
      ],
      "rhythm_density": 0.8897637795275591,
      "patrol_enemies": 0,
      "flying_spawn_interval_ms": 0,
      "falling_rock_spawn_interval_ms": 0
    },
    {
      "index": 6,
      "duration_beats": 2,
      "bpm": 78,
      "energy_state": "low",
      "platform_types": [
        "static",
        "beat",
        "alternateBeat",
        "elevator"
      ],
      "vertical_range": [
        1,
        3
      ],
      "rhythm_density": 0.8897637795275591,
      "patrol_enemies": 0,
      "flying_spawn_interval_ms": 0,
      "falling_rock_spawn_interval_ms": 0
    },
    {
      "index": 7,
      "duration_beats": 2,
      "bpm": 78,
      "energy_state": "low",
      "platform_types": [
        "static",
        "beat",
        "alternateBeat",
        "elevator"
      ],
      "vertical_range": [
        1,
        3
      ],
      "rhythm_density": 0.8897637795275591,
      "patrol_enemies": 0,
      "flying_spawn_interval_ms": 0,
      "falling_rock_spawn_interval_ms": 0
    },
    {
      "index": 8,
      "duration_beats": 2,
      "bpm": 78,
      "energy_state": "low",
      "platform_types": [
        "static",
        "beat",
        "alternateBeat",
        "elevator"
      ],
      "vertical_range": [
        1,
        2
      ],
      "rhythm_density": 0.8897637795275591,
      "patrol_enemies": 0,
      "flying_spawn_interval_ms": 0,
      "falling_rock_spawn_interval_ms": 0
    },
    {
      "index": 9,
      "duration_beats": 2,
      "bpm": 78,
      "energy_state": "low",
      "platform_types": [
        "static",
        "beat",
        "alternateBeat",
        "elevator"
      ],
      "vertical_range": [
        0,
        2
      ],
      "rhythm_density": 0.9162491052254832,
      "patrol_enemies": 0,
      "flying_spawn_interval_ms": 3400,
      "falling_rock_spawn_interval_ms": 0
    },
    {
      "index": 10,
      "duration_beats": 2,
      "bpm": 78,
      "energy_state": "low",
      "platform_types": [
        "static",
        "beat",
        "alternateBeat",
        "elevator"
      ],
      "vertical_range": [
        1,
        2
      ],
      "rhythm_density": 0.891732283464567,
      "patrol_enemies": 0,
      "flying_spawn_interval_ms": 0,
      "falling_rock_spawn_interval_ms": 0
    },
    {
      "index": 11,
      "duration_beats": 2,
      "bpm": 78,
      "energy_state": "low",
      "platform_types": [
        "static",
        "beat",
        "alternateBeat",
        "elevator"
      ],
      "vertical_range": [
        0,
        2
      ],
      "rhythm_density": 0.931758530183727,
      "patrol_enemies": 0,
      "flying_spawn_interval_ms": 0,
      "falling_rock_spawn_interval_ms": 0
    },
    {
      "index": 12,
      "duration_beats": 2,
      "bpm": 78,
      "energy_state": "low",
      "platform_types": [
        "static",
        "beat",
        "alternateBeat",
        "elevator"
      ],
      "vertical_range": [
        1,
        2
      ],
      "rhythm_density": 0.917680744452398,
      "patrol_enemies": 0,
      "flying_spawn_interval_ms": 0,
      "falling_rock_spawn_interval_ms": 0
    },
    {
      "index": 13,
      "duration_beats": 2,
      "bpm": 78,
      "energy_state": "low",
      "platform_types": [
        "static",
        "beat",
        "alternateBeat",
        "elevator"
      ],
      "vertical_range": [
        0,
        3
      ],
      "rhythm_density": 0.9111361079865017,
      "patrol_enemies": 0,
      "flying_spawn_interval_ms": 0,
      "falling_rock_spawn_interval_ms": 0
    },
    {
      "index": 14,
      "duration_beats": 2,
      "bpm": 78,
      "energy_state": "low",
      "platform_types": [
        "static",
        "beat",
        "alternateBeat",
        "elevator"
      ],
      "vertical_range": [
        1,
        3
      ],
      "rhythm_density": 0.9478346456692913,
      "patrol_enemies": 0,
      "flying_spawn_interval_ms": 3400,
      "falling_rock_spawn_interval_ms": 0
    },
    {
      "index": 15,
      "duration_beats": 2,
      "bpm": 78,
      "energy_state": "low",
      "platform_types": [
        "static",
        "beat",
        "alternateBeat",
        "elevator"
      ],
      "vertical_range": [
        0,
        4
      ],
      "rhythm_density": 0.8855239248940036,
      "patrol_enemies": 0,
      "flying_spawn_interval_ms": 0,
      "falling_rock_spawn_interval_ms": 0
    },
    {
      "index": 16,
      "duration_beats": 2,
      "bpm": 78,
      "energy_state": "low",
      "platform_types": [
        "static",
        "beat",
        "alternateBeat",
        "elevator"
      ],
      "vertical_range": [
        1,
        4
      ],
      "rhythm_density": 0.921259842519685,
      "patrol_enemies": 0,
      "flying_spawn_interval_ms": 0,
      "falling_rock_spawn_interval_ms": 0
    },
    {
      "index": 17,
      "duration_beats": 2,
      "bpm": 78,
      "energy_state": "low",
      "platform_types": [
        "static",
        "beat",
        "alternateBeat",
        "elevator"
      ],
      "vertical_range": [
        0,
        4
      ],
      "rhythm_density": 0.8951771653543308,
      "patrol_enemies": 0,
      "flying_spawn_interval_ms": 0,
      "falling_rock_spawn_interval_ms": 0
    },
    {
      "index": 18,
      "duration_beats": 2,
      "bpm": 78,
      "energy_state": "low",
      "platform_types": [
        "static",
        "beat",
        "alternateBeat",
        "elevator"
      ],
      "vertical_range": [
        0,
        4
      ],
      "rhythm_density": 0.9079345850999393,
      "patrol_enemies": 0,
      "flying_spawn_interval_ms": 0,
      "falling_rock_spawn_interval_ms": 0
    },
    {
      "index": 19,
      "duration_beats": 2,
      "bpm": 78,
      "energy_state": "low",
      "platform_types": [
        "static",
        "beat",
        "alternateBeat",
        "elevator"
      ],
      "vertical_range": [
        0,
        3
      ],
      "rhythm_density": 0.9060039370078741,
      "patrol_enemies": 0,
      "flying_spawn_interval_ms": 3400,
      "falling_rock_spawn_interval_ms": 0
    },
    {
      "index": 20,
      "duration_beats": 2,
      "bpm": 78,
      "energy_state": "low",
      "platform_types": [
        "static",
        "beat",
        "alternateBeat",
        "elevator"
      ],
      "vertical_range": [
        0,
        3
      ],
      "rhythm_density": 0.9261471626391529,
      "patrol_enemies": 0,
      "flying_spawn_interval_ms": 0,
      "falling_rock_spawn_interval_ms": 0
    },
    {
      "index": 21,
      "duration_beats": 2,
      "bpm": 78,
      "energy_state": "low",
      "platform_types": [
        "static",
        "beat",
        "alternateBeat",
        "elevator"
      ],
      "vertical_range": [
        0,
        3
      ],
      "rhythm_density": 0.9301837270341207,
      "patrol_enemies": 0,
      "flying_spawn_interval_ms": 0,
      "falling_rock_spawn_interval_ms": 0
    },
    {
      "index": 22,
      "duration_beats": 2,
      "bpm": 78,
      "energy_state": "low",
      "platform_types": [
        "static",
        "beat",
        "alternateBeat",
        "elevator"
      ],
      "vertical_range": [
        0,
        3
      ],
      "rhythm_density": 0.9011675264729839,
      "patrol_enemies": 0,
      "flying_spawn_interval_ms": 0,
      "falling_rock_spawn_interval_ms": 0
    },
    {
      "index": 23,
      "duration_beats": 2,
      "bpm": 78,
      "energy_state": "low",
      "platform_types": [
        "static",
        "beat",
        "alternateBeat",
        "elevator"
      ],
      "vertical_range": [
        0,
        3
      ],
      "rhythm_density": 0.9250256761383087,
      "patrol_enemies": 0,
      "flying_spawn_interval_ms": 0,
      "falling_rock_spawn_interval_ms": 0
    },
    {
      "index": 24,
      "duration_beats": 2,
      "bpm": 78,
      "energy_state": "low",
      "platform_types": [
        "static",
        "beat",
        "alternateBeat",
        "elevator"
      ],
      "vertical_range": [
        0,
        3
      ],
      "rhythm_density": 0.9173228346456693,
      "patrol_enemies": 0,
      "flying_spawn_interval_ms": 3400,
      "falling_rock_spawn_interval_ms": 0
    },
    {
      "index": 25,
      "duration_beats": 2,
      "bpm": 78,
      "energy_state": "low",
      "platform_types": [
        "static",
        "beat",
        "alternateBeat",
        "elevator"
      ],
      "vertical_range": [
        0,
        3
      ],
      "rhythm_density": 0.9384842519685039,
      "patrol_enemies": 0,
      "flying_spawn_interval_ms": 0,
      "falling_rock_spawn_interval_ms": 0
    },
    {
      "index": 26,
      "duration_beats": 2,
      "bpm": 78,
      "energy_state": "low",
      "platform_types": [
        "static",
        "beat",
        "alternateBeat",
        "elevator"
      ],
      "vertical_range": [
        0,
        3
      ],
      "rhythm_density": 0.9299212598425196,
      "patrol_enemies": 0,
      "flying_spawn_interval_ms": 0,
      "falling_rock_spawn_interval_ms": 0
    },
    {
      "index": 27,
      "duration_beats": 2,
      "bpm": 78,
      "energy_state": "low",
      "platform_types": [
        "static",
        "beat",
        "alternateBeat",
        "elevator"
      ],
      "vertical_range": [
        0,
        3
      ],
      "rhythm_density": 0.9100112485939258,
      "patrol_enemies": 0,
      "flying_spawn_interval_ms": 0,
      "falling_rock_spawn_interval_ms": 0
    },
    {
      "index": 28,
      "duration_beats": 2,
      "bpm": 78,
      "energy_state": "low",
      "platform_types": [
        "static",
        "beat",
        "alternateBeat",
        "elevator"
      ],
      "vertical_range": [
        0,
        3
      ],
      "rhythm_density": 0.8097112860892387,
      "patrol_enemies": 0,
      "flying_spawn_interval_ms": 0,
      "falling_rock_spawn_interval_ms": 0
    },
    {
      "index": 29,
      "duration_beats": 2,
      "bpm": 78,
      "energy_state": "low",
      "platform_types": [
        "static",
        "beat",
        "alternateBeat",
        "elevator"
      ],
      "vertical_range": [
        0,
        1
      ],
      "rhythm_density": 0.8838582677165354,
      "patrol_enemies": 0,
      "flying_spawn_interval_ms": 3400,
      "falling_rock_spawn_interval_ms": 0
    },
    {
      "index": 30,
      "duration_beats": 2,
      "bpm": 78,
      "energy_state": "low",
      "platform_types": [
        "static",
        "beat",
        "alternateBeat",
        "elevator"
      ],
      "vertical_range": [
        0,
        4
      ],
      "rhythm_density": 0.9118110236220472,
      "patrol_enemies": 0,
      "flying_spawn_interval_ms": 0,
      "falling_rock_spawn_interval_ms": 0
    },
    {
      "index": 31,
      "duration_beats": 2,
      "bpm": 78,
      "energy_state": "low",
      "platform_types": [
        "static",
        "beat",
        "alternateBeat",
        "elevator"
      ],
      "vertical_range": [
        0,
        3
      ],
      "rhythm_density": 0.9077615298087739,
      "patrol_enemies": 0,
      "flying_spawn_interval_ms": 0,
      "falling_rock_spawn_interval_ms": 0
    },
    {
      "index": 32,
      "duration_beats": 2,
      "bpm": 78,
      "energy_state": "low",
      "platform_types": [
        "static",
        "beat",
        "alternateBeat",
        "elevator"
      ],
      "vertical_range": [
        0,
        4
      ],
      "rhythm_density": 0.889763779527559,
      "patrol_enemies": 0,
      "flying_spawn_interval_ms": 0,
      "falling_rock_spawn_interval_ms": 0
    },
    {
      "index": 33,
      "duration_beats": 2,
      "bpm": 78,
      "energy_state": "low",
      "platform_types": [
        "static",
        "beat",
        "alternateBeat",
        "elevator"
      ],
      "vertical_range": [
        0,
        3
      ],
      "rhythm_density": 0.9362204724409449,
      "patrol_enemies": 0,
      "flying_spawn_interval_ms": 0,
      "falling_rock_spawn_interval_ms": 0
    },
    {
      "index": 34,
      "duration_beats": 2,
      "bpm": 78,
      "energy_state": "low",
      "platform_types": [
        "static",
        "beat",
        "alternateBeat",
        "elevator"
      ],
      "vertical_range": [
        0,
        4
      ],
      "rhythm_density": 0.9070866141732283,
      "patrol_enemies": 0,
      "flying_spawn_interval_ms": 3400,
      "falling_rock_spawn_interval_ms": 0
    },
    {
      "index": 35,
      "duration_beats": 2,
      "bpm": 78,
      "energy_state": "low",
      "platform_types": [
        "static",
        "beat",
        "alternateBeat",
        "elevator"
      ],
      "vertical_range": [
        0,
        3
      ],
      "rhythm_density": 0.9405074365704286,
      "patrol_enemies": 0,
      "flying_spawn_interval_ms": 0,
      "falling_rock_spawn_interval_ms": 0
    },
    {
      "index": 36,
      "duration_beats": 2,
      "bpm": 78,
      "energy_state": "low",
      "platform_types": [
        "static",
        "beat",
        "alternateBeat",
        "elevator"
      ],
      "vertical_range": [
        0,
        4
      ],
      "rhythm_density": 0.9212598425196851,
      "patrol_enemies": 0,
      "flying_spawn_interval_ms": 0,
      "falling_rock_spawn_interval_ms": 0
    },
    {
      "index": 37,
      "duration_beats": 2,
      "bpm": 78,
      "energy_state": "low",
      "platform_types": [
        "static",
        "beat",
        "alternateBeat",
        "elevator"
      ],
      "vertical_range": [
        0,
        4
      ],
      "rhythm_density": 0.9535433070866141,
      "patrol_enemies": 0,
      "flying_spawn_interval_ms": 0,
      "falling_rock_spawn_interval_ms": 0
    },
    {
      "index": 38,
      "duration_beats": 2,
      "bpm": 78,
      "energy_state": "low",
      "platform_types": [
        "static",
        "beat",
        "alternateBeat",
        "elevator"
      ],
      "vertical_range": [
        1,
        4
      ],
      "rhythm_density": 0.9273840769903762,
      "patrol_enemies": 0,
      "flying_spawn_interval_ms": 0,
      "falling_rock_spawn_interval_ms": 0
    },
    {
      "index": 39,
      "duration_beats": 2,
      "bpm": 78,
      "energy_state": "low",
      "platform_types": [
        "static",
        "beat",
        "alternateBeat",
        "elevator"
      ],
      "vertical_range": [
        0,
        4
      ],
      "rhythm_density": 0.9535433070866141,
      "patrol_enemies": 0,
      "flying_spawn_interval_ms": 3400,
      "falling_rock_spawn_interval_ms": 0
    },
    {
      "index": 40,
      "duration_beats": 2,
      "bpm": 78,
      "energy_state": "low",
      "platform_types": [
        "static",
        "beat",
        "alternateBeat",
        "elevator"
      ],
      "vertical_range": [
        0,
        3
      ],
      "rhythm_density": 0.9191123836793128,
      "patrol_enemies": 0,
      "flying_spawn_interval_ms": 0,
      "falling_rock_spawn_interval_ms": 0
    },
    {
      "index": 41,
      "duration_beats": 2,
      "bpm": 78,
      "energy_state": "low",
      "platform_types": [
        "static",
        "beat",
        "alternateBeat",
        "elevator"
      ],
      "vertical_range": [
        0,
        3
      ],
      "rhythm_density": 0.9468503937007874,
      "patrol_enemies": 0,
      "flying_spawn_interval_ms": 0,
      "falling_rock_spawn_interval_ms": 0
    },
    {
      "index": 42,
      "duration_beats": 2,
      "bpm": 78,
      "energy_state": "low",
      "platform_types": [
        "static",
        "beat",
        "alternateBeat",
        "elevator"
      ],
      "vertical_range": [
        0,
        4
      ],
      "rhythm_density": 0.9335083114610673,
      "patrol_enemies": 0,
      "flying_spawn_interval_ms": 0,
      "falling_rock_spawn_interval_ms": 0
    },
    {
      "index": 43,
      "duration_beats": 2,
      "bpm": 78,
      "energy_state": "low",
      "platform_types": [
        "static",
        "beat",
        "alternateBeat",
        "elevator"
      ],
      "vertical_range": [
        0,
        4
      ],
      "rhythm_density": 0.9413027916964924,
      "patrol_enemies": 0,
      "flying_spawn_interval_ms": 0,
      "falling_rock_spawn_interval_ms": 0
    },
    {
      "index": 44,
      "duration_beats": 2,
      "bpm": 78,
      "energy_state": "low",
      "platform_types": [
        "static",
        "beat",
        "alternateBeat",
        "elevator"
      ],
      "vertical_range": [
        0,
        4
      ],
      "rhythm_density": 0.9330708661417323,
      "patrol_enemies": 0,
      "flying_spawn_interval_ms": 3400,
      "falling_rock_spawn_interval_ms": 0
    },
    {
      "index": 45,
      "duration_beats": 2,
      "bpm": 78,
      "energy_state": "low",
      "platform_types": [
        "static",
        "beat",
        "alternateBeat",
        "elevator"
      ],
      "vertical_range": [
        0,
        4
      ],
      "rhythm_density": 0.9535433070866141,
      "patrol_enemies": 0,
      "flying_spawn_interval_ms": 0,
      "falling_rock_spawn_interval_ms": 0
    },
    {
      "index": 46,
      "duration_beats": 2,
      "bpm": 78,
      "energy_state": "low",
      "platform_types": [
        "static",
        "beat",
        "alternateBeat",
        "elevator"
      ],
      "vertical_range": [
        0,
        4
      ],
      "rhythm_density": 0.9501312335958004,
      "patrol_enemies": 0,
      "flying_spawn_interval_ms": 0,
      "falling_rock_spawn_interval_ms": 0
    },
    {
      "index": 47,
      "duration_beats": 2,
      "bpm": 78,
      "energy_state": "low",
      "platform_types": [
        "static",
        "beat",
        "alternateBeat",
        "elevator"
      ],
      "vertical_range": [
        0,
        4
      ],
      "rhythm_density": 0.89824348879467,
      "patrol_enemies": 0,
      "flying_spawn_interval_ms": 0,
      "falling_rock_spawn_interval_ms": 0
    },
    {
      "index": 48,
      "duration_beats": 2,
      "bpm": 78,
      "energy_state": "low",
      "platform_types": [
        "static",
        "beat",
        "alternateBeat",
        "elevator"
      ],
      "vertical_range": [
        0,
        2
      ],
      "rhythm_density": 0.9184807781380269,
      "patrol_enemies": 0,
      "flying_spawn_interval_ms": 0,
      "falling_rock_spawn_interval_ms": 0
    },
    {
      "index": 49,
      "duration_beats": 2,
      "bpm": 78,
      "energy_state": "low",
      "platform_types": [
        "static",
        "beat",
        "alternateBeat",
        "elevator"
      ],
      "vertical_range": [
        0,
        4
      ],
      "rhythm_density": 0.9354330708661416,
      "patrol_enemies": 0,
      "flying_spawn_interval_ms": 3400,
      "falling_rock_spawn_interval_ms": 0
    },
    {
      "index": 50,
      "duration_beats": 2,
      "bpm": 78,
      "energy_state": "low",
      "platform_types": [
        "static",
        "beat",
        "alternateBeat",
        "elevator"
      ],
      "vertical_range": [
        0,
        2
      ],
      "rhythm_density": 0.9466316710411198,
      "patrol_enemies": 0,
      "flying_spawn_interval_ms": 0,
      "falling_rock_spawn_interval_ms": 0
    },
    {
      "index": 51,
      "duration_beats": 2,
      "bpm": 78,
      "energy_state": "low",
      "platform_types": [
        "static",
        "beat",
        "alternateBeat",
        "elevator"
      ],
      "vertical_range": [
        0,
        4
      ],
      "rhythm_density": 0.9128427912028236,
      "patrol_enemies": 0,
      "flying_spawn_interval_ms": 0,
      "falling_rock_spawn_interval_ms": 0
    },
    {
      "index": 52,
      "duration_beats": 2,
      "bpm": 78,
      "energy_state": "low",
      "platform_types": [
        "static",
        "beat",
        "alternateBeat",
        "elevator"
      ],
      "vertical_range": [
        0,
        3
      ],
      "rhythm_density": 0.9434055118110237,
      "patrol_enemies": 0,
      "flying_spawn_interval_ms": 0,
      "falling_rock_spawn_interval_ms": 0
    },
    {
      "index": 53,
      "duration_beats": 2,
      "bpm": 78,
      "energy_state": "low",
      "platform_types": [
        "static",
        "beat",
        "alternateBeat",
        "elevator"
      ],
      "vertical_range": [
        0,
        4
      ],
      "rhythm_density": 0.9303937007874014,
      "patrol_enemies": 0,
      "flying_spawn_interval_ms": 0,
      "falling_rock_spawn_interval_ms": 0
    },
    {
      "index": 54,
      "duration_beats": 2,
      "bpm": 78,
      "energy_state": "low",
      "platform_types": [
        "static",
        "beat",
        "alternateBeat",
        "elevator"
      ],
      "vertical_range": [
        0,
        4
      ],
      "rhythm_density": 0.9409448818897637,
      "patrol_enemies": 0,
      "flying_spawn_interval_ms": 3400,
      "falling_rock_spawn_interval_ms": 0
    },
    {
      "index": 55,
      "duration_beats": 2,
      "bpm": 78,
      "energy_state": "low",
      "platform_types": [
        "static",
        "beat",
        "alternateBeat",
        "elevator"
      ],
      "vertical_range": [
        0,
        4
      ],
      "rhythm_density": 0.8797900262467189,
      "patrol_enemies": 0,
      "flying_spawn_interval_ms": 0,
      "falling_rock_spawn_interval_ms": 0
    },
    {
      "index": 56,
      "duration_beats": 2,
      "bpm": 78,
      "energy_state": "low",
      "platform_types": [
        "static",
        "beat",
        "alternateBeat",
        "elevator"
      ],
      "vertical_range": [
        0,
        4
      ],
      "rhythm_density": 0.9505061867266589,
      "patrol_enemies": 0,
      "flying_spawn_interval_ms": 0,
      "falling_rock_spawn_interval_ms": 0
    },
    {
      "index": 57,
      "duration_beats": 2,
      "bpm": 78,
      "energy_state": "low",
      "platform_types": [
        "static",
        "beat",
        "alternateBeat",
        "elevator"
      ],
      "vertical_range": [
        0,
        4
      ],
      "rhythm_density": 0.9375509095845775,
      "patrol_enemies": 0,
      "flying_spawn_interval_ms": 0,
      "falling_rock_spawn_interval_ms": 0
    },
    {
      "index": 58,
      "duration_beats": 2,
      "bpm": 78,
      "energy_state": "low",
      "platform_types": [
        "static",
        "beat",
        "alternateBeat",
        "elevator"
      ],
      "vertical_range": [
        0,
        4
      ],
      "rhythm_density": 0.9007311586051742,
      "patrol_enemies": 0,
      "flying_spawn_interval_ms": 0,
      "falling_rock_spawn_interval_ms": 0
    },
    {
      "index": 59,
      "duration_beats": 2,
      "bpm": 78,
      "energy_state": "low",
      "platform_types": [
        "static",
        "beat",
        "alternateBeat",
        "elevator"
      ],
      "vertical_range": [
        0,
        3
      ],
      "rhythm_density": 0.9176256814052088,
      "patrol_enemies": 0,
      "flying_spawn_interval_ms": 3400,
      "falling_rock_spawn_interval_ms": 0
    },
    {
      "index": 60,
      "duration_beats": 2,
      "bpm": 78,
      "energy_state": "low",
      "platform_types": [
        "static",
        "beat",
        "alternateBeat",
        "elevator"
      ],
      "vertical_range": [
        0,
        3
      ],
      "rhythm_density": 0.9087926509186349,
      "patrol_enemies": 0,
      "flying_spawn_interval_ms": 0,
      "falling_rock_spawn_interval_ms": 0
    },
    {
      "index": 61,
      "duration_beats": 2,
      "bpm": 78,
      "energy_state": "low",
      "platform_types": [
        "static",
        "beat",
        "alternateBeat",
        "elevator"
      ],
      "vertical_range": [
        0,
        3
      ],
      "rhythm_density": 0.8928258967629047,
      "patrol_enemies": 0,
      "flying_spawn_interval_ms": 0,
      "falling_rock_spawn_interval_ms": 0
    },
    {
      "index": 62,
      "duration_beats": 2,
      "bpm": 78,
      "energy_state": "low",
      "platform_types": [
        "static",
        "beat",
        "alternateBeat",
        "elevator"
      ],
      "vertical_range": [
        0,
        4
      ],
      "rhythm_density": 0.7465998568360773,
      "patrol_enemies": 0,
      "flying_spawn_interval_ms": 0,
      "falling_rock_spawn_interval_ms": 0
    },
    {
      "index": 63,
      "duration_beats": 2,
      "bpm": 78,
      "energy_state": "low",
      "platform_types": [
        "static",
        "beat",
        "alternateBeat",
        "elevator"
      ],
      "vertical_range": [
        1,
        3
      ],
      "rhythm_density": 0.7874015748031497,
      "patrol_enemies": 0,
      "flying_spawn_interval_ms": 0,
      "falling_rock_spawn_interval_ms": 0
    },
    {
      "index": 64,
      "duration_beats": 2,
      "bpm": 78,
      "energy_state": "low",
      "platform_types": [
        "static",
        "beat",
        "alternateBeat",
        "elevator"
      ],
      "vertical_range": [
        0,
        3
      ],
      "rhythm_density": 0.9247047244094487,
      "patrol_enemies": 0,
      "flying_spawn_interval_ms": 3400,
      "falling_rock_spawn_interval_ms": 0
    },
    {
      "index": 65,
      "duration_beats": 2,
      "bpm": 78,
      "energy_state": "low",
      "platform_types": [
        "static",
        "beat",
        "alternateBeat",
        "elevator"
      ],
      "vertical_range": [
        0,
        4
      ],
      "rhythm_density": 0.9400363416111447,
      "patrol_enemies": 0,
      "flying_spawn_interval_ms": 0,
      "falling_rock_spawn_interval_ms": 0
    },
    {
      "index": 66,
      "duration_beats": 2,
      "bpm": 78,
      "energy_state": "low",
      "platform_types": [
        "static",
        "beat",
        "alternateBeat",
        "elevator"
      ],
      "vertical_range": [
        0,
        3
      ],
      "rhythm_density": 0.9291338582677167,
      "patrol_enemies": 0,
      "flying_spawn_interval_ms": 0,
      "falling_rock_spawn_interval_ms": 0
    },
    {
      "index": 67,
      "duration_beats": 2,
      "bpm": 78,
      "energy_state": "low",
      "platform_types": [
        "static",
        "beat",
        "alternateBeat",
        "elevator"
      ],
      "vertical_range": [
        0,
        4
      ],
      "rhythm_density": 0.9302587176602924,
      "patrol_enemies": 0,
      "flying_spawn_interval_ms": 0,
      "falling_rock_spawn_interval_ms": 0
    },
    {
      "index": 68,
      "duration_beats": 2,
      "bpm": 78,
      "energy_state": "low",
      "platform_types": [
        "static",
        "beat",
        "alternateBeat",
        "elevator"
      ],
      "vertical_range": [
        0,
        3
      ],
      "rhythm_density": 0.9470691163604548,
      "patrol_enemies": 0,
      "flying_spawn_interval_ms": 0,
      "falling_rock_spawn_interval_ms": 0
    },
    {
      "index": 69,
      "duration_beats": 2,
      "bpm": 78,
      "energy_state": "low",
      "platform_types": [
        "static",
        "beat",
        "alternateBeat",
        "elevator"
      ],
      "vertical_range": [
        0,
        4
      ],
      "rhythm_density": 0.9325084364454443,
      "patrol_enemies": 0,
      "flying_spawn_interval_ms": 3400,
      "falling_rock_spawn_interval_ms": 0
    },
    {
      "index": 70,
      "duration_beats": 2,
      "bpm": 78,
      "energy_state": "low",
      "platform_types": [
        "static",
        "beat",
        "alternateBeat",
        "elevator"
      ],
      "vertical_range": [
        0,
        3
      ],
      "rhythm_density": 0.9453740157480315,
      "patrol_enemies": 0,
      "flying_spawn_interval_ms": 0,
      "falling_rock_spawn_interval_ms": 0
    },
    {
      "index": 71,
      "duration_beats": 2,
      "bpm": 78,
      "energy_state": "low",
      "platform_types": [
        "static",
        "beat",
        "alternateBeat",
        "elevator"
      ],
      "vertical_range": [
        0,
        4
      ],
      "rhythm_density": 0.9433070866141732,
      "patrol_enemies": 0,
      "flying_spawn_interval_ms": 0,
      "falling_rock_spawn_interval_ms": 0
    },
    {
      "index": 72,
      "duration_beats": 2,
      "bpm": 78,
      "energy_state": "low",
      "platform_types": [
        "static",
        "beat",
        "alternateBeat",
        "elevator"
      ],
      "vertical_range": [
        0,
        4
      ],
      "rhythm_density": 0.952292728114868,
      "patrol_enemies": 0,
      "flying_spawn_interval_ms": 0,
      "falling_rock_spawn_interval_ms": 0
    },
    {
      "index": 73,
      "duration_beats": 2,
      "bpm": 78,
      "energy_state": "low",
      "platform_types": [
        "static",
        "beat",
        "alternateBeat",
        "elevator"
      ],
      "vertical_range": [
        0,
        4
      ],
      "rhythm_density": 0.9431321084864391,
      "patrol_enemies": 0,
      "flying_spawn_interval_ms": 0,
      "falling_rock_spawn_interval_ms": 0
    },
    {
      "index": 74,
      "duration_beats": 2,
      "bpm": 78,
      "energy_state": "low",
      "platform_types": [
        "static",
        "beat",
        "alternateBeat",
        "elevator"
      ],
      "vertical_range": [
        0,
        4
      ],
      "rhythm_density": 0.95414543770264,
      "patrol_enemies": 0,
      "flying_spawn_interval_ms": 3400,
      "falling_rock_spawn_interval_ms": 0
    },
    {
      "index": 75,
      "duration_beats": 2,
      "bpm": 78,
      "energy_state": "low",
      "platform_types": [
        "static",
        "beat",
        "alternateBeat",
        "elevator"
      ],
      "vertical_range": [
        0,
        3
      ],
      "rhythm_density": 0.9411160561451557,
      "patrol_enemies": 0,
      "flying_spawn_interval_ms": 0,
      "falling_rock_spawn_interval_ms": 0
    },
    {
      "index": 76,
      "duration_beats": 2,
      "bpm": 78,
      "energy_state": "low",
      "platform_types": [
        "static",
        "beat",
        "alternateBeat",
        "elevator"
      ],
      "vertical_range": [
        0,
        3
      ],
      "rhythm_density": 0.9559055118110237,
      "patrol_enemies": 0,
      "flying_spawn_interval_ms": 0,
      "falling_rock_spawn_interval_ms": 0
    },
    {
      "index": 77,
      "duration_beats": 2,
      "bpm": 78,
      "energy_state": "low",
      "platform_types": [
        "static",
        "beat",
        "alternateBeat",
        "elevator"
      ],
      "vertical_range": [
        0,
        4
      ],
      "rhythm_density": 0.9426946631671039,
      "patrol_enemies": 0,
      "flying_spawn_interval_ms": 0,
      "falling_rock_spawn_interval_ms": 0
    },
    {
      "index": 78,
      "duration_beats": 2,
      "bpm": 78,
      "energy_state": "low",
      "platform_types": [
        "static",
        "beat",
        "alternateBeat",
        "elevator"
      ],
      "vertical_range": [
        0,
        3
      ],
      "rhythm_density": 0.9467345993515517,
      "patrol_enemies": 0,
      "flying_spawn_interval_ms": 0,
      "falling_rock_spawn_interval_ms": 0
    },
    {
      "index": 79,
      "duration_beats": 2,
      "bpm": 78,
      "energy_state": "low",
      "platform_types": [
        "static",
        "beat",
        "alternateBeat",
        "elevator"
      ],
      "vertical_range": [
        0,
        4
      ],
      "rhythm_density": 0.9426946631671039,
      "patrol_enemies": 0,
      "flying_spawn_interval_ms": 3400,
      "falling_rock_spawn_interval_ms": 0
    },
    {
      "index": 80,
      "duration_beats": 2,
      "bpm": 78,
      "energy_state": "low",
      "platform_types": [
        "static",
        "beat",
        "alternateBeat",
        "elevator"
      ],
      "vertical_range": [
        0,
        4
      ],
      "rhythm_density": 0.9549431321084862,
      "patrol_enemies": 0,
      "flying_spawn_interval_ms": 0,
      "falling_rock_spawn_interval_ms": 0
    },
    {
      "index": 81,
      "duration_beats": 2,
      "bpm": 78,
      "energy_state": "low",
      "platform_types": [
        "static",
        "beat",
        "alternateBeat",
        "elevator"
      ],
      "vertical_range": [
        0,
        3
      ],
      "rhythm_density": 0.9609878310665713,
      "patrol_enemies": 0,
      "flying_spawn_interval_ms": 0,
      "falling_rock_spawn_interval_ms": 0
    },
    {
      "index": 82,
      "duration_beats": 2,
      "bpm": 78,
      "energy_state": "low",
      "platform_types": [
        "static",
        "beat",
        "alternateBeat",
        "elevator"
      ],
      "vertical_range": [
        0,
        2
      ],
      "rhythm_density": 0.924838940586972,
      "patrol_enemies": 0,
      "flying_spawn_interval_ms": 0,
      "falling_rock_spawn_interval_ms": 0
    },
    {
      "index": 83,
      "duration_beats": 2,
      "bpm": 78,
      "energy_state": "low",
      "platform_types": [
        "static",
        "beat",
        "alternateBeat",
        "elevator"
      ],
      "vertical_range": [
        0,
        2
      ],
      "rhythm_density": 0.9580052493438321,
      "patrol_enemies": 0,
      "flying_spawn_interval_ms": 0,
      "falling_rock_spawn_interval_ms": 0
    },
    {
      "index": 84,
      "duration_beats": 2,
      "bpm": 78,
      "energy_state": "low",
      "platform_types": [
        "static",
        "beat",
        "alternateBeat",
        "elevator"
      ],
      "vertical_range": [
        0,
        3
      ],
      "rhythm_density": 0.9398711524695776,
      "patrol_enemies": 0,
      "flying_spawn_interval_ms": 3400,
      "falling_rock_spawn_interval_ms": 0
    },
    {
      "index": 85,
      "duration_beats": 2,
      "bpm": 78,
      "energy_state": "low",
      "platform_types": [
        "static",
        "beat",
        "alternateBeat",
        "elevator"
      ],
      "vertical_range": [
        0,
        2
      ],
      "rhythm_density": 0.9476377952755903,
      "patrol_enemies": 0,
      "flying_spawn_interval_ms": 0,
      "falling_rock_spawn_interval_ms": 0
    },
    {
      "index": 86,
      "duration_beats": 2,
      "bpm": 78,
      "energy_state": "low",
      "platform_types": [
        "static",
        "beat",
        "alternateBeat",
        "elevator"
      ],
      "vertical_range": [
        0,
        3
      ],
      "rhythm_density": 0.9344769403824521,
      "patrol_enemies": 0,
      "flying_spawn_interval_ms": 0,
      "falling_rock_spawn_interval_ms": 0
    },
    {
      "index": 87,
      "duration_beats": 2,
      "bpm": 78,
      "energy_state": "low",
      "platform_types": [
        "static",
        "beat",
        "alternateBeat",
        "elevator"
      ],
      "vertical_range": [
        0,
        4
      ],
      "rhythm_density": 0.9081364829396325,
      "patrol_enemies": 0,
      "flying_spawn_interval_ms": 0,
      "falling_rock_spawn_interval_ms": 0
    },
    {
      "index": 88,
      "duration_beats": 2,
      "bpm": 78,
      "energy_state": "low",
      "platform_types": [
        "static",
        "beat",
        "alternateBeat",
        "elevator"
      ],
      "vertical_range": [
        0,
        4
      ],
      "rhythm_density": 0.9249343832020996,
      "patrol_enemies": 0,
      "flying_spawn_interval_ms": 0,
      "falling_rock_spawn_interval_ms": 0
    },
    {
      "index": 89,
      "duration_beats": 2,
      "bpm": 78,
      "energy_state": "low",
      "platform_types": [
        "static",
        "beat",
        "alternateBeat",
        "elevator"
      ],
      "vertical_range": [
        0,
        4
      ],
      "rhythm_density": 0.9522128699429812,
      "patrol_enemies": 0,
      "flying_spawn_interval_ms": 3400,
      "falling_rock_spawn_interval_ms": 0
    },
    {
      "index": 90,
      "duration_beats": 2,
      "bpm": 78,
      "energy_state": "low",
      "platform_types": [
        "static",
        "beat",
        "alternateBeat",
        "elevator"
      ],
      "vertical_range": [
        0,
        3
      ],
      "rhythm_density": 0.9036111865327178,
      "patrol_enemies": 0,
      "flying_spawn_interval_ms": 0,
      "falling_rock_spawn_interval_ms": 0
    },
    {
      "index": 91,
      "duration_beats": 2,
      "bpm": 78,
      "energy_state": "low",
      "platform_types": [
        "static",
        "beat",
        "alternateBeat",
        "elevator"
      ],
      "vertical_range": [
        0,
        4
      ],
      "rhythm_density": 0.9376377952755901,
      "patrol_enemies": 0,
      "flying_spawn_interval_ms": 0,
      "falling_rock_spawn_interval_ms": 0
    },
    {
      "index": 92,
      "duration_beats": 2,
      "bpm": 78,
      "energy_state": "low",
      "platform_types": [
        "static",
        "beat",
        "alternateBeat",
        "elevator"
      ],
      "vertical_range": [
        0,
        4
      ],
      "rhythm_density": 0.9375328083989497,
      "patrol_enemies": 0,
      "flying_spawn_interval_ms": 0,
      "falling_rock_spawn_interval_ms": 0
    },
    {
      "index": 93,
      "duration_beats": 2,
      "bpm": 78,
      "energy_state": "low",
      "platform_types": [
        "static",
        "beat",
        "alternateBeat",
        "elevator"
      ],
      "vertical_range": [
        0,
        4
      ],
      "rhythm_density": 0.9217847769028871,
      "patrol_enemies": 0,
      "flying_spawn_interval_ms": 0,
      "falling_rock_spawn_interval_ms": 0
    },
    {
      "index": 94,
      "duration_beats": 2,
      "bpm": 78,
      "energy_state": "low",
      "platform_types": [
        "static",
        "beat",
        "alternateBeat",
        "elevator"
      ],
      "vertical_range": [
        0,
        3
      ],
      "rhythm_density": 0.9121744397334948,
      "patrol_enemies": 0,
      "flying_spawn_interval_ms": 3400,
      "falling_rock_spawn_interval_ms": 0
    },
    {
      "index": 95,
      "duration_beats": 2,
      "bpm": 78,
      "energy_state": "low",
      "platform_types": [
        "static",
        "beat",
        "alternateBeat",
        "elevator"
      ],
      "vertical_range": [
        0,
        4
      ],
      "rhythm_density": 0.8987115246957764,
      "patrol_enemies": 0,
      "flying_spawn_interval_ms": 0,
      "falling_rock_spawn_interval_ms": 0
    },
    {
      "index": 96,
      "duration_beats": 2,
      "bpm": 78,
      "energy_state": "low",
      "platform_types": [
        "static",
        "beat",
        "alternateBeat",
        "elevator"
      ],
      "vertical_range": [
        0,
        4
      ],
      "rhythm_density": 0.9298087739032618,
      "patrol_enemies": 0,
      "flying_spawn_interval_ms": 0,
      "falling_rock_spawn_interval_ms": 0
    },
    {
      "index": 97,
      "duration_beats": 2,
      "bpm": 78,
      "energy_state": "low",
      "platform_types": [
        "static",
        "beat",
        "alternateBeat",
        "elevator"
      ],
      "vertical_range": [
        0,
        3
      ],
      "rhythm_density": 0.9443194600674916,
      "patrol_enemies": 0,
      "flying_spawn_interval_ms": 0,
      "falling_rock_spawn_interval_ms": 0
    },
    {
      "index": 98,
      "duration_beats": 2,
      "bpm": 78,
      "energy_state": "low",
      "platform_types": [
        "static",
        "beat",
        "alternateBeat",
        "elevator"
      ],
      "vertical_range": [
        0,
        4
      ],
      "rhythm_density": 0.9344678689357379,
      "patrol_enemies": 0,
      "flying_spawn_interval_ms": 0,
      "falling_rock_spawn_interval_ms": 0
    },
    {
      "index": 99,
      "duration_beats": 2,
      "bpm": 78,
      "energy_state": "medium",
      "platform_types": [
        "static",
        "beat",
        "alternateBeat",
        "ghost",
        "reverseGhost",
        "elevator"
      ],
      "vertical_range": [
        0,
        4
      ],
      "rhythm_density": 0.9063630559693547,
      "patrol_enemies": 0,
      "flying_spawn_interval_ms": 2600,
      "falling_rock_spawn_interval_ms": 0
    },
    {
      "index": 100,
      "duration_beats": 2,
      "bpm": 78,
      "energy_state": "medium",
      "platform_types": [
        "static",
        "beat",
        "alternateBeat",
        "ghost",
        "reverseGhost",
        "elevator"
      ],
      "vertical_range": [
        0,
        4
      ],
      "rhythm_density": 0.935980828483396,
      "patrol_enemies": 0,
      "flying_spawn_interval_ms": 0,
      "falling_rock_spawn_interval_ms": 0
    },
    {
      "index": 101,
      "duration_beats": 2,
      "bpm": 78,
      "energy_state": "medium",
      "platform_types": [
        "static",
        "beat",
        "alternateBeat",
        "ghost",
        "reverseGhost",
        "elevator"
      ],
      "vertical_range": [
        0,
        4
      ],
      "rhythm_density": 0.9359438178335814,
      "patrol_enemies": 1,
      "flying_spawn_interval_ms": 0,
      "falling_rock_spawn_interval_ms": 0
    },
    {
      "index": 102,
      "duration_beats": 2,
      "bpm": 78,
      "energy_state": "medium",
      "platform_types": [
        "static",
        "beat",
        "alternateBeat",
        "ghost",
        "reverseGhost",
        "elevator"
      ],
      "vertical_range": [
        0,
        4
      ],
      "rhythm_density": 0.9353598242080202,
      "patrol_enemies": 0,
      "flying_spawn_interval_ms": 0,
      "falling_rock_spawn_interval_ms": 0
    },
    {
      "index": 103,
      "duration_beats": 2,
      "bpm": 78,
      "energy_state": "low",
      "platform_types": [
        "static",
        "beat",
        "alternateBeat",
        "elevator"
      ],
      "vertical_range": [
        0,
        4
      ],
      "rhythm_density": 0.9087197433654124,
      "patrol_enemies": 0,
      "flying_spawn_interval_ms": 0,
      "falling_rock_spawn_interval_ms": 0
    },
    {
      "index": 104,
      "duration_beats": 2,
      "bpm": 78,
      "energy_state": "medium",
      "platform_types": [
        "static",
        "beat",
        "alternateBeat",
        "ghost",
        "reverseGhost",
        "elevator"
      ],
      "vertical_range": [
        0,
        4
      ],
      "rhythm_density": 0.9044131111518035,
      "patrol_enemies": 0,
      "flying_spawn_interval_ms": 2600,
      "falling_rock_spawn_interval_ms": 0
    },
    {
      "index": 105,
      "duration_beats": 2,
      "bpm": 78,
      "energy_state": "medium",
      "platform_types": [
        "static",
        "beat",
        "alternateBeat",
        "ghost",
        "reverseGhost",
        "elevator"
      ],
      "vertical_range": [
        0,
        4
      ],
      "rhythm_density": 0.9014787785673127,
      "patrol_enemies": 0,
      "flying_spawn_interval_ms": 0,
      "falling_rock_spawn_interval_ms": 0
    },
    {
      "index": 106,
      "duration_beats": 2,
      "bpm": 78,
      "energy_state": "low",
      "platform_types": [
        "static",
        "beat",
        "alternateBeat",
        "elevator"
      ],
      "vertical_range": [
        0,
        4
      ],
      "rhythm_density": 0.9119797525309336,
      "patrol_enemies": 0,
      "flying_spawn_interval_ms": 0,
      "falling_rock_spawn_interval_ms": 0
    },
    {
      "index": 107,
      "duration_beats": 2,
      "bpm": 78,
      "energy_state": "low",
      "platform_types": [
        "static",
        "beat",
        "alternateBeat",
        "elevator"
      ],
      "vertical_range": [
        0,
        4
      ],
      "rhythm_density": 0.9083552055993,
      "patrol_enemies": 0,
      "flying_spawn_interval_ms": 0,
      "falling_rock_spawn_interval_ms": 0
    },
    {
      "index": 108,
      "duration_beats": 2,
      "bpm": 78,
      "energy_state": "low",
      "platform_types": [
        "static",
        "beat",
        "alternateBeat",
        "elevator"
      ],
      "vertical_range": [
        0,
        4
      ],
      "rhythm_density": 0.9402158063575385,
      "patrol_enemies": 0,
      "flying_spawn_interval_ms": 0,
      "falling_rock_spawn_interval_ms": 0
    },
    {
      "index": 109,
      "duration_beats": 2,
      "bpm": 78,
      "energy_state": "low",
      "platform_types": [
        "static",
        "beat",
        "alternateBeat",
        "elevator"
      ],
      "vertical_range": [
        0,
        4
      ],
      "rhythm_density": 0.920333487725799,
      "patrol_enemies": 0,
      "flying_spawn_interval_ms": 3400,
      "falling_rock_spawn_interval_ms": 0
    },
    {
      "index": 110,
      "duration_beats": 2,
      "bpm": 78,
      "energy_state": "low",
      "platform_types": [
        "static",
        "beat",
        "alternateBeat",
        "elevator"
      ],
      "vertical_range": [
        0,
        4
      ],
      "rhythm_density": 0.9115331171838815,
      "patrol_enemies": 0,
      "flying_spawn_interval_ms": 0,
      "falling_rock_spawn_interval_ms": 0
    },
    {
      "index": 111,
      "duration_beats": 2,
      "bpm": 78,
      "energy_state": "low",
      "platform_types": [
        "static",
        "beat",
        "alternateBeat",
        "elevator"
      ],
      "vertical_range": [
        0,
        4
      ],
      "rhythm_density": 0.927675707203266,
      "patrol_enemies": 0,
      "flying_spawn_interval_ms": 0,
      "falling_rock_spawn_interval_ms": 0
    },
    {
      "index": 112,
      "duration_beats": 2,
      "bpm": 78,
      "energy_state": "medium",
      "platform_types": [
        "static",
        "beat",
        "alternateBeat",
        "ghost",
        "reverseGhost",
        "elevator"
      ],
      "vertical_range": [
        0,
        4
      ],
      "rhythm_density": 0.9285281647486369,
      "patrol_enemies": 0,
      "flying_spawn_interval_ms": 0,
      "falling_rock_spawn_interval_ms": 0
    },
    {
      "index": 113,
      "duration_beats": 2,
      "bpm": 78,
      "energy_state": "high",
      "platform_types": [
        "static",
        "beat",
        "alternateBeat",
        "ghost",
        "reverseGhost",
        "elevator",
        "shuttle",
        "cross",
        "spring",
        "hazard",
        "launch30",
        "launch60"
      ],
      "vertical_range": [
        0,
        4
      ],
      "rhythm_density": 0.9152755905511807,
      "patrol_enemies": 0,
      "flying_spawn_interval_ms": 0,
      "falling_rock_spawn_interval_ms": 0
    },
    {
      "index": 114,
      "duration_beats": 2,
      "bpm": 78,
      "energy_state": "medium",
      "platform_types": [
        "static",
        "beat",
        "alternateBeat",
        "ghost",
        "reverseGhost",
        "elevator"
      ],
      "vertical_range": [
        0,
        4
      ],
      "rhythm_density": 0.9380500231588697,
      "patrol_enemies": 0,
      "flying_spawn_interval_ms": 2600,
      "falling_rock_spawn_interval_ms": 0
    },
    {
      "index": 115,
      "duration_beats": 2,
      "bpm": 78,
      "energy_state": "high",
      "platform_types": [
        "static",
        "beat",
        "alternateBeat",
        "ghost",
        "reverseGhost",
        "elevator",
        "shuttle",
        "cross",
        "spring",
        "hazard",
        "launch30",
        "launch60"
      ],
      "vertical_range": [
        0,
        4
      ],
      "rhythm_density": 0.9327129563350025,
      "patrol_enemies": 1,
      "flying_spawn_interval_ms": 0,
      "falling_rock_spawn_interval_ms": 0
    },
    {
      "index": 116,
      "duration_beats": 2,
      "bpm": 78,
      "energy_state": "high",
      "platform_types": [
        "static",
        "beat",
        "alternateBeat",
        "ghost",
        "reverseGhost",
        "elevator",
        "shuttle",
        "cross",
        "spring",
        "hazard",
        "launch30",
        "launch60"
      ],
      "vertical_range": [
        0,
        4
      ],
      "rhythm_density": 0.9360043229890374,
      "patrol_enemies": 1,
      "flying_spawn_interval_ms": 0,
      "falling_rock_spawn_interval_ms": 0
    },
    {
      "index": 117,
      "duration_beats": 2,
      "bpm": 78,
      "energy_state": "low",
      "platform_types": [
        "static",
        "beat",
        "alternateBeat",
        "elevator"
      ],
      "vertical_range": [
        0,
        4
      ],
      "rhythm_density": 0.9206974128233971,
      "patrol_enemies": 0,
      "flying_spawn_interval_ms": 0,
      "falling_rock_spawn_interval_ms": 0
    },
    {
      "index": 118,
      "duration_beats": 2,
      "bpm": 78,
      "energy_state": "low",
      "platform_types": [
        "static",
        "beat",
        "alternateBeat",
        "elevator"
      ],
      "vertical_range": [
        0,
        3
      ],
      "rhythm_density": 0.917680744452398,
      "patrol_enemies": 0,
      "flying_spawn_interval_ms": 0,
      "falling_rock_spawn_interval_ms": 0
    },
    {
      "index": 119,
      "duration_beats": 2,
      "bpm": 78,
      "energy_state": "medium",
      "platform_types": [
        "static",
        "beat",
        "alternateBeat",
        "ghost",
        "reverseGhost",
        "elevator"
      ],
      "vertical_range": [
        0,
        3
      ],
      "rhythm_density": 0.9350925728878481,
      "patrol_enemies": 0,
      "flying_spawn_interval_ms": 2600,
      "falling_rock_spawn_interval_ms": 0
    },
    {
      "index": 120,
      "duration_beats": 2,
      "bpm": 78,
      "energy_state": "low",
      "platform_types": [
        "static",
        "beat",
        "alternateBeat",
        "elevator"
      ],
      "vertical_range": [
        1,
        4
      ],
      "rhythm_density": 0.9192913385826772,
      "patrol_enemies": 0,
      "flying_spawn_interval_ms": 0,
      "falling_rock_spawn_interval_ms": 0
    },
    {
      "index": 121,
      "duration_beats": 2,
      "bpm": 78,
      "energy_state": "low",
      "platform_types": [
        "static",
        "beat",
        "alternateBeat",
        "elevator"
      ],
      "vertical_range": [
        0,
        3
      ],
      "rhythm_density": 0.8990694345025054,
      "patrol_enemies": 0,
      "flying_spawn_interval_ms": 0,
      "falling_rock_spawn_interval_ms": 0
    },
    {
      "index": 122,
      "duration_beats": 2,
      "bpm": 78,
      "energy_state": "low",
      "platform_types": [
        "static",
        "beat",
        "alternateBeat",
        "elevator"
      ],
      "vertical_range": [
        0,
        3
      ],
      "rhythm_density": 0.9007874015748025,
      "patrol_enemies": 0,
      "flying_spawn_interval_ms": 0,
      "falling_rock_spawn_interval_ms": 0
    },
    {
      "index": 123,
      "duration_beats": 2,
      "bpm": 78,
      "energy_state": "medium",
      "platform_types": [
        "static",
        "beat",
        "alternateBeat",
        "ghost",
        "reverseGhost",
        "elevator"
      ],
      "vertical_range": [
        0,
        4
      ],
      "rhythm_density": 0.9285714285714282,
      "patrol_enemies": 1,
      "flying_spawn_interval_ms": 0,
      "falling_rock_spawn_interval_ms": 0
    },
    {
      "index": 124,
      "duration_beats": 2,
      "bpm": 78,
      "energy_state": "high",
      "platform_types": [
        "static",
        "beat",
        "alternateBeat",
        "ghost",
        "reverseGhost",
        "elevator",
        "shuttle",
        "cross",
        "spring",
        "hazard",
        "launch30",
        "launch60"
      ],
      "vertical_range": [
        0,
        4
      ],
      "rhythm_density": 0.9323137492428824,
      "patrol_enemies": 1,
      "flying_spawn_interval_ms": 1800,
      "falling_rock_spawn_interval_ms": 0
    },
    {
      "index": 125,
      "duration_beats": 2,
      "bpm": 78,
      "energy_state": "high",
      "platform_types": [
        "static",
        "beat",
        "alternateBeat",
        "ghost",
        "reverseGhost",
        "elevator",
        "shuttle",
        "cross",
        "spring",
        "hazard",
        "launch30",
        "launch60"
      ],
      "vertical_range": [
        0,
        4
      ],
      "rhythm_density": 0.9310565830433978,
      "patrol_enemies": 1,
      "flying_spawn_interval_ms": 0,
      "falling_rock_spawn_interval_ms": 0
    },
    {
      "index": 126,
      "duration_beats": 2,
      "bpm": 78,
      "energy_state": "high",
      "platform_types": [
        "static",
        "beat",
        "alternateBeat",
        "ghost",
        "reverseGhost",
        "elevator",
        "shuttle",
        "cross",
        "spring",
        "hazard",
        "launch30",
        "launch60"
      ],
      "vertical_range": [
        0,
        4
      ],
      "rhythm_density": 0.9393966203662736,
      "patrol_enemies": 0,
      "flying_spawn_interval_ms": 0,
      "falling_rock_spawn_interval_ms": 0
    },
    {
      "index": 127,
      "duration_beats": 2,
      "bpm": 78,
      "energy_state": "medium",
      "platform_types": [
        "static",
        "beat",
        "alternateBeat",
        "ghost",
        "reverseGhost",
        "elevator"
      ],
      "vertical_range": [
        0,
        4
      ],
      "rhythm_density": 0.940757405324334,
      "patrol_enemies": 0,
      "flying_spawn_interval_ms": 0,
      "falling_rock_spawn_interval_ms": 0
    },
    {
      "index": 128,
      "duration_beats": 2,
      "bpm": 78,
      "energy_state": "low",
      "platform_types": [
        "static",
        "beat",
        "alternateBeat",
        "elevator"
      ],
      "vertical_range": [
        0,
        3
      ],
      "rhythm_density": 0.9299212598425194,
      "patrol_enemies": 0,
      "flying_spawn_interval_ms": 0,
      "falling_rock_spawn_interval_ms": 0
    },
    {
      "index": 129,
      "duration_beats": 2,
      "bpm": 78,
      "energy_state": "medium",
      "platform_types": [
        "static",
        "beat",
        "alternateBeat",
        "ghost",
        "reverseGhost",
        "elevator"
      ],
      "vertical_range": [
        0,
        3
      ],
      "rhythm_density": 0.8959973753280833,
      "patrol_enemies": 0,
      "flying_spawn_interval_ms": 2600,
      "falling_rock_spawn_interval_ms": 0
    },
    {
      "index": 130,
      "duration_beats": 2,
      "bpm": 78,
      "energy_state": "medium",
      "platform_types": [
        "static",
        "beat",
        "alternateBeat",
        "ghost",
        "reverseGhost",
        "elevator"
      ],
      "vertical_range": [
        0,
        4
      ],
      "rhythm_density": 0.9383202099737528,
      "patrol_enemies": 0,
      "flying_spawn_interval_ms": 0,
      "falling_rock_spawn_interval_ms": 0
    },
    {
      "index": 131,
      "duration_beats": 2,
      "bpm": 78,
      "energy_state": "medium",
      "platform_types": [
        "static",
        "beat",
        "alternateBeat",
        "ghost",
        "reverseGhost",
        "elevator"
      ],
      "vertical_range": [
        0,
        4
      ],
      "rhythm_density": 0.9348725477111967,
      "patrol_enemies": 1,
      "flying_spawn_interval_ms": 0,
      "falling_rock_spawn_interval_ms": 0
    },
    {
      "index": 132,
      "duration_beats": 2,
      "bpm": 78,
      "energy_state": "high",
      "platform_types": [
        "static",
        "beat",
        "alternateBeat",
        "ghost",
        "reverseGhost",
        "elevator",
        "shuttle",
        "cross",
        "spring",
        "hazard",
        "launch30",
        "launch60"
      ],
      "vertical_range": [
        0,
        4
      ],
      "rhythm_density": 0.9567889379681189,
      "patrol_enemies": 0,
      "flying_spawn_interval_ms": 0,
      "falling_rock_spawn_interval_ms": 0
    },
    {
      "index": 133,
      "duration_beats": 2,
      "bpm": 78,
      "energy_state": "medium",
      "platform_types": [
        "static",
        "beat",
        "alternateBeat",
        "ghost",
        "reverseGhost",
        "elevator"
      ],
      "vertical_range": [
        0,
        4
      ],
      "rhythm_density": 0.9612548431446065,
      "patrol_enemies": 0,
      "flying_spawn_interval_ms": 0,
      "falling_rock_spawn_interval_ms": 0
    },
    {
      "index": 134,
      "duration_beats": 2,
      "bpm": 78,
      "energy_state": "high",
      "platform_types": [
        "static",
        "beat",
        "alternateBeat",
        "ghost",
        "reverseGhost",
        "elevator",
        "shuttle",
        "cross",
        "spring",
        "hazard",
        "launch30",
        "launch60"
      ],
      "vertical_range": [
        0,
        4
      ],
      "rhythm_density": 0.9271148798707847,
      "patrol_enemies": 0,
      "flying_spawn_interval_ms": 1800,
      "falling_rock_spawn_interval_ms": 0
    },
    {
      "index": 135,
      "duration_beats": 2,
      "bpm": 78,
      "energy_state": "high",
      "platform_types": [
        "static",
        "beat",
        "alternateBeat",
        "ghost",
        "reverseGhost",
        "elevator",
        "shuttle",
        "cross",
        "spring",
        "hazard",
        "launch30",
        "launch60"
      ],
      "vertical_range": [
        0,
        4
      ],
      "rhythm_density": 0.9338582677165346,
      "patrol_enemies": 0,
      "flying_spawn_interval_ms": 0,
      "falling_rock_spawn_interval_ms": 0
    },
    {
      "index": 136,
      "duration_beats": 2,
      "bpm": 78,
      "energy_state": "medium",
      "platform_types": [
        "static",
        "beat",
        "alternateBeat",
        "ghost",
        "reverseGhost",
        "elevator"
      ],
      "vertical_range": [
        0,
        4
      ],
      "rhythm_density": 0.92765748031496,
      "patrol_enemies": 0,
      "flying_spawn_interval_ms": 0,
      "falling_rock_spawn_interval_ms": 0
    },
    {
      "index": 137,
      "duration_beats": 2,
      "bpm": 78,
      "energy_state": "low",
      "platform_types": [
        "static",
        "beat",
        "alternateBeat",
        "elevator"
      ],
      "vertical_range": [
        1,
        4
      ],
      "rhythm_density": 0.9435124957206434,
      "patrol_enemies": 0,
      "flying_spawn_interval_ms": 0,
      "falling_rock_spawn_interval_ms": 0
    },
    {
      "index": 138,
      "duration_beats": 2,
      "bpm": 78,
      "energy_state": "medium",
      "platform_types": [
        "static",
        "beat",
        "alternateBeat",
        "ghost",
        "reverseGhost",
        "elevator"
      ],
      "vertical_range": [
        0,
        4
      ],
      "rhythm_density": 0.9442761962447,
      "patrol_enemies": 0,
      "flying_spawn_interval_ms": 0,
      "falling_rock_spawn_interval_ms": 0
    },
    {
      "index": 139,
      "duration_beats": 2,
      "bpm": 78,
      "energy_state": "high",
      "platform_types": [
        "static",
        "beat",
        "alternateBeat",
        "ghost",
        "reverseGhost",
        "elevator",
        "shuttle",
        "cross",
        "spring",
        "hazard",
        "launch30",
        "launch60"
      ],
      "vertical_range": [
        0,
        4
      ],
      "rhythm_density": 0.9574404465264615,
      "patrol_enemies": 1,
      "flying_spawn_interval_ms": 1800,
      "falling_rock_spawn_interval_ms": 0
    },
    {
      "index": 140,
      "duration_beats": 2,
      "bpm": 78,
      "energy_state": "low",
      "platform_types": [
        "static",
        "beat",
        "alternateBeat",
        "elevator"
      ],
      "vertical_range": [
        0,
        4
      ],
      "rhythm_density": 0.9372539370078735,
      "patrol_enemies": 0,
      "flying_spawn_interval_ms": 0,
      "falling_rock_spawn_interval_ms": 0
    },
    {
      "index": 141,
      "duration_beats": 2,
      "bpm": 78,
      "energy_state": "high",
      "platform_types": [
        "static",
        "beat",
        "alternateBeat",
        "ghost",
        "reverseGhost",
        "elevator",
        "shuttle",
        "cross",
        "spring",
        "hazard",
        "launch30",
        "launch60"
      ],
      "vertical_range": [
        0,
        4
      ],
      "rhythm_density": 0.9327129563350028,
      "patrol_enemies": 1,
      "flying_spawn_interval_ms": 0,
      "falling_rock_spawn_interval_ms": 0
    },
    {
      "index": 142,
      "duration_beats": 2,
      "bpm": 78,
      "energy_state": "medium",
      "platform_types": [
        "static",
        "beat",
        "alternateBeat",
        "ghost",
        "reverseGhost",
        "elevator"
      ],
      "vertical_range": [
        0,
        4
      ],
      "rhythm_density": 0.9414283740848179,
      "patrol_enemies": 1,
      "flying_spawn_interval_ms": 0,
      "falling_rock_spawn_interval_ms": 0
    },
    {
      "index": 143,
      "duration_beats": 2,
      "bpm": 78,
      "energy_state": "high",
      "platform_types": [
        "static",
        "beat",
        "alternateBeat",
        "ghost",
        "reverseGhost",
        "elevator",
        "shuttle",
        "cross",
        "spring",
        "hazard",
        "launch30",
        "launch60"
      ],
      "vertical_range": [
        0,
        4
      ],
      "rhythm_density": 0.938156167979002,
      "patrol_enemies": 0,
      "flying_spawn_interval_ms": 0,
      "falling_rock_spawn_interval_ms": 0
    },
    {
      "index": 144,
      "duration_beats": 2,
      "bpm": 78,
      "energy_state": "medium",
      "platform_types": [
        "static",
        "beat",
        "alternateBeat",
        "ghost",
        "reverseGhost",
        "elevator"
      ],
      "vertical_range": [
        0,
        4
      ],
      "rhythm_density": 0.9415281423155435,
      "patrol_enemies": 0,
      "flying_spawn_interval_ms": 2600,
      "falling_rock_spawn_interval_ms": 0
    },
    {
      "index": 145,
      "duration_beats": 2,
      "bpm": 78,
      "energy_state": "medium",
      "platform_types": [
        "static",
        "beat",
        "alternateBeat",
        "ghost",
        "reverseGhost",
        "elevator"
      ],
      "vertical_range": [
        0,
        4
      ],
      "rhythm_density": 0.9137699251008254,
      "patrol_enemies": 0,
      "flying_spawn_interval_ms": 0,
      "falling_rock_spawn_interval_ms": 0
    },
    {
      "index": 146,
      "duration_beats": 2,
      "bpm": 78,
      "energy_state": "medium",
      "platform_types": [
        "static",
        "beat",
        "alternateBeat",
        "ghost",
        "reverseGhost",
        "elevator"
      ],
      "vertical_range": [
        0,
        4
      ],
      "rhythm_density": 0.9189143910202717,
      "patrol_enemies": 1,
      "flying_spawn_interval_ms": 0,
      "falling_rock_spawn_interval_ms": 0
    },
    {
      "index": 147,
      "duration_beats": 2,
      "bpm": 78,
      "energy_state": "medium",
      "platform_types": [
        "static",
        "beat",
        "alternateBeat",
        "ghost",
        "reverseGhost",
        "elevator"
      ],
      "vertical_range": [
        0,
        4
      ],
      "rhythm_density": 0.9030746156730409,
      "patrol_enemies": 1,
      "flying_spawn_interval_ms": 0,
      "falling_rock_spawn_interval_ms": 0
    },
    {
      "index": 148,
      "duration_beats": 2,
      "bpm": 154,
      "energy_state": "low",
      "platform_types": [
        "static",
        "beat",
        "alternateBeat",
        "elevator"
      ],
      "vertical_range": [
        0,
        2
      ],
      "rhythm_density": 0.93212055389628,
      "patrol_enemies": 0,
      "flying_spawn_interval_ms": 0,
      "falling_rock_spawn_interval_ms": 0
    },
    {
      "index": 149,
      "duration_beats": 2,
      "bpm": 154,
      "energy_state": "medium",
      "platform_types": [
        "static",
        "beat",
        "alternateBeat",
        "ghost",
        "reverseGhost",
        "elevator"
      ],
      "vertical_range": [
        0,
        2
      ],
      "rhythm_density": 0.9486399427344305,
      "patrol_enemies": 1,
      "flying_spawn_interval_ms": 2600,
      "falling_rock_spawn_interval_ms": 0
    },
    {
      "index": 150,
      "duration_beats": 2,
      "bpm": 154,
      "energy_state": "medium",
      "platform_types": [
        "static",
        "beat",
        "alternateBeat",
        "ghost",
        "reverseGhost",
        "elevator"
      ],
      "vertical_range": [
        0,
        2
      ],
      "rhythm_density": 0.9483387747263298,
      "patrol_enemies": 0,
      "flying_spawn_interval_ms": 0,
      "falling_rock_spawn_interval_ms": 0
    },
    {
      "index": 151,
      "duration_beats": 2,
      "bpm": 154,
      "energy_state": "medium",
      "platform_types": [
        "static",
        "beat",
        "alternateBeat",
        "ghost",
        "reverseGhost",
        "elevator"
      ],
      "vertical_range": [
        0,
        2
      ],
      "rhythm_density": 0.9489104559604462,
      "patrol_enemies": 0,
      "flying_spawn_interval_ms": 0,
      "falling_rock_spawn_interval_ms": 0
    },
    {
      "index": 152,
      "duration_beats": 2,
      "bpm": 154,
      "energy_state": "medium",
      "platform_types": [
        "static",
        "beat",
        "alternateBeat",
        "ghost",
        "reverseGhost",
        "elevator"
      ],
      "vertical_range": [
        0,
        3
      ],
      "rhythm_density": 0.942957130358705,
      "patrol_enemies": 0,
      "flying_spawn_interval_ms": 0,
      "falling_rock_spawn_interval_ms": 0
    },
    {
      "index": 153,
      "duration_beats": 2,
      "bpm": 154,
      "energy_state": "low",
      "platform_types": [
        "static",
        "beat",
        "alternateBeat",
        "elevator"
      ],
      "vertical_range": [
        0,
        3
      ],
      "rhythm_density": 0.9458267716535431,
      "patrol_enemies": 0,
      "flying_spawn_interval_ms": 0,
      "falling_rock_spawn_interval_ms": 0
    },
    {
      "index": 154,
      "duration_beats": 2,
      "bpm": 154,
      "energy_state": "low",
      "platform_types": [
        "static",
        "beat",
        "alternateBeat",
        "elevator"
      ],
      "vertical_range": [
        0,
        3
      ],
      "rhythm_density": 0.9520809898762652,
      "patrol_enemies": 0,
      "flying_spawn_interval_ms": 3400,
      "falling_rock_spawn_interval_ms": 0
    },
    {
      "index": 155,
      "duration_beats": 2,
      "bpm": 154,
      "energy_state": "medium",
      "platform_types": [
        "static",
        "beat",
        "alternateBeat",
        "ghost",
        "reverseGhost",
        "elevator"
      ],
      "vertical_range": [
        0,
        3
      ],
      "rhythm_density": 0.9461942257217841,
      "patrol_enemies": 1,
      "flying_spawn_interval_ms": 0,
      "falling_rock_spawn_interval_ms": 0
    },
    {
      "index": 156,
      "duration_beats": 2,
      "bpm": 154,
      "energy_state": "low",
      "platform_types": [
        "static",
        "beat",
        "alternateBeat",
        "elevator"
      ],
      "vertical_range": [
        0,
        3
      ],
      "rhythm_density": 0.9565659131318262,
      "patrol_enemies": 0,
      "flying_spawn_interval_ms": 0,
      "falling_rock_spawn_interval_ms": 0
    },
    {
      "index": 157,
      "duration_beats": 2,
      "bpm": 154,
      "energy_state": "low",
      "platform_types": [
        "static",
        "beat",
        "alternateBeat",
        "elevator"
      ],
      "vertical_range": [
        0,
        3
      ],
      "rhythm_density": 0.9274465691788523,
      "patrol_enemies": 0,
      "flying_spawn_interval_ms": 0,
      "falling_rock_spawn_interval_ms": 0
    },
    {
      "index": 158,
      "duration_beats": 2,
      "bpm": 154,
      "energy_state": "medium",
      "platform_types": [
        "static",
        "beat",
        "alternateBeat",
        "ghost",
        "reverseGhost",
        "elevator"
      ],
      "vertical_range": [
        0,
        3
      ],
      "rhythm_density": 0.9559430071241092,
      "patrol_enemies": 0,
      "flying_spawn_interval_ms": 0,
      "falling_rock_spawn_interval_ms": 0
    },
    {
      "index": 159,
      "duration_beats": 2,
      "bpm": 154,
      "energy_state": "low",
      "platform_types": [
        "static",
        "beat",
        "alternateBeat",
        "elevator"
      ],
      "vertical_range": [
        0,
        3
      ],
      "rhythm_density": 0.9558577905034595,
      "patrol_enemies": 0,
      "flying_spawn_interval_ms": 3400,
      "falling_rock_spawn_interval_ms": 0
    },
    {
      "index": 160,
      "duration_beats": 2,
      "bpm": 154,
      "energy_state": "low",
      "platform_types": [
        "static",
        "beat",
        "alternateBeat",
        "elevator"
      ],
      "vertical_range": [
        0,
        3
      ],
      "rhythm_density": 0.9446194225721781,
      "patrol_enemies": 0,
      "flying_spawn_interval_ms": 0,
      "falling_rock_spawn_interval_ms": 0
    },
    {
      "index": 161,
      "duration_beats": 2,
      "bpm": 154,
      "energy_state": "low",
      "platform_types": [
        "static",
        "beat",
        "alternateBeat",
        "elevator"
      ],
      "vertical_range": [
        0,
        3
      ],
      "rhythm_density": 0.939107611548556,
      "patrol_enemies": 0,
      "flying_spawn_interval_ms": 0,
      "falling_rock_spawn_interval_ms": 0
    },
    {
      "index": 162,
      "duration_beats": 2,
      "bpm": 154,
      "energy_state": "low",
      "platform_types": [
        "static",
        "beat",
        "alternateBeat",
        "elevator"
      ],
      "vertical_range": [
        0,
        3
      ],
      "rhythm_density": 0.9433508311461064,
      "patrol_enemies": 0,
      "flying_spawn_interval_ms": 0,
      "falling_rock_spawn_interval_ms": 0
    },
    {
      "index": 163,
      "duration_beats": 2,
      "bpm": 154,
      "energy_state": "low",
      "platform_types": [
        "static",
        "beat",
        "alternateBeat",
        "elevator"
      ],
      "vertical_range": [
        0,
        3
      ],
      "rhythm_density": 0.9486831387455876,
      "patrol_enemies": 0,
      "flying_spawn_interval_ms": 0,
      "falling_rock_spawn_interval_ms": 0
    },
    {
      "index": 164,
      "duration_beats": 2,
      "bpm": 154,
      "energy_state": "medium",
      "platform_types": [
        "static",
        "beat",
        "alternateBeat",
        "ghost",
        "reverseGhost",
        "elevator"
      ],
      "vertical_range": [
        0,
        3
      ],
      "rhythm_density": 0.9467971908916789,
      "patrol_enemies": 1,
      "flying_spawn_interval_ms": 2600,
      "falling_rock_spawn_interval_ms": 0
    },
    {
      "index": 165,
      "duration_beats": 2,
      "bpm": 154,
      "energy_state": "medium",
      "platform_types": [
        "static",
        "beat",
        "alternateBeat",
        "ghost",
        "reverseGhost",
        "elevator"
      ],
      "vertical_range": [
        0,
        3
      ],
      "rhythm_density": 0.9582677165354327,
      "patrol_enemies": 1,
      "flying_spawn_interval_ms": 0,
      "falling_rock_spawn_interval_ms": 0
    },
    {
      "index": 166,
      "duration_beats": 2,
      "bpm": 154,
      "energy_state": "medium",
      "platform_types": [
        "static",
        "beat",
        "alternateBeat",
        "ghost",
        "reverseGhost",
        "elevator"
      ],
      "vertical_range": [
        0,
        3
      ],
      "rhythm_density": 0.9441390580894365,
      "patrol_enemies": 0,
      "flying_spawn_interval_ms": 0,
      "falling_rock_spawn_interval_ms": 0
    },
    {
      "index": 167,
      "duration_beats": 2,
      "bpm": 154,
      "energy_state": "medium",
      "platform_types": [
        "static",
        "beat",
        "alternateBeat",
        "ghost",
        "reverseGhost",
        "elevator"
      ],
      "vertical_range": [
        0,
        3
      ],
      "rhythm_density": 0.9527559055118109,
      "patrol_enemies": 1,
      "flying_spawn_interval_ms": 0,
      "falling_rock_spawn_interval_ms": 0
    },
    {
      "index": 168,
      "duration_beats": 2,
      "bpm": 154,
      "energy_state": "medium",
      "platform_types": [
        "static",
        "beat",
        "alternateBeat",
        "ghost",
        "reverseGhost",
        "elevator"
      ],
      "vertical_range": [
        0,
        4
      ],
      "rhythm_density": 0.9456692913385821,
      "patrol_enemies": 1,
      "flying_spawn_interval_ms": 0,
      "falling_rock_spawn_interval_ms": 0
    },
    {
      "index": 169,
      "duration_beats": 2,
      "bpm": 154,
      "energy_state": "medium",
      "platform_types": [
        "static",
        "beat",
        "alternateBeat",
        "ghost",
        "reverseGhost",
        "elevator"
      ],
      "vertical_range": [
        0,
        4
      ],
      "rhythm_density": 0.9472302804254732,
      "patrol_enemies": 1,
      "flying_spawn_interval_ms": 2600,
      "falling_rock_spawn_interval_ms": 0
    },
    {
      "index": 170,
      "duration_beats": 2,
      "bpm": 154,
      "energy_state": "medium",
      "platform_types": [
        "static",
        "beat",
        "alternateBeat",
        "ghost",
        "reverseGhost",
        "elevator"
      ],
      "vertical_range": [
        0,
        4
      ],
      "rhythm_density": 0.9467097862767149,
      "patrol_enemies": 1,
      "flying_spawn_interval_ms": 0,
      "falling_rock_spawn_interval_ms": 0
    },
    {
      "index": 171,
      "duration_beats": 2,
      "bpm": 154,
      "energy_state": "medium",
      "platform_types": [
        "static",
        "beat",
        "alternateBeat",
        "ghost",
        "reverseGhost",
        "elevator"
      ],
      "vertical_range": [
        0,
        3
      ],
      "rhythm_density": 0.9289957176405583,
      "patrol_enemies": 1,
      "flying_spawn_interval_ms": 0,
      "falling_rock_spawn_interval_ms": 0
    },
    {
      "index": 172,
      "duration_beats": 2,
      "bpm": 154,
      "energy_state": "medium",
      "platform_types": [
        "static",
        "beat",
        "alternateBeat",
        "ghost",
        "reverseGhost",
        "elevator"
      ],
      "vertical_range": [
        0,
        3
      ],
      "rhythm_density": 0.9569339546842356,
      "patrol_enemies": 1,
      "flying_spawn_interval_ms": 0,
      "falling_rock_spawn_interval_ms": 0
    },
    {
      "index": 173,
      "duration_beats": 2,
      "bpm": 154,
      "energy_state": "medium",
      "platform_types": [
        "static",
        "beat",
        "alternateBeat",
        "ghost",
        "reverseGhost",
        "elevator"
      ],
      "vertical_range": [
        0,
        2
      ],
      "rhythm_density": 0.9276574803149603,
      "patrol_enemies": 1,
      "flying_spawn_interval_ms": 0,
      "falling_rock_spawn_interval_ms": 0
    },
    {
      "index": 174,
      "duration_beats": 2,
      "bpm": 154,
      "energy_state": "low",
      "platform_types": [
        "static",
        "beat",
        "alternateBeat",
        "elevator"
      ],
      "vertical_range": [
        1,
        3
      ],
      "rhythm_density": 0.9452963116452547,
      "patrol_enemies": 0,
      "flying_spawn_interval_ms": 3400,
      "falling_rock_spawn_interval_ms": 0
    },
    {
      "index": 175,
      "duration_beats": 2,
      "bpm": 154,
      "energy_state": "low",
      "platform_types": [
        "static",
        "beat",
        "alternateBeat",
        "elevator"
      ],
      "vertical_range": [
        0,
        2
      ],
      "rhythm_density": 0.9275590551181102,
      "patrol_enemies": 0,
      "flying_spawn_interval_ms": 0,
      "falling_rock_spawn_interval_ms": 0
    },
    {
      "index": 176,
      "duration_beats": 2,
      "bpm": 154,
      "energy_state": "low",
      "platform_types": [
        "static",
        "beat",
        "alternateBeat",
        "elevator"
      ],
      "vertical_range": [
        0,
        3
      ],
      "rhythm_density": 0.9609014390442574,
      "patrol_enemies": 0,
      "flying_spawn_interval_ms": 0,
      "falling_rock_spawn_interval_ms": 0
    },
    {
      "index": 177,
      "duration_beats": 2,
      "bpm": 78,
      "energy_state": "medium",
      "platform_types": [
        "static",
        "beat",
        "alternateBeat",
        "ghost",
        "reverseGhost",
        "elevator"
      ],
      "vertical_range": [
        0,
        3
      ],
      "rhythm_density": 0.9096456692913385,
      "patrol_enemies": 1,
      "flying_spawn_interval_ms": 0,
      "falling_rock_spawn_interval_ms": 0
    },
    {
      "index": 178,
      "duration_beats": 2,
      "bpm": 78,
      "energy_state": "medium",
      "platform_types": [
        "static",
        "beat",
        "alternateBeat",
        "ghost",
        "reverseGhost",
        "elevator"
      ],
      "vertical_range": [
        0,
        3
      ],
      "rhythm_density": 0.9103862017247841,
      "patrol_enemies": 0,
      "flying_spawn_interval_ms": 0,
      "falling_rock_spawn_interval_ms": 0
    },
    {
      "index": 179,
      "duration_beats": 2,
      "bpm": 78,
      "energy_state": "medium",
      "platform_types": [
        "static",
        "beat",
        "alternateBeat",
        "ghost",
        "reverseGhost",
        "elevator"
      ],
      "vertical_range": [
        0,
        4
      ],
      "rhythm_density": 0.8996062992125979,
      "patrol_enemies": 0,
      "flying_spawn_interval_ms": 2600,
      "falling_rock_spawn_interval_ms": 0
    },
    {
      "index": 180,
      "duration_beats": 2,
      "bpm": 78,
      "energy_state": "low",
      "platform_types": [
        "static",
        "beat",
        "alternateBeat",
        "elevator"
      ],
      "vertical_range": [
        0,
        4
      ],
      "rhythm_density": 0.9429921259842518,
      "patrol_enemies": 0,
      "flying_spawn_interval_ms": 0,
      "falling_rock_spawn_interval_ms": 0
    },
    {
      "index": 181,
      "duration_beats": 2,
      "bpm": 78,
      "energy_state": "low",
      "platform_types": [
        "static",
        "beat",
        "alternateBeat",
        "elevator"
      ],
      "vertical_range": [
        0,
        3
      ],
      "rhythm_density": 0.9507144940215803,
      "patrol_enemies": 0,
      "flying_spawn_interval_ms": 0,
      "falling_rock_spawn_interval_ms": 0
    },
    {
      "index": 182,
      "duration_beats": 2,
      "bpm": 78,
      "energy_state": "low",
      "platform_types": [
        "static",
        "beat",
        "alternateBeat",
        "elevator"
      ],
      "vertical_range": [
        0,
        4
      ],
      "rhythm_density": 0.9386951631046117,
      "patrol_enemies": 0,
      "flying_spawn_interval_ms": 0,
      "falling_rock_spawn_interval_ms": 0
    },
    {
      "index": 183,
      "duration_beats": 2,
      "bpm": 78,
      "energy_state": "low",
      "platform_types": [
        "static",
        "beat",
        "alternateBeat",
        "elevator"
      ],
      "vertical_range": [
        0,
        4
      ],
      "rhythm_density": 0.9520059992500937,
      "patrol_enemies": 0,
      "flying_spawn_interval_ms": 0,
      "falling_rock_spawn_interval_ms": 0
    },
    {
      "index": 184,
      "duration_beats": 2,
      "bpm": 78,
      "energy_state": "low",
      "platform_types": [
        "static",
        "beat",
        "alternateBeat",
        "elevator"
      ],
      "vertical_range": [
        0,
        3
      ],
      "rhythm_density": 0.9437570303712032,
      "patrol_enemies": 0,
      "flying_spawn_interval_ms": 3400,
      "falling_rock_spawn_interval_ms": 0
    },
    {
      "index": 185,
      "duration_beats": 2,
      "bpm": 78,
      "energy_state": "low",
      "platform_types": [
        "static",
        "beat",
        "alternateBeat",
        "elevator"
      ],
      "vertical_range": [
        0,
        3
      ],
      "rhythm_density": 0.9333737129012717,
      "patrol_enemies": 0,
      "flying_spawn_interval_ms": 0,
      "falling_rock_spawn_interval_ms": 0
    },
    {
      "index": 186,
      "duration_beats": 2,
      "bpm": 78,
      "energy_state": "low",
      "platform_types": [
        "static",
        "beat",
        "alternateBeat",
        "elevator"
      ],
      "vertical_range": [
        0,
        4
      ],
      "rhythm_density": 0.9454443194600675,
      "patrol_enemies": 0,
      "flying_spawn_interval_ms": 0,
      "falling_rock_spawn_interval_ms": 0
    },
    {
      "index": 187,
      "duration_beats": 2,
      "bpm": 78,
      "energy_state": "low",
      "platform_types": [
        "static",
        "beat",
        "alternateBeat",
        "elevator"
      ],
      "vertical_range": [
        0,
        4
      ],
      "rhythm_density": 0.9516821760916248,
      "patrol_enemies": 0,
      "flying_spawn_interval_ms": 0,
      "falling_rock_spawn_interval_ms": 0
    },
    {
      "index": 188,
      "duration_beats": 2,
      "bpm": 78,
      "energy_state": "low",
      "platform_types": [
        "static",
        "beat",
        "alternateBeat",
        "elevator"
      ],
      "vertical_range": [
        0,
        4
      ],
      "rhythm_density": 0.9452963116452547,
      "patrol_enemies": 0,
      "flying_spawn_interval_ms": 0,
      "falling_rock_spawn_interval_ms": 0
    },
    {
      "index": 189,
      "duration_beats": 2,
      "bpm": 78,
      "energy_state": "low",
      "platform_types": [
        "static",
        "beat",
        "alternateBeat",
        "elevator"
      ],
      "vertical_range": [
        0,
        3
      ],
      "rhythm_density": 0.9534406025333787,
      "patrol_enemies": 0,
      "flying_spawn_interval_ms": 3400,
      "falling_rock_spawn_interval_ms": 0
    },
    {
      "index": 190,
      "duration_beats": 2,
      "bpm": 78,
      "energy_state": "low",
      "platform_types": [
        "static",
        "beat",
        "alternateBeat",
        "elevator"
      ],
      "vertical_range": [
        0,
        4
      ],
      "rhythm_density": 0.9600674915635546,
      "patrol_enemies": 0,
      "flying_spawn_interval_ms": 0,
      "falling_rock_spawn_interval_ms": 0
    },
    {
      "index": 191,
      "duration_beats": 2,
      "bpm": 78,
      "energy_state": "low",
      "platform_types": [
        "static",
        "beat",
        "alternateBeat",
        "elevator"
      ],
      "vertical_range": [
        0,
        4
      ],
      "rhythm_density": 0.8430446194225723,
      "patrol_enemies": 0,
      "flying_spawn_interval_ms": 0,
      "falling_rock_spawn_interval_ms": 0
    },
    {
      "index": 192,
      "duration_beats": 2,
      "bpm": 78,
      "energy_state": "low",
      "platform_types": [
        "static",
        "beat",
        "alternateBeat",
        "elevator"
      ],
      "vertical_range": [
        0,
        1
      ],
      "rhythm_density": 0.9448818897637795,
      "patrol_enemies": 0,
      "flying_spawn_interval_ms": 0,
      "falling_rock_spawn_interval_ms": 0
    },
    {
      "index": 193,
      "duration_beats": 2,
      "bpm": 78,
      "energy_state": "low",
      "platform_types": [
        "static",
        "beat",
        "alternateBeat",
        "elevator"
      ],
      "vertical_range": [
        0,
        4
      ],
      "rhythm_density": 0.9443194600674917,
      "patrol_enemies": 0,
      "flying_spawn_interval_ms": 0,
      "falling_rock_spawn_interval_ms": 0
    },
    {
      "index": 194,
      "duration_beats": 2,
      "bpm": 78,
      "energy_state": "low",
      "platform_types": [
        "static",
        "beat",
        "alternateBeat",
        "elevator"
      ],
      "vertical_range": [
        1,
        3
      ],
      "rhythm_density": 0.9234470691163605,
      "patrol_enemies": 0,
      "flying_spawn_interval_ms": 3400,
      "falling_rock_spawn_interval_ms": 0
    },
    {
      "index": 195,
      "duration_beats": 2,
      "bpm": 78,
      "energy_state": "low",
      "platform_types": [
        "static",
        "beat",
        "alternateBeat",
        "elevator"
      ],
      "vertical_range": [
        0,
        3
      ],
      "rhythm_density": 0.8553667633651059,
      "patrol_enemies": 0,
      "flying_spawn_interval_ms": 0,
      "falling_rock_spawn_interval_ms": 0
    },
    {
      "index": 196,
      "duration_beats": 2,
      "bpm": 78,
      "energy_state": "low",
      "platform_types": [
        "static",
        "beat",
        "alternateBeat",
        "elevator"
      ],
      "vertical_range": [
        0,
        3
      ],
      "rhythm_density": 0.9398200224971879,
      "patrol_enemies": 0,
      "flying_spawn_interval_ms": 0,
      "falling_rock_spawn_interval_ms": 0
    },
    {
      "index": 197,
      "duration_beats": 2,
      "bpm": 78,
      "energy_state": "low",
      "platform_types": [
        "static",
        "beat",
        "alternateBeat",
        "elevator"
      ],
      "vertical_range": [
        0,
        3
      ],
      "rhythm_density": 0.8986220472440946,
      "patrol_enemies": 0,
      "flying_spawn_interval_ms": 0,
      "falling_rock_spawn_interval_ms": 0
    },
    {
      "index": 198,
      "duration_beats": 2,
      "bpm": 78,
      "energy_state": "low",
      "platform_types": [
        "static",
        "beat",
        "alternateBeat",
        "elevator"
      ],
      "vertical_range": [
        0,
        3
      ],
      "rhythm_density": 0.9309509388249546,
      "patrol_enemies": 0,
      "flying_spawn_interval_ms": 0,
      "falling_rock_spawn_interval_ms": 0
    },
    {
      "index": 199,
      "duration_beats": 2,
      "bpm": 78,
      "energy_state": "low",
      "platform_types": [
        "static",
        "beat",
        "alternateBeat",
        "elevator"
      ],
      "vertical_range": [
        0,
        3
      ],
      "rhythm_density": 0.883989501312336,
      "patrol_enemies": 0,
      "flying_spawn_interval_ms": 3400,
      "falling_rock_spawn_interval_ms": 0
    },
    {
      "index": 200,
      "duration_beats": 2,
      "bpm": 78,
      "energy_state": "low",
      "platform_types": [
        "static",
        "beat",
        "alternateBeat",
        "elevator"
      ],
      "vertical_range": [
        0,
        3
      ],
      "rhythm_density": 0.937007874015748,
      "patrol_enemies": 0,
      "flying_spawn_interval_ms": 0,
      "falling_rock_spawn_interval_ms": 0
    },
    {
      "index": 201,
      "duration_beats": 2,
      "bpm": 78,
      "energy_state": "low",
      "platform_types": [
        "static",
        "beat",
        "alternateBeat",
        "elevator"
      ],
      "vertical_range": [
        0,
        2
      ],
      "rhythm_density": 0.9143700787401575,
      "patrol_enemies": 0,
      "flying_spawn_interval_ms": 0,
      "falling_rock_spawn_interval_ms": 0
    },
    {
      "index": 202,
      "duration_beats": 2,
      "bpm": 78,
      "energy_state": "low",
      "platform_types": [
        "static",
        "beat",
        "alternateBeat",
        "elevator"
      ],
      "vertical_range": [
        0,
        3
      ],
      "rhythm_density": 0.9063867016622922,
      "patrol_enemies": 0,
      "flying_spawn_interval_ms": 0,
      "falling_rock_spawn_interval_ms": 0
    },
    {
      "index": 203,
      "duration_beats": 2,
      "bpm": 78,
      "energy_state": "low",
      "platform_types": [
        "static",
        "beat",
        "alternateBeat",
        "elevator"
      ],
      "vertical_range": [
        0,
        2
      ],
      "rhythm_density": 0.9311023622047244,
      "patrol_enemies": 0,
      "flying_spawn_interval_ms": 0,
      "falling_rock_spawn_interval_ms": 0
    },
    {
      "index": 204,
      "duration_beats": 2,
      "bpm": 78,
      "energy_state": "low",
      "platform_types": [
        "static",
        "beat",
        "alternateBeat",
        "elevator"
      ],
      "vertical_range": [
        0,
        2
      ],
      "rhythm_density": 0.9133858267716535,
      "patrol_enemies": 0,
      "flying_spawn_interval_ms": 3400,
      "falling_rock_spawn_interval_ms": 0
    },
    {
      "index": 205,
      "duration_beats": 2,
      "bpm": 78,
      "energy_state": "low",
      "platform_types": [
        "static",
        "beat",
        "alternateBeat",
        "elevator"
      ],
      "vertical_range": [
        0,
        2
      ],
      "rhythm_density": 0.8330708661417322,
      "patrol_enemies": 0,
      "flying_spawn_interval_ms": 0,
      "falling_rock_spawn_interval_ms": 0
    },
    {
      "index": 206,
      "duration_beats": 2,
      "bpm": 78,
      "energy_state": "low",
      "platform_types": [
        "static",
        "beat",
        "alternateBeat",
        "elevator"
      ],
      "vertical_range": [
        0,
        2
      ],
      "rhythm_density": 0.8946850393700788,
      "patrol_enemies": 0,
      "flying_spawn_interval_ms": 0,
      "falling_rock_spawn_interval_ms": 0
    },
    {
      "index": 207,
      "duration_beats": 2,
      "bpm": 78,
      "energy_state": "low",
      "platform_types": [
        "static",
        "beat",
        "alternateBeat",
        "elevator"
      ],
      "vertical_range": [
        0,
        2
      ],
      "rhythm_density": 0.8359580052493438,
      "patrol_enemies": 0,
      "flying_spawn_interval_ms": 0,
      "falling_rock_spawn_interval_ms": 0
    },
    {
      "index": 208,
      "duration_beats": 2,
      "bpm": 78,
      "energy_state": "low",
      "platform_types": [
        "static",
        "beat",
        "alternateBeat",
        "elevator"
      ],
      "vertical_range": [
        0,
        2
      ],
      "rhythm_density": 0.9409448818897638,
      "patrol_enemies": 0,
      "flying_spawn_interval_ms": 0,
      "falling_rock_spawn_interval_ms": 0
    },
    {
      "index": 209,
      "duration_beats": 2,
      "bpm": 78,
      "energy_state": "low",
      "platform_types": [
        "static",
        "beat",
        "alternateBeat",
        "elevator"
      ],
      "vertical_range": [
        0,
        2
      ],
      "rhythm_density": 0.6545275590551181,
      "patrol_enemies": 0,
      "flying_spawn_interval_ms": 3400,
      "falling_rock_spawn_interval_ms": 0
    },
    {
      "index": 210,
      "duration_beats": 2,
      "bpm": 78,
      "energy_state": "low",
      "platform_types": [
        "static",
        "beat",
        "alternateBeat",
        "elevator"
      ],
      "vertical_range": [
        0,
        1
      ],
      "rhythm_density": 0,
      "patrol_enemies": 0,
      "flying_spawn_interval_ms": 0,
      "falling_rock_spawn_interval_ms": 0
    },
    {
      "index": 211,
      "duration_beats": 2,
      "bpm": 78,
      "energy_state": "low",
      "platform_types": [
        "static",
        "beat",
        "alternateBeat",
        "elevator"
      ],
      "vertical_range": [
        0,
        1
      ],
      "rhythm_density": 0,
      "patrol_enemies": 0,
      "flying_spawn_interval_ms": 0,
      "falling_rock_spawn_interval_ms": 0
    },
    {
      "index": 212,
      "duration_beats": 2,
      "bpm": 78,
      "energy_state": "low",
      "platform_types": [
        "static",
        "beat",
        "alternateBeat",
        "elevator"
      ],
      "vertical_range": [
        0,
        1
      ],
      "rhythm_density": 0,
      "patrol_enemies": 0,
      "flying_spawn_interval_ms": 0,
      "falling_rock_spawn_interval_ms": 0
    },
    {
      "index": 213,
      "duration_beats": 2,
      "bpm": 78,
      "energy_state": "low",
      "platform_types": [
        "static",
        "beat",
        "alternateBeat",
        "elevator"
      ],
      "vertical_range": [
        0,
        1
      ],
      "rhythm_density": 0,
      "patrol_enemies": 0,
      "flying_spawn_interval_ms": 0,
      "falling_rock_spawn_interval_ms": 0
    },
    {
      "index": 214,
      "duration_beats": 2,
      "bpm": 78,
      "energy_state": "low",
      "platform_types": [
        "static",
        "beat",
        "alternateBeat",
        "elevator"
      ],
      "vertical_range": [
        0,
        1
      ],
      "rhythm_density": 0,
      "patrol_enemies": 0,
      "flying_spawn_interval_ms": 3400,
      "falling_rock_spawn_interval_ms": 0
    },
    {
      "index": 215,
      "duration_beats": 2,
      "bpm": 78,
      "energy_state": "low",
      "platform_types": [
        "static",
        "beat",
        "alternateBeat",
        "elevator"
      ],
      "vertical_range": [
        0,
        1
      ],
      "rhythm_density": 0,
      "patrol_enemies": 0,
      "flying_spawn_interval_ms": 0,
      "falling_rock_spawn_interval_ms": 0
    },
    {
      "index": 216,
      "duration_beats": 2,
      "bpm": 78,
      "energy_state": "low",
      "platform_types": [
        "static",
        "beat",
        "alternateBeat",
        "elevator"
      ],
      "vertical_range": [
        0,
        1
      ],
      "rhythm_density": 0,
      "patrol_enemies": 0,
      "flying_spawn_interval_ms": 0,
      "falling_rock_spawn_interval_ms": 0
    },
    {
      "index": 217,
      "duration_beats": 2,
      "bpm": 78,
      "energy_state": "low",
      "platform_types": [
        "static",
        "beat",
        "alternateBeat",
        "elevator"
      ],
      "vertical_range": [
        0,
        1
      ],
      "rhythm_density": 0,
      "patrol_enemies": 0,
      "flying_spawn_interval_ms": 0,
      "falling_rock_spawn_interval_ms": 0
    },
    {
      "index": 218,
      "duration_beats": 2,
      "bpm": 78,
      "energy_state": "low",
      "platform_types": [
        "static",
        "beat",
        "alternateBeat",
        "elevator"
      ],
      "vertical_range": [
        0,
        1
      ],
      "rhythm_density": 0,
      "patrol_enemies": 0,
      "flying_spawn_interval_ms": 0,
      "falling_rock_spawn_interval_ms": 0
    },
    {
      "index": 219,
      "duration_beats": 2,
      "bpm": 78,
      "energy_state": "low",
      "platform_types": [
        "static",
        "beat",
        "alternateBeat",
        "elevator"
      ],
      "vertical_range": [
        0,
        1
      ],
      "rhythm_density": 0,
      "patrol_enemies": 0,
      "flying_spawn_interval_ms": 3400,
      "falling_rock_spawn_interval_ms": 0
    },
    {
      "index": 220,
      "duration_beats": 2,
      "bpm": 78,
      "energy_state": "low",
      "platform_types": [
        "static",
        "beat",
        "alternateBeat",
        "elevator"
      ],
      "vertical_range": [
        0,
        1
      ],
      "rhythm_density": 0,
      "patrol_enemies": 0,
      "flying_spawn_interval_ms": 0,
      "falling_rock_spawn_interval_ms": 0
    },
    {
      "index": 221,
      "duration_beats": 2,
      "bpm": 78,
      "energy_state": "low",
      "platform_types": [
        "static",
        "beat",
        "alternateBeat",
        "elevator"
      ],
      "vertical_range": [
        0,
        1
      ],
      "rhythm_density": 0,
      "patrol_enemies": 0,
      "flying_spawn_interval_ms": 0,
      "falling_rock_spawn_interval_ms": 0
    },
    {
      "index": 222,
      "duration_beats": 2,
      "bpm": 78,
      "energy_state": "low",
      "platform_types": [
        "static",
        "beat",
        "alternateBeat",
        "elevator"
      ],
      "vertical_range": [
        0,
        1
      ],
      "rhythm_density": 0,
      "patrol_enemies": 0,
      "flying_spawn_interval_ms": 0,
      "falling_rock_spawn_interval_ms": 0
    },
    {
      "index": 223,
      "duration_beats": 2,
      "bpm": 78,
      "energy_state": "low",
      "platform_types": [
        "static",
        "beat",
        "alternateBeat",
        "elevator"
      ],
      "vertical_range": [
        0,
        1
      ],
      "rhythm_density": 0,
      "patrol_enemies": 0,
      "flying_spawn_interval_ms": 0,
      "falling_rock_spawn_interval_ms": 0
    },
    {
      "index": 224,
      "duration_beats": 2,
      "bpm": 78,
      "energy_state": "low",
      "platform_types": [
        "static",
        "beat",
        "alternateBeat",
        "elevator"
      ],
      "vertical_range": [
        0,
        1
      ],
      "rhythm_density": 0,
      "patrol_enemies": 0,
      "flying_spawn_interval_ms": 3400,
      "falling_rock_spawn_interval_ms": 0
    },
    {
      "index": 225,
      "duration_beats": 2,
      "bpm": 78,
      "energy_state": "low",
      "platform_types": [
        "static",
        "beat",
        "alternateBeat",
        "elevator"
      ],
      "vertical_range": [
        0,
        1
      ],
      "rhythm_density": 0,
      "patrol_enemies": 0,
      "flying_spawn_interval_ms": 0,
      "falling_rock_spawn_interval_ms": 0
    },
    {
      "index": 226,
      "duration_beats": 2,
      "bpm": 78,
      "energy_state": "low",
      "platform_types": [
        "static",
        "beat",
        "alternateBeat",
        "elevator"
      ],
      "vertical_range": [
        0,
        1
      ],
      "rhythm_density": 0,
      "patrol_enemies": 0,
      "flying_spawn_interval_ms": 0,
      "falling_rock_spawn_interval_ms": 0
    },
    {
      "index": 227,
      "duration_beats": 2,
      "bpm": 78,
      "energy_state": "low",
      "platform_types": [
        "static",
        "beat",
        "alternateBeat",
        "elevator"
      ],
      "vertical_range": [
        0,
        1
      ],
      "rhythm_density": 0,
      "patrol_enemies": 0,
      "flying_spawn_interval_ms": 0,
      "falling_rock_spawn_interval_ms": 0
    },
    {
      "index": 228,
      "duration_beats": 2,
      "bpm": 78,
      "energy_state": "low",
      "platform_types": [
        "static",
        "beat",
        "alternateBeat",
        "elevator"
      ],
      "vertical_range": [
        0,
        1
      ],
      "rhythm_density": 0,
      "patrol_enemies": 0,
      "flying_spawn_interval_ms": 0,
      "falling_rock_spawn_interval_ms": 0
    },
    {
      "index": 229,
      "duration_beats": 2,
      "bpm": 78,
      "energy_state": "low",
      "platform_types": [
        "static",
        "beat",
        "alternateBeat",
        "elevator"
      ],
      "vertical_range": [
        0,
        1
      ],
      "rhythm_density": 0,
      "patrol_enemies": 0,
      "flying_spawn_interval_ms": 3400,
      "falling_rock_spawn_interval_ms": 0
    },
    {
      "index": 230,
      "duration_beats": 2,
      "bpm": 78,
      "energy_state": "low",
      "platform_types": [
        "static",
        "beat",
        "alternateBeat",
        "elevator"
      ],
      "vertical_range": [
        0,
        1
      ],
      "rhythm_density": 0,
      "patrol_enemies": 0,
      "flying_spawn_interval_ms": 0,
      "falling_rock_spawn_interval_ms": 0
    },
    {
      "index": 231,
      "duration_beats": 2,
      "bpm": 78,
      "energy_state": "low",
      "platform_types": [
        "static",
        "beat",
        "alternateBeat",
        "elevator"
      ],
      "vertical_range": [
        0,
        1
      ],
      "rhythm_density": 0,
      "patrol_enemies": 0,
      "flying_spawn_interval_ms": 0,
      "falling_rock_spawn_interval_ms": 0
    },
    {
      "index": 232,
      "duration_beats": 2,
      "bpm": 78,
      "energy_state": "low",
      "platform_types": [
        "static",
        "beat",
        "alternateBeat",
        "elevator"
      ],
      "vertical_range": [
        0,
        1
      ],
      "rhythm_density": 0,
      "patrol_enemies": 0,
      "flying_spawn_interval_ms": 0,
      "falling_rock_spawn_interval_ms": 0
    },
    {
      "index": 233,
      "duration_beats": 2,
      "bpm": 78,
      "energy_state": "low",
      "platform_types": [
        "static",
        "beat",
        "alternateBeat",
        "elevator"
      ],
      "vertical_range": [
        0,
        1
      ],
      "rhythm_density": 0,
      "patrol_enemies": 0,
      "flying_spawn_interval_ms": 0,
      "falling_rock_spawn_interval_ms": 0
    },
    {
      "index": 234,
      "duration_beats": 2,
      "bpm": 78,
      "energy_state": "low",
      "platform_types": [
        "static",
        "beat",
        "alternateBeat",
        "elevator"
      ],
      "vertical_range": [
        0,
        1
      ],
      "rhythm_density": 0,
      "patrol_enemies": 0,
      "flying_spawn_interval_ms": 3400,
      "falling_rock_spawn_interval_ms": 0
    },
    {
      "index": 235,
      "duration_beats": 2,
      "bpm": 78,
      "energy_state": "low",
      "platform_types": [
        "static",
        "beat",
        "alternateBeat",
        "elevator"
      ],
      "vertical_range": [
        0,
        1
      ],
      "rhythm_density": 0,
      "patrol_enemies": 0,
      "flying_spawn_interval_ms": 0,
      "falling_rock_spawn_interval_ms": 0
    },
    {
      "index": 236,
      "duration_beats": 2,
      "bpm": 78,
      "energy_state": "low",
      "platform_types": [
        "static",
        "beat",
        "alternateBeat",
        "elevator"
      ],
      "vertical_range": [
        0,
        1
      ],
      "rhythm_density": 0,
      "patrol_enemies": 0,
      "flying_spawn_interval_ms": 0,
      "falling_rock_spawn_interval_ms": 0
    },
    {
      "index": 237,
      "duration_beats": 2,
      "bpm": 78,
      "energy_state": "low",
      "platform_types": [
        "static",
        "beat",
        "alternateBeat",
        "elevator"
      ],
      "vertical_range": [
        0,
        1
      ],
      "rhythm_density": 0,
      "patrol_enemies": 0,
      "flying_spawn_interval_ms": 0,
      "falling_rock_spawn_interval_ms": 0
    },
    {
      "index": 238,
      "duration_beats": 2,
      "bpm": 78,
      "energy_state": "low",
      "platform_types": [
        "static",
        "beat",
        "alternateBeat",
        "elevator"
      ],
      "vertical_range": [
        0,
        1
      ],
      "rhythm_density": 0,
      "patrol_enemies": 0,
      "flying_spawn_interval_ms": 0,
      "falling_rock_spawn_interval_ms": 0
    },
    {
      "index": 239,
      "duration_beats": 2,
      "bpm": 78,
      "energy_state": "low",
      "platform_types": [
        "static",
        "beat",
        "alternateBeat",
        "elevator"
      ],
      "vertical_range": [
        0,
        1
      ],
      "rhythm_density": 0,
      "patrol_enemies": 0,
      "flying_spawn_interval_ms": 3400,
      "falling_rock_spawn_interval_ms": 0
    },
    {
      "index": 240,
      "duration_beats": 2,
      "bpm": 78,
      "energy_state": "low",
      "platform_types": [
        "static",
        "beat",
        "alternateBeat",
        "elevator"
      ],
      "vertical_range": [
        0,
        1
      ],
      "rhythm_density": 0,
      "patrol_enemies": 0,
      "flying_spawn_interval_ms": 0,
      "falling_rock_spawn_interval_ms": 0
    },
    {
      "index": 241,
      "duration_beats": 2,
      "bpm": 78,
      "energy_state": "low",
      "platform_types": [
        "static",
        "beat",
        "alternateBeat",
        "elevator"
      ],
      "vertical_range": [
        0,
        1
      ],
      "rhythm_density": 0,
      "patrol_enemies": 0,
      "flying_spawn_interval_ms": 0,
      "falling_rock_spawn_interval_ms": 0
    },
    {
      "index": 242,
      "duration_beats": 2,
      "bpm": 78,
      "energy_state": "low",
      "platform_types": [
        "static",
        "beat",
        "alternateBeat",
        "elevator"
      ],
      "vertical_range": [
        0,
        1
      ],
      "rhythm_density": 0,
      "patrol_enemies": 0,
      "flying_spawn_interval_ms": 0,
      "falling_rock_spawn_interval_ms": 0
    },
    {
      "index": 243,
      "duration_beats": 2,
      "bpm": 78,
      "energy_state": "low",
      "platform_types": [
        "static",
        "beat",
        "alternateBeat",
        "elevator"
      ],
      "vertical_range": [
        0,
        1
      ],
      "rhythm_density": 0,
      "patrol_enemies": 0,
      "flying_spawn_interval_ms": 0,
      "falling_rock_spawn_interval_ms": 0
    },
    {
      "index": 244,
      "duration_beats": 2,
      "bpm": 78,
      "energy_state": "low",
      "platform_types": [
        "static",
        "beat",
        "alternateBeat",
        "elevator"
      ],
      "vertical_range": [
        0,
        1
      ],
      "rhythm_density": 0,
      "patrol_enemies": 0,
      "flying_spawn_interval_ms": 3400,
      "falling_rock_spawn_interval_ms": 0
    },
    {
      "index": 245,
      "duration_beats": 2,
      "bpm": 78,
      "energy_state": "low",
      "platform_types": [
        "static",
        "beat",
        "alternateBeat",
        "elevator"
      ],
      "vertical_range": [
        0,
        1
      ],
      "rhythm_density": 0,
      "patrol_enemies": 0,
      "flying_spawn_interval_ms": 0,
      "falling_rock_spawn_interval_ms": 0
    },
    {
      "index": 246,
      "duration_beats": 2,
      "bpm": 78,
      "energy_state": "low",
      "platform_types": [
        "static",
        "beat",
        "alternateBeat",
        "elevator"
      ],
      "vertical_range": [
        0,
        1
      ],
      "rhythm_density": 0,
      "patrol_enemies": 0,
      "flying_spawn_interval_ms": 0,
      "falling_rock_spawn_interval_ms": 0
    },
    {
      "index": 247,
      "duration_beats": 2,
      "bpm": 78,
      "energy_state": "low",
      "platform_types": [
        "static",
        "beat",
        "alternateBeat",
        "elevator"
      ],
      "vertical_range": [
        0,
        1
      ],
      "rhythm_density": 0,
      "patrol_enemies": 0,
      "flying_spawn_interval_ms": 0,
      "falling_rock_spawn_interval_ms": 0
    },
    {
      "index": 248,
      "duration_beats": 2,
      "bpm": 78,
      "energy_state": "low",
      "platform_types": [
        "static",
        "beat",
        "alternateBeat",
        "elevator"
      ],
      "vertical_range": [
        0,
        1
      ],
      "rhythm_density": 0,
      "patrol_enemies": 0,
      "flying_spawn_interval_ms": 0,
      "falling_rock_spawn_interval_ms": 0
    },
    {
      "index": 249,
      "duration_beats": 2,
      "bpm": 78,
      "energy_state": "low",
      "platform_types": [
        "static",
        "beat",
        "alternateBeat",
        "elevator"
      ],
      "vertical_range": [
        0,
        1
      ],
      "rhythm_density": 0,
      "patrol_enemies": 0,
      "flying_spawn_interval_ms": 3400,
      "falling_rock_spawn_interval_ms": 0
    },
    {
      "index": 250,
      "duration_beats": 2,
      "bpm": 78,
      "energy_state": "low",
      "platform_types": [
        "static",
        "beat",
        "alternateBeat",
        "elevator"
      ],
      "vertical_range": [
        0,
        1
      ],
      "rhythm_density": 0,
      "patrol_enemies": 0,
      "flying_spawn_interval_ms": 0,
      "falling_rock_spawn_interval_ms": 0
    },
    {
      "index": 251,
      "duration_beats": 2,
      "bpm": 78,
      "energy_state": "low",
      "platform_types": [
        "static",
        "beat",
        "alternateBeat",
        "elevator"
      ],
      "vertical_range": [
        0,
        1
      ],
      "rhythm_density": 0,
      "patrol_enemies": 0,
      "flying_spawn_interval_ms": 0,
      "falling_rock_spawn_interval_ms": 0
    },
    {
      "index": 252,
      "duration_beats": 2,
      "bpm": 78,
      "energy_state": "low",
      "platform_types": [
        "static",
        "beat",
        "alternateBeat",
        "elevator"
      ],
      "vertical_range": [
        0,
        1
      ],
      "rhythm_density": 0,
      "patrol_enemies": 0,
      "flying_spawn_interval_ms": 0,
      "falling_rock_spawn_interval_ms": 0
    },
    {
      "index": 253,
      "duration_beats": 2,
      "bpm": 78,
      "energy_state": "low",
      "platform_types": [
        "static",
        "beat",
        "alternateBeat",
        "elevator"
      ],
      "vertical_range": [
        0,
        1
      ],
      "rhythm_density": 0,
      "patrol_enemies": 0,
      "flying_spawn_interval_ms": 0,
      "falling_rock_spawn_interval_ms": 0
    },
    {
      "index": 254,
      "duration_beats": 2,
      "bpm": 78,
      "energy_state": "low",
      "platform_types": [
        "static",
        "beat",
        "alternateBeat",
        "elevator"
      ],
      "vertical_range": [
        0,
        1
      ],
      "rhythm_density": 0,
      "patrol_enemies": 0,
      "flying_spawn_interval_ms": 3400,
      "falling_rock_spawn_interval_ms": 0
    },
    {
      "index": 255,
      "duration_beats": 2,
      "bpm": 78,
      "energy_state": "low",
      "platform_types": [
        "static",
        "beat",
        "alternateBeat",
        "elevator"
      ],
      "vertical_range": [
        0,
        1
      ],
      "rhythm_density": 0,
      "patrol_enemies": 0,
      "flying_spawn_interval_ms": 0,
      "falling_rock_spawn_interval_ms": 0
    },
    {
      "index": 256,
      "duration_beats": 2,
      "bpm": 78,
      "energy_state": "low",
      "platform_types": [
        "static",
        "beat",
        "alternateBeat",
        "elevator"
      ],
      "vertical_range": [
        0,
        1
      ],
      "rhythm_density": 0,
      "patrol_enemies": 0,
      "flying_spawn_interval_ms": 0,
      "falling_rock_spawn_interval_ms": 0
    },
    {
      "index": 257,
      "duration_beats": 2,
      "bpm": 78,
      "energy_state": "low",
      "platform_types": [
        "static",
        "beat",
        "alternateBeat",
        "elevator"
      ],
      "vertical_range": [
        0,
        1
      ],
      "rhythm_density": 0,
      "patrol_enemies": 0,
      "flying_spawn_interval_ms": 0,
      "falling_rock_spawn_interval_ms": 0
    },
    {
      "index": 258,
      "duration_beats": 2,
      "bpm": 78,
      "energy_state": "low",
      "platform_types": [
        "static",
        "beat",
        "alternateBeat",
        "elevator"
      ],
      "vertical_range": [
        0,
        1
      ],
      "rhythm_density": 0,
      "patrol_enemies": 0,
      "flying_spawn_interval_ms": 0,
      "falling_rock_spawn_interval_ms": 0
    },
    {
      "index": 259,
      "duration_beats": 2,
      "bpm": 78,
      "energy_state": "low",
      "platform_types": [
        "static",
        "beat",
        "alternateBeat",
        "elevator"
      ],
      "vertical_range": [
        0,
        1
      ],
      "rhythm_density": 0,
      "patrol_enemies": 0,
      "flying_spawn_interval_ms": 3400,
      "falling_rock_spawn_interval_ms": 0
    },
    {
      "index": 260,
      "duration_beats": 2,
      "bpm": 78,
      "energy_state": "low",
      "platform_types": [
        "static",
        "beat",
        "alternateBeat",
        "elevator"
      ],
      "vertical_range": [
        0,
        1
      ],
      "rhythm_density": 0,
      "patrol_enemies": 0,
      "flying_spawn_interval_ms": 0,
      "falling_rock_spawn_interval_ms": 0
    },
    {
      "index": 261,
      "duration_beats": 2,
      "bpm": 78,
      "energy_state": "low",
      "platform_types": [
        "static",
        "beat",
        "alternateBeat",
        "elevator"
      ],
      "vertical_range": [
        0,
        1
      ],
      "rhythm_density": 0,
      "patrol_enemies": 0,
      "flying_spawn_interval_ms": 0,
      "falling_rock_spawn_interval_ms": 0
    },
    {
      "index": 262,
      "duration_beats": 2,
      "bpm": 78,
      "energy_state": "low",
      "platform_types": [
        "static",
        "beat",
        "alternateBeat",
        "elevator"
      ],
      "vertical_range": [
        0,
        1
      ],
      "rhythm_density": 0,
      "patrol_enemies": 0,
      "flying_spawn_interval_ms": 0,
      "falling_rock_spawn_interval_ms": 0
    },
    {
      "index": 263,
      "duration_beats": 2,
      "bpm": 78,
      "energy_state": "low",
      "platform_types": [
        "static",
        "beat",
        "alternateBeat",
        "elevator"
      ],
      "vertical_range": [
        0,
        1
      ],
      "rhythm_density": 0,
      "patrol_enemies": 0,
      "flying_spawn_interval_ms": 0,
      "falling_rock_spawn_interval_ms": 0
    },
    {
      "index": 264,
      "duration_beats": 2,
      "bpm": 78,
      "energy_state": "low",
      "platform_types": [
        "static",
        "beat",
        "alternateBeat",
        "elevator"
      ],
      "vertical_range": [
        0,
        1
      ],
      "rhythm_density": 0,
      "patrol_enemies": 0,
      "flying_spawn_interval_ms": 3400,
      "falling_rock_spawn_interval_ms": 0
    },
    {
      "index": 265,
      "duration_beats": 2,
      "bpm": 78,
      "energy_state": "low",
      "platform_types": [
        "static",
        "beat",
        "alternateBeat",
        "elevator"
      ],
      "vertical_range": [
        0,
        1
      ],
      "rhythm_density": 0,
      "patrol_enemies": 0,
      "flying_spawn_interval_ms": 0,
      "falling_rock_spawn_interval_ms": 0
    },
    {
      "index": 266,
      "duration_beats": 2,
      "bpm": 78,
      "energy_state": "low",
      "platform_types": [
        "static",
        "beat",
        "alternateBeat",
        "elevator"
      ],
      "vertical_range": [
        0,
        1
      ],
      "rhythm_density": 0,
      "patrol_enemies": 0,
      "flying_spawn_interval_ms": 0,
      "falling_rock_spawn_interval_ms": 0
    },
    {
      "index": 267,
      "duration_beats": 2,
      "bpm": 78,
      "energy_state": "low",
      "platform_types": [
        "static",
        "beat",
        "alternateBeat",
        "elevator"
      ],
      "vertical_range": [
        0,
        1
      ],
      "rhythm_density": 0,
      "patrol_enemies": 0,
      "flying_spawn_interval_ms": 0,
      "falling_rock_spawn_interval_ms": 0
    },
    {
      "index": 268,
      "duration_beats": 2,
      "bpm": 78,
      "energy_state": "low",
      "platform_types": [
        "static",
        "beat",
        "alternateBeat",
        "elevator"
      ],
      "vertical_range": [
        0,
        1
      ],
      "rhythm_density": 0,
      "patrol_enemies": 0,
      "flying_spawn_interval_ms": 0,
      "falling_rock_spawn_interval_ms": 0
    },
    {
      "index": 269,
      "duration_beats": 2,
      "bpm": 78,
      "energy_state": "low",
      "platform_types": [
        "static",
        "beat",
        "alternateBeat",
        "elevator"
      ],
      "vertical_range": [
        0,
        1
      ],
      "rhythm_density": 0,
      "patrol_enemies": 0,
      "flying_spawn_interval_ms": 3400,
      "falling_rock_spawn_interval_ms": 0
    },
    {
      "index": 270,
      "duration_beats": 2,
      "bpm": 78,
      "energy_state": "low",
      "platform_types": [
        "static",
        "beat",
        "alternateBeat",
        "elevator"
      ],
      "vertical_range": [
        0,
        1
      ],
      "rhythm_density": 0,
      "patrol_enemies": 0,
      "flying_spawn_interval_ms": 0,
      "falling_rock_spawn_interval_ms": 0
    },
    {
      "index": 271,
      "duration_beats": 2,
      "bpm": 78,
      "energy_state": "low",
      "platform_types": [
        "static",
        "beat",
        "alternateBeat",
        "elevator"
      ],
      "vertical_range": [
        0,
        1
      ],
      "rhythm_density": 0,
      "patrol_enemies": 0,
      "flying_spawn_interval_ms": 0,
      "falling_rock_spawn_interval_ms": 0
    },
    {
      "index": 272,
      "duration_beats": 2,
      "bpm": 78,
      "energy_state": "low",
      "platform_types": [
        "static",
        "beat",
        "alternateBeat",
        "elevator"
      ],
      "vertical_range": [
        0,
        1
      ],
      "rhythm_density": 0,
      "patrol_enemies": 0,
      "flying_spawn_interval_ms": 0,
      "falling_rock_spawn_interval_ms": 0
    },
    {
      "index": 273,
      "duration_beats": 2,
      "bpm": 78,
      "energy_state": "low",
      "platform_types": [
        "static",
        "beat",
        "alternateBeat",
        "elevator"
      ],
      "vertical_range": [
        0,
        1
      ],
      "rhythm_density": 0,
      "patrol_enemies": 0,
      "flying_spawn_interval_ms": 0,
      "falling_rock_spawn_interval_ms": 0
    },
    {
      "index": 274,
      "duration_beats": 2,
      "bpm": 78,
      "energy_state": "low",
      "platform_types": [
        "static",
        "beat",
        "alternateBeat",
        "elevator"
      ],
      "vertical_range": [
        0,
        1
      ],
      "rhythm_density": 0,
      "patrol_enemies": 0,
      "flying_spawn_interval_ms": 3400,
      "falling_rock_spawn_interval_ms": 0
    },
    {
      "index": 275,
      "duration_beats": 2,
      "bpm": 78,
      "energy_state": "low",
      "platform_types": [
        "static",
        "beat",
        "alternateBeat",
        "elevator"
      ],
      "vertical_range": [
        0,
        1
      ],
      "rhythm_density": 0,
      "patrol_enemies": 0,
      "flying_spawn_interval_ms": 0,
      "falling_rock_spawn_interval_ms": 0
    },
    {
      "index": 276,
      "duration_beats": 2,
      "bpm": 78,
      "energy_state": "low",
      "platform_types": [
        "static",
        "beat",
        "alternateBeat",
        "elevator"
      ],
      "vertical_range": [
        0,
        1
      ],
      "rhythm_density": 0,
      "patrol_enemies": 0,
      "flying_spawn_interval_ms": 0,
      "falling_rock_spawn_interval_ms": 0
    },
    {
      "index": 277,
      "duration_beats": 2,
      "bpm": 78,
      "energy_state": "low",
      "platform_types": [
        "static",
        "beat",
        "alternateBeat",
        "elevator"
      ],
      "vertical_range": [
        0,
        1
      ],
      "rhythm_density": 0,
      "patrol_enemies": 0,
      "flying_spawn_interval_ms": 0,
      "falling_rock_spawn_interval_ms": 0
    },
    {
      "index": 278,
      "duration_beats": 2,
      "bpm": 78,
      "energy_state": "low",
      "platform_types": [
        "static",
        "beat",
        "alternateBeat",
        "elevator"
      ],
      "vertical_range": [
        0,
        1
      ],
      "rhythm_density": 0,
      "patrol_enemies": 0,
      "flying_spawn_interval_ms": 0,
      "falling_rock_spawn_interval_ms": 0
    },
    {
      "index": 279,
      "duration_beats": 2,
      "bpm": 78,
      "energy_state": "low",
      "platform_types": [
        "static",
        "beat",
        "alternateBeat",
        "elevator"
      ],
      "vertical_range": [
        0,
        1
      ],
      "rhythm_density": 0,
      "patrol_enemies": 0,
      "flying_spawn_interval_ms": 3400,
      "falling_rock_spawn_interval_ms": 0
    },
    {
      "index": 280,
      "duration_beats": 2,
      "bpm": 78,
      "energy_state": "low",
      "platform_types": [
        "static",
        "beat",
        "alternateBeat",
        "elevator"
      ],
      "vertical_range": [
        0,
        1
      ],
      "rhythm_density": 0,
      "patrol_enemies": 0,
      "flying_spawn_interval_ms": 0,
      "falling_rock_spawn_interval_ms": 0
    },
    {
      "index": 281,
      "duration_beats": 2,
      "bpm": 78,
      "energy_state": "low",
      "platform_types": [
        "static",
        "beat",
        "alternateBeat",
        "elevator"
      ],
      "vertical_range": [
        0,
        1
      ],
      "rhythm_density": 0,
      "patrol_enemies": 0,
      "flying_spawn_interval_ms": 0,
      "falling_rock_spawn_interval_ms": 0
    },
    {
      "index": 282,
      "duration_beats": 2,
      "bpm": 78,
      "energy_state": "low",
      "platform_types": [
        "static",
        "beat",
        "alternateBeat",
        "elevator"
      ],
      "vertical_range": [
        0,
        1
      ],
      "rhythm_density": 0,
      "patrol_enemies": 0,
      "flying_spawn_interval_ms": 0,
      "falling_rock_spawn_interval_ms": 0
    },
    {
      "index": 283,
      "duration_beats": 2,
      "bpm": 78,
      "energy_state": "low",
      "platform_types": [
        "static",
        "beat",
        "alternateBeat",
        "elevator"
      ],
      "vertical_range": [
        0,
        1
      ],
      "rhythm_density": 0,
      "patrol_enemies": 0,
      "flying_spawn_interval_ms": 0,
      "falling_rock_spawn_interval_ms": 0
    },
    {
      "index": 284,
      "duration_beats": 2,
      "bpm": 78,
      "energy_state": "low",
      "platform_types": [
        "static",
        "beat",
        "alternateBeat",
        "elevator"
      ],
      "vertical_range": [
        0,
        1
      ],
      "rhythm_density": 0,
      "patrol_enemies": 0,
      "flying_spawn_interval_ms": 3400,
      "falling_rock_spawn_interval_ms": 0
    },
    {
      "index": 285,
      "duration_beats": 2,
      "bpm": 78,
      "energy_state": "low",
      "platform_types": [
        "static",
        "beat",
        "alternateBeat",
        "elevator"
      ],
      "vertical_range": [
        0,
        1
      ],
      "rhythm_density": 0,
      "patrol_enemies": 0,
      "flying_spawn_interval_ms": 0,
      "falling_rock_spawn_interval_ms": 0
    },
    {
      "index": 286,
      "duration_beats": 2,
      "bpm": 78,
      "energy_state": "low",
      "platform_types": [
        "static",
        "beat",
        "alternateBeat",
        "elevator"
      ],
      "vertical_range": [
        0,
        1
      ],
      "rhythm_density": 0,
      "patrol_enemies": 0,
      "flying_spawn_interval_ms": 0,
      "falling_rock_spawn_interval_ms": 0
    },
    {
      "index": 287,
      "duration_beats": 2,
      "bpm": 78,
      "energy_state": "low",
      "platform_types": [
        "static",
        "beat",
        "alternateBeat",
        "elevator"
      ],
      "vertical_range": [
        0,
        1
      ],
      "rhythm_density": 0,
      "patrol_enemies": 0,
      "flying_spawn_interval_ms": 0,
      "falling_rock_spawn_interval_ms": 0
    },
    {
      "index": 288,
      "duration_beats": 2,
      "bpm": 78,
      "energy_state": "low",
      "platform_types": [
        "static",
        "beat",
        "alternateBeat",
        "elevator"
      ],
      "vertical_range": [
        0,
        1
      ],
      "rhythm_density": 0,
      "patrol_enemies": 0,
      "flying_spawn_interval_ms": 0,
      "falling_rock_spawn_interval_ms": 0
    },
    {
      "index": 289,
      "duration_beats": 2,
      "bpm": 78,
      "energy_state": "low",
      "platform_types": [
        "static",
        "beat",
        "alternateBeat",
        "elevator"
      ],
      "vertical_range": [
        0,
        1
      ],
      "rhythm_density": 0,
      "patrol_enemies": 0,
      "flying_spawn_interval_ms": 3400,
      "falling_rock_spawn_interval_ms": 0
    },
    {
      "index": 290,
      "duration_beats": 2,
      "bpm": 78,
      "energy_state": "low",
      "platform_types": [
        "static",
        "beat",
        "alternateBeat",
        "elevator"
      ],
      "vertical_range": [
        0,
        1
      ],
      "rhythm_density": 0,
      "patrol_enemies": 0,
      "flying_spawn_interval_ms": 0,
      "falling_rock_spawn_interval_ms": 0
    },
    {
      "index": 291,
      "duration_beats": 2,
      "bpm": 78,
      "energy_state": "low",
      "platform_types": [
        "static",
        "beat",
        "alternateBeat",
        "elevator"
      ],
      "vertical_range": [
        0,
        1
      ],
      "rhythm_density": 0,
      "patrol_enemies": 0,
      "flying_spawn_interval_ms": 0,
      "falling_rock_spawn_interval_ms": 0
    },
    {
      "index": 292,
      "duration_beats": 2,
      "bpm": 78,
      "energy_state": "low",
      "platform_types": [
        "static",
        "beat",
        "alternateBeat",
        "elevator"
      ],
      "vertical_range": [
        0,
        1
      ],
      "rhythm_density": 0,
      "patrol_enemies": 0,
      "flying_spawn_interval_ms": 0,
      "falling_rock_spawn_interval_ms": 0
    },
    {
      "index": 293,
      "duration_beats": 2,
      "bpm": 78,
      "energy_state": "low",
      "platform_types": [
        "static",
        "beat",
        "alternateBeat",
        "elevator"
      ],
      "vertical_range": [
        0,
        1
      ],
      "rhythm_density": 0,
      "patrol_enemies": 0,
      "flying_spawn_interval_ms": 0,
      "falling_rock_spawn_interval_ms": 0
    },
    {
      "index": 294,
      "duration_beats": 2,
      "bpm": 78,
      "energy_state": "low",
      "platform_types": [
        "static",
        "beat",
        "alternateBeat",
        "elevator"
      ],
      "vertical_range": [
        0,
        1
      ],
      "rhythm_density": 0,
      "patrol_enemies": 0,
      "flying_spawn_interval_ms": 3400,
      "falling_rock_spawn_interval_ms": 0
    },
    {
      "index": 295,
      "duration_beats": 2,
      "bpm": 78,
      "energy_state": "low",
      "platform_types": [
        "static",
        "beat",
        "alternateBeat",
        "elevator"
      ],
      "vertical_range": [
        0,
        1
      ],
      "rhythm_density": 0,
      "patrol_enemies": 0,
      "flying_spawn_interval_ms": 0,
      "falling_rock_spawn_interval_ms": 0
    },
    {
      "index": 296,
      "duration_beats": 2,
      "bpm": 78,
      "energy_state": "low",
      "platform_types": [
        "static",
        "beat",
        "alternateBeat",
        "elevator"
      ],
      "vertical_range": [
        0,
        1
      ],
      "rhythm_density": 0,
      "patrol_enemies": 0,
      "flying_spawn_interval_ms": 0,
      "falling_rock_spawn_interval_ms": 0
    },
    {
      "index": 297,
      "duration_beats": 2,
      "bpm": 78,
      "energy_state": "low",
      "platform_types": [
        "static",
        "beat",
        "alternateBeat",
        "elevator"
      ],
      "vertical_range": [
        0,
        1
      ],
      "rhythm_density": 0,
      "patrol_enemies": 0,
      "flying_spawn_interval_ms": 0,
      "falling_rock_spawn_interval_ms": 0
    },
    {
      "index": 298,
      "duration_beats": 2,
      "bpm": 78,
      "energy_state": "low",
      "platform_types": [
        "static",
        "beat",
        "alternateBeat",
        "elevator"
      ],
      "vertical_range": [
        0,
        1
      ],
      "rhythm_density": 0,
      "patrol_enemies": 0,
      "flying_spawn_interval_ms": 0,
      "falling_rock_spawn_interval_ms": 0
    },
    {
      "index": 299,
      "duration_beats": 2,
      "bpm": 78,
      "energy_state": "low",
      "platform_types": [
        "static",
        "beat",
        "alternateBeat",
        "elevator"
      ],
      "vertical_range": [
        0,
        1
      ],
      "rhythm_density": 0,
      "patrol_enemies": 0,
      "flying_spawn_interval_ms": 3400,
      "falling_rock_spawn_interval_ms": 0
    },
    {
      "index": 300,
      "duration_beats": 2,
      "bpm": 78,
      "energy_state": "low",
      "platform_types": [
        "static",
        "beat",
        "alternateBeat",
        "elevator"
      ],
      "vertical_range": [
        0,
        1
      ],
      "rhythm_density": 0,
      "patrol_enemies": 0,
      "flying_spawn_interval_ms": 0,
      "falling_rock_spawn_interval_ms": 0
    },
    {
      "index": 301,
      "duration_beats": 2,
      "bpm": 78,
      "energy_state": "low",
      "platform_types": [
        "static",
        "beat",
        "alternateBeat",
        "elevator"
      ],
      "vertical_range": [
        0,
        1
      ],
      "rhythm_density": 0,
      "patrol_enemies": 0,
      "flying_spawn_interval_ms": 0,
      "falling_rock_spawn_interval_ms": 0
    },
    {
      "index": 302,
      "duration_beats": 2,
      "bpm": 78,
      "energy_state": "low",
      "platform_types": [
        "static",
        "beat",
        "alternateBeat",
        "elevator"
      ],
      "vertical_range": [
        0,
        1
      ],
      "rhythm_density": 0,
      "patrol_enemies": 0,
      "flying_spawn_interval_ms": 0,
      "falling_rock_spawn_interval_ms": 0
    },
    {
      "index": 303,
      "duration_beats": 2,
      "bpm": 78,
      "energy_state": "low",
      "platform_types": [
        "static",
        "beat",
        "alternateBeat",
        "elevator"
      ],
      "vertical_range": [
        0,
        1
      ],
      "rhythm_density": 0,
      "patrol_enemies": 0,
      "flying_spawn_interval_ms": 0,
      "falling_rock_spawn_interval_ms": 0
    },
    {
      "index": 304,
      "duration_beats": 2,
      "bpm": 78,
      "energy_state": "low",
      "platform_types": [
        "static",
        "beat",
        "alternateBeat",
        "elevator"
      ],
      "vertical_range": [
        0,
        1
      ],
      "rhythm_density": 0,
      "patrol_enemies": 0,
      "flying_spawn_interval_ms": 3400,
      "falling_rock_spawn_interval_ms": 0
    },
    {
      "index": 305,
      "duration_beats": 2,
      "bpm": 78,
      "energy_state": "low",
      "platform_types": [
        "static",
        "beat",
        "alternateBeat",
        "elevator"
      ],
      "vertical_range": [
        0,
        1
      ],
      "rhythm_density": 0,
      "patrol_enemies": 0,
      "flying_spawn_interval_ms": 0,
      "falling_rock_spawn_interval_ms": 0
    },
    {
      "index": 306,
      "duration_beats": 2,
      "bpm": 78,
      "energy_state": "low",
      "platform_types": [
        "static",
        "beat",
        "alternateBeat",
        "elevator"
      ],
      "vertical_range": [
        0,
        1
      ],
      "rhythm_density": 0,
      "patrol_enemies": 0,
      "flying_spawn_interval_ms": 0,
      "falling_rock_spawn_interval_ms": 0
    },
    {
      "index": 307,
      "duration_beats": 2,
      "bpm": 78,
      "energy_state": "low",
      "platform_types": [
        "static",
        "beat",
        "alternateBeat",
        "elevator"
      ],
      "vertical_range": [
        0,
        1
      ],
      "rhythm_density": 0,
      "patrol_enemies": 0,
      "flying_spawn_interval_ms": 0,
      "falling_rock_spawn_interval_ms": 0
    },
    {
      "index": 308,
      "duration_beats": 2,
      "bpm": 78,
      "energy_state": "low",
      "platform_types": [
        "static",
        "beat",
        "alternateBeat",
        "elevator"
      ],
      "vertical_range": [
        0,
        1
      ],
      "rhythm_density": 0,
      "patrol_enemies": 0,
      "flying_spawn_interval_ms": 0,
      "falling_rock_spawn_interval_ms": 0
    },
    {
      "index": 309,
      "duration_beats": 2,
      "bpm": 78,
      "energy_state": "low",
      "platform_types": [
        "static",
        "beat",
        "alternateBeat",
        "elevator"
      ],
      "vertical_range": [
        0,
        1
      ],
      "rhythm_density": 0,
      "patrol_enemies": 0,
      "flying_spawn_interval_ms": 3400,
      "falling_rock_spawn_interval_ms": 0
    },
    {
      "index": 310,
      "duration_beats": 2,
      "bpm": 78,
      "energy_state": "low",
      "platform_types": [
        "static",
        "beat",
        "alternateBeat",
        "elevator"
      ],
      "vertical_range": [
        0,
        1
      ],
      "rhythm_density": 0,
      "patrol_enemies": 0,
      "flying_spawn_interval_ms": 0,
      "falling_rock_spawn_interval_ms": 0
    },
    {
      "index": 311,
      "duration_beats": 2,
      "bpm": 78,
      "energy_state": "low",
      "platform_types": [
        "static",
        "beat",
        "alternateBeat",
        "elevator"
      ],
      "vertical_range": [
        0,
        1
      ],
      "rhythm_density": 0,
      "patrol_enemies": 0,
      "flying_spawn_interval_ms": 0,
      "falling_rock_spawn_interval_ms": 0
    },
    {
      "index": 312,
      "duration_beats": 2,
      "bpm": 78,
      "energy_state": "low",
      "platform_types": [
        "static",
        "beat",
        "alternateBeat",
        "elevator"
      ],
      "vertical_range": [
        0,
        1
      ],
      "rhythm_density": 0,
      "patrol_enemies": 0,
      "flying_spawn_interval_ms": 0,
      "falling_rock_spawn_interval_ms": 0
    },
    {
      "index": 313,
      "duration_beats": 2,
      "bpm": 78,
      "energy_state": "low",
      "platform_types": [
        "static",
        "beat",
        "alternateBeat",
        "elevator"
      ],
      "vertical_range": [
        0,
        1
      ],
      "rhythm_density": 0,
      "patrol_enemies": 0,
      "flying_spawn_interval_ms": 0,
      "falling_rock_spawn_interval_ms": 0
    },
    {
      "index": 314,
      "duration_beats": 2,
      "bpm": 78,
      "energy_state": "low",
      "platform_types": [
        "static",
        "beat",
        "alternateBeat",
        "elevator"
      ],
      "vertical_range": [
        0,
        1
      ],
      "rhythm_density": 0,
      "patrol_enemies": 0,
      "flying_spawn_interval_ms": 3400,
      "falling_rock_spawn_interval_ms": 0
    },
    {
      "index": 315,
      "duration_beats": 2,
      "bpm": 78,
      "energy_state": "low",
      "platform_types": [
        "static",
        "beat",
        "alternateBeat",
        "elevator"
      ],
      "vertical_range": [
        0,
        1
      ],
      "rhythm_density": 0,
      "patrol_enemies": 0,
      "flying_spawn_interval_ms": 0,
      "falling_rock_spawn_interval_ms": 0
    },
    {
      "index": 316,
      "duration_beats": 2,
      "bpm": 78,
      "energy_state": "low",
      "platform_types": [
        "static",
        "beat",
        "alternateBeat",
        "elevator"
      ],
      "vertical_range": [
        0,
        1
      ],
      "rhythm_density": 0,
      "patrol_enemies": 0,
      "flying_spawn_interval_ms": 0,
      "falling_rock_spawn_interval_ms": 0
    },
    {
      "index": 317,
      "duration_beats": 2,
      "bpm": 78,
      "energy_state": "low",
      "platform_types": [
        "static",
        "beat",
        "alternateBeat",
        "elevator"
      ],
      "vertical_range": [
        0,
        1
      ],
      "rhythm_density": 0,
      "patrol_enemies": 0,
      "flying_spawn_interval_ms": 0,
      "falling_rock_spawn_interval_ms": 0
    },
    {
      "index": 318,
      "duration_beats": 2,
      "bpm": 78,
      "energy_state": "low",
      "platform_types": [
        "static",
        "beat",
        "alternateBeat",
        "elevator"
      ],
      "vertical_range": [
        0,
        1
      ],
      "rhythm_density": 0,
      "patrol_enemies": 0,
      "flying_spawn_interval_ms": 0,
      "falling_rock_spawn_interval_ms": 0
    },
    {
      "index": 319,
      "duration_beats": 2,
      "bpm": 78,
      "energy_state": "low",
      "platform_types": [
        "static",
        "beat",
        "alternateBeat",
        "elevator"
      ],
      "vertical_range": [
        0,
        1
      ],
      "rhythm_density": 0,
      "patrol_enemies": 0,
      "flying_spawn_interval_ms": 3400,
      "falling_rock_spawn_interval_ms": 0
    },
    {
      "index": 320,
      "duration_beats": 2,
      "bpm": 78,
      "energy_state": "low",
      "platform_types": [
        "static",
        "beat",
        "alternateBeat",
        "elevator"
      ],
      "vertical_range": [
        0,
        1
      ],
      "rhythm_density": 0,
      "patrol_enemies": 0,
      "flying_spawn_interval_ms": 0,
      "falling_rock_spawn_interval_ms": 0
    },
    {
      "index": 321,
      "duration_beats": 2,
      "bpm": 78,
      "energy_state": "low",
      "platform_types": [
        "static",
        "beat",
        "alternateBeat",
        "elevator"
      ],
      "vertical_range": [
        0,
        1
      ],
      "rhythm_density": 0,
      "patrol_enemies": 0,
      "flying_spawn_interval_ms": 0,
      "falling_rock_spawn_interval_ms": 0
    },
    {
      "index": 322,
      "duration_beats": 2,
      "bpm": 78,
      "energy_state": "low",
      "platform_types": [
        "static",
        "beat",
        "alternateBeat",
        "elevator"
      ],
      "vertical_range": [
        0,
        1
      ],
      "rhythm_density": 0,
      "patrol_enemies": 0,
      "flying_spawn_interval_ms": 0,
      "falling_rock_spawn_interval_ms": 0
    },
    {
      "index": 323,
      "duration_beats": 2,
      "bpm": 78,
      "energy_state": "low",
      "platform_types": [
        "static",
        "beat",
        "alternateBeat",
        "elevator"
      ],
      "vertical_range": [
        0,
        1
      ],
      "rhythm_density": 0,
      "patrol_enemies": 0,
      "flying_spawn_interval_ms": 0,
      "falling_rock_spawn_interval_ms": 0
    },
    {
      "index": 324,
      "duration_beats": 2,
      "bpm": 78,
      "energy_state": "low",
      "platform_types": [
        "static",
        "beat",
        "alternateBeat",
        "elevator"
      ],
      "vertical_range": [
        0,
        1
      ],
      "rhythm_density": 0,
      "patrol_enemies": 0,
      "flying_spawn_interval_ms": 3400,
      "falling_rock_spawn_interval_ms": 0
    },
    {
      "index": 325,
      "duration_beats": 2,
      "bpm": 78,
      "energy_state": "low",
      "platform_types": [
        "static",
        "beat",
        "alternateBeat",
        "elevator"
      ],
      "vertical_range": [
        0,
        1
      ],
      "rhythm_density": 0,
      "patrol_enemies": 0,
      "flying_spawn_interval_ms": 0,
      "falling_rock_spawn_interval_ms": 0
    },
    {
      "index": 326,
      "duration_beats": 2,
      "bpm": 78,
      "energy_state": "low",
      "platform_types": [
        "static",
        "beat",
        "alternateBeat",
        "elevator"
      ],
      "vertical_range": [
        0,
        1
      ],
      "rhythm_density": 0,
      "patrol_enemies": 0,
      "flying_spawn_interval_ms": 0,
      "falling_rock_spawn_interval_ms": 0
    },
    {
      "index": 327,
      "duration_beats": 2,
      "bpm": 78,
      "energy_state": "low",
      "platform_types": [
        "static",
        "beat",
        "alternateBeat",
        "elevator"
      ],
      "vertical_range": [
        0,
        1
      ],
      "rhythm_density": 0,
      "patrol_enemies": 0,
      "flying_spawn_interval_ms": 0,
      "falling_rock_spawn_interval_ms": 0
    },
    {
      "index": 328,
      "duration_beats": 2,
      "bpm": 78,
      "energy_state": "low",
      "platform_types": [
        "static",
        "beat",
        "alternateBeat",
        "elevator"
      ],
      "vertical_range": [
        0,
        1
      ],
      "rhythm_density": 0,
      "patrol_enemies": 0,
      "flying_spawn_interval_ms": 0,
      "falling_rock_spawn_interval_ms": 0
    },
    {
      "index": 329,
      "duration_beats": 2,
      "bpm": 78,
      "energy_state": "low",
      "platform_types": [
        "static",
        "beat",
        "alternateBeat",
        "elevator"
      ],
      "vertical_range": [
        0,
        1
      ],
      "rhythm_density": 0,
      "patrol_enemies": 0,
      "flying_spawn_interval_ms": 3400,
      "falling_rock_spawn_interval_ms": 0
    },
    {
      "index": 330,
      "duration_beats": 2,
      "bpm": 78,
      "energy_state": "low",
      "platform_types": [
        "static",
        "beat",
        "alternateBeat",
        "elevator"
      ],
      "vertical_range": [
        0,
        1
      ],
      "rhythm_density": 0,
      "patrol_enemies": 0,
      "flying_spawn_interval_ms": 0,
      "falling_rock_spawn_interval_ms": 0
    },
    {
      "index": 331,
      "duration_beats": 2,
      "bpm": 78,
      "energy_state": "low",
      "platform_types": [
        "static",
        "beat",
        "alternateBeat",
        "elevator"
      ],
      "vertical_range": [
        0,
        1
      ],
      "rhythm_density": 0,
      "patrol_enemies": 0,
      "flying_spawn_interval_ms": 0,
      "falling_rock_spawn_interval_ms": 0
    },
    {
      "index": 332,
      "duration_beats": 2,
      "bpm": 78,
      "energy_state": "low",
      "platform_types": [
        "static",
        "beat",
        "alternateBeat",
        "elevator"
      ],
      "vertical_range": [
        0,
        1
      ],
      "rhythm_density": 0,
      "patrol_enemies": 0,
      "flying_spawn_interval_ms": 0,
      "falling_rock_spawn_interval_ms": 0
    },
    {
      "index": 333,
      "duration_beats": 2,
      "bpm": 78,
      "energy_state": "low",
      "platform_types": [
        "static",
        "beat",
        "alternateBeat",
        "elevator"
      ],
      "vertical_range": [
        0,
        1
      ],
      "rhythm_density": 0,
      "patrol_enemies": 0,
      "flying_spawn_interval_ms": 0,
      "falling_rock_spawn_interval_ms": 0
    },
    {
      "index": 334,
      "duration_beats": 2,
      "bpm": 78,
      "energy_state": "low",
      "platform_types": [
        "static",
        "beat",
        "alternateBeat",
        "elevator"
      ],
      "vertical_range": [
        0,
        1
      ],
      "rhythm_density": 0,
      "patrol_enemies": 0,
      "flying_spawn_interval_ms": 3400,
      "falling_rock_spawn_interval_ms": 0
    },
    {
      "index": 335,
      "duration_beats": 2,
      "bpm": 78,
      "energy_state": "low",
      "platform_types": [
        "static",
        "beat",
        "alternateBeat",
        "elevator"
      ],
      "vertical_range": [
        0,
        1
      ],
      "rhythm_density": 0,
      "patrol_enemies": 0,
      "flying_spawn_interval_ms": 0,
      "falling_rock_spawn_interval_ms": 0
    },
    {
      "index": 336,
      "duration_beats": 2,
      "bpm": 78,
      "energy_state": "low",
      "platform_types": [
        "static",
        "beat",
        "alternateBeat",
        "elevator"
      ],
      "vertical_range": [
        0,
        1
      ],
      "rhythm_density": 0,
      "patrol_enemies": 0,
      "flying_spawn_interval_ms": 0,
      "falling_rock_spawn_interval_ms": 0
    },
    {
      "index": 337,
      "duration_beats": 2,
      "bpm": 78,
      "energy_state": "low",
      "platform_types": [
        "static",
        "beat",
        "alternateBeat",
        "elevator"
      ],
      "vertical_range": [
        0,
        1
      ],
      "rhythm_density": 0,
      "patrol_enemies": 0,
      "flying_spawn_interval_ms": 0,
      "falling_rock_spawn_interval_ms": 0
    },
    {
      "index": 338,
      "duration_beats": 2,
      "bpm": 78,
      "energy_state": "low",
      "platform_types": [
        "static",
        "beat",
        "alternateBeat",
        "elevator"
      ],
      "vertical_range": [
        0,
        1
      ],
      "rhythm_density": 0,
      "patrol_enemies": 0,
      "flying_spawn_interval_ms": 0,
      "falling_rock_spawn_interval_ms": 0
    },
    {
      "index": 339,
      "duration_beats": 2,
      "bpm": 78,
      "energy_state": "low",
      "platform_types": [
        "static",
        "beat",
        "alternateBeat",
        "elevator"
      ],
      "vertical_range": [
        0,
        1
      ],
      "rhythm_density": 0,
      "patrol_enemies": 0,
      "flying_spawn_interval_ms": 3400,
      "falling_rock_spawn_interval_ms": 0
    },
    {
      "index": 340,
      "duration_beats": 2,
      "bpm": 78,
      "energy_state": "low",
      "platform_types": [
        "static",
        "beat",
        "alternateBeat",
        "elevator"
      ],
      "vertical_range": [
        0,
        1
      ],
      "rhythm_density": 0,
      "patrol_enemies": 0,
      "flying_spawn_interval_ms": 0,
      "falling_rock_spawn_interval_ms": 0
    },
    {
      "index": 341,
      "duration_beats": 2,
      "bpm": 78,
      "energy_state": "low",
      "platform_types": [
        "static",
        "beat",
        "alternateBeat",
        "elevator"
      ],
      "vertical_range": [
        0,
        1
      ],
      "rhythm_density": 0,
      "patrol_enemies": 0,
      "flying_spawn_interval_ms": 0,
      "falling_rock_spawn_interval_ms": 0
    },
    {
      "index": 342,
      "duration_beats": 2,
      "bpm": 78,
      "energy_state": "low",
      "platform_types": [
        "static",
        "beat",
        "alternateBeat",
        "elevator"
      ],
      "vertical_range": [
        0,
        1
      ],
      "rhythm_density": 0,
      "patrol_enemies": 0,
      "flying_spawn_interval_ms": 0,
      "falling_rock_spawn_interval_ms": 0
    },
    {
      "index": 343,
      "duration_beats": 2,
      "bpm": 78,
      "energy_state": "low",
      "platform_types": [
        "static",
        "beat",
        "alternateBeat",
        "elevator"
      ],
      "vertical_range": [
        0,
        1
      ],
      "rhythm_density": 0,
      "patrol_enemies": 0,
      "flying_spawn_interval_ms": 0,
      "falling_rock_spawn_interval_ms": 0
    },
    {
      "index": 344,
      "duration_beats": 2,
      "bpm": 78,
      "energy_state": "low",
      "platform_types": [
        "static",
        "beat",
        "alternateBeat",
        "elevator"
      ],
      "vertical_range": [
        0,
        1
      ],
      "rhythm_density": 0,
      "patrol_enemies": 0,
      "flying_spawn_interval_ms": 3400,
      "falling_rock_spawn_interval_ms": 0
    },
    {
      "index": 345,
      "duration_beats": 2,
      "bpm": 78,
      "energy_state": "low",
      "platform_types": [
        "static",
        "beat",
        "alternateBeat",
        "elevator"
      ],
      "vertical_range": [
        0,
        1
      ],
      "rhythm_density": 0,
      "patrol_enemies": 0,
      "flying_spawn_interval_ms": 0,
      "falling_rock_spawn_interval_ms": 0
    },
    {
      "index": 346,
      "duration_beats": 2,
      "bpm": 78,
      "energy_state": "low",
      "platform_types": [
        "static",
        "beat",
        "alternateBeat",
        "elevator"
      ],
      "vertical_range": [
        0,
        1
      ],
      "rhythm_density": 0,
      "patrol_enemies": 0,
      "flying_spawn_interval_ms": 0,
      "falling_rock_spawn_interval_ms": 0
    },
    {
      "index": 347,
      "duration_beats": 2,
      "bpm": 78,
      "energy_state": "low",
      "platform_types": [
        "static",
        "beat",
        "alternateBeat",
        "elevator"
      ],
      "vertical_range": [
        0,
        1
      ],
      "rhythm_density": 0,
      "patrol_enemies": 0,
      "flying_spawn_interval_ms": 0,
      "falling_rock_spawn_interval_ms": 0
    },
    {
      "index": 348,
      "duration_beats": 2,
      "bpm": 78,
      "energy_state": "low",
      "platform_types": [
        "static",
        "beat",
        "alternateBeat",
        "elevator"
      ],
      "vertical_range": [
        0,
        1
      ],
      "rhythm_density": 0,
      "patrol_enemies": 0,
      "flying_spawn_interval_ms": 0,
      "falling_rock_spawn_interval_ms": 0
    },
    {
      "index": 349,
      "duration_beats": 2,
      "bpm": 78,
      "energy_state": "low",
      "platform_types": [
        "static",
        "beat",
        "alternateBeat",
        "elevator"
      ],
      "vertical_range": [
        0,
        1
      ],
      "rhythm_density": 0,
      "patrol_enemies": 0,
      "flying_spawn_interval_ms": 3400,
      "falling_rock_spawn_interval_ms": 0
    },
    {
      "index": 350,
      "duration_beats": 2,
      "bpm": 78,
      "energy_state": "low",
      "platform_types": [
        "static",
        "beat",
        "alternateBeat",
        "elevator"
      ],
      "vertical_range": [
        0,
        1
      ],
      "rhythm_density": 0,
      "patrol_enemies": 0,
      "flying_spawn_interval_ms": 0,
      "falling_rock_spawn_interval_ms": 0
    },
    {
      "index": 351,
      "duration_beats": 2,
      "bpm": 78,
      "energy_state": "low",
      "platform_types": [
        "static",
        "beat",
        "alternateBeat",
        "elevator"
      ],
      "vertical_range": [
        0,
        1
      ],
      "rhythm_density": 0,
      "patrol_enemies": 0,
      "flying_spawn_interval_ms": 0,
      "falling_rock_spawn_interval_ms": 0
    },
    {
      "index": 352,
      "duration_beats": 2,
      "bpm": 78,
      "energy_state": "low",
      "platform_types": [
        "static",
        "beat",
        "alternateBeat",
        "elevator"
      ],
      "vertical_range": [
        0,
        1
      ],
      "rhythm_density": 0,
      "patrol_enemies": 0,
      "flying_spawn_interval_ms": 0,
      "falling_rock_spawn_interval_ms": 0
    },
    {
      "index": 353,
      "duration_beats": 2,
      "bpm": 78,
      "energy_state": "low",
      "platform_types": [
        "static",
        "beat",
        "alternateBeat",
        "elevator"
      ],
      "vertical_range": [
        0,
        1
      ],
      "rhythm_density": 0,
      "patrol_enemies": 0,
      "flying_spawn_interval_ms": 0,
      "falling_rock_spawn_interval_ms": 0
    },
    {
      "index": 354,
      "duration_beats": 2,
      "bpm": 78,
      "energy_state": "low",
      "platform_types": [
        "static",
        "beat",
        "alternateBeat",
        "elevator"
      ],
      "vertical_range": [
        0,
        1
      ],
      "rhythm_density": 0,
      "patrol_enemies": 0,
      "flying_spawn_interval_ms": 3400,
      "falling_rock_spawn_interval_ms": 0
    },
    {
      "index": 355,
      "duration_beats": 2,
      "bpm": 78,
      "energy_state": "low",
      "platform_types": [
        "static",
        "beat",
        "alternateBeat",
        "elevator"
      ],
      "vertical_range": [
        0,
        1
      ],
      "rhythm_density": 0,
      "patrol_enemies": 0,
      "flying_spawn_interval_ms": 0,
      "falling_rock_spawn_interval_ms": 0
    },
    {
      "index": 356,
      "duration_beats": 2,
      "bpm": 78,
      "energy_state": "low",
      "platform_types": [
        "static",
        "beat",
        "alternateBeat",
        "elevator"
      ],
      "vertical_range": [
        0,
        1
      ],
      "rhythm_density": 0,
      "patrol_enemies": 0,
      "flying_spawn_interval_ms": 0,
      "falling_rock_spawn_interval_ms": 0
    },
    {
      "index": 357,
      "duration_beats": 2,
      "bpm": 78,
      "energy_state": "low",
      "platform_types": [
        "static",
        "beat",
        "alternateBeat",
        "elevator"
      ],
      "vertical_range": [
        0,
        1
      ],
      "rhythm_density": 0,
      "patrol_enemies": 0,
      "flying_spawn_interval_ms": 0,
      "falling_rock_spawn_interval_ms": 0
    },
    {
      "index": 358,
      "duration_beats": 2,
      "bpm": 78,
      "energy_state": "low",
      "platform_types": [
        "static",
        "beat",
        "alternateBeat",
        "elevator"
      ],
      "vertical_range": [
        0,
        1
      ],
      "rhythm_density": 0,
      "patrol_enemies": 0,
      "flying_spawn_interval_ms": 0,
      "falling_rock_spawn_interval_ms": 0
    },
    {
      "index": 359,
      "duration_beats": 2,
      "bpm": 78,
      "energy_state": "low",
      "platform_types": [
        "static",
        "beat",
        "alternateBeat",
        "elevator"
      ],
      "vertical_range": [
        0,
        1
      ],
      "rhythm_density": 0,
      "patrol_enemies": 0,
      "flying_spawn_interval_ms": 3400,
      "falling_rock_spawn_interval_ms": 0
    },
    {
      "index": 360,
      "duration_beats": 2,
      "bpm": 78,
      "energy_state": "low",
      "platform_types": [
        "static",
        "beat",
        "alternateBeat",
        "elevator"
      ],
      "vertical_range": [
        0,
        1
      ],
      "rhythm_density": 0,
      "patrol_enemies": 0,
      "flying_spawn_interval_ms": 0,
      "falling_rock_spawn_interval_ms": 0
    },
    {
      "index": 361,
      "duration_beats": 2,
      "bpm": 78,
      "energy_state": "low",
      "platform_types": [
        "static",
        "beat",
        "alternateBeat",
        "elevator"
      ],
      "vertical_range": [
        0,
        1
      ],
      "rhythm_density": 0,
      "patrol_enemies": 0,
      "flying_spawn_interval_ms": 0,
      "falling_rock_spawn_interval_ms": 0
    },
    {
      "index": 362,
      "duration_beats": 2,
      "bpm": 78,
      "energy_state": "low",
      "platform_types": [
        "static",
        "beat",
        "alternateBeat",
        "elevator"
      ],
      "vertical_range": [
        0,
        1
      ],
      "rhythm_density": 0,
      "patrol_enemies": 0,
      "flying_spawn_interval_ms": 0,
      "falling_rock_spawn_interval_ms": 0
    },
    {
      "index": 363,
      "duration_beats": 2,
      "bpm": 78,
      "energy_state": "low",
      "platform_types": [
        "static",
        "beat",
        "alternateBeat",
        "elevator"
      ],
      "vertical_range": [
        0,
        1
      ],
      "rhythm_density": 0,
      "patrol_enemies": 0,
      "flying_spawn_interval_ms": 0,
      "falling_rock_spawn_interval_ms": 0
    },
    {
      "index": 364,
      "duration_beats": 2,
      "bpm": 78,
      "energy_state": "low",
      "platform_types": [
        "static",
        "beat",
        "alternateBeat",
        "elevator"
      ],
      "vertical_range": [
        0,
        1
      ],
      "rhythm_density": 0,
      "patrol_enemies": 0,
      "flying_spawn_interval_ms": 3400,
      "falling_rock_spawn_interval_ms": 0
    },
    {
      "index": 365,
      "duration_beats": 2,
      "bpm": 78,
      "energy_state": "low",
      "platform_types": [
        "static",
        "beat",
        "alternateBeat",
        "elevator"
      ],
      "vertical_range": [
        0,
        1
      ],
      "rhythm_density": 0,
      "patrol_enemies": 0,
      "flying_spawn_interval_ms": 0,
      "falling_rock_spawn_interval_ms": 0
    },
    {
      "index": 366,
      "duration_beats": 2,
      "bpm": 78,
      "energy_state": "low",
      "platform_types": [
        "static",
        "beat",
        "alternateBeat",
        "elevator"
      ],
      "vertical_range": [
        0,
        1
      ],
      "rhythm_density": 0,
      "patrol_enemies": 0,
      "flying_spawn_interval_ms": 0,
      "falling_rock_spawn_interval_ms": 0
    },
    {
      "index": 367,
      "duration_beats": 2,
      "bpm": 78,
      "energy_state": "low",
      "platform_types": [
        "static",
        "beat",
        "alternateBeat",
        "elevator"
      ],
      "vertical_range": [
        0,
        1
      ],
      "rhythm_density": 0,
      "patrol_enemies": 0,
      "flying_spawn_interval_ms": 0,
      "falling_rock_spawn_interval_ms": 0
    },
    {
      "index": 368,
      "duration_beats": 2,
      "bpm": 78,
      "energy_state": "low",
      "platform_types": [
        "static",
        "beat",
        "alternateBeat",
        "elevator"
      ],
      "vertical_range": [
        0,
        1
      ],
      "rhythm_density": 0,
      "patrol_enemies": 0,
      "flying_spawn_interval_ms": 0,
      "falling_rock_spawn_interval_ms": 0
    },
    {
      "index": 369,
      "duration_beats": 2,
      "bpm": 78,
      "energy_state": "low",
      "platform_types": [
        "static",
        "beat",
        "alternateBeat",
        "elevator"
      ],
      "vertical_range": [
        0,
        1
      ],
      "rhythm_density": 0,
      "patrol_enemies": 0,
      "flying_spawn_interval_ms": 3400,
      "falling_rock_spawn_interval_ms": 0
    },
    {
      "index": 370,
      "duration_beats": 2,
      "bpm": 78,
      "energy_state": "low",
      "platform_types": [
        "static",
        "beat",
        "alternateBeat",
        "elevator"
      ],
      "vertical_range": [
        0,
        1
      ],
      "rhythm_density": 0,
      "patrol_enemies": 0,
      "flying_spawn_interval_ms": 0,
      "falling_rock_spawn_interval_ms": 0
    },
    {
      "index": 371,
      "duration_beats": 2,
      "bpm": 78,
      "energy_state": "low",
      "platform_types": [
        "static",
        "beat",
        "alternateBeat",
        "elevator"
      ],
      "vertical_range": [
        0,
        1
      ],
      "rhythm_density": 0,
      "patrol_enemies": 0,
      "flying_spawn_interval_ms": 0,
      "falling_rock_spawn_interval_ms": 0
    },
    {
      "index": 372,
      "duration_beats": 2,
      "bpm": 78,
      "energy_state": "low",
      "platform_types": [
        "static",
        "beat",
        "alternateBeat",
        "elevator"
      ],
      "vertical_range": [
        0,
        1
      ],
      "rhythm_density": 0,
      "patrol_enemies": 0,
      "flying_spawn_interval_ms": 0,
      "falling_rock_spawn_interval_ms": 0
    },
    {
      "index": 373,
      "duration_beats": 2,
      "bpm": 78,
      "energy_state": "low",
      "platform_types": [
        "static",
        "beat",
        "alternateBeat",
        "elevator"
      ],
      "vertical_range": [
        0,
        1
      ],
      "rhythm_density": 0,
      "patrol_enemies": 0,
      "flying_spawn_interval_ms": 0,
      "falling_rock_spawn_interval_ms": 0
    },
    {
      "index": 374,
      "duration_beats": 2,
      "bpm": 78,
      "energy_state": "low",
      "platform_types": [
        "static",
        "beat",
        "alternateBeat",
        "elevator"
      ],
      "vertical_range": [
        0,
        1
      ],
      "rhythm_density": 0,
      "patrol_enemies": 0,
      "flying_spawn_interval_ms": 3400,
      "falling_rock_spawn_interval_ms": 0
    },
    {
      "index": 375,
      "duration_beats": 2,
      "bpm": 78,
      "energy_state": "low",
      "platform_types": [
        "static",
        "beat",
        "alternateBeat",
        "elevator"
      ],
      "vertical_range": [
        0,
        1
      ],
      "rhythm_density": 0,
      "patrol_enemies": 0,
      "flying_spawn_interval_ms": 0,
      "falling_rock_spawn_interval_ms": 0
    },
    {
      "index": 376,
      "duration_beats": 2,
      "bpm": 78,
      "energy_state": "low",
      "platform_types": [
        "static",
        "beat",
        "alternateBeat",
        "elevator"
      ],
      "vertical_range": [
        0,
        1
      ],
      "rhythm_density": 0,
      "patrol_enemies": 0,
      "flying_spawn_interval_ms": 0,
      "falling_rock_spawn_interval_ms": 0
    },
    {
      "index": 377,
      "duration_beats": 2,
      "bpm": 78,
      "energy_state": "low",
      "platform_types": [
        "static",
        "beat",
        "alternateBeat",
        "elevator"
      ],
      "vertical_range": [
        0,
        1
      ],
      "rhythm_density": 0,
      "patrol_enemies": 0,
      "flying_spawn_interval_ms": 0,
      "falling_rock_spawn_interval_ms": 0
    },
    {
      "index": 378,
      "duration_beats": 2,
      "bpm": 78,
      "energy_state": "low",
      "platform_types": [
        "static",
        "beat",
        "alternateBeat",
        "elevator"
      ],
      "vertical_range": [
        0,
        1
      ],
      "rhythm_density": 0,
      "patrol_enemies": 0,
      "flying_spawn_interval_ms": 0,
      "falling_rock_spawn_interval_ms": 0
    },
    {
      "index": 379,
      "duration_beats": 2,
      "bpm": 78,
      "energy_state": "low",
      "platform_types": [
        "static",
        "beat",
        "alternateBeat",
        "elevator"
      ],
      "vertical_range": [
        0,
        1
      ],
      "rhythm_density": 0,
      "patrol_enemies": 0,
      "flying_spawn_interval_ms": 3400,
      "falling_rock_spawn_interval_ms": 0
    },
    {
      "index": 380,
      "duration_beats": 2,
      "bpm": 78,
      "energy_state": "low",
      "platform_types": [
        "static",
        "beat",
        "alternateBeat",
        "elevator"
      ],
      "vertical_range": [
        0,
        1
      ],
      "rhythm_density": 0,
      "patrol_enemies": 0,
      "flying_spawn_interval_ms": 0,
      "falling_rock_spawn_interval_ms": 0
    },
    {
      "index": 381,
      "duration_beats": 2,
      "bpm": 78,
      "energy_state": "low",
      "platform_types": [
        "static",
        "beat",
        "alternateBeat",
        "elevator"
      ],
      "vertical_range": [
        0,
        1
      ],
      "rhythm_density": 0,
      "patrol_enemies": 0,
      "flying_spawn_interval_ms": 0,
      "falling_rock_spawn_interval_ms": 0
    },
    {
      "index": 382,
      "duration_beats": 2,
      "bpm": 78,
      "energy_state": "low",
      "platform_types": [
        "static",
        "beat",
        "alternateBeat",
        "elevator"
      ],
      "vertical_range": [
        0,
        1
      ],
      "rhythm_density": 0,
      "patrol_enemies": 0,
      "flying_spawn_interval_ms": 0,
      "falling_rock_spawn_interval_ms": 0
    },
    {
      "index": 383,
      "duration_beats": 2,
      "bpm": 78,
      "energy_state": "low",
      "platform_types": [
        "static",
        "beat",
        "alternateBeat",
        "elevator"
      ],
      "vertical_range": [
        0,
        1
      ],
      "rhythm_density": 0,
      "patrol_enemies": 0,
      "flying_spawn_interval_ms": 0,
      "falling_rock_spawn_interval_ms": 0
    },
    {
      "index": 384,
      "duration_beats": 2,
      "bpm": 78,
      "energy_state": "low",
      "platform_types": [
        "static",
        "beat",
        "alternateBeat",
        "elevator"
      ],
      "vertical_range": [
        0,
        1
      ],
      "rhythm_density": 0,
      "patrol_enemies": 0,
      "flying_spawn_interval_ms": 3400,
      "falling_rock_spawn_interval_ms": 0
    },
    {
      "index": 385,
      "duration_beats": 2,
      "bpm": 78,
      "energy_state": "low",
      "platform_types": [
        "static",
        "beat",
        "alternateBeat",
        "elevator"
      ],
      "vertical_range": [
        0,
        1
      ],
      "rhythm_density": 0,
      "patrol_enemies": 0,
      "flying_spawn_interval_ms": 0,
      "falling_rock_spawn_interval_ms": 0
    },
    {
      "index": 386,
      "duration_beats": 2,
      "bpm": 78,
      "energy_state": "low",
      "platform_types": [
        "static",
        "beat",
        "alternateBeat",
        "elevator"
      ],
      "vertical_range": [
        0,
        1
      ],
      "rhythm_density": 0,
      "patrol_enemies": 0,
      "flying_spawn_interval_ms": 0,
      "falling_rock_spawn_interval_ms": 0
    },
    {
      "index": 387,
      "duration_beats": 2,
      "bpm": 78,
      "energy_state": "low",
      "platform_types": [
        "static",
        "beat",
        "alternateBeat",
        "elevator"
      ],
      "vertical_range": [
        0,
        1
      ],
      "rhythm_density": 0,
      "patrol_enemies": 0,
      "flying_spawn_interval_ms": 0,
      "falling_rock_spawn_interval_ms": 0
    },
    {
      "index": 388,
      "duration_beats": 2,
      "bpm": 78,
      "energy_state": "low",
      "platform_types": [
        "static",
        "beat",
        "alternateBeat",
        "elevator"
      ],
      "vertical_range": [
        0,
        1
      ],
      "rhythm_density": 0,
      "patrol_enemies": 0,
      "flying_spawn_interval_ms": 0,
      "falling_rock_spawn_interval_ms": 0
    },
    {
      "index": 389,
      "duration_beats": 2,
      "bpm": 78,
      "energy_state": "low",
      "platform_types": [
        "static",
        "beat",
        "alternateBeat",
        "elevator"
      ],
      "vertical_range": [
        0,
        1
      ],
      "rhythm_density": 0,
      "patrol_enemies": 0,
      "flying_spawn_interval_ms": 3400,
      "falling_rock_spawn_interval_ms": 0
    },
    {
      "index": 390,
      "duration_beats": 2,
      "bpm": 78,
      "energy_state": "low",
      "platform_types": [
        "static",
        "beat",
        "alternateBeat",
        "elevator"
      ],
      "vertical_range": [
        0,
        1
      ],
      "rhythm_density": 0,
      "patrol_enemies": 0,
      "flying_spawn_interval_ms": 0,
      "falling_rock_spawn_interval_ms": 0
    },
    {
      "index": 391,
      "duration_beats": 2,
      "bpm": 78,
      "energy_state": "low",
      "platform_types": [
        "static",
        "beat",
        "alternateBeat",
        "elevator"
      ],
      "vertical_range": [
        0,
        1
      ],
      "rhythm_density": 0,
      "patrol_enemies": 0,
      "flying_spawn_interval_ms": 0,
      "falling_rock_spawn_interval_ms": 0
    },
    {
      "index": 392,
      "duration_beats": 2,
      "bpm": 78,
      "energy_state": "low",
      "platform_types": [
        "static",
        "beat",
        "alternateBeat",
        "elevator"
      ],
      "vertical_range": [
        0,
        1
      ],
      "rhythm_density": 0,
      "patrol_enemies": 0,
      "flying_spawn_interval_ms": 0,
      "falling_rock_spawn_interval_ms": 0
    },
    {
      "index": 393,
      "duration_beats": 2,
      "bpm": 78,
      "energy_state": "low",
      "platform_types": [
        "static",
        "beat",
        "alternateBeat",
        "elevator"
      ],
      "vertical_range": [
        0,
        1
      ],
      "rhythm_density": 0,
      "patrol_enemies": 0,
      "flying_spawn_interval_ms": 0,
      "falling_rock_spawn_interval_ms": 0
    },
    {
      "index": 394,
      "duration_beats": 2,
      "bpm": 78,
      "energy_state": "low",
      "platform_types": [
        "static",
        "beat",
        "alternateBeat",
        "elevator"
      ],
      "vertical_range": [
        0,
        1
      ],
      "rhythm_density": 0,
      "patrol_enemies": 0,
      "flying_spawn_interval_ms": 3400,
      "falling_rock_spawn_interval_ms": 0
    },
    {
      "index": 395,
      "duration_beats": 2,
      "bpm": 78,
      "energy_state": "low",
      "platform_types": [
        "static",
        "beat",
        "alternateBeat",
        "elevator"
      ],
      "vertical_range": [
        0,
        1
      ],
      "rhythm_density": 0,
      "patrol_enemies": 0,
      "flying_spawn_interval_ms": 0,
      "falling_rock_spawn_interval_ms": 0
    },
    {
      "index": 396,
      "duration_beats": 2,
      "bpm": 78,
      "energy_state": "low",
      "platform_types": [
        "static",
        "beat",
        "alternateBeat",
        "elevator"
      ],
      "vertical_range": [
        0,
        1
      ],
      "rhythm_density": 0,
      "patrol_enemies": 0,
      "flying_spawn_interval_ms": 0,
      "falling_rock_spawn_interval_ms": 0
    },
    {
      "index": 397,
      "duration_beats": 2,
      "bpm": 78,
      "energy_state": "low",
      "platform_types": [
        "static",
        "beat",
        "alternateBeat",
        "elevator"
      ],
      "vertical_range": [
        0,
        1
      ],
      "rhythm_density": 0,
      "patrol_enemies": 0,
      "flying_spawn_interval_ms": 0,
      "falling_rock_spawn_interval_ms": 0
    },
    {
      "index": 398,
      "duration_beats": 2,
      "bpm": 78,
      "energy_state": "low",
      "platform_types": [
        "static",
        "beat",
        "alternateBeat",
        "elevator"
      ],
      "vertical_range": [
        0,
        1
      ],
      "rhythm_density": 0,
      "patrol_enemies": 0,
      "flying_spawn_interval_ms": 0,
      "falling_rock_spawn_interval_ms": 0
    },
    {
      "index": 399,
      "duration_beats": 2,
      "bpm": 78,
      "energy_state": "low",
      "platform_types": [
        "static",
        "beat",
        "alternateBeat",
        "elevator"
      ],
      "vertical_range": [
        0,
        1
      ],
      "rhythm_density": 0,
      "patrol_enemies": 0,
      "flying_spawn_interval_ms": 3400,
      "falling_rock_spawn_interval_ms": 0
    },
    {
      "index": 400,
      "duration_beats": 2,
      "bpm": 78,
      "energy_state": "low",
      "platform_types": [
        "static",
        "beat",
        "alternateBeat",
        "elevator"
      ],
      "vertical_range": [
        0,
        1
      ],
      "rhythm_density": 0,
      "patrol_enemies": 0,
      "flying_spawn_interval_ms": 0,
      "falling_rock_spawn_interval_ms": 0
    },
    {
      "index": 401,
      "duration_beats": 2,
      "bpm": 78,
      "energy_state": "low",
      "platform_types": [
        "static",
        "beat",
        "alternateBeat",
        "elevator"
      ],
      "vertical_range": [
        0,
        1
      ],
      "rhythm_density": 0,
      "patrol_enemies": 0,
      "flying_spawn_interval_ms": 0,
      "falling_rock_spawn_interval_ms": 0
    },
    {
      "index": 402,
      "duration_beats": 2,
      "bpm": 78,
      "energy_state": "low",
      "platform_types": [
        "static",
        "beat",
        "alternateBeat",
        "elevator"
      ],
      "vertical_range": [
        0,
        1
      ],
      "rhythm_density": 0,
      "patrol_enemies": 0,
      "flying_spawn_interval_ms": 0,
      "falling_rock_spawn_interval_ms": 0
    },
    {
      "index": 403,
      "duration_beats": 2,
      "bpm": 78,
      "energy_state": "low",
      "platform_types": [
        "static",
        "beat",
        "alternateBeat",
        "elevator"
      ],
      "vertical_range": [
        0,
        1
      ],
      "rhythm_density": 0,
      "patrol_enemies": 0,
      "flying_spawn_interval_ms": 0,
      "falling_rock_spawn_interval_ms": 0
    },
    {
      "index": 404,
      "duration_beats": 2,
      "bpm": 78,
      "energy_state": "low",
      "platform_types": [
        "static",
        "beat",
        "alternateBeat",
        "elevator"
      ],
      "vertical_range": [
        0,
        1
      ],
      "rhythm_density": 0,
      "patrol_enemies": 0,
      "flying_spawn_interval_ms": 3400,
      "falling_rock_spawn_interval_ms": 0
    },
    {
      "index": 405,
      "duration_beats": 2,
      "bpm": 78,
      "energy_state": "low",
      "platform_types": [
        "static",
        "beat",
        "alternateBeat",
        "elevator"
      ],
      "vertical_range": [
        0,
        1
      ],
      "rhythm_density": 0,
      "patrol_enemies": 0,
      "flying_spawn_interval_ms": 0,
      "falling_rock_spawn_interval_ms": 0
    },
    {
      "index": 406,
      "duration_beats": 2,
      "bpm": 78,
      "energy_state": "low",
      "platform_types": [
        "static",
        "beat",
        "alternateBeat",
        "elevator"
      ],
      "vertical_range": [
        0,
        1
      ],
      "rhythm_density": 0,
      "patrol_enemies": 0,
      "flying_spawn_interval_ms": 0,
      "falling_rock_spawn_interval_ms": 0
    },
    {
      "index": 407,
      "duration_beats": 2,
      "bpm": 78,
      "energy_state": "low",
      "platform_types": [
        "static",
        "beat",
        "alternateBeat",
        "elevator"
      ],
      "vertical_range": [
        0,
        1
      ],
      "rhythm_density": 0,
      "patrol_enemies": 0,
      "flying_spawn_interval_ms": 0,
      "falling_rock_spawn_interval_ms": 0
    },
    {
      "index": 408,
      "duration_beats": 2,
      "bpm": 78,
      "energy_state": "low",
      "platform_types": [
        "static",
        "beat",
        "alternateBeat",
        "elevator"
      ],
      "vertical_range": [
        0,
        1
      ],
      "rhythm_density": 0,
      "patrol_enemies": 0,
      "flying_spawn_interval_ms": 0,
      "falling_rock_spawn_interval_ms": 0
    },
    {
      "index": 409,
      "duration_beats": 2,
      "bpm": 78,
      "energy_state": "low",
      "platform_types": [
        "static",
        "beat",
        "alternateBeat",
        "elevator"
      ],
      "vertical_range": [
        0,
        1
      ],
      "rhythm_density": 0,
      "patrol_enemies": 0,
      "flying_spawn_interval_ms": 3400,
      "falling_rock_spawn_interval_ms": 0
    },
    {
      "index": 410,
      "duration_beats": 2,
      "bpm": 78,
      "energy_state": "low",
      "platform_types": [
        "static",
        "beat",
        "alternateBeat",
        "elevator"
      ],
      "vertical_range": [
        0,
        1
      ],
      "rhythm_density": 0,
      "patrol_enemies": 0,
      "flying_spawn_interval_ms": 0,
      "falling_rock_spawn_interval_ms": 0
    },
    {
      "index": 411,
      "duration_beats": 2,
      "bpm": 78,
      "energy_state": "low",
      "platform_types": [
        "static",
        "beat",
        "alternateBeat",
        "elevator"
      ],
      "vertical_range": [
        0,
        1
      ],
      "rhythm_density": 0,
      "patrol_enemies": 0,
      "flying_spawn_interval_ms": 0,
      "falling_rock_spawn_interval_ms": 0
    },
    {
      "index": 412,
      "duration_beats": 2,
      "bpm": 78,
      "energy_state": "low",
      "platform_types": [
        "static",
        "beat",
        "alternateBeat",
        "elevator"
      ],
      "vertical_range": [
        0,
        1
      ],
      "rhythm_density": 0,
      "patrol_enemies": 0,
      "flying_spawn_interval_ms": 0,
      "falling_rock_spawn_interval_ms": 0
    },
    {
      "index": 413,
      "duration_beats": 2,
      "bpm": 78,
      "energy_state": "low",
      "platform_types": [
        "static",
        "beat",
        "alternateBeat",
        "elevator"
      ],
      "vertical_range": [
        0,
        1
      ],
      "rhythm_density": 0,
      "patrol_enemies": 0,
      "flying_spawn_interval_ms": 0,
      "falling_rock_spawn_interval_ms": 0
    },
    {
      "index": 414,
      "duration_beats": 2,
      "bpm": 78,
      "energy_state": "low",
      "platform_types": [
        "static",
        "beat",
        "alternateBeat",
        "elevator"
      ],
      "vertical_range": [
        0,
        1
      ],
      "rhythm_density": 0,
      "patrol_enemies": 0,
      "flying_spawn_interval_ms": 3400,
      "falling_rock_spawn_interval_ms": 0
    },
    {
      "index": 415,
      "duration_beats": 2,
      "bpm": 78,
      "energy_state": "low",
      "platform_types": [
        "static",
        "beat",
        "alternateBeat",
        "elevator"
      ],
      "vertical_range": [
        0,
        1
      ],
      "rhythm_density": 0,
      "patrol_enemies": 0,
      "flying_spawn_interval_ms": 0,
      "falling_rock_spawn_interval_ms": 0
    },
    {
      "index": 416,
      "duration_beats": 2,
      "bpm": 78,
      "energy_state": "low",
      "platform_types": [
        "static",
        "beat",
        "alternateBeat",
        "elevator"
      ],
      "vertical_range": [
        0,
        1
      ],
      "rhythm_density": 0,
      "patrol_enemies": 0,
      "flying_spawn_interval_ms": 0,
      "falling_rock_spawn_interval_ms": 0
    },
    {
      "index": 417,
      "duration_beats": 2,
      "bpm": 78,
      "energy_state": "low",
      "platform_types": [
        "static",
        "beat",
        "alternateBeat",
        "elevator"
      ],
      "vertical_range": [
        0,
        1
      ],
      "rhythm_density": 0,
      "patrol_enemies": 0,
      "flying_spawn_interval_ms": 0,
      "falling_rock_spawn_interval_ms": 0
    },
    {
      "index": 418,
      "duration_beats": 2,
      "bpm": 78,
      "energy_state": "low",
      "platform_types": [
        "static",
        "beat",
        "alternateBeat",
        "elevator"
      ],
      "vertical_range": [
        0,
        1
      ],
      "rhythm_density": 0,
      "patrol_enemies": 0,
      "flying_spawn_interval_ms": 0,
      "falling_rock_spawn_interval_ms": 0
    },
    {
      "index": 419,
      "duration_beats": 2,
      "bpm": 78,
      "energy_state": "low",
      "platform_types": [
        "static",
        "beat",
        "alternateBeat",
        "elevator"
      ],
      "vertical_range": [
        0,
        1
      ],
      "rhythm_density": 0,
      "patrol_enemies": 0,
      "flying_spawn_interval_ms": 3400,
      "falling_rock_spawn_interval_ms": 0
    },
    {
      "index": 420,
      "duration_beats": 2,
      "bpm": 78,
      "energy_state": "low",
      "platform_types": [
        "static",
        "beat",
        "alternateBeat",
        "elevator"
      ],
      "vertical_range": [
        0,
        1
      ],
      "rhythm_density": 0,
      "patrol_enemies": 0,
      "flying_spawn_interval_ms": 0,
      "falling_rock_spawn_interval_ms": 0
    },
    {
      "index": 421,
      "duration_beats": 2,
      "bpm": 78,
      "energy_state": "low",
      "platform_types": [
        "static",
        "beat",
        "alternateBeat",
        "elevator"
      ],
      "vertical_range": [
        0,
        1
      ],
      "rhythm_density": 0,
      "patrol_enemies": 0,
      "flying_spawn_interval_ms": 0,
      "falling_rock_spawn_interval_ms": 0
    },
    {
      "index": 422,
      "duration_beats": 2,
      "bpm": 78,
      "energy_state": "low",
      "platform_types": [
        "static",
        "beat",
        "alternateBeat",
        "elevator"
      ],
      "vertical_range": [
        0,
        1
      ],
      "rhythm_density": 0,
      "patrol_enemies": 0,
      "flying_spawn_interval_ms": 0,
      "falling_rock_spawn_interval_ms": 0
    },
    {
      "index": 423,
      "duration_beats": 2,
      "bpm": 78,
      "energy_state": "low",
      "platform_types": [
        "static",
        "beat",
        "alternateBeat",
        "elevator"
      ],
      "vertical_range": [
        0,
        1
      ],
      "rhythm_density": 0,
      "patrol_enemies": 0,
      "flying_spawn_interval_ms": 0,
      "falling_rock_spawn_interval_ms": 0
    },
    {
      "index": 424,
      "duration_beats": 2,
      "bpm": 78,
      "energy_state": "low",
      "platform_types": [
        "static",
        "beat",
        "alternateBeat",
        "elevator"
      ],
      "vertical_range": [
        0,
        1
      ],
      "rhythm_density": 0,
      "patrol_enemies": 0,
      "flying_spawn_interval_ms": 3400,
      "falling_rock_spawn_interval_ms": 0
    },
    {
      "index": 425,
      "duration_beats": 2,
      "bpm": 78,
      "energy_state": "low",
      "platform_types": [
        "static",
        "beat",
        "alternateBeat",
        "elevator"
      ],
      "vertical_range": [
        0,
        1
      ],
      "rhythm_density": 0,
      "patrol_enemies": 0,
      "flying_spawn_interval_ms": 0,
      "falling_rock_spawn_interval_ms": 0
    },
    {
      "index": 426,
      "duration_beats": 2,
      "bpm": 78,
      "energy_state": "low",
      "platform_types": [
        "static",
        "beat",
        "alternateBeat",
        "elevator"
      ],
      "vertical_range": [
        0,
        1
      ],
      "rhythm_density": 0,
      "patrol_enemies": 0,
      "flying_spawn_interval_ms": 0,
      "falling_rock_spawn_interval_ms": 0
    },
    {
      "index": 427,
      "duration_beats": 2,
      "bpm": 78,
      "energy_state": "low",
      "platform_types": [
        "static",
        "beat",
        "alternateBeat",
        "elevator"
      ],
      "vertical_range": [
        0,
        1
      ],
      "rhythm_density": 0,
      "patrol_enemies": 0,
      "flying_spawn_interval_ms": 0,
      "falling_rock_spawn_interval_ms": 0
    },
    {
      "index": 428,
      "duration_beats": 2,
      "bpm": 78,
      "energy_state": "low",
      "platform_types": [
        "static",
        "beat",
        "alternateBeat",
        "elevator"
      ],
      "vertical_range": [
        0,
        1
      ],
      "rhythm_density": 0,
      "patrol_enemies": 0,
      "flying_spawn_interval_ms": 0,
      "falling_rock_spawn_interval_ms": 0
    },
    {
      "index": 429,
      "duration_beats": 2,
      "bpm": 78,
      "energy_state": "low",
      "platform_types": [
        "static",
        "beat",
        "alternateBeat",
        "elevator"
      ],
      "vertical_range": [
        0,
        1
      ],
      "rhythm_density": 0,
      "patrol_enemies": 0,
      "flying_spawn_interval_ms": 3400,
      "falling_rock_spawn_interval_ms": 0
    },
    {
      "index": 430,
      "duration_beats": 2,
      "bpm": 78,
      "energy_state": "low",
      "platform_types": [
        "static",
        "beat",
        "alternateBeat",
        "elevator"
      ],
      "vertical_range": [
        0,
        1
      ],
      "rhythm_density": 0,
      "patrol_enemies": 0,
      "flying_spawn_interval_ms": 0,
      "falling_rock_spawn_interval_ms": 0
    },
    {
      "index": 431,
      "duration_beats": 2,
      "bpm": 78,
      "energy_state": "low",
      "platform_types": [
        "static",
        "beat",
        "alternateBeat",
        "elevator"
      ],
      "vertical_range": [
        0,
        1
      ],
      "rhythm_density": 0,
      "patrol_enemies": 0,
      "flying_spawn_interval_ms": 0,
      "falling_rock_spawn_interval_ms": 0
    },
    {
      "index": 432,
      "duration_beats": 2,
      "bpm": 78,
      "energy_state": "low",
      "platform_types": [
        "static",
        "beat",
        "alternateBeat",
        "elevator"
      ],
      "vertical_range": [
        0,
        1
      ],
      "rhythm_density": 0,
      "patrol_enemies": 0,
      "flying_spawn_interval_ms": 0,
      "falling_rock_spawn_interval_ms": 0
    },
    {
      "index": 433,
      "duration_beats": 2,
      "bpm": 78,
      "energy_state": "low",
      "platform_types": [
        "static",
        "beat",
        "alternateBeat",
        "elevator"
      ],
      "vertical_range": [
        0,
        1
      ],
      "rhythm_density": 0,
      "patrol_enemies": 0,
      "flying_spawn_interval_ms": 0,
      "falling_rock_spawn_interval_ms": 0
    },
    {
      "index": 434,
      "duration_beats": 2,
      "bpm": 78,
      "energy_state": "low",
      "platform_types": [
        "static",
        "beat",
        "alternateBeat",
        "elevator"
      ],
      "vertical_range": [
        0,
        1
      ],
      "rhythm_density": 0,
      "patrol_enemies": 0,
      "flying_spawn_interval_ms": 3400,
      "falling_rock_spawn_interval_ms": 0
    },
    {
      "index": 435,
      "duration_beats": 2,
      "bpm": 78,
      "energy_state": "low",
      "platform_types": [
        "static",
        "beat",
        "alternateBeat",
        "elevator"
      ],
      "vertical_range": [
        0,
        1
      ],
      "rhythm_density": 0,
      "patrol_enemies": 0,
      "flying_spawn_interval_ms": 0,
      "falling_rock_spawn_interval_ms": 0
    },
    {
      "index": 436,
      "duration_beats": 2,
      "bpm": 78,
      "energy_state": "low",
      "platform_types": [
        "static",
        "beat",
        "alternateBeat",
        "elevator"
      ],
      "vertical_range": [
        0,
        1
      ],
      "rhythm_density": 0,
      "patrol_enemies": 0,
      "flying_spawn_interval_ms": 0,
      "falling_rock_spawn_interval_ms": 0
    },
    {
      "index": 437,
      "duration_beats": 2,
      "bpm": 78,
      "energy_state": "low",
      "platform_types": [
        "static",
        "beat",
        "alternateBeat",
        "elevator"
      ],
      "vertical_range": [
        0,
        1
      ],
      "rhythm_density": 0,
      "patrol_enemies": 0,
      "flying_spawn_interval_ms": 0,
      "falling_rock_spawn_interval_ms": 0
    },
    {
      "index": 438,
      "duration_beats": 2,
      "bpm": 78,
      "energy_state": "low",
      "platform_types": [
        "static",
        "beat",
        "alternateBeat",
        "elevator"
      ],
      "vertical_range": [
        0,
        1
      ],
      "rhythm_density": 0,
      "patrol_enemies": 0,
      "flying_spawn_interval_ms": 0,
      "falling_rock_spawn_interval_ms": 0
    },
    {
      "index": 439,
      "duration_beats": 2,
      "bpm": 78,
      "energy_state": "low",
      "platform_types": [
        "static",
        "beat",
        "alternateBeat",
        "elevator"
      ],
      "vertical_range": [
        0,
        1
      ],
      "rhythm_density": 0,
      "patrol_enemies": 0,
      "flying_spawn_interval_ms": 3400,
      "falling_rock_spawn_interval_ms": 0
    },
    {
      "index": 440,
      "duration_beats": 2,
      "bpm": 78,
      "energy_state": "low",
      "platform_types": [
        "static",
        "beat",
        "alternateBeat",
        "elevator"
      ],
      "vertical_range": [
        0,
        1
      ],
      "rhythm_density": 0,
      "patrol_enemies": 0,
      "flying_spawn_interval_ms": 0,
      "falling_rock_spawn_interval_ms": 0
    },
    {
      "index": 441,
      "duration_beats": 2,
      "bpm": 78,
      "energy_state": "low",
      "platform_types": [
        "static",
        "beat",
        "alternateBeat",
        "elevator"
      ],
      "vertical_range": [
        0,
        1
      ],
      "rhythm_density": 0,
      "patrol_enemies": 0,
      "flying_spawn_interval_ms": 0,
      "falling_rock_spawn_interval_ms": 0
    },
    {
      "index": 442,
      "duration_beats": 2,
      "bpm": 78,
      "energy_state": "low",
      "platform_types": [
        "static",
        "beat",
        "alternateBeat",
        "elevator"
      ],
      "vertical_range": [
        0,
        1
      ],
      "rhythm_density": 0,
      "patrol_enemies": 0,
      "flying_spawn_interval_ms": 0,
      "falling_rock_spawn_interval_ms": 0
    },
    {
      "index": 443,
      "duration_beats": 2,
      "bpm": 78,
      "energy_state": "low",
      "platform_types": [
        "static",
        "beat",
        "alternateBeat",
        "elevator"
      ],
      "vertical_range": [
        0,
        1
      ],
      "rhythm_density": 0,
      "patrol_enemies": 0,
      "flying_spawn_interval_ms": 0,
      "falling_rock_spawn_interval_ms": 0
    },
    {
      "index": 444,
      "duration_beats": 2,
      "bpm": 78,
      "energy_state": "low",
      "platform_types": [
        "static",
        "beat",
        "alternateBeat",
        "elevator"
      ],
      "vertical_range": [
        0,
        1
      ],
      "rhythm_density": 0,
      "patrol_enemies": 0,
      "flying_spawn_interval_ms": 3400,
      "falling_rock_spawn_interval_ms": 0
    },
    {
      "index": 445,
      "duration_beats": 2,
      "bpm": 78,
      "energy_state": "low",
      "platform_types": [
        "static",
        "beat",
        "alternateBeat",
        "elevator"
      ],
      "vertical_range": [
        0,
        1
      ],
      "rhythm_density": 0,
      "patrol_enemies": 0,
      "flying_spawn_interval_ms": 0,
      "falling_rock_spawn_interval_ms": 0
    },
    {
      "index": 446,
      "duration_beats": 2,
      "bpm": 78,
      "energy_state": "low",
      "platform_types": [
        "static",
        "beat",
        "alternateBeat",
        "elevator"
      ],
      "vertical_range": [
        0,
        1
      ],
      "rhythm_density": 0,
      "patrol_enemies": 0,
      "flying_spawn_interval_ms": 0,
      "falling_rock_spawn_interval_ms": 0
    },
    {
      "index": 447,
      "duration_beats": 2,
      "bpm": 78,
      "energy_state": "low",
      "platform_types": [
        "static",
        "beat",
        "alternateBeat",
        "elevator"
      ],
      "vertical_range": [
        0,
        1
      ],
      "rhythm_density": 0,
      "patrol_enemies": 0,
      "flying_spawn_interval_ms": 0,
      "falling_rock_spawn_interval_ms": 0
    },
    {
      "index": 448,
      "duration_beats": 2,
      "bpm": 78,
      "energy_state": "low",
      "platform_types": [
        "static",
        "beat",
        "alternateBeat",
        "elevator"
      ],
      "vertical_range": [
        0,
        1
      ],
      "rhythm_density": 0,
      "patrol_enemies": 0,
      "flying_spawn_interval_ms": 0,
      "falling_rock_spawn_interval_ms": 0
    },
    {
      "index": 449,
      "duration_beats": 2,
      "bpm": 78,
      "energy_state": "low",
      "platform_types": [
        "static",
        "beat",
        "alternateBeat",
        "elevator"
      ],
      "vertical_range": [
        0,
        1
      ],
      "rhythm_density": 0,
      "patrol_enemies": 0,
      "flying_spawn_interval_ms": 3400,
      "falling_rock_spawn_interval_ms": 0
    },
    {
      "index": 450,
      "duration_beats": 2,
      "bpm": 78,
      "energy_state": "low",
      "platform_types": [
        "static",
        "beat",
        "alternateBeat",
        "elevator"
      ],
      "vertical_range": [
        0,
        1
      ],
      "rhythm_density": 0,
      "patrol_enemies": 0,
      "flying_spawn_interval_ms": 0,
      "falling_rock_spawn_interval_ms": 0
    },
    {
      "index": 451,
      "duration_beats": 2,
      "bpm": 78,
      "energy_state": "low",
      "platform_types": [
        "static",
        "beat",
        "alternateBeat",
        "elevator"
      ],
      "vertical_range": [
        0,
        1
      ],
      "rhythm_density": 0,
      "patrol_enemies": 0,
      "flying_spawn_interval_ms": 0,
      "falling_rock_spawn_interval_ms": 0
    },
    {
      "index": 452,
      "duration_beats": 2,
      "bpm": 78,
      "energy_state": "low",
      "platform_types": [
        "static",
        "beat",
        "alternateBeat",
        "elevator"
      ],
      "vertical_range": [
        0,
        1
      ],
      "rhythm_density": 0,
      "patrol_enemies": 0,
      "flying_spawn_interval_ms": 0,
      "falling_rock_spawn_interval_ms": 0
    },
    {
      "index": 453,
      "duration_beats": 2,
      "bpm": 78,
      "energy_state": "low",
      "platform_types": [
        "static",
        "beat",
        "alternateBeat",
        "elevator"
      ],
      "vertical_range": [
        0,
        1
      ],
      "rhythm_density": 0,
      "patrol_enemies": 0,
      "flying_spawn_interval_ms": 0,
      "falling_rock_spawn_interval_ms": 0
    },
    {
      "index": 454,
      "duration_beats": 2,
      "bpm": 78,
      "energy_state": "low",
      "platform_types": [
        "static",
        "beat",
        "alternateBeat",
        "elevator"
      ],
      "vertical_range": [
        0,
        1
      ],
      "rhythm_density": 0,
      "patrol_enemies": 0,
      "flying_spawn_interval_ms": 3400,
      "falling_rock_spawn_interval_ms": 0
    },
    {
      "index": 455,
      "duration_beats": 2,
      "bpm": 78,
      "energy_state": "low",
      "platform_types": [
        "static",
        "beat",
        "alternateBeat",
        "elevator"
      ],
      "vertical_range": [
        0,
        1
      ],
      "rhythm_density": 0,
      "patrol_enemies": 0,
      "flying_spawn_interval_ms": 0,
      "falling_rock_spawn_interval_ms": 0
    },
    {
      "index": 456,
      "duration_beats": 2,
      "bpm": 78,
      "energy_state": "low",
      "platform_types": [
        "static",
        "beat",
        "alternateBeat",
        "elevator"
      ],
      "vertical_range": [
        0,
        1
      ],
      "rhythm_density": 0,
      "patrol_enemies": 0,
      "flying_spawn_interval_ms": 0,
      "falling_rock_spawn_interval_ms": 0
    },
    {
      "index": 457,
      "duration_beats": 2,
      "bpm": 78,
      "energy_state": "low",
      "platform_types": [
        "static",
        "beat",
        "alternateBeat",
        "elevator"
      ],
      "vertical_range": [
        0,
        1
      ],
      "rhythm_density": 0,
      "patrol_enemies": 0,
      "flying_spawn_interval_ms": 0,
      "falling_rock_spawn_interval_ms": 0
    },
    {
      "index": 458,
      "duration_beats": 2,
      "bpm": 78,
      "energy_state": "low",
      "platform_types": [
        "static",
        "beat",
        "alternateBeat",
        "elevator"
      ],
      "vertical_range": [
        0,
        1
      ],
      "rhythm_density": 0,
      "patrol_enemies": 0,
      "flying_spawn_interval_ms": 0,
      "falling_rock_spawn_interval_ms": 0
    },
    {
      "index": 459,
      "duration_beats": 2,
      "bpm": 78,
      "energy_state": "low",
      "platform_types": [
        "static",
        "beat",
        "alternateBeat",
        "elevator"
      ],
      "vertical_range": [
        0,
        1
      ],
      "rhythm_density": 0,
      "patrol_enemies": 0,
      "flying_spawn_interval_ms": 3400,
      "falling_rock_spawn_interval_ms": 0
    },
    {
      "index": 460,
      "duration_beats": 2,
      "bpm": 78,
      "energy_state": "low",
      "platform_types": [
        "static",
        "beat",
        "alternateBeat",
        "elevator"
      ],
      "vertical_range": [
        0,
        1
      ],
      "rhythm_density": 0,
      "patrol_enemies": 0,
      "flying_spawn_interval_ms": 0,
      "falling_rock_spawn_interval_ms": 0
    },
    {
      "index": 461,
      "duration_beats": 2,
      "bpm": 78,
      "energy_state": "low",
      "platform_types": [
        "static",
        "beat",
        "alternateBeat",
        "elevator"
      ],
      "vertical_range": [
        0,
        1
      ],
      "rhythm_density": 0,
      "patrol_enemies": 0,
      "flying_spawn_interval_ms": 0,
      "falling_rock_spawn_interval_ms": 0
    },
    {
      "index": 462,
      "duration_beats": 2,
      "bpm": 78,
      "energy_state": "low",
      "platform_types": [
        "static",
        "beat",
        "alternateBeat",
        "elevator"
      ],
      "vertical_range": [
        0,
        1
      ],
      "rhythm_density": 0,
      "patrol_enemies": 0,
      "flying_spawn_interval_ms": 0,
      "falling_rock_spawn_interval_ms": 0
    },
    {
      "index": 463,
      "duration_beats": 2,
      "bpm": 78,
      "energy_state": "low",
      "platform_types": [
        "static",
        "beat",
        "alternateBeat",
        "elevator"
      ],
      "vertical_range": [
        0,
        1
      ],
      "rhythm_density": 0,
      "patrol_enemies": 0,
      "flying_spawn_interval_ms": 0,
      "falling_rock_spawn_interval_ms": 0
    },
    {
      "index": 464,
      "duration_beats": 2,
      "bpm": 78,
      "energy_state": "low",
      "platform_types": [
        "static",
        "beat",
        "alternateBeat",
        "elevator"
      ],
      "vertical_range": [
        0,
        1
      ],
      "rhythm_density": 0,
      "patrol_enemies": 0,
      "flying_spawn_interval_ms": 3400,
      "falling_rock_spawn_interval_ms": 0
    },
    {
      "index": 465,
      "duration_beats": 2,
      "bpm": 78,
      "energy_state": "low",
      "platform_types": [
        "static",
        "beat",
        "alternateBeat",
        "elevator"
      ],
      "vertical_range": [
        0,
        1
      ],
      "rhythm_density": 0,
      "patrol_enemies": 0,
      "flying_spawn_interval_ms": 0,
      "falling_rock_spawn_interval_ms": 0
    },
    {
      "index": 466,
      "duration_beats": 2,
      "bpm": 78,
      "energy_state": "low",
      "platform_types": [
        "static",
        "beat",
        "alternateBeat",
        "elevator"
      ],
      "vertical_range": [
        0,
        1
      ],
      "rhythm_density": 0,
      "patrol_enemies": 0,
      "flying_spawn_interval_ms": 0,
      "falling_rock_spawn_interval_ms": 0
    },
    {
      "index": 467,
      "duration_beats": 2,
      "bpm": 78,
      "energy_state": "low",
      "platform_types": [
        "static",
        "beat",
        "alternateBeat",
        "elevator"
      ],
      "vertical_range": [
        0,
        1
      ],
      "rhythm_density": 0,
      "patrol_enemies": 0,
      "flying_spawn_interval_ms": 0,
      "falling_rock_spawn_interval_ms": 0
    },
    {
      "index": 468,
      "duration_beats": 2,
      "bpm": 78,
      "energy_state": "low",
      "platform_types": [
        "static",
        "beat",
        "alternateBeat",
        "elevator"
      ],
      "vertical_range": [
        0,
        1
      ],
      "rhythm_density": 0,
      "patrol_enemies": 0,
      "flying_spawn_interval_ms": 0,
      "falling_rock_spawn_interval_ms": 0
    },
    {
      "index": 469,
      "duration_beats": 2,
      "bpm": 78,
      "energy_state": "low",
      "platform_types": [
        "static",
        "beat",
        "alternateBeat",
        "elevator"
      ],
      "vertical_range": [
        0,
        1
      ],
      "rhythm_density": 0,
      "patrol_enemies": 0,
      "flying_spawn_interval_ms": 3400,
      "falling_rock_spawn_interval_ms": 0
    },
    {
      "index": 470,
      "duration_beats": 2,
      "bpm": 78,
      "energy_state": "low",
      "platform_types": [
        "static",
        "beat",
        "alternateBeat",
        "elevator"
      ],
      "vertical_range": [
        0,
        1
      ],
      "rhythm_density": 0,
      "patrol_enemies": 0,
      "flying_spawn_interval_ms": 0,
      "falling_rock_spawn_interval_ms": 0
    },
    {
      "index": 471,
      "duration_beats": 2,
      "bpm": 78,
      "energy_state": "low",
      "platform_types": [
        "static",
        "beat",
        "alternateBeat",
        "elevator"
      ],
      "vertical_range": [
        0,
        1
      ],
      "rhythm_density": 0,
      "patrol_enemies": 0,
      "flying_spawn_interval_ms": 0,
      "falling_rock_spawn_interval_ms": 0
    },
    {
      "index": 472,
      "duration_beats": 2,
      "bpm": 78,
      "energy_state": "low",
      "platform_types": [
        "static",
        "beat",
        "alternateBeat",
        "elevator"
      ],
      "vertical_range": [
        0,
        1
      ],
      "rhythm_density": 0,
      "patrol_enemies": 0,
      "flying_spawn_interval_ms": 0,
      "falling_rock_spawn_interval_ms": 0
    },
    {
      "index": 473,
      "duration_beats": 2,
      "bpm": 78,
      "energy_state": "low",
      "platform_types": [
        "static",
        "beat",
        "alternateBeat",
        "elevator"
      ],
      "vertical_range": [
        0,
        1
      ],
      "rhythm_density": 0,
      "patrol_enemies": 0,
      "flying_spawn_interval_ms": 0,
      "falling_rock_spawn_interval_ms": 0
    },
    {
      "index": 474,
      "duration_beats": 2,
      "bpm": 78,
      "energy_state": "low",
      "platform_types": [
        "static",
        "beat",
        "alternateBeat",
        "elevator"
      ],
      "vertical_range": [
        0,
        1
      ],
      "rhythm_density": 0,
      "patrol_enemies": 0,
      "flying_spawn_interval_ms": 3400,
      "falling_rock_spawn_interval_ms": 0
    },
    {
      "index": 475,
      "duration_beats": 2,
      "bpm": 78,
      "energy_state": "low",
      "platform_types": [
        "static",
        "beat",
        "alternateBeat",
        "elevator"
      ],
      "vertical_range": [
        0,
        1
      ],
      "rhythm_density": 0,
      "patrol_enemies": 0,
      "flying_spawn_interval_ms": 0,
      "falling_rock_spawn_interval_ms": 0
    },
    {
      "index": 476,
      "duration_beats": 2,
      "bpm": 78,
      "energy_state": "low",
      "platform_types": [
        "static",
        "beat",
        "alternateBeat",
        "elevator"
      ],
      "vertical_range": [
        0,
        1
      ],
      "rhythm_density": 0,
      "patrol_enemies": 0,
      "flying_spawn_interval_ms": 0,
      "falling_rock_spawn_interval_ms": 0
    },
    {
      "index": 477,
      "duration_beats": 2,
      "bpm": 78,
      "energy_state": "low",
      "platform_types": [
        "static",
        "beat",
        "alternateBeat",
        "elevator"
      ],
      "vertical_range": [
        0,
        1
      ],
      "rhythm_density": 0,
      "patrol_enemies": 0,
      "flying_spawn_interval_ms": 0,
      "falling_rock_spawn_interval_ms": 0
    },
    {
      "index": 478,
      "duration_beats": 2,
      "bpm": 78,
      "energy_state": "low",
      "platform_types": [
        "static",
        "beat",
        "alternateBeat",
        "elevator"
      ],
      "vertical_range": [
        0,
        1
      ],
      "rhythm_density": 0,
      "patrol_enemies": 0,
      "flying_spawn_interval_ms": 0,
      "falling_rock_spawn_interval_ms": 0
    },
    {
      "index": 479,
      "duration_beats": 2,
      "bpm": 78,
      "energy_state": "low",
      "platform_types": [
        "static",
        "beat",
        "alternateBeat",
        "elevator"
      ],
      "vertical_range": [
        0,
        1
      ],
      "rhythm_density": 0,
      "patrol_enemies": 0,
      "flying_spawn_interval_ms": 3400,
      "falling_rock_spawn_interval_ms": 0
    },
    {
      "index": 480,
      "duration_beats": 2,
      "bpm": 78,
      "energy_state": "low",
      "platform_types": [
        "static",
        "beat",
        "alternateBeat",
        "elevator"
      ],
      "vertical_range": [
        0,
        1
      ],
      "rhythm_density": 0,
      "patrol_enemies": 0,
      "flying_spawn_interval_ms": 0,
      "falling_rock_spawn_interval_ms": 0
    },
    {
      "index": 481,
      "duration_beats": 2,
      "bpm": 78,
      "energy_state": "low",
      "platform_types": [
        "static",
        "beat",
        "alternateBeat",
        "elevator"
      ],
      "vertical_range": [
        0,
        1
      ],
      "rhythm_density": 0,
      "patrol_enemies": 0,
      "flying_spawn_interval_ms": 0,
      "falling_rock_spawn_interval_ms": 0
    },
    {
      "index": 482,
      "duration_beats": 2,
      "bpm": 78,
      "energy_state": "low",
      "platform_types": [
        "static",
        "beat",
        "alternateBeat",
        "elevator"
      ],
      "vertical_range": [
        0,
        1
      ],
      "rhythm_density": 0,
      "patrol_enemies": 0,
      "flying_spawn_interval_ms": 0,
      "falling_rock_spawn_interval_ms": 0
    },
    {
      "index": 483,
      "duration_beats": 2,
      "bpm": 78,
      "energy_state": "low",
      "platform_types": [
        "static",
        "beat",
        "alternateBeat",
        "elevator"
      ],
      "vertical_range": [
        0,
        1
      ],
      "rhythm_density": 0,
      "patrol_enemies": 0,
      "flying_spawn_interval_ms": 0,
      "falling_rock_spawn_interval_ms": 0
    },
    {
      "index": 484,
      "duration_beats": 2,
      "bpm": 78,
      "energy_state": "low",
      "platform_types": [
        "static",
        "beat",
        "alternateBeat",
        "elevator"
      ],
      "vertical_range": [
        0,
        1
      ],
      "rhythm_density": 0,
      "patrol_enemies": 0,
      "flying_spawn_interval_ms": 3400,
      "falling_rock_spawn_interval_ms": 0
    },
    {
      "index": 485,
      "duration_beats": 2,
      "bpm": 78,
      "energy_state": "low",
      "platform_types": [
        "static",
        "beat",
        "alternateBeat",
        "elevator"
      ],
      "vertical_range": [
        0,
        1
      ],
      "rhythm_density": 0,
      "patrol_enemies": 0,
      "flying_spawn_interval_ms": 0,
      "falling_rock_spawn_interval_ms": 0
    },
    {
      "index": 486,
      "duration_beats": 2,
      "bpm": 78,
      "energy_state": "low",
      "platform_types": [
        "static",
        "beat",
        "alternateBeat",
        "elevator"
      ],
      "vertical_range": [
        0,
        1
      ],
      "rhythm_density": 0,
      "patrol_enemies": 0,
      "flying_spawn_interval_ms": 0,
      "falling_rock_spawn_interval_ms": 0
    },
    {
      "index": 487,
      "duration_beats": 2,
      "bpm": 78,
      "energy_state": "low",
      "platform_types": [
        "static",
        "beat",
        "alternateBeat",
        "elevator"
      ],
      "vertical_range": [
        0,
        1
      ],
      "rhythm_density": 0,
      "patrol_enemies": 0,
      "flying_spawn_interval_ms": 0,
      "falling_rock_spawn_interval_ms": 0
    },
    {
      "index": 488,
      "duration_beats": 2,
      "bpm": 78,
      "energy_state": "low",
      "platform_types": [
        "static",
        "beat",
        "alternateBeat",
        "elevator"
      ],
      "vertical_range": [
        0,
        1
      ],
      "rhythm_density": 0,
      "patrol_enemies": 0,
      "flying_spawn_interval_ms": 0,
      "falling_rock_spawn_interval_ms": 0
    },
    {
      "index": 489,
      "duration_beats": 2,
      "bpm": 78,
      "energy_state": "low",
      "platform_types": [
        "static",
        "beat",
        "alternateBeat",
        "elevator"
      ],
      "vertical_range": [
        0,
        1
      ],
      "rhythm_density": 0,
      "patrol_enemies": 0,
      "flying_spawn_interval_ms": 3400,
      "falling_rock_spawn_interval_ms": 0
    },
    {
      "index": 490,
      "duration_beats": 2,
      "bpm": 78,
      "energy_state": "low",
      "platform_types": [
        "static",
        "beat",
        "alternateBeat",
        "elevator"
      ],
      "vertical_range": [
        0,
        1
      ],
      "rhythm_density": 0,
      "patrol_enemies": 0,
      "flying_spawn_interval_ms": 0,
      "falling_rock_spawn_interval_ms": 0
    },
    {
      "index": 491,
      "duration_beats": 2,
      "bpm": 78,
      "energy_state": "low",
      "platform_types": [
        "static",
        "beat",
        "alternateBeat",
        "elevator"
      ],
      "vertical_range": [
        0,
        1
      ],
      "rhythm_density": 0,
      "patrol_enemies": 0,
      "flying_spawn_interval_ms": 0,
      "falling_rock_spawn_interval_ms": 0
    },
    {
      "index": 492,
      "duration_beats": 2,
      "bpm": 78,
      "energy_state": "low",
      "platform_types": [
        "static",
        "beat",
        "alternateBeat",
        "elevator"
      ],
      "vertical_range": [
        0,
        1
      ],
      "rhythm_density": 0,
      "patrol_enemies": 0,
      "flying_spawn_interval_ms": 0,
      "falling_rock_spawn_interval_ms": 0
    },
    {
      "index": 493,
      "duration_beats": 2,
      "bpm": 78,
      "energy_state": "low",
      "platform_types": [
        "static",
        "beat",
        "alternateBeat",
        "elevator"
      ],
      "vertical_range": [
        0,
        1
      ],
      "rhythm_density": 0,
      "patrol_enemies": 0,
      "flying_spawn_interval_ms": 0,
      "falling_rock_spawn_interval_ms": 0
    },
    {
      "index": 494,
      "duration_beats": 2,
      "bpm": 78,
      "energy_state": "low",
      "platform_types": [
        "static",
        "beat",
        "alternateBeat",
        "elevator"
      ],
      "vertical_range": [
        0,
        1
      ],
      "rhythm_density": 0,
      "patrol_enemies": 0,
      "flying_spawn_interval_ms": 3400,
      "falling_rock_spawn_interval_ms": 0
    },
    {
      "index": 495,
      "duration_beats": 2,
      "bpm": 78,
      "energy_state": "low",
      "platform_types": [
        "static",
        "beat",
        "alternateBeat",
        "elevator"
      ],
      "vertical_range": [
        0,
        1
      ],
      "rhythm_density": 0,
      "patrol_enemies": 0,
      "flying_spawn_interval_ms": 0,
      "falling_rock_spawn_interval_ms": 0
    },
    {
      "index": 496,
      "duration_beats": 2,
      "bpm": 78,
      "energy_state": "low",
      "platform_types": [
        "static",
        "beat",
        "alternateBeat",
        "elevator"
      ],
      "vertical_range": [
        0,
        1
      ],
      "rhythm_density": 0,
      "patrol_enemies": 0,
      "flying_spawn_interval_ms": 0,
      "falling_rock_spawn_interval_ms": 0
    },
    {
      "index": 497,
      "duration_beats": 2,
      "bpm": 78,
      "energy_state": "low",
      "platform_types": [
        "static",
        "beat",
        "alternateBeat",
        "elevator"
      ],
      "vertical_range": [
        0,
        1
      ],
      "rhythm_density": 0,
      "patrol_enemies": 0,
      "flying_spawn_interval_ms": 0,
      "falling_rock_spawn_interval_ms": 0
    },
    {
      "index": 498,
      "duration_beats": 2,
      "bpm": 78,
      "energy_state": "low",
      "platform_types": [
        "static",
        "beat",
        "alternateBeat",
        "elevator"
      ],
      "vertical_range": [
        0,
        1
      ],
      "rhythm_density": 0,
      "patrol_enemies": 0,
      "flying_spawn_interval_ms": 0,
      "falling_rock_spawn_interval_ms": 0
    },
    {
      "index": 499,
      "duration_beats": 2,
      "bpm": 78,
      "energy_state": "low",
      "platform_types": [
        "static",
        "beat",
        "alternateBeat",
        "elevator"
      ],
      "vertical_range": [
        0,
        1
      ],
      "rhythm_density": 0,
      "patrol_enemies": 0,
      "flying_spawn_interval_ms": 3400,
      "falling_rock_spawn_interval_ms": 0
    },
    {
      "index": 500,
      "duration_beats": 2,
      "bpm": 78,
      "energy_state": "low",
      "platform_types": [
        "static",
        "beat",
        "alternateBeat",
        "elevator"
      ],
      "vertical_range": [
        0,
        1
      ],
      "rhythm_density": 0,
      "patrol_enemies": 0,
      "flying_spawn_interval_ms": 0,
      "falling_rock_spawn_interval_ms": 0
    },
    {
      "index": 501,
      "duration_beats": 2,
      "bpm": 78,
      "energy_state": "low",
      "platform_types": [
        "static",
        "beat",
        "alternateBeat",
        "elevator"
      ],
      "vertical_range": [
        0,
        1
      ],
      "rhythm_density": 0,
      "patrol_enemies": 0,
      "flying_spawn_interval_ms": 0,
      "falling_rock_spawn_interval_ms": 0
    },
    {
      "index": 502,
      "duration_beats": 2,
      "bpm": 78,
      "energy_state": "low",
      "platform_types": [
        "static",
        "beat",
        "alternateBeat",
        "elevator"
      ],
      "vertical_range": [
        0,
        1
      ],
      "rhythm_density": 0,
      "patrol_enemies": 0,
      "flying_spawn_interval_ms": 0,
      "falling_rock_spawn_interval_ms": 0
    },
    {
      "index": 503,
      "duration_beats": 2,
      "bpm": 78,
      "energy_state": "low",
      "platform_types": [
        "static",
        "beat",
        "alternateBeat",
        "elevator"
      ],
      "vertical_range": [
        0,
        1
      ],
      "rhythm_density": 0,
      "patrol_enemies": 0,
      "flying_spawn_interval_ms": 0,
      "falling_rock_spawn_interval_ms": 0
    },
    {
      "index": 504,
      "duration_beats": 2,
      "bpm": 78,
      "energy_state": "low",
      "platform_types": [
        "static",
        "beat",
        "alternateBeat",
        "elevator"
      ],
      "vertical_range": [
        0,
        1
      ],
      "rhythm_density": 0,
      "patrol_enemies": 0,
      "flying_spawn_interval_ms": 3400,
      "falling_rock_spawn_interval_ms": 0
    },
    {
      "index": 505,
      "duration_beats": 2,
      "bpm": 78,
      "energy_state": "low",
      "platform_types": [
        "static",
        "beat",
        "alternateBeat",
        "elevator"
      ],
      "vertical_range": [
        0,
        1
      ],
      "rhythm_density": 0,
      "patrol_enemies": 0,
      "flying_spawn_interval_ms": 0,
      "falling_rock_spawn_interval_ms": 0
    },
    {
      "index": 506,
      "duration_beats": 2,
      "bpm": 78,
      "energy_state": "low",
      "platform_types": [
        "static",
        "beat",
        "alternateBeat",
        "elevator"
      ],
      "vertical_range": [
        0,
        1
      ],
      "rhythm_density": 0,
      "patrol_enemies": 0,
      "flying_spawn_interval_ms": 0,
      "falling_rock_spawn_interval_ms": 0
    },
    {
      "index": 507,
      "duration_beats": 2,
      "bpm": 78,
      "energy_state": "low",
      "platform_types": [
        "static",
        "beat",
        "alternateBeat",
        "elevator"
      ],
      "vertical_range": [
        0,
        1
      ],
      "rhythm_density": 0,
      "patrol_enemies": 0,
      "flying_spawn_interval_ms": 0,
      "falling_rock_spawn_interval_ms": 0
    },
    {
      "index": 508,
      "duration_beats": 2,
      "bpm": 78,
      "energy_state": "low",
      "platform_types": [
        "static",
        "beat",
        "alternateBeat",
        "elevator"
      ],
      "vertical_range": [
        0,
        1
      ],
      "rhythm_density": 0,
      "patrol_enemies": 0,
      "flying_spawn_interval_ms": 0,
      "falling_rock_spawn_interval_ms": 0
    },
    {
      "index": 509,
      "duration_beats": 2,
      "bpm": 78,
      "energy_state": "low",
      "platform_types": [
        "static",
        "beat",
        "alternateBeat",
        "elevator"
      ],
      "vertical_range": [
        0,
        1
      ],
      "rhythm_density": 0,
      "patrol_enemies": 0,
      "flying_spawn_interval_ms": 3400,
      "falling_rock_spawn_interval_ms": 0
    },
    {
      "index": 510,
      "duration_beats": 2,
      "bpm": 78,
      "energy_state": "low",
      "platform_types": [
        "static",
        "beat",
        "alternateBeat",
        "elevator"
      ],
      "vertical_range": [
        0,
        1
      ],
      "rhythm_density": 0,
      "patrol_enemies": 0,
      "flying_spawn_interval_ms": 0,
      "falling_rock_spawn_interval_ms": 0
    },
    {
      "index": 511,
      "duration_beats": 2,
      "bpm": 78,
      "energy_state": "low",
      "platform_types": [
        "static",
        "beat",
        "alternateBeat",
        "elevator"
      ],
      "vertical_range": [
        0,
        1
      ],
      "rhythm_density": 0,
      "patrol_enemies": 0,
      "flying_spawn_interval_ms": 0,
      "falling_rock_spawn_interval_ms": 0
    },
    {
      "index": 512,
      "duration_beats": 2,
      "bpm": 78,
      "energy_state": "low",
      "platform_types": [
        "static",
        "beat",
        "alternateBeat",
        "elevator"
      ],
      "vertical_range": [
        0,
        1
      ],
      "rhythm_density": 0,
      "patrol_enemies": 0,
      "flying_spawn_interval_ms": 0,
      "falling_rock_spawn_interval_ms": 0
    },
    {
      "index": 513,
      "duration_beats": 2,
      "bpm": 78,
      "energy_state": "low",
      "platform_types": [
        "static",
        "beat",
        "alternateBeat",
        "elevator"
      ],
      "vertical_range": [
        0,
        1
      ],
      "rhythm_density": 0,
      "patrol_enemies": 0,
      "flying_spawn_interval_ms": 0,
      "falling_rock_spawn_interval_ms": 0
    },
    {
      "index": 514,
      "duration_beats": 2,
      "bpm": 78,
      "energy_state": "low",
      "platform_types": [
        "static",
        "beat",
        "alternateBeat",
        "elevator"
      ],
      "vertical_range": [
        0,
        1
      ],
      "rhythm_density": 0,
      "patrol_enemies": 0,
      "flying_spawn_interval_ms": 3400,
      "falling_rock_spawn_interval_ms": 0
    },
    {
      "index": 515,
      "duration_beats": 2,
      "bpm": 78,
      "energy_state": "low",
      "platform_types": [
        "static",
        "beat",
        "alternateBeat",
        "elevator"
      ],
      "vertical_range": [
        0,
        1
      ],
      "rhythm_density": 0,
      "patrol_enemies": 0,
      "flying_spawn_interval_ms": 0,
      "falling_rock_spawn_interval_ms": 0
    },
    {
      "index": 516,
      "duration_beats": 2,
      "bpm": 78,
      "energy_state": "low",
      "platform_types": [
        "static",
        "beat",
        "alternateBeat",
        "elevator"
      ],
      "vertical_range": [
        0,
        1
      ],
      "rhythm_density": 0,
      "patrol_enemies": 0,
      "flying_spawn_interval_ms": 0,
      "falling_rock_spawn_interval_ms": 0
    },
    {
      "index": 517,
      "duration_beats": 2,
      "bpm": 78,
      "energy_state": "low",
      "platform_types": [
        "static",
        "beat",
        "alternateBeat",
        "elevator"
      ],
      "vertical_range": [
        0,
        1
      ],
      "rhythm_density": 0,
      "patrol_enemies": 0,
      "flying_spawn_interval_ms": 0,
      "falling_rock_spawn_interval_ms": 0
    },
    {
      "index": 518,
      "duration_beats": 2,
      "bpm": 78,
      "energy_state": "low",
      "platform_types": [
        "static",
        "beat",
        "alternateBeat",
        "elevator"
      ],
      "vertical_range": [
        0,
        1
      ],
      "rhythm_density": 0,
      "patrol_enemies": 0,
      "flying_spawn_interval_ms": 0,
      "falling_rock_spawn_interval_ms": 0
    },
    {
      "index": 519,
      "duration_beats": 2,
      "bpm": 78,
      "energy_state": "low",
      "platform_types": [
        "static",
        "beat",
        "alternateBeat",
        "elevator"
      ],
      "vertical_range": [
        0,
        1
      ],
      "rhythm_density": 0,
      "patrol_enemies": 0,
      "flying_spawn_interval_ms": 3400,
      "falling_rock_spawn_interval_ms": 0
    },
    {
      "index": 520,
      "duration_beats": 2,
      "bpm": 78,
      "energy_state": "low",
      "platform_types": [
        "static",
        "beat",
        "alternateBeat",
        "elevator"
      ],
      "vertical_range": [
        0,
        1
      ],
      "rhythm_density": 0,
      "patrol_enemies": 0,
      "flying_spawn_interval_ms": 0,
      "falling_rock_spawn_interval_ms": 0
    },
    {
      "index": 521,
      "duration_beats": 2,
      "bpm": 78,
      "energy_state": "low",
      "platform_types": [
        "static",
        "beat",
        "alternateBeat",
        "elevator"
      ],
      "vertical_range": [
        0,
        1
      ],
      "rhythm_density": 0,
      "patrol_enemies": 0,
      "flying_spawn_interval_ms": 0,
      "falling_rock_spawn_interval_ms": 0
    },
    {
      "index": 522,
      "duration_beats": 2,
      "bpm": 78,
      "energy_state": "low",
      "platform_types": [
        "static",
        "beat",
        "alternateBeat",
        "elevator"
      ],
      "vertical_range": [
        0,
        1
      ],
      "rhythm_density": 0,
      "patrol_enemies": 0,
      "flying_spawn_interval_ms": 0,
      "falling_rock_spawn_interval_ms": 0
    },
    {
      "index": 523,
      "duration_beats": 2,
      "bpm": 78,
      "energy_state": "low",
      "platform_types": [
        "static",
        "beat",
        "alternateBeat",
        "elevator"
      ],
      "vertical_range": [
        0,
        1
      ],
      "rhythm_density": 0,
      "patrol_enemies": 0,
      "flying_spawn_interval_ms": 0,
      "falling_rock_spawn_interval_ms": 0
    },
    {
      "index": 524,
      "duration_beats": 2,
      "bpm": 78,
      "energy_state": "low",
      "platform_types": [
        "static",
        "beat",
        "alternateBeat",
        "elevator"
      ],
      "vertical_range": [
        0,
        1
      ],
      "rhythm_density": 0,
      "patrol_enemies": 0,
      "flying_spawn_interval_ms": 3400,
      "falling_rock_spawn_interval_ms": 0
    },
    {
      "index": 525,
      "duration_beats": 2,
      "bpm": 78,
      "energy_state": "low",
      "platform_types": [
        "static",
        "beat",
        "alternateBeat",
        "elevator"
      ],
      "vertical_range": [
        0,
        1
      ],
      "rhythm_density": 0,
      "patrol_enemies": 0,
      "flying_spawn_interval_ms": 0,
      "falling_rock_spawn_interval_ms": 0
    },
    {
      "index": 526,
      "duration_beats": 2,
      "bpm": 78,
      "energy_state": "low",
      "platform_types": [
        "static",
        "beat",
        "alternateBeat",
        "elevator"
      ],
      "vertical_range": [
        0,
        1
      ],
      "rhythm_density": 0,
      "patrol_enemies": 0,
      "flying_spawn_interval_ms": 0,
      "falling_rock_spawn_interval_ms": 0
    },
    {
      "index": 527,
      "duration_beats": 2,
      "bpm": 78,
      "energy_state": "low",
      "platform_types": [
        "static",
        "beat",
        "alternateBeat",
        "elevator"
      ],
      "vertical_range": [
        0,
        1
      ],
      "rhythm_density": 0,
      "patrol_enemies": 0,
      "flying_spawn_interval_ms": 0,
      "falling_rock_spawn_interval_ms": 0
    },
    {
      "index": 528,
      "duration_beats": 2,
      "bpm": 78,
      "energy_state": "low",
      "platform_types": [
        "static",
        "beat",
        "alternateBeat",
        "elevator"
      ],
      "vertical_range": [
        0,
        1
      ],
      "rhythm_density": 0,
      "patrol_enemies": 0,
      "flying_spawn_interval_ms": 0,
      "falling_rock_spawn_interval_ms": 0
    },
    {
      "index": 529,
      "duration_beats": 2,
      "bpm": 78,
      "energy_state": "low",
      "platform_types": [
        "static",
        "beat",
        "alternateBeat",
        "elevator"
      ],
      "vertical_range": [
        0,
        1
      ],
      "rhythm_density": 0,
      "patrol_enemies": 0,
      "flying_spawn_interval_ms": 3400,
      "falling_rock_spawn_interval_ms": 0
    },
    {
      "index": 530,
      "duration_beats": 2,
      "bpm": 78,
      "energy_state": "low",
      "platform_types": [
        "static",
        "beat",
        "alternateBeat",
        "elevator"
      ],
      "vertical_range": [
        0,
        1
      ],
      "rhythm_density": 0,
      "patrol_enemies": 0,
      "flying_spawn_interval_ms": 0,
      "falling_rock_spawn_interval_ms": 0
    },
    {
      "index": 531,
      "duration_beats": 2,
      "bpm": 78,
      "energy_state": "low",
      "platform_types": [
        "static",
        "beat",
        "alternateBeat",
        "elevator"
      ],
      "vertical_range": [
        0,
        1
      ],
      "rhythm_density": 0,
      "patrol_enemies": 0,
      "flying_spawn_interval_ms": 0,
      "falling_rock_spawn_interval_ms": 0
    },
    {
      "index": 532,
      "duration_beats": 2,
      "bpm": 78,
      "energy_state": "low",
      "platform_types": [
        "static",
        "beat",
        "alternateBeat",
        "elevator"
      ],
      "vertical_range": [
        0,
        1
      ],
      "rhythm_density": 0,
      "patrol_enemies": 0,
      "flying_spawn_interval_ms": 0,
      "falling_rock_spawn_interval_ms": 0
    },
    {
      "index": 533,
      "duration_beats": 2,
      "bpm": 78,
      "energy_state": "low",
      "platform_types": [
        "static",
        "beat",
        "alternateBeat",
        "elevator"
      ],
      "vertical_range": [
        0,
        1
      ],
      "rhythm_density": 0,
      "patrol_enemies": 0,
      "flying_spawn_interval_ms": 0,
      "falling_rock_spawn_interval_ms": 0
    },
    {
      "index": 534,
      "duration_beats": 2,
      "bpm": 78,
      "energy_state": "low",
      "platform_types": [
        "static",
        "beat",
        "alternateBeat",
        "elevator"
      ],
      "vertical_range": [
        0,
        1
      ],
      "rhythm_density": 0,
      "patrol_enemies": 0,
      "flying_spawn_interval_ms": 3400,
      "falling_rock_spawn_interval_ms": 0
    },
    {
      "index": 535,
      "duration_beats": 2,
      "bpm": 78,
      "energy_state": "low",
      "platform_types": [
        "static",
        "beat",
        "alternateBeat",
        "elevator"
      ],
      "vertical_range": [
        0,
        1
      ],
      "rhythm_density": 0,
      "patrol_enemies": 0,
      "flying_spawn_interval_ms": 0,
      "falling_rock_spawn_interval_ms": 0
    },
    {
      "index": 536,
      "duration_beats": 2,
      "bpm": 78,
      "energy_state": "low",
      "platform_types": [
        "static",
        "beat",
        "alternateBeat",
        "elevator"
      ],
      "vertical_range": [
        0,
        1
      ],
      "rhythm_density": 0,
      "patrol_enemies": 0,
      "flying_spawn_interval_ms": 0,
      "falling_rock_spawn_interval_ms": 0
    },
    {
      "index": 537,
      "duration_beats": 2,
      "bpm": 78,
      "energy_state": "low",
      "platform_types": [
        "static",
        "beat",
        "alternateBeat",
        "elevator"
      ],
      "vertical_range": [
        0,
        1
      ],
      "rhythm_density": 0,
      "patrol_enemies": 0,
      "flying_spawn_interval_ms": 0,
      "falling_rock_spawn_interval_ms": 0
    },
    {
      "index": 538,
      "duration_beats": 2,
      "bpm": 78,
      "energy_state": "low",
      "platform_types": [
        "static",
        "beat",
        "alternateBeat",
        "elevator"
      ],
      "vertical_range": [
        0,
        1
      ],
      "rhythm_density": 0,
      "patrol_enemies": 0,
      "flying_spawn_interval_ms": 0,
      "falling_rock_spawn_interval_ms": 0
    },
    {
      "index": 539,
      "duration_beats": 2,
      "bpm": 78,
      "energy_state": "low",
      "platform_types": [
        "static",
        "beat",
        "alternateBeat",
        "elevator"
      ],
      "vertical_range": [
        0,
        1
      ],
      "rhythm_density": 0,
      "patrol_enemies": 0,
      "flying_spawn_interval_ms": 3400,
      "falling_rock_spawn_interval_ms": 0
    },
    {
      "index": 540,
      "duration_beats": 2,
      "bpm": 78,
      "energy_state": "low",
      "platform_types": [
        "static",
        "beat",
        "alternateBeat",
        "elevator"
      ],
      "vertical_range": [
        0,
        1
      ],
      "rhythm_density": 0,
      "patrol_enemies": 0,
      "flying_spawn_interval_ms": 0,
      "falling_rock_spawn_interval_ms": 0
    },
    {
      "index": 541,
      "duration_beats": 2,
      "bpm": 78,
      "energy_state": "low",
      "platform_types": [
        "static",
        "beat",
        "alternateBeat",
        "elevator"
      ],
      "vertical_range": [
        0,
        1
      ],
      "rhythm_density": 0,
      "patrol_enemies": 0,
      "flying_spawn_interval_ms": 0,
      "falling_rock_spawn_interval_ms": 0
    },
    {
      "index": 542,
      "duration_beats": 2,
      "bpm": 78,
      "energy_state": "low",
      "platform_types": [
        "static",
        "beat",
        "alternateBeat",
        "elevator"
      ],
      "vertical_range": [
        0,
        1
      ],
      "rhythm_density": 0,
      "patrol_enemies": 0,
      "flying_spawn_interval_ms": 0,
      "falling_rock_spawn_interval_ms": 0
    },
    {
      "index": 543,
      "duration_beats": 2,
      "bpm": 78,
      "energy_state": "low",
      "platform_types": [
        "static",
        "beat",
        "alternateBeat",
        "elevator"
      ],
      "vertical_range": [
        0,
        1
      ],
      "rhythm_density": 0,
      "patrol_enemies": 0,
      "flying_spawn_interval_ms": 0,
      "falling_rock_spawn_interval_ms": 0
    },
    {
      "index": 544,
      "duration_beats": 2,
      "bpm": 78,
      "energy_state": "low",
      "platform_types": [
        "static",
        "beat",
        "alternateBeat",
        "elevator"
      ],
      "vertical_range": [
        0,
        1
      ],
      "rhythm_density": 0,
      "patrol_enemies": 0,
      "flying_spawn_interval_ms": 3400,
      "falling_rock_spawn_interval_ms": 0
    },
    {
      "index": 545,
      "duration_beats": 2,
      "bpm": 78,
      "energy_state": "low",
      "platform_types": [
        "static",
        "beat",
        "alternateBeat",
        "elevator"
      ],
      "vertical_range": [
        0,
        1
      ],
      "rhythm_density": 0,
      "patrol_enemies": 0,
      "flying_spawn_interval_ms": 0,
      "falling_rock_spawn_interval_ms": 0
    },
    {
      "index": 546,
      "duration_beats": 2,
      "bpm": 78,
      "energy_state": "low",
      "platform_types": [
        "static",
        "beat",
        "alternateBeat",
        "elevator"
      ],
      "vertical_range": [
        0,
        1
      ],
      "rhythm_density": 0,
      "patrol_enemies": 0,
      "flying_spawn_interval_ms": 0,
      "falling_rock_spawn_interval_ms": 0
    },
    {
      "index": 547,
      "duration_beats": 2,
      "bpm": 78,
      "energy_state": "low",
      "platform_types": [
        "static",
        "beat",
        "alternateBeat",
        "elevator"
      ],
      "vertical_range": [
        0,
        1
      ],
      "rhythm_density": 0,
      "patrol_enemies": 0,
      "flying_spawn_interval_ms": 0,
      "falling_rock_spawn_interval_ms": 0
    },
    {
      "index": 548,
      "duration_beats": 2,
      "bpm": 78,
      "energy_state": "low",
      "platform_types": [
        "static",
        "beat",
        "alternateBeat",
        "elevator"
      ],
      "vertical_range": [
        0,
        1
      ],
      "rhythm_density": 0,
      "patrol_enemies": 0,
      "flying_spawn_interval_ms": 0,
      "falling_rock_spawn_interval_ms": 0
    },
    {
      "index": 549,
      "duration_beats": 2,
      "bpm": 78,
      "energy_state": "low",
      "platform_types": [
        "static",
        "beat",
        "alternateBeat",
        "elevator"
      ],
      "vertical_range": [
        0,
        1
      ],
      "rhythm_density": 0,
      "patrol_enemies": 0,
      "flying_spawn_interval_ms": 3400,
      "falling_rock_spawn_interval_ms": 0
    },
    {
      "index": 550,
      "duration_beats": 2,
      "bpm": 78,
      "energy_state": "low",
      "platform_types": [
        "static",
        "beat",
        "alternateBeat",
        "elevator"
      ],
      "vertical_range": [
        0,
        1
      ],
      "rhythm_density": 0,
      "patrol_enemies": 0,
      "flying_spawn_interval_ms": 0,
      "falling_rock_spawn_interval_ms": 0
    },
    {
      "index": 551,
      "duration_beats": 2,
      "bpm": 78,
      "energy_state": "low",
      "platform_types": [
        "static",
        "beat",
        "alternateBeat",
        "elevator"
      ],
      "vertical_range": [
        0,
        1
      ],
      "rhythm_density": 0,
      "patrol_enemies": 0,
      "flying_spawn_interval_ms": 0,
      "falling_rock_spawn_interval_ms": 0
    },
    {
      "index": 552,
      "duration_beats": 2,
      "bpm": 78,
      "energy_state": "low",
      "platform_types": [
        "static",
        "beat",
        "alternateBeat",
        "elevator"
      ],
      "vertical_range": [
        0,
        1
      ],
      "rhythm_density": 0,
      "patrol_enemies": 0,
      "flying_spawn_interval_ms": 0,
      "falling_rock_spawn_interval_ms": 0
    },
    {
      "index": 553,
      "duration_beats": 2,
      "bpm": 78,
      "energy_state": "low",
      "platform_types": [
        "static",
        "beat",
        "alternateBeat",
        "elevator"
      ],
      "vertical_range": [
        0,
        1
      ],
      "rhythm_density": 0,
      "patrol_enemies": 0,
      "flying_spawn_interval_ms": 0,
      "falling_rock_spawn_interval_ms": 0
    },
    {
      "index": 554,
      "duration_beats": 2,
      "bpm": 78,
      "energy_state": "low",
      "platform_types": [
        "static",
        "beat",
        "alternateBeat",
        "elevator"
      ],
      "vertical_range": [
        0,
        1
      ],
      "rhythm_density": 0,
      "patrol_enemies": 0,
      "flying_spawn_interval_ms": 3400,
      "falling_rock_spawn_interval_ms": 0
    },
    {
      "index": 555,
      "duration_beats": 2,
      "bpm": 78,
      "energy_state": "low",
      "platform_types": [
        "static",
        "beat",
        "alternateBeat",
        "elevator"
      ],
      "vertical_range": [
        0,
        1
      ],
      "rhythm_density": 0,
      "patrol_enemies": 0,
      "flying_spawn_interval_ms": 0,
      "falling_rock_spawn_interval_ms": 0
    },
    {
      "index": 556,
      "duration_beats": 2,
      "bpm": 78,
      "energy_state": "low",
      "platform_types": [
        "static",
        "beat",
        "alternateBeat",
        "elevator"
      ],
      "vertical_range": [
        0,
        1
      ],
      "rhythm_density": 0,
      "patrol_enemies": 0,
      "flying_spawn_interval_ms": 0,
      "falling_rock_spawn_interval_ms": 0
    },
    {
      "index": 557,
      "duration_beats": 2,
      "bpm": 78,
      "energy_state": "low",
      "platform_types": [
        "static",
        "beat",
        "alternateBeat",
        "elevator"
      ],
      "vertical_range": [
        0,
        1
      ],
      "rhythm_density": 0,
      "patrol_enemies": 0,
      "flying_spawn_interval_ms": 0,
      "falling_rock_spawn_interval_ms": 0
    },
    {
      "index": 558,
      "duration_beats": 2,
      "bpm": 78,
      "energy_state": "low",
      "platform_types": [
        "static",
        "beat",
        "alternateBeat",
        "elevator"
      ],
      "vertical_range": [
        0,
        1
      ],
      "rhythm_density": 0,
      "patrol_enemies": 0,
      "flying_spawn_interval_ms": 0,
      "falling_rock_spawn_interval_ms": 0
    },
    {
      "index": 559,
      "duration_beats": 2,
      "bpm": 78,
      "energy_state": "low",
      "platform_types": [
        "static",
        "beat",
        "alternateBeat",
        "elevator"
      ],
      "vertical_range": [
        0,
        1
      ],
      "rhythm_density": 0,
      "patrol_enemies": 0,
      "flying_spawn_interval_ms": 3400,
      "falling_rock_spawn_interval_ms": 0
    },
    {
      "index": 560,
      "duration_beats": 2,
      "bpm": 78,
      "energy_state": "low",
      "platform_types": [
        "static",
        "beat",
        "alternateBeat",
        "elevator"
      ],
      "vertical_range": [
        0,
        1
      ],
      "rhythm_density": 0,
      "patrol_enemies": 0,
      "flying_spawn_interval_ms": 0,
      "falling_rock_spawn_interval_ms": 0
    },
    {
      "index": 561,
      "duration_beats": 2,
      "bpm": 78,
      "energy_state": "low",
      "platform_types": [
        "static",
        "beat",
        "alternateBeat",
        "elevator"
      ],
      "vertical_range": [
        0,
        1
      ],
      "rhythm_density": 0,
      "patrol_enemies": 0,
      "flying_spawn_interval_ms": 0,
      "falling_rock_spawn_interval_ms": 0
    },
    {
      "index": 562,
      "duration_beats": 2,
      "bpm": 78,
      "energy_state": "low",
      "platform_types": [
        "static",
        "beat",
        "alternateBeat",
        "elevator"
      ],
      "vertical_range": [
        0,
        1
      ],
      "rhythm_density": 0,
      "patrol_enemies": 0,
      "flying_spawn_interval_ms": 0,
      "falling_rock_spawn_interval_ms": 0
    },
    {
      "index": 563,
      "duration_beats": 2,
      "bpm": 78,
      "energy_state": "low",
      "platform_types": [
        "static",
        "beat",
        "alternateBeat",
        "elevator"
      ],
      "vertical_range": [
        0,
        1
      ],
      "rhythm_density": 0,
      "patrol_enemies": 0,
      "flying_spawn_interval_ms": 0,
      "falling_rock_spawn_interval_ms": 0
    },
    {
      "index": 564,
      "duration_beats": 2,
      "bpm": 78,
      "energy_state": "low",
      "platform_types": [
        "static",
        "beat",
        "alternateBeat",
        "elevator"
      ],
      "vertical_range": [
        0,
        1
      ],
      "rhythm_density": 0,
      "patrol_enemies": 0,
      "flying_spawn_interval_ms": 3400,
      "falling_rock_spawn_interval_ms": 0
    },
    {
      "index": 565,
      "duration_beats": 2,
      "bpm": 78,
      "energy_state": "low",
      "platform_types": [
        "static",
        "beat",
        "alternateBeat",
        "elevator"
      ],
      "vertical_range": [
        0,
        1
      ],
      "rhythm_density": 0,
      "patrol_enemies": 0,
      "flying_spawn_interval_ms": 0,
      "falling_rock_spawn_interval_ms": 0
    },
    {
      "index": 566,
      "duration_beats": 2,
      "bpm": 78,
      "energy_state": "low",
      "platform_types": [
        "static",
        "beat",
        "alternateBeat",
        "elevator"
      ],
      "vertical_range": [
        0,
        1
      ],
      "rhythm_density": 0,
      "patrol_enemies": 0,
      "flying_spawn_interval_ms": 0,
      "falling_rock_spawn_interval_ms": 0
    },
    {
      "index": 567,
      "duration_beats": 2,
      "bpm": 78,
      "energy_state": "low",
      "platform_types": [
        "static",
        "beat",
        "alternateBeat",
        "elevator"
      ],
      "vertical_range": [
        0,
        1
      ],
      "rhythm_density": 0,
      "patrol_enemies": 0,
      "flying_spawn_interval_ms": 0,
      "falling_rock_spawn_interval_ms": 0
    },
    {
      "index": 568,
      "duration_beats": 2,
      "bpm": 78,
      "energy_state": "low",
      "platform_types": [
        "static",
        "beat",
        "alternateBeat",
        "elevator"
      ],
      "vertical_range": [
        0,
        1
      ],
      "rhythm_density": 0,
      "patrol_enemies": 0,
      "flying_spawn_interval_ms": 0,
      "falling_rock_spawn_interval_ms": 0
    },
    {
      "index": 569,
      "duration_beats": 2,
      "bpm": 78,
      "energy_state": "low",
      "platform_types": [
        "static",
        "beat",
        "alternateBeat",
        "elevator"
      ],
      "vertical_range": [
        0,
        1
      ],
      "rhythm_density": 0,
      "patrol_enemies": 0,
      "flying_spawn_interval_ms": 3400,
      "falling_rock_spawn_interval_ms": 0
    },
    {
      "index": 570,
      "duration_beats": 2,
      "bpm": 78,
      "energy_state": "low",
      "platform_types": [
        "static",
        "beat",
        "alternateBeat",
        "elevator"
      ],
      "vertical_range": [
        0,
        1
      ],
      "rhythm_density": 0,
      "patrol_enemies": 0,
      "flying_spawn_interval_ms": 0,
      "falling_rock_spawn_interval_ms": 0
    },
    {
      "index": 571,
      "duration_beats": 2,
      "bpm": 78,
      "energy_state": "low",
      "platform_types": [
        "static",
        "beat",
        "alternateBeat",
        "elevator"
      ],
      "vertical_range": [
        0,
        1
      ],
      "rhythm_density": 0,
      "patrol_enemies": 0,
      "flying_spawn_interval_ms": 0,
      "falling_rock_spawn_interval_ms": 0
    },
    {
      "index": 572,
      "duration_beats": 2,
      "bpm": 78,
      "energy_state": "low",
      "platform_types": [
        "static",
        "beat",
        "alternateBeat",
        "elevator"
      ],
      "vertical_range": [
        0,
        1
      ],
      "rhythm_density": 0,
      "patrol_enemies": 0,
      "flying_spawn_interval_ms": 0,
      "falling_rock_spawn_interval_ms": 0
    },
    {
      "index": 573,
      "duration_beats": 2,
      "bpm": 78,
      "energy_state": "low",
      "platform_types": [
        "static",
        "beat",
        "alternateBeat",
        "elevator"
      ],
      "vertical_range": [
        0,
        1
      ],
      "rhythm_density": 0,
      "patrol_enemies": 0,
      "flying_spawn_interval_ms": 0,
      "falling_rock_spawn_interval_ms": 0
    },
    {
      "index": 574,
      "duration_beats": 2,
      "bpm": 78,
      "energy_state": "low",
      "platform_types": [
        "static",
        "beat",
        "alternateBeat",
        "elevator"
      ],
      "vertical_range": [
        0,
        1
      ],
      "rhythm_density": 0,
      "patrol_enemies": 0,
      "flying_spawn_interval_ms": 3400,
      "falling_rock_spawn_interval_ms": 0
    },
    {
      "index": 575,
      "duration_beats": 2,
      "bpm": 78,
      "energy_state": "low",
      "platform_types": [
        "static",
        "beat",
        "alternateBeat",
        "elevator"
      ],
      "vertical_range": [
        0,
        1
      ],
      "rhythm_density": 0,
      "patrol_enemies": 0,
      "flying_spawn_interval_ms": 0,
      "falling_rock_spawn_interval_ms": 0
    },
    {
      "index": 576,
      "duration_beats": 2,
      "bpm": 78,
      "energy_state": "low",
      "platform_types": [
        "static",
        "beat",
        "alternateBeat",
        "elevator"
      ],
      "vertical_range": [
        0,
        1
      ],
      "rhythm_density": 0,
      "patrol_enemies": 0,
      "flying_spawn_interval_ms": 0,
      "falling_rock_spawn_interval_ms": 0
    },
    {
      "index": 577,
      "duration_beats": 2,
      "bpm": 78,
      "energy_state": "low",
      "platform_types": [
        "static",
        "beat",
        "alternateBeat",
        "elevator"
      ],
      "vertical_range": [
        0,
        1
      ],
      "rhythm_density": 0,
      "patrol_enemies": 0,
      "flying_spawn_interval_ms": 0,
      "falling_rock_spawn_interval_ms": 0
    },
    {
      "index": 578,
      "duration_beats": 2,
      "bpm": 78,
      "energy_state": "low",
      "platform_types": [
        "static",
        "beat",
        "alternateBeat",
        "elevator"
      ],
      "vertical_range": [
        0,
        1
      ],
      "rhythm_density": 0,
      "patrol_enemies": 0,
      "flying_spawn_interval_ms": 0,
      "falling_rock_spawn_interval_ms": 0
    },
    {
      "index": 579,
      "duration_beats": 2,
      "bpm": 78,
      "energy_state": "low",
      "platform_types": [
        "static",
        "beat",
        "alternateBeat",
        "elevator"
      ],
      "vertical_range": [
        0,
        1
      ],
      "rhythm_density": 0,
      "patrol_enemies": 0,
      "flying_spawn_interval_ms": 3400,
      "falling_rock_spawn_interval_ms": 0
    },
    {
      "index": 580,
      "duration_beats": 2,
      "bpm": 78,
      "energy_state": "low",
      "platform_types": [
        "static",
        "beat",
        "alternateBeat",
        "elevator"
      ],
      "vertical_range": [
        0,
        1
      ],
      "rhythm_density": 0,
      "patrol_enemies": 0,
      "flying_spawn_interval_ms": 0,
      "falling_rock_spawn_interval_ms": 0
    },
    {
      "index": 581,
      "duration_beats": 2,
      "bpm": 78,
      "energy_state": "low",
      "platform_types": [
        "static",
        "beat",
        "alternateBeat",
        "elevator"
      ],
      "vertical_range": [
        0,
        1
      ],
      "rhythm_density": 0,
      "patrol_enemies": 0,
      "flying_spawn_interval_ms": 0,
      "falling_rock_spawn_interval_ms": 0
    },
    {
      "index": 582,
      "duration_beats": 2,
      "bpm": 78,
      "energy_state": "low",
      "platform_types": [
        "static",
        "beat",
        "alternateBeat",
        "elevator"
      ],
      "vertical_range": [
        0,
        1
      ],
      "rhythm_density": 0,
      "patrol_enemies": 0,
      "flying_spawn_interval_ms": 0,
      "falling_rock_spawn_interval_ms": 0
    },
    {
      "index": 583,
      "duration_beats": 2,
      "bpm": 78,
      "energy_state": "low",
      "platform_types": [
        "static",
        "beat",
        "alternateBeat",
        "elevator"
      ],
      "vertical_range": [
        0,
        1
      ],
      "rhythm_density": 0,
      "patrol_enemies": 0,
      "flying_spawn_interval_ms": 0,
      "falling_rock_spawn_interval_ms": 0
    },
    {
      "index": 584,
      "duration_beats": 2,
      "bpm": 78,
      "energy_state": "low",
      "platform_types": [
        "static",
        "beat",
        "alternateBeat",
        "elevator"
      ],
      "vertical_range": [
        0,
        1
      ],
      "rhythm_density": 0,
      "patrol_enemies": 0,
      "flying_spawn_interval_ms": 3400,
      "falling_rock_spawn_interval_ms": 0
    },
    {
      "index": 585,
      "duration_beats": 2,
      "bpm": 78,
      "energy_state": "low",
      "platform_types": [
        "static",
        "beat",
        "alternateBeat",
        "elevator"
      ],
      "vertical_range": [
        0,
        1
      ],
      "rhythm_density": 0,
      "patrol_enemies": 0,
      "flying_spawn_interval_ms": 0,
      "falling_rock_spawn_interval_ms": 0
    },
    {
      "index": 586,
      "duration_beats": 2,
      "bpm": 78,
      "energy_state": "low",
      "platform_types": [
        "static",
        "beat",
        "alternateBeat",
        "elevator"
      ],
      "vertical_range": [
        0,
        1
      ],
      "rhythm_density": 0,
      "patrol_enemies": 0,
      "flying_spawn_interval_ms": 0,
      "falling_rock_spawn_interval_ms": 0
    },
    {
      "index": 587,
      "duration_beats": 2,
      "bpm": 78,
      "energy_state": "low",
      "platform_types": [
        "static",
        "beat",
        "alternateBeat",
        "elevator"
      ],
      "vertical_range": [
        0,
        1
      ],
      "rhythm_density": 0,
      "patrol_enemies": 0,
      "flying_spawn_interval_ms": 0,
      "falling_rock_spawn_interval_ms": 0
    },
    {
      "index": 588,
      "duration_beats": 2,
      "bpm": 78,
      "energy_state": "low",
      "platform_types": [
        "static",
        "beat",
        "alternateBeat",
        "elevator"
      ],
      "vertical_range": [
        0,
        1
      ],
      "rhythm_density": 0,
      "patrol_enemies": 0,
      "flying_spawn_interval_ms": 0,
      "falling_rock_spawn_interval_ms": 0
    },
    {
      "index": 589,
      "duration_beats": 2,
      "bpm": 78,
      "energy_state": "low",
      "platform_types": [
        "static",
        "beat",
        "alternateBeat",
        "elevator"
      ],
      "vertical_range": [
        0,
        1
      ],
      "rhythm_density": 0,
      "patrol_enemies": 0,
      "flying_spawn_interval_ms": 3400,
      "falling_rock_spawn_interval_ms": 0
    },
    {
      "index": 590,
      "duration_beats": 2,
      "bpm": 78,
      "energy_state": "low",
      "platform_types": [
        "static",
        "beat",
        "alternateBeat",
        "elevator"
      ],
      "vertical_range": [
        0,
        1
      ],
      "rhythm_density": 0,
      "patrol_enemies": 0,
      "flying_spawn_interval_ms": 0,
      "falling_rock_spawn_interval_ms": 0
    },
    {
      "index": 591,
      "duration_beats": 2,
      "bpm": 78,
      "energy_state": "low",
      "platform_types": [
        "static",
        "beat",
        "alternateBeat",
        "elevator"
      ],
      "vertical_range": [
        0,
        1
      ],
      "rhythm_density": 0,
      "patrol_enemies": 0,
      "flying_spawn_interval_ms": 0,
      "falling_rock_spawn_interval_ms": 0
    },
    {
      "index": 592,
      "duration_beats": 2,
      "bpm": 78,
      "energy_state": "low",
      "platform_types": [
        "static",
        "beat",
        "alternateBeat",
        "elevator"
      ],
      "vertical_range": [
        0,
        1
      ],
      "rhythm_density": 0,
      "patrol_enemies": 0,
      "flying_spawn_interval_ms": 0,
      "falling_rock_spawn_interval_ms": 0
    },
    {
      "index": 593,
      "duration_beats": 2,
      "bpm": 78,
      "energy_state": "low",
      "platform_types": [
        "static",
        "beat",
        "alternateBeat",
        "elevator"
      ],
      "vertical_range": [
        0,
        1
      ],
      "rhythm_density": 0,
      "patrol_enemies": 0,
      "flying_spawn_interval_ms": 0,
      "falling_rock_spawn_interval_ms": 0
    },
    {
      "index": 594,
      "duration_beats": 2,
      "bpm": 78,
      "energy_state": "low",
      "platform_types": [
        "static",
        "beat",
        "alternateBeat",
        "elevator"
      ],
      "vertical_range": [
        0,
        1
      ],
      "rhythm_density": 0,
      "patrol_enemies": 0,
      "flying_spawn_interval_ms": 3400,
      "falling_rock_spawn_interval_ms": 0
    },
    {
      "index": 595,
      "duration_beats": 2,
      "bpm": 78,
      "energy_state": "low",
      "platform_types": [
        "static",
        "beat",
        "alternateBeat",
        "elevator"
      ],
      "vertical_range": [
        0,
        1
      ],
      "rhythm_density": 0,
      "patrol_enemies": 0,
      "flying_spawn_interval_ms": 0,
      "falling_rock_spawn_interval_ms": 0
    },
    {
      "index": 596,
      "duration_beats": 2,
      "bpm": 78,
      "energy_state": "low",
      "platform_types": [
        "static",
        "beat",
        "alternateBeat",
        "elevator"
      ],
      "vertical_range": [
        0,
        1
      ],
      "rhythm_density": 0,
      "patrol_enemies": 0,
      "flying_spawn_interval_ms": 0,
      "falling_rock_spawn_interval_ms": 0
    },
    {
      "index": 597,
      "duration_beats": 2,
      "bpm": 78,
      "energy_state": "low",
      "platform_types": [
        "static",
        "beat",
        "alternateBeat",
        "elevator"
      ],
      "vertical_range": [
        0,
        1
      ],
      "rhythm_density": 0,
      "patrol_enemies": 0,
      "flying_spawn_interval_ms": 0,
      "falling_rock_spawn_interval_ms": 0
    },
    {
      "index": 598,
      "duration_beats": 2,
      "bpm": 78,
      "energy_state": "low",
      "platform_types": [
        "static",
        "beat",
        "alternateBeat",
        "elevator"
      ],
      "vertical_range": [
        0,
        1
      ],
      "rhythm_density": 0,
      "patrol_enemies": 0,
      "flying_spawn_interval_ms": 0,
      "falling_rock_spawn_interval_ms": 0
    },
    {
      "index": 599,
      "duration_beats": 2,
      "bpm": 78,
      "energy_state": "low",
      "platform_types": [
        "static",
        "beat",
        "alternateBeat",
        "elevator"
      ],
      "vertical_range": [
        0,
        1
      ],
      "rhythm_density": 0,
      "patrol_enemies": 0,
      "flying_spawn_interval_ms": 3400,
      "falling_rock_spawn_interval_ms": 0
    },
    {
      "index": 600,
      "duration_beats": 2,
      "bpm": 78,
      "energy_state": "low",
      "platform_types": [
        "static",
        "beat",
        "alternateBeat",
        "elevator"
      ],
      "vertical_range": [
        0,
        1
      ],
      "rhythm_density": 0,
      "patrol_enemies": 0,
      "flying_spawn_interval_ms": 0,
      "falling_rock_spawn_interval_ms": 0
    },
    {
      "index": 601,
      "duration_beats": 2,
      "bpm": 78,
      "energy_state": "low",
      "platform_types": [
        "static",
        "beat",
        "alternateBeat",
        "elevator"
      ],
      "vertical_range": [
        0,
        1
      ],
      "rhythm_density": 0,
      "patrol_enemies": 0,
      "flying_spawn_interval_ms": 0,
      "falling_rock_spawn_interval_ms": 0
    },
    {
      "index": 602,
      "duration_beats": 2,
      "bpm": 78,
      "energy_state": "low",
      "platform_types": [
        "static",
        "beat",
        "alternateBeat",
        "elevator"
      ],
      "vertical_range": [
        0,
        1
      ],
      "rhythm_density": 0,
      "patrol_enemies": 0,
      "flying_spawn_interval_ms": 0,
      "falling_rock_spawn_interval_ms": 0
    },
    {
      "index": 603,
      "duration_beats": 2,
      "bpm": 78,
      "energy_state": "low",
      "platform_types": [
        "static",
        "beat",
        "alternateBeat",
        "elevator"
      ],
      "vertical_range": [
        0,
        1
      ],
      "rhythm_density": 0,
      "patrol_enemies": 0,
      "flying_spawn_interval_ms": 0,
      "falling_rock_spawn_interval_ms": 0
    },
    {
      "index": 604,
      "duration_beats": 2,
      "bpm": 78,
      "energy_state": "low",
      "platform_types": [
        "static",
        "beat",
        "alternateBeat",
        "elevator"
      ],
      "vertical_range": [
        0,
        1
      ],
      "rhythm_density": 0,
      "patrol_enemies": 0,
      "flying_spawn_interval_ms": 3400,
      "falling_rock_spawn_interval_ms": 0
    },
    {
      "index": 605,
      "duration_beats": 2,
      "bpm": 78,
      "energy_state": "low",
      "platform_types": [
        "static",
        "beat",
        "alternateBeat",
        "elevator"
      ],
      "vertical_range": [
        0,
        1
      ],
      "rhythm_density": 0,
      "patrol_enemies": 0,
      "flying_spawn_interval_ms": 0,
      "falling_rock_spawn_interval_ms": 0
    },
    {
      "index": 606,
      "duration_beats": 2,
      "bpm": 78,
      "energy_state": "low",
      "platform_types": [
        "static",
        "beat",
        "alternateBeat",
        "elevator"
      ],
      "vertical_range": [
        0,
        1
      ],
      "rhythm_density": 0,
      "patrol_enemies": 0,
      "flying_spawn_interval_ms": 0,
      "falling_rock_spawn_interval_ms": 0
    },
    {
      "index": 607,
      "duration_beats": 2,
      "bpm": 78,
      "energy_state": "low",
      "platform_types": [
        "static",
        "beat",
        "alternateBeat",
        "elevator"
      ],
      "vertical_range": [
        0,
        1
      ],
      "rhythm_density": 0,
      "patrol_enemies": 0,
      "flying_spawn_interval_ms": 0,
      "falling_rock_spawn_interval_ms": 0
    },
    {
      "index": 608,
      "duration_beats": 2,
      "bpm": 78,
      "energy_state": "low",
      "platform_types": [
        "static",
        "beat",
        "alternateBeat",
        "elevator"
      ],
      "vertical_range": [
        0,
        1
      ],
      "rhythm_density": 0,
      "patrol_enemies": 0,
      "flying_spawn_interval_ms": 0,
      "falling_rock_spawn_interval_ms": 0
    },
    {
      "index": 609,
      "duration_beats": 2,
      "bpm": 78,
      "energy_state": "low",
      "platform_types": [
        "static",
        "beat",
        "alternateBeat",
        "elevator"
      ],
      "vertical_range": [
        0,
        1
      ],
      "rhythm_density": 0,
      "patrol_enemies": 0,
      "flying_spawn_interval_ms": 3400,
      "falling_rock_spawn_interval_ms": 0
    },
    {
      "index": 610,
      "duration_beats": 2,
      "bpm": 78,
      "energy_state": "low",
      "platform_types": [
        "static",
        "beat",
        "alternateBeat",
        "elevator"
      ],
      "vertical_range": [
        0,
        1
      ],
      "rhythm_density": 0,
      "patrol_enemies": 0,
      "flying_spawn_interval_ms": 0,
      "falling_rock_spawn_interval_ms": 0
    },
    {
      "index": 611,
      "duration_beats": 2,
      "bpm": 78,
      "energy_state": "low",
      "platform_types": [
        "static",
        "beat",
        "alternateBeat",
        "elevator"
      ],
      "vertical_range": [
        0,
        1
      ],
      "rhythm_density": 0,
      "patrol_enemies": 0,
      "flying_spawn_interval_ms": 0,
      "falling_rock_spawn_interval_ms": 0
    },
    {
      "index": 612,
      "duration_beats": 2,
      "bpm": 78,
      "energy_state": "low",
      "platform_types": [
        "static",
        "beat",
        "alternateBeat",
        "elevator"
      ],
      "vertical_range": [
        0,
        1
      ],
      "rhythm_density": 0,
      "patrol_enemies": 0,
      "flying_spawn_interval_ms": 0,
      "falling_rock_spawn_interval_ms": 0
    },
    {
      "index": 613,
      "duration_beats": 2,
      "bpm": 78,
      "energy_state": "low",
      "platform_types": [
        "static",
        "beat",
        "alternateBeat",
        "elevator"
      ],
      "vertical_range": [
        0,
        1
      ],
      "rhythm_density": 0,
      "patrol_enemies": 0,
      "flying_spawn_interval_ms": 0,
      "falling_rock_spawn_interval_ms": 0
    },
    {
      "index": 614,
      "duration_beats": 2,
      "bpm": 78,
      "energy_state": "low",
      "platform_types": [
        "static",
        "beat",
        "alternateBeat",
        "elevator"
      ],
      "vertical_range": [
        0,
        1
      ],
      "rhythm_density": 0,
      "patrol_enemies": 0,
      "flying_spawn_interval_ms": 3400,
      "falling_rock_spawn_interval_ms": 0
    },
    {
      "index": 615,
      "duration_beats": 2,
      "bpm": 78,
      "energy_state": "low",
      "platform_types": [
        "static",
        "beat",
        "alternateBeat",
        "elevator"
      ],
      "vertical_range": [
        0,
        1
      ],
      "rhythm_density": 0,
      "patrol_enemies": 0,
      "flying_spawn_interval_ms": 0,
      "falling_rock_spawn_interval_ms": 0
    },
    {
      "index": 616,
      "duration_beats": 2,
      "bpm": 78,
      "energy_state": "low",
      "platform_types": [
        "static",
        "beat",
        "alternateBeat",
        "elevator"
      ],
      "vertical_range": [
        0,
        1
      ],
      "rhythm_density": 0,
      "patrol_enemies": 0,
      "flying_spawn_interval_ms": 0,
      "falling_rock_spawn_interval_ms": 0
    },
    {
      "index": 617,
      "duration_beats": 2,
      "bpm": 78,
      "energy_state": "low",
      "platform_types": [
        "static",
        "beat",
        "alternateBeat",
        "elevator"
      ],
      "vertical_range": [
        0,
        1
      ],
      "rhythm_density": 0,
      "patrol_enemies": 0,
      "flying_spawn_interval_ms": 0,
      "falling_rock_spawn_interval_ms": 0
    },
    {
      "index": 618,
      "duration_beats": 2,
      "bpm": 78,
      "energy_state": "low",
      "platform_types": [
        "static",
        "beat",
        "alternateBeat",
        "elevator"
      ],
      "vertical_range": [
        0,
        1
      ],
      "rhythm_density": 0,
      "patrol_enemies": 0,
      "flying_spawn_interval_ms": 0,
      "falling_rock_spawn_interval_ms": 0
    },
    {
      "index": 619,
      "duration_beats": 2,
      "bpm": 78,
      "energy_state": "low",
      "platform_types": [
        "static",
        "beat",
        "alternateBeat",
        "elevator"
      ],
      "vertical_range": [
        0,
        1
      ],
      "rhythm_density": 0,
      "patrol_enemies": 0,
      "flying_spawn_interval_ms": 3400,
      "falling_rock_spawn_interval_ms": 0
    },
    {
      "index": 620,
      "duration_beats": 2,
      "bpm": 78,
      "energy_state": "low",
      "platform_types": [
        "static",
        "beat",
        "alternateBeat",
        "elevator"
      ],
      "vertical_range": [
        0,
        1
      ],
      "rhythm_density": 0,
      "patrol_enemies": 0,
      "flying_spawn_interval_ms": 0,
      "falling_rock_spawn_interval_ms": 0
    },
    {
      "index": 621,
      "duration_beats": 2,
      "bpm": 78,
      "energy_state": "low",
      "platform_types": [
        "static",
        "beat",
        "alternateBeat",
        "elevator"
      ],
      "vertical_range": [
        0,
        1
      ],
      "rhythm_density": 0,
      "patrol_enemies": 0,
      "flying_spawn_interval_ms": 0,
      "falling_rock_spawn_interval_ms": 0
    },
    {
      "index": 622,
      "duration_beats": 2,
      "bpm": 78,
      "energy_state": "low",
      "platform_types": [
        "static",
        "beat",
        "alternateBeat",
        "elevator"
      ],
      "vertical_range": [
        0,
        1
      ],
      "rhythm_density": 0,
      "patrol_enemies": 0,
      "flying_spawn_interval_ms": 0,
      "falling_rock_spawn_interval_ms": 0
    },
    {
      "index": 623,
      "duration_beats": 2,
      "bpm": 78,
      "energy_state": "low",
      "platform_types": [
        "static",
        "beat",
        "alternateBeat",
        "elevator"
      ],
      "vertical_range": [
        0,
        1
      ],
      "rhythm_density": 0,
      "patrol_enemies": 0,
      "flying_spawn_interval_ms": 0,
      "falling_rock_spawn_interval_ms": 0
    },
    {
      "index": 624,
      "duration_beats": 2,
      "bpm": 78,
      "energy_state": "low",
      "platform_types": [
        "static",
        "beat",
        "alternateBeat",
        "elevator"
      ],
      "vertical_range": [
        0,
        1
      ],
      "rhythm_density": 0,
      "patrol_enemies": 0,
      "flying_spawn_interval_ms": 3400,
      "falling_rock_spawn_interval_ms": 0
    },
    {
      "index": 625,
      "duration_beats": 2,
      "bpm": 78,
      "energy_state": "low",
      "platform_types": [
        "static",
        "beat",
        "alternateBeat",
        "elevator"
      ],
      "vertical_range": [
        0,
        1
      ],
      "rhythm_density": 0,
      "patrol_enemies": 0,
      "flying_spawn_interval_ms": 0,
      "falling_rock_spawn_interval_ms": 0
    },
    {
      "index": 626,
      "duration_beats": 2,
      "bpm": 78,
      "energy_state": "low",
      "platform_types": [
        "static",
        "beat",
        "alternateBeat",
        "elevator"
      ],
      "vertical_range": [
        0,
        1
      ],
      "rhythm_density": 0,
      "patrol_enemies": 0,
      "flying_spawn_interval_ms": 0,
      "falling_rock_spawn_interval_ms": 0
    },
    {
      "index": 627,
      "duration_beats": 2,
      "bpm": 78,
      "energy_state": "low",
      "platform_types": [
        "static",
        "beat",
        "alternateBeat",
        "elevator"
      ],
      "vertical_range": [
        0,
        1
      ],
      "rhythm_density": 0,
      "patrol_enemies": 0,
      "flying_spawn_interval_ms": 0,
      "falling_rock_spawn_interval_ms": 0
    },
    {
      "index": 628,
      "duration_beats": 2,
      "bpm": 78,
      "energy_state": "low",
      "platform_types": [
        "static",
        "beat",
        "alternateBeat",
        "elevator"
      ],
      "vertical_range": [
        0,
        1
      ],
      "rhythm_density": 0,
      "patrol_enemies": 0,
      "flying_spawn_interval_ms": 0,
      "falling_rock_spawn_interval_ms": 0
    },
    {
      "index": 629,
      "duration_beats": 2,
      "bpm": 78,
      "energy_state": "low",
      "platform_types": [
        "static",
        "beat",
        "alternateBeat",
        "elevator"
      ],
      "vertical_range": [
        0,
        1
      ],
      "rhythm_density": 0,
      "patrol_enemies": 0,
      "flying_spawn_interval_ms": 3400,
      "falling_rock_spawn_interval_ms": 0
    },
    {
      "index": 630,
      "duration_beats": 2,
      "bpm": 78,
      "energy_state": "low",
      "platform_types": [
        "static",
        "beat",
        "alternateBeat",
        "elevator"
      ],
      "vertical_range": [
        0,
        1
      ],
      "rhythm_density": 0,
      "patrol_enemies": 0,
      "flying_spawn_interval_ms": 0,
      "falling_rock_spawn_interval_ms": 0
    },
    {
      "index": 631,
      "duration_beats": 2,
      "bpm": 78,
      "energy_state": "low",
      "platform_types": [
        "static",
        "beat",
        "alternateBeat",
        "elevator"
      ],
      "vertical_range": [
        0,
        1
      ],
      "rhythm_density": 0,
      "patrol_enemies": 0,
      "flying_spawn_interval_ms": 0,
      "falling_rock_spawn_interval_ms": 0
    },
    {
      "index": 632,
      "duration_beats": 2,
      "bpm": 78,
      "energy_state": "low",
      "platform_types": [
        "static",
        "beat",
        "alternateBeat",
        "elevator"
      ],
      "vertical_range": [
        0,
        1
      ],
      "rhythm_density": 0,
      "patrol_enemies": 0,
      "flying_spawn_interval_ms": 0,
      "falling_rock_spawn_interval_ms": 0
    },
    {
      "index": 633,
      "duration_beats": 2,
      "bpm": 78,
      "energy_state": "low",
      "platform_types": [
        "static",
        "beat",
        "alternateBeat",
        "elevator"
      ],
      "vertical_range": [
        0,
        1
      ],
      "rhythm_density": 0,
      "patrol_enemies": 0,
      "flying_spawn_interval_ms": 0,
      "falling_rock_spawn_interval_ms": 0
    },
    {
      "index": 634,
      "duration_beats": 2,
      "bpm": 78,
      "energy_state": "low",
      "platform_types": [
        "static",
        "beat",
        "alternateBeat",
        "elevator"
      ],
      "vertical_range": [
        0,
        1
      ],
      "rhythm_density": 0,
      "patrol_enemies": 0,
      "flying_spawn_interval_ms": 3400,
      "falling_rock_spawn_interval_ms": 0
    },
    {
      "index": 635,
      "duration_beats": 2,
      "bpm": 78,
      "energy_state": "low",
      "platform_types": [
        "static",
        "beat",
        "alternateBeat",
        "elevator"
      ],
      "vertical_range": [
        0,
        1
      ],
      "rhythm_density": 0,
      "patrol_enemies": 0,
      "flying_spawn_interval_ms": 0,
      "falling_rock_spawn_interval_ms": 0
    },
    {
      "index": 636,
      "duration_beats": 2,
      "bpm": 78,
      "energy_state": "low",
      "platform_types": [
        "static",
        "beat",
        "alternateBeat",
        "elevator"
      ],
      "vertical_range": [
        0,
        1
      ],
      "rhythm_density": 0,
      "patrol_enemies": 0,
      "flying_spawn_interval_ms": 0,
      "falling_rock_spawn_interval_ms": 0
    },
    {
      "index": 637,
      "duration_beats": 2,
      "bpm": 78,
      "energy_state": "low",
      "platform_types": [
        "static",
        "beat",
        "alternateBeat",
        "elevator"
      ],
      "vertical_range": [
        0,
        1
      ],
      "rhythm_density": 0,
      "patrol_enemies": 0,
      "flying_spawn_interval_ms": 0,
      "falling_rock_spawn_interval_ms": 0
    },
    {
      "index": 638,
      "duration_beats": 2,
      "bpm": 78,
      "energy_state": "low",
      "platform_types": [
        "static",
        "beat",
        "alternateBeat",
        "elevator"
      ],
      "vertical_range": [
        0,
        1
      ],
      "rhythm_density": 0,
      "patrol_enemies": 0,
      "flying_spawn_interval_ms": 0,
      "falling_rock_spawn_interval_ms": 0
    },
    {
      "index": 639,
      "duration_beats": 2,
      "bpm": 78,
      "energy_state": "low",
      "platform_types": [
        "static",
        "beat",
        "alternateBeat",
        "elevator"
      ],
      "vertical_range": [
        0,
        1
      ],
      "rhythm_density": 0,
      "patrol_enemies": 0,
      "flying_spawn_interval_ms": 3400,
      "falling_rock_spawn_interval_ms": 0
    },
    {
      "index": 640,
      "duration_beats": 2,
      "bpm": 78,
      "energy_state": "low",
      "platform_types": [
        "static",
        "beat",
        "alternateBeat",
        "elevator"
      ],
      "vertical_range": [
        0,
        1
      ],
      "rhythm_density": 0,
      "patrol_enemies": 0,
      "flying_spawn_interval_ms": 0,
      "falling_rock_spawn_interval_ms": 0
    },
    {
      "index": 641,
      "duration_beats": 2,
      "bpm": 78,
      "energy_state": "low",
      "platform_types": [
        "static",
        "beat",
        "alternateBeat",
        "elevator"
      ],
      "vertical_range": [
        0,
        1
      ],
      "rhythm_density": 0,
      "patrol_enemies": 0,
      "flying_spawn_interval_ms": 0,
      "falling_rock_spawn_interval_ms": 0
    },
    {
      "index": 642,
      "duration_beats": 2,
      "bpm": 78,
      "energy_state": "low",
      "platform_types": [
        "static",
        "beat",
        "alternateBeat",
        "elevator"
      ],
      "vertical_range": [
        0,
        1
      ],
      "rhythm_density": 0,
      "patrol_enemies": 0,
      "flying_spawn_interval_ms": 0,
      "falling_rock_spawn_interval_ms": 0
    },
    {
      "index": 643,
      "duration_beats": 2,
      "bpm": 78,
      "energy_state": "low",
      "platform_types": [
        "static",
        "beat",
        "alternateBeat",
        "elevator"
      ],
      "vertical_range": [
        0,
        1
      ],
      "rhythm_density": 0,
      "patrol_enemies": 0,
      "flying_spawn_interval_ms": 0,
      "falling_rock_spawn_interval_ms": 0
    },
    {
      "index": 644,
      "duration_beats": 2,
      "bpm": 78,
      "energy_state": "low",
      "platform_types": [
        "static",
        "beat",
        "alternateBeat",
        "elevator"
      ],
      "vertical_range": [
        0,
        1
      ],
      "rhythm_density": 0,
      "patrol_enemies": 0,
      "flying_spawn_interval_ms": 3400,
      "falling_rock_spawn_interval_ms": 0
    },
    {
      "index": 645,
      "duration_beats": 2,
      "bpm": 78,
      "energy_state": "low",
      "platform_types": [
        "static",
        "beat",
        "alternateBeat",
        "elevator"
      ],
      "vertical_range": [
        0,
        1
      ],
      "rhythm_density": 0,
      "patrol_enemies": 0,
      "flying_spawn_interval_ms": 0,
      "falling_rock_spawn_interval_ms": 0
    },
    {
      "index": 646,
      "duration_beats": 2,
      "bpm": 78,
      "energy_state": "low",
      "platform_types": [
        "static",
        "beat",
        "alternateBeat",
        "elevator"
      ],
      "vertical_range": [
        0,
        1
      ],
      "rhythm_density": 0,
      "patrol_enemies": 0,
      "flying_spawn_interval_ms": 0,
      "falling_rock_spawn_interval_ms": 0
    },
    {
      "index": 647,
      "duration_beats": 2,
      "bpm": 78,
      "energy_state": "low",
      "platform_types": [
        "static",
        "beat",
        "alternateBeat",
        "elevator"
      ],
      "vertical_range": [
        0,
        1
      ],
      "rhythm_density": 0,
      "patrol_enemies": 0,
      "flying_spawn_interval_ms": 0,
      "falling_rock_spawn_interval_ms": 0
    },
    {
      "index": 648,
      "duration_beats": 2,
      "bpm": 78,
      "energy_state": "low",
      "platform_types": [
        "static",
        "beat",
        "alternateBeat",
        "elevator"
      ],
      "vertical_range": [
        0,
        1
      ],
      "rhythm_density": 0,
      "patrol_enemies": 0,
      "flying_spawn_interval_ms": 0,
      "falling_rock_spawn_interval_ms": 0
    },
    {
      "index": 649,
      "duration_beats": 2,
      "bpm": 78,
      "energy_state": "low",
      "platform_types": [
        "static",
        "beat",
        "alternateBeat",
        "elevator"
      ],
      "vertical_range": [
        0,
        1
      ],
      "rhythm_density": 0,
      "patrol_enemies": 0,
      "flying_spawn_interval_ms": 3400,
      "falling_rock_spawn_interval_ms": 0
    },
    {
      "index": 650,
      "duration_beats": 2,
      "bpm": 78,
      "energy_state": "low",
      "platform_types": [
        "static",
        "beat",
        "alternateBeat",
        "elevator"
      ],
      "vertical_range": [
        0,
        1
      ],
      "rhythm_density": 0,
      "patrol_enemies": 0,
      "flying_spawn_interval_ms": 0,
      "falling_rock_spawn_interval_ms": 0
    },
    {
      "index": 651,
      "duration_beats": 2,
      "bpm": 78,
      "energy_state": "low",
      "platform_types": [
        "static",
        "beat",
        "alternateBeat",
        "elevator"
      ],
      "vertical_range": [
        0,
        1
      ],
      "rhythm_density": 0,
      "patrol_enemies": 0,
      "flying_spawn_interval_ms": 0,
      "falling_rock_spawn_interval_ms": 0
    },
    {
      "index": 652,
      "duration_beats": 2,
      "bpm": 78,
      "energy_state": "low",
      "platform_types": [
        "static",
        "beat",
        "alternateBeat",
        "elevator"
      ],
      "vertical_range": [
        0,
        1
      ],
      "rhythm_density": 0,
      "patrol_enemies": 0,
      "flying_spawn_interval_ms": 0,
      "falling_rock_spawn_interval_ms": 0
    },
    {
      "index": 653,
      "duration_beats": 2,
      "bpm": 78,
      "energy_state": "low",
      "platform_types": [
        "static",
        "beat",
        "alternateBeat",
        "elevator"
      ],
      "vertical_range": [
        0,
        1
      ],
      "rhythm_density": 0,
      "patrol_enemies": 0,
      "flying_spawn_interval_ms": 0,
      "falling_rock_spawn_interval_ms": 0
    },
    {
      "index": 654,
      "duration_beats": 2,
      "bpm": 78,
      "energy_state": "low",
      "platform_types": [
        "static",
        "beat",
        "alternateBeat",
        "elevator"
      ],
      "vertical_range": [
        0,
        1
      ],
      "rhythm_density": 0,
      "patrol_enemies": 0,
      "flying_spawn_interval_ms": 3400,
      "falling_rock_spawn_interval_ms": 0
    }
  ],
  "midi_file": "Bohemian Rhapsody.mid"
}